<?xml version="1.0" encoding="UTF-8" standalone="no"?>
<!-- Created with Inkscape (http://www.inkscape.org/) -->

<svg
   version="1.1"
   id="svg1"
   width="1440"
   height="1440"
   viewBox="0 0 1440 1440"
   xmlns="http://www.w3.org/2000/svg"
   xmlns:svg="http://www.w3.org/2000/svg">
  <defs
     id="defs1">
    <clipPath
       clipPathUnits="userSpaceOnUse"
       id="clipPath534">
      <path
         d="M 0,1080 H 1080 V 0 H 0 Z"
         transform="translate(-273.85351,-541.78591)"
         id="path534" />
    </clipPath>
    <clipPath
       clipPathUnits="userSpaceOnUse"
       id="clipPath536">
      <path
         d="M 0,1080 H 1080 V 0 H 0 Z"
         transform="translate(-801.78827,-536.95531)"
         id="path536" />
    </clipPath>
    <clipPath
       clipPathUnits="userSpaceOnUse"
       id="clipPath538">
      <path
         d="M 0,1080 H 1080 V 0 H 0 Z"
         transform="translate(-235.08001,-391.85161)"
         id="path538" />
    </clipPath>
    <clipPath
       clipPathUnits="userSpaceOnUse"
       id="clipPath540">
      <path
         d="M 0,1080 H 1080 V 0 H 0 Z"
         transform="translate(-930.28127,-733.94662)"
         id="path540" />
    </clipPath>
    <clipPath
       clipPathUnits="userSpaceOnUse"
       id="clipPath542">
      <path
         d="M 0,1080 H 1080 V 0 H 0 Z"
         transform="translate(-836.80802,-800.05202)"
         id="path542" />
    </clipPath>
    <clipPath
       clipPathUnits="userSpaceOnUse"
       id="clipPath544">
      <path
         d="M 0,1080 H 1080 V 0 H 0 Z"
         transform="translate(-308.39851,-539.06201)"
         id="path544" />
    </clipPath>
    <clipPath
       clipPathUnits="userSpaceOnUse"
       id="clipPath546">
      <path
         d="M 0,1080 H 1080 V 0 H 0 Z"
         transform="translate(-99.957002,-733.33092)"
         id="path546" />
    </clipPath>
    <clipPath
       clipPathUnits="userSpaceOnUse"
       id="clipPath548">
      <path
         d="M 0,1080 H 1080 V 0 H 0 Z"
         transform="translate(-141.903,-754.22992)"
         id="path548" />
    </clipPath>
    <clipPath
       clipPathUnits="userSpaceOnUse"
       id="clipPath550">
      <path
         d="M 0,1080 H 1080 V 0 H 0 Z"
         transform="translate(-170.1015,-745.23432)"
         id="path550" />
    </clipPath>
    <clipPath
       clipPathUnits="userSpaceOnUse"
       id="clipPath552">
      <path
         d="M 0,1080 H 1080 V 0 H 0 Z"
         transform="translate(-318.60826,-240.31523)"
         id="path552" />
    </clipPath>
    <clipPath
       clipPathUnits="userSpaceOnUse"
       id="clipPath554">
      <path
         d="M 0,1080 H 1080 V 0 H 0 Z"
         transform="translate(-856.33952,-394.49801)"
         id="path554" />
    </clipPath>
    <clipPath
       clipPathUnits="userSpaceOnUse"
       id="clipPath556">
      <path
         d="M 0,1080 H 1080 V 0 H 0 Z"
         transform="translate(-839.47577,-423.05821)"
         id="path556" />
    </clipPath>
    <clipPath
       clipPathUnits="userSpaceOnUse"
       id="clipPath558">
      <path
         d="M 0,1080 H 1080 V 0 H 0 Z"
         transform="translate(-649.03427,-586.19761)"
         id="path558" />
    </clipPath>
    <clipPath
       clipPathUnits="userSpaceOnUse"
       id="clipPath560">
      <path
         d="M 0,1080 H 1080 V 0 H 0 Z"
         transform="translate(-632.41352,-646.53512)"
         id="path560" />
    </clipPath>
    <clipPath
       clipPathUnits="userSpaceOnUse"
       id="clipPath562">
      <path
         d="M 0,1080 H 1080 V 0 H 0 Z"
         transform="translate(-655.59302,-650.85011)"
         id="path562" />
    </clipPath>
  </defs>
  <g
     id="layer-MC0"
     style="display:none"
     transform="translate(-10220)">
    <path
       id="path532"
       d="M 0,0 H 1080 V 1080 H 0 Z"
       style="fill:#d2451e;fill-opacity:1;fill-rule:nonzero;stroke:none"
       transform="matrix(1.3333333,0,0,-1.3333333,10220,1440)" />
  </g>
  <g
     id="layer-MC1"
     transform="translate(-10220)">
    <path
       id="path533"
       d="M 0,0 C 0.23,0.071 0.634,-0.003 0.786,-0.168 1.399,-0.832 1.517,-1.708 1.445,-2.55 1.416,-2.898 1.03,-3.322 0.694,-3.519 -0.784,-4.385 -2.298,-5.19 -3.808,-6.001 c -13.469,-7.235 -27.032,-14.302 -40.169,-22.14 -7.491,-4.469 -14.835,-9.167 -21.889,-14.304 -6.712,-4.887 -13.167,-10.08 -18.903,-16.117 -2.666,-2.806 -5.137,-5.764 -7.189,-9.053 -1.521,-2.437 -2.701,-5.019 -3.377,-7.838 -0.933,-3.897 -0.072,-7.362 2.303,-10.505 1.042,-1.377 2.32,-2.522 3.711,-3.542 2.203,-1.614 4.606,-2.858 7.111,-3.933 5.68,-2.44 11.622,-3.965 17.683,-5.042 8.026,-1.426 16.116,-2.252 24.257,-2.786 10.859,-0.712 21.718,-0.77 32.576,-0.436 8.139,0.25 16.285,0.512 24.406,1.228 5.266,0.465 10.551,0.722 15.819,1.164 4.698,0.394 9.388,0.888 14.077,1.386 6.253,0.663 12.505,1.332 18.748,2.075 5.25,0.625 10.492,1.32 15.727,2.054 7.074,0.992 14.143,2.029 21.207,3.091 4.238,0.637 8.469,1.33 12.694,2.049 9.296,1.582 18.599,3.125 27.875,4.817 9.275,1.691 18.535,3.476 27.776,5.34 14.144,2.852 28.253,5.868 42.33,9.035 17.423,3.919 34.788,8.076 52.096,12.466 32.544,8.256 64.88,17.266 96.967,27.154 11.467,3.534 22.883,7.23 34.323,10.851 22.944,7.407 45.058,15.132 67.066,23.17 28.467,10.396 56.488,21.871 84.014,34.547 17.532,8.073 34.733,16.799 51.36,26.625 7.015,4.146 13.936,8.442 20.647,13.069 7.783,5.366 15.201,11.18 21.829,17.951 2.907,2.97 5.584,6.128 7.843,9.627 1.322,2.049 2.493,4.174 3.225,6.511 0.299,0.95 0.572,1.919 0.732,2.9 0.691,4.244 -0.521,7.898 -3.461,11.022 -1.787,1.898 -3.882,3.369 -6.143,4.621 -3.516,1.946 -7.246,3.397 -11.09,4.531 -5.629,1.66 -11.379,2.759 -17.187,3.588 -17.321,2.475 -34.744,2.807 -52.196,2.501 -8.576,-0.15 -17.136,-0.663 -25.682,-1.409 -4.84,-0.423 -9.689,-0.755 -14.53,-1.168 -3.844,-0.329 -7.682,-0.731 -11.526,-1.064 -0.398,-0.035 -0.935,0.051 -1.205,0.301 -0.745,0.688 -1.273,1.551 -1.141,2.634 0.028,0.228 0.258,0.584 0.439,0.615 1.686,0.285 3.374,0.596 5.074,0.741 7.974,0.68 15.946,1.418 23.931,1.928 8.7,0.555 17.41,0.949 26.124,1.266 8.004,0.29 16.006,0.529 24.008,0.311 10.289,-0.28 20.57,-0.82 30.752,-2.443 6.92,-1.103 13.762,-2.578 20.344,-5.067 2.949,-1.116 5.79,-2.45 8.441,-4.167 1.805,-1.169 3.515,-2.458 4.992,-4.032 4.201,-4.481 5.874,-9.676 4.559,-15.772 -0.518,-2.399 -1.351,-4.66 -2.463,-6.833 -1.705,-3.329 -3.886,-6.33 -6.32,-9.155 C 645.043,94.017 640.874,90.11 636.451,86.47 627.826,79.372 618.679,73.01 609.203,67.111 597.303,59.702 584.985,53.044 572.501,46.686 552.246,36.37 531.572,26.958 510.602,18.198 466.41,-0.262 421.427,-16.545 375.723,-30.852 332.764,-44.3 289.42,-56.343 245.674,-66.948 c -20.132,-4.88 -40.333,-9.45 -60.608,-13.698 -14.543,-3.047 -29.12,-5.914 -43.745,-8.533 -9.14,-1.636 -18.272,-3.335 -27.44,-4.799 -10.438,-1.667 -20.907,-3.15 -31.374,-4.628 -7.78,-1.098 -15.577,-2.084 -23.372,-3.077 -3.118,-0.397 -6.248,-0.713 -9.377,-1.005 -7.684,-0.719 -15.369,-1.427 -23.056,-2.096 -15.815,-1.377 -31.663,-2.143 -47.535,-2.079 -7.715,0.031 -15.44,0.305 -23.139,0.807 -9.558,0.623 -19.071,1.748 -28.389,4.107 -4.993,1.265 -9.933,2.708 -14.509,5.139 -1.762,0.936 -3.473,1.986 -5.133,3.095 -1.062,0.71 -2.046,1.565 -2.967,2.457 -5.466,5.287 -6.967,11.604 -4.77,18.838 0.964,3.174 2.527,6.06 4.369,8.802 2.24,3.334 4.827,6.383 7.64,9.244 4.218,4.289 8.759,8.21 13.511,11.894 9.166,7.106 18.853,13.44 28.821,19.345 11.933,7.068 24.081,13.737 36.789,19.333 C -5.738,-2.538 -3.015,-0.934 0,0 m 3.371,-14.671 c 1.495,-6.902 2.935,-13.883 4.531,-20.828 1.598,-6.955 3.663,-13.784 5.914,-20.557 2.252,-6.773 4.752,-13.45 7.566,-20.01 1.03,-2.443 1.82,-4.276 2.595,-6.117 0.22,-0.522 -0.189,-1.23 -0.723,-1.296 -0.564,-0.07 -1.129,-0.189 -1.694,-0.187 -6.278,0.023 -12.558,0.009 -18.835,0.123 -3.708,0.068 -7.417,0.277 -11.117,0.545 -8.977,0.651 -17.883,1.786 -26.578,4.227 -3.305,0.927 -6.514,2.113 -9.576,3.667 -2.174,1.104 -4.178,2.46 -5.875,4.239 -1.516,1.591 -2.531,3.427 -2.926,5.607 -0.207,1.14 -0.191,2.255 0.003,3.398 0.389,2.288 1.253,4.387 2.403,6.375 1.58,2.73 3.514,5.199 5.658,7.507 3.899,4.198 8.252,7.886 12.816,11.328 7.299,5.505 14.944,10.5 22.761,15.229 3.784,2.289 7.628,4.478 11.45,6.704 0.503,0.292 1.042,0.438 1.627,0.046 m 515.695,138.104 c 0.85,0.082 1.701,0.188 2.552,0.205 12.142,0.238 24.289,0.457 36.426,0.007 10.717,-0.398 21.36,-1.584 31.804,-4.158 1.799,-0.443 3.565,-1.023 5.346,-1.54 2.743,-1.094 4.873,-1.925 6.933,-2.902 1.811,-0.858 3.464,-2.004 4.926,-3.389 3.667,-3.475 4.887,-7.579 3.228,-12.46 -0.838,-2.464 -2.081,-4.693 -3.595,-6.786 -2.696,-3.725 -5.898,-6.981 -9.326,-10.021 -5.355,-4.75 -11.114,-8.971 -17.106,-12.875 -12.103,-7.885 -24.712,-14.876 -37.678,-21.231 -2.051,-1.005 -4.109,-1.996 -6.176,-2.97 -1.104,-0.521 -1.693,-0.24 -1.804,0.825 -0.222,2.131 -0.451,4.263 -0.635,6.398 -1.79,20.734 -6.089,40.943 -12.672,60.674 -0.858,2.573 -1.795,5.12 -2.682,7.684 -0.139,0.402 -0.211,0.827 -0.312,1.242 -0.134,0.546 0.273,1.249 0.771,1.297 M 5.172,32.653 c 0.72,56.571 20.276,111.953 54.707,156.296 30.93,39.834 70.116,68.479 117.404,86.018 0.401,0.149 0.796,0.317 1.194,0.476 15.323,5.501 30.38,9.402 45.768,11.983 8.596,1.442 17.253,2.405 25.961,3.005 7.712,0.53 15.42,0.677 23.138,0.547 7.29,-0.124 14.554,-0.69 21.808,-1.438 7.682,-0.793 15.296,-1.97 22.875,-3.437 22.143,-4.286 43.395,-11.292 63.646,-21.197 51.583,-25.227 90.958,-63.202 118.035,-113.846 11.591,-21.681 19.782,-44.634 24.799,-68.714 1.955,-9.384 3.488,-18.828 4.316,-28.38 0.296,-3.416 0.53,-6.838 0.778,-10.259 0.082,-1.132 -0.461,-1.876 -1.487,-2.339 -5.73,-2.583 -11.403,-5.302 -17.19,-7.75 C 498.032,28.165 485.075,22.868 472.162,17.465 440.38,4.168 407.965,-7.384 375.135,-17.791 c -32.28,-10.233 -64.888,-19.295 -97.795,-27.27 -20.267,-4.911 -40.633,-9.384 -61.118,-13.312 -14.732,-2.824 -29.5,-5.421 -44.326,-7.704 -7.34,-1.131 -14.639,-2.523 -21.965,-3.74 -6.341,-1.054 -12.689,-2.062 -19.044,-3.026 -6.778,-1.029 -13.562,-2.028 -20.356,-2.956 -5.944,-0.811 -11.903,-1.509 -17.857,-2.247 -3.545,-0.44 -7.089,-0.876 -10.637,-1.284 -2.838,-0.326 -5.679,-0.634 -8.524,-0.904 -4.409,-0.418 -8.821,-0.817 -13.235,-1.188 -5.267,-0.443 -10.533,-0.907 -15.807,-1.249 -4.277,-0.278 -8.566,-0.384 -12.849,-0.574 -1.145,-0.051 -1.829,0.491 -2.31,1.517 -3.093,6.605 -5.859,13.347 -8.343,20.2 C 15.404,-46.175 11.271,-30.45 8.604,-14.327 6.03,1.237 4.971,16.89 5.172,32.653 m -157.39,-178.243 c 7.004,2.346 13.304,5.916 18.668,11.044 0.508,0.486 0.936,1.069 1.325,1.657 0.086,0.129 -0.118,0.666 -0.243,0.687 -2.252,0.371 -4.507,0.742 -6.773,1.015 -7.253,0.872 -14.389,2.324 -21.379,4.426 -5.073,1.525 -9.994,3.452 -14.48,6.347 -2.173,1.402 -4.185,2.992 -5.935,4.902 -1.659,1.81 -2.975,3.845 -3.858,6.137 -1.381,3.583 -1.443,7.265 -0.632,10.971 0.741,3.385 2.171,6.499 3.983,9.436 2.259,3.663 4.907,7.029 7.838,10.177 4.786,5.14 10.024,9.781 15.538,14.119 9.905,7.791 20.412,14.691 31.204,21.173 18.272,10.975 37.195,20.718 56.413,29.907 12.505,5.979 25.142,11.667 37.865,17.159 9.177,3.962 18.325,8.014 27.77,11.324 1.071,0.376 2.182,0.644 3.28,0.939 0.375,0.101 0.936,-0.262 0.967,-0.623 0.085,-0.989 0.197,-1.982 0.183,-2.971 -0.008,-0.6 -0.44,-1.069 -0.996,-1.283 -2.131,-0.821 -4.304,-1.537 -6.413,-2.412 -7.652,-3.176 -15.299,-6.368 -22.923,-9.612 -19.2,-8.17 -38.108,-16.972 -57.007,-26.548 -11.779,-5.928 -23.088,-12.054 -34.149,-18.626 -10.573,-6.281 -20.912,-12.926 -30.693,-20.405 -5.456,-4.173 -10.709,-8.581 -15.53,-13.487 -2.609,-2.655 -5.073,-5.436 -7.221,-8.481 -2.069,-2.933 -3.864,-6.021 -4.893,-9.487 -1.639,-5.523 -0.694,-10.45 3.447,-14.627 1.419,-1.431 2.978,-2.689 4.712,-3.694 1.727,-1.001 3.511,-1.916 5.315,-2.773 3.758,-1.785 7.731,-3.004 11.749,-3.997 8.616,-2.129 17.382,-3.401 26.214,-4.23 1.131,-0.106 1.898,0.356 2.512,1.266 6.176,9.154 9.587,19.107 8.799,30.285 -0.111,1.569 -0.234,3.141 -0.231,4.711 0.006,2.866 0.953,5.329 3.373,7.054 0.95,0.677 2,1.063 3.198,1.068 2.042,0.008 3.574,-0.935 4.708,-2.533 1.184,-1.669 1.773,-3.571 1.856,-5.621 0.075,-1.858 0.13,-3.716 0.22,-5.573 0.623,-12.863 6.105,-23.302 15.677,-31.68 0.682,-0.056 1.251,-0.154 1.817,-0.14 4.858,0.114 9.721,0.161 14.574,0.397 6.708,0.327 13.411,0.777 20.113,1.22 5.846,0.386 11.689,0.812 17.53,1.27 3.134,0.246 6.262,0.572 9.388,0.908 6.678,0.718 13.354,1.445 20.027,2.206 5.679,0.647 11.36,1.286 17.026,2.037 7.223,0.958 14.438,1.985 21.646,3.052 10.176,1.508 20.358,2.98 30.507,4.651 10.713,1.764 21.402,3.677 32.08,5.647 12.783,2.359 25.57,4.714 38.306,7.313 15.955,3.255 31.888,6.633 47.781,10.18 25.654,5.725 51.196,11.918 76.658,18.449 44.287,11.36 88.248,23.86 131.87,37.546 23.581,7.398 47.04,15.163 70.37,23.324 34.125,11.938 67.928,24.704 101.248,38.743 19.226,8.101 38.27,16.602 57.003,25.795 16.299,8 32.338,16.48 47.894,25.853 9.187,5.536 18.16,11.397 26.703,17.896 5.923,4.506 11.632,9.261 16.806,14.628 2.683,2.783 5.198,5.708 7.347,8.931 1.671,2.506 3.087,5.14 4.032,8.019 0.818,2.498 1.011,5.03 0.647,7.62 -0.202,1.438 -0.694,2.768 -1.507,3.968 -0.147,0.217 -0.431,0.433 -0.675,0.463 -0.182,0.023 -0.506,-0.212 -0.584,-0.406 -0.267,-0.659 -0.512,-1.338 -0.658,-2.032 -0.59,-2.795 -1.142,-5.599 -1.702,-8.401 -0.14,-0.701 -0.21,-1.418 -0.395,-2.105 -0.526,-1.951 -2.041,-3.154 -4.032,-3.25 -0.285,-0.014 -0.572,-0.01 -0.857,0.003 -1.612,0.07 -2.758,0.87 -3.273,2.308 -0.631,1.762 -0.908,3.582 -1.062,5.45 -0.447,5.437 -1.538,10.755 -3.404,15.886 -1.82,5.007 -1.196,4.004 -6.097,5.56 -0.272,0.086 -0.56,0.119 -0.835,0.195 -7.742,2.135 -15.673,3.235 -23.629,4.071 -10.665,1.121 -21.379,1.544 -32.104,1.684 -9.725,0.128 -19.437,-0.254 -29.147,-0.688 -6.852,-0.306 -13.704,-0.673 -20.548,-1.132 -5.274,-0.354 -10.536,-0.889 -15.802,-1.35 -4.271,-0.374 -8.542,-0.739 -12.809,-1.142 -3.13,-0.295 -6.259,-0.608 -9.381,-0.977 -5.818,-0.687 -11.632,-1.399 -17.443,-2.14 -6.236,-0.795 -12.466,-1.632 -18.698,-2.459 -3.825,-0.508 -7.646,-1.037 -11.471,-1.547 -0.618,-0.083 -1.18,0.189 -1.483,0.665 -0.53,0.834 -0.953,1.741 -1.37,2.641 -0.249,0.539 0.133,1.207 0.694,1.292 3.814,0.576 7.624,1.182 11.445,1.706 6.087,0.836 12.179,1.637 18.273,2.412 5.245,0.667 10.493,1.331 15.749,1.896 6.819,0.733 13.648,1.377 20.474,2.038 3.129,0.303 6.261,0.571 9.393,0.832 5.981,0.496 11.958,1.056 17.946,1.443 8.557,0.552 17.123,0.936 25.699,1.155 15.301,0.39 30.583,0.313 45.849,-0.939 9.272,-0.76 18.466,-1.97 27.512,-4.188 0.543,-0.133 1.122,-0.143 1.687,-0.16 0.37,-0.01 0.586,0.236 0.458,0.525 -0.342,0.773 -0.667,1.569 -1.128,2.272 -6.104,9.305 -14.237,16.327 -24.142,21.324 -4.107,2.072 -8.419,3.533 -13.001,4.169 -2.121,0.294 -4.235,0.679 -6.326,1.143 -2.262,0.502 -4.526,0.587 -6.82,0.41 -3.135,-0.242 -6.271,-0.466 -9.406,-0.702 -5.273,-0.396 -10.547,-0.78 -15.818,-1.199 -2.991,-0.238 -5.981,-0.507 -8.966,-0.812 -4.264,-0.436 -8.523,-0.919 -12.785,-1.379 -3.835,-0.414 -7.676,-0.784 -11.506,-1.248 -5.673,-0.688 -11.339,-1.441 -17.008,-2.166 -5.385,-0.689 -10.782,-1.301 -16.155,-2.082 -10.602,-1.542 -21.198,-3.134 -31.784,-4.787 -8.186,-1.278 -16.352,-2.686 -24.529,-4.022 -1.409,-0.23 -2.827,-0.421 -4.248,-0.559 -0.582,-0.056 -1.131,0.229 -1.471,0.723 -0.73,1.058 -1.418,2.146 -2.122,3.223 -13.712,20.948 -29.974,39.675 -48.931,56.031 -31.024,26.768 -66.319,45.507 -105.891,56.159 -14.24,3.833 -28.698,6.447 -43.384,7.855 -6.979,0.669 -13.969,1.072 -20.968,1.264 -11.735,0.321 -23.439,-0.397 -35.095,-1.698 -9.516,-1.061 -18.945,-2.701 -28.298,-4.799 C 182.347,283.505 157.161,273.66 133.501,259.94 71.72,224.113 28.495,166.273 10.145,100.996 6.463,87.899 3.757,74.604 2.107,61.107 1.101,52.877 0.377,44.613 0.215,36.311 0.198,35.474 0.334,34.59 -0.302,33.764 -0.74,33.57 -1.248,33.305 -1.783,33.113 -22.216,25.756 -42.502,18.021 -62.541,9.644 c -26.637,-11.136 -52.911,-23.063 -78.686,-36.082 -18.377,-9.282 -36.439,-19.131 -53.95,-29.971 -10.702,-6.625 -21.145,-13.627 -31.012,-21.46 -6.729,-5.341 -13.158,-11.011 -18.932,-17.388 -4.139,-4.574 -7.866,-9.444 -10.574,-15.032 -1.19,-2.458 -2.094,-5.001 -2.652,-7.677 -1.374,-6.584 0.041,-12.502 4.327,-17.664 1.269,-1.529 2.764,-2.895 4.282,-4.186 2.406,-2.047 5.142,-3.612 7.972,-5.002 3.599,-1.766 7.341,-3.166 11.168,-4.356 7.938,-2.47 16.078,-3.984 24.297,-5.098 3.538,-0.48 7.104,-0.745 10.649,-1.181 5.681,-0.698 11.404,-0.777 17.101,-1.229 0.835,-0.066 1.686,0.08 2.653,0.134 0.13,0.797 0.26,1.48 0.349,2.167 0.115,0.884 0.524,1.623 1.062,2.305 0.72,0.913 1.601,1.611 2.675,2.084 2.251,0.99 4.616,1.471 7.048,1.719 4.278,0.436 8.472,1.318 12.546,2.683"
       style="fill:#fffefe;fill-opacity:1;fill-rule:nonzero;stroke:none"
       transform="matrix(1.3333333,0,0,-1.3333333,10585.138,717.6188)"
       clip-path="url(#clipPath534)" />
    <path
       id="path535"
       d="m 0,0 c -0.669,-4.667 -1.237,-9.355 -2.09,-13.989 -3.846,-20.892 -10.1,-41.044 -18.805,-60.427 -1.112,-2.477 -2.299,-4.921 -3.451,-7.379 -24.04,-48.376 -58.947,-85.752 -105.105,-112.542 -23.534,-13.659 -48.67,-23.239 -75.265,-29.02 -10.207,-2.219 -20.503,-3.831 -30.889,-4.824 -8.109,-0.775 -16.245,-1.149 -24.402,-1.153 -8.3,-0.003 -16.585,0.301 -24.833,1.128 -52.129,5.221 -98.787,24.019 -139.796,56.686 -14.928,11.891 -28.312,25.352 -40.266,40.233 -0.625,0.778 -1.209,1.591 -1.791,2.403 -0.315,0.438 0.052,1.206 0.618,1.357 0.274,0.073 0.542,0.18 0.82,0.233 6.034,1.144 12.076,2.243 18.101,3.431 11.21,2.209 22.417,4.437 33.612,6.718 19.874,4.049 39.659,8.504 59.415,13.087 37.847,8.779 75.49,18.366 112.932,28.732 33.724,9.336 67.294,19.197 100.684,29.67 28.483,8.934 56.798,18.373 84.979,28.217 17.259,6.029 34.455,12.235 51.59,18.608 1.059,0.394 2.166,0.661 3.258,0.961 0.324,0.09 0.572,-0.1 0.607,-0.45 C -0.022,1.122 0.078,0.546 0,0 m 257.461,175.82 c -2.249,2.439 -4.886,4.388 -7.726,6.077 -5.075,3.016 -10.57,5.019 -16.19,6.722 -1.423,0.432 -2.818,0.351 -4.199,-0.16 -0.402,-0.149 -0.795,-0.321 -1.193,-0.481 -15.625,-6.308 -26.702,-17.271 -33.413,-32.691 -0.279,-0.643 -0.406,-1.352 -0.561,-1.884 0.118,-0.312 0.141,-0.467 0.223,-0.577 0.512,-0.684 1.036,-1.36 1.558,-2.036 3.861,-5.008 4.716,-10.583 3.17,-16.627 -0.933,-3.649 -2.667,-6.92 -4.851,-10.326 -2.911,-4.302 -6.106,-7.955 -9.55,-11.401 -3.339,-3.341 -6.872,-6.465 -10.539,-9.439 C 165.96,96.324 157.252,90.323 148.292,84.687 135.945,76.921 123.238,69.787 110.295,63.062 93.551,54.361 76.51,46.278 59.282,38.594 45.451,32.426 31.492,26.551 17.448,20.878 1.682,14.51 -14.165,8.357 -30.11,2.457 c -28.005,-10.364 -56.227,-20.104 -84.637,-29.303 -22.563,-7.305 -45.223,-14.292 -67.982,-20.957 -26.325,-7.708 -52.761,-15.012 -79.318,-21.88 -21.299,-5.509 -42.66,-10.765 -64.09,-15.742 -20.458,-4.752 -40.972,-9.237 -61.548,-13.444 -8.117,-1.66 -16.243,-3.28 -24.378,-4.856 -6.591,-1.277 -13.196,-2.49 -19.804,-3.679 -7.17,-1.29 -14.345,-2.556 -21.529,-3.768 -8.03,-1.355 -16.068,-2.671 -24.112,-3.943 -6.774,-1.071 -13.559,-2.071 -20.344,-3.072 -4.664,-0.688 -9.33,-1.372 -14.007,-1.97 -5.669,-0.726 -11.349,-1.37 -17.026,-2.032 -6.529,-0.762 -13.051,-1.602 -19.593,-2.228 -7.965,-0.763 -15.926,-1.576 -23.912,-2.147 -7.841,-0.56 -15.679,-1.149 -23.533,-1.506 -2.713,-0.123 -5.429,-0.204 -8.141,-0.347 -1.282,-0.068 -2.56,-0.231 -3.837,-0.369 -0.124,-0.013 -0.332,-0.154 -0.332,-0.235 10e-4,-0.235 0.009,-0.577 0.155,-0.685 0.572,-0.422 1.181,-0.801 1.806,-1.142 8.917,-4.863 18.476,-7.55 28.573,-8.402 2.99,-0.253 5.981,-0.497 8.972,-0.744 2.013,-0.165 3.997,-0.541 5.755,-1.543 1.457,-0.831 2.893,-0.976 4.519,-0.731 6.923,1.044 13.859,1.997 20.787,3.002 6.646,0.965 13.302,1.863 19.928,2.951 12.83,2.105 25.641,4.324 38.46,6.495 1.69,0.287 3.377,0.594 5.073,0.84 0.569,0.083 1.134,-0.062 1.532,-0.562 0.712,-0.895 1.428,-1.786 2.139,-2.682 32.217,-40.54 72.677,-69.56 121.469,-86.912 17.562,-6.246 35.604,-10.492 54.091,-12.912 8.658,-1.134 17.344,-1.851 26.056,-2.161 14.456,-0.514 28.855,0.296 43.207,2.161 11.214,1.458 22.307,3.524 33.211,6.474 59.604,16.122 108.317,48.613 145.723,97.777 22.73,29.875 38.209,63.258 46.815,99.816 2.229,9.47 3.999,19.019 5.11,28.688 0.162,1.406 0.168,2.869 1.079,4.182 1.256,0.526 2.558,1.114 3.89,1.623 24.555,9.4 48.886,19.345 72.989,29.854 23.191,10.111 46.144,20.721 68.645,32.291 17.42,8.957 34.554,18.424 51.056,29 10.477,6.715 20.731,13.746 30.388,21.614 6.773,5.52 13.162,11.444 18.789,18.153 2.672,3.184 5.06,6.564 7.072,10.207 1.74,3.15 3.059,6.456 3.748,9.997 0.61,3.133 0.555,6.239 -0.298,9.34 -0.933,3.392 -2.685,6.291 -5.045,8.852"
       style="fill:#fffefe;fill-opacity:1;fill-rule:nonzero;stroke:none"
       transform="matrix(1.3333333,0,0,-1.3333333,11289.051,724.0596)"
       clip-path="url(#clipPath536)" />
    <path
       id="path537"
       d="m 0,0 c -1.941,0.624 -3.941,0.621 -5.943,0.632 -7.776,0.045 -15.359,1.337 -22.765,3.653 -9.249,2.893 -17.661,7.333 -24.946,13.789 -5.863,5.196 -10.458,11.327 -13.45,18.597 -1.978,4.805 -3.112,9.793 -3.024,15.026 0.032,1.857 -0.003,3.716 -0.043,5.574 -0.016,0.71 -0.058,1.436 -0.226,2.121 -0.132,0.537 -0.442,1.043 -0.735,1.524 -0.444,0.727 -1.628,0.788 -2.229,0.133 -0.287,-0.312 -0.592,-0.631 -0.788,-1 -0.614,-1.156 -0.903,-2.41 -0.91,-3.714 -0.012,-2 -0.017,-4.002 0.029,-6.001 0.122,-5.203 -0.718,-10.261 -2.37,-15.173 -4.884,-14.524 -14.325,-25.192 -27.763,-32.35 -3.921,-2.089 -8.149,-3.397 -12.622,-3.894 -3.118,-0.346 -6.215,-0.92 -9.3,-1.502 -1.104,-0.208 -2.158,-0.708 -3.212,-1.132 -0.562,-0.226 -0.946,-1.153 -0.862,-1.83 0.083,-0.667 0.704,-1.351 1.289,-1.566 0.973,-0.359 1.968,-0.272 2.966,-0.266 3.608,0.022 7.118,-0.555 10.491,-1.841 2.001,-0.762 4.009,-1.524 5.941,-2.44 10.277,-4.874 18.818,-11.853 25.604,-21.403 0.668,-0.957 1.163,-1.658 1.634,-2.374 6.131,-9.332 10.104,-19.493 11.813,-30.544 0.394,-2.551 0.649,-5.1 0.719,-7.676 0.018,-0.705 0.069,-1.432 0.267,-2.101 0.102,-0.347 0.533,-0.783 0.861,-0.825 0.316,-0.04 0.735,0.329 1.022,0.608 0.18,0.174 0.251,0.507 0.285,0.779 0.329,2.695 0.734,5.385 0.935,8.09 0.417,5.613 1.731,11.005 3.819,16.207 4.281,10.662 10.753,19.819 19.285,27.488 11.295,10.153 24.405,16.246 39.655,17.478 1.556,0.125 3.094,0.516 4.63,0.835 0.401,0.084 0.777,0.336 1.141,0.552 1.158,0.686 1.434,2.357 0.542,3.351 C 1.262,-0.663 0.714,-0.229 0,0"
       style="fill:#fffefe;fill-opacity:1;fill-rule:nonzero;stroke:none"
       transform="matrix(1.3333333,0,0,-1.3333333,10533.44,917.5312)"
       clip-path="url(#clipPath538)" />
    <path
       id="path539"
       d="m 0,0 c 1.272,-0.181 2.556,-0.28 3.83,-0.452 1.555,-0.209 3.117,-0.398 4.656,-0.698 6.981,-1.362 13.295,-4.321 19.172,-8.237 16.207,-10.798 26.933,-29.756 28.128,-49.746 0.051,-0.852 0.105,-1.705 0.207,-2.551 0.059,-0.495 0.507,-0.62 1.228,-0.57 0.815,1.083 0.889,2.084 0.993,3.08 0.223,2.133 0.488,4.262 0.679,6.398 0.478,5.334 2.049,10.36 4.267,15.198 3.869,8.441 9.321,15.719 16.322,21.808 9.548,8.305 20.521,13.367 33.232,14.421 1.274,0.106 2.534,0.41 3.791,0.667 1.161,0.236 2.077,0.908 2.884,1.752 1.389,1.453 1.117,3.769 -0.664,4.77 -0.854,0.48 -1.828,0.799 -2.786,1.023 -0.824,0.193 -1.704,0.191 -2.56,0.202 -2.866,0.035 -5.699,0.372 -8.529,0.8 -17.685,2.669 -30.562,12.031 -38.699,27.909 -3.223,6.289 -5.061,13.039 -6.056,20.017 -0.343,2.404 -0.546,4.827 -0.789,7.244 -0.131,1.296 -0.4,2.531 -1.128,3.645 -0.942,1.441 -3.032,1.423 -3.936,-0.059 -0.453,-0.742 -0.802,-1.53 -0.793,-2.411 0.02,-2 0.042,-4.001 0.132,-5.998 0.058,-1.284 0.258,-2.561 0.359,-3.843 C 54.576,46.252 52.583,38.779 48.374,31.863 46.509,28.798 44.282,26.007 41.8,23.419 37.102,18.52 31.63,14.661 25.662,11.489 18.279,7.563 10.397,5.101 2.189,3.628 1.487,3.502 0.775,3.422 0.078,3.274 -0.967,3.052 -1.641,2.399 -1.657,1.654 -1.675,0.866 -0.991,0.141 0,0"
       style="fill:#fffefe;fill-opacity:1;fill-rule:nonzero;stroke:none"
       transform="matrix(1.3333333,0,0,-1.3333333,11460.375,461.40453)"
       clip-path="url(#clipPath540)" />
    <path
       id="path541"
       d="m 0,0 c 1.106,-0.258 2.215,-0.521 3.336,-0.694 3.853,-0.597 7.488,-1.822 10.889,-3.725 2.375,-1.329 4.607,-2.871 6.707,-4.606 7.2,-5.948 12.476,-13.311 16.091,-21.894 3.088,-7.332 4.642,-14.99 4.843,-22.934 0.033,-1.285 0.038,-2.573 0.115,-3.856 0.025,-0.408 0.212,-0.818 0.378,-1.204 0.334,-0.777 1.511,-0.99 2.188,-0.432 0.459,0.378 0.807,0.835 0.857,1.425 0.096,1.138 0.128,2.282 0.195,3.423 0.343,5.86 0.987,11.676 2.443,17.381 2.034,7.972 5.304,15.361 10.041,22.123 3.566,5.089 8.254,8.634 13.938,10.982 3.593,1.484 7.284,2.511 11.193,2.682 0.992,0.043 1.985,0.206 2.963,0.387 0.878,0.163 1.51,1.097 1.372,1.891 -0.142,0.808 -0.749,1.183 -1.424,1.442 -0.392,0.15 -0.83,0.215 -1.253,0.242 -0.712,0.046 -1.43,0.004 -2.143,0.047 -7.175,0.436 -13.648,2.882 -19.542,6.922 -0.936,0.641 -1.759,1.46 -2.577,2.254 -2.89,2.803 -5.299,5.991 -7.409,9.411 -3.855,6.251 -6.591,12.983 -8.58,20.032 -1.126,3.993 -1.995,8.043 -2.609,12.146 -0.19,1.277 -0.355,2.57 -1.044,3.681 -0.176,0.283 -0.733,0.436 -1.122,0.45 -0.397,0.015 -0.877,-0.163 -0.954,-0.673 -0.148,-0.982 -0.319,-1.969 -0.353,-2.958 -0.101,-3 -0.142,-6.002 -0.241,-9.396 -0.163,-1.527 -0.32,-2.662 -0.414,-3.801 C 37.579,37.027 36.73,33.41 35.796,29.812 34.325,24.148 31.404,19.296 27.435,15.044 23.367,10.687 18.54,7.44 12.993,5.284 9.387,3.883 5.702,2.77 1.797,2.566 1.239,2.537 0.687,2.333 0.141,2.181 -0.426,2.023 -0.877,1.383 -0.773,0.913 -0.676,0.477 -0.448,0.105 0,0"
       style="fill:#fffefe;fill-opacity:1;fill-rule:nonzero;stroke:none"
       transform="matrix(1.3333333,0,0,-1.3333333,11335.744,373.264)"
       clip-path="url(#clipPath542)" />
    <path
       id="path543"
       d="m 0,0 c 2.646,-8.439 8.461,-13.477 17.042,-15.021 7.391,-1.331 14.204,0.508 20.145,5.165 4.785,3.749 7.902,8.619 9.079,14.608 0.522,2.658 0.831,5.361 0.887,8.09 0.2,9.735 1.301,19.393 2.838,28.992 1.945,12.145 4.772,24.096 8.32,35.876 6.37,21.15 14.824,41.411 25.855,60.566 6.792,11.794 14.449,22.983 23.49,33.188 4.655,5.254 9.653,10.145 15.443,14.648 2.729,1.865 5.167,3.621 7.718,5.192 2.468,1.52 4.598,3.391 6.417,5.612 3.572,4.361 5.387,9.351 5.28,15.032 -0.182,9.585 -6.526,17.612 -15.864,19.933 -7.498,1.863 -14.742,1.078 -21.709,-2.247 -2.697,-1.288 -5.125,-3.095 -7.979,-4.092 -0.656,-0.228 -1.219,-0.736 -1.806,-1.144 -2.228,-1.549 -4.488,-3.059 -6.666,-4.676 C 78.931,212.624 70.285,204.527 62.344,195.669 50.463,182.417 40.273,167.952 31.651,152.396 14.425,121.314 3.145,88.254 -1.137,52.895 -1.945,46.223 -2.522,39.535 -2.614,32.809 -2.725,24.656 -2.627,16.515 -1.617,8.407 -1.264,5.565 -0.857,2.735 0,0"
       style="fill:#fffefe;fill-opacity:1;fill-rule:nonzero;stroke:none"
       transform="matrix(1.3333333,0,0,-1.3333333,10631.198,721.25067)"
       clip-path="url(#clipPath544)" />
    <path
       id="path545"
       d="m 0,0 c 0.311,10.533 2.526,20.675 6.647,30.396 0.75,1.769 1.831,3.189 3.287,4.405 2.747,2.294 5.623,4.407 8.638,6.333 7.973,5.093 16.408,9.277 25.173,12.809 15.155,6.11 30.782,10.598 46.882,13.366 9.594,1.649 19.265,2.522 29.021,2.066 4.639,-0.217 4.663,-0.166 8.369,-2.666 18.244,-12.305 29.862,-29.192 34.89,-50.615 1.877,-8 2.326,-16.107 1.743,-24.285 -0.398,-3.505 -0.56,-6.238 -1.135,-8.88 -1.101,-5.061 -0.112,-4.772 -5.638,-4.472 -9.454,0.514 -18.838,-0.105 -28.187,-1.611 -25.025,-4.031 -48.789,-11.89 -71.37,-23.368 -6.505,-3.306 -12.809,-6.962 -18.707,-11.27 -2.651,-1.937 -5.179,-4.044 -7.759,-6.079 -0.556,-0.438 -1.098,-0.894 -1.564,-1.275 -1.102,0.003 -1.676,0.695 -2.304,1.253 -11.151,9.894 -19.14,21.89 -23.842,36.046 C 1.143,-18.812 -0.281,-9.514 0,0 m 30.151,-70.142 c 15.317,-11.794 32.75,-17.799 52.149,-17.831 2.428,-0.004 4.855,0.136 7.671,0.234 3.076,0.387 5.792,0.613 8.45,1.132 18.049,3.53 33.648,11.704 46.374,25.043 14.347,15.038 22.234,33.043 23.879,53.741 0.648,8.167 0.061,16.308 -1.779,24.292 -5.467,23.713 -18.5,42.136 -39.044,55.178 -10.161,6.451 -21.386,10.118 -33.17,12.184 -5.087,0.892 -10.233,1.125 -15.379,0.694 C 74.177,84.096 69.086,83.378 64.073,82.175 47.279,78.144 32.563,70.349 20.538,57.844 5.666,42.379 -2.186,23.796 -3.463,2.426 c -0.403,-6.731 0.151,-13.422 1.441,-20.049 4.188,-21.516 14.815,-39.153 32.173,-52.519"
       style="fill:#fffefe;fill-opacity:1;fill-rule:nonzero;stroke:none"
       transform="matrix(1.3333333,0,0,-1.3333333,10353.276,462.22547)"
       clip-path="url(#clipPath546)" />
    <path
       id="path547"
       d="m 0,0 c 0.238,0.348 0.523,0.689 0.858,0.94 2.413,1.81 4.602,3.831 6.244,6.398 0.224,0.35 0.593,0.612 0.908,0.9 1.143,1.048 2.542,0.76 3.079,-0.658 0.353,-0.933 0.646,-1.89 0.956,-2.839 2.21,-6.78 4.418,-13.562 6.627,-20.343 0.265,-0.814 0.556,-1.62 0.8,-2.439 0.54,-1.817 1.304,-2.567 3.502,-1.813 0.531,0.182 1.099,0.274 1.657,0.355 0.604,0.088 1.379,-0.469 1.659,-1.134 0.256,-0.609 0.124,-1.616 -0.32,-2 -0.427,-0.37 -0.868,-0.755 -1.367,-1.005 -1.147,-0.573 -2.32,-1.099 -3.505,-1.59 -3.03,-1.256 -6.068,-2.494 -9.113,-3.712 -0.79,-0.316 -1.611,-0.561 -2.433,-0.783 -0.676,-0.182 -1.592,0.173 -1.904,0.66 -0.408,0.636 -0.255,1.914 0.343,2.359 0.684,0.507 1.406,0.965 2.129,1.417 0.802,0.501 1.148,1.225 1.141,2.147 C 9.149,-16.053 7.145,-9.656 5.137,-3.261 5.01,-2.855 4.856,-2.456 4.698,-2.06 4.503,-1.575 3.771,-1.226 3.299,-1.401 2.634,-1.649 1.983,-1.937 1.313,-2.17 0.809,-2.346 0.049,-2.031 -0.15,-1.611 -0.417,-1.045 -0.336,-0.492 0,0 m 23.137,-2.556 c 0.536,5.787 2.43,11.14 5.686,15.986 0.971,1.446 2.137,2.643 3.76,3.398 1.615,0.751 3.027,0.662 4.307,-0.624 1.119,-1.769 1.449,-3.152 1.775,-4.549 1.073,-4.599 2.587,-9.064 4.191,-13.498 0.241,-0.666 0.57,-1.309 0.933,-1.918 0.122,-0.205 0.474,-0.38 0.723,-0.382 0.565,-0.004 1.129,0.128 1.696,0.167 0.707,0.048 1.419,0.11 2.123,0.065 0.417,-0.027 0.773,-0.286 0.933,-0.746 0.164,-0.469 -0.097,-1.317 -0.493,-1.515 -0.381,-0.192 -0.775,-0.356 -1.165,-0.53 -0.522,-0.232 -1.055,-0.44 -1.563,-0.697 -0.58,-0.293 -0.752,-0.874 -0.719,-1.439 0.041,-0.705 0.185,-1.416 0.378,-2.097 0.247,-0.873 1.035,-1.441 1.905,-1.457 0.849,-0.016 1.703,0.042 2.548,-0.023 0.41,-0.032 0.774,-0.283 0.908,-0.762 0.129,-0.464 -0.019,-0.841 -0.301,-1.173 -0.181,-0.213 -0.396,-0.431 -0.642,-0.549 -0.643,-0.307 -1.292,-0.629 -1.974,-0.822 -3.575,-1.009 -7.103,-2.158 -10.586,-3.452 -0.517,-0.192 -1.117,-0.179 -1.681,-0.218 -0.479,-0.033 -1.185,0.555 -1.184,1.049 0.002,0.399 0.076,0.894 0.318,1.173 0.361,0.416 0.89,0.689 1.36,1.004 1.271,0.853 1.502,1.412 1.085,2.848 -0.158,0.546 -0.389,1.072 -0.605,1.6 -0.205,0.501 -0.856,0.924 -1.348,0.864 -0.564,-0.068 -1.145,-0.102 -1.681,-0.272 -1.768,-0.563 -3.52,-1.18 -5.277,-1.778 -0.675,-0.23 -1.346,-0.473 -2.022,-0.699 -1.718,-0.572 -2.483,0.4 -2.843,1.677 -0.874,3.087 -0.835,6.244 -0.545,9.369 M 1.008,-34.992 c 1.728,-1.507 3.613,-2.797 5.877,-4.091 8.309,-4.435 16.787,-5.466 25.622,-3.503 10.222,2.271 18.341,7.741 24.157,16.469 5.471,8.212 7.47,17.27 5.738,26.986 -1.868,10.475 -7.704,18.342 -16.809,23.674 -8.25,4.831 -17.188,6.105 -26.471,3.844 C 7.207,25.484 -1.671,18.521 -7.206,7.543 c -3.502,-6.945 -4.703,-14.309 -3.336,-22.064 1.447,-8.208 5.29,-15.009 11.55,-20.471"
       style="fill:#fffefe;fill-opacity:1;fill-rule:nonzero;stroke:none"
       transform="matrix(1.3333333,0,0,-1.3333333,10409.204,434.36013)"
       clip-path="url(#clipPath548)" />
    <path
       id="path549"
       d="M 0,0 C 1.995,0.713 3.976,1.468 5.951,2.233 6.47,2.435 6.745,3.11 6.56,3.659 5.295,7.424 4.243,11.247 3.371,15.121 3.312,15.387 3.128,15.624 3.01,15.878 2.814,16.3 1.846,16.561 1.553,16.229 1.092,15.706 0.542,15.198 0.273,14.578 -1.095,11.422 -1.862,8.126 -1.761,4.272 -1.712,2.894 -1.68,1.903 -1.597,0.915 -1.542,0.255 -0.705,-0.252 0,0"
       style="fill:#fffefe;fill-opacity:1;fill-rule:nonzero;stroke:none"
       transform="matrix(1.3333333,0,0,-1.3333333,10446.802,446.35427)"
       clip-path="url(#clipPath550)" />
    <path
       id="path551"
       d="m 0,0 c -5.057,-6.3 -11.626,-10.336 -19.342,-12.569 -2.048,-0.592 -4.115,-1.142 -6.273,-1.064 -0.382,0.013 -0.755,0.273 -1.266,0.47 1.724,7.144 4.531,13.793 7.791,20.271 5.212,9.773 11.166,18.225 18.639,25.551 1.722,1.688 3.593,3.225 5.43,4.789 C 5.8,38.147 6.657,37.883 6.988,36.923 7.874,34.358 8.411,31.704 8.68,29.022 9.768,18.171 6.812,8.486 0,0 m -30.471,61.522 c -0.599,-0.606 -1.247,-1.164 -1.879,-1.737 -11.326,-10.264 -20.14,-22.4 -26.813,-36.112 -2.295,-4.717 -4.289,-9.558 -4.95,-15.068 -0.437,0.511 -0.803,0.782 -0.95,1.141 -0.48,1.183 -0.946,2.379 -1.303,3.604 -2.524,8.656 -1.898,17.162 1.325,25.519 0.511,1.324 1.165,2.592 1.752,3.887 4.174,7.485 9.722,12.659 16.856,16.071 4.916,2.352 10.079,3.893 15.607,3.831 0.205,-0.003 0.526,-0.235 0.579,-0.421 0.058,-0.206 -0.061,-0.55 -0.224,-0.715 m 15.608,3.086 c -2.086,0.633 -3.851,1.188 -5.64,1.651 -6.325,1.636 -12.663,1.599 -19.01,0.097 -9.339,-2.21 -17.034,-7.094 -23.077,-14.488 -8.632,-10.562 -11.771,-22.607 -8.859,-35.984 2.16,-9.925 7.245,-18.217 15.273,-24.507 7.86,-6.158 16.762,-9.416 26.88,-9.319 8.823,0.085 16.817,2.532 24.044,7.543 C 9.382,-0.252 15.543,16.998 12.172,32.538 8.87,47.761 0.204,58.729 -14.863,64.608"
       style="fill:#fffefe;fill-opacity:1;fill-rule:nonzero;stroke:none"
       transform="matrix(1.3333333,0,0,-1.3333333,10644.811,1119.5797)"
       clip-path="url(#clipPath552)" />
    <path
       id="path553"
       d="m 0,0 c -1.417,-1.856 -2.586,-3.1 -3.95,-4.148 -5.911,-4.545 -12.341,-5.546 -19.295,-2.759 -3.801,1.522 -6.879,4.016 -9.327,7.265 -3.532,4.688 -5.387,9.962 -5.519,15.866 -0.118,5.276 1.048,10.181 3.878,14.644 2.776,4.378 6.619,7.43 11.636,8.85 4.392,1.243 8.727,1.09 12.898,-0.934 C -2.543,35.321 1.794,29.541 3.762,22.002 5.81,14.155 4.702,6.744 0,0 m 33.144,73.387 c -5.987,2.801 -12.363,4.377 -18.897,5.06 -7.284,0.761 -14.497,0.104 -21.543,-2.08 -12.127,-3.76 -21.925,-10.777 -29.251,-21.112 -6.594,-9.301 -10.197,-19.662 -10.246,-31.153 -0.014,-3.279 -0.065,-6.568 0.483,-9.808 2.137,-12.625 7.651,-23.498 17.095,-32.233 9.415,-8.709 20.524,-13.677 33.717,-14.765 4.513,-0.586 8.65,-0.233 12.72,0.363 7.396,1.083 14.373,3.517 20.731,7.525 15.452,9.74 24.245,23.778 26.423,41.836 1.053,8.733 0.011,17.352 -3.161,25.63 -5.333,13.918 -14.482,24.376 -28.071,30.737"
       style="fill:#fffefe;fill-opacity:1;fill-rule:nonzero;stroke:none"
       transform="matrix(1.3333333,0,0,-1.3333333,11361.786,914.00267)"
       clip-path="url(#clipPath554)" />
    <path
       id="path555"
       d="m 0,0 c -2.926,0.509 -5.33,-0.451 -7.16,-2.739 -0.812,-1.016 -1.213,-2.252 -1.042,-3.594 0.053,-0.416 0.165,-0.833 0.309,-1.227 0.349,-0.957 1.269,-1.49 2.373,-1.418 0.89,0.058 1.45,0.615 1.649,1.648 0.16,0.832 0.257,1.68 0.486,2.491 0.252,0.891 1.407,1.442 2.431,1.261 1.013,-0.179 1.781,-1.082 1.807,-2.07 0.019,-0.737 -0.182,-1.404 -0.55,-2.023 -1.101,-1.857 -2.55,-3.408 -4.254,-4.718 -1.577,-1.212 -3.229,-2.331 -4.752,-3.605 -0.969,-0.81 -1.853,-1.762 -2.615,-2.772 -1.013,-1.344 -0.391,-3.264 1.16,-3.884 0.658,-0.263 1.327,-0.552 2.018,-0.667 3.231,-0.539 6.318,-1.623 9.797,-2.38 1.65,0.5 2.396,1.478 2.757,2.786 0.388,1.405 -0.685,2.661 -2.107,2.334 -0.84,-0.194 -1.651,-0.468 -2.5,-0.257 -1.236,0.308 -2.457,0.683 -3.681,1.039 -0.3,0.087 -0.42,0.861 -0.178,1.095 0.406,0.39 0.786,0.815 1.232,1.152 1.585,1.201 3.203,2.359 4.791,3.556 1.144,0.862 2.119,1.885 2.84,3.138 1.471,2.557 1.587,5.101 0.002,7.663 C 3.694,-1.382 2.065,-0.359 0,0"
       style="fill:#fffefe;fill-opacity:1;fill-rule:nonzero;stroke:none"
       transform="matrix(1.3333333,0,0,-1.3333333,11339.301,875.9224)"
       clip-path="url(#clipPath556)" />
    <path
       id="path557"
       d="m 0,0 c 2.033,-2.698 4.659,-4.465 7.946,-5.448 2.389,-0.716 4.754,-0.799 7.172,-0.71 2.769,0.102 5.293,1.012 7.645,2.443 5.06,3.076 6.604,9.095 5.882,13.271 -0.727,4.208 -2.423,7.866 -5.616,10.766 -0.422,0.383 -0.843,0.766 -1.275,1.137 C 17.427,25.175 12.88,28.603 8.18,31.832 7.382,32.381 6.614,32.336 5.784,31.907 3.602,30.777 1.736,29.289 0.22,27.335 -2.584,23.721 -3.886,19.564 -4.28,15.083 -4.638,11.018 -3.851,7.146 -1.841,2.871 -1.231,1.911 -0.682,0.905 0,0"
       style="fill:#fffefe;fill-opacity:1;fill-rule:nonzero;stroke:none"
       transform="matrix(1.3333333,0,0,-1.3333333,11085.379,658.4032)"
       clip-path="url(#clipPath558)" />
    <path
       id="path559"
       d="m 0,0 c -0.438,2.592 -1.004,4.836 -1.069,7.094 -0.275,9.536 2.472,18.008 9.467,24.754 5.116,4.934 11.316,7.498 18.428,7.899 9.014,0.508 16.765,-2.558 23.584,-8.258 6.343,-5.302 10.233,-12.127 12.255,-20.076 0.993,-3.901 1.251,-7.879 0.943,-11.874 -0.412,-5.352 -2.123,-10.292 -5.061,-14.792 -0.544,-0.834 -1.167,-1.615 -1.726,-2.44 -0.491,-0.723 -0.47,-1.76 0.035,-2.398 0.352,-0.445 0.717,-0.885 1.116,-1.288 3.48,-3.513 5.768,-7.751 7.403,-12.356 2.624,-7.393 3.307,-14.971 1.938,-22.711 -0.296,-1.675 -0.324,-3.373 -0.893,-5.028 -2.011,-5.846 -5.502,-10.587 -10.423,-14.266 -5.353,-4.003 -11.381,-6.293 -18.017,-7.246 -8.454,-1.215 -16.447,0.161 -24.113,3.71 -4.437,2.053 -8.324,4.911 -11.659,8.513 -3.554,3.839 -6.057,8.248 -7.339,13.323 -0.766,3.033 -1.549,6.059 -1.655,9.223 -0.286,8.518 1.836,16.347 6.588,23.433 1.844,2.751 4.131,5.075 6.968,6.829 0.475,0.294 0.902,0.67 1.335,1.027 0.102,0.084 0.141,0.244 0.292,0.521 C 4.736,-11.578 1.461,-6.445 0,0 m -72.676,-54.91 c 6.282,-18.984 16.029,-35.971 29.536,-50.748 6.097,-6.671 12.829,-12.631 20.34,-17.68 1.658,-1.115 3.398,-2.11 5.097,-3.163 0.906,-0.562 1.874,-0.656 2.884,-0.38 0.688,0.189 1.367,0.41 2.052,0.611 30.715,8.986 61.08,19.023 91.035,30.29 12.166,4.576 24.246,9.368 36.198,14.478 1.181,0.505 2.379,0.986 3.503,1.599 0.459,0.25 0.83,0.776 1.085,1.259 0.261,0.493 0.335,1.086 0.486,1.636 2.622,9.568 3.843,19.34 3.97,29.234 0.136,10.62 -1.04,21.132 -3.528,31.455 C 114.172,7.789 103.019,29.085 86.079,47.263 76.149,57.918 64.833,66.786 51.785,73.328 36.442,81.022 20.266,85.083 2.997,84.289 -0.871,84.111 -4.685,83.606 -8.477,82.893 -14.962,81.674 -21.214,79.697 -27.529,76.864 -36.636,72.724 -44.43,67.254 -51.26,60.4 -61.422,50.201 -68.74,38.216 -73.48,24.658 c -5.709,-16.33 -7.271,-33.125 -5.495,-50.296 1.033,-9.996 3.148,-19.747 6.299,-29.272"
       style="fill:#fffefe;fill-opacity:1;fill-rule:nonzero;stroke:none"
       transform="matrix(1.3333333,0,0,-1.3333333,11063.218,577.9532)"
       clip-path="url(#clipPath560)" />
    <path
       id="path561"
       d="m 0,0 c 3.705,-5.185 8.46,-9.165 14.113,-12.074 1.004,-0.516 2.093,-0.869 3.15,-1.279 0.452,-0.175 1.215,0.071 1.539,0.468 2.467,3.014 4.277,6.37 5.096,10.195 0.572,2.67 0.716,5.436 -0.106,8.024 C 21.64,12.111 16.989,16.346 10.021,17.862 8.227,18.252 6.355,18.161 4.532,17.656 1.966,16.945 -0.185,15.646 -1.555,13.319 -2.975,10.906 -3.606,8.339 -2.453,4.917 -2.107,3.043 -1.073,1.501 0,0"
       style="fill:#fffefe;fill-opacity:1;fill-rule:nonzero;stroke:none"
       transform="matrix(1.3333333,0,0,-1.3333333,11094.124,572.19987)"
       clip-path="url(#clipPath562)" />
  </g>
</svg>
