<?xml version="1.0" encoding="UTF-8" standalone="no"?>
<!-- Created with Inkscape (http://www.inkscape.org/) -->

<svg
   version="1.1"
   id="svg1"
   width="1440"
   height="1440"
   viewBox="0 0 1440 1440"
   xmlns="http://www.w3.org/2000/svg"
   xmlns:svg="http://www.w3.org/2000/svg">
  <defs
     id="defs1">
    <clipPath
       clipPathUnits="userSpaceOnUse"
       id="clipPath564">
      <path
         d="M 0,1080 H 1080 V 0 H 0 Z"
         transform="translate(-526.68526,-863.18732)"
         id="path564" />
    </clipPath>
    <clipPath
       clipPathUnits="userSpaceOnUse"
       id="clipPath566">
      <path
         d="M 0,1080 H 1080 V 0 H 0 Z"
         transform="translate(-1032.6368,-343.08561)"
         id="path566" />
    </clipPath>
    <clipPath
       clipPathUnits="userSpaceOnUse"
       id="clipPath568">
      <path
         d="M 0,1080 H 1080 V 0 H 0 Z"
         transform="translate(-915.00902,-320.31091)"
         id="path568" />
    </clipPath>
    <clipPath
       clipPathUnits="userSpaceOnUse"
       id="clipPath570">
      <path
         d="M 0,1080 H 1080 V 0 H 0 Z"
         transform="translate(-178.71825,-237.63383)"
         id="path570" />
    </clipPath>
    <clipPath
       clipPathUnits="userSpaceOnUse"
       id="clipPath572">
      <path
         d="M 0,1080 H 1080 V 0 H 0 Z"
         transform="translate(-471.33601,-945.92813)"
         id="path572" />
    </clipPath>
    <clipPath
       clipPathUnits="userSpaceOnUse"
       id="clipPath574">
      <path
         d="M 0,1080 H 1080 V 0 H 0 Z"
         transform="translate(-621.34952,-895.49262)"
         id="path574" />
    </clipPath>
    <clipPath
       clipPathUnits="userSpaceOnUse"
       id="clipPath576">
      <path
         d="M 0,1080 H 1080 V 0 H 0 Z"
         transform="translate(-447.44101,-815.37782)"
         id="path576" />
    </clipPath>
    <clipPath
       clipPathUnits="userSpaceOnUse"
       id="clipPath578">
      <path
         d="M 0,1080 H 1080 V 0 H 0 Z"
         transform="translate(-501.29776,-1023.4008)"
         id="path578" />
    </clipPath>
    <clipPath
       clipPathUnits="userSpaceOnUse"
       id="clipPath580">
      <path
         d="M 0,1080 H 1080 V 0 H 0 Z"
         transform="translate(-446.01526,-885.80432)"
         id="path580" />
    </clipPath>
    <clipPath
       clipPathUnits="userSpaceOnUse"
       id="clipPath582">
      <path
         d="M 0,1080 H 1080 V 0 H 0 Z"
         transform="translate(-587.58076,-830.99382)"
         id="path582" />
    </clipPath>
    <clipPath
       clipPathUnits="userSpaceOnUse"
       id="clipPath584">
      <path
         d="M 0,1080 H 1080 V 0 H 0 Z"
         transform="translate(-593.46526,-992.15622)"
         id="path584" />
    </clipPath>
    <clipPath
       clipPathUnits="userSpaceOnUse"
       id="clipPath586">
      <path
         d="M 0,1080 H 1080 V 0 H 0 Z"
         transform="translate(-578.53651,-935.61212)"
         id="path586" />
    </clipPath>
    <clipPath
       clipPathUnits="userSpaceOnUse"
       id="clipPath588">
      <path
         d="M 0,1080 H 1080 V 0 H 0 Z"
         transform="translate(-461.87326,-917.29403)"
         id="path588" />
    </clipPath>
    <clipPath
       clipPathUnits="userSpaceOnUse"
       id="clipPath590">
      <path
         d="M 0,1080 H 1080 V 0 H 0 Z"
         transform="translate(-537.78826,-980.51142)"
         id="path590" />
    </clipPath>
    <clipPath
       clipPathUnits="userSpaceOnUse"
       id="clipPath592">
      <path
         d="M 0,1080 H 1080 V 0 H 0 Z"
         transform="translate(-474.05026,-868.00472)"
         id="path592" />
    </clipPath>
    <clipPath
       clipPathUnits="userSpaceOnUse"
       id="clipPath594">
      <path
         d="M 0,1080 H 1080 V 0 H 0 Z"
         transform="translate(-473.04001,-986.19002)"
         id="path594" />
    </clipPath>
    <clipPath
       clipPathUnits="userSpaceOnUse"
       id="clipPath596">
      <path
         d="M 0,1080 H 1080 V 0 H 0 Z"
         transform="translate(-594.92851,-865.97742)"
         id="path596" />
    </clipPath>
    <clipPath
       clipPathUnits="userSpaceOnUse"
       id="clipPath598">
      <path
         d="M 0,1080 H 1080 V 0 H 0 Z"
         transform="translate(-453.16726,-1011.5115)"
         id="path598" />
    </clipPath>
    <clipPath
       clipPathUnits="userSpaceOnUse"
       id="clipPath600">
      <path
         d="M 0,1080 H 1080 V 0 H 0 Z"
         transform="translate(-602.35352,-859.71542)"
         id="path600" />
    </clipPath>
    <clipPath
       clipPathUnits="userSpaceOnUse"
       id="clipPath602">
      <path
         d="M 0,1080 H 1080 V 0 H 0 Z"
         transform="translate(-433.43476,-849.05762)"
         id="path602" />
    </clipPath>
    <clipPath
       clipPathUnits="userSpaceOnUse"
       id="clipPath604">
      <path
         d="M 0,1080 H 1080 V 0 H 0 Z"
         transform="translate(-393.71401,-935.04432)"
         id="path604" />
    </clipPath>
    <clipPath
       clipPathUnits="userSpaceOnUse"
       id="clipPath606">
      <path
         d="M 0,1080 H 1080 V 0 H 0 Z"
         transform="translate(-472.73926,-1050.0518)"
         id="path606" />
    </clipPath>
    <clipPath
       clipPathUnits="userSpaceOnUse"
       id="clipPath608">
      <path
         d="M 0,1080 H 1080 V 0 H 0 Z"
         transform="translate(-589.55926,-1031.2958)"
         id="path608" />
    </clipPath>
    <clipPath
       clipPathUnits="userSpaceOnUse"
       id="clipPath610">
      <path
         d="M 0,1080 H 1080 V 0 H 0 Z"
         transform="translate(-419.39026,-980.59782)"
         id="path610" />
    </clipPath>
    <clipPath
       clipPathUnits="userSpaceOnUse"
       id="clipPath612">
      <path
         d="M 0,1080 H 1080 V 0 H 0 Z"
         transform="translate(-413.28676,-993.37712)"
         id="path612" />
    </clipPath>
    <clipPath
       clipPathUnits="userSpaceOnUse"
       id="clipPath614">
      <path
         d="M 0,1080 H 1080 V 0 H 0 Z"
         transform="translate(-585.45076,-950.61413)"
         id="path614" />
    </clipPath>
    <clipPath
       clipPathUnits="userSpaceOnUse"
       id="clipPath616">
      <path
         d="M 0,1080 H 1080 V 0 H 0 Z"
         transform="translate(-618.35102,-885.99062)"
         id="path616" />
    </clipPath>
    <clipPath
       clipPathUnits="userSpaceOnUse"
       id="clipPath618">
      <path
         d="M 0,1080 H 1080 V 0 H 0 Z"
         transform="translate(-466.65226,-1032.3505)"
         id="path618" />
    </clipPath>
    <clipPath
       clipPathUnits="userSpaceOnUse"
       id="clipPath620">
      <path
         d="M 0,1080 H 1080 V 0 H 0 Z"
         transform="translate(-623.45327,-957.20702)"
         id="path620" />
    </clipPath>
    <clipPath
       clipPathUnits="userSpaceOnUse"
       id="clipPath622">
      <path
         d="M 0,1080 H 1080 V 0 H 0 Z"
         transform="translate(-624.21077,-925.73472)"
         id="path622" />
    </clipPath>
    <clipPath
       clipPathUnits="userSpaceOnUse"
       id="clipPath624">
      <path
         d="M 0,1080 H 1080 V 0 H 0 Z"
         transform="translate(-621.09827,-843.26762)"
         id="path624" />
    </clipPath>
    <clipPath
       clipPathUnits="userSpaceOnUse"
       id="clipPath626">
      <path
         d="M 0,1080 H 1080 V 0 H 0 Z"
         transform="translate(-585.99901,-1017.2076)"
         id="path626" />
    </clipPath>
    <clipPath
       clipPathUnits="userSpaceOnUse"
       id="clipPath628">
      <path
         d="M 0,1080 H 1080 V 0 H 0 Z"
         transform="translate(-377.47576,-855.94852)"
         id="path628" />
    </clipPath>
    <clipPath
       clipPathUnits="userSpaceOnUse"
       id="clipPath630">
      <path
         d="M 0,1080 H 1080 V 0 H 0 Z"
         transform="translate(-626.90027,-879.21132)"
         id="path630" />
    </clipPath>
    <clipPath
       clipPathUnits="userSpaceOnUse"
       id="clipPath632">
      <path
         d="M 0,1080 H 1080 V 0 H 0 Z"
         transform="translate(-390.96376,-851.60382)"
         id="path632" />
    </clipPath>
    <clipPath
       clipPathUnits="userSpaceOnUse"
       id="clipPath634">
      <path
         d="M 0,1080 H 1080 V 0 H 0 Z"
         transform="translate(-593.59801,-960.12353)"
         id="path634" />
    </clipPath>
    <clipPath
       clipPathUnits="userSpaceOnUse"
       id="clipPath636">
      <path
         d="M 0,1080 H 1080 V 0 H 0 Z"
         transform="translate(-748.86602,-634.03232)"
         id="path636" />
    </clipPath>
    <clipPath
       clipPathUnits="userSpaceOnUse"
       id="clipPath638">
      <path
         d="M 0,1080 H 1080 V 0 H 0 Z"
         transform="translate(-154.52475,-576.63281)"
         id="path638" />
    </clipPath>
    <clipPath
       clipPathUnits="userSpaceOnUse"
       id="clipPath640">
      <path
         d="M 0,1080 H 1080 V 0 H 0 Z"
         transform="translate(-883.53152,-544.97911)"
         id="path640" />
    </clipPath>
    <clipPath
       clipPathUnits="userSpaceOnUse"
       id="clipPath642">
      <path
         d="M 0,1080 H 1080 V 0 H 0 Z"
         transform="translate(-1055.1795,-461.33761)"
         id="path642" />
    </clipPath>
    <clipPath
       clipPathUnits="userSpaceOnUse"
       id="clipPath644">
      <path
         d="M 0,1080 H 1080 V 0 H 0 Z"
         transform="translate(-477.46726,-121.66643)"
         id="path644" />
    </clipPath>
    <clipPath
       clipPathUnits="userSpaceOnUse"
       id="clipPath646">
      <path
         d="M 0,1080 H 1080 V 0 H 0 Z"
         transform="translate(-1065.8423,-381.30931)"
         id="path646" />
    </clipPath>
    <clipPath
       clipPathUnits="userSpaceOnUse"
       id="clipPath648">
      <path
         d="M 0,1080 H 1080 V 0 H 0 Z"
         transform="translate(-23.922001,-345.45151)"
         id="path648" />
    </clipPath>
  </defs>
  <g
     id="layer-MC1"
     transform="translate(-11680)">
    <path
       id="path563"
       d="M 0,0 C -0.006,0.847 0.021,1.695 -0.029,2.54 -0.067,3.179 -0.716,3.827 -1.34,3.87 -2.184,3.929 -3.04,4.005 -3.877,3.924 -4.336,3.88 -4.873,3.667 -5.011,3.063 -5.085,2.735 -5.229,2.415 -5.251,2.085 c -0.397,-6.109 -0.314,-12.205 0.562,-18.276 0.024,-0.167 0.033,-0.374 0.134,-0.484 0.222,-0.241 0.487,-0.598 0.753,-0.616 3.633,-0.238 4.278,-0.308 4.08,3.637 -0.051,1.017 -0.124,2.033 -0.147,3.05 C 0.057,-7.384 0.002,-4.164 0,0 m 0.969,-378.49 c -3.355,-0.927 -6.692,-0.881 -10.021,0.15 -0.809,0.25 -1.633,0.461 -2.464,0.618 -0.237,0.045 -0.538,-0.136 -0.772,-0.277 -0.059,-0.036 -0.032,-0.362 0.056,-0.476 1.933,-2.475 4.411,-4.281 7.377,-5.188 7.429,-2.272 14.059,-0.743 19.722,4.636 1.235,1.174 2.197,2.567 2.805,4.185 0.224,0.595 -0.366,1.483 -0.982,1.427 -2.727,-0.249 -5.324,-0.97 -7.808,-2.117 -2.308,-1.066 -4.602,-2.17 -7.913,-2.958 m -12.964,348.825 c -2.103,0.623 -4.205,1.248 -6.309,1.867 -0.924,0.272 -1.568,-0.242 -1.615,-1.276 -0.016,-0.337 -0.041,-0.675 -0.038,-1.013 0.114,-10.816 0.231,-21.633 0.349,-32.45 0.004,-0.359 0.236,-0.533 0.657,-0.447 0.15,0.03 0.335,0.164 0.397,0.299 1.332,2.912 2.522,5.897 3.994,8.736 3.73,7.197 7.379,14.442 11.666,21.337 0.24,0.384 0.176,0.958 0.265,1.518 -1.323,0.58 -2.696,0.394 -4.002,0.604 -1.502,0.242 -3.006,0.466 -5.364,0.825 m 18.858,3.031 c 3.569,0.442 6.914,1.596 10.091,3.247 2.045,1.064 2.121,3.112 0.185,4.411 -0.56,0.376 -1.128,0.766 -1.743,1.032 -3.61,1.567 -7.386,2.401 -11.327,2.461 -0.868,0.013 -1.379,-0.5 -1.564,-1.597 -0.11,-0.654 -0.079,-1.42 -0.421,-1.926 -0.499,-0.738 -1.459,-0.793 -2.304,-0.8 -1.69,-0.013 -3.382,0.012 -5.071,0.079 -0.713,0.028 -1.251,0.432 -1.532,1.118 -0.256,0.625 -0.481,1.263 -0.766,1.873 -0.292,0.622 -1.009,0.989 -1.678,0.819 -2.128,-0.543 -4.283,-1.019 -6.355,-1.73 -1.257,-0.431 -2.45,-1.15 -3.548,-1.918 -1.37,-0.956 -1.745,-2.586 0.016,-3.734 1.126,-0.733 2.324,-1.436 3.589,-1.854 1.917,-0.633 3.901,-1.118 5.892,-1.469 5.206,-0.92 10.435,-1.005 16.536,-0.012 M -5.699,-358.575 c 2.201,-0.073 4.401,-0.186 6.601,-0.211 5.167,-0.06 10.063,1.208 14.804,3.151 2.211,0.906 4.281,2.102 5.98,3.782 3.432,3.393 4.031,6.741 0.305,10.588 -0.232,0.24 -0.502,0.479 -0.803,0.608 -0.282,0.121 -0.626,0.096 -0.944,0.134 -2.787,-5.143 -5.499,-7.331 -11.053,-8.842 -1.305,-0.356 -2.631,-0.685 -3.969,-0.865 -4.943,-0.666 -9.796,-0.361 -14.498,1.471 -3.393,1.323 -6.389,3.102 -8.15,6.484 -0.207,0.396 -0.728,0.629 -1.208,1.024 -0.651,-0.63 -1.287,-1.181 -1.842,-1.803 -0.447,-0.503 -0.868,-1.056 -1.177,-1.652 -1.189,-2.292 -1.188,-4.607 0.335,-6.718 0.777,-1.078 1.758,-2.109 2.866,-2.823 1.549,-0.999 3.281,-1.731 4.974,-2.489 2.186,-0.978 4.588,-1.159 7.779,-1.839 m 74.733,0.578 c 2.524,0.467 4.869,1.393 7.026,2.779 1.146,0.736 2.144,1.625 2.893,2.794 1.409,2.2 1.521,4.42 0.243,6.703 -1.294,2.31 -3.245,3.904 -5.661,4.861 -2.696,1.068 -5.521,1.656 -8.438,1.315 -3.204,-0.376 -6.311,-1.153 -9.203,-2.648 -2.273,-1.174 -4.317,-2.656 -6.052,-4.54 -0.831,-0.902 -1.36,-1.907 -1.034,-3.215 0.43,-1.728 0.064,-3.347 -0.777,-4.888 -0.241,-0.441 -0.415,-0.917 -0.678,-1.506 0.604,-0.329 1.147,-0.782 1.765,-0.938 6.295,-1.587 12.652,-2.118 19.916,-0.717 m -58.083,38.19 c 0.633,1.197 1.254,2.401 1.903,3.59 1.629,2.981 2.876,6.121 4.007,9.319 0.575,1.625 0.83,3.259 0.823,4.975 -0.047,12.538 -0.066,25.076 -0.106,37.614 -0.002,0.487 -0.111,0.979 -0.225,1.455 -0.023,0.095 -0.349,0.227 -0.444,0.175 -0.42,-0.228 -0.934,-0.43 -1.185,-0.797 -1.429,-2.095 -2.805,-4.227 -4.175,-6.362 -4.573,-7.126 -9.205,-14.22 -12.903,-21.86 -1.18,-2.437 -2.087,-5.014 -3.381,-7.383 -3.83,-7.012 -6.607,-14.469 -9.501,-21.88 -0.801,-2.053 -1.655,-4.146 -1.708,-6.35 -0.093,-3.89 -0.007,-7.79 0.156,-11.68 0.09,-2.137 1.218,-3.862 2.936,-5.125 0.811,-0.596 1.71,-1.102 2.626,-1.521 4.081,-1.866 4.671,-1.487 7.036,2.054 0.376,0.563 0.757,1.124 1.115,1.699 4.385,7.043 8.894,14.012 13.026,22.077 m -21.897,106.286 c -1.603,-3.553 -3.215,-7.101 -4.805,-10.659 -0.836,-1.869 -1.351,-3.783 -1.324,-5.889 0.17,-13.056 0.259,-26.113 0.401,-39.17 0.011,-1.007 0.179,-2.019 0.363,-3.013 0.049,-0.261 0.418,-0.475 0.671,-0.67 0.033,-0.026 0.318,0.163 0.377,0.3 0.734,1.701 1.521,3.384 2.155,5.123 3.957,10.851 8.834,21.271 14.563,31.296 0.504,0.882 0.977,1.783 1.441,2.688 4.41,8.598 9.16,17.001 14.525,25.261 0.034,0.675 0.114,1.519 0.115,2.363 0.006,13.397 0.003,26.793 -0.004,40.19 0,0.507 -0.042,1.016 -0.104,1.519 -0.015,0.122 -0.178,0.236 -0.29,0.334 -0.304,0.266 -0.643,0.266 -0.898,-0.065 -0.615,-0.8 -1.257,-1.588 -1.781,-2.446 -3.885,-6.364 -7.725,-12.756 -11.616,-19.117 -2.48,-4.056 -4.614,-8.285 -6.59,-12.605 -2.255,-4.931 -4.605,-9.819 -7.199,-15.44 m 37.951,-156.68 c 1.006,0.142 2.034,0.198 3.014,0.442 2.847,0.71 4.765,2.474 5.685,5.281 0.106,0.321 0.175,0.654 0.255,0.983 0.678,2.782 2.312,4.856 4.71,6.366 0.717,0.451 1.46,0.869 2.138,1.373 0.676,0.503 1.323,1.058 1.916,1.656 1.364,1.377 1.492,2.817 0.573,4.638 -0.708,1.403 -1.753,2.471 -3.011,3.376 -1.236,0.889 -2.483,1.771 -3.66,2.736 -0.931,0.763 -1.621,1.75 -1.871,2.956 -0.239,1.153 -0.477,2.318 -0.563,3.489 -0.086,1.178 0.075,2.373 0.027,3.556 -0.122,2.985 -2.256,5.046 -5.25,5.069 -0.839,0.006 -1.713,-0.047 -2.511,-0.278 -1.833,-0.529 -3.678,-0.536 -5.546,-0.397 -0.506,0.037 -1.012,0.077 -1.519,0.09 -0.651,0.018 -1.335,-0.582 -1.394,-1.204 -0.173,-1.856 -0.268,-3.709 0.212,-5.633 1.069,-0.786 2.172,-1.561 3.236,-2.387 1.356,-1.05 2.451,-2.336 3.258,-3.855 1.543,-2.901 1.607,-5.831 0.137,-8.776 -1.244,-2.491 -3.118,-4.413 -5.422,-5.938 -2.709,-1.794 -5.643,-3.13 -8.77,-3.956 -7.136,-1.884 -14.369,-2.381 -21.652,-0.987 -3.675,0.704 -7.212,1.875 -10.444,3.839 -2.053,1.247 -3.902,2.728 -5.192,4.777 -2.195,3.483 -2.22,7.032 -0.078,10.552 0.89,1.463 2.066,2.693 3.499,3.642 0.985,0.653 2.02,1.232 3.086,1.876 0.403,2.708 0.133,5.417 0.084,8.117 -0.042,2.25 -0.442,2.673 -2.652,2.768 -2.2,0.094 -4.408,0.156 -6.605,0.068 -2.278,-0.092 -4.275,-0.992 -5.893,-2.637 -0.769,-0.781 -1.063,-1.738 -0.81,-2.799 0.313,-1.314 0.814,-2.592 1.036,-3.919 0.364,-2.177 -0.319,-4.04 -2.173,-5.332 -0.967,-0.674 -1.993,-1.28 -3.048,-1.806 -0.905,-0.452 -1.901,-0.72 -2.837,-1.115 -1.416,-0.598 -2.693,-1.42 -3.799,-2.499 -1.196,-1.168 -1.077,-3.523 0.274,-4.51 0.819,-0.597 1.679,-1.144 2.55,-1.663 1.833,-1.092 3.029,-2.685 3.722,-4.668 0.335,-0.958 0.583,-1.947 0.881,-2.919 0.248,-0.808 0.453,-1.637 0.781,-2.413 1.882,-4.461 5.122,-7.059 10.088,-7.23 0.337,-0.011 0.678,0.012 1.016,0.04 3.696,0.306 7.015,-0.805 10.152,-2.654 1.312,-0.774 2.614,-1.592 4.003,-2.201 4.16,-1.823 8.434,-2.484 12.847,-0.903 1.433,0.514 2.926,0.906 4.285,1.572 5.627,2.76 11.55,3.778 17.77,3.29 0.84,-0.066 1.693,0.024 3.465,0.127 m 217.267,24.671 c -2.934,2.051 -5.618,4.399 -8.024,7.038 -1.597,1.751 -3.015,3.665 -4.55,5.474 -0.176,0.208 -0.587,0.227 -0.898,0.293 -0.03,0.007 -0.157,-0.261 -0.178,-0.41 -0.24,-1.73 0.45,-3.337 0.658,-5.006 0.524,-4.196 2.418,-7.718 5.04,-10.938 1.505,-1.848 3.13,-3.564 4.926,-5.135 4.897,-4.285 10.366,-7.661 16.306,-10.269 12.201,-5.355 24.997,-8.581 38.15,-10.47 6.56,-0.942 13.167,-1.347 19.789,-1.463 9.338,-0.163 18.652,0.027 27.951,1.162 8.95,1.092 17.748,2.821 26.382,5.383 7.667,2.275 15.038,5.29 22.029,9.189 4.613,2.573 8.846,5.657 12.68,9.321 2.056,1.965 3.413,4.237 3.914,6.975 0.731,3.998 1.528,8.003 1.193,12.34 -0.515,-0.324 -1.045,-0.471 -1.243,-0.811 -5.237,-8.964 -13.016,-15.071 -22.089,-19.731 -3.93,-2.019 -8.012,-3.683 -12.187,-5.12 -14.392,-4.956 -29.256,-7.39 -44.412,-8.012 -8.985,-0.369 -17.97,-0.226 -26.951,0.729 -10.841,1.152 -21.473,3.219 -31.843,6.519 -9.251,2.945 -18.064,6.896 -26.643,12.942 M -0.783,-79.027 c -4.419,-8.787 -8.345,-17.796 -12.057,-26.899 -1.792,-4.397 -3.288,-8.895 -4.546,-13.476 -0.813,-2.966 -1.216,-5.949 -1.162,-9.034 0.226,-13.054 0.38,-26.11 0.56,-39.165 0.01,-0.679 -0.01,-1.36 0.055,-2.033 0.026,-0.266 0.237,-0.519 0.385,-0.765 0.163,-0.271 0.866,0.257 1.101,0.821 0.129,0.312 0.3,0.61 0.402,0.93 2.378,7.452 5.887,14.419 9.272,21.432 2.652,5.493 5.447,10.917 8.24,16.34 1.55,3.011 3.172,5.989 4.858,8.927 3.374,5.879 6.804,11.726 10.24,17.569 0.617,1.05 1.045,2.108 0.999,3.347 -0.038,1.016 0.001,2.034 0.002,3.052 0.011,14.243 0.024,28.487 0.028,42.73 10e-4,1.355 -0.019,2.712 -0.102,4.063 -0.014,0.232 -0.369,0.584 -0.607,0.622 -0.265,0.042 -0.645,-0.143 -0.854,-0.35 -0.357,-0.355 -0.635,-0.793 -0.919,-1.215 C 9.433,-60.578 4.146,-69.259 -0.783,-79.027 m -265.62,-254.705 c 1.936,2.606 3.415,5.463 4.557,8.49 0.292,0.773 0.352,1.638 0.486,2.465 0.022,0.141 -0.1,0.421 -0.198,0.442 -0.279,0.061 -0.685,0.143 -0.851,-0.001 -0.507,-0.441 -0.943,-0.968 -1.374,-1.49 -4.375,-5.303 -9.647,-9.498 -15.656,-12.812 -5.964,-3.29 -12.222,-5.851 -18.733,-7.831 -14.375,-4.369 -29.124,-6.375 -44.091,-6.902 -10.361,-0.364 -20.671,0.327 -30.955,1.687 -11.645,1.54 -22.996,4.207 -34.022,8.251 -6.066,2.225 -11.897,4.947 -17.387,8.367 -5.954,3.708 -11.32,8.073 -15.401,13.865 -0.193,0.275 -0.434,0.525 -0.691,0.743 -0.11,0.094 -0.379,0.159 -0.465,0.093 -0.216,-0.167 -0.536,-0.429 -0.519,-0.629 0.083,-1.007 0.155,-2.036 0.424,-3.003 0.961,-3.456 2.518,-6.644 4.466,-9.655 2.988,-4.62 6.838,-8.42 11.182,-11.728 4.466,-3.4 9.246,-6.303 14.348,-8.657 5.861,-2.704 11.895,-4.948 18.121,-6.649 11.491,-3.139 23.174,-4.998 35.097,-5.445 14.134,-0.529 28.135,0.326 41.97,3.384 10.646,2.354 20.903,5.769 30.498,11.038 7.214,3.962 13.635,8.874 19.194,15.977 m 186.139,142.845 c -3.229,-1.418 -6.744,-2.186 -9.843,-4.174 1.015,-1.211 2.334,-1.633 3.508,-2.257 13.016,-6.925 26.044,-13.827 39.064,-20.746 7.932,-4.215 15.85,-8.455 23.785,-12.664 0.888,-0.471 1.831,-0.852 2.78,-1.185 0.166,-0.058 0.676,0.307 0.709,0.524 0.126,0.831 0.175,1.683 0.157,2.525 -0.118,5.763 -0.295,11.525 -0.39,17.288 -0.204,12.375 -0.363,24.751 -0.558,37.127 -0.024,1.519 -0.152,3.036 -0.235,4.554 -0.02,0.362 -0.769,0.828 -1.165,0.711 -1.132,-0.334 -2.278,-0.637 -3.38,-1.055 -17.899,-6.788 -35.792,-13.591 -54.432,-20.648 M -4.567,95.196 c -0.992,0.927 -1.937,1.91 -2.987,2.765 -1.175,0.959 -2.429,1.826 -3.689,2.672 -0.221,0.149 -0.716,0.112 -0.951,-0.043 -0.232,-0.152 -0.401,-0.557 -0.414,-0.859 -0.061,-1.407 0.663,-2.608 1.152,-3.856 1.761,-4.499 2.438,-9.2 2.175,-13.963 -0.289,-5.24 -1.013,-10.443 -2.135,-15.598 -1.053,-4.836 -2.919,-9.387 -4.492,-14.038 -1.411,-4.174 -2.809,-8.337 -3.835,-12.632 -1.073,-4.493 -1.602,-9.017 -1.425,-13.622 0.091,-2.371 0.109,-4.764 0.457,-7.102 0.784,-5.259 2.83,-10.105 5.389,-14.723 1.149,-2.076 2.583,-3.991 4.312,-5.641 0.33,-0.315 0.842,-0.473 1.298,-0.61 0.46,-0.137 0.729,0.435 0.774,1.601 0.053,1.356 0.069,2.714 0.162,4.067 0.111,1.631 0.913,2.519 2.416,2.831 2.364,0.492 4.719,0.362 7.07,-0.078 0.981,-0.183 1.702,-1.115 1.729,-2.208 0.052,-2.2 0.078,-4.401 0.171,-6.6 0.01,-0.238 0.354,-0.563 0.613,-0.662 0.273,-0.103 0.686,-0.08 0.94,0.063 0.435,0.245 0.823,0.596 1.178,0.954 2.298,2.315 4.05,5.018 5.333,7.992 2.776,6.43 4.569,13.165 5.076,20.131 0.604,8.293 0.374,16.571 -1.011,24.837 -1.779,10.614 -4.92,20.722 -9.715,30.351 -2.439,4.898 -5.551,9.304 -9.591,13.971 m 398.202,-438.288 c 1.202,0.94 2.447,1.83 3.598,2.829 3.368,2.919 6.16,6.29 8.032,10.38 1.219,2.666 1.814,5.444 1.815,8.375 0.002,3.648 -0.911,7.057 -2.669,10.219 -0.904,1.624 -1.963,3.173 -3.066,4.672 -2.957,4.018 -6.783,7.098 -10.957,9.746 -4.59,2.912 -9.448,5.318 -14.467,7.409 -14.559,6.067 -29.859,8.947 -45.475,10.053 -13.215,0.936 -26.425,0.479 -39.559,-1.659 -8.56,-1.393 -16.942,-3.386 -25.1,-6.306 -6.408,-2.294 -12.538,-5.161 -18.115,-9.115 -2.633,-1.868 -5.167,-3.856 -7.357,-6.242 -2.54,-2.766 -4.732,-5.767 -6.103,-9.3 -1.181,-3.046 -1.878,-6.18 -1.338,-9.454 0.388,-2.344 1.025,-4.632 2.071,-6.787 1.877,-3.866 4.465,-7.191 7.654,-10.055 2.911,-2.614 6.063,-4.901 9.428,-6.898 9.126,-5.419 19.04,-8.837 29.267,-11.405 6.248,-1.569 12.584,-2.682 18.997,-3.42 8.264,-0.951 16.537,-1.637 24.857,-1.512 3.387,0.051 6.768,0.404 10.155,0.573 7.81,0.389 15.507,1.578 23.13,3.272 12.347,2.743 24.047,7.075 35.202,14.625 m -656.982,42.706 c -0.526,1.063 -1.066,2.119 -1.575,3.19 -1.335,2.813 -3.356,5.08 -5.668,7.109 -3.192,2.803 -6.586,5.331 -10.236,7.519 -7.614,4.565 -15.799,7.801 -24.271,10.319 -8.622,2.562 -17.419,4.312 -26.358,5.42 -7.586,0.94 -15.191,1.51 -22.821,1.608 -8.317,0.106 -16.596,-0.589 -24.847,-1.675 -9.269,-1.219 -18.359,-3.183 -27.229,-6.155 -5.158,-1.728 -10.148,-3.846 -14.905,-6.476 -4.617,-2.554 -8.937,-5.529 -12.591,-9.395 -1.877,-1.986 -3.537,-4.128 -4.782,-6.554 -3.069,-5.982 -3.16,-12.028 -0.194,-18.083 1.277,-2.608 2.985,-4.921 4.954,-7.051 3.364,-3.64 7.235,-6.648 11.453,-9.228 8.755,-5.353 18.25,-8.927 28.111,-11.587 7.371,-1.988 14.843,-3.458 22.438,-4.346 7.923,-0.926 15.851,-1.631 23.834,-1.649 8.493,-0.019 16.931,0.664 25.35,1.761 8.091,1.054 16.035,2.724 23.805,5.208 7.617,2.434 14.946,5.503 21.687,9.873 3,1.946 5.845,4.077 8.289,6.698 2.444,2.621 4.577,5.463 5.809,8.877 0.985,2.728 1.782,5.519 1.322,8.449 -0.287,1.832 -0.839,3.622 -1.575,6.168 M -38.008,-522.61 c -0.067,-0.846 -0.183,-1.69 -0.191,-2.536 -0.022,-2.383 -0.225,-4.715 -0.943,-7.025 -0.446,-1.436 -0.499,-2.999 -0.684,-4.51 -0.433,-3.544 -0.357,-7.107 -0.399,-10.668 -0.022,-1.859 -0.011,-3.763 -0.406,-5.562 -0.477,-2.177 -0.629,-4.353 -0.753,-6.552 -0.066,-1.184 -0.094,-2.381 -0.295,-3.546 -0.518,-3.016 -0.782,-6.042 -0.907,-9.101 -0.124,-3.038 -0.571,-6.063 -0.872,-9.094 -0.034,-0.338 -0.029,-0.679 -0.067,-1.016 -0.192,-1.682 -0.346,-3.37 -0.599,-5.043 -0.735,-4.86 -1.539,-9.707 -1.717,-14.636 -0.062,-1.688 -0.068,-3.489 -0.659,-5.022 -0.952,-2.465 -0.902,-4.954 -1.051,-7.485 -0.11,-1.869 -0.232,-3.711 0.074,-5.57 0.249,-1.515 0.1,-3.028 -0.034,-4.558 -0.281,-3.203 -0.396,-6.419 -0.563,-9.631 -0.028,-0.536 0.909,-1.329 1.417,-1.176 2.315,0.699 4.693,0.584 7.063,0.62 0.845,0.013 1.712,0.031 2.529,0.219 4.781,1.104 9.644,1.862 14.326,3.398 2.092,0.687 4.21,1.298 6.332,1.885 4.567,1.262 9.163,2.431 13.396,4.653 1.796,0.943 3.546,1.997 5.409,2.784 1.863,0.788 3.884,1.201 5.757,1.97 2.036,0.835 4.012,1.831 5.96,2.86 7.643,4.038 15.764,7.066 23.407,11.102 0.299,0.158 0.618,0.279 0.927,0.42 1.691,0.774 3.387,1.537 5.072,2.326 1.074,0.502 2.101,1.116 3.2,1.55 5.839,2.31 11.426,5.158 16.987,8.044 1.814,0.942 3.635,1.81 5.559,2.474 3.527,1.218 7.006,2.54 10.295,4.33 2.826,1.537 5.655,3.065 8.614,4.353 1.223,0.532 2.261,1.478 3.416,2.183 1.586,0.97 3.176,1.941 4.814,2.819 4.032,2.163 8.272,3.925 12.162,6.368 0.998,0.627 2.113,1.076 3.196,1.558 2.636,1.174 5.221,2.436 7.655,4.001 0.995,0.64 2.06,1.175 3.118,1.71 2.873,1.453 5.806,2.797 8.631,4.338 5.066,2.765 10.334,5.073 15.66,7.273 2.817,1.164 5.567,2.491 8.329,3.784 0.604,0.283 1.133,0.727 1.69,1.105 0.387,0.262 0.372,1.015 -0.035,1.266 -0.862,0.534 -1.713,1.091 -2.607,1.566 -5.688,3.026 -11.391,6.023 -17.082,9.045 -36.987,19.641 -73.979,39.275 -110.956,58.936 -13.324,7.084 -26.617,14.225 -39.914,21.36 -5.827,3.127 -11.621,6.314 -17.447,9.442 -0.868,0.466 -1.694,1.182 -2.91,0.905 -0.801,-2.384 -1.096,-4.891 -1.122,-7.434 -0.029,-2.883 -0.031,-5.767 -0.01,-8.651 0.027,-3.733 0.116,-7.465 -0.859,-11.122 -0.129,-0.486 -0.154,-1.009 -0.162,-1.515 -0.097,-6.104 -0.279,-12.208 -0.233,-18.31 0.029,-3.905 -0.039,-7.795 -0.337,-11.686 -0.195,-2.533 -0.41,-5.068 -0.476,-7.605 -0.092,-3.561 -0.057,-7.125 -0.705,-11.593 m -365.633,23.174 c 0.549,-0.4 1.093,-0.806 1.647,-1.198 12.895,-9.096 25.802,-18.177 38.682,-27.295 3.877,-2.745 7.683,-5.591 11.513,-8.402 0.922,-0.677 1.876,-0.738 2.858,-0.215 4.335,2.31 8.97,4.067 12.969,7.001 0.407,0.298 0.887,0.496 1.329,0.749 5.891,3.372 11.838,6.628 18.348,8.696 0.16,0.051 0.305,0.148 0.463,0.211 6.455,2.555 12.641,5.803 19.406,7.564 0.325,0.085 0.633,0.242 0.939,0.386 5.86,2.77 11.188,6.373 16.244,10.4 0.349,0.279 0.354,0.929 0.026,1.353 -1.038,1.342 -2.123,2.65 -3.11,4.028 -2.481,3.467 -4.526,7.165 -5.844,11.244 -0.845,2.613 -1.27,5.25 -0.973,8.01 0.377,3.501 1.89,6.491 3.972,9.228 2.277,2.994 5.021,5.527 8.06,7.726 4.416,3.196 9.13,5.868 14.227,7.835 0.789,0.304 1.589,0.587 2.402,0.818 0.862,0.246 1.683,0.081 2.388,-0.489 0.66,-0.533 1.312,-1.077 1.94,-1.646 4.904,-4.446 9.798,-8.9 14.7,-13.348 1.885,-1.71 3.791,-3.396 5.664,-5.119 0.494,-0.454 0.908,-0.997 1.348,-1.508 0.251,-0.292 0.076,-1.153 -0.291,-1.335 -1.819,-0.902 -3.663,-1.757 -5.466,-2.689 -1.806,-0.932 -3.62,-1.862 -5.347,-2.928 -1.926,-1.189 -3.301,-2.905 -4.137,-5.025 -0.124,-0.313 -0.198,-0.646 -0.3,-0.968 -0.149,-0.468 0.1,-1.301 0.417,-1.349 0.319,-0.048 0.688,-0.182 0.956,-0.076 5.373,2.12 10.843,3.911 16.513,5.066 0.827,0.168 1.665,0.405 2.423,0.766 3.674,1.748 7.331,3.532 10.969,5.355 0.4,0.201 0.636,0.732 0.923,1.08 -0.122,0.232 -0.173,0.398 -0.278,0.515 -0.338,0.378 -0.691,0.742 -1.048,1.102 -0.477,0.48 -0.978,0.937 -1.442,1.43 -0.694,0.737 -0.617,1.645 0.234,2.069 5.007,2.495 10.028,4.963 15.047,7.436 0.149,0.073 0.323,0.147 0.481,0.137 0.33,-0.021 0.716,-0.006 0.975,-0.169 0.566,-0.359 1.095,-0.789 1.59,-1.243 3.756,-3.439 3.541,-3.408 8.346,-1.033 6.834,3.377 13.43,7.263 20.687,9.762 1.574,0.542 3.096,1.337 4.32,2.841 -0.582,0.44 -1.051,0.972 -1.638,1.21 -5.166,2.092 -10.281,1.975 -15.2,-0.712 -1.621,-0.885 -3.059,-2.114 -4.541,-3.237 -0.534,-0.405 -0.941,-0.975 -1.429,-1.445 -0.702,-0.678 -1.318,-0.705 -2.281,-0.118 -0.579,0.353 -1.151,0.718 -1.719,1.09 -6.953,4.558 -13.905,9.117 -20.856,13.678 -0.993,0.652 -1.977,1.318 -2.966,1.976 -0.282,0.188 -0.572,0.365 -0.849,0.56 -1.329,0.931 -1.454,1.785 -0.474,2.899 2.85,3.238 6.296,5.681 10.183,7.484 5.126,2.377 10.55,3.807 16.163,4.224 5.924,0.44 11.849,0.368 17.755,-0.691 11.746,-2.107 22.433,-6.499 31.726,-14.086 0.781,-0.638 1.631,-1.19 2.551,-1.856 0.97,0.33 1.954,0.575 2.862,0.987 5.567,2.525 10.994,5.307 16.109,8.681 1.98,1.306 4.066,2.454 6.117,3.65 1.912,1.116 3.903,2.053 6.099,2.477 2.034,0.393 3.832,1.352 5.59,2.387 0.876,0.516 1.703,1.115 2.565,1.657 3.893,2.449 7.904,4.627 12.482,5.55 0.648,0.13 1.27,0.464 1.851,0.796 0.118,0.068 0.112,0.724 -0.024,0.81 -1.286,0.807 -2.589,1.595 -3.931,2.303 -34.063,17.963 -68.139,35.899 -102.193,53.877 -12.901,6.812 -25.759,13.706 -38.626,20.582 -7.481,3.997 -14.945,8.028 -22.408,12.061 -0.9,0.486 -1.748,1.062 -3.014,0.803 -0.325,-0.651 -0.754,-1.374 -1.054,-2.148 -0.301,-0.777 -0.473,-1.604 -0.67,-2.296 0.807,-1.687 1.568,-3.202 2.262,-4.747 1.467,-3.267 2.545,-6.673 3.007,-10.218 1.342,-10.281 -0.531,-19.926 -5.966,-28.823 -2.309,-3.78 -4.989,-7.267 -8.058,-10.466 -7.874,-8.209 -17.24,-14.22 -27.583,-18.798 -15.56,-6.887 -31.95,-10.163 -48.861,-10.996 -10.364,-0.51 -20.68,0.113 -30.943,1.766 -9.75,1.57 -19.26,3.988 -28.459,7.565 -10.671,4.15 -20.565,9.662 -29.264,17.183 -6.625,5.728 -12.067,12.377 -15.774,20.372 -1.724,3.719 -3.003,7.594 -3.486,11.652 -0.939,7.879 -0.268,15.587 3.08,22.911 0.211,0.463 0.426,0.925 0.626,1.393 0.065,0.153 0.14,0.336 0.113,0.487 -0.056,0.302 -0.096,0.699 -0.298,0.856 -0.21,0.163 -0.605,0.113 -0.918,0.109 -0.161,-0.002 -0.325,-0.094 -0.478,-0.166 -9.41,-4.445 -18.18,-9.891 -25.976,-16.817 -6.904,-6.132 -12.791,-13.107 -17.214,-21.259 -2.11,-3.888 -3.902,-7.903 -4.98,-12.213 -1.968,-7.878 -1.942,-15.841 -0.53,-23.75 2.311,-12.954 7.884,-24.462 16.135,-34.698 6.665,-8.269 14.696,-15.069 23.292,-21.162 18.826,-13.346 37.802,-26.48 57.323,-40.107 m 424.286,249.592 c 0.083,-1.172 0.166,-2.345 0.252,-3.567 1.265,-0.721 2.42,-1.428 3.618,-2.053 2.407,-1.255 4.853,-2.436 7.256,-3.698 35.147,-18.463 70.293,-36.929 105.433,-55.406 19.071,-10.028 38.133,-20.075 57.196,-30.119 6.155,-3.243 12.294,-6.514 18.453,-9.748 0.892,-0.467 1.842,-0.838 2.797,-1.158 0.224,-0.075 0.725,0.159 0.842,0.384 0.308,0.592 0.547,1.241 0.686,1.895 1.455,6.806 4.537,12.744 9.378,17.762 0.341,0.353 0.573,0.812 0.787,1.123 0,0.816 0.103,1.51 -0.016,2.165 -1.053,5.777 -0.058,11.506 0.369,17.247 0.05,0.668 0.289,1.323 0.453,1.98 1.534,6.139 4.999,11.092 9.554,15.334 3.366,3.134 7.091,5.795 11.105,8.051 7.134,4.01 14.663,7.07 22.518,9.324 6.692,1.921 13.494,3.317 20.399,4.257 6.901,0.941 13.816,1.635 20.781,1.753 9.858,0.166 19.665,-0.454 29.447,-1.729 10.474,-1.364 20.655,-3.887 30.616,-7.338 9.882,-3.425 18.899,-8.382 26.802,-15.295 3.218,-2.815 6.048,-5.952 8.259,-9.616 1.59,-2.635 2.741,-5.456 3.235,-8.511 0.326,-2.013 0.171,-4.08 0.404,-6.074 0.25,-2.138 1.314,-4.169 1.861,-6.289 0.947,-3.67 0.777,-7.412 0.399,-11.137 -0.126,-1.244 0.076,-2.338 0.688,-3.409 1.439,-2.52 2.373,-5.248 3.228,-8.007 1.791,-5.779 2.146,-11.696 1.274,-17.63 -0.87,-5.929 -2.964,-11.48 -6.083,-16.624 -3.192,-5.264 -7.122,-9.916 -11.671,-14.051 -6.713,-6.1 -14.251,-10.939 -22.48,-14.729 -8.974,-4.133 -18.285,-7.233 -27.969,-9.206 -0.485,-0.099 -0.958,-0.284 -1.414,-0.481 -0.1,-0.043 -0.132,-0.306 -0.145,-0.471 -0.011,-0.147 -0.004,-0.359 0.086,-0.439 0.373,-0.33 0.746,-0.689 1.181,-0.915 10.539,-5.475 21.085,-10.938 31.636,-16.39 0.594,-0.307 1.241,-0.51 1.959,-0.8 2.829,1.112 5.705,2.127 8.485,3.358 6.201,2.748 12.373,5.563 18.52,8.429 4.455,2.077 8.869,4.235 13.5,5.913 1.27,0.46 2.504,1.06 3.681,1.726 5.63,3.183 11.664,5.46 17.595,7.976 7.334,3.111 14.681,6.205 21.915,9.541 10.011,4.617 19.925,9.443 29.871,14.201 4.765,2.279 9.254,4.997 13.151,8.603 0.994,0.92 2.054,1.823 2.827,2.914 2.346,3.31 4.916,6.507 5.84,10.623 0.219,0.974 0.752,1.89 1.218,2.793 1.109,2.154 1.664,4.441 1.729,6.849 0.056,2.034 0.151,4.072 0.083,6.103 -0.173,5.139 -1.446,10.053 -3.196,14.863 -2.574,7.077 -6.31,13.516 -10.718,19.583 -5.311,7.311 -11.415,13.905 -18.316,19.735 -7.787,6.578 -15.763,12.9 -25.113,17.209 -0.615,0.284 -1.21,0.613 -1.815,0.922 -36.422,18.585 -72.82,37.217 -109.276,55.736 -18.907,9.605 -37.935,18.971 -56.873,28.515 -12.12,6.108 -24.197,12.304 -36.247,18.55 -3.164,1.64 -6.314,3.271 -9.609,4.644 -21.034,8.766 -42.707,15.516 -64.887,20.677 -9.748,2.269 -19.573,4.166 -29.443,5.806 -5.353,0.889 -10.736,1.621 -16.123,2.279 -4.714,0.575 -9.453,0.94 -14.18,1.413 -9.632,0.964 -19.291,1.439 -28.966,1.584 -6.791,0.102 -13.568,-0.183 -20.352,-0.585 -9.333,-0.554 -18.591,-1.587 -27.769,-3.331 -8.015,-1.523 -15.865,-3.632 -23.429,-6.739 -5.825,-2.393 -5.055,-1.789 -5.073,-7.75 -0.087,-29.197 -0.138,-58.394 -0.204,-88.525 m -6.082,-169.66 c -3.035,1.546 -5.88,3.375 -8.489,5.577 -5.247,4.43 -9.49,9.679 -12.861,15.648 -0.667,1.181 -1.251,2.419 -2.01,3.538 -3.443,5.073 -9.136,7.342 -15.117,5.129 -0.635,-0.235 -1.227,-0.645 -1.877,-0.76 -0.631,-0.112 -1.33,-0.03 -1.963,0.121 -0.475,0.113 -0.908,0.445 -1.334,0.719 -6.7,4.325 -13.404,8.643 -20.088,12.994 -2.262,1.472 -2.343,2.48 -0.424,4.366 0.724,0.712 1.516,1.356 2.291,2.015 2.087,1.776 4.495,3.028 6.925,4.248 0.941,0.472 1.261,1.142 1.005,2.046 -0.554,1.955 -1.11,3.911 -1.707,5.854 -0.413,1.343 -1.242,2.398 -2.431,3.161 -0.997,0.64 -2.028,1.236 -2.98,1.939 -1.616,1.193 -2.334,2.803 -2.239,4.849 0.102,2.21 1.001,3.887 2.834,5.115 1.557,1.043 3.181,1.92 4.951,2.572 1.258,0.463 2.475,1.087 3.63,1.774 1.12,0.666 1.575,1.79 1.324,3.062 -0.229,1.159 -0.659,2.277 -0.952,3.426 -0.499,1.956 -0.064,3.684 1.32,5.177 2.303,2.482 5.136,3.825 8.513,4.03 2.551,0.155 5.073,-0.149 7.595,-0.464 0.344,-0.043 1.107,0.537 1.121,0.854 0.031,0.676 0.087,1.353 0.067,2.027 -0.15,5.259 -0.359,10.517 -0.468,15.777 -0.356,17.309 -0.673,34.618 -1.02,51.927 -0.023,1.172 -0.163,2.343 -0.236,3.35 -0.299,0.259 -0.408,0.391 -0.548,0.468 -27.738,15.402 -55.385,30.966 -82.832,46.881 -0.586,0.34 -1.157,0.734 -1.786,0.966 -0.45,0.166 -1.006,0.21 -1.476,0.115 -0.656,-0.132 -1.276,-0.443 -1.909,-0.683 -28.072,-10.635 -56.139,-21.28 -84.215,-31.904 -32.516,-12.304 -64.982,-24.742 -97.66,-36.615 -0.318,-0.116 -0.642,-0.223 -0.945,-0.372 -0.303,-0.148 -0.589,-0.333 -0.868,-0.524 -0.137,-0.094 -0.358,-0.26 -0.339,-0.353 0.058,-0.289 0.137,-0.71 0.342,-0.812 2.728,-1.36 5.509,-2.616 8.218,-4.011 7.933,-4.083 14.998,-9.218 20.439,-16.452 2.182,-2.902 3.929,-5.958 4.828,-9.436 0.506,-1.954 0.71,-4.009 0.828,-6.032 0.091,-1.553 0.806,-2.545 2.057,-3.252 1.329,-0.75 2.681,-1.46 4.04,-2.156 7.85,-4.024 15.728,-7.996 23.555,-12.064 30.107,-15.648 60.205,-31.313 90.292,-46.999 21.512,-11.215 43.001,-22.477 64.503,-33.712 1.502,-0.785 3,-1.593 4.559,-2.25 0.571,-0.241 1.384,-0.271 1.965,-0.061 3.185,1.156 6.393,2.281 9.474,3.678 2.959,1.341 5.944,2.479 9.171,2.915 2.893,0.39 5.603,1.313 8.162,2.711 1.949,1.064 4.035,1.773 6.189,2.288 0.489,0.117 0.995,0.224 1.493,0.225 0.842,0.002 2.179,-0.59 2.493,-1.49 0.279,-0.798 0.64,-1.595 0.744,-2.42 0.641,-5.08 0.683,-10.156 -0.439,-15.184 -0.665,-2.978 -1.42,-5.936 -2.118,-8.906 -0.194,-0.824 -0.392,-1.655 -0.471,-2.494 -0.066,-0.686 0.126,-1.351 0.813,-1.725 1.489,-0.811 2.973,-1.633 4.474,-2.42 13.072,-6.853 26.195,-13.61 39.211,-20.568 26.034,-13.917 52.019,-27.927 78.007,-41.929 14.339,-7.725 28.648,-15.506 42.965,-23.271 12.378,-6.713 24.747,-13.444 37.128,-20.153 1.026,-0.556 1.979,-1.34 3.313,-1.3 1.578,0.476 3.051,1.272 4.52,2.143 2.183,1.295 4.443,2.471 6.728,3.578 6.865,3.326 14.055,5.899 21.053,8.922 4.203,1.816 8.424,3.558 12.491,5.668 1.504,0.78 3.084,1.41 4.62,2.129 2.917,1.365 5.892,2.625 8.721,4.155 2.549,1.378 5.151,2.602 7.87,3.559 2.571,0.905 5.05,1.94 7.334,3.462 1.118,0.745 2.387,1.281 3.626,1.823 1.708,0.748 3.483,1.348 5.177,2.124 7.86,3.602 15.702,7.244 23.554,10.866 0.921,0.425 1.857,0.82 2.788,1.224 2.333,1.011 4.675,2.001 6.998,3.032 2.789,1.237 5.515,2.629 8.352,3.74 6.007,2.353 11.633,5.53 17.586,7.992 0.78,0.323 1.536,0.731 2.248,1.186 2.45,1.561 5.132,2.575 7.829,3.618 5.375,2.079 10.832,4.033 15.854,6.885 6.955,3.949 14.334,6.946 21.641,10.12 1.082,0.47 2.123,1.035 3.171,1.579 0.414,0.215 0.545,1.069 0.211,1.288 -0.987,0.648 -1.944,1.352 -2.972,1.927 -8.885,4.969 -17.784,9.911 -26.674,14.871 -2.519,1.405 -5.053,2.788 -7.518,4.283 -1.793,1.087 -3.617,1.836 -5.76,1.556 -0.501,-0.065 -1.017,-0.011 -1.526,-0.022 -11.418,-0.247 -22.706,0.922 -33.885,3.178 -13.229,2.67 -25.81,7.127 -37.566,13.815 -7.129,4.055 -13.608,8.951 -19.21,14.956 -5.501,5.898 -9.991,12.47 -12.379,20.235 -0.773,2.517 -1.988,4.215 -4.422,5.093 -0.473,0.171 -0.896,0.48 -1.347,0.716 -26.299,13.778 -52.622,27.51 -78.893,41.341 -36.629,19.285 -73.22,38.643 -109.827,57.968 -0.45,0.238 -0.899,0.477 -1.354,0.704 -1.294,0.647 -1.998,0.313 -2.031,-0.988 -0.039,-1.527 -0.048,-3.055 -0.061,-4.582 -0.095,-11.202 -0.167,-22.405 -0.292,-33.607 -0.045,-4.072 -0.222,-8.143 -0.321,-12.215 -0.029,-1.187 -0.012,-2.376 0.015,-3.563 0.017,-0.729 0.798,-1.572 1.607,-1.756 0.495,-0.112 1,-0.189 1.504,-0.252 1.242,-0.155 2.306,0.108 3.226,1.073 1.881,1.974 3.998,3.663 6.381,5.016 4.483,2.544 9.322,4.044 14.372,4.895 6.259,1.056 12.534,0.806 18.75,-0.237 9.121,-1.53 17.684,-4.691 25.656,-9.407 6.186,-3.659 11.672,-8.162 16.327,-13.653 3.663,-4.319 6.534,-9.102 8.192,-14.534 1.044,-3.421 1.599,-6.874 0.868,-10.524 -0.897,-4.475 -2.845,-8.313 -5.906,-11.63 -3.994,-4.328 -8.872,-7.31 -14.332,-9.42 -9.562,-3.696 -19.502,-4.153 -29.575,-3.532 -4.488,0.893 -9.031,1.46 -13.485,2.571 -10.711,2.673 -21.23,5.905 -31.376,10.289 -0.154,0.067 -0.351,0.151 -0.491,0.108 -0.455,-0.141 -1.06,-0.211 -1.308,-0.536 -0.714,-0.938 -1.239,-2.016 -1.918,-2.984 -0.759,-1.082 -1.604,-2.104 -2.392,-3.127 0.234,-0.254 0.326,-0.436 0.468,-0.496 3.602,-1.502 6.116,-4.174 8.075,-7.455 0.522,-0.874 1.041,-1.752 1.62,-2.588 2.553,-3.686 8.657,-6.968 14.422,-4.085 0.304,0.152 0.617,0.288 0.906,0.463 1.145,0.693 2.279,0.577 3.365,-0.091 4.914,-3.021 9.824,-6.05 14.712,-9.113 0.388,-0.243 0.603,-0.76 0.873,-1.115 -0.175,-0.389 -0.256,-0.741 -0.458,-0.997 -4.49,-5.703 -10.004,-10.092 -16.653,-13.055 -7.435,-3.314 -15.065,-3.78 -22.863,-1.617 -1.789,0.496 -3.495,1.294 -5.953,2.26 M -348.036,-625.62 c 0.508,0.016 1.071,-0.108 1.515,0.069 5.039,2.008 10.103,3.962 15.075,6.126 7.931,3.452 16.011,6.522 24.061,9.673 1.104,0.432 2.184,0.93 3.255,1.439 3.829,1.82 7.649,3.65 11.623,5.152 7.618,2.88 15.034,6.238 22.406,9.686 5.078,2.376 10.29,4.391 15.579,6.228 0.96,0.334 1.926,0.652 2.877,1.012 5.709,2.157 11.409,4.341 17.125,6.48 1.902,0.712 3.879,1.232 5.762,1.989 5.349,2.149 10.709,4.282 15.989,6.594 6.524,2.857 12.986,5.858 19.448,8.853 5.538,2.568 11.033,5.229 16.796,7.277 0.639,0.227 1.293,0.445 1.885,0.769 4.94,2.703 10.311,4.322 15.571,6.223 5.907,2.135 11.655,4.619 17.276,7.44 3.94,1.979 7.97,3.772 11.717,6.117 3.164,1.979 6.302,4.001 9.502,5.92 5.829,3.494 11.88,6.551 18.246,8.959 2.869,1.085 5.504,2.63 8.171,4.119 3.405,1.902 6.844,3.742 10.272,5.602 0.894,0.484 1.853,0.866 2.697,1.424 3.408,2.256 7.073,4.015 10.747,5.778 4.281,2.055 8.474,4.292 12.753,6.351 4.278,2.059 8.68,3.829 13.204,5.29 0.955,0.309 1.872,0.738 2.848,1.128 0.092,0.759 0.222,1.422 0.245,2.088 0.107,3.053 0.224,6.107 0.259,9.162 0.036,3.061 0.254,6.095 0.764,9.12 0.423,2.509 0.573,5.047 0.524,7.605 -0.207,10.892 0.835,21.696 2.481,32.445 0.41,2.675 1.123,5.304 1.728,7.947 0.643,2.81 1.405,5.596 1.968,8.421 0.702,3.521 0.62,7.084 0.204,10.639 -0.074,0.629 -0.854,1.198 -1.477,1.078 -0.662,-0.128 -1.355,-0.205 -1.966,-0.465 -1.247,-0.529 -2.436,-1.193 -3.672,-1.753 -2.012,-0.911 -4.047,-1.796 -6.292,-1.918 -3.121,-0.168 -5.942,-1.302 -8.722,-2.593 -0.153,-0.071 -0.284,-0.194 -0.439,-0.256 -4.403,-1.764 -8.68,-3.807 -12.996,-5.766 -2.294,-1.041 -4.812,-1.688 -7.294,-2.188 -2.506,-0.505 -4.938,-1.189 -7.354,-1.988 -1.931,-0.639 -3.86,-1.323 -5.838,-1.771 -4.042,-0.913 -7.628,-2.782 -11.091,-4.954 -0.863,-0.541 -1.701,-1.121 -2.563,-1.663 -2.166,-1.361 -4.433,-2.522 -6.945,-3.083 -2.187,-0.489 -4.158,-1.439 -6.065,-2.566 -1.608,-0.948 -3.283,-1.796 -4.819,-2.849 -4.919,-3.372 -10.237,-6.004 -15.582,-8.594 -3.364,-1.631 -6.808,-3.058 -10.397,-4.116 -3.428,-1.01 -6.717,-2.362 -9.899,-3.984 -4.231,-2.157 -8.46,-4.319 -12.702,-6.454 -1.21,-0.609 -2.425,-1.25 -3.705,-1.672 -3.237,-1.068 -6.296,-2.537 -9.293,-4.114 -9.009,-4.744 -18.256,-8.997 -27.496,-13.252 -4.311,-1.985 -8.647,-3.911 -12.907,-6.007 -3.513,-1.729 -7.147,-3.099 -11.022,-3.811 -2.842,-0.522 -5.558,-1.514 -8.272,-2.49 -4.624,-1.663 -9.321,-3.119 -13.831,-5.097 -1.707,-0.749 -3.436,-1.494 -5.223,-2.005 -5.638,-1.612 -10.548,-4.602 -15.323,-7.868 -1.821,-1.245 -3.616,-2.528 -5.398,-3.828 -3.025,-2.207 -6.229,-4.113 -9.562,-5.809 -1.816,-0.924 -3.686,-1.68 -5.656,-2.258 -2.433,-0.713 -4.812,-1.636 -7.171,-2.576 -4.569,-1.819 -9.075,-3.799 -13.67,-5.548 -3.663,-1.394 -7.169,-3.052 -10.523,-5.076 -2.903,-1.753 -5.826,-3.485 -8.832,-5.05 -2.099,-1.092 -4.352,-1.889 -6.54,-2.811 -0.776,-0.327 -1.612,-0.551 -2.322,-0.983 -0.367,-0.224 -0.705,-0.792 -0.726,-1.221 -0.033,-0.658 0.167,-1.345 0.358,-1.993 1.299,-4.405 0.114,-8.359 -2.154,-12.125 -0.63,-1.046 -1.492,-1.851 -2.601,-2.355 -1.269,-0.578 -2.547,-0.788 -3.947,-0.321 -1.484,0.496 -2.806,1.195 -3.896,2.311 -0.592,0.606 -1.226,1.191 -1.719,1.874 -1.412,1.957 -3.26,3.427 -5.133,4.901 -2.864,2.255 -6.084,3.665 -9.64,4.361 -1.997,0.391 -4.004,0.739 -5.989,1.182 -1.322,0.295 -2.662,0.606 -3.909,1.116 -2.601,1.063 -4.694,2.639 -5.43,5.609 -0.364,1.47 -1.2,2.819 -1.609,4.282 -1.33,4.757 -8.314,10.454 -13.239,10.719 -1.519,0.081 -3.021,0.442 -4.538,0.611 -5.289,0.591 -9.204,3.288 -11.787,7.86 -1.169,2.07 -2.264,4.172 -3.681,6.09 -1.428,1.931 -3.095,3.584 -5.156,4.851 -2.346,1.442 -4.796,2.537 -7.591,2.69 -3.264,0.179 -6.32,1.186 -9.345,2.329 -3.103,1.172 -5.697,2.974 -7.493,5.83 -1.897,3.015 -3.901,5.966 -5.721,9.025 -1.841,3.094 -4.027,5.83 -6.787,8.176 -2.108,1.792 -4.406,3.106 -6.949,4.133 -2.668,1.078 -5.273,2.316 -7.887,3.526 -3.577,1.656 -5.889,4.436 -7.306,8.092 -2.21,5.7 -5.027,11.115 -7.934,16.487 -1.069,1.974 -2.279,3.782 -4.166,5.043 -2.202,1.471 -3.54,3.601 -4.666,5.916 -1.945,4 -3.145,8.229 -3.905,12.593 -0.262,1.503 -0.454,3.019 -0.664,4.531 -0.07,0.503 -0.212,1.032 -0.127,1.515 0.776,4.375 0.159,8.804 0.551,13.2 0.228,2.559 0.774,5.007 1.454,7.469 1.181,4.278 3.153,8.212 5.009,12.203 0.642,1.382 1.303,2.76 1.854,4.18 4.58,11.787 11.838,21.697 21.181,30.121 7.611,6.862 16.075,12.473 25.3,16.938 3.056,1.479 6.113,2.935 9.434,3.765 0.798,0.199 1.57,0.64 2.248,1.121 0.355,0.252 0.587,0.807 0.681,1.265 0.098,0.479 -0.02,1.007 -0.076,1.51 -0.093,0.843 -0.318,1.685 -0.3,2.524 0.04,1.859 0.341,3.721 0.263,5.571 -0.07,1.679 -0.612,3.334 -0.752,5.016 -0.548,6.616 1.742,12.339 5.766,17.444 2.536,3.217 5.549,5.952 8.861,8.363 4.273,3.112 8.871,5.658 13.707,7.759 9.537,4.144 19.494,6.854 29.731,8.621 11.071,1.91 22.229,2.725 33.445,2.651 6.956,-0.047 13.892,-0.591 20.817,-1.346 11.344,-1.236 22.408,-3.684 33.228,-7.211 1.575,0.167 2.958,0.823 4.373,1.372 23.876,9.264 47.724,18.599 71.632,27.779 31.192,11.977 62.426,23.841 93.649,35.737 32.966,12.559 65.941,25.097 98.911,37.647 3.008,1.145 6.01,2.307 9.113,3.499 0.131,0.894 0.365,1.718 0.352,2.537 -0.056,3.564 -0.221,7.125 -0.281,10.689 -0.189,11.371 -0.343,22.743 -0.521,34.115 -0.408,26.137 -0.817,52.274 -1.24,78.41 -0.075,4.582 -0.225,9.162 -0.331,13.743 -0.02,0.848 -0.024,1.698 0.019,2.545 0.093,1.791 0.892,3.234 2.229,4.411 1.426,1.256 3.081,2.13 4.853,2.723 1.764,0.59 3.599,0.963 5.393,1.468 0.647,0.183 1.291,0.423 1.883,0.736 0.257,0.137 0.543,0.53 0.538,0.801 -0.028,1.519 -0.142,3.037 -0.216,4.369 -0.913,1.369 -2.251,1.833 -3.326,2.623 -2.921,2.149 -5.259,4.748 -6.918,8.005 -2.485,4.88 -4.067,9.997 -5.003,15.404 -1.364,7.883 -0.509,15.556 1.578,23.148 1.303,4.738 2.72,9.455 4.339,14.093 2.358,6.759 3.957,13.674 4.969,20.747 0.827,5.786 0.442,11.519 -0.711,17.208 -0.3,1.48 -0.955,2.893 -1.486,4.322 -0.422,1.137 -0.583,2.306 -0.47,3.5 0.047,0.493 0.218,0.99 0.413,1.451 0.551,1.301 2.052,2.019 3.353,1.592 0.637,-0.209 1.276,-0.462 1.852,-0.8 C -2.662,99.552 3.064,93.267 7.507,85.606 13.565,75.161 16.624,63.782 18.728,52.048 19.78,46.182 20.266,40.253 20.184,34.318 20.077,26.499 19,18.795 16.898,11.215 15.842,7.407 14.259,3.882 12.397,0.473 10.419,-3.146 7.606,-6.073 4.032,-8.216 2.863,-8.917 2.486,-9.967 2.846,-11.257 c 0.081,-0.29 0.321,-0.656 0.576,-0.751 0.62,-0.233 1.286,-0.388 1.946,-0.469 3.042,-0.371 6.02,-1.022 8.898,-2.072 1.925,-0.703 3.73,-1.641 5.196,-3.12 0.863,-0.87 1.446,-1.882 1.476,-3.144 0.078,-3.222 0.22,-6.445 0.213,-9.668 -0.08,-37.344 -0.184,-74.687 -0.276,-112.031 -0.005,-1.696 0.03,-3.393 0.067,-5.089 0.016,-0.734 0.698,-1.153 1.418,-0.906 0.32,0.109 0.642,0.214 0.955,0.341 10.759,4.348 21.956,6.955 33.423,8.585 15.332,2.179 30.736,3.115 46.198,2.485 7.791,-0.318 15.591,-0.598 23.375,-1.345 7.434,-0.714 14.862,-1.468 22.249,-2.51 20.007,-2.824 39.752,-6.946 59.205,-12.433 14.705,-4.148 29.165,-9.015 43.28,-14.878 2.815,-1.169 5.55,-2.536 8.308,-3.842 28.53,-13.507 56.42,-28.284 84.567,-42.552 14.982,-7.595 29.945,-15.226 44.908,-22.859 26.902,-13.724 53.812,-27.433 80.684,-41.216 6.046,-3.101 11.666,-6.919 17.068,-11.042 9.493,-7.247 18.01,-15.489 25.272,-24.989 5.6,-7.326 10.171,-15.238 13.186,-23.982 0.827,-2.398 1.402,-4.883 2.059,-7.337 0.351,-1.308 0.63,-2.634 0.969,-4.066 0.655,-0.489 1.328,-0.986 1.996,-1.491 4.908,-3.707 7.347,-8.798 8.043,-14.763 0.519,-4.44 0.124,-8.814 -1.756,-12.959 -0.28,-0.618 -0.607,-1.238 -0.744,-1.893 -0.472,-2.27 -1.806,-3.964 -3.404,-5.549 -1.81,-1.797 -3.45,-3.75 -4.622,-6.043 -1.026,-2.005 -2.475,-3.634 -4.269,-4.98 -0.542,-0.407 -1.051,-0.861 -1.552,-1.318 -1.924,-1.759 -4.173,-2.853 -6.702,-3.471 -2.303,-0.562 -4.574,-1.217 -6.698,-2.354 -3.044,-1.631 -5.715,-3.64 -7.627,-6.57 -0.835,-1.279 -1.724,-2.521 -2.601,-3.772 -1.474,-2.102 -3.241,-3.924 -5.326,-5.425 -1.723,-1.24 -3.605,-1.846 -5.751,-1.328 -1.318,0.318 -2.643,0.618 -3.975,0.874 -7.029,1.354 -10.432,0.56 -16.176,-3.73 -1.639,-1.224 -3.16,-2.566 -4.4,-4.209 -0.921,-1.219 -1.948,-2.365 -2.782,-3.64 -2.618,-4.002 -6.442,-6.457 -10.672,-8.348 -2.317,-1.035 -4.71,-1.905 -7.275,-2.234 -1.337,-0.172 -2.654,-0.569 -3.951,-0.962 -1.789,-0.541 -3.568,-1.042 -5.45,-1.198 -1.171,-0.098 -2.374,-0.34 -3.468,-0.763 -4.899,-1.895 -9.962,-3.377 -14.66,-5.78 -1.661,-0.849 -3.366,-1.623 -4.972,-2.568 -3.254,-1.915 -6.123,-4.309 -8.134,-7.546 -1.388,-2.235 -3.24,-3.945 -5.467,-5.215 -4.873,-2.778 -9.928,-5.173 -15.346,-6.719 -0.814,-0.232 -1.642,-0.593 -2.463,-0.59 -3.589,0.011 -7.068,-0.859 -10.611,-1.207 -7.084,-0.696 -13.459,-3.304 -19.212,-7.455 -1.795,-1.296 -3.376,-2.84 -4.769,-4.567 -1.076,-1.333 -2.316,-2.506 -3.773,-3.387 -2.757,-1.666 -5.527,-3.32 -8.37,-4.831 -2.882,-1.531 -5.966,-2.206 -9.289,-2.255 -6.003,-0.09 -11.731,-1.668 -17.205,-4.088 -1.867,-0.825 -3.467,-2.123 -4.915,-3.578 -2.156,-2.165 -4.27,-4.375 -6.485,-6.478 -1.471,-1.397 -2.998,-2.772 -4.661,-3.925 -3.066,-2.124 -6.213,-4.139 -9.403,-6.073 -1.439,-0.872 -3.028,-1.527 -4.607,-2.13 -3.643,-1.391 -7.3,-2.753 -10.991,-4.008 -3.536,-1.202 -7.126,-2.229 -10.917,-2.246 -2.403,-0.011 -4.7,-0.681 -6.995,-1.268 -2.957,-0.756 -5.874,-1.667 -8.807,-2.512 -0.489,-0.141 -1.011,-0.218 -1.46,-0.441 -5.159,-2.561 -10.481,-4.818 -15.048,-8.454 -2.787,-2.22 -5.666,-4.314 -8.076,-6.977 -1.607,-1.776 -3.562,-3.179 -5.671,-4.273 -3.913,-2.029 -7.898,-3.919 -11.865,-5.842 -2.767,-1.341 -5.718,-2.07 -8.715,-2.729 -6.125,-1.346 -12.201,-2.889 -18.142,-4.945 -4.672,-1.617 -9.086,-3.76 -13.375,-6.184 -2.528,-1.428 -4.672,-3.368 -6.842,-5.267 -2.044,-1.788 -4.088,-3.575 -6.131,-5.364 -3.207,-2.807 -6.788,-5.084 -10.404,-7.306 -1.887,-1.159 -3.905,-2.053 -6.087,-2.517 -3.15,-0.671 -6.286,-1.426 -9.459,-1.961 -4.731,-0.797 -9.204,-2.334 -13.439,-4.524 -3.922,-2.028 -7.619,-4.455 -11.162,-7.09 -1.49,-1.108 -2.902,-2.355 -4.194,-3.689 -3.836,-3.958 -8.312,-6.912 -13.328,-9.178 -4.84,-2.186 -9.778,-3.809 -15.117,-4.163 -3.551,-0.235 -7.091,-0.663 -10.63,-1.051 -7.041,-0.773 -13.603,-2.789 -19.175,-7.399 -2.875,-2.38 -5.932,-4.555 -8.67,-7.079 -3.227,-2.977 -7.031,-4.67 -11.156,-5.786 -2.297,-0.621 -4.662,-0.9 -7.053,-0.884 -2.377,0.016 -4.753,0.021 -7.13,0.016 -5.373,-0.012 -10.402,-1.352 -15.073,-3.996 -1.622,-0.919 -3.187,-1.939 -4.772,-2.923 -2.451,-1.52 -4.851,-3.128 -7.356,-4.554 -2.945,-1.676 -6.038,-2.108 -9.261,-0.665 -1.39,0.622 -2.846,1.098 -4.274,1.633 -0.316,0.119 -0.65,0.191 -0.965,0.313 -2.525,0.973 -7.615,6.597 -8.26,9.951 -0.298,1.549 -0.188,3.029 0.356,4.499 0.803,2.171 1.633,3.435 4.373,6.485 0,0.804 0.03,1.809 -0.008,2.812 -0.051,1.357 -0.088,2.719 -0.251,4.064 -0.33,2.719 0.449,5.465 0.045,8.106 -0.411,2.685 -0.912,5.33 -0.826,8.056 0.012,0.38 -0.696,0.994 -1.02,0.89 -0.964,-0.312 -1.948,-0.58 -2.876,-0.978 -6.858,-2.946 -13.703,-5.922 -20.554,-8.883 -24.133,-10.433 -48.263,-20.873 -72.403,-31.291 -18.222,-7.863 -36.448,-15.716 -54.69,-23.532 -7.484,-3.207 -15.013,-6.305 -22.522,-9.451 -1.095,-0.459 -2.179,-0.951 -3.297,-1.348 -2.299,-0.816 -46.286,-20.912 -47.213,-21.312 -8.406,-3.637 -16.797,-7.312 -25.227,-10.894 -12.176,-5.174 -24.379,-10.286 -36.577,-15.409 -1.406,-0.591 -2.887,-1.011 -4.268,-1.65 -1.738,-0.803 -3.346,-0.465 -4.852,0.431 -1.894,1.127 -3.736,2.348 -5.539,3.617 -8.468,5.956 -16.949,11.893 -25.361,17.927 -25.788,18.498 -51.581,36.991 -77.305,55.578 -17.408,12.579 -29.872,28.954 -37.109,49.232 -2.991,8.379 -4.489,17.028 -4.796,25.913 -0.205,5.935 -0.584,11.864 -0.891,17.795 -0.519,9.999 -1.046,19.998 -1.555,29.998 -0.034,0.672 0.046,1.351 0.107,2.023 0.009,0.1 0.193,0.225 0.319,0.262 0.138,0.04 0.388,0.051 0.441,-0.026 1.37,-2.006 3.176,-3.5 5.299,-4.653 1.078,-0.585 1.789,-1.53 2.323,-2.627 1.038,-2.135 2.122,-4.247 3.147,-6.388 0.823,-1.72 1.952,-3.136 3.517,-4.265 3.438,-2.478 6.727,-5.155 10.792,-6.647 2.251,-0.826 4.065,-2.446 5.881,-3.974 4.032,-3.392 7.855,-6.987 11.018,-11.247 2.982,-4.015 6.815,-7.049 11.203,-9.441 2.553,-1.392 5.188,-2.534 8.023,-3.127 2.594,-0.543 4.737,-1.694 6.46,-3.748 2.236,-2.665 5.161,-4.351 8.396,-5.557 1.746,-0.65 3.466,-1.376 5.175,-2.12 2.38,-1.036 4.396,-2.572 5.918,-4.687 3.636,-5.051 8.269,-8.952 13.679,-11.969 1.797,-1.002 3.363,-2.282 4.746,-3.803 0.912,-1.004 1.855,-1.982 2.811,-2.944 2.296,-2.308 4.905,-4.151 7.884,-5.505 2.932,-1.334 5.759,-2.905 8.717,-4.174 3.716,-1.594 6.587,-4.119 8.9,-7.362 0.296,-0.414 0.61,-0.821 0.854,-1.265 1.819,-3.312 4.82,-5.147 8.146,-6.602 1.804,-0.79 3.599,-0.9 5.43,-0.134 1.078,0.452 2.159,0.899 3.411,1.419 0.164,-0.787 0.373,-1.42 0.417,-2.065 0.232,-3.386 0.461,-6.774 0.62,-10.164 0.317,-6.781 0.608,-13.564 0.874,-20.347 0.5,-12.719 0.951,-25.441 1.47,-38.159 0.229,-5.595 0.571,-11.184 0.873,-16.776 0.037,-0.693 0.822,-1.149 1.48,-0.884 0.785,0.316 1.574,0.627 2.339,0.987 18.116,8.519 36.478,16.488 54.799,24.55 2.95,1.298 5.883,2.636 8.82,3.963 0.687,0.31 42.152,18.427 42.919,18.781 21.868,10.108 44.044,19.514 66.152,29.073 21.019,9.089 42.032,18.192 63.062,27.256 16.044,6.916 32.118,13.763 48.161,20.682 5.008,2.16 4.605,1.516 4.968,6.963 0.282,4.224 0.63,8.445 1.401,12.632 0.583,3.162 0.821,6.394 1.104,9.605 0.268,3.038 0.352,6.093 0.596,9.135 0.204,2.534 0.533,5.059 0.79,7.589 0.292,2.87 0.279,5.806 0.909,8.597 1.254,5.547 0.7,11.15 0.954,16.724 0.109,2.383 0.187,4.731 0.931,7.03 0.363,1.122 0.622,2.315 0.689,3.489 0.307,5.42 0.531,10.845 0.781,16.268 0.008,0.169 -0.027,0.338 -0.04,0.508 -0.046,0.584 -0.942,1.236 -1.449,1.028 -5.03,-2.061 -9.973,-4.285 -13.964,-8.122 -3.003,-2.887 -6.606,-4.705 -10.475,-6.098 -1.935,-0.696 -3.895,-1.161 -5.967,-1.102 -3.271,0.095 -6.38,-0.711 -9.468,-1.686 -9.096,-2.869 -17.727,-6.794 -26.072,-11.378 -2.85,-1.566 -5.455,-3.485 -7.608,-5.906 -2.096,-2.356 -4.658,-3.879 -7.518,-5.062 -2.191,-0.906 -4.308,-1.987 -6.476,-2.949 -2.038,-0.905 -3.854,-2.135 -5.515,-3.608 -3.94,-3.494 -8.089,-6.711 -12.443,-9.681 -3.251,-2.218 -6.688,-3.984 -10.414,-5.236 -5.628,-1.892 -11.327,-3.496 -17.172,-4.579 -0.982,-0.182 -1.956,-0.589 -2.841,-1.065 -1.491,-0.802 -2.957,-1.671 -4.344,-2.64 -1.817,-1.271 -3.757,-2.298 -5.716,-3.316 -1.978,-1.028 -4,-1.768 -6.242,-2.034 -3.564,-0.423 -6.882,-1.608 -10.099,-3.268 -4.377,-2.259 -8.981,-3.978 -13.889,-4.806 -2.166,-0.365 -4.329,-0.828 -6.468,-1.31 -2.798,-0.629 -5.517,-1.652 -8.223,-2.638 -2.386,-0.87 -4.705,-1.924 -7.056,-2.894 -4.96,-2.045 -8.936,-5.474 -12.756,-9.109 -1.843,-1.755 -3.614,-3.585 -5.422,-5.377 -4.732,-4.688 -10.555,-7.308 -16.929,-8.829 -1.138,-0.272 -2.358,-0.289 -3.538,-0.272 -1.695,0.025 -3.417,0.028 -5.076,0.328 -2.95,0.532 -5.705,0.028 -8.482,-0.934 -3.04,-1.053 -6.151,-1.903 -9.216,-2.887 -2.135,-0.685 -4.333,-0.76 -6.539,-0.841 -2.03,-0.075 -4.049,-0.114 -6.079,-0.447 -2.585,-0.423 -4.874,-1.415 -7.03,-2.801 -1.141,-0.734 -2.173,-1.638 -3.328,-2.345 -1.001,-0.614 -2.057,-1.233 -3.174,-1.547 -3.158,-0.888 -5.971,-2.407 -8.578,-4.342 -1.675,-1.243 -3.552,-1.948 -5.581,-2.321 -0.621,-0.114 -1.458,0.463 -1.402,1.102 0.404,4.584 -1.207,8.658 -3.144,12.656 -0.072,0.15 -0.072,0.336 -0.132,0.87 -0.027,0.366 -0.073,0.322 -0.073,0.322"
       style="fill:#d2451e;fill-opacity:1;fill-rule:nonzero;stroke:none"
       transform="matrix(1.3333333,0,0,-1.3333333,12382.247,289.0836)"
       clip-path="url(#clipPath564)" />
    <path
       id="path565"
       d="m 0,0 c 2.786,1.358 5.131,2.693 7.41,4.188 7.315,4.801 6.476,4.867 16.743,6.797 0.659,0.124 1.338,0.214 2.005,0.196 0.272,-0.007 0.558,-0.319 0.795,-0.538 0.108,-0.1 0.139,-0.307 0.159,-0.472 0.29,-2.355 0.73,-4.705 0.829,-7.069 0.529,-12.715 1.346,-25.416 1.39,-38.153 0.036,-10.521 -3.687,-19.555 -10.14,-27.594 -3.448,-4.294 -7.834,-7.484 -12.825,-9.819 -12.905,-6.037 -25.814,-12.067 -38.724,-18.094 -13.525,-6.314 -27.052,-12.624 -40.579,-18.932 -29.823,-13.906 -59.644,-27.813 -89.469,-41.714 -34.284,-15.978 -68.567,-31.958 -102.858,-47.921 -37.98,-17.682 -75.965,-35.353 -113.957,-53.012 -20.303,-9.436 -40.616,-18.849 -60.938,-28.246 -12.469,-5.766 -24.965,-11.476 -37.444,-17.22 -3.388,-1.56 -6.808,-3.059 -10.13,-4.75 -5.16,-2.627 -10.609,-4.494 -16.046,-6.409 -8.639,-3.045 -17.322,-5.939 -26.291,-7.88 -1.989,-0.431 -3.966,-0.915 -5.959,-1.326 -2.509,-0.519 -5.052,-0.567 -7.601,-0.423 -1.18,0.067 -1.844,0.808 -2.184,1.824 -0.265,0.792 -0.473,1.634 -0.518,2.463 -0.386,7.116 -0.716,14.235 -1.089,21.352 -0.479,9.15 -1.071,18.294 -1.45,27.448 -0.351,8.477 -0.488,16.963 -0.711,25.445 -0.009,0.334 -0.016,0.715 0.13,0.995 0.221,0.427 0.541,0.822 0.888,1.16 0.233,0.227 0.57,0.375 0.885,0.486 3.837,1.355 7.641,2.822 11.664,3.562 1.665,0.306 3.332,0.772 5.008,0.82 8.771,0.251 17.077,2.5 25.135,5.768 2.822,1.144 5.561,2.526 8.241,3.979 4.809,2.608 9.868,4.391 15.232,5.505 5.135,1.065 10.202,2.468 15.287,3.77 3.982,1.019 7.579,2.924 11.086,5.005 1.167,0.692 2.297,1.448 3.425,2.202 5.371,3.589 11.133,6.493 16.834,9.489 4.503,2.366 9.337,4.017 14.033,5.963 1.722,0.713 3.43,1.458 5.129,2.223 1.855,0.836 3.639,1.864 5.548,2.544 5.783,2.059 11.102,5.058 16.496,7.912 1.048,0.555 2.105,1.116 3.069,1.8 4.173,2.959 8.752,5.177 13.325,7.41 3.505,1.711 7.004,3.421 10.428,5.304 3.408,1.874 6.969,3.498 10.556,5.01 2.332,0.982 4.787,1.796 7.266,2.274 3.035,0.584 5.864,1.656 8.694,2.795 2.044,0.823 4.034,1.827 6.136,2.452 4.239,1.26 8.313,2.895 12.374,4.63 4.39,1.876 8.54,4.149 12.501,6.778 4.392,2.915 9.027,5.392 13.751,7.698 1.82,0.888 3.747,1.631 5.702,2.155 12.205,3.278 23.581,8.503 34.618,14.549 3.128,1.713 6.17,3.546 9.055,5.659 3.019,2.212 6.374,3.881 9.774,5.423 1.218,0.553 2.554,0.922 3.875,1.159 2.858,0.514 5.593,1.381 8.247,2.533 3.273,1.419 6.638,2.554 10.065,3.552 5.707,1.662 11.297,3.635 16.467,6.664 1.75,1.025 3.627,1.848 5.49,2.664 4.832,2.115 9.484,4.56 13.769,7.643 5.293,3.808 11.231,6.265 17.294,8.491 1.431,0.526 2.879,1.033 4.249,1.695 3.209,1.551 6.495,2.912 9.805,4.227 3.149,1.251 6.255,2.615 9.405,3.864 2.22,0.879 4.34,1.905 6.277,3.319 1.369,0.999 2.81,1.903 4.238,2.819 3.304,2.121 6.804,3.724 10.665,4.648 3.288,0.786 6.486,1.963 9.707,3.018 7.088,2.321 14.143,4.732 21.023,7.631 5.488,2.313 10.732,5.055 15.608,8.495 3.741,2.64 7.562,5.169 11.294,7.823 5.705,4.057 11.903,7.174 18.369,9.783 2.671,1.078 5.419,1.963 8.089,3.04 3.459,1.394 6.879,2.884 10.309,4.349 2.815,1.202 5.72,2.133 8.684,2.882 0.82,0.207 1.652,0.473 2.485,0.496 3.83,0.107 7.307,1.355 10.639,3.126 0.3,0.16 0.613,0.293 1.259,0.618"
       style="fill:#d2451e;fill-opacity:1;fill-rule:nonzero;stroke:none"
       transform="matrix(1.3333333,0,0,-1.3333333,13056.849,982.55253)"
       clip-path="url(#clipPath566)" />
    <path
       id="path567"
       d="m 0,0 c -5.63,-2.079 -10.535,-4.798 -15.54,-7.297 -5.767,-2.881 -11.466,-5.897 -17.241,-8.76 -1.953,-0.967 -3.973,-1.792 -6.028,-2.519 -4.845,-1.715 -9.374,-4.102 -13.844,-6.559 -6.553,-3.601 -13.411,-6.444 -20.365,-9.117 -2.198,-0.845 -4.35,-1.806 -6.456,-2.861 -3.967,-1.99 -7.867,-4.113 -11.821,-6.129 -1.354,-0.69 -2.741,-1.389 -4.193,-1.797 -4.192,-1.175 -8.158,-2.906 -12.018,-4.855 -5.53,-2.791 -11.272,-5.125 -17.062,-7.325 -3.015,-1.145 -5.937,-2.466 -8.683,-4.179 -2.015,-1.257 -4.088,-2.419 -6.146,-3.605 -4.356,-2.51 -8.862,-4.684 -13.705,-6.284 -3.675,-1.215 -7.164,-2.914 -10.546,-4.797 -6.791,-3.782 -14.035,-6.446 -21.317,-9.025 -2.877,-1.02 -5.779,-1.977 -8.621,-3.087 -2.523,-0.986 -4.986,-2.129 -7.464,-3.228 -8.382,-3.721 -16.527,-7.974 -25.134,-11.192 -1.102,-0.413 -2.849,-1.206 -3.887,-1.76 -5.662,-3.021 -11.61,-5.458 -17.29,-8.45 -4.034,-2.125 -10.752,-5.372 -14.88,-7.309 -11.678,-5.48 -23.352,-10.97 -35.057,-16.394 -6.068,-2.812 -12.211,-5.461 -18.318,-8.19 -0.977,-0.437 -2.532,-1.238 -3.476,-1.742 -3.43,-1.829 -7.023,-3.315 -10.55,-4.941 -2.771,-1.277 -5.53,-2.591 -8.223,-4.023 -5.841,-3.105 -11.577,-6.41 -17.464,-9.423 -7.692,-3.937 -15.456,-7.724 -23.478,-10.987 -4.736,-1.927 -9.622,-3.26 -14.516,-4.616 -3.43,-0.95 -6.886,-1.781 -10.272,-2.914 -3.538,-1.184 -7.188,-1.934 -10.943,-2.227 -3.378,-0.264 -6.735,-0.819 -10.096,-1.285 -2.849,-0.395 -5.69,-0.846 -8.698,-1.297 -0.179,0.729 -0.444,1.361 -0.475,2.004 -0.388,7.966 -0.761,15.933 -1.099,23.901 -0.481,11.36 -0.936,22.72 -1.386,34.081 -0.08,2.034 -0.086,4.071 -0.106,6.107 -0.007,0.687 0.793,1.107 1.466,0.784 0.611,-0.293 1.196,-0.642 1.814,-0.917 5.367,-2.387 10.572,-1.991 15.562,1.04 2.899,1.761 5.759,3.591 8.585,5.468 3.882,2.577 8.06,4.332 12.721,4.812 0.816,0.084 1.637,0.132 2.458,0.166 3.134,0.128 6.27,0.277 9.407,0.252 4.283,-0.036 8.266,1.056 12.103,2.844 3.102,1.444 5.87,3.254 8.408,5.608 2.976,2.759 6.289,5.168 9.553,7.599 3.777,2.813 8.209,4.004 12.79,4.601 5.38,0.702 10.775,1.306 16.174,1.84 2.566,0.253 5.025,0.854 7.373,1.839 3.281,1.377 6.537,2.827 9.738,4.382 3.855,1.872 7.171,4.532 10.145,7.589 4.688,4.818 10.367,8.21 16.284,11.181 2.853,1.432 5.961,2.388 9.166,2.965 4.002,0.721 8.012,1.424 11.93,2.579 1.806,0.533 3.543,1.18 5.168,2.1 3.545,2.008 7.04,4.11 10.193,6.706 2.841,2.338 5.653,4.718 8.383,7.183 2.936,2.651 6.188,4.941 9.716,6.73 4.864,2.468 9.948,4.35 15.194,5.776 4.253,1.156 8.543,2.198 12.853,3.119 2.173,0.464 4.251,1.128 6.303,1.939 4.745,1.873 9.242,4.265 13.736,6.65 2.857,1.516 5.413,3.478 7.693,5.802 4.186,4.267 8.997,7.638 14.231,10.565 5.618,3.141 11.713,4.69 17.795,6.379 1.041,0.289 2.115,0.423 3.195,0.463 4.858,0.178 9.507,1.311 14.046,2.968 3.664,1.337 7.338,2.649 10.986,4.026 1.424,0.538 2.882,1.076 4.166,1.87 4.039,2.497 8.03,5.073 11.977,7.712 1.634,1.093 3.01,2.605 4.444,3.923 1.778,1.633 3.419,3.402 5.054,5.179 2.902,3.153 6.639,4.723 10.669,5.672 2.987,0.704 5.989,1.423 9.125,1.329 2.317,-0.07 4.642,0.227 6.821,1.016 4.941,1.79 9.396,4.44 13.739,7.285 1.747,1.144 3.266,2.588 4.63,4.169 4.919,5.702 11.332,8.658 18.619,9.815 3.392,0.539 6.83,0.785 10.247,1.172 2.746,0.311 5.452,0.943 8.055,1.874 4.55,1.628 8.941,3.622 13.139,6.012 3.272,1.863 6.178,4.108 8.201,7.431 1.609,2.645 3.963,4.646 6.72,6.082 4.542,2.366 9.139,4.617 14.101,6.012 0.922,0.26 1.827,0.582 2.694,0.991 0.965,0.456 1.955,0.735 2.992,0.908 1.483,0.248 2.97,0.48 4.432,0.831 2.642,0.634 5.257,1.38 7.905,1.986 4.52,1.035 8.802,2.947 12.616,5.585 2.639,1.824 5.041,3.849 6.789,6.605 0.634,1 1.448,1.884 2.137,2.851 1.919,2.693 4.554,4.539 7.336,6.196 1.347,0.802 2.88,1.066 4.417,0.884 2.184,-0.258 4.353,-0.653 6.525,-1.009 0.668,-0.11 1.32,-0.317 1.989,-0.426 2.777,-0.451 5.403,-0.017 7.857,1.387 3.146,1.8 5.707,4.247 7.852,7.14 1.111,1.499 2.18,3.031 3.218,4.582 2.091,3.125 5.155,4.83 8.609,5.975 0.48,0.16 0.997,0.202 1.491,0.326 4.013,1.008 7.689,2.655 10.684,5.609 0.359,0.354 0.778,0.664 1.216,0.913 0.268,0.153 0.656,0.26 0.934,0.183 0.242,-0.068 0.558,-0.409 0.579,-0.652 0.19,-2.196 0.404,-4.396 0.459,-6.598 0.518,-20.698 1.01,-41.398 1.493,-62.097 0.039,-1.69 -0.041,-3.382 -0.063,-4.892 -1.076,-1.487 -2.526,-2.073 -3.892,-2.689 -3.413,-1.541 -6.602,-3.431 -9.751,-5.457 -3.703,-2.383 -7.63,-4.395 -11.77,-5.985 -4.898,-1.881 -9.716,-3.97 -14.579,-5.944 C 101.721,46.337 100.174,45.81 99.224,45.5 95.199,44.188 91.369,42.418 87.606,40.481 86.55,39.937 85.475,39.432 84.396,38.934 79.473,36.663 74.491,34.542 69.708,31.946 65.246,29.525 60.515,27.596 55.879,25.502 48.616,22.222 41.324,19.006 34.064,15.721 31.438,14.533 28.887,13.182 26.267,11.98 17.636,8.022 8.99,4.099 0,0"
       style="fill:#d2451e;fill-opacity:1;fill-rule:nonzero;stroke:none"
       transform="matrix(1.3333333,0,0,-1.3333333,12900.012,1012.9188)"
       clip-path="url(#clipPath568)" />
    <path
       id="path569"
       d="m 0,0 c -0.295,0.062 -0.746,-0.022 -0.909,0.157 -4.616,5.054 -10.366,8.716 -15.728,12.853 -2.684,2.071 -5.383,4.122 -8.078,6.178 -1.213,0.926 -2.417,1.864 -3.652,2.759 -8.922,6.471 -17.838,12.95 -26.784,19.388 -2.613,1.88 -5.344,3.596 -7.969,5.461 -3.872,2.75 -7.669,5.605 -11.548,8.344 -8.18,5.775 -16.082,11.909 -23.805,18.277 -0.785,0.647 -1.587,1.275 -2.412,1.871 -4.265,3.083 -8.36,6.371 -12.234,9.938 -1.369,1.261 -2.817,2.454 -4.331,3.533 -4.998,3.562 -9.43,7.744 -13.641,12.182 -1.633,1.721 -3.336,3.374 -5.003,5.064 -0.714,0.724 -1.453,1.43 -2.117,2.198 -4.335,5.011 -8.149,10.4 -11.592,16.056 -0.353,0.579 -0.649,1.198 -1.049,1.742 -3.519,4.787 -2.707,5.389 -2.854,8.952 -0.462,11.186 -0.853,22.375 -1.319,33.56 -0.17,4.065 -0.477,8.124 -0.722,12.21 0.435,-0.04 0.836,0.044 0.978,-0.11 1.407,-1.519 2.135,-3.436 2.99,-5.275 1.713,-3.687 3.505,-7.333 5.074,-11.091 1.331,-3.188 3.546,-5.733 6.56,-7.562 3.199,-1.941 6.493,-3.73 10.023,-4.918 4.937,-1.66 8.427,-4.908 11.137,-9.176 1.182,-1.861 2.313,-3.753 3.479,-5.624 0.718,-1.151 1.478,-2.275 2.184,-3.433 2.953,-4.84 7.148,-8.068 12.529,-9.829 2.257,-0.739 4.461,-1.596 6.876,-1.742 1.175,-0.071 2.33,-0.44 3.504,-0.609 2.841,-0.407 5.027,-1.93 6.892,-3.995 1.606,-1.779 2.74,-3.862 3.827,-5.982 1.658,-3.232 4.029,-5.84 7.031,-7.891 2.867,-1.959 6.072,-2.974 9.461,-3.487 1.004,-0.152 2.027,-0.176 3.04,-0.282 4.841,-0.506 8.118,-3.15 10.057,-7.511 0.617,-1.387 1.007,-2.875 1.498,-4.318 1.146,-3.368 3.332,-5.803 6.427,-7.562 2.713,-1.54 5.687,-2.153 8.648,-2.86 1.483,-0.354 2.978,-0.692 4.487,-0.89 4.289,-0.561 7.45,-3.069 10.413,-5.923 0.607,-0.584 1.047,-1.337 1.624,-1.956 0.808,-0.868 1.606,-1.763 2.523,-2.507 2.422,-1.963 5.112,-3.312 8.334,-3.322 0.83,-0.003 1.692,0.176 2.668,-0.357 0.133,-0.288 0.474,-0.712 0.514,-1.163 C -2.66,57.801 -2.381,54.25 -2.147,50.696 -1.89,46.804 -1.612,42.911 -1.48,39.014 -1.049,26.299 0.038,13.612 0.016,0.408 -0.069,-0.066 -0.022,-0.023 0,0"
       style="fill:#d2451e;fill-opacity:1;fill-rule:nonzero;stroke:none"
       transform="matrix(1.3333333,0,0,-1.3333333,11918.291,1123.1549)"
       clip-path="url(#clipPath570)" />
    <path
       id="path571"
       d="m 0,0 c -20.52,4.124 -40.531,8.556 -60.53,13.05 -1.321,0.297 -2.64,0.612 -3.948,0.967 -0.482,0.131 -0.941,0.374 -1.384,0.614 -0.981,0.531 -1.605,2.043 -1.293,3.057 0.362,1.176 1.482,2.181 2.559,2.14 1.006,-0.039 2.023,-0.154 3.007,-0.368 4.137,-0.904 8.277,-1.801 12.392,-2.803 17.77,-4.332 35.533,-8.692 53.293,-13.063 2.466,-0.607 4.91,-1.308 7.345,-2.029 0.801,-0.237 1.551,-0.659 2.308,-1.03 0.59,-0.29 1.067,-1.241 0.838,-1.659 -0.35,-0.642 -0.952,-0.993 -1.651,-1.009 -0.84,-0.019 -1.696,0.032 -2.522,0.178 C 7.078,-1.366 3.75,-0.729 0,0"
       style="fill:#d2451e;fill-opacity:1;fill-rule:nonzero;stroke:none"
       transform="matrix(1.3333333,0,0,-1.3333333,12308.448,178.76253)"
       clip-path="url(#clipPath572)" />
    <path
       id="path573"
       d="m 0,0 c -14.355,0.256 -28.245,0.48 -42.134,0.77 -4.402,0.092 -8.802,0.344 -13.202,0.558 -2.536,0.123 -5.063,0.369 -7.497,1.152 -0.247,0.079 -0.42,0.465 -0.573,0.739 -0.193,0.347 -0.066,0.659 0.329,0.817 0.623,0.248 1.243,0.57 1.892,0.668 1.337,0.2 2.691,0.334 4.042,0.388 4.4,0.178 8.803,0.408 13.206,0.438 16.433,0.114 32.866,0.162 49.3,0.21 C 6.538,5.744 7.724,5.617 8.886,5.43 9.978,5.255 10.923,3.989 10.972,2.846 11.029,1.501 9.934,0.161 8.582,-0.004 7.745,-0.106 6.896,-0.17 6.053,-0.161 4.19,-0.139 2.328,-0.061 0,0"
       style="fill:#d2451e;fill-opacity:1;fill-rule:nonzero;stroke:none"
       transform="matrix(1.3333333,0,0,-1.3333333,12508.466,246.00987)"
       clip-path="url(#clipPath574)" />
    <path
       id="path575"
       d="m 0,0 c -5.206,-3.219 -10.088,-6.261 -15.008,-9.242 -0.847,-0.513 -1.835,-0.826 -2.794,-1.112 -0.46,-0.137 -1.002,-0.004 -1.353,0.464 -0.383,0.511 -0.415,1.467 0.022,1.88 0.855,0.81 1.686,1.665 2.635,2.351 2.881,2.08 5.777,4.143 8.731,6.116 15.76,10.528 31.539,21.027 47.315,31.53 0.702,0.468 1.416,0.931 2.173,1.297 0.441,0.212 0.973,0.275 1.471,0.321 0.996,0.091 1.955,-0.557 2.398,-1.555 0.383,-0.862 0.208,-1.685 -0.322,-2.386 -0.399,-0.53 -0.911,-1.005 -1.455,-1.388 C 42.569,27.398 41.282,26.582 40.002,25.757 26.772,17.235 13.541,8.716 0,0"
       style="fill:#d2451e;fill-opacity:1;fill-rule:nonzero;stroke:none"
       transform="matrix(1.3333333,0,0,-1.3333333,12276.588,352.8296)"
       clip-path="url(#clipPath576)" />
    <path
       id="path577"
       d="m 0,0 c -0.879,6.656 -1.694,12.863 -2.475,19.074 -0.083,0.659 -0.019,1.349 0.068,2.013 0.159,1.21 1.686,2.419 2.92,2.374 1.115,-0.041 2.44,-0.993 2.625,-2.052 0.408,-2.331 0.785,-4.67 1.072,-7.018 0.883,-7.221 1.738,-14.446 2.565,-21.673 1.154,-10.087 2.31,-20.174 2.979,-30.308 0.1,-1.514 0.055,-3.041 -0.004,-4.559 -0.019,-0.48 -0.241,-0.986 -0.488,-1.411 -0.14,-0.241 -0.509,-0.444 -0.796,-0.476 -0.29,-0.032 -0.746,0.073 -0.885,0.281 -0.462,0.688 -0.988,1.409 -1.175,2.192 -0.625,2.631 -1.243,5.275 -1.633,7.948 C 3.161,-22.566 1.633,-11.505 0,0"
       style="fill:#d2451e;fill-opacity:1;fill-rule:nonzero;stroke:none"
       transform="matrix(1.3333333,0,0,-1.3333333,12348.397,75.4656)"
       clip-path="url(#clipPath578)" />
    <path
       id="path579"
       d="m 0,0 c 11.131,3.263 21.872,6.397 32.619,9.508 1.461,0.423 2.945,0.783 4.436,1.083 C 38.167,10.815 39.408,9.8 39.623,8.614 39.79,7.688 39.167,6.417 38.302,6.091 37.194,5.673 36.073,5.274 34.93,4.967 11.845,-1.231 -11.214,-7.529 -34.442,-13.18 c -2.601,-0.633 -5.166,-1.74 -7.956,-1.356 -0.139,0.019 -0.383,0.158 -0.375,0.214 0.044,0.311 0.075,0.672 0.253,0.905 0.193,0.251 0.522,0.436 0.829,0.553 1.107,0.425 2.216,0.855 3.35,1.2 C -25.693,-7.813 -13.04,-3.977 0,0"
       style="fill:#d2451e;fill-opacity:1;fill-rule:nonzero;stroke:none"
       transform="matrix(1.3333333,0,0,-1.3333333,12274.687,258.9276)"
       clip-path="url(#clipPath580)" />
    <path
       id="path581"
       d="m 0,0 c -7.995,3.374 -15.647,6.554 -23.27,9.802 -1.862,0.793 -3.647,1.776 -5.433,2.735 -0.412,0.221 -0.701,0.688 -1.013,1.069 -0.088,0.107 -0.132,0.359 -0.066,0.461 0.166,0.26 0.369,0.615 0.622,0.681 1.198,0.312 2.347,-0.064 3.461,-0.448 3.356,-1.157 6.727,-2.279 10.042,-3.548 16.74,-6.408 33.465,-12.855 50.191,-19.299 0.943,-0.363 1.876,-0.769 2.771,-1.235 1.03,-0.537 1.392,-1.945 0.88,-3.113 -0.353,-0.806 -1.693,-1.582 -2.51,-1.365 -0.975,0.26 -1.946,0.562 -2.881,0.94 C 21.976,-8.947 11.165,-4.555 0,0"
       style="fill:#d2451e;fill-opacity:1;fill-rule:nonzero;stroke:none"
       transform="matrix(1.3333333,0,0,-1.3333333,12463.441,332.00827)"
       clip-path="url(#clipPath582)" />
    <path
       id="path583"
       d="m 0,0 c -10.771,-10.563 -21.272,-20.894 -31.827,-31.169 -3.275,-3.188 -6.677,-6.246 -10.06,-9.32 -1.242,-1.129 -2.477,-2.31 -4.129,-2.86 -0.132,-0.044 -0.321,-0.004 -0.456,0.058 -0.378,0.176 -0.539,0.51 -0.321,0.838 0.838,1.258 1.612,2.578 2.599,3.712 2.445,2.808 4.93,5.588 7.514,8.269 10.222,10.607 20.483,21.177 30.744,31.746 1.058,1.09 2.187,2.117 3.337,3.11 0.858,0.741 1.993,0.767 2.821,0.196 C 1.336,3.812 1.661,2.762 1.096,1.505 0.893,1.052 0.535,0.668 0,0"
       style="fill:#d2451e;fill-opacity:1;fill-rule:nonzero;stroke:none"
       transform="matrix(1.3333333,0,0,-1.3333333,12471.287,117.12507)"
       clip-path="url(#clipPath584)" />
    <path
       id="path585"
       d="m 0,0 c 8.031,2.826 15.681,5.525 23.344,8.191 0.947,0.329 1.948,0.536 2.941,0.694 0.926,0.147 2.1,-0.613 2.461,-1.461 0.437,-1.026 -0.05,-2.562 -1.097,-3.07 -1.21,-0.587 -2.458,-1.116 -3.732,-1.547 -9.604,-3.255 -19.21,-6.505 -28.834,-9.7 -4.331,-1.438 -8.704,-2.746 -13.057,-4.112 -1.141,-0.358 -2.299,-0.595 -3.491,-0.338 -0.495,0.106 -1.04,0.323 -1.104,0.886 -0.051,0.453 -0.019,1.081 0.254,1.371 0.562,0.601 1.247,1.171 1.993,1.502 2.007,0.89 4.056,1.692 6.117,2.45 C -9.605,-3.442 -4.987,-1.799 0,0"
       style="fill:#d2451e;fill-opacity:1;fill-rule:nonzero;stroke:none"
       transform="matrix(1.3333333,0,0,-1.3333333,12451.382,192.5172)"
       clip-path="url(#clipPath586)" />
    <path
       id="path587"
       d="m 0,0 c -9.637,0.296 -18.765,0.573 -27.893,0.868 -2.873,0.093 -5.755,0.148 -8.545,0.96 -0.273,0.079 -0.489,0.393 -0.703,0.625 -0.225,0.244 0.319,1.045 0.764,1.133 0.497,0.099 0.991,0.237 1.493,0.278 1.516,0.124 3.035,0.255 4.555,0.299 4.395,0.128 8.791,0.28 13.187,0.303 11.501,0.061 23.002,0.062 34.503,0.076 1.181,0.001 2.38,0.029 3.538,-0.159 C 21.505,4.284 22.121,3.829 22.59,3.384 23.57,2.457 23.05,0.388 21.772,0.025 21.13,-0.156 20.449,-0.292 19.787,-0.289 16.067,-0.27 12.346,-0.206 8.626,-0.15 5.92,-0.11 3.215,-0.059 0,0"
       style="fill:#d2451e;fill-opacity:1;fill-rule:nonzero;stroke:none"
       transform="matrix(1.3333333,0,0,-1.3333333,12295.831,216.94133)"
       clip-path="url(#clipPath588)" />
    <path
       id="path589"
       d="m 0,0 c -1.564,-2.631 -2.603,-5.169 -4.675,-7.004 -0.178,-0.157 -0.604,-0.077 -0.903,-0.03 -0.1,0.015 -0.21,0.261 -0.234,0.414 -0.051,0.326 -0.127,0.679 -0.052,0.987 0.242,0.98 0.477,1.972 0.842,2.91 0.977,2.518 1.944,5.045 3.052,7.506 4.092,9.083 8.233,18.144 12.375,27.205 0.418,0.915 0.925,1.796 1.467,2.645 0.58,0.909 2.096,1.178 3.212,0.649 1.098,-0.521 1.798,-1.904 1.431,-2.93 C 16.232,31.56 15.928,30.766 15.544,30.02 10.438,20.113 5.316,10.214 0,0"
       style="fill:#d2451e;fill-opacity:1;fill-rule:nonzero;stroke:none"
       transform="matrix(1.3333333,0,0,-1.3333333,12397.051,132.65147)"
       clip-path="url(#clipPath590)" />
    <path
       id="path591"
       d="m 0,0 c 3.343,1.344 6.301,2.593 9.292,3.756 0.766,0.298 1.631,0.389 2.461,0.463 0.938,0.083 2.029,-0.791 2.222,-1.734 0.183,-0.89 -0.137,-1.645 -0.762,-2.295 -0.736,-0.767 -1.719,-1.038 -2.667,-1.389 -8.081,-2.992 -16.154,-6.003 -24.242,-8.974 -3.33,-1.223 -6.676,-2.404 -10.046,-3.511 -0.936,-0.308 -1.98,-0.304 -2.979,-0.402 -0.473,-0.047 -1.046,0.474 -1.035,0.915 0.008,0.32 0.008,0.705 0.179,0.941 0.289,0.4 0.657,0.801 1.084,1.03 1.339,0.716 2.69,1.426 4.091,2.007 C -15.068,-6.149 -7.717,-3.145 0,0"
       style="fill:#d2451e;fill-opacity:1;fill-rule:nonzero;stroke:none"
       transform="matrix(1.3333333,0,0,-1.3333333,12312.067,282.6604)"
       clip-path="url(#clipPath592)" />
    <path
       id="path593"
       d="m 0,0 c -2.43,2.858 -4.635,5.434 -6.819,8.028 -0.544,0.646 -1.049,1.33 -1.515,2.033 -0.911,1.374 -0.412,3.132 1.099,3.858 0.805,0.387 1.665,0.406 2.417,-0.114 0.55,-0.381 1.082,-0.834 1.498,-1.355 6.557,-8.215 13.177,-16.382 19.279,-24.948 0.784,-1.102 1.469,-2.277 2.153,-3.445 0.157,-0.268 0.198,-0.659 0.152,-0.974 -0.044,-0.307 -0.199,-0.676 -0.431,-0.857 -0.224,-0.176 -0.649,-0.27 -0.913,-0.181 -0.469,0.157 -0.955,0.404 -1.307,0.745 -1.338,1.296 -2.68,2.596 -3.921,3.983 C 7.848,-8.931 4.049,-4.596 0,0"
       style="fill:#d2451e;fill-opacity:1;fill-rule:nonzero;stroke:none"
       transform="matrix(1.3333333,0,0,-1.3333333,12310.72,125.08)"
       clip-path="url(#clipPath594)" />
    <path
       id="path595"
       d="m 0,0 c 0.971,-0.389 1.637,-0.617 2.119,-1.05 0.827,-0.742 0.9,-1.799 0.383,-2.762 -0.446,-0.83 -1.182,-1.223 -2.064,-1.211 -1.006,0.013 -2.033,0.074 -3.012,0.291 -10.044,2.232 -20.085,4.479 -30.114,6.778 -1.629,0.374 -3.203,1.001 -4.782,1.57 -0.261,0.094 -0.512,0.473 -0.581,0.764 -0.06,0.253 0.055,0.699 0.249,0.832 0.726,0.5 1.593,0.511 2.43,0.4 C -31.191,5.057 -27,4.558 -22.838,3.884 -15.345,2.67 -7.87,1.347 0,0"
       style="fill:#d2451e;fill-opacity:1;fill-rule:nonzero;stroke:none"
       transform="matrix(1.3333333,0,0,-1.3333333,12473.238,285.36347)"
       clip-path="url(#clipPath596)" />
    <path
       id="path597"
       d="M 0,0 C 0.277,0.778 0.435,1.29 0.76,1.653 1.683,2.682 3.546,2.898 4.409,1.979 6.719,-0.48 8.757,-3.153 10.266,-6.194 10.59,-6.848 10.29,-8.027 9.656,-8.471 9.076,-8.877 8.402,-8.978 7.743,-8.687 7.287,-8.486 6.805,-8.253 6.457,-7.911 4.536,-6.019 2.621,-4.12 0.782,-2.15 0.352,-1.689 0.224,-0.947 0,0"
       style="fill:#d2451e;fill-opacity:1;fill-rule:nonzero;stroke:none"
       transform="matrix(1.3333333,0,0,-1.3333333,12284.223,91.318)"
       clip-path="url(#clipPath598)" />
    <path
       id="path599"
       d="M 0,0 C -0.635,0.342 -0.957,0.493 -1.16,0.741 -1.873,1.612 -1.454,2.885 -0.421,3.07 -0.091,3.128 0.24,3.237 0.568,3.23 3.413,3.174 6.26,3.14 9.103,3.008 10.522,2.942 11.562,1.666 11.508,0.286 11.469,-0.736 10.61,-1.767 9.702,-1.818 9.039,-1.856 8.349,-1.926 7.71,-1.794 5.254,-1.286 2.814,-0.703 0,0"
       style="fill:#d2451e;fill-opacity:1;fill-rule:nonzero;stroke:none"
       transform="matrix(1.3333333,0,0,-1.3333333,12483.138,293.7128)"
       clip-path="url(#clipPath600)" />
    <path
       id="path601"
       d="M 0,0 C -0.535,0.907 -0.362,1.544 0.232,1.972 2.293,3.459 4.561,4.584 6.886,5.584 7.326,5.773 7.88,5.745 8.379,5.733 9.308,5.713 10.201,4.583 10.092,3.588 10.015,2.889 9.739,2.191 9.057,1.98 6.488,1.184 3.895,0.467 1.301,-0.247 0.996,-0.331 0.635,-0.214 0,0"
       style="fill:#d2451e;fill-opacity:1;fill-rule:nonzero;stroke:none"
       transform="matrix(1.3333333,0,0,-1.3333333,12257.913,307.9232)"
       clip-path="url(#clipPath602)" />
    <path
       id="path603"
       d="M 0,0 C 0.989,-0.157 1.679,-0.246 2.23,-0.57 3.363,-1.239 3.788,-2.916 3.198,-4.074 2.679,-5.092 1.666,-5.294 0.682,-5.401 -0.217,-5.499 -0.908,-5 -1.344,-4.231 -1.849,-3.342 -2.083,-2.384 -1.749,-1.369 -1.526,-0.687 -0.982,-0.318 0,0"
       style="fill:#d2451e;fill-opacity:1;fill-rule:nonzero;stroke:none"
       transform="matrix(1.3333333,0,0,-1.3333333,12204.952,193.27427)"
       clip-path="url(#clipPath604)" />
    <path
       id="path605"
       d="m 0,0 c -1.625,-0.04 -2.627,0.511 -3.347,1.561 -1.06,1.548 -0.049,3.597 1.845,3.75 C 0.158,5.444 1.539,4.53 1.9,2.896 2.193,1.574 1.636,0.59 0,0"
       style="fill:#d2451e;fill-opacity:1;fill-rule:nonzero;stroke:none"
       transform="matrix(1.3333333,0,0,-1.3333333,12310.319,39.930933)"
       clip-path="url(#clipPath606)" />
    <path
       id="path607"
       d="m 0,0 c 0.696,-1.516 0.346,-2.58 -0.44,-3.562 -0.765,-0.956 -2.01,-1.255 -3.165,-0.707 -0.284,0.135 -0.606,0.375 -0.721,0.647 -0.647,1.533 -0.265,2.954 0.631,4.263 0.391,0.57 1.591,0.837 2.292,0.506 C -0.96,0.938 -0.588,0.579 0,0"
       style="fill:#d2451e;fill-opacity:1;fill-rule:nonzero;stroke:none"
       transform="matrix(1.3333333,0,0,-1.3333333,12466.079,64.938933)"
       clip-path="url(#clipPath608)" />
    <path
       id="path609"
       d="m 0,0 c -1.702,0.595 -2.56,1.527 -2.795,2.983 -0.112,0.695 0.057,1.314 0.539,1.839 0.515,0.561 1.564,0.83 2.292,0.527 C 0.494,5.158 0.962,4.94 1.347,4.635 2.321,3.863 2.919,2.88 2.568,1.588 2.27,0.487 1.4,0.047 0,0"
       style="fill:#d2451e;fill-opacity:1;fill-rule:nonzero;stroke:none"
       transform="matrix(1.3333333,0,0,-1.3333333,12239.187,132.53627)"
       clip-path="url(#clipPath610)" />
    <path
       id="path611"
       d="m 0,0 c 1.306,-0.976 1.669,-2.03 1.535,-3.281 -0.165,-1.534 -2.219,-2.43 -3.482,-1.498 -0.83,0.613 -1.346,1.446 -1.635,2.443 -0.559,1.926 0.607,3.059 2.802,2.687 C -0.619,0.324 -0.47,0.229 0,0"
       style="fill:#d2451e;fill-opacity:1;fill-rule:nonzero;stroke:none"
       transform="matrix(1.3333333,0,0,-1.3333333,12231.049,115.4972)"
       clip-path="url(#clipPath612)" />
    <path
       id="path613"
       d="M 0,0 C -0.767,1.171 -0.828,2.151 -0.328,3.085 -0.114,3.485 0.333,3.768 0.7,4.073 0.815,4.168 1.011,4.181 1.174,4.201 2.672,4.389 3.7,3.975 4.174,3.002 4.738,1.845 4.275,0.439 3.002,-0.435 2.045,-1.091 1.122,-0.852 0,0"
       style="fill:#d2451e;fill-opacity:1;fill-rule:nonzero;stroke:none"
       transform="matrix(1.3333333,0,0,-1.3333333,12460.601,172.51453)"
       clip-path="url(#clipPath614)" />
    <path
       id="path615"
       d="m 0,0 c 1.396,-0.429 2.086,-1.105 1.856,-2.303 -0.238,-1.236 -0.924,-2.205 -2.204,-2.501 -1.041,-0.241 -1.993,0.081 -2.727,0.904 -0.772,0.864 -0.626,2.548 0.379,3.112 0.714,0.4 1.563,0.56 2.696,0.788"
       style="fill:#d2451e;fill-opacity:1;fill-rule:nonzero;stroke:none"
       transform="matrix(1.3333333,0,0,-1.3333333,12504.468,258.6792)"
       clip-path="url(#clipPath616)" />
    <path
       id="path617"
       d="m 0,0 c -0.848,-0.232 -1.357,-0.367 -1.848,-0.318 -1.338,0.135 -2.155,1.008 -2.235,2.279 -0.112,1.761 1,2.961 2.682,2.897 C 0.334,4.791 1.383,3.628 1.275,1.905 1.23,1.183 0.845,0.655 0,0"
       style="fill:#d2451e;fill-opacity:1;fill-rule:nonzero;stroke:none"
       transform="matrix(1.3333333,0,0,-1.3333333,12302.203,63.532667)"
       clip-path="url(#clipPath618)" />
    <path
       id="path619"
       d="M 0,0 C -1.023,0.991 -1.313,1.926 -1.093,2.957 -0.954,3.606 -0.644,4.22 0.056,4.47 1.87,5.119 4.01,3.683 3.967,1.856 3.942,0.75 2.933,-0.363 1.767,-0.449 1.29,-0.484 0.795,-0.29 0,0"
       style="fill:#d2451e;fill-opacity:1;fill-rule:nonzero;stroke:none"
       transform="matrix(1.3333333,0,0,-1.3333333,12511.271,163.724)"
       clip-path="url(#clipPath620)" />
    <path
       id="path621"
       d="m 0,0 c 0.487,-1.15 0.412,-1.94 -0.027,-2.714 -0.807,-1.42 -2.728,-1.646 -3.811,-0.432 -0.809,0.907 -0.956,2.671 -0.198,3.726 0.264,0.368 0.775,0.693 1.22,0.771 C -1.777,1.535 -0.835,1.248 0,0"
       style="fill:#d2451e;fill-opacity:1;fill-rule:nonzero;stroke:none"
       transform="matrix(1.3333333,0,0,-1.3333333,12512.281,205.68707)"
       clip-path="url(#clipPath622)" />
    <path
       id="path623"
       d="M 0,0 C -0.91,0.525 -1.339,1.003 -1.392,1.722 -1.455,2.595 -1.146,3.339 -0.518,3.938 0.588,4.992 2.461,4.991 3.526,3.949 4.214,3.276 4.333,1.996 3.743,1.229 2.879,0.106 1.794,-0.52 0,0"
       style="fill:#d2451e;fill-opacity:1;fill-rule:nonzero;stroke:none"
       transform="matrix(1.3333333,0,0,-1.3333333,12508.131,315.6432)"
       clip-path="url(#clipPath624)" />
    <path
       id="path625"
       d="M 0,0 C 0.643,2.378 0.903,2.617 2.603,2.625 3.099,2.628 3.601,2.566 4.09,2.479 4.835,2.347 5.49,1.345 5.373,0.578 5.172,-0.736 4.067,-1.9 2.766,-2.104 2.455,-2.153 2.094,-2.101 1.799,-1.985 1.007,-1.673 0.339,-1.195 0,0"
       style="fill:#d2451e;fill-opacity:1;fill-rule:nonzero;stroke:none"
       transform="matrix(1.3333333,0,0,-1.3333333,12461.332,83.7232)"
       clip-path="url(#clipPath626)" />
    <path
       id="path627"
       d="M 0,0 C 0.316,0.905 0.528,1.598 0.993,1.995 2.293,3.103 4.549,2.382 5.05,0.741 5.636,-1.178 4.431,-2.647 2.499,-2.442 1.246,-2.31 0.355,-1.622 0,0"
       style="fill:#d2451e;fill-opacity:1;fill-rule:nonzero;stroke:none"
       transform="matrix(1.3333333,0,0,-1.3333333,12183.301,298.73533)"
       clip-path="url(#clipPath628)" />
    <path
       id="path629"
       d="M 0,0 C 0.859,0.001 1.401,0.027 1.845,-0.169 3.62,-0.954 3.788,-3.092 2.202,-4.207 1.466,-4.725 0.658,-4.857 -0.2,-4.658 -1.634,-4.326 -2.385,-2.859 -1.706,-1.519 -1.421,-0.955 -0.819,-0.553 0,0"
       style="fill:#d2451e;fill-opacity:1;fill-rule:nonzero;stroke:none"
       transform="matrix(1.3333333,0,0,-1.3333333,12515.867,267.71827)"
       clip-path="url(#clipPath630)" />
    <path
       id="path631"
       d="m 0,0 c 0.709,-0.959 0.817,-1.755 0.497,-2.591 -0.393,-1.03 -1.259,-1.546 -2.359,-1.41 -0.924,0.114 -1.514,0.631 -1.806,1.497 -0.326,0.968 0.092,2.079 0.992,2.575 C -1.906,0.495 -1.097,0.558 0,0"
       style="fill:#d2451e;fill-opacity:1;fill-rule:nonzero;stroke:none"
       transform="matrix(1.3333333,0,0,-1.3333333,12201.285,304.52827)"
       clip-path="url(#clipPath632)" />
    <path
       id="path633"
       d="m 0,0 c 0.256,-0.698 0.437,-1.234 0.281,-1.641 -0.326,-0.845 -1.335,-1.216 -2.085,-0.769 -0.368,0.219 -0.701,0.72 -0.787,1.146 -0.181,0.892 0.385,1.533 1.406,1.689 C -0.883,0.472 -0.547,0.295 0,0"
       style="fill:#d2451e;fill-opacity:1;fill-rule:nonzero;stroke:none"
       transform="matrix(1.3333333,0,0,-1.3333333,12471.464,159.83533)"
       clip-path="url(#clipPath634)" />
    <path
       id="path635"
       d="m 0,0 c 5.065,2.822 9.807,5.455 14.524,8.131 1.289,0.731 2.445,0.842 3.814,0.095 4.909,-2.678 9.897,-5.213 14.802,-7.899 2.537,-1.389 5.185,-2.496 7.851,-3.587 2.381,-0.975 4.891,-1.363 7.402,-1.745 1.178,-0.18 2.372,-0.152 3.5,0.337 1.167,0.506 2.282,0.414 3.422,-0.148 7.598,-3.75 15.209,-7.474 22.806,-11.225 0.442,-0.218 0.804,-0.597 1.276,-0.958 -0.285,-0.446 -0.452,-0.99 -0.818,-1.23 -1.557,-1.023 -3.161,-1.977 -4.769,-2.92 -21.933,-12.855 -43.869,-25.705 -65.806,-38.553 -2.632,-1.542 -5.29,-3.039 -7.91,-4.6 -1.309,-0.78 -2.58,-1.629 -3.829,-2.502 -1.29,-0.9 -1.459,-2.308 -0.303,-3.47 1.187,-1.195 2.485,-2.293 3.821,-3.32 1.341,-1.03 2.797,-1.911 4.188,-2.878 0.857,-0.595 0.91,-1.588 0.099,-1.975 -6.261,-2.986 -12.53,-5.956 -18.708,-8.889 -1.866,0.42 -3.23,1.474 -4.682,2.316 -8.504,4.929 -16.993,9.885 -25.471,14.858 -9.649,5.659 -19.284,11.342 -28.921,17.023 -1.459,0.86 -2.901,1.75 -4.335,2.653 -0.901,0.568 -0.999,1.542 -0.197,2.002 6.024,3.459 12.053,6.911 18.097,10.338 0.574,0.325 1.256,0.459 1.857,0.671 2.521,-0.817 4.619,-2.286 6.851,-3.485 2.537,-1.364 5.06,-2.754 7.567,-4.173 1.52,-0.861 3.176,-1.167 4.872,-1.3 1.899,-0.148 3.716,0.153 5.363,1.197 0.715,0.453 1.465,0.851 2.186,1.295 12.837,7.922 25.677,15.839 38.497,23.789 0.994,0.616 1.902,1.408 2.736,2.232 0.988,0.975 0.981,2.676 -0.018,3.689 -0.823,0.834 -1.738,1.605 -2.709,2.262 -3.089,2.087 -6.23,4.099 -9.337,6.161 -0.704,0.467 -1.359,1.008 -2.021,1.535 -0.512,0.407 -0.482,1.431 0.039,1.775 0.563,0.373 1.123,0.753 1.706,1.095 C -1.827,-0.975 -1.076,-0.582 0,0"
       style="fill:#d2451e;fill-opacity:1;fill-rule:nonzero;stroke:none"
       transform="matrix(1.3333333,0,0,-1.3333333,12678.488,594.6236)"
       clip-path="url(#clipPath636)" />
    <path
       id="path637"
       d="m 0,0 c 8.68,2.38 17.126,2.727 25.607,1.998 5.743,-0.494 11.372,-1.73 16.783,-3.825 3.178,-1.23 6.184,-2.761 8.883,-4.853 2.306,-1.787 4.231,-3.897 5.448,-6.591 1.487,-3.291 1.456,-6.581 -0.083,-9.825 -1.179,-2.488 -2.928,-4.545 -5.091,-6.249 -2.68,-2.111 -5.596,-3.822 -8.779,-5.045 -6.368,-2.449 -12.954,-3.939 -19.781,-4.199 -3.045,-0.116 -6.099,-0.085 -9.146,-0.024 -5.975,0.121 -11.762,1.352 -17.423,3.189 -3.069,0.997 -5.968,2.399 -8.713,4.104 -2.324,1.445 -4.361,3.223 -6.023,5.399 -2.277,2.983 -3.197,6.332 -2.389,10.037 0.248,1.14 0.679,2.275 1.221,3.31 1.361,2.602 3.415,4.617 5.771,6.328 2.48,1.802 5.174,3.225 8.033,4.318 C -3.943,-1.264 -2.164,-0.707 0,0"
       style="fill:#d2451e;fill-opacity:1;fill-rule:nonzero;stroke:none"
       transform="matrix(1.3333333,0,0,-1.3333333,11886.033,671.15627)"
       clip-path="url(#clipPath638)" />
    <path
       id="path639"
       d="m 0,0 c 0.106,-4.03 -1.479,-6.934 -3.886,-9.481 -1.995,-2.112 -4.305,-3.804 -6.859,-5.182 -4.968,-2.682 -10.308,-4.302 -15.825,-5.272 -4.667,-0.82 -9.383,-1.248 -14.15,-1.142 -6.649,0.148 -13.137,1.195 -19.483,3.124 -3.085,0.937 -6.01,2.277 -8.781,3.938 -2.194,1.315 -4.186,2.881 -5.822,4.856 -0.645,0.779 -1.252,1.607 -1.748,2.486 -1.966,3.483 -2.192,7.054 -0.395,10.689 0.833,1.686 1.942,3.164 3.276,4.491 2.435,2.422 5.308,4.201 8.391,5.632 4.317,2.004 8.846,3.422 13.53,4.224 4.841,0.828 9.724,1.321 14.659,1.13 6.632,-0.258 13.143,-1.265 19.45,-3.312 2.56,-0.83 5.037,-1.995 7.432,-3.237 C -5.03,10.258 -1.172,6.415 0,0"
       style="fill:#d2451e;fill-opacity:1;fill-rule:nonzero;stroke:none"
       transform="matrix(1.3333333,0,0,-1.3333333,12858.042,713.3612)"
       clip-path="url(#clipPath640)" />
    <path
       id="path641"
       d="M 0,0 V 10.587"
       style="fill:#ffffff;fill-opacity:1;fill-rule:nonzero;stroke:none"
       transform="matrix(1.3333333,0,0,-1.3333333,13086.906,824.8832)"
       clip-path="url(#clipPath642)" />
    <path
       id="path643"
       d="m 0,0 c 0.731,2.037 3.117,7.786 4.107,10.159 0.27,0.648 2.007,0.89 2.007,0.89 l -1.57,5.42 C 4.463,15.623 4.127,14.881 3.292,14.328 2.873,14.051 2.5,13.702 2.118,13.371 -1.197,10.497 -3.096,3.313 -3.921,-0.965 c -0.697,-3.616 -0.107,-7.041 1.454,-10.317 1.431,-3.003 3.656,-5.205 6.784,-6.458 0.761,-0.305 2.571,-1.046 3.13,-2.231 l 1.924,4.389 -1.261,-0.03 C 7.713,-15.621 7.311,-15.576 6.939,-15.437 0.551,-13.052 -1.158,-3.225 0,0"
       style="fill:#d2451e;fill-opacity:1;fill-rule:nonzero;stroke:none"
       transform="matrix(1.3333333,0,0,-1.3333333,12316.623,1277.7781)"
       clip-path="url(#clipPath644)" />
    <path
       id="path645"
       d="m 0,0 c -1.249,2.253 -3.364,8.848 -5.842,9.801 -0.771,0.297 -1.487,0.735 -2.279,1.133 l -5.676,-7.314 1.975,0.654 c 1.981,0.657 4.155,-0.079 5.325,-1.808 1.505,-2.224 3.357,-5.174 3.749,-6.762 0.49,-1.982 0.638,-9.857 -1.078,-15.989 -1.028,-3.675 -3.689,-6.672 -7.16,-8.259 l -0.399,-0.182 4.834,-3.675 c 0.46,0.392 0.986,0.817 1.484,1.271 3.093,2.821 5.414,8.325 6.753,12.207 C 3.536,-13.558 2.633,-4.752 0,0"
       style="fill:#d2451e;fill-opacity:1;fill-rule:nonzero;stroke:none"
       transform="matrix(1.3333333,0,0,-1.3333333,13101.123,931.5876)"
       clip-path="url(#clipPath646)" />
    <path
       id="path647"
       d="m 0,0 c -1.965,15.083 5.77,20.788 5.77,20.788 l 0.067,5.679 C 4.906,25.504 0.07,20.456 -0.559,19.353 -10.025,2.763 -0.911,-11.609 0.8,-16.207 c 1.061,-2.851 3.468,-5.53 3.468,-10.29 0,-5.376 3.272,-11.527 3.326,-12.81 0,0 -0.374,17.99 -1.231,19.703 -0.85,1.7 -2.635,5.709 -3.351,7.79 C 1.642,-7.83 0.377,-2.891 0,0"
       style="fill:#d2451e;fill-opacity:1;fill-rule:nonzero;stroke:none"
       transform="matrix(1.3333333,0,0,-1.3333333,11711.896,979.398)"
       clip-path="url(#clipPath648)" />
  </g>
</svg>
