<?xml version="1.0" encoding="UTF-8" standalone="no"?>
<!-- Created with Inkscape (http://www.inkscape.org/) -->

<svg
   version="1.1"
   id="svg1"
   width="1440"
   height="1440"
   viewBox="0 0 1440 1440"
   xmlns="http://www.w3.org/2000/svg"
   xmlns:svg="http://www.w3.org/2000/svg">
  <defs
     id="defs1">
    <clipPath
       clipPathUnits="userSpaceOnUse"
       id="clipPath346">
      <path
         d="M 0,1080 H 1080 V 0 H 0 Z"
         transform="translate(-862.3276,-263.09108)"
         id="path346" />
    </clipPath>
    <clipPath
       clipPathUnits="userSpaceOnUse"
       id="clipPath348">
      <path
         d="M 0,1080 H 1080 V 0 H 0 Z"
         transform="translate(-474.95761,-179.448)"
         id="path348" />
    </clipPath>
    <clipPath
       clipPathUnits="userSpaceOnUse"
       id="clipPath350">
      <path
         d="M 0,1080 H 1080 V 0 H 0 Z"
         transform="translate(-289.94311,-905.24402)"
         id="path350" />
    </clipPath>
    <clipPath
       clipPathUnits="userSpaceOnUse"
       id="clipPath352">
      <path
         d="M 0,1080 H 1080 V 0 H 0 Z"
         transform="translate(-338.73751,-232.73341)"
         id="path352" />
    </clipPath>
    <clipPath
       clipPathUnits="userSpaceOnUse"
       id="clipPath354">
      <path
         d="M 0,1080 H 1080 V 0 H 0 Z"
         transform="translate(-902.63155,-807.11982)"
         id="path354" />
    </clipPath>
    <clipPath
       clipPathUnits="userSpaceOnUse"
       id="clipPath356">
      <path
         d="M 0,1080 H 1080 V 0 H 0 Z"
         transform="translate(-1016.1772,-363.53171)"
         id="path356" />
    </clipPath>
    <clipPath
       clipPathUnits="userSpaceOnUse"
       id="clipPath358">
      <path
         d="M 0,1080 H 1080 V 0 H 0 Z"
         transform="translate(-1041.7557,-484.80791)"
         id="path358" />
    </clipPath>
    <clipPath
       clipPathUnits="userSpaceOnUse"
       id="clipPath360">
      <path
         d="M 0,1080 H 1080 V 0 H 0 Z"
         transform="translate(-1063.5789,-607.37351)"
         id="path360" />
    </clipPath>
    <clipPath
       clipPathUnits="userSpaceOnUse"
       id="clipPath362">
      <path
         d="M 0,1080 H 1080 V 0 H 0 Z"
         transform="translate(-956.8315,-731.64842)"
         id="path362" />
    </clipPath>
    <clipPath
       clipPathUnits="userSpaceOnUse"
       id="clipPath364">
      <path
         d="M 0,1080 H 1080 V 0 H 0 Z"
         transform="translate(-145.1223,-611.25922)"
         id="path364" />
    </clipPath>
    <clipPath
       clipPathUnits="userSpaceOnUse"
       id="clipPath366">
      <path
         d="M 0,1080 H 1080 V 0 H 0 Z"
         transform="translate(-88.956527,-492.80741)"
         id="path366" />
    </clipPath>
    <clipPath
       clipPathUnits="userSpaceOnUse"
       id="clipPath368">
      <path
         d="M 0,1080 H 1080 V 0 H 0 Z"
         transform="translate(-178.55468,-401.33801)"
         id="path368" />
    </clipPath>
    <clipPath
       clipPathUnits="userSpaceOnUse"
       id="clipPath370">
      <path
         d="M 0,1080 H 1080 V 0 H 0 Z"
         transform="translate(-18.023925,-757.81562)"
         id="path370" />
    </clipPath>
    <clipPath
       clipPathUnits="userSpaceOnUse"
       id="clipPath372">
      <path
         d="M 0,1080 H 1080 V 0 H 0 Z"
         transform="translate(-67.209677,-878.20812)"
         id="path372" />
    </clipPath>
    <clipPath
       clipPathUnits="userSpaceOnUse"
       id="clipPath374">
      <path
         d="M 0,1080 H 1080 V 0 H 0 Z"
         transform="translate(-949.36135,-258.33308)"
         id="path374" />
    </clipPath>
    <clipPath
       clipPathUnits="userSpaceOnUse"
       id="clipPath376">
      <path
         d="M 0,1080 H 1080 V 0 H 0 Z"
         transform="translate(-212.88623,-332.26971)"
         id="path376" />
    </clipPath>
    <clipPath
       clipPathUnits="userSpaceOnUse"
       id="clipPath378">
      <path
         d="M 0,1080 H 1080 V 0 H 0 Z"
         transform="translate(-1006.5118,-672.33641)"
         id="path378" />
    </clipPath>
    <clipPath
       clipPathUnits="userSpaceOnUse"
       id="clipPath380">
      <path
         d="M 0,1080 H 1080 V 0 H 0 Z"
         transform="translate(-143.75513,-673.45042)"
         id="path380" />
    </clipPath>
    <clipPath
       clipPathUnits="userSpaceOnUse"
       id="clipPath382">
      <path
         d="M 0,1080 H 1080 V 0 H 0 Z"
         transform="translate(-921.12932,-553.31111)"
         id="path382" />
    </clipPath>
    <clipPath
       clipPathUnits="userSpaceOnUse"
       id="clipPath384">
      <path
         d="M 0,1080 H 1080 V 0 H 0 Z"
         transform="translate(-981.4846,-782.64692)"
         id="path384" />
    </clipPath>
    <clipPath
       clipPathUnits="userSpaceOnUse"
       id="clipPath386">
      <path
         d="M 0,1080 H 1080 V 0 H 0 Z"
         transform="translate(-902.38352,-445.28121)"
         id="path386" />
    </clipPath>
    <clipPath
       clipPathUnits="userSpaceOnUse"
       id="clipPath388">
      <path
         d="M 0,1080 H 1080 V 0 H 0 Z"
         transform="translate(-874.37072,-840.96262)"
         id="path388" />
    </clipPath>
    <clipPath
       clipPathUnits="userSpaceOnUse"
       id="clipPath390">
      <path
         d="M 0,1080 H 1080 V 0 H 0 Z"
         transform="translate(-153.00098,-776.97112)"
         id="path390" />
    </clipPath>
    <clipPath
       clipPathUnits="userSpaceOnUse"
       id="clipPath392">
      <path
         d="M 0,1080 H 1080 V 0 H 0 Z"
         transform="translate(-143.0691,-348.69291)"
         id="path392" />
    </clipPath>
    <clipPath
       clipPathUnits="userSpaceOnUse"
       id="clipPath394">
      <path
         d="M 0,1080 H 1080 V 0 H 0 Z"
         transform="translate(-873.6892,-362.76681)"
         id="path394" />
    </clipPath>
    <clipPath
       clipPathUnits="userSpaceOnUse"
       id="clipPath396">
      <path
         d="M 0,1080 H 1080 V 0 H 0 Z"
         transform="translate(-151.84748,-562.71982)"
         id="path396" />
    </clipPath>
    <clipPath
       clipPathUnits="userSpaceOnUse"
       id="clipPath398">
      <path
         d="M 0,1080 H 1080 V 0 H 0 Z"
         transform="translate(-149.30663,-458.78941)"
         id="path398" />
    </clipPath>
    <clipPath
       clipPathUnits="userSpaceOnUse"
       id="clipPath400">
      <path
         d="M 0,1080 H 1080 V 0 H 0 Z"
         transform="translate(-241.23601,-301.51748)"
         id="path400" />
    </clipPath>
    <clipPath
       clipPathUnits="userSpaceOnUse"
       id="clipPath402">
      <path
         d="M 0,1080 H 1080 V 0 H 0 Z"
         transform="translate(-560.67984,-632.29132)"
         id="path402" />
    </clipPath>
    <clipPath
       clipPathUnits="userSpaceOnUse"
       id="clipPath404">
      <path
         d="M 0,1080 H 1080 V 0 H 0 Z"
         transform="translate(-539.70954,-629.46851)"
         id="path404" />
    </clipPath>
    <clipPath
       clipPathUnits="userSpaceOnUse"
       id="clipPath406">
      <path
         d="M 0,1080 H 1080 V 0 H 0 Z"
         transform="translate(-611.49429,-512.70391)"
         id="path406" />
    </clipPath>
    <clipPath
       clipPathUnits="userSpaceOnUse"
       id="clipPath408">
      <path
         d="M 0,1080 H 1080 V 0 H 0 Z"
         transform="translate(-656.60409,-496.99481)"
         id="path408" />
    </clipPath>
    <clipPath
       clipPathUnits="userSpaceOnUse"
       id="clipPath410">
      <path
         d="M 0,1080 H 1080 V 0 H 0 Z"
         transform="translate(-612.68852,-620.89532)"
         id="path410" />
    </clipPath>
    <clipPath
       clipPathUnits="userSpaceOnUse"
       id="clipPath412">
      <path
         d="M 0,1080 H 1080 V 0 H 0 Z"
         transform="translate(-658.58034,-566.29471)"
         id="path412" />
    </clipPath>
    <clipPath
       clipPathUnits="userSpaceOnUse"
       id="clipPath414">
      <path
         d="M 0,1080 H 1080 V 0 H 0 Z"
         transform="translate(-509.07571,-567.37771)"
         id="path414" />
    </clipPath>
    <clipPath
       clipPathUnits="userSpaceOnUse"
       id="clipPath416">
      <path
         d="M 0,1080 H 1080 V 0 H 0 Z"
         transform="translate(-533.77074,-528.14821)"
         id="path416" />
    </clipPath>
    <clipPath
       clipPathUnits="userSpaceOnUse"
       id="clipPath418">
      <path
         d="M 0,1080 H 1080 V 0 H 0 Z"
         transform="translate(-560.74269,-632.23511)"
         id="path418" />
    </clipPath>
    <clipPath
       clipPathUnits="userSpaceOnUse"
       id="clipPath420">
      <path
         d="M 0,1080 H 1080 V 0 H 0 Z"
         transform="translate(-560.31774,-645.05552)"
         id="path420" />
    </clipPath>
    <clipPath
       clipPathUnits="userSpaceOnUse"
       id="clipPath422">
      <path
         d="M 0,1080 H 1080 V 0 H 0 Z"
         transform="translate(-635.81484,-622.03181)"
         id="path422" />
    </clipPath>
    <clipPath
       clipPathUnits="userSpaceOnUse"
       id="clipPath424">
      <path
         d="M 0,1080 H 1080 V 0 H 0 Z"
         transform="translate(-574.72944,-500.60011)"
         id="path424" />
    </clipPath>
  </defs>
  <g
     id="layer-MC1"
     transform="translate(-5840)">
    <path
       id="path345"
       d="m 0,0 c -2.347,-0.804 -4.727,-1.526 -7.12,-2.181 -5.204,-1.423 -9.851,-3.864 -13.946,-7.374 -6.684,-5.73 -11.551,-12.739 -14.749,-20.922 -2.609,-6.675 -4.293,-13.573 -4.942,-20.718 -0.285,-3.136 -0.617,-6.269 -0.904,-9.406 -0.122,-1.333 -0.365,-2.618 -1,-3.819 -0.488,-0.924 -1.215,-1.541 -2.156,-1.958 -0.873,-0.386 -2.221,0.092 -2.511,0.975 -0.729,2.215 -1.143,4.486 -1.201,6.825 -0.087,3.484 -0.463,6.93 -1.05,10.376 -1.404,8.246 -3.947,16.082 -8.044,23.382 -3.362,5.99 -7.611,11.26 -13.115,15.431 -4.687,3.552 -9.987,5.835 -15.669,7.244 -0.97,0.24 -1.926,0.407 -2.784,0.971 -1.505,0.991 -1.722,3.147 -0.362,4.26 0.507,0.414 1.052,0.833 1.651,1.073 1.534,0.616 3.072,1.276 4.671,1.662 7.082,1.71 12.562,5.817 17.116,11.305 3.085,3.719 5.593,7.812 7.521,12.251 0.594,1.368 1.159,2.748 1.738,4.123 2.385,6.871 3.734,13.162 4.374,19.63 0.377,3.8 0.773,7.588 0.632,11.409 -0.087,2.378 0.61,4.593 1.384,6.778 0.202,0.57 0.799,1.03 1.283,1.462 0.67,0.598 1.683,0.535 2.247,-0.013 1.104,-1.069 1.86,-2.336 2.127,-3.849 0.344,-1.955 0.693,-3.915 0.918,-5.886 1.53,-13.397 5.974,-25.765 13.095,-37.186 2.203,-3.532 4.804,-6.752 7.846,-9.606 2.064,-1.937 4.31,-3.632 6.754,-5.059 C -12.57,9.063 -8.709,7.654 -4.486,7.364 -3.495,7.296 -2.491,7.33 -1.515,7.175 -0.139,6.957 0.933,6.193 1.646,4.981 2.709,3.175 1.926,0.659 0,0 m -99.45,83.472 c -4.234,-1.641 -8.005,-3.96 -11.172,-7.255 -1.628,-1.694 -2.97,-3.551 -4,-5.662 -0.167,-0.342 -0.741,-0.486 -1.23,-0.785 -3.774,5.826 -9.647,8.011 -15.862,9.519 -2.243,0.545 -4.577,0.744 -6.88,1.009 -5.963,0.688 -11.157,2.98 -15.496,7.177 -2.899,2.803 -5.188,6.038 -6.939,9.646 -2.04,4.201 -3.374,8.634 -4.165,13.239 -0.733,4.264 -0.964,8.559 -1.048,12.878 -0.165,8.508 -1.629,16.819 -4.088,24.955 -1.253,4.142 -2.901,8.119 -5.325,11.736 -0.474,1.03 -0.757,1.419 -0.391,1.804 0.137,0.144 0.522,0.052 0.794,0.068 1.319,-1.035 2.308,-1.63 3.32,-2.182 3.535,-1.932 7.281,-3.245 11.324,-3.447 8.664,-0.432 15.463,3.078 20.432,10.091 1.33,1.877 2.26,4.035 3.374,6.064 0.208,0.378 1.013,0.535 1.307,0.268 0.243,-0.22 0.539,-0.392 0.748,-0.639 0.319,-0.379 0.587,-0.803 0.871,-1.211 2.411,-3.462 5.567,-6.131 9.063,-8.412 3.24,-2.113 6.815,-3.459 10.638,-3.972 6.082,-0.817 11.503,0.829 16.196,4.784 1.011,0.852 1.878,1.874 2.892,2.722 0.313,0.26 0.912,0.324 1.345,0.256 0.539,-0.084 1.028,-1.038 0.961,-1.585 -0.02,-0.163 -0.015,-0.33 -0.044,-0.491 -0.322,-1.791 -0.593,-3.593 -0.985,-5.368 -1.031,-4.663 -0.6,-9.239 0.783,-13.75 1.895,-6.179 3.823,-12.348 5.775,-18.509 1.001,-3.159 2.068,-6.297 3.136,-9.435 1.521,-4.47 1.897,-9.069 1.583,-13.747 -0.25,-3.715 -1.414,-7.153 -3.355,-10.306 -1.865,-3.028 -4.393,-5.418 -7.598,-6.982 -1.931,-0.943 -3.956,-1.701 -5.964,-2.478 m -75.504,-102.773 c -0.107,-6.656 -3.29,-11.681 -8.608,-15.443 -2.445,-1.73 -5.146,-3.008 -7.947,-4.078 -3.411,-1.304 -6.777,-2.717 -9.833,-4.749 -1.377,-0.915 -2.731,-1.884 -3.992,-2.949 -1.526,-1.289 -2.801,-2.793 -3.674,-4.646 -0.558,-1.186 -1.375,-2.251 -2.101,-3.354 -0.317,-0.482 -1.293,-0.387 -1.724,0.19 -0.295,0.394 -0.492,0.862 -0.732,1.296 -2.251,3.484 -4.956,5.366 -8.011,6.745 -4.119,1.859 -8.472,2.974 -12.979,3.12 -11.799,0.382 -20.375,6.15 -26.677,15.737 -3.045,4.633 -4.811,9.769 -5.675,15.265 -0.672,4.279 -0.786,8.578 -1.03,12.883 -0.496,8.77 -0.949,17.554 -2.665,26.202 -1.074,5.413 -3.113,10.483 -5.797,15.279 -0.962,1.72 -2.278,3.239 -3.38,4.885 -0.096,0.144 0.178,0.572 0.342,0.83 0.045,0.07 0.336,0.049 0.473,-0.016 0.295,-0.141 0.585,-0.312 0.84,-0.517 0.515,-0.416 0.991,-0.881 1.509,-1.293 3.336,-2.653 7.163,-4.079 11.371,-4.604 12.919,-1.613 22.706,5.353 27.799,14.446 0.646,1.153 1.218,2.347 1.836,3.516 0.191,0.363 0.987,0.427 1.303,0.097 1.143,-1.198 2.232,-2.449 3.418,-3.601 2.021,-1.962 4.024,-3.954 6.174,-5.768 2.417,-2.038 5.17,-3.573 8.077,-4.848 3.569,-1.566 7.286,-2.156 11.153,-2.036 5.429,0.169 9.936,2.36 13.667,6.222 1.034,1.071 1.906,2.298 2.943,3.364 0.285,0.292 0.905,0.367 1.364,0.349 0.462,-0.017 1.201,-1.039 1.17,-1.478 -0.047,-0.654 -0.032,-1.341 -0.233,-1.952 -1.648,-5.005 -1.598,-10.055 -0.922,-15.239 1.339,-10.281 4.165,-20.093 8.391,-29.543 2.182,-4.879 3.314,-10.078 3.875,-15.367 0.314,-2.959 0.323,-5.964 0.275,-8.945 M -330.33,171.314 c -26.674,29.576 -49.369,61.965 -68.528,96.854 -11.43,20.814 -21.378,42.312 -29.621,64.588 -5.528,14.939 -10.219,30.133 -13.809,45.66 -2.541,10.99 -4.537,22.067 -5.852,33.281 -0.619,5.278 -0.792,10.583 -1.387,15.857 -0.184,1.63 -0.307,3.297 0.096,4.919 1.528,0.937 3.152,1.165 4.815,1.245 0.545,0.026 1.31,-0.629 1.363,-1.197 0.061,-0.66 0.13,-1.321 0.145,-1.983 0.236,-10.639 1.617,-21.167 3.373,-31.633 2.003,-11.939 4.826,-23.704 8.243,-35.327 9.161,-31.151 21.999,-60.751 37.57,-89.199 13.646,-24.933 29.324,-48.534 46.776,-70.955 15.206,-19.537 31.706,-37.918 49.76,-54.874 11.495,-10.794 23.435,-21.071 36.115,-30.463 2.265,-1.678 4.607,-3.249 6.914,-4.869 2.552,-1.651 4.571,-2.812 6.461,-4.152 1.014,-0.719 2.557,-0.868 2.892,-2.412 -1.039,-0.683 -2.214,-0.313 -3.325,-0.411 -1.321,-0.118 -2.656,-0.094 -3.972,-0.243 -1.41,-0.161 -2.56,0.299 -3.722,1.054 -9.743,6.332 -19.155,13.119 -28.212,20.398 -16.591,13.332 -31.848,28.064 -46.095,43.862 m 14.849,-101.033 c -2.043,-4.357 -5.224,-7.649 -9.553,-9.75 -1.781,-0.865 -3.674,-1.498 -5.518,-2.233 -4.343,-1.73 -8.406,-3.888 -11.793,-7.212 -1.914,-1.878 -3.598,-3.889 -4.803,-6.288 -0.801,-1.189 -1.436,-1.61 -1.963,-0.925 -1.841,2.395 -3.919,4.535 -6.634,5.884 -2.216,1.101 -4.502,2.125 -6.857,2.865 -3.314,1.041 -6.718,1.703 -10.22,1.96 -5.953,0.437 -11.242,2.659 -15.772,6.582 -3.686,3.192 -6.501,7.053 -8.658,11.413 -2.599,5.255 -4.145,10.83 -4.841,16.621 -0.534,4.44 -0.854,8.901 -0.969,13.385 -0.26,10.189 -2.345,20.043 -5.862,29.604 -0.921,2.504 -2.119,4.854 -3.61,7.063 -0.458,0.679 -0.849,1.404 -1.247,2.121 -0.061,0.11 -0.044,0.379 0.032,0.427 0.25,0.161 0.639,0.434 0.806,0.345 1.011,-0.537 1.978,-1.158 2.956,-1.758 4.471,-2.748 9.281,-4.269 14.577,-4.317 8.246,-0.075 14.712,3.417 19.739,9.737 1.327,1.669 2.278,3.642 3.364,5.499 0.495,0.846 0.896,1.748 1.377,2.698 0.589,-0.22 1.156,-0.264 1.441,-0.571 0.671,-0.724 1.179,-1.596 1.802,-2.368 3.705,-4.581 8.102,-8.305 13.557,-10.635 3.063,-1.309 6.258,-2.128 9.631,-2.204 5.932,-0.135 11.041,1.859 15.423,5.793 0.985,0.884 1.869,1.882 2.849,2.773 0.195,0.178 0.623,0.167 0.933,0.136 0.563,-0.056 0.839,-0.512 0.957,-0.987 0.117,-0.472 0.169,-0.99 0.107,-1.47 -0.172,-1.313 -0.336,-2.637 -0.652,-3.921 -0.845,-3.431 -0.757,-6.912 -0.618,-10.389 0.052,-1.313 0.276,-2.643 0.609,-3.916 0.84,-3.203 1.7,-6.407 2.71,-9.559 2.023,-6.307 4.151,-12.58 6.237,-18.867 1.305,-3.936 2.479,-7.903 2.96,-12.043 0.627,-5.402 -0.19,-10.573 -2.497,-15.493 m -99.507,130.741 c -1.63,-5.797 -5.224,-9.868 -10.636,-12.394 -0.599,-0.28 -1.227,-0.495 -1.842,-0.74 -3.134,-1.314 -5.61,-2.266 -8.008,-3.387 -2.397,-1.12 -4.709,-2.42 -7.07,-3.62 -3.883,-1.974 -6.501,-5.042 -7.961,-9.126 -0.278,-0.778 -0.535,-1.569 -0.882,-2.317 -0.194,-0.419 -0.553,-0.763 -0.945,-1.284 -0.611,0.727 -1.089,1.184 -1.436,1.726 -3.004,4.672 -7.349,7.557 -12.501,9.308 -2.984,1.015 -6.071,1.548 -9.231,1.815 -12.598,1.066 -22.311,6.847 -28.585,17.966 -3.392,6.011 -5.177,12.522 -5.458,19.427 -0.283,6.952 -0.85,13.869 -1.733,20.78 -0.991,7.758 -2.796,15.276 -5.267,22.676 -1.372,4.108 -3.333,7.919 -5.315,11.736 -0.041,0.077 0.101,0.3 0.211,0.391 0.102,0.084 0.311,0.154 0.411,0.105 0.437,-0.214 0.893,-0.422 1.267,-0.725 7.987,-6.478 16.839,-7.181 26.189,-3.729 7.333,2.708 12.707,7.639 15.818,14.9 0.194,0.454 0.392,0.906 0.603,1.351 0.17,0.357 0.954,0.443 1.313,0.148 0.511,-0.418 1.056,-0.804 1.514,-1.274 0.694,-0.711 1.305,-1.501 1.987,-2.223 2.855,-3.022 5.96,-5.748 9.455,-8.02 3.228,-2.098 6.708,-3.669 10.455,-4.465 6.268,-1.332 12.186,-0.472 17.499,3.377 1.895,1.372 3.537,2.987 4.994,4.811 0.403,0.504 0.909,0.93 1.396,1.359 0.416,0.366 1.513,-0.075 1.601,-0.66 0.096,-0.641 0.29,-1.346 0.123,-1.933 -0.637,-2.235 -0.984,-4.521 -1.43,-6.793 -0.783,-3.983 -0.594,-7.891 0.306,-11.823 1.222,-5.337 2.832,-10.551 4.806,-15.651 2.571,-6.643 4.989,-13.336 6.862,-20.215 1.306,-4.799 2.549,-9.599 2.482,-14.644 -0.031,-2.345 -0.358,-4.6 -0.992,-6.853 m -126.424,132.053 c -6.445,0.289 -11.864,2.775 -16.569,7.019 -6.131,5.532 -9.691,12.507 -11.387,20.511 -1.207,5.695 -1.655,11.479 -1.884,17.274 -0.361,9.137 -1.645,18.139 -3.563,27.067 -1.439,6.699 -3.885,12.997 -7.4,18.879 -0.212,0.355 -0.203,0.69 0.127,0.848 0.253,0.121 0.649,0.224 0.857,0.109 0.867,-0.477 1.678,-1.055 2.526,-1.57 4.023,-2.444 8.318,-4.087 13.062,-4.392 3.386,-0.083 5.867,-0.092 8.311,0.527 8.088,2.05 13.714,7.075 17.433,14.4 0.671,1.322 1.233,2.699 1.86,4.044 0.172,0.367 1.006,0.594 1.3,0.376 0.394,-0.291 0.841,-0.531 1.177,-0.877 0.692,-0.713 1.307,-1.5 1.988,-2.224 3.079,-3.276 6.462,-6.199 10.245,-8.634 3.362,-2.166 6.926,-3.869 10.855,-4.798 7.744,-1.831 14.429,-0.056 20.004,5.677 0.807,0.83 1.57,1.703 2.362,2.548 0.374,0.399 1.014,0.535 1.292,0.193 0.294,-0.363 0.732,-0.839 0.685,-1.212 -0.265,-2.13 -0.734,-4.236 -0.979,-6.367 -0.207,-1.805 -0.377,-3.645 -0.262,-5.45 0.434,-6.801 1.462,-13.515 3.724,-19.973 1.039,-2.967 2.207,-5.9 3.505,-8.763 2.753,-6.072 4.733,-12.382 5.976,-18.913 0.526,-2.761 0.841,-5.579 1.017,-8.386 0.209,-3.33 -0.282,-6.626 -1.286,-9.809 -1.237,-3.92 -3.501,-7.07 -7.034,-9.319 -2.813,-1.791 -5.731,-3.324 -8.869,-4.438 -2.029,-0.721 -4.084,-1.372 -6.109,-2.107 -6.288,-2.283 -10.613,-6.585 -13.063,-12.793 -0.242,-0.613 -0.402,-1.266 -0.713,-1.838 -0.093,-0.172 -0.65,-0.278 -0.854,-0.163 -0.418,0.234 -0.777,0.606 -1.098,0.976 -2.655,3.064 -5.961,5.224 -9.554,7.017 -5.574,2.781 -11.499,4.283 -17.682,4.561 m -65.273,94.955 c -1.557,-5.4 -2.532,-10.961 -2.695,-16.643 -0.081,-2.799 -0.616,-5.587 -0.989,-8.373 -0.064,-0.474 -0.307,-0.941 -0.542,-1.371 -0.76,-1.391 -2.768,-1.614 -3.795,-0.41 -0.426,0.5 -0.859,1.038 -1.112,1.634 -0.451,1.064 -0.887,2.161 -1.116,3.288 -0.594,2.921 -1.127,5.856 -1.588,8.801 -2.639,16.868 -8.849,32.225 -19.449,45.686 -7.828,9.941 -17.372,17.743 -29.126,22.654 -5.684,2.375 -11.543,4.063 -17.729,4.587 -3.631,0.307 -7.253,0.696 -10.898,0.812 -1.751,0.056 -3.174,0.842 -4.333,2.134 -0.77,0.859 -0.733,2.384 0.131,3.153 0.357,0.318 0.796,0.637 1.247,0.741 0.8,0.184 1.637,0.21 2.46,0.291 6.636,0.65 13.023,2.386 19.326,4.472 7.58,2.509 14.836,5.719 21.643,9.922 10.009,6.179 18.564,13.894 25.096,23.736 6.251,9.419 10.103,19.718 11.197,31.006 0.176,1.814 0.409,3.624 0.537,5.441 0.069,0.987 0.215,2.07 -0.095,2.964 -0.827,2.39 0.076,4.595 0.516,6.827 0.388,1.969 3.486,2.605 4.875,1.079 0.434,-0.478 0.837,-1.055 1.04,-1.658 0.533,-1.579 0.877,-3.224 0.582,-4.894 -1.327,-7.522 -0.185,-14.907 1.538,-22.174 2.436,-10.282 6.858,-19.691 13.456,-28.017 9.52,-12.015 21.826,-19.628 36.678,-23.207 6.156,-1.483 12.399,-2.138 18.736,-1.908 2.484,0.091 4.973,0.077 7.459,0.073 0.838,-10e-4 1.599,-0.294 2.321,-0.762 1.893,-1.228 2.591,-3.054 2.317,-5.146 -0.393,-3.004 -2.048,-5.218 -4.908,-6.353 -2.002,-0.795 -4.062,-1.445 -6.247,-1.546 -6.869,-0.32 -13.366,-2.273 -19.789,-4.536 -1.092,-0.385 -2.143,-0.888 -3.213,-1.336 -22.929,-10.459 -36.827,-27.721 -43.531,-50.967 m -7.607,-158.777 c 19.088,-45.172 42.073,-88.277 68.483,-129.581 22.464,-35.131 47.287,-68.506 74.289,-100.275 20.111,-23.661 41.445,-46.164 64.005,-67.495 34.796,-32.901 72.068,-62.681 112.361,-88.622 15.343,-9.879 31.037,-19.166 47.024,-27.964 9.588,-5.277 19.23,-10.449 29.081,-15.225 1.781,-0.864 3.457,-1.944 5.169,-2.946 0.077,-0.046 0.074,-0.322 0.025,-0.462 -0.044,-0.126 -0.194,-0.293 -0.31,-0.304 -1.192,-0.112 -2.262,0.331 -3.324,0.788 -4.72,2.029 -9.455,4.023 -14.154,6.102 -29.528,13.064 -57.135,29.504 -83.723,47.724 -30.982,21.231 -60.091,44.796 -87.624,70.33 -22.769,21.114 -44.304,43.415 -64.756,66.776 -26.922,30.75 -51.549,63.242 -74.106,97.311 -17.135,25.878 -32.869,52.584 -47.21,80.112 -16.568,31.803 -31.08,64.51 -43.361,98.206 -9.603,26.349 -17.727,53.143 -24.168,80.437 -3.35,14.2 -6.267,28.492 -8.476,42.921 -0.176,1.146 -0.429,2.28 -0.646,3.42 -0.983,7.269 -1.885,13.672 -2.724,20.084 -0.387,2.959 -0.695,5.93 -0.958,8.903 -0.497,5.617 -0.949,11.237 -1.382,16.859 -0.063,0.813 0.036,1.648 0.161,2.458 0.028,0.184 0.51,0.469 0.722,0.424 0.636,-0.136 1.246,-0.4 1.858,-0.637 0.679,-0.263 1.079,-0.832 1.176,-1.492 0.267,-1.803 0.506,-3.615 0.639,-5.432 0.678,-9.265 1.797,-18.48 2.955,-27.695 1.426,-11.358 3.291,-22.643 5.433,-33.878 2.608,-13.679 5.738,-27.248 9.259,-40.725 8.943,-34.225 20.516,-67.546 34.282,-100.122 m 100.168,300.79 c 0.009,0.077 0.275,0.195 0.404,0.174 0.317,-0.051 0.624,-0.171 0.935,-0.263 1.174,-1 2.049,-1.463 2.863,-2.016 4.089,-2.779 8.666,-4.271 13.534,-4.449 8.133,-0.298 14.854,2.852 20.056,9.134 1.593,1.923 2.897,4.041 3.928,6.322 0.409,0.904 0.83,1.803 1.271,2.691 0.365,0.734 1.463,0.83 2.076,0.16 0.669,-0.732 1.295,-1.505 1.929,-2.268 4.56,-5.493 10.22,-9.401 16.952,-11.759 3.161,-1.107 6.407,-1.66 9.77,-1.501 5.029,0.238 9.358,2.001 12.799,5.75 0.784,0.854 1.536,1.737 2.323,2.588 0.445,0.481 1.351,0.674 1.813,0.415 0.618,-0.347 0.94,-0.924 1.092,-1.583 0.073,-0.313 0.068,-0.667 0.006,-0.984 -0.096,-0.485 -0.241,-0.966 -0.419,-1.428 -2.159,-5.618 -2.032,-11.334 -0.854,-17.13 1.195,-5.877 3.315,-11.448 5.393,-17.041 1.616,-4.349 3.236,-8.701 4.685,-13.107 1.721,-5.233 2.578,-10.622 2.387,-16.156 -0.116,-3.342 -0.709,-6.595 -1.838,-9.732 -0.502,-1.396 -1.153,-2.754 -1.871,-4.054 -1.909,-3.458 -4.588,-6.063 -8.439,-7.306 -1.733,-0.56 -3.436,-1.22 -5.182,-1.736 -2.553,-0.754 -5.02,-1.705 -7.376,-2.941 -4.237,-2.225 -7.621,-5.252 -9.343,-9.875 -0.284,-0.76 -0.763,-1.46 -1.242,-2.123 -0.101,-0.14 -0.602,-0.028 -0.907,0.029 -0.141,0.027 -0.302,0.178 -0.373,0.315 -1.535,2.94 -4.135,4.739 -6.937,6.217 -5.475,2.888 -11.199,4.976 -17.518,4.983 -2.869,0.003 -5.543,0.919 -8.141,2.06 -8.444,3.708 -14.382,9.942 -18.185,18.25 -1.805,3.943 -2.869,8.095 -3.228,12.453 -0.354,4.298 -0.652,8.596 -0.876,12.904 -0.223,4.304 -0.51,8.613 -1.005,12.892 -1.155,9.999 -3.965,19.471 -9.435,28.032 -0.484,0.859 -0.811,1.017 -0.98,1.278 -0.131,0.203 -0.098,0.538 -0.067,0.805 m 122.595,83.713 c 0.139,0.052 0.324,0.07 0.46,0.022 0.303,-0.108 0.623,-0.222 0.876,-0.413 0.659,-0.501 1.271,-1.064 1.928,-1.568 2.684,-2.059 5.757,-3.214 9.034,-3.926 12.008,-2.607 23.695,3.747 29.369,13.887 0.725,1.295 1.363,2.639 2.108,3.922 0.1,0.172 0.659,0.25 0.888,0.136 0.428,-0.213 0.806,-0.565 1.14,-0.921 1.361,-1.449 2.669,-2.949 4.051,-4.378 2.661,-2.753 5.587,-5.19 8.917,-7.101 3.327,-1.91 6.812,-3.348 10.672,-3.86 6.657,-0.883 12.468,0.777 17.341,5.45 0.954,0.915 1.78,1.962 2.681,2.933 0.334,0.361 0.667,0.779 1.09,0.984 0.399,0.192 0.984,0.302 1.364,0.146 0.387,-0.159 0.839,-0.662 0.881,-1.055 0.086,-0.804 0.06,-1.679 -0.173,-2.448 -1.325,-4.352 -1.5,-8.728 -1.009,-13.259 1.135,-10.475 3.838,-20.493 8.143,-30.083 2.056,-4.58 3.183,-9.403 4.027,-14.303 0.393,-2.282 0.619,-4.605 0.735,-6.919 0.227,-4.527 -0.274,-8.935 -2.596,-12.972 -1.513,-2.63 -3.464,-4.844 -6.004,-6.522 -2.636,-1.742 -5.429,-3.164 -8.394,-4.278 -3.572,-1.342 -7.048,-2.907 -10.224,-5.057 -1.096,-0.741 -2.189,-1.503 -3.193,-2.361 -1.517,-1.297 -2.869,-2.742 -3.702,-4.616 -0.603,-1.355 -1.311,-2.662 -2.4,-3.717 -0.264,-0.256 -1.112,-0.189 -1.355,0.119 -0.101,0.128 -0.292,0.205 -0.354,0.344 -1.949,4.42 -5.703,6.728 -9.93,8.464 -3.869,1.589 -7.925,2.435 -12.085,2.603 -11.588,0.467 -20.01,6.231 -26.186,15.643 -3.414,5.203 -5.258,10.994 -5.978,17.206 -0.535,4.62 -0.825,9.232 -0.89,13.875 -0.028,1.981 -0.302,3.96 -0.48,5.939 -0.074,0.825 -0.256,1.644 -0.273,2.469 -0.096,4.653 -0.842,9.234 -1.486,13.826 -1.136,5.394 -2.889,9.678 -4.74,13.94 -1.14,2.625 -3.089,4.689 -4.556,7.08 -0.21,0.342 -0.109,0.617 0.303,0.769 m 18.027,-238.628 c 0.009,0.608 0.411,0.703 0.85,0.732 5.803,0.381 11.528,1.309 17.229,2.414 13.245,3.154 24.653,8.275 34.722,16.218 1.821,1.437 3.517,3.03 5.259,4.565 0.866,0.765 1.704,1.561 2.596,2.381 3.806,0.323 7.598,0.497 11.587,0.425 -0.146,-0.589 -0.119,-1.145 -0.383,-1.436 -2.454,-2.713 -5.171,-5.144 -8.082,-7.362 -8.278,-6.306 -17.482,-10.796 -27.421,-13.753 -11.373,-3.384 -23.004,-4.924 -34.883,-4.379 -0.492,0.022 -0.981,0.128 -1.474,0.195 m 113.054,5.85 c 5.596,-1.55 11.294,-2.557 17.069,-3.279 6.292,-0.785 12.584,-0.942 18.875,-0.614 12.498,0.653 24.68,2.897 36.215,8.002 6.727,2.977 12.892,6.812 18.315,11.81 0.719,0.662 1.292,1.539 2.341,1.757 0.81,-0.423 1.079,-1.199 1.318,-1.986 1.346,-4.441 2.768,-8.862 4.01,-13.332 3.107,-11.19 5.551,-22.521 7.271,-34.015 1.325,-8.86 2.28,-17.747 3.012,-26.677 0.924,-11.269 0.857,-22.539 0.758,-33.818 -0.079,-8.963 -0.861,-17.881 -1.71,-26.8 -0.598,-6.277 -1.398,-12.523 -2.321,-18.754 -1.093,-7.379 -2.426,-14.719 -4.013,-22.009 -3.141,-14.428 -7.033,-28.65 -11.92,-42.588 -8.098,-23.096 -18.47,-45.095 -31.845,-65.631 -9.267,-14.229 -19.813,-27.42 -32.017,-39.256 -1.548,-1.501 -3.116,-2.983 -4.714,-4.431 -0.469,-0.424 -1.075,-0.695 -1.693,-1.083 -0.78,0.503 -1.499,0.908 -2.155,1.398 -10.766,8.038 -21.629,15.953 -31.931,24.592 -12.088,10.137 -23.599,20.892 -34.411,32.386 -3.296,3.504 -6.576,7.024 -9.864,10.537 -7.057,7.986 -13.543,15.533 -19.769,23.304 -16.943,21.146 -32.081,43.512 -45.526,67.029 -11.54,20.185 -21.705,41.032 -30.186,62.693 -6.597,16.852 -12.104,34.049 -16.216,51.673 -2.45,10.495 -4.514,21.073 -5.617,31.811 -0.525,5.113 -1.014,10.229 -1.492,15.346 -0.06,0.651 -0.01,1.326 0.102,1.97 0.036,0.208 0.451,0.514 0.663,0.492 0.473,-0.049 0.951,-0.227 1.385,-0.438 3.874,-1.888 7.743,-3.787 11.606,-5.699 1.039,-0.515 2.062,-1.067 3.072,-1.637 10.512,-5.943 21.792,-9.676 33.686,-11.561 9.879,-1.566 19.843,-1.795 29.778,-0.939 10.788,0.93 21.253,3.451 31.274,7.657 7.695,3.23 14.86,7.332 21.245,12.75 2.282,1.937 4.433,3.998 6.388,6.264 0.432,0.502 0.874,0.996 1.326,1.48 0.462,0.493 1.295,0.65 1.81,0.305 1.101,-0.737 2.245,-1.428 3.258,-2.274 9.599,-8.019 20.666,-13.124 32.623,-16.435 m 90.643,21.358 c 0.006,-0.292 -0.033,-0.665 -0.208,-0.867 -2.186,-2.52 -4.734,-4.633 -7.432,-6.581 -5.286,-3.818 -11.075,-6.668 -17.178,-8.888 -2.489,-0.906 -5.054,-1.602 -7.585,-2.393 -5.446,-1.38 -10.154,-2.285 -14.935,-2.905 -6.786,-0.88 -13.572,-0.79 -20.37,-0.484 -1.48,0.066 -2.945,0.425 -4.419,0.638 -1.308,0.189 -2.617,0.365 -3.927,0.538 -0.162,0.022 -0.33,-0.007 -0.496,-0.013 0.003,-0.002 0.006,-0.004 -0.168,0.128 2.16,-0.091 4.143,-0.2 6.127,-0.254 9.512,-0.254 18.866,0.703 28,3.529 10.171,3.147 19.135,8.28 26.649,15.87 0.466,0.471 0.965,0.908 1.458,1.351 0.121,0.11 0.277,0.181 0.417,0.27 3.29,0.452 9.607,0.721 13.366,0.585 0.408,-0.015 0.695,-0.145 0.701,-0.524 m -81.531,144.573 c 0.109,0.099 0.27,0.205 0.406,0.201 0.92,-0.024 1.448,-0.733 2.068,-1.254 3.267,-2.746 7.059,-4.192 11.246,-4.881 7.086,-1.167 13.48,0.5 19.349,4.443 3.93,2.64 6.901,6.173 9.148,10.322 0.55,1.015 1.036,2.065 1.563,3.093 0.176,0.342 1.049,0.462 1.315,0.183 1.14,-1.197 2.282,-2.392 3.403,-3.607 2.595,-2.811 5.374,-5.416 8.579,-7.526 3.918,-2.579 8.095,-4.487 12.822,-5.069 6.473,-0.797 12.147,0.858 16.91,5.354 1.321,1.246 2.458,2.685 3.755,3.959 0.297,0.292 0.904,0.354 1.371,0.363 0.497,0.01 1.15,-0.909 1.099,-1.467 -0.076,-0.818 -0.064,-1.683 -0.341,-2.435 -0.756,-2.058 -0.836,-4.224 -1.153,-6.348 -0.17,-1.137 -0.166,-2.322 -0.074,-3.473 0.903,-11.33 3.545,-22.242 8.183,-32.624 2.392,-5.354 3.807,-10.93 4.519,-16.717 0.162,-1.316 0.331,-2.632 0.473,-3.95 0.342,-3.165 0.044,-6.297 -0.616,-9.391 -0.526,-2.469 -1.764,-4.631 -3.174,-6.697 -3.189,-4.086 -6.947,-6.166 -10.91,-7.933 -1.966,-0.877 -3.977,-1.654 -5.968,-2.476 -2.617,-1.081 -5.044,-2.506 -7.38,-4.09 -2.643,-1.792 -4.918,-3.906 -6.273,-6.895 -0.473,-1.044 -1.186,-1.981 -1.813,-2.952 -0.32,-0.495 -1.407,-0.529 -1.732,-0.091 -0.097,0.131 -0.282,0.212 -0.342,0.353 -1.829,4.291 -5.46,6.536 -9.5,8.252 -4.003,1.7 -8.223,2.582 -12.558,2.759 -11.6,0.474 -19.988,6.315 -26.151,15.72 -3.411,5.205 -5.182,11.016 -5.957,17.223 -0.578,4.626 -0.709,9.245 -0.861,13.881 -0.064,1.983 -0.321,3.961 -0.497,5.94 -0.102,1.155 -0.294,2.308 -0.314,3.465 -0.068,3.826 -0.67,7.594 -1.242,11.358 -0.956,6.29 -3.207,12.163 -6.242,17.725 -0.944,1.729 -2.21,3.281 -3.311,4.925 -0.036,0.054 0.1,0.266 0.2,0.357 M -132.599,307.25 c 0.317,-0.024 0.671,0.009 0.939,-0.124 0.44,-0.218 0.823,-0.552 1.232,-0.834 0.547,-0.376 1.081,-0.771 1.645,-1.118 6.063,-3.745 12.657,-4.821 19.6,-3.611 3.995,0.696 7.485,2.624 10.574,5.249 2.818,2.395 5.046,5.256 6.701,8.561 0.59,1.179 1.149,2.373 1.761,3.642 0.58,-0.202 1.143,-0.233 1.427,-0.531 0.681,-0.714 1.219,-1.564 1.836,-2.342 2.809,-3.544 6.114,-6.543 9.995,-8.867 4.506,-2.698 9.357,-4.114 14.669,-3.969 5.209,0.143 9.687,2 13.578,5.37 0.999,0.866 1.875,1.874 2.801,2.824 0.583,0.599 1.287,0.762 1.737,0.431 0.57,-0.42 0.896,-0.994 0.914,-1.675 0.013,-0.483 -0.157,-0.97 -0.24,-1.456 -0.167,-0.979 -0.331,-1.958 -0.495,-2.937 -1.32,-6.115 -1.175,-11.383 0.378,-16.558 1.999,-6.664 4.122,-13.291 6.227,-19.923 0.902,-2.843 1.872,-5.664 2.847,-8.482 1.032,-2.988 1.7,-6.06 2.208,-9.172 0.849,-5.209 0.196,-10.271 -1.755,-15.128 -1.987,-4.947 -5.318,-8.763 -10.205,-11.074 -1.495,-0.707 -3.049,-1.288 -4.57,-1.942 -1.825,-0.784 -3.691,-1.493 -5.457,-2.395 -5.296,-2.706 -9.583,-6.483 -12.288,-11.892 -0.601,-1.202 -1.335,-1.248 -2.133,-0.065 -2.221,3.294 -5.389,5.276 -8.926,6.883 -4.6,2.09 -9.461,3.018 -14.427,3.476 -6.34,0.585 -11.838,3.012 -16.544,7.253 -2.608,2.351 -4.69,5.144 -6.447,8.171 -2.602,4.483 -4.325,9.298 -5.409,14.362 -1.186,5.54 -1.517,11.169 -1.693,16.798 -0.298,9.511 -1.891,18.765 -4.822,27.82 -1.393,4.301 -3.255,8.325 -5.908,11.984 -0.314,0.434 -0.118,1.298 0.25,1.271 m 5.811,149.909 c 0.036,0.064 0.313,0.066 0.42,0.001 0.983,-0.604 1.949,-1.232 2.926,-1.846 4.444,-2.794 9.265,-4.402 14.537,-4.48 7.399,-0.109 13.54,2.723 18.529,8.117 2.156,2.33 3.856,4.968 5.09,7.906 0.249,0.593 0.651,1.145 1.082,1.627 0.152,0.171 0.727,0.223 0.889,0.08 0.61,-0.537 1.203,-1.125 1.671,-1.787 2.327,-3.291 5.259,-5.944 8.493,-8.308 4.116,-3.008 8.735,-4.74 13.751,-5.348 4.766,-0.578 9.245,0.534 13.335,3 1.548,0.934 2.922,2.167 4.329,3.32 0.766,0.628 1.431,1.378 2.15,2.064 0.247,0.236 1.153,0.247 1.397,-0.003 0.22,-0.225 0.48,-0.482 0.548,-0.766 0.114,-0.473 0.164,-0.987 0.108,-1.469 -0.134,-1.151 -0.275,-2.31 -0.538,-3.436 -1.074,-4.59 -1.007,-9.205 -0.4,-13.839 2.741,-10.464 6.041,-19.844 9.197,-29.267 1.319,-3.938 2.439,-7.913 2.97,-12.042 0.696,-5.408 -0.188,-10.578 -2.438,-15.506 -1.922,-4.209 -4.977,-7.43 -9.087,-9.551 -1.905,-0.984 -3.931,-1.749 -5.939,-2.515 -4.7,-1.794 -8.971,-4.22 -12.536,-7.851 -1.887,-1.922 -3.384,-4.063 -4.574,-6.454 -0.282,-0.567 -1.319,-0.629 -1.684,-0.075 -3.536,5.368 -9.077,7.549 -14.873,9.204 -2.693,0.769 -5.486,1.156 -8.317,1.385 -6.465,0.523 -12.193,2.93 -16.985,7.395 -4.206,3.919 -7.184,8.668 -9.286,13.969 -1.841,4.642 -2.998,9.463 -3.504,14.445 -0.435,4.291 -0.695,8.585 -0.842,12.898 -0.349,10.187 -2.497,20.03 -6.069,29.568 -0.817,2.182 -1.911,4.223 -3.186,6.173 -0.538,0.823 -1.054,1.665 -1.492,2.543 -0.093,0.188 0.175,0.58 0.328,0.848 M 0.466,11.096 c -1.466,0.254 -2.951,0.45 -4.435,0.547 -3.39,0.222 -6.468,1.349 -9.383,3.024 -2.753,1.581 -5.238,3.514 -7.435,5.792 -6.562,6.808 -10.941,14.9 -14.056,23.787 1.455,3.135 2.886,6.183 4.285,9.238 0.319,0.638 0.629,1.28 0.923,1.929 5.695,12.532 10.936,25.252 15.711,38.161 10.601,28.663 18.824,58.007 24.95,87.936 2.095,10.231 3.889,20.519 5.454,30.849 1.366,9.02 2.587,18.057 3.55,27.123 0.999,9.398 1.826,18.813 2.448,28.25 0.064,0.979 0.113,1.961 0.172,2.94 0.029,0.414 0.062,0.827 0.089,1.24 0.384,5.792 0.671,11.593 0.851,17.395 0.035,1.099 0.047,2.198 0.077,3.297 0.114,3.277 0.223,6.576 0.326,9.921 0.103,12.024 0.154,23.617 -0.368,35.176 -0.008,0.29 -0.011,0.581 -0.019,0.871 -0.082,2.796 -0.235,5.59 -0.395,8.384 -0.205,5.248 -0.397,10.496 -0.917,15.73 -0.393,3.952 -0.21,7.955 -1.144,11.863 -0.228,0.954 -0.12,1.984 -0.226,2.972 -0.118,1.088 0.246,2.238 -0.42,3.387 -0.005,-3.115 -0.075,-6.098 0.426,-9.063 0.164,-0.976 0.184,-1.983 0.193,-2.977 0.102,-11.776 0.278,-23.552 0.255,-35.328 -0.005,-2.692 -0.024,-5.385 -0.057,-8.076 -0.157,-6.581 -0.405,-13.16 -0.715,-19.735 -0.525,-11.096 -1.342,-22.18 -2.484,-33.24 -0.869,-8.414 -1.765,-16.821 -2.949,-25.197 -0.51,-3.611 -0.963,-7.231 -1.513,-11.28 -0.572,-3.372 -1.097,-6.308 -1.568,-9.252 C 9.999,213.657 7.336,200.667 4.387,187.733 -1.814,160.544 -9.786,133.882 -19.367,107.695 -24.724,93.053 -30.581,78.616 -36.996,64.406 c -0.474,-1.049 -1.052,-2.056 -1.649,-3.042 -0.116,-0.19 -0.55,-0.186 -0.839,-0.272 -1.775,3.373 -1.531,6.697 0.23,9.987 0.079,0.146 0.15,0.297 0.217,0.448 11.045,24.701 20.488,49.995 28.239,75.924 5.701,19.072 10.573,38.351 14.655,57.829 2.312,11.035 4.334,22.13 6.045,33.273 1.434,9.34 2.635,18.716 3.871,28.085 0.499,3.781 0.869,7.58 1.202,11.38 0.507,5.782 0.954,11.569 1.386,17.358 0.901,12.077 1.532,24.166 1.658,36.281 0.156,15.102 -0.146,30.191 -1.004,45.268 -0.368,6.458 -0.767,12.916 -1.235,19.367 -0.3,4.135 -0.716,8.262 -1.146,12.385 -0.447,4.288 -0.924,8.575 -1.478,12.85 -0.852,6.576 -1.734,13.149 -2.691,19.711 -0.933,6.396 -1.984,12.775 -2.958,19.165 -0.072,0.472 -0.131,1.135 0.125,1.435 1.16,1.362 0.699,2.851 0.393,4.264 -1.119,5.183 -2.322,10.348 -3.517,15.514 -0.219,0.947 -0.549,1.869 -0.772,2.615 -11.757,6.916 -14.953,9.166 -23.046,15.21 -11.979,8.947 -23.21,18.777 -33.984,29.132 -8.136,7.819 -15.999,15.904 -23.572,24.274 -12.146,13.425 -23.546,27.442 -33.86,42.327 -5.483,7.912 -10.582,16.064 -15.089,24.578 -2.097,3.961 -3.981,8.019 -5.647,12.178 -0.333,0.831 -0.947,1.439 -1.783,1.583 -4.079,0.706 -8.01,2.124 -12.167,2.473 -1.476,0.124 -2.967,0.403 -4.385,0.828 -6.029,1.807 -12.139,3.343 -18.025,5.633 -3.237,1.26 -6.578,2.286 -9.93,3.21 -2.247,0.62 -4.423,1.365 -6.575,2.245 -7.059,2.887 -14.026,5.976 -20.949,9.173 -4.213,1.946 -8.52,3.695 -12.692,5.724 -7.006,3.406 -13.941,6.96 -20.898,10.466 -1.184,0.596 -2.326,1.276 -3.496,1.901 -2.631,1.406 -5.237,2.863 -7.908,4.188 -5.799,2.877 -11.438,6.036 -16.913,9.481 -6.597,4.15 -13.259,8.176 -20.288,11.567 -2.09,1.009 -4.133,2.114 -6.22,3.128 -1.49,0.724 -2.98,1.472 -4.533,2.034 -18.566,6.721 -37.651,10.479 -57.475,9.982 -6.819,-0.172 -13.539,-1.099 -20.202,-2.514 -13.683,-2.907 -25.942,-9.001 -37.386,-16.847 -7.794,-5.344 -15.559,-10.724 -23.573,-15.742 -12.096,-7.572 -24.406,-14.755 -37.286,-20.922 -5.232,-2.505 -10.416,-5.147 -15.788,-7.316 -7.986,-3.224 -15.879,-6.7 -24.056,-9.447 -3.456,-1.161 -6.846,-2.544 -10.35,-3.529 -4.461,-1.254 -8.997,-2.246 -13.518,-3.275 -3.39,-0.772 -6.807,-1.421 -10.211,-2.135 -0.642,-0.135 -1.151,-0.716 -1.245,-1.373 -0.492,-3.445 -0.849,-6.915 -1.496,-10.331 -2.043,-10.78 -5.198,-21.237 -9.262,-31.431 -8.404,-21.08 -19.694,-40.534 -33.033,-58.841 -0.486,-0.667 -1.02,-1.3 -1.548,-1.935 -0.428,-0.515 -1.23,-0.427 -1.694,0.166 -0.103,0.131 -0.207,0.26 -0.307,0.392 -0.763,1.01 -1.056,2.065 -0.258,3.194 1.052,1.49 2.113,2.974 3.18,4.455 7.867,10.92 14.885,22.36 20.976,34.364 6.619,13.048 12.089,26.545 15.877,40.7 1.373,5.131 2.363,10.34 3.224,15.574 0.21,1.273 0.577,2.618 -0.153,3.868 -0.303,0.163 -0.572,0.367 -0.875,0.462 -6.96,2.176 -13.923,4.341 -20.887,6.501 -0.313,0.097 -0.656,0.201 -0.969,0.163 -0.3,-0.037 -0.718,-0.178 -0.84,-0.405 -0.309,-0.576 -0.573,-1.207 -0.693,-1.847 -1.442,-7.675 -3.627,-15.148 -6.151,-22.524 -5.708,-16.689 -13.286,-32.521 -22.028,-47.814 -0.159,-0.278 -0.39,-0.522 -0.617,-0.752 -0.106,-0.108 -0.333,-0.241 -0.42,-0.196 -0.254,0.129 -0.642,0.322 -0.665,0.526 -0.425,3.629 -0.616,7.271 -0.361,10.922 0.135,1.925 -0.564,3.547 -1.583,5.118 -2.304,3.555 -7.461,3.095 -9.651,0.969 -1.353,-1.314 -2.25,-2.869 -2.382,-4.784 -0.079,-1.158 -0.109,-2.32 -0.136,-3.481 -0.109,-4.487 -0.516,-8.962 -1.336,-13.357 -2.627,-14.072 -8.967,-26.27 -18.929,-36.573 -8.433,-8.723 -18.457,-15.081 -29.538,-19.851 -8.57,-3.689 -17.57,-5.945 -26.682,-7.802 -0.971,-0.198 -1.978,-0.298 -2.903,-0.627 -1.472,-0.522 -2.58,-1.552 -3.036,-3.073 -0.542,-1.804 -0.52,-3.636 0.509,-5.286 1.673,-2.681 4.008,-4.392 7.271,-4.543 1.158,-0.053 2.336,-0.116 3.48,0.031 3.701,0.476 7.254,-0.402 10.826,-1.088 0.414,-0.079 0.752,-0.556 1.107,-0.835 -0.388,-0.914 -1.171,-1.258 -1.863,-1.688 -1.407,-0.875 -2.86,-1.68 -4.244,-2.589 -0.709,-0.466 -1.173,-1.193 -1.162,-2.088 0.034,-2.819 -0.052,-5.65 0.181,-8.454 0.619,-7.439 0.488,-14.92 1.417,-22.343 0.597,-4.769 0.769,-9.591 1.379,-14.357 1.074,-8.383 2.186,-16.762 3.551,-25.109 1.846,-11.292 3.997,-22.524 6.523,-33.677 4.506,-19.894 9.963,-39.53 16.319,-58.915 8.997,-27.443 19.641,-54.231 31.71,-80.463 13.95,-30.317 29.748,-59.64 47.221,-88.063 4.341,-7.061 8.854,-14.018 13.342,-20.987 8.085,-12.552 16.527,-24.861 25.328,-36.923 7.625,-10.451 15.294,-20.874 23.407,-30.95 19.367,-24.049 39.978,-47.004 61.45,-69.186 14.197,-14.666 28.856,-28.855 43.954,-42.594 12.642,-11.503 25.592,-22.643 38.808,-33.478 0.765,-0.627 1.544,-1.329 2.439,-1.689 2.051,-0.824 3.672,-2.247 5.371,-3.555 24.609,-18.945 50.243,-36.365 77.127,-51.929 17.088,-9.894 34.572,-19.024 52.612,-27.07 1.967,-0.877 3.963,-1.692 5.956,-2.511 1.463,-0.601 2.854,-0.582 4.241,0.354 4.261,2.876 8.561,5.696 12.845,8.539 1.052,0.699 1.456,1.683 1.5,2.944 0.301,8.619 0.651,17.238 0.965,25.857 0.017,0.481 -0.139,0.968 -0.205,1.397 -1.201,1.089 -2.69,1.409 -4.061,1.954 -14.504,5.766 -28.541,12.508 -42.196,20.062 -14.962,8.277 -29.394,17.404 -43.494,27.065 -30.728,21.054 -59.287,44.771 -86.242,70.44 -22.003,20.954 -42.825,43.03 -62.572,66.126 -18.015,21.069 -35.06,42.892 -51.188,65.435 -25.517,35.664 -48.528,72.874 -68.84,111.742 -14.99,28.683 -28.369,58.097 -39.864,88.358 -13.391,35.253 -24.015,71.288 -30.833,108.417 -2.277,12.403 -3.941,24.881 -5.395,37.396 -0.037,0.319 0.032,0.658 0.096,0.979 0.022,0.109 0.165,0.233 0.279,0.275 0.15,0.055 0.4,0.112 0.482,0.035 0.837,-0.79 1.68,-1.579 2.46,-2.424 0.811,-0.879 1.194,-1.953 1.311,-3.153 0.702,-7.264 1.815,-14.47 2.938,-21.678 1.532,-9.833 3.422,-19.594 5.571,-29.304 3.905,-17.65 8.731,-35.054 14.19,-52.287 9.072,-28.644 19.987,-56.577 32.426,-83.914 13.475,-29.611 28.631,-58.35 45.281,-86.298 28.083,-47.139 59.951,-91.556 95.759,-133.141 19.393,-22.522 39.775,-44.093 61.406,-64.485 15.339,-14.46 31.195,-28.316 47.63,-41.518 25.785,-20.711 52.891,-39.473 81.739,-55.686 13.74,-7.722 27.754,-14.902 42.085,-21.46 0.731,-0.335 1.54,-0.501 2.122,-0.685 1.896,1.218 3.552,2.316 5.24,3.36 21.676,13.405 41.51,29.168 59.855,46.824 14.971,14.41 28.604,30.014 41.238,46.5 6.763,8.824 13.168,17.903 19.371,27.128 0.552,0.822 1.155,1.615 1.803,2.362 0.172,0.198 0.654,0.317 0.905,0.226 3.379,-1.216 3.866,-1.772 2.042,-4.362 -0.573,-0.814 -1.1,-1.659 -1.655,-2.485 -7.408,-11.019 -15.273,-21.7 -23.599,-32.045 -17.314,-21.513 -36.268,-41.431 -57.494,-59.136 -11.096,-9.255 -22.691,-17.829 -34.982,-25.443 -2.538,-1.572 -5.104,-3.098 -7.64,-4.673 -1.359,-0.844 -2.05,-2.032 -2.046,-3.708 0.015,-6.636 -0.046,-13.272 -0.067,-19.908 -0.002,-0.494 0.084,-0.988 0.132,-1.481 0.039,-0.399 0.804,-0.7 1.182,-0.452 0.689,0.452 1.392,0.89 2.051,1.384 18.343,13.747 35.711,28.642 52.247,44.507 10.659,10.226 20.942,20.821 30.729,31.888 7.694,8.7 15.17,17.582 22.353,26.711 9.444,12 18.357,24.379 26.788,37.108 0.726,1.096 1.525,2.143 2.392,3.354 0.638,-0.497 1.205,-0.83 1.635,-1.291 2.275,-2.441 4.099,-5.213 5.741,-8.102 5.244,-9.226 8.159,-19.179 9.215,-29.707 0.298,-2.969 0.532,-5.949 0.946,-8.903 0.519,-3.704 3.401,-5.973 6.931,-5.698 3.666,0.285 7.038,3.975 6.829,7.333 -0.146,2.33 -0.076,4.641 0.171,6.95 0.247,2.307 0.593,4.604 0.847,6.911 0.808,7.335 2.919,14.296 6.236,20.858 3.322,6.57 7.47,12.551 13.473,17.016 5.012,3.727 10.434,6.482 16.866,6.52 3.243,0.019 7.031,3.38 7.31,7.53 0.304,4.531 -3.298,8.258 -6.544,8.821"
       style="fill:#d2451e;fill-opacity:1;fill-rule:nonzero;stroke:none"
       transform="matrix(1.3333333,0,0,-1.3333333,6989.7701,1089.2119)"
       clip-path="url(#clipPath346)" />
    <path
       id="path347"
       d="m 0,0 c -3.205,2.63 -6.37,5.311 -9.516,8.011 -3.021,2.592 -6.007,5.225 -8.984,7.868 -3.1,2.754 -6.17,5.541 -9.512,8.553 -2.944,2.71 -5.655,5.154 -8.311,7.656 -17.508,16.502 -34.574,33.449 -51.006,51.022 -7.816,8.358 -15.4,16.933 -23.066,25.431 -2.333,2.586 -4.587,5.243 -6.88,7.865 -0.327,0.374 -0.67,0.735 -1.01,1.098 -0.418,0.444 -1.13,0.609 -1.323,0.31 -0.166,-0.259 -0.422,-0.503 -0.478,-0.785 -1.16,-5.852 -2.242,-11.719 -3.449,-17.56 -3.822,-18.501 -7.687,-36.992 -11.537,-55.486 -3.242,-15.573 -6.491,-31.145 -9.727,-46.72 -1.045,-5.029 -2.061,-10.064 -3.085,-15.097 -0.129,-0.636 0.444,-1.376 1.084,-1.351 3.975,0.154 7.954,0.25 11.922,0.513 6.947,0.462 13.885,1.06 20.831,1.545 6.947,0.485 13.899,0.901 20.849,1.349 0.331,0.021 0.66,0.062 0.991,0.087 6.777,0.52 13.552,1.068 20.332,1.548 6.782,0.48 13.568,0.891 20.352,1.334 0.331,0.022 0.661,0.056 0.992,0.083 6.113,0.497 12.224,1.031 18.341,1.479 6.78,0.496 13.567,0.897 20.348,1.371 4.3,0.3 8.599,0.627 12.892,1.004 2.472,0.216 4.932,0.556 7.404,0.841 C 8.198,-6.707 8.188,-6.72 0,0"
       style="fill:#d2451e;fill-opacity:1;fill-rule:nonzero;stroke:none"
       transform="matrix(1.3333333,0,0,-1.3333333,6473.2768,1200.736)"
       clip-path="url(#clipPath348)" />
    <path
       id="path349"
       d="m 0,0 c 3.902,-1.394 7.806,-2.781 11.713,-4.161 1.873,-0.662 3.717,-1.452 5.639,-1.914 1.993,-0.478 3.904,0.559 5.875,0.767 1.315,0.139 2.611,0.447 3.917,0.67 5.402,0.922 10.601,2.672 15.929,3.9 2.098,0.483 4.218,0.943 6.248,1.644 5.952,2.055 11.946,4.025 17.772,6.399 8.283,3.373 16.635,6.589 24.687,10.532 8.49,4.159 16.817,8.607 25.045,13.251 2.743,1.547 5.511,3.06 8.176,4.734 5.615,3.529 11.184,7.131 16.74,10.752 2.221,1.448 4.339,3.052 6.535,4.539 4.667,3.16 9.28,6.41 14.06,9.39 3.228,2.012 6.711,3.614 10.069,5.419 6.013,3.232 12.331,5.702 18.908,7.499 6.088,1.664 12.29,2.671 18.566,3.386 10.797,1.231 21.53,0.754 32.235,-0.78 4.259,-0.611 8.466,-1.587 12.699,-2.378 0.312,-0.059 0.653,0.017 0.976,0.063 0.046,0.006 0.121,0.265 0.091,0.288 -0.642,0.492 -1.247,1.066 -1.958,1.431 -15.285,7.846 -31.551,11.985 -48.689,12.704 -8.323,0.35 -16.589,-0.451 -24.733,-2.095 -16.201,-3.272 -30.907,-9.829 -43.923,-20.739 -2.716,-2.212 -5.089,-4.289 -7.574,-6.224 C 121.269,53.052 113.002,47.818 104.552,42.874 84.324,31.039 63.15,21.193 41.238,12.916 38.294,11.805 35.32,10.736 32.288,9.907 30.209,9.339 28.144,8.765 26.106,8.058 22.817,6.918 19.474,6.015 16.026,5.393 10.98,4.483 5.995,3.24 0.987,2.121 0.196,1.944 -0.575,1.676 -1.342,1.454 -1.176,0.595 -0.641,0.229 0,0"
       style="fill:#d2451e;fill-opacity:1;fill-rule:nonzero;stroke:none"
       transform="matrix(1.3333333,0,0,-1.3333333,6226.5908,233.008)"
       clip-path="url(#clipPath350)" />
    <path
       id="path351"
       d="m 0,0 c 4.795,22.015 9.637,44.02 14.502,66.02 0.283,1.277 0.046,2.247 -0.755,3.202 -3.195,3.812 -6.374,7.639 -9.777,11.734 -1.173,1.421 -2.127,2.568 -3.084,3.714 -0.318,0.382 -0.615,0.788 -0.974,1.128 -0.224,0.213 -0.546,0.322 -0.822,0.482 -0.333,0.194 -0.76,-0.24 -0.904,-0.948 -3.004,-14.774 -6.019,-29.546 -9.003,-44.325 -2.82,-13.967 -5.621,-27.938 -8.404,-41.913 -2.589,-12.999 -5.147,-26.004 -7.708,-39.009 -0.832,-4.225 -1.506,-8.487 -2.501,-12.672 -0.426,-1.793 -0.322,-3.132 0.917,-4.541 3.502,-3.985 6.895,-8.066 10.355,-12.089 0.532,-0.618 1.157,-1.17 1.805,-1.665 0.192,-0.147 0.613,0.007 0.983,0.026 0.139,0.446 0.322,0.9 0.423,1.372 1.113,5.184 2.203,10.372 3.318,15.555 C -7.759,-35.951 -3.913,-17.968 0,0"
       style="fill:#d2451e;fill-opacity:1;fill-rule:nonzero;stroke:none"
       transform="matrix(1.3333333,0,0,-1.3333333,6291.65,1129.6888)"
       clip-path="url(#clipPath352)" />
    <path
       id="path353"
       d="m 0,0 c -0.687,-0.723 -1.191,-1.176 -1.524,-1.731 -0.468,-0.777 -0.271,-1.71 0.306,-2.272 0.526,-0.511 1.209,-0.688 1.823,-0.475 1.241,0.431 2.489,0.914 3.623,1.568 4.014,2.317 8.049,4.61 11.957,7.1 34.219,21.795 68.413,43.632 102.613,65.458 0.698,0.445 1.397,0.892 2.061,1.384 1.395,1.034 1.825,2.557 1.146,3.917 -0.698,1.398 -2.609,1.773 -4.362,0.809 -0.869,-0.479 -1.696,-1.036 -2.534,-1.57 C 109.523,70.629 103.94,67.065 98.355,63.503 71.409,46.316 44.461,29.133 17.52,11.938 11.657,8.196 5.797,4.448 0,0"
       style="fill:#d2451e;fill-opacity:1;fill-rule:nonzero;stroke:none"
       transform="matrix(1.3333333,0,0,-1.3333333,7043.5087,363.84027)"
       clip-path="url(#clipPath354)" />
    <path
       id="path355"
       d="m 0,0 c -0.412,0.273 -0.837,0.562 -1.298,0.719 -1.254,0.425 -2.531,0.783 -3.798,1.168 -4.278,1.298 -8.554,2.597 -13.22,3.991 -1.018,0.3 -1.645,0.515 -2.279,0.706 -29.634,8.96 -59.27,17.92 -88.906,26.874 -4.279,1.293 -8.562,2.571 -12.848,3.839 -1.429,0.422 -2.859,0.862 -4.315,1.164 -1.295,0.269 -2.619,0.33 -3.942,0 -1.12,-0.28 -1.785,-1.893 -1.062,-2.802 0.404,-0.508 0.87,-1.006 1.404,-1.367 1.663,-1.123 3.54,-1.786 5.45,-2.357 3.648,-1.09 7.297,-2.178 10.942,-3.279 27.259,-8.237 54.517,-16.477 81.776,-24.715 9.351,-2.826 18.701,-5.653 28.058,-8.46 0.782,-0.234 1.605,-0.377 2.42,-0.453 1.097,-0.102 2.147,0.698 2.643,1.895 C 1.421,-2.125 0.933,-0.62 0,0"
       style="fill:#d2451e;fill-opacity:1;fill-rule:nonzero;stroke:none"
       transform="matrix(1.3333333,0,0,-1.3333333,7194.9029,955.29107)"
       clip-path="url(#clipPath356)" />
    <path
       id="path357"
       d="m 0,0 c -1.453,0.324 -2.926,0.59 -4.403,0.772 -5.92,0.729 -11.843,1.427 -17.768,2.115 -9.71,1.127 -19.423,2.224 -29.131,3.363 -3.784,0.445 -7.56,0.968 -11.784,1.512 -5.055,0.573 -9.669,1.061 -14.275,1.61 -6.909,0.822 -13.812,1.696 -20.72,2.531 -7.73,0.934 -15.462,1.853 -23.195,2.773 -2.96,0.352 -5.921,0.713 -8.887,1.01 -0.639,0.063 -1.319,-0.071 -1.952,-0.225 -1.067,-0.261 -2.007,-1.496 -2.04,-2.557 -0.032,-1.026 0.914,-2.33 1.949,-2.622 0.636,-0.18 1.285,-0.34 1.938,-0.422 2.63,-0.33 5.266,-0.615 7.897,-0.937 9.702,-1.188 19.401,-2.404 29.105,-3.574 11.185,-1.349 22.374,-2.661 33.561,-3.991 8.391,-0.998 16.781,-2 25.171,-2.997 10.694,-1.27 21.388,-2.54 32.084,-3.793 0.648,-0.076 1.32,-0.054 1.972,0.012 1.095,0.11 2.176,1.2 2.335,2.269 C 2.056,-1.804 1.209,-0.269 0,0"
       style="fill:#d2451e;fill-opacity:1;fill-rule:nonzero;stroke:none"
       transform="matrix(1.3333333,0,0,-1.3333333,7229.0075,793.58947)"
       clip-path="url(#clipPath358)" />
    <path
       id="path359"
       d="m 0,0 c -0.571,0.304 -1.237,0.518 -1.879,0.581 -1.151,0.115 -2.316,0.103 -3.476,0.114 -37.128,0.341 -74.257,0.66 -111.385,1.035 -5.982,0.061 -11.917,-0.555 -17.872,-0.892 -0.975,-0.055 -1.941,-0.379 -2.898,-0.63 -0.743,-0.194 -1.251,-0.893 -1.124,-1.424 0.173,-0.717 0.702,-1.1 1.341,-1.3 0.628,-0.196 1.283,-0.326 1.935,-0.413 5.098,-0.684 10.217,-1.081 15.362,-1.142 6.63,-0.078 13.259,-0.179 20.38,-0.276 31.488,-0.257 62.485,-0.508 93.481,-0.757 1.326,-0.011 2.652,-0.021 3.978,0.001 0.493,0.009 0.988,0.096 1.478,0.174 1.013,0.161 2.116,1.407 2.1,2.476 C 1.405,-1.4 0.945,-0.502 0,0"
       style="fill:#d2451e;fill-opacity:1;fill-rule:nonzero;stroke:none"
       transform="matrix(1.3333333,0,0,-1.3333333,7258.1052,630.16867)"
       clip-path="url(#clipPath360)" />
    <path
       id="path361"
       d="m 0,0 c -7.121,-1.559 -14.225,-3.199 -21.32,-4.876 -1.928,-0.455 -3.803,-1.149 -5.682,-1.794 -0.614,-0.211 -1.191,-0.573 -1.731,-0.943 -0.576,-0.394 -0.865,-0.988 -0.778,-1.706 0.067,-0.549 0.778,-1.295 1.311,-1.324 1.154,-0.064 2.331,-0.235 3.462,-0.084 3.282,0.439 6.575,0.882 9.813,1.562 10.704,2.247 21.384,4.605 32.075,6.911 10.368,2.236 20.738,4.46 31.51,6.8 2.022,0.464 3.64,0.82 5.26,1.169 11.663,2.515 23.327,5.024 34.989,7.546 4.373,0.946 8.745,1.898 13.105,2.901 0.788,0.181 1.561,0.547 2.258,0.965 0.739,0.442 1.142,1.193 1.162,2.076 0.025,1.103 -0.555,1.892 -1.475,2.397 -0.418,0.229 -0.946,0.396 -1.412,0.37 -0.985,-0.056 -1.974,-0.203 -2.941,-0.409 C 95.878,20.767 92.161,19.924 88.436,19.119 73.697,15.934 58.955,12.758 44.215,9.574 29.475,6.389 14.731,3.224 0,0"
       style="fill:#d2451e;fill-opacity:1;fill-rule:nonzero;stroke:none"
       transform="matrix(1.3333333,0,0,-1.3333333,7115.7753,464.4688)"
       clip-path="url(#clipPath362)" />
    <path
       id="path363"
       d="M 0,0 C 1.491,-0.006 2.991,-0.024 4.468,0.135 5.058,0.199 5.724,0.615 6.137,1.07 7.469,2.535 6.76,5.022 4.852,5.449 3.577,5.735 2.233,5.795 0.919,5.802 c -38.492,0.232 -76.983,0.456 -115.474,0.636 -3.146,0.015 -6.301,-0.212 -9.437,-0.489 -1.637,-0.145 -3.245,-0.631 -4.857,-1.003 -0.302,-0.07 -0.607,-0.285 -0.825,-0.514 -0.218,-0.229 -0.46,-0.566 -0.448,-0.844 0.012,-0.279 0.287,-0.586 0.519,-0.804 0.233,-0.219 0.537,-0.428 0.842,-0.496 1.776,-0.402 3.545,-0.931 5.347,-1.096 3.465,-0.318 6.949,-0.548 10.428,-0.59 12.11,-0.145 24.222,-0.195 36.832,-0.284 C -50.438,0.209 -25.219,0.1 0,0"
       style="fill:#d2451e;fill-opacity:1;fill-rule:nonzero;stroke:none"
       transform="matrix(1.3333333,0,0,-1.3333333,6033.4964,624.98773)"
       clip-path="url(#clipPath364)" />
    <path
       id="path365"
       d="m 0,0 c 10.214,1.112 20.429,2.223 30.642,3.346 3.459,0.381 6.914,0.797 10.37,1.2 4.28,0.499 8.557,1.021 12.839,1.496 7.247,0.805 14.499,1.565 21.745,2.384 1.311,0.149 2.626,0.4 3.891,0.769 1.788,0.521 2.252,3.193 0.836,4.488 -0.634,0.58 -1.404,0.947 -2.252,0.892 C 76.752,14.489 75.442,14.264 74.126,14.122 66.712,13.322 59.294,12.56 51.883,11.727 44.473,10.894 37.073,9.962 29.662,9.132 19.452,7.987 9.234,6.904 -0.979,5.777 -4.272,5.413 -7.561,5.002 -10.85,4.596 -17.922,3.722 -24.996,2.859 -32.063,1.951 -37.487,1.254 -42.906,0.522 -48.319,-0.253 c -1.472,-0.21 -2.934,-0.561 -4.36,-0.983 -0.595,-0.177 -1.105,-0.681 -1.618,-1.083 -0.478,-0.376 -0.41,-1.437 0.134,-1.735 0.565,-0.308 1.19,-0.715 1.789,-0.716 2.649,-0.007 5.312,-0.025 7.945,0.219 8.746,0.81 17.482,1.732 26.675,2.644 C -11.533,-1.25 -5.766,-0.628 0,0"
       style="fill:#d2451e;fill-opacity:1;fill-rule:nonzero;stroke:none"
       transform="matrix(1.3333333,0,0,-1.3333333,5958.6087,782.92347)"
       clip-path="url(#clipPath366)" />
    <path
       id="path367"
       d="M 0,0 C 2.526,0.804 5.028,1.712 7.248,3.215 7.637,3.479 7.906,3.925 8.216,4.3 8.448,4.581 8.085,5.445 7.706,5.523 7.228,5.62 6.749,5.768 6.267,5.78 3.247,5.853 0.354,5.061 -2.55,4.394 c -11.31,-2.6 -22.428,-5.914 -33.592,-9.056 -24.246,-6.823 -48.488,-13.66 -72.73,-20.494 -3.349,-0.944 -6.701,-1.88 -10.035,-2.875 -0.779,-0.232 -1.519,-0.64 -2.225,-1.055 -0.777,-0.455 -1.266,-1.752 -1.087,-2.609 0.24,-1.149 1.33,-2.206 2.393,-2.173 0.983,0.03 1.989,0.104 2.939,0.342 2.25,0.562 4.473,1.232 7.093,1.983 1.185,0.342 1.986,0.555 2.783,0.78 29.817,8.432 59.641,16.841 89.445,25.318 C -11.671,-3.768 -5.841,-1.86 0,0"
       style="fill:#d2451e;fill-opacity:1;fill-rule:nonzero;stroke:none"
       transform="matrix(1.3333333,0,0,-1.3333333,6078.0729,904.88267)"
       clip-path="url(#clipPath368)" />
    <path
       id="path369"
       d="m 0,0 c 2.031,-0.711 4.071,-1.426 6.154,-1.953 8.19,-2.071 16.37,-4.19 24.605,-6.067 13.404,-3.055 26.846,-5.943 40.276,-8.881 8.252,-1.806 16.513,-3.574 25.176,-5.466 9.466,-2.096 18.524,-4.092 27.588,-6.063 1.127,-0.245 2.277,-0.424 3.426,-0.515 1.361,-0.107 2.621,0.92 2.9,2.226 0.244,1.139 -0.678,2.688 -1.935,3.131 -0.775,0.273 -1.585,0.461 -2.39,0.639 -10.35,2.291 -20.697,4.59 -31.053,6.855 C 77.595,-12.343 60.422,-8.687 43.289,-4.852 31.485,-2.211 19.648,0.245 7.727,2.284 5.118,2.73 2.468,2.936 -0.167,3.21 -0.646,3.26 -1.145,3.108 -1.634,3.043 -2.091,2.983 -2.594,2.466 -2.53,2.037 -2.484,1.734 -2.376,1.331 -2.155,1.183 -1.476,0.727 -0.765,0.268 0,0"
       style="fill:#d2451e;fill-opacity:1;fill-rule:nonzero;stroke:none"
       transform="matrix(1.3333333,0,0,-1.3333333,5864.0319,429.5792)"
       clip-path="url(#clipPath370)" />
    <path
       id="path371"
       d="M 0,0 C 4.459,-3.16 8.843,-6.441 13.435,-9.395 38.23,-25.347 63.08,-41.214 87.91,-57.111 c 4.324,-2.768 8.641,-5.549 12.972,-8.306 0.976,-0.621 1.987,-1.191 3.006,-1.738 0.788,-0.424 1.597,-0.322 2.367,0.101 1.826,1.003 2.151,3.273 0.598,4.556 -0.889,0.735 -1.866,1.371 -2.84,1.995 -7.248,4.654 -14.504,9.293 -22.059,14.137 C 71.751,-39.823 61.85,-33.477 51.945,-27.137 39.808,-19.368 27.694,-11.565 15.516,-3.86 11.46,-1.294 7.267,1.06 3.083,3.415 1.505,4.303 -0.209,4.96 -1.893,5.641 -2.525,5.897 -3.206,5.707 -3.715,5.199 -4.096,4.818 -4,3.894 -3.625,3.365 -2.649,1.988 -1.35,0.957 0,0"
       style="fill:#d2451e;fill-opacity:1;fill-rule:nonzero;stroke:none"
       transform="matrix(1.3333333,0,0,-1.3333333,5929.6129,269.05587)"
       clip-path="url(#clipPath372)" />
    <path
       id="path373"
       d="m 0,0 c -23.465,19.223 -46.936,38.438 -70.408,57.652 -4.361,3.57 -8.728,7.131 -13.094,10.696 -1.673,1.366 -3.39,2.676 -5.405,3.499 -0.594,0.243 -1.276,0.312 -1.926,0.371 -0.966,0.089 -1.994,-1.168 -1.62,-2.003 0.401,-0.898 0.768,-1.885 1.42,-2.581 1.466,-1.566 3.019,-3.074 4.677,-4.436 17.805,-14.623 35.637,-29.213 53.736,-44.036 4.766,-3.897 9.259,-7.567 13.749,-11.24 5.517,-4.514 11.023,-9.039 16.553,-13.536 0.763,-0.621 1.599,-1.173 2.464,-1.642 0.966,-0.524 2.511,-0.153 3.192,0.646 0.897,1.053 0.956,2.696 0.002,3.643 C 2.285,-1.919 1.152,-0.943 0,0"
       style="fill:#d2451e;fill-opacity:1;fill-rule:nonzero;stroke:none"
       transform="matrix(1.3333333,0,0,-1.3333333,7105.8151,1095.5559)"
       clip-path="url(#clipPath374)" />
    <path
       id="path375"
       d="M 0,0 C 0.657,0.73 1.235,1.559 1.701,2.422 1.892,2.774 1.851,3.455 1.621,3.774 1.385,4.102 0.777,4.345 0.355,4.314 -0.279,4.267 -0.933,4.027 -1.509,3.733 -5.66,1.615 -9.372,-1.152 -12.99,-4.067 c -19.988,-16.101 -39.989,-32.186 -59.985,-48.276 -5.419,-4.36 -10.848,-8.706 -16.248,-13.089 -0.757,-0.614 -1.475,-1.333 -2.029,-2.131 -0.966,-1.392 0.079,-3.582 1.747,-3.871 0.845,-0.146 1.676,-0.081 2.4,0.354 0.704,0.423 1.341,0.964 1.985,1.481 10.067,8.093 20.129,16.19 30.463,24.515 15.879,12.793 31.478,25.367 47.104,37.908 C -4.829,-4.99 -2.328,-2.587 0,0"
       style="fill:#d2451e;fill-opacity:1;fill-rule:nonzero;stroke:none"
       transform="matrix(1.3333333,0,0,-1.3333333,6123.8483,996.97373)"
       clip-path="url(#clipPath376)" />
    <path
       id="path377"
       d="m 0,0 c -0.649,0.083 -1.32,0.127 -1.968,0.059 -5.107,-0.529 -10.211,-1.081 -15.314,-1.643 -3.127,-0.344 -6.251,-0.722 -9.377,-1.076 -5.429,-0.614 -10.86,-1.222 -16.736,-1.885 -1.429,-0.203 -2.407,-0.408 -3.395,-0.492 -7.435,-0.634 -14.764,-1.982 -22.102,-3.266 -1.949,-0.341 -3.921,-0.682 -5.701,-1.602 -0.348,-0.18 -0.554,-0.743 -0.703,-1.171 -0.134,-0.385 0.414,-1.032 0.824,-1.085 1.144,-0.149 2.299,-0.431 3.436,-0.38 5.626,0.251 11.26,0.444 16.866,0.942 6.761,0.6 13.495,1.498 20.243,2.246 10.204,1.132 20.412,2.233 30.614,3.382 1.308,0.147 2.609,0.44 3.883,0.776 1.034,0.273 1.717,1.59 1.603,2.809 C 2.061,-1.199 1.138,-0.146 0,0"
       style="fill:#d2451e;fill-opacity:1;fill-rule:nonzero;stroke:none"
       transform="matrix(1.3333333,0,0,-1.3333333,7182.0157,543.55147)"
       clip-path="url(#clipPath378)" />
    <path
       id="path379"
       d="m 0,0 c -0.46,0.182 -0.917,0.408 -1.396,0.498 -2.112,0.395 -4.217,0.896 -6.349,1.091 -8.072,0.737 -16.154,1.364 -24.232,2.045 -5.934,0.5 -11.867,1.026 -17.801,1.528 -4.78,0.404 -9.561,0.808 -14.345,1.166 -0.81,0.061 -1.651,-0.037 -2.454,-0.187 -1.05,-0.196 -2.01,-1.48 -2.028,-2.551 -0.017,-1.1 0.871,-2.409 1.86,-2.692 0.475,-0.135 0.962,-0.258 1.452,-0.306 2.964,-0.291 5.93,-0.559 9.356,-0.862 3.592,-0.298 6.722,-0.581 9.854,-0.837 11.872,-0.968 23.743,-1.948 35.618,-2.871 2.305,-0.179 4.63,-0.191 6.943,-0.147 1.14,0.022 2.286,0.302 3.409,0.554 0.809,0.182 1.587,0.521 1.837,1.449 C 1.919,-1.395 1.148,-0.453 0,0"
       style="fill:#d2451e;fill-opacity:1;fill-rule:nonzero;stroke:none"
       transform="matrix(1.3333333,0,0,-1.3333333,6031.6735,542.06613)"
       clip-path="url(#clipPath380)" />
    <path
       id="path381"
       d="m 0,0 c 0.152,-0.677 0.559,-1.235 1.227,-1.423 1.587,-0.447 3.18,-0.905 4.799,-1.196 6.524,-1.171 13.136,-1.509 19.733,-1.988 7.257,-0.526 14.513,-1.082 22.232,-1.668 5.247,-0.396 10.028,-0.778 14.814,-1.09 1.975,-0.128 3.961,-0.15 5.941,-0.137 1.039,0.007 2.165,1.123 2.413,2.198 0.264,1.144 -0.7,2.766 -1.913,3.13 -0.628,0.188 -1.283,0.328 -1.935,0.384 -1.977,0.169 -3.959,0.278 -5.938,0.426 C 54.611,-0.856 47.85,-0.335 41.088,0.168 33.502,0.732 25.91,1.234 18.328,1.856 13.867,2.222 9.406,2.223 4.94,2.166 4.28,2.158 3.616,2.109 2.962,2.024 2.473,1.96 1.995,1.815 1.515,1.694 0.659,1.478 -0.138,0.613 0,0"
       style="fill:#d2451e;fill-opacity:1;fill-rule:nonzero;stroke:none"
       transform="matrix(1.3333333,0,0,-1.3333333,7068.1724,702.25187)"
       clip-path="url(#clipPath382)" />
    <path
       id="path383"
       d="M 0,0 C 1.105,0.347 2.208,0.714 3.279,1.152 4.496,1.65 5.296,3.262 4.983,4.414 4.581,5.895 2.965,6.969 1.557,6.614 0.274,6.29 -0.99,5.887 -2.253,5.49 -8.257,3.603 -14.269,1.742 -20.257,-0.196 c -11.187,-3.619 -22.521,-6.791 -33.86,-11.174 -2.342,-0.98 -4.348,-1.768 -6.306,-2.66 -1.048,-0.477 -2.052,-1.079 -2.996,-1.738 -0.333,-0.232 -0.496,-0.786 -0.611,-1.226 -0.099,-0.376 0.517,-0.858 1.026,-0.824 1.152,0.077 2.32,0.093 3.449,0.305 6.682,1.255 13.247,2.989 19.733,5.015 C -26.542,-8.35 -13.272,-4.173 0,0"
       style="fill:#d2451e;fill-opacity:1;fill-rule:nonzero;stroke:none"
       transform="matrix(1.3333333,0,0,-1.3333333,7148.6461,396.4708)"
       clip-path="url(#clipPath384)" />
    <path
       id="path385"
       d="m 0,0 c 0.061,-0.462 0.179,-1.019 0.483,-1.323 0.449,-0.449 1.045,-0.836 1.649,-1.03 2.044,-0.655 4.089,-1.367 6.188,-1.782 7.46,-1.475 14.943,-2.836 22.833,-4.335 6.432,-1.21 12.445,-2.343 18.466,-3.435 4.556,-0.827 9.12,-1.607 13.684,-2.39 0.647,-0.111 1.332,-0.243 1.962,-0.138 0.62,0.104 1.289,0.381 1.766,0.784 1.263,1.067 0.947,3.627 -0.528,4.253 -1.055,0.447 -2.177,0.795 -3.303,1.01 -4.061,0.775 -8.138,1.464 -12.206,2.206 C 39.118,-4.015 27.248,-1.815 15.367,0.317 11.462,1.018 7.551,1.76 3.559,1.764 2.741,1.764 1.921,1.619 1.107,1.504 0.685,1.444 -0.064,0.483 0,0"
       style="fill:#d2451e;fill-opacity:1;fill-rule:nonzero;stroke:none"
       transform="matrix(1.3333333,0,0,-1.3333333,7043.178,846.29173)"
       clip-path="url(#clipPath386)" />
    <path
       id="path387"
       d="m 0,0 c 0.733,-0.507 1.529,-0.588 2.355,-0.273 2.044,0.779 3.755,2.09 5.464,3.411 7.217,5.576 14.444,11.14 21.667,16.709 6.961,5.366 13.929,10.723 20.872,16.111 1.04,0.807 2.031,1.701 2.926,2.664 0.835,0.898 0.522,2.719 -0.478,3.592 -0.663,0.579 -1.426,0.806 -2.641,0.567 C 49.13,42.21 48.407,41.796 47.753,41.293 33.17,30.061 18.592,18.822 4.024,7.571 2.846,6.661 1.697,5.699 0.633,4.661 0.055,4.097 -0.36,3.347 -0.77,2.635 -1.233,1.832 -0.837,0.58 0,0"
       style="fill:#d2451e;fill-opacity:1;fill-rule:nonzero;stroke:none"
       transform="matrix(1.3333333,0,0,-1.3333333,7005.8276,318.71653)"
       clip-path="url(#clipPath388)" />
    <path
       id="path389"
       d="m 0,0 c -0.958,0.64 -2.006,1.157 -3.042,1.671 -10.541,5.231 -21.071,10.487 -31.643,15.657 -4.763,2.329 -9.613,4.479 -14.772,6.865 -2.509,0.997 -4.658,1.872 -6.836,2.667 -1.242,0.454 -2.527,0.794 -3.8,1.156 -0.644,0.183 -1.581,-0.249 -1.604,-0.795 -0.019,-0.437 0.096,-1.067 0.394,-1.299 1.565,-1.217 3.125,-2.478 4.839,-3.46 5.031,-2.884 10.05,-5.809 15.226,-8.418 11.988,-6.042 24.064,-11.909 36.108,-17.84 0.89,-0.438 1.779,-0.926 2.725,-1.187 0.588,-0.162 1.349,-0.098 1.916,0.141 C 1.568,-3.976 1.84,-1.229 0,0"
       style="fill:#d2451e;fill-opacity:1;fill-rule:nonzero;stroke:none"
       transform="matrix(1.3333333,0,0,-1.3333333,6044.0013,404.03853)"
       clip-path="url(#clipPath390)" />
    <path
       id="path391"
       d="m 0,0 c -0.76,-0.319 -1.52,-0.655 -2.232,-1.066 -1.094,-0.631 -1.549,-2.246 -1.063,-3.521 0.384,-1.007 1.684,-1.791 2.827,-1.564 0.962,0.191 1.921,0.479 2.828,0.854 5.82,2.399 11.63,4.825 17.435,7.261 10.083,4.23 20.17,8.452 30.231,12.732 1.975,0.841 3.859,1.903 5.752,2.924 0.569,0.307 1.087,0.766 1.52,1.252 0.433,0.487 0.761,1.081 0.532,1.808 -0.246,0.781 -1.07,1.51 -1.787,1.514 -0.491,0.002 -1.004,0.034 -1.469,-0.09 -1.6,-0.423 -3.216,-0.819 -4.765,-1.391 C 47.168,19.738 44.574,18.638 41.61,17.437 27.505,11.524 13.751,5.766 0,0"
       style="fill:#d2451e;fill-opacity:1;fill-rule:nonzero;stroke:none"
       transform="matrix(1.3333333,0,0,-1.3333333,6030.7588,975.07613)"
       clip-path="url(#clipPath392)" />
    <path
       id="path393"
       d="m 0,0 c -0.789,-0.063 -1.329,-1.282 -0.863,-1.922 0.291,-0.401 0.53,-0.867 0.899,-1.177 1.264,-1.064 2.485,-2.218 3.885,-3.07 3.111,-1.893 6.292,-3.676 9.496,-5.41 12.529,-6.781 25.075,-13.531 37.626,-20.274 1.162,-0.625 2.38,-1.156 3.603,-1.655 0.981,-0.4 2.339,0.147 3.042,1.119 0.695,0.961 0.633,2.367 -0.198,3.198 -0.463,0.463 -0.959,0.922 -1.518,1.251 -1.427,0.838 -2.899,1.603 -4.679,2.567 C 39.299,-18.916 27.641,-12.614 15.961,-6.351 12.896,-4.708 9.778,-3.162 6.66,-1.623 5.022,-0.814 3.293,-0.218 1.47,0.025 0.989,0.089 0.488,0.039 0,0"
       style="fill:#d2451e;fill-opacity:1;fill-rule:nonzero;stroke:none"
       transform="matrix(1.3333333,0,0,-1.3333333,7004.9189,956.31093)"
       clip-path="url(#clipPath394)" />
    <path
       id="path395"
       d="m 0,0 c -0.818,0.075 -1.651,0.101 -2.471,0.043 -4.63,-0.331 -9.258,-0.687 -13.887,-1.046 -9.751,-0.756 -19.51,-1.438 -29.252,-2.313 -5.61,-0.503 -11.197,-1.283 -16.781,-2.033 -1.29,-0.173 -2.555,-0.663 -3.77,-1.157 -0.322,-0.131 -0.509,-0.809 -0.574,-1.262 -0.034,-0.229 0.288,-0.61 0.545,-0.758 0.418,-0.242 0.908,-0.47 1.378,-0.493 1.82,-0.089 3.645,-0.095 5.946,-0.13 6.945,0.073 13.405,0.281 19.859,0.792 7.106,0.563 14.227,0.937 21.34,1.421 5.128,0.349 10.254,0.722 15.377,1.135 0.976,0.079 1.953,0.329 2.892,0.621 1.003,0.313 1.779,1.764 1.622,2.807 C 2.043,-1.175 1.08,-0.1 0,0"
       style="fill:#d2451e;fill-opacity:1;fill-rule:nonzero;stroke:none"
       transform="matrix(1.3333333,0,0,-1.3333333,6042.4633,689.70693)"
       clip-path="url(#clipPath396)" />
    <path
       id="path397"
       d="m 0,0 c -11.859,-2.223 -23.709,-4.5 -35.561,-6.762 -0.485,-0.092 -0.974,-0.199 -1.435,-0.371 -0.793,-0.296 -1.412,-0.816 -1.868,-1.548 -0.879,-1.409 0.078,-3.709 1.7,-3.884 0.973,-0.106 1.984,-0.096 2.95,0.045 1.47,0.213 2.912,0.606 4.373,0.887 14.446,2.784 28.834,5.847 43.187,9.073 2.415,0.543 4.794,1.265 7.161,1.997 0.766,0.236 1.508,0.687 2.127,1.201 0.298,0.248 0.377,0.873 0.371,1.325 -0.004,0.239 -0.363,0.593 -0.633,0.684 -0.613,0.207 -1.283,0.44 -1.906,0.387 C 18.163,2.839 15.87,2.531 13.141,2.219 8.472,1.451 4.224,0.792 0,0"
       style="fill:#d2451e;fill-opacity:1;fill-rule:nonzero;stroke:none"
       transform="matrix(1.3333333,0,0,-1.3333333,6039.0755,828.2808)"
       clip-path="url(#clipPath398)" />
    <path
       id="path399"
       d="m 0,0 c -2.122,-0.588 -3.856,-1.907 -5.527,-3.243 -4.145,-3.314 -8.208,-6.73 -12.569,-10.336 -7.251,-6.606 -14.242,-12.973 -21.212,-19.364 -0.972,-0.892 -1.903,-1.847 -2.727,-2.874 -0.526,-0.655 -0.603,-1.491 -0.257,-2.35 0.645,-1.606 2.464,-2.4 4.115,-1.375 0.974,0.605 1.831,1.418 2.685,2.198 5.877,5.373 11.787,10.712 17.591,16.164 4.472,4.201 8.841,8.514 13.181,12.852 1.52,1.519 2.829,3.251 4.211,4.906 0.424,0.507 0.797,1.063 1.134,1.632 0.159,0.268 0.198,0.617 0.252,0.936 0.025,0.148 0.011,0.387 -0.082,0.456 C 0.556,-0.218 0.217,0.06 0,0"
       style="fill:#d2451e;fill-opacity:1;fill-rule:nonzero;stroke:none"
       transform="matrix(1.3333333,0,0,-1.3333333,6161.648,1037.9767)"
       clip-path="url(#clipPath400)" />
    <path
       id="path401"
       d="M 0,0 C 0,-0.001 0,-0.002 0.001,-0.003 0.002,-0.002 0,0 0,0"
       style="fill:#d2451e;fill-opacity:1;fill-rule:nonzero;stroke:none"
       transform="matrix(1.3333333,0,0,-1.3333333,6587.5731,596.94493)"
       clip-path="url(#clipPath402)" />
    <path
       id="path403"
       d="M 0,0 C 0.051,0.487 0.148,1.006 0.376,1.429 0.93,2.462 1.62,3.435 2.902,3.596 4.185,3.758 5.134,3.049 5.856,2.104 c 1.02,-1.337 1.497,-2.949 1.945,-4.536 0.675,-2.385 1.258,-4.798 1.834,-7.21 2.073,-8.686 3.781,-17.448 5.183,-26.264 0.518,-3.261 0.7,-6.577 1.025,-9.868 0.153,-1.548 -0.281,-2.943 -1.144,-4.22 -0.922,-1.363 -3.259,-1.588 -4.367,-0.357 -0.545,0.606 -1.079,1.283 -1.397,2.023 -0.978,2.275 -1.953,4.562 -2.738,6.908 -1.575,4.708 -2.665,9.551 -3.629,14.416 -1.513,7.631 -2.807,15.293 -2.766,23.112 C -0.136,-1.978 -0.104,-0.985 0,0 m -12.531,-32.665 c 1.415,-5.462 3.263,-10.772 5.892,-15.792 2.263,-4.322 5.268,-8.05 9.037,-11.105 6.183,-5.013 14.462,-5.601 21.135,-0.591 5.109,3.836 7.693,9.096 7.707,15.418 0.013,5.954 -0.131,11.907 -1.016,17.844 -1.43,9.586 -4.068,18.75 -8.435,27.411 -0.363,0.721 -0.55,1.531 -0.818,2.3 -0.003,-10e-4 -0.035,0.008 -0.24,0.099 -1.113,1.369 -1.922,2.622 -2.77,3.848 -1.611,2.329 -3.513,4.403 -5.646,6.26 -3.269,2.846 -7.004,4.283 -11.408,3.946 -5.956,-0.455 -10.343,-3.222 -12.969,-8.606 -0.72,-1.477 -1.303,-3.054 -1.714,-4.645 -1.374,-5.328 -1.914,-10.774 -1.649,-16.256 0.329,-6.792 1.186,-13.534 2.894,-20.131"
       style="fill:#d2451e;fill-opacity:1;fill-rule:nonzero;stroke:none"
       transform="matrix(1.3333333,0,0,-1.3333333,6559.6127,600.70867)"
       clip-path="url(#clipPath404)" />
    <path
       id="path405"
       d="m 0,0 c -0.466,3.222 -0.871,6.007 -1.315,8.785 -1.563,9.807 -3.127,19.614 -4.718,29.416 -0.61,3.758 -1.288,7.504 -1.952,11.253 -0.17,0.955 -0.799,1.593 -1.613,1.566 -3.639,-0.12 -7.276,-0.272 -10.913,-0.431 -0.554,-0.024 -1.169,-0.865 -1.082,-1.419 0.305,-1.962 0.595,-3.928 0.936,-5.884 2.187,-12.555 4.393,-25.107 6.577,-37.662 0.483,-2.772 0.927,-5.551 1.344,-8.334 0.246,-1.644 0.271,-3.297 -0.055,-4.945 -0.242,-1.223 -0.975,-2.082 -1.959,-2.755 -1.259,-0.861 -3.134,-0.636 -4.047,0.537 -0.5,0.643 -1.001,1.35 -1.25,2.111 -0.614,1.884 -1.197,3.792 -1.589,5.732 -0.785,3.894 -1.432,7.815 -2.141,11.723 -2.096,11.562 -4.19,23.125 -6.299,34.685 -0.267,1.465 -0.598,2.919 -0.927,4.372 -0.246,1.087 -1.07,1.823 -2.049,1.836 -3.815,0.049 -7.603,-0.33 -11.382,-0.787 -0.281,-0.034 -0.524,-0.368 -0.84,-0.603 0.022,-0.45 -0.005,-0.947 0.077,-1.425 0.895,-5.22 1.778,-10.443 2.722,-15.655 1.562,-8.631 3.154,-17.256 4.759,-25.88 0.908,-4.881 1.771,-9.773 2.824,-14.623 1.488,-6.855 5.511,-11.494 12.286,-13.702 2.755,-0.898 5.539,-0.987 8.348,-0.78 4.483,0.33 8.313,2.146 11.314,5.522 2.776,3.122 4.054,6.786 3.634,10.983 C 0.492,-4.387 0.26,-2.414 0,0"
       style="fill:#d2451e;fill-opacity:1;fill-rule:nonzero;stroke:none"
       transform="matrix(1.3333333,0,0,-1.3333333,6655.3257,756.3948)"
       clip-path="url(#clipPath406)" />
    <path
       id="path407"
       d="m 0,0 c -1.522,3.672 -3.069,7.334 -4.777,11.339 -2.795,6.423 -5.42,12.506 -8.05,18.587 -1.645,3.801 -3.269,7.61 -4.962,11.389 -0.581,1.296 -0.621,2.547 -0.166,3.853 0.164,0.469 0.35,0.932 0.489,1.408 1.807,6.2 3.606,12.402 5.409,18.603 0.138,0.477 0.296,0.949 0.423,1.429 0.236,0.89 -0.371,1.667 -1.307,1.603 -3.303,-0.227 -6.605,-0.476 -9.905,-0.742 -0.313,-0.025 -0.612,-0.229 -1.078,-0.413 -0.344,-0.974 -0.803,-2.034 -1.093,-3.139 -1.767,-6.726 -3.488,-13.463 -5.243,-20.192 -0.25,-0.96 -0.563,-1.907 -0.92,-2.832 -0.088,-0.226 -0.464,-0.341 -0.842,-0.598 -0.364,2.859 -0.755,5.642 -1.067,8.434 -0.477,4.28 -0.879,8.569 -1.355,12.849 -0.164,1.481 -0.445,2.949 -0.689,4.42 -0.096,0.575 -0.81,1.247 -1.358,1.274 -4.148,0.205 -8.275,-0.036 -12.381,-0.647 -0.619,-0.092 -1.096,-0.79 -0.979,-1.484 0.573,-3.429 1.169,-6.853 1.747,-10.282 1.155,-6.857 2.29,-13.719 3.459,-20.574 1.169,-6.855 2.356,-13.707 3.561,-20.556 1.003,-5.708 2.038,-11.411 3.071,-17.114 0.161,-0.885 0.863,-1.515 1.685,-1.532 3.487,-0.076 6.953,0.148 10.387,0.78 0.583,0.107 1.032,0.769 0.925,1.532 -0.505,3.607 -1.036,7.209 -1.572,10.811 -0.39,2.615 -0.801,5.228 -1.203,7.842 0.887,2.496 1.77,4.993 2.665,7.486 0.053,0.148 0.198,0.264 0.31,0.407 0.93,-0.188 1.156,-1.014 1.461,-1.713 2.776,-6.378 5.519,-12.771 8.295,-19.149 0.727,-1.668 1.511,-3.313 2.323,-4.942 0.3,-0.602 0.837,-1.088 1.55,-1.091 3.639,-0.013 7.279,0.015 10.919,0.033 0.373,0.002 0.942,0.71 0.848,1.037 C 0.399,-1.252 0.251,-0.604 0,0"
       style="fill:#d2451e;fill-opacity:1;fill-rule:nonzero;stroke:none"
       transform="matrix(1.3333333,0,0,-1.3333333,6715.4721,777.34027)"
       clip-path="url(#clipPath408)" />
    <path
       id="path409"
       d="m 0,0 c 0.199,0.026 0.425,0.105 0.462,0.052 0.357,-0.515 0.824,-1.01 0.995,-1.589 1.729,-5.854 3.415,-11.721 5.089,-17.59 0.179,-0.627 0.212,-1.296 0.3,-1.948 0.046,-0.346 -0.484,-1.07 -0.832,-1.098 -1.636,-0.128 -3.272,-0.252 -4.91,-0.341 -0.623,-0.033 -1.101,0.467 -1.229,1.265 -0.078,0.486 -0.06,0.987 -0.085,1.482 C -0.137,-12.54 -0.068,-6.266 0,0 m -9.651,-51.363 c 2.982,0.012 5.963,0.049 8.944,0.109 0.85,0.017 1.506,0.727 1.52,1.631 0.057,3.481 0.068,6.963 0.13,10.444 0.021,1.144 0.145,2.286 0.225,3.485 3.105,1.221 6.166,1.411 9.441,1.072 0.913,-2.589 1.758,-5.092 2.679,-7.568 0.972,-2.616 1.544,-5.397 3.049,-7.887 0.71,-0.092 1.358,-0.253 2.004,-0.248 3.149,0.025 6.298,0.088 9.447,0.154 0.516,0.011 1.228,0.906 1.118,1.414 -0.28,1.291 -0.549,2.588 -0.913,3.858 -3.192,11.148 -6.386,22.296 -9.614,33.434 C 15.243,-0.646 12.058,10.16 8.916,20.977 8.502,22.402 8.151,23.839 7.285,25.156 6.84,25.254 6.361,25.461 5.887,25.448 1.08,25.322 -3.726,25.172 -8.497,24.487 c -1.582,-0.228 -2.102,-0.689 -2.182,-2.15 -0.082,-1.489 -0.116,-2.982 -0.127,-4.474 -0.152,-20.562 -0.296,-41.125 -0.442,-62.178 0.021,-2.148 0.025,-3.806 0.071,-5.462 0.026,-0.949 0.624,-1.589 1.526,-1.586"
       style="fill:#d2451e;fill-opacity:1;fill-rule:nonzero;stroke:none"
       transform="matrix(1.3333333,0,0,-1.3333333,6656.918,612.1396)"
       clip-path="url(#clipPath410)" />
    <path
       id="path411"
       d="m 0,0 c -2.807,-0.203 -5.607,-0.495 -8.409,-0.766 -1.091,-0.106 -1.751,-0.969 -1.589,-2.08 0.429,-2.948 0.894,-5.89 1.318,-8.838 0.542,-3.768 1.057,-7.541 1.639,-11.748 0.28,-1.742 0.535,-3.043 0.724,-4.353 0.804,-5.571 1.568,-11.146 2.384,-16.715 0.888,-6.059 1.812,-12.112 2.732,-18.167 0.373,-2.454 0.771,-4.904 1.17,-7.354 0.14,-0.853 0.882,-1.515 1.686,-1.55 0.165,-0.007 0.331,-0.012 0.497,-0.011 8.95,0.06 17.866,0.811 26.794,1.31 0.164,0.009 0.325,0.064 0.489,0.091 0.479,0.08 1.129,0.922 1.124,1.462 -0.025,3.165 -0.765,6.234 -1.332,9.321 -0.062,0.337 -0.688,0.724 -1.109,0.809 -0.801,0.162 -1.643,0.167 -2.466,0.157 -3.81,-0.045 -7.62,-0.137 -11.43,-0.164 -0.799,-0.006 -1.599,0.19 -2.396,0.292 -0.227,0.794 -0.477,1.415 -0.575,2.059 -0.596,3.927 -1.159,7.858 -1.727,11.79 -0.047,0.326 -0.046,0.66 -0.061,0.991 -0.042,0.939 0.506,1.665 1.372,1.707 2.15,0.107 4.301,0.196 6.453,0.252 3.245,0.084 4.318,0.177 3.557,3.936 -0.524,2.591 -0.805,5.231 -1.22,7.845 -0.108,0.677 -0.674,1.135 -1.396,1.141 -2.318,0.019 -4.636,-0.012 -6.953,0.016 -1.144,0.014 -2.286,0.114 -3.497,0.179 -0.306,0.892 -0.688,1.644 -0.813,2.437 -0.464,2.943 -0.859,5.897 -1.247,8.852 -0.151,1.148 -0.226,2.307 -0.313,3.463 -0.044,0.585 0.558,1.377 1.106,1.472 0.649,0.113 1.301,0.243 1.957,0.279 2.315,0.127 4.635,0.184 6.949,0.332 1.65,0.105 3.296,0.289 4.937,0.488 0.868,0.105 1.475,0.87 1.36,1.748 -0.386,2.952 -0.807,5.9 -1.24,8.846 -0.16,1.09 -0.892,1.624 -2.13,1.611 C 17.517,1.131 16.688,1.106 15.862,1.052 10.574,0.71 5.285,0.382 0,0"
       style="fill:#d2451e;fill-opacity:1;fill-rule:nonzero;stroke:none"
       transform="matrix(1.3333333,0,0,-1.3333333,6718.1071,684.9404)"
       clip-path="url(#clipPath412)" />
    <path
       id="path413"
       d="m 0,0 c 0.176,-0.69 0.771,-1.116 1.462,-1.158 4.133,-0.253 8.268,-0.365 12.376,0.314 0.268,0.044 0.481,0.419 0.739,1.054 -1.413,7.724 -2.82,15.039 -4.285,22.343 -2.376,11.849 -4.8,23.688 -7.174,35.538 -0.259,1.293 -0.391,2.623 -0.43,3.941 -0.01,0.34 0.489,0.848 0.87,1.014 0.591,0.257 1.276,0.346 1.93,0.401 1.65,0.137 3.305,0.208 4.958,0.321 0.825,0.057 1.648,0.142 2.471,0.226 0.313,0.031 0.873,0.75 0.846,1.092 -0.282,3.467 -0.916,6.875 -1.731,10.251 -0.038,0.156 -0.103,0.34 -0.219,0.437 -0.362,0.304 -0.722,0.738 -1.141,0.819 -0.803,0.155 -1.647,0.136 -2.474,0.13 -10.109,-0.08 -20.217,-0.168 -30.325,-0.263 -1.16,-0.011 -2.321,-0.048 -3.477,-0.134 -0.482,-0.036 -0.982,-0.168 -1.418,-0.374 -0.26,-0.122 -0.438,-0.457 -0.604,-0.726 -0.075,-0.122 -0.062,-0.323 -0.033,-0.478 0.631,-3.249 1.257,-6.499 1.913,-9.744 0.212,-1.046 1.036,-1.718 2.112,-1.736 1.656,-0.027 3.313,0 4.97,-0.005 1.159,-0.003 2.32,0.02 3.475,-0.051 0.705,-0.043 1.214,-0.519 1.475,-1.156 0.249,-0.608 0.434,-1.251 0.572,-1.894 C -9.377,42.684 -5.63,25.203 -1.858,7.726 -1.299,5.138 -0.654,2.567 0,0"
       style="fill:#d2451e;fill-opacity:1;fill-rule:nonzero;stroke:none"
       transform="matrix(1.3333333,0,0,-1.3333333,6518.7676,683.4964)"
       clip-path="url(#clipPath414)" />
    <path
       id="path415"
       d="m 0,0 c -0.107,0.445 -0.437,0.837 -0.729,1.374 -0.828,0.068 -1.636,0.175 -2.447,0.193 -2.152,0.047 -4.305,0.062 -6.458,0.079 -3.112,0.024 -3.771,-0.002 -4.186,3.419 -0.16,1.311 -0.471,2.604 -0.674,3.911 -0.481,3.104 -0.955,6.21 -1.397,9.32 -0.121,0.851 0.53,1.674 1.368,1.744 2.143,0.178 4.291,0.295 6.436,0.451 1.98,0.143 3.959,0.295 5.936,0.466 0.555,0.048 1.162,0.872 1.09,1.46 -0.363,2.955 -0.735,5.909 -1.112,8.863 -0.02,0.158 -0.102,0.311 -0.166,0.462 -0.274,0.65 -0.748,1.13 -1.443,1.215 -0.98,0.119 -1.975,0.12 -3.42,0.169 -8.402,-0.175 -16.348,-0.344 -24.294,-0.528 -0.657,-0.015 -1.313,-0.126 -1.967,-0.212 -0.482,-0.062 -1.125,-0.97 -1.067,-1.487 0.056,-0.492 0.087,-0.991 0.19,-1.473 1.005,-4.691 2.02,-9.38 3.037,-14.069 2.874,-13.256 5.745,-26.513 8.63,-39.767 1.056,-4.849 2.141,-9.691 3.231,-14.533 0.24,-1.062 1.049,-1.774 2.09,-1.785 3.475,-0.035 6.951,-0.03 10.427,-0.019 0.316,10e-4 0.628,0.179 0.947,0.248 0.34,0.074 0.872,0.781 0.845,1.118 -0.026,0.329 -0.011,0.666 -0.072,0.988 -1.414,7.476 -2.846,14.95 -4.245,22.429 -0.212,1.131 -0.285,2.288 -0.404,3.435 -0.042,0.402 0.463,1.063 0.819,1.076 1.651,0.059 3.303,0.1 4.955,0.152 1.652,0.052 3.304,0.099 4.956,0.17 0.47,0.021 1.198,0.953 1.158,1.428 -0.04,0.494 -0.042,0.998 -0.148,1.479 C 1.278,-5.478 0.659,-2.734 0,0"
       style="fill:#d2451e;fill-opacity:1;fill-rule:nonzero;stroke:none"
       transform="matrix(1.3333333,0,0,-1.3333333,6551.6943,735.8024)"
       clip-path="url(#clipPath416)" />
    <path
       id="path417"
       d="M 0,0 C 0.006,0.018 0.014,0.038 0.02,0.057 -0.023,0.027 -0.008,0.012 0,0"
       style="fill:#d2451e;fill-opacity:1;fill-rule:nonzero;stroke:none"
       transform="matrix(1.3333333,0,0,-1.3333333,6587.6569,597.01987)"
       clip-path="url(#clipPath418)" />
    <path
       id="path419"
       d="m 0,0 c -0.253,-0.069 -0.618,-0.439 -0.606,-0.654 0.091,-1.645 0.201,-3.295 0.423,-4.927 0.269,-1.968 0.687,-3.916 0.959,-5.883 0.058,-0.418 -0.19,-0.878 -0.331,-1.3 0.043,0.03 0.143,0.075 0.367,0.15 2.104,0.076 3.756,-0.015 5.409,-0.066 1.82,-0.056 3.642,-0.061 5.462,-0.115 0.63,-0.019 1.268,-0.612 1.4,-1.206 0.036,-0.162 0.105,-0.317 0.133,-0.479 0.987,-5.712 1.965,-11.426 2.958,-17.137 2.384,-13.706 4.773,-27.412 7.172,-41.116 0.142,-0.809 0.328,-1.62 0.595,-2.396 0.226,-0.655 0.765,-1.143 1.469,-1.148 2.983,-0.021 5.966,0.004 8.949,0.048 0.99,0.014 1.98,0.118 2.968,0.209 0.489,0.045 1.2,0.934 1.142,1.454 -0.201,1.809 -0.37,3.626 -0.664,5.421 -0.83,5.067 -1.712,10.125 -2.581,15.185 -1.486,8.651 -2.976,17.301 -4.467,25.952 -0.787,4.57 -1.579,9.14 -2.366,13.71 -0.028,0.163 -0.02,0.331 -0.037,0.496 -0.097,0.917 0.522,1.634 1.42,1.603 2.484,-0.086 4.967,-0.215 7.452,-0.27 1.58,-0.036 2.181,0.588 2.151,2.014 -0.07,3.329 -0.713,6.585 -1.224,9.859 C 38.079,-0.117 37.26,0.599 36.73,0.64 35.742,0.717 34.75,0.816 33.76,0.801 23.152,0.645 12.544,0.473 1.936,0.288 1.287,0.276 0.626,0.17 0,0"
       style="fill:#d2451e;fill-opacity:1;fill-rule:nonzero;stroke:none"
       transform="matrix(1.3333333,0,0,-1.3333333,6587.0903,579.926)"
       clip-path="url(#clipPath420)" />
    <path
       id="path421"
       d="m 0,0 c 1.155,-7.526 2.351,-15.047 3.512,-22.572 1.11,-7.199 2.192,-14.402 3.304,-21.601 0.253,-1.635 0.573,-3.261 0.876,-4.888 0.196,-1.049 0.969,-1.659 2.107,-1.697 0.165,-0.005 0.331,-0.02 0.497,-0.016 7.95,0.217 15.9,0.421 23.849,0.668 1.15,0.035 2.295,0.254 3.438,0.42 0.591,0.086 1.115,0.816 1.083,1.453 -0.153,3.142 -0.421,6.268 -1.405,9.198 -0.938,0.729 -1.951,0.65 -2.938,0.648 -3.645,-0.008 -7.291,-0.044 -10.936,-0.041 -0.823,10e-4 -1.669,0.021 -2.457,0.218 -0.4,0.1 -0.746,0.579 -1.019,0.957 -0.18,0.25 -0.22,0.62 -0.268,0.944 -1.333,9.007 -2.663,18.015 -3.984,27.024 -1.441,9.828 -2.859,19.659 -4.322,29.484 -0.218,1.465 -0.625,2.902 -0.947,4.365 -2.368,0.961 -4.684,0.187 -7.402,0.206 -2.08,-0.238 -3.724,-0.429 -5.366,-0.634 -0.399,-0.05 -0.895,-0.65 -0.896,-1.044 0,-0.495 -0.055,-0.999 0.018,-1.484 C -2.182,14.404 -1.105,7.2 0,0"
       style="fill:#d2451e;fill-opacity:1;fill-rule:nonzero;stroke:none"
       transform="matrix(1.3333333,0,0,-1.3333333,6687.7531,610.62427)"
       clip-path="url(#clipPath422)" />
    <path
       id="path423"
       d="m 0,0 c -0.089,0.287 -0.379,0.512 -0.661,0.876 -0.558,0.053 -1.211,0.166 -1.864,0.17 -3.482,0.02 -6.963,0.003 -10.444,0.02 -1.157,0.005 -2.315,0.061 -3.471,0.12 -0.624,0.032 -1.227,0.602 -1.362,1.228 -0.07,0.324 -0.139,0.648 -0.197,0.973 -1.07,6.034 -2.105,12.074 -3.213,18.101 -2.247,12.216 -4.531,24.425 -6.806,36.636 -0.091,0.485 -0.219,0.969 -0.397,1.428 -0.25,0.645 -0.711,1.199 -1.424,1.205 -3.31,0.026 -6.621,-0.006 -9.932,-0.035 -0.487,-0.004 -1.254,-0.9 -1.199,-1.39 0.163,-1.48 0.305,-2.966 0.55,-4.434 0.491,-2.939 1.053,-5.867 1.572,-8.802 1.153,-6.524 2.294,-13.049 3.448,-19.573 1.153,-6.523 2.311,-13.045 3.478,-19.566 1.021,-5.706 2.048,-11.411 3.091,-17.113 0.31,-1.69 0.82,-2.04 2.802,-2.024 0.496,0.004 0.991,0.081 1.907,0.159 6.387,0.197 12.353,0.347 18.318,0.529 1.655,0.05 3.309,0.183 4.961,0.302 0.494,0.036 0.983,0.151 1.472,0.237 0.921,0.163 1.455,0.822 1.325,1.737 C 1.511,-6.101 0.937,-3.01 0,0"
       style="fill:#d2451e;fill-opacity:1;fill-rule:nonzero;stroke:none"
       transform="matrix(1.3333333,0,0,-1.3333333,6606.3059,772.5332)"
       clip-path="url(#clipPath424)" />
  </g>
</svg>
