<svg width="226" height="174" viewBox="0 0 226 174" fill="none" xmlns="http://www.w3.org/2000/svg">
<g clip-path="url(#clip0_2_722)">
<path d="M92.6885 134.891C96.0064 137.287 99.3337 139.535 102.755 141.638C103.209 141.917 103.65 142.216 104.106 142.491C105.049 143.059 105.996 143.617 106.946 144.175C107.159 144.301 107.396 144.392 107.601 144.528C108.064 144.834 108.434 144.705 108.851 144.392C113.728 140.733 118.181 136.611 122.353 132.174C126.185 128.099 129.666 123.748 132.729 119.065C135.711 114.501 138.272 109.716 140.263 104.634C141.238 102.148 142.041 99.6103 142.604 97.0004C142.971 95.2981 143.262 93.5797 143.347 91.8346C143.391 90.9465 143.447 90.0612 143.501 89.1736C143.513 88.9672 143.635 88.8345 143.82 88.8187C144.281 88.7834 144.741 88.7397 145.201 88.7187C147.012 88.6357 148.822 88.5629 150.631 88.4756C152.405 88.3907 154.179 88.2893 155.953 88.1962C156.841 88.1507 157.727 88.1071 158.614 88.0699C158.791 88.062 158.973 88.0647 159.142 88.1041C159.222 88.1225 159.314 88.2305 159.339 88.3145C159.376 88.4467 159.375 88.5957 159.366 88.7361C159.32 89.3735 159.293 90.016 159.208 90.6474C158.926 92.7244 158.669 94.8048 158.166 96.8461C157.861 98.0878 157.603 99.34 157.302 100.584C156.458 104.076 155.335 107.483 154.095 110.852C152.978 113.888 151.707 116.859 150.285 119.766C150.133 120.077 150.045 120.439 149.741 120.658C149.572 120.555 149.507 120.392 149.447 120.224C148.982 118.946 148.741 117.618 148.608 116.272C148.537 115.529 148.499 114.782 148.484 114.036C148.473 113.469 148.515 112.901 148.547 112.334C148.561 112.04 148.491 111.778 148.374 111.512C147.913 110.452 146.533 110.525 145.998 111.265C145.847 111.473 145.749 111.695 145.716 111.946C145.637 112.545 145.564 113.146 145.498 113.745C145.085 117.426 143.522 120.534 140.849 123.088C139.236 124.629 137.361 125.767 135.321 126.646C133.813 127.297 132.247 127.759 130.636 128.061C129.872 128.203 129.116 128.423 128.327 128.438C128.126 128.443 127.912 128.54 127.728 128.636C127.428 128.793 127.266 129.059 127.208 129.397C127.056 130.266 127.681 130.897 128.28 131.179C128.468 131.269 128.686 131.335 128.893 131.341C129.327 131.352 129.73 131.482 130.143 131.585C130.452 131.662 130.77 131.706 131.084 131.767C133.948 132.311 136.464 133.544 138.571 135.577C138.774 135.773 138.965 135.988 139.151 136.202C139.359 136.437 139.365 136.593 139.162 136.86C138.667 137.511 138.167 138.157 137.66 138.799C133.253 144.386 128.525 149.69 123.567 154.792C120.346 158.106 117.028 161.321 113.618 164.442C113.46 164.585 113.298 164.724 113.147 164.874C112.915 165.107 112.638 165.257 112.32 165.335C111.871 165.445 111.425 165.56 110.975 165.664C108.553 166.224 106.131 166.781 103.708 167.339C103.569 167.371 103.424 167.381 103.29 167.424C103.004 167.515 102.738 167.48 102.463 167.363C100.398 166.5 98.3618 165.572 96.3738 164.541C94.1336 163.379 91.9409 162.135 89.771 160.849C87.9368 159.763 86.1071 158.669 84.2888 157.556C80.7728 155.402 77.3776 153.062 74.0334 150.652C63.9752 143.4 54.6233 135.332 46.0282 126.389C39.7626 119.87 33.9695 112.955 28.7439 105.569C24.0757 98.9706 19.902 92.0773 16.3807 84.7958C13.7142 79.2847 11.4507 73.6154 9.71265 67.74C8.56219 63.8517 7.65879 59.9052 7.05653 55.8947C6.7463 53.8218 6.53392 51.737 6.38821 49.6432C6.15454 46.2615 6.20609 42.8876 6.52633 39.5206C7.17211 32.7207 8.98288 26.2615 12.3189 20.2663C13.794 17.6163 15.529 15.1509 17.5201 12.8658C18.928 11.2496 20.5062 9.83027 22.287 8.62784C25.8955 6.19216 29.8304 4.53016 34.0716 3.58495C36.3648 3.07423 38.691 2.77629 41.0366 2.67595C42.3845 2.61988 43.736 2.65921 45.0852 2.74604C49.2277 3.01326 53.236 3.9053 57.1319 5.31972C57.7663 5.54955 58.4081 5.7549 59.0474 5.97048C63.7217 7.54726 68.0743 9.77487 72.1725 12.5076C75.4351 14.6817 78.4554 17.1546 81.2358 19.92C81.2851 19.97 81.3387 20.0161 81.3901 20.0662C81.4989 20.1668 81.6458 20.1678 81.7728 20.0684C82.9536 19.1575 84.1306 18.2401 85.3193 17.3378C86.3962 16.519 87.5521 15.8201 88.7519 15.1978C93.0074 12.9905 97.5004 11.4676 102.2 10.547C104.505 10.0948 106.831 9.80304 109.172 9.65696C111.588 9.50627 114.004 9.53153 116.413 9.78829C119.32 10.0964 122.163 10.7015 124.899 11.763C128.006 12.969 130.833 14.6499 133.43 16.7293C135.656 18.5132 137.678 20.5044 139.553 22.65C142.04 25.4941 144.235 28.5517 146.2 31.774C149.598 37.3478 152.314 43.2422 154.456 49.4065C154.525 49.6066 154.583 49.8123 154.641 50.018C154.673 50.1273 154.581 50.3277 154.475 50.3784C154.316 50.4555 154.155 50.5324 153.992 50.6031C152.39 51.2843 150.788 51.9635 149.186 52.6468C146.277 53.8871 143.371 55.1317 140.462 56.372C140.139 56.5093 139.806 56.6317 139.513 56.7457C139.32 56.6659 139.264 56.5327 139.221 56.4002C139.103 56.028 139.012 55.6467 138.879 55.28C137.892 52.5363 136.818 49.8297 135.367 47.2889C132.922 43.0059 129.794 39.3188 125.815 36.3788C123.107 34.3767 120.155 32.8449 116.924 31.8751C114.768 31.2271 112.564 30.8499 110.311 30.8388C103.885 30.8095 98.3672 33.0502 93.7857 37.5601C92.3094 39.0114 91.038 40.6301 90.036 42.4524C89.9179 42.6681 89.7674 42.8657 89.6191 43.0634C89.5903 43.1013 89.4713 43.1224 89.4395 43.096C89.2463 42.9416 89.0598 42.7792 88.8842 42.6029C86.5918 40.3107 84.1324 38.2173 81.5216 36.2986C78.1836 33.8475 74.6162 31.8116 70.7659 30.271C68.6144 29.41 66.4003 28.7715 64.1184 28.376C63.1745 28.2117 62.2162 28.1296 61.2637 28.0125C61.0519 27.9856 60.8402 27.9566 60.6275 27.9461C60.3157 27.9329 60.1019 27.7755 59.9191 27.5367C58.8859 26.1964 58.1688 24.6976 57.6892 23.0821C57.3234 21.849 57.139 20.5855 57.0423 19.3076C56.9997 18.7403 56.9614 18.1712 56.954 17.6036C56.9488 17.0362 56.9807 16.4684 57.0086 15.9005C57.0245 15.5742 56.9709 15.2755 56.8326 14.9727C56.3649 13.9582 55.0412 14.0279 54.5089 14.6704C54.3198 14.8972 54.1918 15.1435 54.1549 15.4315C54.0797 15.995 54.0004 16.5584 53.9416 17.1248C53.4853 21.5367 51.4515 25.0722 47.9938 27.8072C45.9614 29.4155 43.6584 30.5054 41.1842 31.2473C39.7853 31.6673 38.3548 31.9305 36.9107 32.133C36.6648 32.1665 36.4187 32.2062 36.1796 32.2711C35.6803 32.4081 35.4023 32.7609 35.3549 33.2636C35.308 33.7561 35.4574 34.1692 35.8066 34.5196C36.1714 34.8873 36.5903 35.1232 37.1193 35.1388C37.4045 35.1465 37.6901 35.1895 37.9704 35.1701C38.8447 35.1074 39.6542 35.3976 40.4755 35.6138C41.305 35.8325 42.0829 36.1749 42.8142 36.6248C43.0051 36.7418 43.0498 36.8848 42.9642 37.0689C42.9341 37.1337 42.9061 37.1986 42.8739 37.2633C42.5312 37.9648 42.1945 38.6708 41.8416 39.3677C41.4704 40.101 41.2456 40.887 40.9923 41.6633C40.8707 42.0341 40.7613 42.4076 40.6332 42.8257C40.5362 42.7361 40.4251 42.6809 40.4081 42.6056C40.3174 42.2181 40.165 41.865 39.9409 41.5393C39.794 41.3272 39.6004 41.181 39.3652 41.0826C38.9798 40.9229 38.6029 40.9293 38.2422 41.1517C38.1206 41.2265 38.0048 41.3078 37.8891 41.3891C37.679 41.5382 37.5283 41.7419 37.4767 41.992C37.4039 42.3382 37.3494 42.6896 37.3032 43.0413C37.1838 43.9567 37.0931 44.8776 36.9512 45.7898C36.6938 47.4519 36.1815 49.0374 35.435 50.5452C35.0538 51.3132 34.6046 52.0343 34.0589 52.6949C33.5353 53.3296 32.9369 53.8841 32.2329 54.3153C31.6227 54.6891 30.9865 55.0016 30.2607 55.0737C29.8261 55.1165 29.4422 55.3068 29.0623 55.4993C28.7673 55.6484 28.5587 55.8928 28.43 56.197C28.3762 56.3248 28.334 56.4677 28.3272 56.606C28.2972 57.2173 28.7523 57.8979 29.3231 58.1164C29.4226 58.1544 29.5265 58.1885 29.6293 58.2018C30.0633 58.2562 30.438 58.465 30.8223 58.6474C32.4016 59.4017 33.6593 60.5109 34.5512 62.0327C35.4218 63.5224 35.9954 65.1197 36.312 66.81C36.4958 67.7899 36.5963 68.7782 36.6199 69.7751C36.6305 70.2352 36.6573 70.7002 36.7303 71.153C36.8179 71.6893 37.1549 72.0329 37.6832 72.1913C37.9341 72.2657 38.1732 72.2422 38.4149 72.1671C39.1231 71.9472 39.5549 71.4136 39.57 70.6815C39.6009 69.2504 39.9334 67.8714 40.237 66.489C40.3379 66.5001 40.4277 66.4838 40.453 66.5161C40.5133 66.5957 40.5621 66.6974 40.5842 66.7958C41.7695 72.1266 43.62 77.2271 45.9254 82.1677C48.1689 86.977 50.8275 91.5519 53.7864 95.9532C57.702 101.778 62.0979 107.219 66.8859 112.345C72.4035 118.251 78.3515 123.693 84.6426 128.762C87.2446 130.861 89.8998 132.887 92.6721 134.888L92.6885 134.891ZM26.9436 100.753C31.2098 107.193 35.921 113.295 41.0151 119.099C50.5959 130.015 61.2852 139.718 72.9628 148.343C77.109 151.405 81.3867 154.277 85.7179 157.069C87.3308 158.108 88.964 159.114 90.6152 160.091C92.8476 161.412 95.1052 162.684 97.3828 163.928C98.5055 164.539 99.635 165.139 100.788 165.688C101.237 165.903 101.683 166.122 102.13 166.34C102.427 166.487 102.737 166.531 103.062 166.46C103.2 166.43 103.338 166.397 103.478 166.371C105.261 166.048 107.008 165.565 108.773 165.155C109.707 164.937 110.635 164.705 111.596 164.473C111.557 164.351 111.555 164.219 111.491 164.176C111.076 163.903 110.652 163.642 110.223 163.391C100.46 157.677 91.0699 151.406 82.0837 144.532C72.3276 137.069 63.1321 128.975 54.6374 120.096C48.8319 114.027 43.4193 107.626 38.4924 100.818C34.8193 95.744 31.4666 90.4684 28.5366 84.93C25.9549 80.0524 23.7221 75.0242 22.0009 69.7769C21.6138 68.5965 21.2794 67.396 20.8881 66.2175C19.6423 62.4592 18.8733 58.5979 18.3576 54.6807C18.1497 53.0951 17.9959 51.5039 17.8691 49.9099C17.7308 48.1724 17.6484 46.4336 17.6096 44.6927C17.5916 43.8762 17.6235 43.058 17.6634 42.2422C17.7331 40.8214 17.8212 39.4035 17.9094 37.9835C17.9435 37.4159 17.9693 36.8458 18.0425 36.2822C18.3584 33.8486 18.7809 31.4348 19.4003 29.0576C20.2285 25.8832 21.341 22.818 22.8377 19.8958C24.4372 16.7758 26.4106 13.9226 28.8899 11.4315C31.663 8.64645 34.8632 6.51991 38.5692 5.17792C39.7069 4.76583 40.8728 4.45448 42.0528 4.19351C42.1512 4.17142 42.2647 4.17699 42.3197 4.06789C42.3312 4.04568 42.3279 3.98549 42.3217 3.98518C42.1867 3.95372 42.0504 3.90564 41.9139 3.90309C39.4857 3.87516 37.0913 4.16977 34.7235 4.68304C29.6071 5.79237 24.9531 7.89733 20.8789 11.219C20.4951 11.5335 20.1248 11.8693 19.7803 12.2271C17.4014 14.6962 15.3599 17.4198 13.6577 20.3961C10.3941 26.0968 8.56072 32.2567 7.84467 38.7592C7.50557 41.8354 7.40792 44.9256 7.53963 48.0228C7.63952 50.3338 7.84344 52.6334 8.16182 54.92C8.73787 59.043 9.64013 63.0972 10.8101 67.094C12.4798 72.8026 14.6494 78.3183 17.2134 83.6815C20.0234 89.5598 23.2656 95.1901 26.9416 100.751L26.9436 100.753ZM112.887 10.7934C110.395 10.6651 107.917 10.8562 105.452 11.195C101.925 11.6804 98.4919 12.5617 95.1365 13.7594C92.2844 14.7789 89.5769 16.0994 86.9366 17.5703C86.0982 18.0384 85.308 18.5814 84.5603 19.1845C83.9527 19.6743 83.3391 20.1597 82.7295 20.6473C82.5917 20.7565 82.4598 20.8722 82.3519 20.9621C82.3069 21.2042 82.4244 21.3404 82.54 21.4744C83.5409 22.6289 84.5377 23.7833 85.543 24.9339C85.7056 25.1199 85.8963 25.2824 86.0763 25.4527C86.1832 25.5511 86.359 25.5535 86.461 25.4571C86.9754 24.9689 87.4979 24.4852 88.0024 23.9862C90.4363 21.5778 93.1158 19.4754 95.992 17.627C99.8384 15.1512 103.947 13.2451 108.359 12.0102C109.899 11.5806 111.461 11.2576 113.044 11.0205C113.121 11.0098 113.147 10.9469 113.107 10.8704C113.094 10.8429 113.049 10.8344 112.887 10.7955L112.887 10.7934Z" fill="#FBFBF8"/>
<path d="M79.0839 122.59C73.5274 117.691 68.3677 112.507 63.5886 106.946C59.2265 101.869 55.2338 96.5212 51.7582 90.7966C48.8381 85.9852 46.3186 80.9782 44.3462 75.704C43.0359 72.2054 41.9713 68.6339 41.2698 64.9602C41.2435 64.8202 41.2068 64.6839 41.1848 64.542C41.1498 64.3271 41.1766 64.1172 41.2814 63.9216C41.9378 62.6889 42.732 61.5602 43.7971 60.6436C44.4496 60.0835 45.1692 59.6302 45.9729 59.3197C46.6057 59.0754 47.2525 58.8856 47.9436 58.9298C48.1952 58.9463 48.4387 58.9189 48.6698 58.806C49.34 58.4745 49.6806 57.9447 49.6865 57.1914C49.6906 56.4733 49.3171 55.9871 48.7362 55.6357C48.5896 55.5457 48.4051 55.5098 48.233 55.4744C47.9195 55.4094 47.6031 55.3628 47.289 55.3102C46.5379 55.1822 45.873 54.8557 45.257 54.4198C44.703 54.0262 44.2277 53.5474 43.7961 53.0232C43.3194 52.4451 42.9092 51.8225 42.5565 51.1635C41.8836 49.9029 41.409 48.5672 41.0462 47.1872C40.9624 46.8685 40.9509 46.5553 41.0141 46.2375C41.4414 44.1469 41.8973 42.0659 42.7778 40.1052C43.1424 39.295 43.5232 38.4918 43.9928 37.7364C44.0893 37.5818 44.2981 37.5444 44.4584 37.6516C45.3158 38.2298 46.0897 38.9074 46.8481 39.607C48.6535 41.2792 49.9776 43.2714 50.8563 45.5689C51.4305 47.0689 51.8289 48.61 52.099 50.1925C52.2419 51.0358 52.2891 51.8869 52.378 52.7338C52.43 53.2353 52.5619 53.7096 52.8072 54.1522C52.9821 54.4692 53.2176 54.7313 53.5335 54.9144C53.8897 55.1203 54.2558 55.1672 54.6596 55.0359C55.1369 54.8812 55.4636 54.5929 55.6111 54.1157C55.6748 53.9139 55.7223 53.7051 55.7594 53.4978C55.7848 53.3583 55.7857 53.2134 55.7843 53.0726C55.7728 52.2108 55.9234 51.3757 56.1625 50.551C56.459 49.5263 56.7635 48.5062 57.1618 47.5155C59.3548 42.0418 64.0348 38.9837 68.0924 38.0254C69.2712 37.7478 70.4698 37.614 71.676 37.5365C71.8525 37.5245 72.0304 37.5249 72.2074 37.5025C72.6425 37.4493 73.0276 37.2778 73.339 36.9618C73.4392 36.8611 73.5413 36.7626 73.6375 36.6576C74.2364 36.0059 74.4212 35.2345 74.2497 34.3835C74.0782 33.5346 73.5323 33.0193 72.714 32.7825C72.1242 32.6129 71.5122 32.645 70.9121 32.6859C69.2112 32.8075 67.5943 32.4405 66.0046 31.8968C64.4414 31.3627 63.0234 30.5686 61.7816 29.4727C61.7558 29.4507 61.7199 29.4241 61.7151 29.3949C61.7017 29.3301 61.6989 29.2616 61.7062 29.1957C61.7072 29.1751 61.7525 29.138 61.7751 29.1411C62.2351 29.172 62.6987 29.1719 63.1524 29.2459C66.0042 29.7107 68.7564 30.5163 71.423 31.6345C74.0532 32.7364 76.5286 34.1226 78.9131 35.6762C82.0196 37.6999 84.8637 40.0523 87.5425 42.6098C88.0565 43.1008 88.5618 43.6017 89.0758 44.0927C89.2279 44.2388 89.3997 44.3652 89.5649 44.4996C89.6266 44.5503 89.8041 44.5175 89.853 44.4496C89.9151 44.3636 89.9833 44.2821 90.0353 44.1914C90.7316 42.9897 91.5301 41.8571 92.3625 40.749C93.7173 38.9481 95.2931 37.3671 97.1113 36.034C100.035 33.8898 103.293 32.5776 106.887 32.083C109.014 31.7919 111.132 31.8191 113.256 32.1447C118.194 32.9042 122.533 34.9739 126.391 38.1005C129.886 40.9341 132.665 44.368 134.822 48.3098C136.279 50.971 137.375 53.778 138.186 56.6994C138.214 56.8023 138.229 56.9086 138.249 57.0131C138.274 57.1426 138.193 57.3146 138.077 57.369C137.82 57.491 137.564 57.6109 137.302 57.7243C132.503 59.7829 127.704 61.8414 122.906 63.8979C122.644 64.0092 122.382 64.1206 122.116 64.2194C120.189 64.9468 118.262 65.6721 116.333 66.3973C116.134 66.4725 115.933 66.5371 115.703 66.617C115.602 66.5209 115.484 66.4386 115.407 66.3292C115.223 66.0676 115.061 65.7905 114.883 65.5251C113.483 63.4464 111.663 61.8501 109.403 60.7498C108.538 60.3286 107.659 59.9501 106.712 59.7588C105.626 59.5399 104.535 59.4575 103.428 59.5874C99.9642 59.9953 97.0874 61.5601 94.6618 64.0123C94.1632 64.5158 93.7237 65.0801 93.2568 65.6141C93.1405 65.7471 93.0283 65.8844 92.8983 66.0023C92.8593 66.0376 92.7515 66.0427 92.7074 66.0136C92.5611 65.9154 92.4237 65.8051 92.2952 65.6829C91.4472 64.8712 90.5574 64.1093 89.6172 63.4049C88.1042 62.2687 86.4959 61.3038 84.7271 60.6147C83.527 60.146 82.2861 59.8347 81.0027 59.7552C78.3989 59.5945 76.0924 60.3758 74.1192 62.0842C72.6668 63.3442 71.656 64.9238 70.9605 66.7011C70.4659 67.9666 70.1985 69.2846 70.0947 70.6417C69.9275 72.83 70.2159 74.9681 70.7393 77.0825C71.3147 79.4024 72.1852 81.6146 73.2475 83.7534C74.7843 86.8532 76.6565 89.7397 78.7634 92.4804C80.8684 95.2189 83.1833 97.7689 85.6302 100.203C90.1353 104.682 95.1149 108.56 100.494 111.933C100.584 111.989 100.679 112.043 100.779 112.073C100.84 112.092 100.925 112.084 100.98 112.054C101.104 111.985 101.226 111.906 101.33 111.812C101.752 111.431 102.18 111.057 102.582 110.654C108.668 104.583 113.167 97.5099 115.962 89.3684C116.032 89.1668 116.106 88.9676 116.184 88.7685C116.257 88.5817 116.396 88.5388 116.615 88.6282C116.911 88.7504 117.2 88.8908 117.502 88.9925C118.277 89.2562 119.073 89.4401 119.886 89.54C121.371 89.7246 122.858 89.7747 124.354 89.672C125.381 89.6023 126.411 89.5762 127.44 89.5335C129.215 89.459 130.99 89.3887 132.763 89.3079C134.609 89.2245 136.454 89.1286 138.298 89.045C139.432 88.993 140.568 88.9493 141.704 88.9098C141.878 88.9038 142.057 88.9271 142.23 88.9604C142.283 88.9713 142.348 89.0448 142.367 89.1038C142.398 89.2025 142.409 89.3107 142.404 89.4161C142.349 90.4443 142.301 91.475 142.129 92.4933C141.988 93.3332 141.887 94.1811 141.746 95.023C141.299 97.6922 140.581 100.292 139.709 102.852C138.143 107.445 136.014 111.771 133.506 115.919C130.463 120.952 126.933 125.623 123.058 130.039C119.248 134.378 115.042 138.297 110.549 141.917C110.023 142.341 109.496 142.762 108.966 143.181C108.798 143.314 108.631 143.442 108.453 143.562C108.265 143.689 108.056 143.726 107.85 143.609C107.357 143.326 106.859 143.053 106.382 142.744C104.713 141.662 103.049 140.572 101.389 139.475C97.0636 136.611 92.8071 133.647 88.6905 130.487C85.4196 127.977 82.2279 125.369 79.0797 122.592L79.0839 122.59Z" fill="#FBFBF8"/>
<path d="M51.4162 44.2777C50.5189 42.2753 49.3837 40.5242 47.9342 38.9792C46.0717 36.9937 43.8524 35.5745 41.2353 34.7983C40.4153 34.5552 39.5784 34.4024 38.7277 34.3214C38.1983 34.2706 37.6698 34.2012 37.1438 34.1237C36.8542 34.0805 36.6088 33.936 36.4236 33.7034C36.3066 33.5568 36.263 33.3912 36.332 33.2062C36.401 33.0232 36.5406 32.9204 36.7224 32.8837C36.8604 32.8553 37.0033 32.854 37.1461 32.8527C37.788 32.8469 38.4208 32.7703 39.0514 32.6563C41.2649 32.2514 43.3992 31.6066 45.4223 30.6106C47.5811 29.5489 49.4993 28.1586 51.0869 26.3381C53.2839 23.8208 54.5343 20.8989 54.7911 17.5599C54.8149 17.2423 54.7811 16.9198 54.8091 16.6023C54.8407 16.252 54.9034 15.901 54.9742 15.5546C54.9934 15.4583 55.0764 15.3692 55.1445 15.2897C55.3553 15.0413 55.7731 15.0473 55.9971 15.2901C56.1485 15.4528 56.2344 15.6433 56.2694 15.8562C56.3307 16.2111 56.3092 16.5661 56.2464 16.9171C56.0835 17.8344 56.0694 18.755 56.1421 19.6798C56.419 23.1505 57.6164 26.2482 59.9169 28.8824C61.7432 30.9738 64.0308 32.3508 66.6851 33.1288C68.1601 33.5613 69.6719 33.7514 71.2096 33.7501C71.5986 33.7506 71.9906 33.776 72.3779 33.8116C72.6396 33.8347 72.8389 33.9915 72.9968 34.1897C73.0611 34.2715 73.1184 34.3695 73.1446 34.4681C73.3956 35.3851 72.7701 36.1556 72.1478 36.3528C71.7106 36.4908 71.2615 36.5764 70.7926 36.601C68.0103 36.7441 65.4069 37.5046 63.0202 38.9506C59.7399 40.9387 57.4891 43.7928 56.0759 47.3339C55.8377 47.9288 55.6403 48.5361 55.5041 49.1628C55.3009 50.099 55.0486 51.0244 54.9827 51.99C54.9464 52.5182 54.8071 53.0392 54.7069 53.5622C54.6875 53.6627 54.6351 53.7616 54.5872 53.8524C54.471 54.0682 54.1101 54.1271 53.9344 53.9549C53.8357 53.8569 53.727 53.7523 53.6731 53.6275C53.5766 53.4012 53.4931 53.1632 53.447 52.9208C53.3049 52.1893 53.1856 51.4568 53.1332 50.709C53.0592 49.6434 52.8309 48.6012 52.5649 47.5676C52.2817 46.4648 51.9038 45.3926 51.4141 44.2776L51.4162 44.2777Z" fill="#FBFBF8"/>
<path d="M147.768 112.271C147.843 112.674 147.838 112.993 147.779 113.311C147.452 115.093 147.643 116.854 148.046 118.596C148.624 121.101 149.733 123.343 151.456 125.26C153.364 127.382 155.726 128.756 158.481 129.473C159.727 129.797 160.996 129.93 162.278 129.939C162.669 129.941 163.06 129.944 163.45 129.977C163.621 129.992 163.8 130.051 163.951 130.135C164.489 130.43 164.653 131.144 164.329 131.718C164.073 132.171 163.719 132.498 163.195 132.609C162.814 132.689 162.437 132.774 162.041 132.798C157.163 133.093 153.157 135.106 150.113 138.946C148.525 140.951 147.425 143.201 146.906 145.724C146.762 146.421 146.609 147.111 146.547 147.822C146.497 148.385 146.364 148.941 146.258 149.499C146.238 149.597 146.174 149.692 146.116 149.78C145.981 149.986 145.619 150.029 145.463 149.845C145.349 149.711 145.234 149.565 145.176 149.405C145.079 149.139 144.998 148.862 144.959 148.585C144.872 147.953 144.76 147.327 144.707 146.686C144.595 145.302 144.286 143.95 143.871 142.623C142.989 139.8 141.599 137.266 139.567 135.102C137.624 133.032 135.296 131.587 132.537 130.886C131.817 130.704 131.07 130.62 130.335 130.507C129.913 130.443 129.489 130.41 129.065 130.364C128.729 130.329 128.457 130.175 128.246 129.916C128.125 129.77 128.082 129.594 128.159 129.419C128.233 129.253 128.369 129.138 128.556 129.099C128.589 129.093 128.626 129.09 128.662 129.09C130.571 129.099 132.387 128.608 134.186 128.048C135.958 127.498 137.629 126.716 139.184 125.695C141.2 124.37 142.895 122.724 144.175 120.667C145.418 118.67 146.129 116.494 146.333 114.153C146.36 113.835 146.378 113.513 146.355 113.195C146.329 112.832 146.408 112.488 146.485 112.144C146.543 111.886 146.702 111.691 146.971 111.631C147.293 111.562 147.518 111.716 147.67 111.991C147.704 112.052 147.723 112.122 147.768 112.273L147.768 112.271Z" fill="#FBFBF8"/>
<path d="M158.242 50.9441C159.619 52.144 159.916 53.6097 159.628 55.2538C159.599 55.4263 159.523 55.5923 159.447 55.7521C159.403 55.8431 159.326 55.9346 159.241 55.9863C159.057 56.0953 158.861 56.1809 158.668 56.2687C156.347 57.3412 154.028 58.4199 151.704 59.4819C144.725 62.6674 137.745 65.8528 130.76 69.0256C127.947 70.3037 125.118 71.5417 122.297 72.805C121.804 73.0251 121.3 73.1763 120.761 73.2037C120.642 73.2103 120.458 73.0936 120.426 72.9865C120.348 72.7136 120.281 72.437 120.199 72.1639C119.966 71.3803 119.738 70.5969 119.49 69.8188C119.179 68.8327 118.759 67.895 118.219 67.0094C118.138 66.8771 118.192 66.7203 118.329 66.6608C118.426 66.618 118.524 66.573 118.623 66.5365C122.717 65.0065 126.731 63.2863 130.755 61.5852C138.836 58.1721 146.911 54.7485 154.99 51.3292C155.449 51.1363 155.917 50.9647 156.366 50.7548C157.001 50.4589 157.6 50.4758 158.24 50.944L158.242 50.9441Z" fill="#FBFBF8"/>
<path d="M149.353 87.5996C147.411 87.7031 145.566 87.8073 143.722 87.9032C141.983 87.9939 140.243 88.066 138.506 88.1589C136.84 88.2491 135.173 88.3578 133.507 88.4541C132.62 88.5059 131.732 88.5494 130.846 88.6012C129.819 88.6626 128.789 88.728 127.762 88.7936C126.946 88.8468 126.132 88.9 125.316 88.9573C124.89 88.9862 124.464 89.015 124.04 89.0522C123.506 89.0984 122.975 89.0807 122.444 89.0195C122.259 88.998 122.137 88.8616 122.133 88.6585C122.118 88.1961 122.087 87.735 122.102 87.272C122.15 85.5997 122.087 83.9321 121.923 82.2679C121.918 82.2325 121.922 82.1975 121.922 82.1623C121.919 82.0545 122.067 81.861 122.168 81.8535C122.416 81.8367 122.665 81.8137 122.911 81.8134C124.474 81.8051 126.038 81.8134 127.602 81.7948C129.13 81.7745 130.658 81.7272 132.184 81.6924C133.214 81.6683 134.244 81.6422 135.276 81.6203C136.662 81.5909 138.047 81.5719 139.431 81.5362C140.815 81.5006 142.2 81.4525 143.587 81.4107C144.582 81.3808 145.576 81.3509 146.569 81.3251C147.883 81.2921 149.198 81.2676 150.512 81.2326C151.896 81.1949 153.281 81.1448 154.668 81.1009C155.768 81.0659 156.869 81.0308 157.971 81.0041C159.855 80.9577 161.736 80.9133 163.62 80.9705C163.833 80.9768 164.046 80.9789 164.259 80.9873C164.449 80.9966 164.593 81.0906 164.706 81.239C165.009 81.6451 165.191 82.1115 165.298 82.5991C165.575 83.8569 165.437 85.0694 164.869 86.2319C164.715 86.5494 164.491 86.733 164.133 86.759C163.602 86.7991 163.071 86.8539 162.54 86.8899C161.653 86.952 160.768 87.0122 159.882 87.0619C158.108 87.1613 156.336 87.2545 154.562 87.3497C153.782 87.3922 153.002 87.4327 152.22 87.4709C151.296 87.5147 150.374 87.5564 149.353 87.6016L149.353 87.5996Z" fill="#FBFBF8"/>
<path d="M201.356 22.692C201.854 23.0497 202.249 23.4065 202.61 23.7989C203.707 24.9892 204.318 26.4 204.513 27.9953C204.556 28.3452 204.534 28.7043 204.529 29.0581C204.525 29.4367 204.353 29.7409 204.074 29.986C203.94 30.1015 203.798 30.2105 203.647 30.3004C203.372 30.4629 203.093 30.619 202.803 30.7559C197.958 33.0461 193.105 35.3214 188.263 37.6221C184.994 39.176 181.738 40.7615 178.474 42.328C177.804 42.6492 177.174 43.0551 176.465 43.2936C176.38 43.3226 176.326 43.2951 176.303 43.205C176.295 43.1714 176.276 43.1394 176.279 43.1086C176.287 43.0386 176.288 42.962 176.32 42.9036C176.437 42.6836 176.557 42.468 176.685 42.2549C177.837 40.3384 178.984 38.4177 180.144 36.5058C181.965 33.5002 183.799 30.5013 185.614 27.4934C186.038 26.7916 186.503 26.123 187.006 25.4811C188.816 23.1746 191.178 21.7688 194.054 21.2473C195.906 20.9116 197.73 21.0487 199.502 21.7193C200.136 21.9594 200.731 22.2743 201.356 22.6982L201.356 22.692Z" fill="#FBFBF8"/>
<path d="M126.373 73.0462C129.636 72.4422 132.812 71.8609 135.983 71.2587C140.898 70.3258 145.812 69.3846 150.723 68.4391C154.346 67.741 157.967 67.0304 161.588 66.3239C161.624 66.3174 161.658 66.3087 161.691 66.2979C162.331 66.0746 162.794 66.3499 163.171 66.8362C163.302 67.0041 163.426 67.182 163.518 67.3707C164.123 68.6094 164.22 69.8873 163.777 71.1967C163.707 71.4065 163.558 71.5669 163.351 71.6478C163.153 71.7251 162.948 71.7812 162.744 71.8396C160.557 72.4569 158.338 72.9361 156.117 73.4131C146.647 75.4435 137.179 77.4988 127.745 79.6883C125.982 80.0967 124.232 80.5533 122.474 80.9867C122.336 81.0213 122.2 81.0561 122.062 81.0866C121.984 81.1035 121.836 81.0031 121.817 80.9235C121.791 80.8208 121.755 80.7196 121.743 80.6155C121.521 78.6028 121.199 76.6058 120.777 74.6268C120.755 74.5222 120.748 74.4163 120.734 74.31C120.716 74.1642 120.807 74.0134 120.939 73.9826C121.11 73.9413 121.282 73.898 121.457 73.8673C123.066 73.5963 124.677 73.3295 126.373 73.0483L126.373 73.0462Z" fill="#FBFBF8"/>
<path d="M182.046 62.9315C183.348 61.5731 184.65 60.2147 185.954 58.8564C188.957 55.7307 191.958 52.6069 194.962 49.4833C196.977 47.3898 199.434 46.1211 202.292 45.6588C204.182 45.3539 206.047 45.4992 207.831 46.2615C208.853 46.6966 209.78 47.2845 210.585 48.0547C211.83 49.246 212.635 50.6766 212.876 52.3984C213.055 53.6948 212.881 54.947 212.363 56.1492C212.288 56.3236 212.153 56.4308 211.969 56.4694C207.392 57.4623 202.813 58.451 198.236 59.4502C193.728 60.434 189.224 61.4243 184.718 62.4186C184.094 62.5558 183.479 62.7306 182.858 62.8761C182.652 62.924 182.439 62.9321 182.147 62.9364C182.065 62.9138 182.048 62.9316 182.048 62.9316L182.046 62.9315Z" fill="#FBFBF8"/>
<path d="M191.274 87.4206C189.461 86.5015 187.72 85.6213 185.979 84.741C185.789 84.6448 185.602 84.5424 185.414 84.4442C185.237 84.3506 185.174 84.1923 185.187 84.0025C185.193 83.8972 185.212 83.7925 185.232 83.6879C185.251 83.5957 185.381 83.5131 185.475 83.5342C186.13 83.6885 186.784 83.851 187.441 83.997C188.793 84.2951 190.152 84.5563 191.52 84.76C192.679 84.9328 193.838 85.0993 194.997 85.2679C195.244 85.3027 195.491 85.3293 195.738 85.358C198.912 85.7454 202.1 85.9369 205.292 86.083C206.178 86.1244 207.066 86.1575 207.953 86.1803C209.728 86.228 211.5 86.1699 213.276 86.0975C214.553 86.0442 215.826 85.9493 217.094 85.7961C217.236 85.7803 217.377 85.7707 217.518 85.761C217.823 85.7429 217.961 85.8428 218.047 86.1596C218.198 86.7094 218.286 87.2664 218.273 87.8413C218.251 88.7449 218.015 89.5945 217.636 90.406C217.208 91.3167 216.623 92.1181 215.882 92.796C213.691 94.8002 211.113 95.6758 208.154 95.3714C207.302 95.284 206.491 95.0269 205.721 94.6414C200.93 92.2453 196.136 89.8532 191.274 87.4185L191.274 87.4206Z" fill="#FBFBF8"/>
<path d="M185.466 80.9648C189.352 78.0334 193.179 75.1448 197.01 72.2645C197.745 71.7126 197.622 71.6818 198.649 71.966C200.769 72.5523 202.903 73.0854 205.056 73.5367C205.513 73.6315 205.969 73.6621 206.431 73.6475C208.153 73.5953 209.805 73.2187 211.393 72.5576C212.483 72.1038 213.489 71.5175 214.37 70.7223C214.552 70.5594 214.754 70.4182 214.966 70.2547C215.095 70.3687 215.216 70.447 215.302 70.5527C216.153 71.5881 216.727 72.7631 216.937 74.0879C217.19 75.6799 216.946 77.1998 216.136 78.6113C216.021 78.8106 215.85 78.9161 215.621 78.938C215.374 78.9611 215.127 79.0028 214.88 79.0218C212.156 79.2423 209.434 79.4649 206.711 79.6813C204.234 79.8787 201.758 80.0699 199.282 80.2611C197.017 80.4358 194.753 80.6023 192.489 80.7852C190.438 80.9518 188.389 81.1329 186.337 81.3118C186.019 81.3397 185.704 81.3926 185.386 81.4225C185.33 81.428 185.232 81.3943 185.216 81.3521C185.195 81.3014 185.226 81.2159 185.258 81.1616C185.292 81.1032 185.356 81.0608 185.464 80.9647L185.466 80.9648Z" fill="#FBFBF8"/>
<path d="M204.054 64.6747C207.608 64.2838 211.039 63.7315 214.419 62.8869C214.626 62.835 214.833 62.7851 215.04 62.7414C215.225 62.7008 215.369 62.7948 215.45 62.9893C215.771 63.7585 215.868 64.5644 215.842 65.3891C215.802 66.6604 215.428 67.8344 214.783 68.9228C214.657 69.1339 214.502 69.3354 214.324 69.5048C214.016 69.7981 213.698 70.0847 213.352 70.3328C211.462 71.6934 209.345 72.4571 207.03 72.6458C206.145 72.7184 205.266 72.6215 204.388 72.4335C202.268 71.9818 200.178 71.4157 198.084 70.87C196.745 70.5229 195.423 70.1061 194.097 69.712C190.389 68.609 186.683 67.4999 182.977 66.3929C182.842 66.3532 182.705 66.3113 182.576 66.2552C182.436 66.1966 182.357 66.0727 182.339 65.9269C182.321 65.7873 182.324 65.6426 182.327 65.5019C182.329 65.3861 182.486 65.2116 182.592 65.2065C182.804 65.1961 183.017 65.1818 183.23 65.1922C184.685 65.2697 186.139 65.3265 187.591 65.4391C189.153 65.5612 190.714 65.5114 192.276 65.4783C193.376 65.4556 194.475 65.3831 195.575 65.3211C196.745 65.2543 197.914 65.1811 199.081 65.0976C200.356 65.0069 201.63 64.9037 202.903 64.7984C203.257 64.7702 203.609 64.7192 204.054 64.6706L204.054 64.6747Z" fill="#FBFBF8"/>
<path d="M37.1552 66.2015C36.9383 65.1371 36.6622 64.1837 36.281 63.2624C35.7443 61.9692 35.0129 60.803 34.0596 59.7751C33.4247 59.0918 32.7077 58.5184 31.8692 58.1047C31.2327 57.7899 30.6147 57.4367 29.9005 57.3147C29.7979 57.2973 29.7036 57.2367 29.6063 57.1947C29.4258 57.1196 29.3359 56.9682 29.295 56.7903C29.2506 56.5976 29.3623 56.3464 29.5393 56.2392C29.6588 56.1663 29.7844 56.0938 29.9168 56.0527C30.2888 55.9364 30.6629 55.8202 31.0416 55.7352C31.9604 55.5256 32.7773 55.1144 33.5115 54.5334C34.2694 53.933 34.9065 53.221 35.4526 52.4239C36.447 50.9676 37.0807 49.3549 37.4913 47.6485C37.7825 46.4352 37.9403 45.2008 38.0074 43.9579C38.0361 43.4148 38.1563 42.9053 38.3688 42.4126C38.4085 42.3193 38.487 42.2383 38.555 42.1588C38.6955 41.996 38.9826 42.0059 39.1216 42.168C39.286 42.3603 39.4185 42.5717 39.4516 42.8238C39.5075 43.2468 39.5633 43.6698 39.5943 44.0936C39.7943 46.9375 40.5782 49.6071 41.9711 52.0954C42.4772 53 43.0973 53.8191 43.8571 54.5292C44.7318 55.3463 45.7336 55.9336 46.8997 56.2102C47.2434 56.2913 47.6031 56.2985 47.9523 56.3529C48.2152 56.3927 48.404 56.5531 48.5336 56.7789C48.7701 57.19 48.5883 57.6904 48.1455 57.8156C47.6671 57.9495 47.1886 58.0855 46.7016 58.1837C45.3408 58.4586 44.1791 59.1076 43.1434 60.0133C41.7509 61.2327 40.7706 62.7393 40.0827 64.4445C39.6021 65.6362 39.2808 66.8729 39.0903 68.1408C39.001 68.7389 38.9282 69.3377 38.8388 69.9357C38.7902 70.2522 38.7415 70.5707 38.5766 70.8524C38.4659 71.0416 38.322 71.1919 38.0998 71.2493C37.9488 71.2895 37.6998 71.1758 37.6483 71.045C37.52 70.7075 37.4585 70.3567 37.4718 70.0012C37.5186 68.7511 37.3762 67.5186 37.1552 66.2015Z" fill="#FBFBF8"/>
<path d="M208.952 43.3107C208.607 43.9437 208.242 44.4662 207.819 44.9485C207.632 45.1629 207.414 45.2164 207.151 45.1538C207.011 45.1221 206.874 45.0885 206.735 45.0589C203.319 44.3284 200.108 44.8562 197.114 46.6575C196.69 46.9121 196.3 47.2242 195.841 47.5474C195.649 47.5442 195.405 47.5508 195.159 47.5347C194.202 47.4712 193.247 47.4037 192.292 47.3341C190.381 47.1928 188.469 47.0515 186.558 46.9081C183.869 46.706 181.179 46.4996 178.49 46.2933C178.278 46.2767 178.066 46.2559 177.859 46.2085C177.714 46.1745 177.635 46.0526 177.613 45.8984C177.603 45.8171 177.677 45.6469 177.74 45.6334C177.914 45.5964 178.086 45.5427 178.261 45.5264C181.164 45.2381 184.005 44.6155 186.822 43.8904C192.087 42.5378 197.222 40.7897 202.217 38.6456C203.39 38.1421 204.53 37.5624 205.677 37.0038C206.57 36.5693 207.451 36.1116 208.306 35.6794C208.546 35.6829 208.662 35.8148 208.766 35.9607C209.757 37.3673 210.067 38.9351 209.834 40.615C209.706 41.5341 209.431 42.415 208.952 43.3086L208.952 43.3107Z" fill="#FBFBF8"/>
<path d="M97.2836 90.3242C97.1748 90.9399 97.0562 91.46 96.8234 91.9454C96.6389 92.3317 96.4363 92.7069 96.1137 92.9974C96.0054 93.0956 95.8693 93.1283 95.7198 93.0961C95.599 93.0695 95.4612 92.8847 95.4933 92.7786C95.523 92.6787 95.5489 92.5723 95.6008 92.4837C95.7051 92.2984 95.8336 92.1267 95.9379 91.9413C96.4191 91.0747 96.5849 90.1409 96.4982 89.1637C96.4521 88.6273 96.2803 88.1221 95.9818 87.6665C95.8643 87.4889 95.7298 87.3188 95.6398 87.1281C95.5837 87.0073 95.5849 86.8562 95.5813 86.7174C95.5804 86.6511 95.6231 86.5828 95.6491 86.5178C96.2307 85.122 95.9558 83.8064 95.267 82.5326C95.1493 82.3157 94.9763 82.1292 94.8374 81.9237C94.7545 81.7995 94.7512 81.6565 94.785 81.5153C94.8028 81.4479 94.8288 81.3809 94.8528 81.3137C95.6282 79.1739 95.4116 77.1325 94.2384 75.187C94.202 75.1272 94.1827 75.0559 94.1421 74.9566C94.244 74.945 94.3562 74.8946 94.4269 74.9292C94.7885 75.1104 95.0256 75.4243 95.2392 75.7536C95.6509 76.3886 95.9022 77.0882 96.0146 77.8348C96.0899 78.325 96.134 78.8199 96.1928 79.3092C96.2601 79.3291 96.3383 79.3805 96.3848 79.36C96.6786 79.2357 96.9686 79.103 97.2529 78.9596C101.845 76.6322 106.436 74.3005 111.028 71.9752C111.342 71.8167 111.638 71.6055 112.035 71.5442C112.225 71.9986 112.192 72.5125 112.36 72.972C112.528 73.4356 112.727 73.8905 112.91 74.3383C112.743 74.5703 112.498 74.6349 112.268 74.725C110.223 75.5377 108.177 76.3525 106.13 77.1589C102.959 78.407 99.7854 79.6468 96.6139 80.8928C96.3839 80.983 96.1518 81.0731 95.9272 81.1801C95.7048 81.2851 95.5616 81.7149 95.6796 81.9256C95.8186 82.1726 95.9618 82.4177 96.1264 82.6472C96.1768 82.718 96.3143 82.7827 96.3938 82.7659C96.6698 82.707 96.9412 82.6168 97.2105 82.5285C101.734 81.061 106.258 79.5893 110.781 78.1218C111.624 77.8484 112.471 77.5856 113.318 77.3208C113.472 77.2724 113.613 77.387 113.595 77.5352C113.588 77.6052 113.57 77.6747 113.558 77.7445C113.403 78.6685 113.633 79.5037 114.144 80.274C114.202 80.3617 114.266 80.4476 114.321 80.5373C114.339 80.5651 114.339 80.6065 114.349 80.6484C114.125 80.832 113.84 80.8532 113.571 80.9063C111.444 81.3133 109.318 81.7142 107.191 82.1172C103.914 82.737 100.636 83.3548 97.3588 83.9766C97.152 84.0162 96.95 84.085 96.7538 84.1602C96.699 84.1803 96.6285 84.2679 96.6322 84.3199C96.6518 84.6376 96.6776 84.9556 96.7264 85.2685C96.7423 85.3666 96.8507 85.434 96.9665 85.4376C97.1091 85.4404 97.2514 85.4515 97.3907 85.4377C98.7703 85.3273 100.15 85.2044 101.53 85.1002C102.946 84.9937 104.362 84.9058 105.778 84.8034C107.23 84.7006 108.682 84.5917 110.134 84.4848C111.48 84.3852 112.824 84.2833 114.169 84.1878C114.377 84.1732 114.598 84.1385 114.771 84.3229C114.76 84.4259 114.757 84.5334 114.735 84.6358C114.598 85.2812 114.677 85.9061 114.885 86.5228C114.941 86.6912 114.994 86.8615 115.025 87.0328C115.034 87.0767 114.965 87.1623 114.913 87.1825C114.817 87.2234 114.709 87.245 114.605 87.2482C114.143 87.2628 113.683 87.2754 113.221 87.2756C111.872 87.2778 110.523 87.2779 109.174 87.2718C106.937 87.2615 104.699 87.245 102.462 87.2327C100.687 87.2222 98.9118 87.2118 97.1344 87.2055C96.7723 87.2043 96.6555 87.3497 96.8106 87.6471C97.23 88.4626 97.3636 89.3262 97.2796 90.322L97.2836 90.3242Z" fill="#FBFBF8"/>
<path d="M210.103 33.3619C209.439 34.025 208.731 34.4871 207.961 34.8676C204.331 36.6521 200.669 38.3668 196.889 39.8191C192.546 41.4901 188.115 42.8773 183.569 43.8821C181.837 44.265 180.085 44.5414 178.324 44.7511C178.147 44.7715 177.971 44.7794 177.792 44.7872C177.241 44.8119 176.988 44.6111 176.843 44.0202C176.829 43.9657 176.875 43.8748 176.92 43.8315C176.996 43.7607 177.09 43.7032 177.183 43.6622C185.335 39.9856 193.382 36.0906 201.466 32.27C202.333 31.8611 203.192 31.4395 204.06 31.0329C204.93 30.6263 205.836 30.3105 206.773 30.1038C207.221 30.0036 207.681 29.9413 208.139 29.8975C208.713 29.8428 209.273 29.9448 209.814 30.1349C210.011 30.2046 210.205 30.3072 210.377 30.4275C210.903 30.7969 211.1 31.4193 210.901 32.0265C210.745 32.5074 210.478 32.9228 210.102 33.364L210.103 33.3619Z" fill="#FBFBF8"/>
<path d="M204.976 63.6351C203.543 63.7905 202.204 63.9485 200.861 64.0834C199.59 64.2116 198.316 64.323 197.043 64.4242C196.263 64.4874 195.483 64.532 194.704 64.56C193.497 64.6064 192.29 64.6197 191.083 64.6703C189.057 64.7573 187.035 64.6748 185.011 64.6252C184.302 64.6071 183.591 64.6364 182.881 64.6368C182.705 64.6364 182.528 64.6236 182.351 64.6046C182.176 64.5856 182.026 64.2533 182.113 64.0899C182.129 64.0596 182.142 64.0105 182.167 63.9994C182.298 63.9458 182.428 63.8776 182.565 63.8553C184.392 63.5764 186.187 63.1365 187.986 62.734C194.151 61.3552 200.316 59.966 206.478 58.5768C208.14 58.2028 209.796 57.8058 211.462 57.4402C212.19 57.2813 212.924 57.1538 213.662 57.0471C214.923 56.8667 216.138 57.0774 217.308 57.5674C217.673 57.7198 218.007 57.9163 218.285 58.199C218.738 58.6601 218.799 59.3111 218.444 59.8547C218.227 60.1877 217.945 60.4554 217.627 60.6841C216.93 61.1882 216.167 61.5565 215.332 61.7785C213.478 62.2715 211.603 62.664 209.707 62.9623C208.164 63.2055 206.614 63.4049 204.977 63.631L204.976 63.6351Z" fill="#FBFBF8"/>
<path d="M189.737 83.5216C188.35 83.2673 187.058 83.03 185.764 82.7948C185.659 82.7752 185.554 82.7555 185.45 82.7318C185.286 82.6948 185.202 82.5168 185.237 82.3073C185.258 82.18 185.356 82.1227 185.453 82.113C185.878 82.0696 186.302 82.0345 186.727 82.0119C188.358 81.9179 189.991 81.8406 191.62 81.7362C193.109 81.6415 194.597 81.5198 196.084 81.4126C197.5 81.3102 198.918 81.2141 200.335 81.1097C201.751 81.0031 203.168 80.8883 204.583 80.7796C205.929 80.6759 207.275 80.5741 208.619 80.4703C210.107 80.3548 211.594 80.2372 213.08 80.1196C214.177 80.0326 215.276 79.9436 216.373 79.8608C216.514 79.849 216.659 79.8396 216.797 79.865C217.844 80.0654 218.885 80.2903 219.86 80.7479C220.248 80.9285 220.623 81.129 220.953 81.4019C221.876 82.1634 221.87 83.0844 220.915 83.7952C220.605 84.0264 220.253 84.214 219.895 84.3663C219.173 84.6704 218.416 84.8713 217.636 84.9552C216.4 85.0872 215.16 85.1796 213.917 85.2388C209.972 85.4284 206.032 85.3015 202.094 85.034C200.002 84.8921 197.917 84.6636 195.838 84.394C194.923 84.2747 194.006 84.1552 193.091 84.0255C192.002 83.8707 190.913 83.7034 189.728 83.5232L189.737 83.5216Z" fill="#FBFBF8"/>
<path d="M127.229 80.725C130.462 80.0574 133.697 79.4107 136.924 78.7201C144.142 77.1734 151.354 75.6058 158.568 74.0487C158.811 73.9964 159.057 73.9567 159.301 73.9148C159.433 73.8944 159.575 74.0194 159.587 74.1628C159.615 74.4809 159.651 74.7994 159.662 75.1187C159.708 76.5018 159.746 77.8865 159.782 79.2711C159.785 79.4473 159.776 79.629 159.735 79.7988C159.714 79.8847 159.62 79.994 159.538 80.0148C159.335 80.069 159.12 80.0978 158.911 80.1021C157.632 80.1367 156.354 80.1589 155.078 80.1957C153.694 80.2335 152.311 80.2816 150.926 80.3255C149.898 80.358 148.868 80.3923 147.838 80.4205C146.524 80.4555 145.211 80.4781 143.899 80.5152C142.585 80.5543 141.275 80.606 139.961 80.6513C139.003 80.6831 138.045 80.7168 137.086 80.7443C135.844 80.7808 134.601 80.8068 133.359 80.8495C132.118 80.8921 130.877 80.9514 129.635 81.0023C128.891 81.0341 128.146 81.0639 127.294 81.0076C127.202 80.8561 127.218 80.7907 127.232 80.7251L127.229 80.725Z" fill="#FBFBF8"/>
<path d="M141.973 66.205C141.596 64.8099 141.469 65.0397 142.677 64.4985C147.148 62.4923 151.623 60.4924 156.096 58.4903C157.051 58.063 157.035 58.0519 157.275 59.0491C157.748 61.0182 158.145 63.0023 158.505 64.9949C158.543 65.2037 158.557 65.4176 158.575 65.6297C158.591 65.8085 158.464 65.9637 158.27 66.0018C157.12 66.227 155.971 66.4522 154.82 66.6732C151.089 67.3888 147.358 68.1002 143.627 68.8137C143.487 68.84 143.35 68.8789 143.21 68.901C142.816 68.9604 142.64 68.9207 142.537 68.454C142.376 67.7257 142.182 67.0061 141.973 66.2029L141.973 66.205Z" fill="#FBFBF8"/>
<path d="M169.059 46.2656C170.94 45.5008 172.748 44.7613 174.554 44.0238C174.75 43.9444 174.95 43.8693 175.15 43.8005C175.298 43.7497 175.445 43.7901 175.548 43.8883C175.698 44.0364 175.838 44.2027 175.952 44.3801C176.259 44.8609 176.484 45.3812 176.648 45.9296C176.783 46.3813 176.762 46.461 176.331 46.6862C174.819 47.4733 173.307 48.2562 171.792 49.0328C168.444 50.7484 165.094 52.4619 161.743 54.169C161.465 54.3107 161.206 54.5236 160.823 54.4965C160.738 53.7679 160.715 53.0256 160.457 52.3215C160.198 51.6112 159.785 50.9968 159.297 50.4139C159.392 50.3213 159.451 50.2248 159.536 50.1834C159.792 50.0614 160.058 49.9606 160.32 49.8513C163.207 48.6638 166.096 47.4784 169.059 46.2635L169.059 46.2656Z" fill="#FBFBF8"/>
<path d="M180.496 84.6649C179.134 84.8051 177.867 84.9438 176.596 85.0699C174.799 85.251 173 85.4257 171.202 85.5964C169.651 85.7439 168.098 85.8852 166.545 86.0264C166.404 86.0381 166.263 86.0333 166.152 85.8622C166.207 85.6579 166.265 85.4165 166.336 85.1819C166.639 84.2051 166.639 83.2156 166.375 82.2421C166.157 81.4427 166.366 81.4385 166.973 81.4351C168.567 81.4201 170.163 81.4113 171.758 81.3942C173.46 81.3742 175.16 81.3395 176.862 81.3256C178.918 81.3105 180.975 81.3099 183.03 81.3071C183.206 81.3074 183.386 81.3162 183.558 81.3474C183.657 81.3647 183.762 81.4113 183.802 81.5291C183.812 81.5628 183.84 81.5911 183.849 81.6246C184.029 82.387 184.134 83.156 184.073 83.9417C184.055 84.1686 183.907 84.3187 183.658 84.3437C182.636 84.451 181.613 84.554 180.498 84.665L180.496 84.6649Z" fill="#FBFBF8"/>
<path d="M172.98 68.7452C170.562 69.3616 168.223 69.9571 165.887 70.5485C165.681 70.6005 165.472 70.6461 165.263 70.6856C165.044 70.7287 164.927 70.6236 164.944 70.4029C164.962 70.1554 164.989 69.9082 165.003 69.6605C165.051 68.7582 164.895 67.8935 164.507 67.0754C164.432 66.9165 164.363 66.7537 164.313 66.5857C164.299 66.5415 164.354 66.4324 164.396 66.42C164.667 66.338 164.94 66.2603 165.218 66.2097C169.022 65.5226 172.826 64.8416 176.632 64.1608C177.749 63.9609 178.866 63.7631 179.985 63.5654C180.089 63.5477 180.194 63.5239 180.3 63.5146C180.489 63.4949 180.658 63.5487 180.76 63.7151C181.254 64.5281 181.465 65.4121 181.369 66.3617C181.354 66.5038 181.257 66.6212 181.106 66.6655C180.902 66.7259 180.698 66.7884 180.493 66.8404C178.018 67.4685 175.543 68.0966 172.986 68.7476L172.98 68.7452Z" fill="#FBFBF8"/>
<path d="M113.91 74.11C113.407 73.3091 113.121 72.5167 113.104 71.6443C113.096 71.292 113.124 70.9373 113.166 70.5874C113.256 69.8528 113.622 69.2538 114.154 68.7561C114.594 68.343 115.083 67.9902 115.647 67.757C115.975 67.6219 116.308 67.4975 116.623 67.3432C117.073 67.123 117.247 67.2557 117.495 67.6323C117.632 67.8377 117.758 68.053 117.865 68.2756C118.622 69.8487 119.084 71.5172 119.475 73.2111C119.506 73.343 119.41 73.4957 119.275 73.5408C119.073 73.6054 118.871 73.668 118.666 73.7262C117.643 74.0198 116.632 74.3387 115.693 74.8495C115.601 74.8989 115.495 74.9206 115.377 74.9603C114.83 74.8466 114.273 74.7323 113.912 74.1101L113.91 74.11Z" fill="#FBFBF8"/>
<path d="M120.171 76.5677C120.373 77.9915 120.56 79.3256 120.747 80.6618C120.76 80.7659 120.757 80.8734 120.76 80.9791C120.763 81.0517 120.642 81.2031 120.575 81.2143C120.539 81.2209 120.506 81.2317 120.47 81.2341C119.727 81.2784 118.984 81.3372 118.239 81.3628C116.937 81.4108 115.903 80.8591 115.092 79.8691C114.915 79.6534 114.776 79.3961 114.667 79.1361C114.411 78.5295 114.352 77.9097 114.57 77.2662C114.817 76.5351 115.252 75.9457 115.842 75.4654C115.978 75.3561 116.141 75.273 116.304 75.2065C117.356 74.7777 118.441 74.4625 119.51 74.2312C119.731 74.3559 119.787 74.5243 119.822 74.6999C119.938 75.2914 120.05 75.8848 120.176 76.5659L120.171 76.5677Z" fill="#FBFBF8"/>
<path d="M126.623 71.7418C126.849 71.639 127.075 71.5404 127.3 71.4313C131.433 69.4498 135.636 67.623 139.823 65.7622C140.018 65.6765 140.216 65.5992 140.414 65.522C140.552 65.4687 140.732 65.5417 140.761 65.6674C141.002 66.706 141.245 67.7426 141.476 68.7828C141.545 69.0967 141.446 69.2264 141.107 69.2988C140.412 69.447 139.716 69.5867 139.019 69.7223C135.011 70.5071 131.003 71.2878 126.854 72.0512C126.681 71.9351 126.651 71.8384 126.623 71.7438L126.623 71.7418Z" fill="#FBFBF8"/>
<path d="M118.977 82.1215C119.409 82.0454 119.759 81.9839 120.111 81.9473C120.284 81.9289 120.468 81.9317 120.638 81.9669C120.724 81.9836 120.802 82.0847 120.862 82.1642C120.901 82.2158 120.913 82.2972 120.918 82.3657C121.076 84.4167 121.158 86.4681 121.177 88.5247C121.175 88.5599 121.163 88.5944 121.16 88.6295C121.149 88.7594 120.991 88.8965 120.866 88.8759C119.887 88.7203 118.91 88.5544 117.967 88.2308C117.461 88.0569 116.981 87.8326 116.561 87.4994C115.786 86.8838 115.403 86.0908 115.491 85.087C115.543 84.4933 115.815 84.0077 116.211 83.582C116.602 83.1603 117.074 82.8439 117.601 82.6213C118.023 82.4433 118.463 82.3033 118.979 82.1216L118.977 82.1215Z" fill="#FBFBF8"/>
<path d="M182.06 62.9032C182.056 62.8923 182.1 62.9566 182.1 62.9566C182.1 62.9566 182.086 62.8853 182.066 62.91C182.045 62.9325 182.063 62.9163 182.06 62.9032Z" fill="#FBFBF8"/>
</g>
<defs>
<clipPath id="clip0_2_722">
<rect width="217.037" height="161.697" fill="white" transform="translate(8.35059 0.943604) rotate(2.80604)"/>
</clipPath>
</defs>
</svg>
