<?xml version="1.0" encoding="UTF-8" standalone="no"?>
<!-- Created with Inkscape (http://www.inkscape.org/) -->

<svg
   version="1.1"
   id="svg1"
   width="799.30981"
   height="1348.7588"
   viewBox="0 0 799.30981 1348.7588"
   xmlns="http://www.w3.org/2000/svg"
   xmlns:svg="http://www.w3.org/2000/svg">
  <defs
     id="defs1">
    <clipPath
       clipPathUnits="userSpaceOnUse"
       id="clipPath105">
      <path
         d="M 0,1080 H 1080 V 0 H 0 Z"
         transform="translate(-686.58639,-594.49492)"
         id="path105" />
    </clipPath>
    <clipPath
       clipPathUnits="userSpaceOnUse"
       id="clipPath107">
      <path
         d="M 0,1080 H 1080 V 0 H 0 Z"
         transform="translate(-603.92942,-198.9969)"
         id="path107" />
    </clipPath>
    <clipPath
       clipPathUnits="userSpaceOnUse"
       id="clipPath109">
      <path
         d="M 0,1080 H 1080 V 0 H 0 Z"
         transform="translate(-641.45642,-43.111201)"
         id="path109" />
    </clipPath>
    <clipPath
       clipPathUnits="userSpaceOnUse"
       id="clipPath111">
      <path
         d="M 0,1080 H 1080 V 0 H 0 Z"
         transform="translate(-511.78674,-432.35581)"
         id="path111" />
    </clipPath>
    <clipPath
       clipPathUnits="userSpaceOnUse"
       id="clipPath113">
      <path
         d="M 0,1080 H 1080 V 0 H 0 Z"
         transform="translate(-480.47649,-86.520602)"
         id="path113" />
    </clipPath>
    <clipPath
       clipPathUnits="userSpaceOnUse"
       id="clipPath115">
      <path
         d="M 0,1080 H 1080 V 0 H 0 Z"
         transform="translate(-772.76214,-783.95792)"
         id="path115" />
    </clipPath>
    <clipPath
       clipPathUnits="userSpaceOnUse"
       id="clipPath117">
      <path
         d="M 0,1080 H 1080 V 0 H 0 Z"
         transform="translate(-791.30289,-806.19642)"
         id="path117" />
    </clipPath>
    <clipPath
       clipPathUnits="userSpaceOnUse"
       id="clipPath119">
      <path
         d="M 0,1080 H 1080 V 0 H 0 Z"
         transform="translate(-418.95271,-326.72491)"
         id="path119" />
    </clipPath>
    <clipPath
       clipPathUnits="userSpaceOnUse"
       id="clipPath121">
      <path
         d="M 0,1080 H 1080 V 0 H 0 Z"
         transform="translate(-506.47509,-528.00421)"
         id="path121" />
    </clipPath>
    <clipPath
       clipPathUnits="userSpaceOnUse"
       id="clipPath123">
      <path
         d="M 0,1080 H 1080 V 0 H 0 Z"
         transform="translate(-640.94222,-241.09493)"
         id="path123" />
    </clipPath>
    <clipPath
       clipPathUnits="userSpaceOnUse"
       id="clipPath125">
      <path
         d="M 0,1080 H 1080 V 0 H 0 Z"
         transform="translate(-782.20112,-882.24592)"
         id="path125" />
    </clipPath>
    <clipPath
       clipPathUnits="userSpaceOnUse"
       id="clipPath127">
      <path
         d="M 0,1080 H 1080 V 0 H 0 Z"
         transform="translate(-426.71484,-974.42792)"
         id="path127" />
    </clipPath>
    <clipPath
       clipPathUnits="userSpaceOnUse"
       id="clipPath129">
      <path
         d="M 0,1080 H 1080 V 0 H 0 Z"
         transform="translate(-353.32508,-784.76432)"
         id="path129" />
    </clipPath>
    <clipPath
       clipPathUnits="userSpaceOnUse"
       id="clipPath131">
      <path
         d="M 0,1080 H 1080 V 0 H 0 Z"
         transform="translate(-837.3517,-691.79471)"
         id="path131" />
    </clipPath>
    <clipPath
       clipPathUnits="userSpaceOnUse"
       id="clipPath133">
      <path
         d="M 0,1080 H 1080 V 0 H 0 Z"
         transform="translate(-753.43149,-1008.5068)"
         id="path133" />
    </clipPath>
    <clipPath
       clipPathUnits="userSpaceOnUse"
       id="clipPath135">
      <path
         d="M 0,1080 H 1080 V 0 H 0 Z"
         transform="translate(-678.40922,-872.72492)"
         id="path135" />
    </clipPath>
    <clipPath
       clipPathUnits="userSpaceOnUse"
       id="clipPath137">
      <path
         d="M 0,1080 H 1080 V 0 H 0 Z"
         transform="translate(-454.97881,-358.08761)"
         id="path137" />
    </clipPath>
    <clipPath
       clipPathUnits="userSpaceOnUse"
       id="clipPath139">
      <path
         d="M 0,1080 H 1080 V 0 H 0 Z"
         transform="translate(-831.5836,-866.79802)"
         id="path139" />
    </clipPath>
    <clipPath
       clipPathUnits="userSpaceOnUse"
       id="clipPath141">
      <path
         d="M 0,1080 H 1080 V 0 H 0 Z"
         transform="translate(-681.47672,-794.17372)"
         id="path141" />
    </clipPath>
    <clipPath
       clipPathUnits="userSpaceOnUse"
       id="clipPath143">
      <path
         d="M 0,1080 H 1080 V 0 H 0 Z"
         transform="translate(-523.43169,-521.88652)"
         id="path143" />
    </clipPath>
    <clipPath
       clipPathUnits="userSpaceOnUse"
       id="clipPath145">
      <path
         d="M 0,1080 H 1080 V 0 H 0 Z"
         transform="translate(-628.62609,-498.00601)"
         id="path145" />
    </clipPath>
    <clipPath
       clipPathUnits="userSpaceOnUse"
       id="clipPath147">
      <path
         d="M 0,1080 H 1080 V 0 H 0 Z"
         transform="translate(-563.93544,-450.04721)"
         id="path147" />
    </clipPath>
    <clipPath
       clipPathUnits="userSpaceOnUse"
       id="clipPath149">
      <path
         d="M 0,1080 H 1080 V 0 H 0 Z"
         transform="translate(-416.60521,-291.20131)"
         id="path149" />
    </clipPath>
    <clipPath
       clipPathUnits="userSpaceOnUse"
       id="clipPath151">
      <path
         d="M 0,1080 H 1080 V 0 H 0 Z"
         transform="translate(-537.57144,-322.27163)"
         id="path151" />
    </clipPath>
    <clipPath
       clipPathUnits="userSpaceOnUse"
       id="clipPath153">
      <path
         d="M 0,1080 H 1080 V 0 H 0 Z"
         transform="translate(-594.31231,-255.47918)"
         id="path153" />
    </clipPath>
    <clipPath
       clipPathUnits="userSpaceOnUse"
       id="clipPath155">
      <path
         d="M 0,1080 H 1080 V 0 H 0 Z"
         transform="translate(-472.33974,-332.25981)"
         id="path155" />
    </clipPath>
    <clipPath
       clipPathUnits="userSpaceOnUse"
       id="clipPath157">
      <path
         d="M 0,1080 H 1080 V 0 H 0 Z"
         transform="translate(-479.59261,-293.48438)"
         id="path157" />
    </clipPath>
    <clipPath
       clipPathUnits="userSpaceOnUse"
       id="clipPath159">
      <path
         d="M 0,1080 H 1080 V 0 H 0 Z"
         transform="translate(-523.91679,-317.99993)"
         id="path159" />
    </clipPath>
    <clipPath
       clipPathUnits="userSpaceOnUse"
       id="clipPath161">
      <path
         d="M 0,1080 H 1080 V 0 H 0 Z"
         transform="translate(-490.93644,-298.16131)"
         id="path161" />
    </clipPath>
    <clipPath
       clipPathUnits="userSpaceOnUse"
       id="clipPath163">
      <path
         d="M 0,1080 H 1080 V 0 H 0 Z"
         transform="translate(-551.27484,-280.56271)"
         id="path163" />
    </clipPath>
    <clipPath
       clipPathUnits="userSpaceOnUse"
       id="clipPath165">
      <path
         d="M 0,1080 H 1080 V 0 H 0 Z"
         transform="translate(-351.36623,-284.90183)"
         id="path165" />
    </clipPath>
    <clipPath
       clipPathUnits="userSpaceOnUse"
       id="clipPath167">
      <path
         d="M 0,1080 H 1080 V 0 H 0 Z"
         transform="translate(-648.05544,-263.87521)"
         id="path167" />
    </clipPath>
    <clipPath
       clipPathUnits="userSpaceOnUse"
       id="clipPath169">
      <path
         d="M 0,1080 H 1080 V 0 H 0 Z"
         transform="translate(-744.29432,-789.06172)"
         id="path169" />
    </clipPath>
    <clipPath
       clipPathUnits="userSpaceOnUse"
       id="clipPath171">
      <path
         d="M 0,1080 H 1080 V 0 H 0 Z"
         transform="translate(-561.83229,-279.00451)"
         id="path171" />
    </clipPath>
    <clipPath
       clipPathUnits="userSpaceOnUse"
       id="clipPath173">
      <path
         d="M 0,1080 H 1080 V 0 H 0 Z"
         transform="translate(-461.96071,-336.34631)"
         id="path173" />
    </clipPath>
    <clipPath
       clipPathUnits="userSpaceOnUse"
       id="clipPath175">
      <path
         d="M 0,1080 H 1080 V 0 H 0 Z"
         transform="translate(-578.87821,-282.16351)"
         id="path175" />
    </clipPath>
    <clipPath
       clipPathUnits="userSpaceOnUse"
       id="clipPath177">
      <path
         d="M 0,1080 H 1080 V 0 H 0 Z"
         transform="translate(-581.74539,-323.45281)"
         id="path177" />
    </clipPath>
    <clipPath
       clipPathUnits="userSpaceOnUse"
       id="clipPath179">
      <path
         d="M 0,1080 H 1080 V 0 H 0 Z"
         transform="translate(-581.82181,-323.38201)"
         id="path179" />
    </clipPath>
    <clipPath
       clipPathUnits="userSpaceOnUse"
       id="clipPath181">
      <path
         d="M 0,1080 H 1080 V 0 H 0 Z"
         transform="translate(-597.49111,-313.54658)"
         id="path181" />
    </clipPath>
    <clipPath
       clipPathUnits="userSpaceOnUse"
       id="clipPath183">
      <path
         d="M 0,1080 H 1080 V 0 H 0 Z"
         transform="translate(-434.75694,-321.66203)"
         id="path183" />
    </clipPath>
    <clipPath
       clipPathUnits="userSpaceOnUse"
       id="clipPath185">
      <path
         d="M 0,1080 H 1080 V 0 H 0 Z"
         transform="translate(-424.38684,-323.29193)"
         id="path185" />
    </clipPath>
    <clipPath
       clipPathUnits="userSpaceOnUse"
       id="clipPath187">
      <path
         d="M 0,1080 H 1080 V 0 H 0 Z"
         transform="translate(-612.13719,-312.80678)"
         id="path187" />
    </clipPath>
    <clipPath
       clipPathUnits="userSpaceOnUse"
       id="clipPath189">
      <path
         d="M 0,1080 H 1080 V 0 H 0 Z"
         transform="translate(-816.35492,-910.07933)"
         id="path189" />
    </clipPath>
    <clipPath
       clipPathUnits="userSpaceOnUse"
       id="clipPath191">
      <path
         d="M 0,1080 H 1080 V 0 H 0 Z"
         transform="translate(-761.81724,-741.10652)"
         id="path191" />
    </clipPath>
    <clipPath
       clipPathUnits="userSpaceOnUse"
       id="clipPath193">
      <path
         d="M 0,1080 H 1080 V 0 H 0 Z"
         transform="translate(-424.31499,-323.24131)"
         id="path193" />
    </clipPath>
    <clipPath
       clipPathUnits="userSpaceOnUse"
       id="clipPath195">
      <path
         d="M 0,1080 H 1080 V 0 H 0 Z"
         transform="translate(-333.44633,-871.92362)"
         id="path195" />
    </clipPath>
    <clipPath
       clipPathUnits="userSpaceOnUse"
       id="clipPath197">
      <path
         d="M 0,1080 H 1080 V 0 H 0 Z"
         transform="translate(-445.37821,-948.62993)"
         id="path197" />
    </clipPath>
    <clipPath
       clipPathUnits="userSpaceOnUse"
       id="clipPath199">
      <path
         d="M 0,1080 H 1080 V 0 H 0 Z"
         transform="translate(-742.67319,-1026.1781)"
         id="path199" />
    </clipPath>
    <clipPath
       clipPathUnits="userSpaceOnUse"
       id="clipPath203">
      <path
         d="M 0,1080 H 1080 V 0 H 0 Z"
         transform="translate(-426.71844,-974.35493)"
         id="path203" />
    </clipPath>
    <clipPath
       clipPathUnits="userSpaceOnUse"
       id="clipPath205">
      <path
         d="M 0,1080 H 1080 V 0 H 0 Z"
         transform="translate(-442.52731,-974.10222)"
         id="path205" />
    </clipPath>
    <clipPath
       clipPathUnits="userSpaceOnUse"
       id="clipPath207">
      <path
         d="M 0,1080 H 1080 V 0 H 0 Z"
         transform="translate(-443.31744,-962.15402)"
         id="path207" />
    </clipPath>
    <clipPath
       clipPathUnits="userSpaceOnUse"
       id="clipPath209">
      <path
         d="M 0,1080 H 1080 V 0 H 0 Z"
         transform="translate(-455.03041,-965.12153)"
         id="path209" />
    </clipPath>
    <clipPath
       clipPathUnits="userSpaceOnUse"
       id="clipPath211">
      <path
         d="M 0,1080 H 1080 V 0 H 0 Z"
         transform="translate(-816.3901,-913.43282)"
         id="path211" />
    </clipPath>
    <clipPath
       clipPathUnits="userSpaceOnUse"
       id="clipPath213">
      <path
         d="M 0,1080 H 1080 V 0 H 0 Z"
         transform="translate(-455.06131,-965.16342)"
         id="path213" />
    </clipPath>
    <clipPath
       clipPathUnits="userSpaceOnUse"
       id="clipPath215">
      <path
         d="M 0,1080 H 1080 V 0 H 0 Z"
         transform="translate(-443.89284,-961.65672)"
         id="path215" />
    </clipPath>
    <clipPath
       clipPathUnits="userSpaceOnUse"
       id="clipPath217">
      <path
         d="M 0,1080 H 1080 V 0 H 0 Z"
         transform="translate(-506.53914,-528.10811)"
         id="path217" />
    </clipPath>
    <clipPath
       clipPathUnits="userSpaceOnUse"
       id="clipPath219">
      <path
         d="M 0,1080 H 1080 V 0 H 0 Z"
         transform="translate(-352.86623,-785.21912)"
         id="path219" />
    </clipPath>
    <clipPath
       clipPathUnits="userSpaceOnUse"
       id="clipPath221">
      <path
         d="M 0,1080 H 1080 V 0 H 0 Z"
         transform="translate(-449.75574,-722.96102)"
         id="path221" />
    </clipPath>
    <clipPath
       clipPathUnits="userSpaceOnUse"
       id="clipPath223">
      <path
         d="M 0,1080 H 1080 V 0 H 0 Z"
         transform="translate(-472.18501,-122.86283)"
         id="path223" />
    </clipPath>
    <clipPath
       clipPathUnits="userSpaceOnUse"
       id="clipPath225">
      <path
         d="M 0,1080 H 1080 V 0 H 0 Z"
         transform="translate(-462.13809,-183.94028)"
         id="path225" />
    </clipPath>
    <clipPath
       clipPathUnits="userSpaceOnUse"
       id="clipPath227">
      <path
         d="M 0,1080 H 1080 V 0 H 0 Z"
         transform="translate(-475.29249,-192.6501)"
         id="path227" />
    </clipPath>
    <clipPath
       clipPathUnits="userSpaceOnUse"
       id="clipPath229">
      <path
         d="M 0,1080 H 1080 V 0 H 0 Z"
         transform="translate(-502.23264,-153.7341)"
         id="path229" />
    </clipPath>
    <clipPath
       clipPathUnits="userSpaceOnUse"
       id="clipPath231">
      <path
         d="M 0,1080 H 1080 V 0 H 0 Z"
         transform="translate(-541.78914,-181.39133)"
         id="path231" />
    </clipPath>
  </defs>
  <g
     id="layer-MC0"
     style="display:none"
     transform="translate(-1844.3446,-71.093711)">
    <path
       id="path103"
       d="M 0,0 H 1080 V 1080 H 0 Z"
       style="fill:#d2451e;fill-opacity:1;fill-rule:nonzero;stroke:none"
       transform="matrix(1.3333333,0,0,-1.3333333,1460,1440)" />
  </g>
  <g
     id="layer-MC1"
     transform="translate(-1844.3446,-71.093711)">
    <path
       id="path104"
       d="m 0,0 -0.292,0.118 c 0,0 0.077,-0.289 0.292,-0.118 m -216.167,-6.425 -0.245,0.129 c 0,0 0.046,-0.29 0.245,-0.129 m 57.956,213.928 c 0.098,0.145 0.222,0.278 0.289,0.436 0.407,0.958 0.232,1.45 -0.543,1.492 -0.52,0.028 -1.044,-0.042 -1.564,-0.016 -0.332,0.017 -0.732,0.036 -0.967,0.223 -0.228,0.181 -0.315,0.571 -0.398,0.886 -0.03,0.112 0.106,0.372 0.21,0.4 1.669,0.447 3.341,0.884 5.02,1.291 7.296,1.767 13.601,5.348 19.055,10.455 2.059,1.928 3.762,4.141 4.72,6.83 0.226,0.632 0.24,1.362 0.223,2.044 -0.005,0.189 -0.492,0.543 -0.727,0.518 -1.204,-0.123 -2.106,-1.303 -3.421,-1.043 -0.273,0.054 -0.521,0.37 -0.719,0.614 -0.086,0.106 -0.05,0.346 -0.011,0.511 0.219,0.945 1.055,1.333 1.734,1.842 3.581,2.685 6.187,6.11 7.869,10.252 1.471,3.622 2.131,7.368 1.624,11.263 -0.054,0.415 -0.542,0.947 -0.951,1.104 -0.797,0.307 -1.675,0.489 -2.531,0.544 -4.05,0.256 -8.004,-0.444 -11.912,-1.392 -5.467,-1.325 -10.611,-3.423 -15.296,-6.594 -1.173,-0.793 -2.482,-0.076 -2.641,1.368 -0.056,0.517 -0.025,1.044 -0.038,1.566 -0.009,0.347 -0.016,0.694 -0.042,1.04 -0.035,0.477 -0.704,0.837 -1.151,0.623 -4.301,-2.057 -7.994,-4.967 -11.419,-8.232 -3.548,-3.382 -6.733,-7.081 -9.549,-11.099 -0.491,-0.7 -1.114,-1.323 -1.756,-1.891 -0.177,-0.156 -0.731,-0.103 -0.959,0.063 -0.403,0.295 -0.855,0.701 -0.991,1.149 -0.3,0.991 -0.389,2.044 -0.625,3.058 -0.063,0.272 -0.308,0.646 -0.534,0.7 -0.293,0.069 -0.765,-0.029 -0.963,-0.24 -4.609,-4.932 -7.955,-10.655 -9.654,-17.154 -1.544,-5.902 -2.641,-11.916 -5.315,-17.468 -0.066,-0.139 -0.051,-0.349 0,-0.503 0.052,-0.158 0.166,-0.335 0.304,-0.412 0.114,-0.064 0.353,-0.055 0.449,0.026 0.387,0.325 0.851,0.628 1.089,1.051 1.805,3.213 3.999,6.141 6.44,8.887 3.135,3.53 6.524,6.806 10.132,9.848 9.659,8.141 20.174,14.961 31.573,20.414 3.466,1.658 6.989,3.179 10.645,4.366 1.489,0.483 3.02,0.838 4.539,1.222 0.497,0.126 1.422,-0.502 1.647,-1.047 0.256,-0.623 -0.03,-1.518 -0.607,-1.81 -0.617,-0.313 -1.233,-0.641 -1.879,-0.882 -2.288,-0.853 -4.632,-1.57 -6.878,-2.521 -15.737,-6.662 -29.894,-15.813 -42.569,-27.258 -3.243,-2.928 -6.27,-6.077 -8.838,-9.632 -0.61,-0.844 -1.134,-1.751 -1.673,-2.645 -0.315,-0.525 0.208,-1.495 0.844,-1.63 0.339,-0.073 0.672,-0.199 1.014,-0.238 8.222,-0.933 16.402,-0.666 24.457,1.255 4.591,1.094 9.072,2.599 13.244,6.366 M -235.045,33.648 c 0.07,-0.003 0.14,-0.005 0.209,-0.008 -0.145,-0.089 -0.29,-0.178 0.118,0.54 0.008,0.686 0.139,1.399 -0.002,2.053 -0.256,1.191 -0.691,2.342 -1.019,3.519 -0.291,1.045 -0.305,2.055 0.471,2.948 1.09,1.253 1.459,2.748 1.422,4.376 -0.132,5.714 1.455,11.102 3.631,16.248 4.761,11.259 13.13,18.74 24.77,22.493 2.995,0.966 6.084,1.576 9.236,1.781 2.978,0.193 4.796,1.892 5.791,4.556 1.2,3.214 -0.552,6.536 -3.884,7.336 -0.999,0.24 -2.123,0.431 -3.098,0.219 -3.521,-0.767 -6.964,-0.259 -10.392,0.423 -8.398,1.67 -15.259,5.856 -20.345,12.791 -2.717,3.705 -4.513,7.849 -5.603,12.316 -1.083,4.438 -1.394,8.96 -1.634,13.496 -0.037,0.693 -0.056,1.393 -0.169,2.076 -0.256,1.54 -1.821,2.768 -3.386,2.713 -1.691,-0.06 -3.137,-1.167 -3.36,-2.754 -0.291,-2.073 -0.521,-4.16 -0.65,-6.248 -0.228,-3.707 -1.193,-7.225 -2.539,-10.655 -0.187,-0.476 -0.49,-0.944 -0.852,-1.301 -0.196,-0.194 -0.63,-0.178 -0.958,-0.186 -0.088,-0.002 -0.245,0.245 -0.264,0.392 -0.135,1.025 -0.368,2.057 -0.338,3.08 0.154,5.239 0.251,10.484 0.612,15.71 0.396,5.747 0.947,11.488 1.634,17.207 0.624,5.198 1.523,10.363 2.297,15.543 0.026,0.171 0.013,0.348 0.033,0.521 0.105,0.873 -0.396,1.403 -1.129,1.182 -0.669,-0.201 -1.352,-0.368 -1.999,-0.626 -3.604,-1.443 -7.408,-1.96 -11.214,-2.499 -1.425,-0.201 -2.792,-0.05 -4.131,0.387 -0.988,0.323 -1.94,0.753 -2.62,1.022 -3.743,-0.474 -7.188,-1.05 -10.657,-1.316 -5.651,-0.435 -11.155,0.262 -16.33,2.776 -1.411,0.686 -2.032,1.816 -2.077,3.347 -0.042,1.416 0.176,2.781 0.637,4.117 0.512,1.482 0.999,2.972 1.506,4.483 -0.343,1.178 -0.746,2.331 -1.003,3.517 -0.258,1.192 -0.367,2.417 -0.547,3.626 -0.18,1.21 -0.276,2.441 -0.575,3.621 -0.342,1.346 -0.752,2.698 -1.336,3.954 -1.284,2.758 -3.761,4.018 -6.85,3.741 -1.615,-0.144 -3.06,-0.754 -4.421,-1.532 -4.348,-2.485 -7.689,-6.002 -10.186,-10.318 -3.204,-5.536 -4.789,-11.583 -5.561,-17.882 -1.158,-9.459 -0.535,-18.854 1.314,-28.151 1.711,-8.604 4.414,-16.805 9.472,-24.205 3.96,-5.793 8.137,-11.325 13.016,-16.368 3.397,-3.511 6.536,-7.272 9.794,-10.917 0.719,-0.804 1.192,-1.679 1.179,-2.812 -0.024,-2.216 1.219,-3.622 3.19,-4.306 1.223,-0.425 2.147,-1.082 2.906,-2.093 3.984,-5.308 7.972,-10.594 10.952,-16.585 3.051,-6.134 5.044,-13.066 5.434,-20.011 0.067,-1.209 0.271,-2.429 0.575,-3.601 0.33,-1.268 1.278,-2.152 2.516,-2.442 1.345,-0.315 2.775,-0.563 4.138,-0.456 3.816,0.299 7.256,-0.87 10.593,-2.447 3.81,-1.8 7.28,-4.143 10.414,-6.972 0.527,-0.476 0.975,-0.991 1.269,-1.419 m 25.583,170.412 c -0.07,-0.15 -0.24,-0.363 -0.193,-0.439 0.272,-0.432 0.487,-0.374 0.57,0.132 0.027,0.163 0.045,0.327 -0.518,0.908 -5.701,5.496 -10.315,11.855 -14.565,18.487 -8.613,13.442 -15.552,27.714 -20.926,42.741 -2.591,7.247 -4.626,14.653 -5.952,22.245 -0.271,1.548 -0.596,3.086 -0.365,4.676 0.088,0.608 0.681,1.306 1.327,1.453 0.529,0.121 1.614,-0.349 1.775,-0.818 0.282,-0.821 0.638,-1.641 0.758,-2.49 1.506,-10.618 4.679,-20.77 8.593,-30.708 7.89,-20.033 19.534,-37.815 32.858,-54.579 0.304,-0.381 0.843,-0.575 1.317,-0.885 0.383,0.421 0.839,0.744 1.047,1.184 0.521,1.102 1.024,2.229 1.368,3.396 1.385,4.697 2.33,9.499 3.072,14.331 0.289,1.886 0.332,3.844 0.208,5.751 -0.217,3.322 -0.923,6.558 -2.498,9.542 -0.069,0.13 -0.268,0.292 -0.384,0.276 -0.308,-0.043 -0.773,-0.088 -0.875,-0.287 -0.472,-0.924 -0.816,-1.913 -1.264,-2.85 -0.139,-0.29 -0.448,-0.511 -0.712,-0.722 -0.11,-0.087 -0.344,-0.138 -0.456,-0.08 -0.282,0.146 -0.647,0.307 -0.766,0.562 -0.478,1.018 -0.157,2.053 0.106,3.06 0.8,3.06 1.266,6.196 1.191,9.328 -0.079,3.31 -0.757,6.57 -1.739,9.772 -1.38,4.492 -3.883,8.172 -7.468,11.147 -0.374,0.31 -0.927,0.405 -1.489,0.639 -0.164,-0.568 -0.32,-1.04 -0.434,-1.522 -0.119,-0.505 -0.129,-1.049 -0.322,-1.521 -0.11,-0.269 -0.464,-0.536 -0.755,-0.604 -0.272,-0.063 -0.754,0.041 -0.884,0.24 -0.468,0.72 -0.909,1.48 -1.212,2.28 -1.115,2.939 -2.079,5.937 -3.267,8.844 -2.001,4.891 -4.782,9.327 -8.38,13.206 -1.301,1.402 -2.784,2.643 -4.248,3.88 -0.342,0.289 -0.953,0.366 -1.429,0.34 -0.231,-0.012 -0.437,-0.488 -0.653,-0.754 -1.132,-1.386 -1.906,-1.486 -2.851,-0.155 -3.584,5.049 -8.769,7.861 -14.136,10.485 -0.537,-0.372 -1.134,-0.571 -1.338,-0.97 -0.553,-1.081 -1.017,-2.224 -1.378,-3.385 -1.611,-5.187 -2.791,-10.457 -3.098,-15.907 -0.148,-2.632 -0.733,-2.959 -3.28,-2.251 -0.481,0.134 -0.993,0.155 -1.482,0.227 -0.741,-1.577 -0.573,-3.177 -0.416,-4.702 0.793,-7.681 2.291,-15.191 5.795,-22.171 0.233,-0.464 0.397,-0.963 0.58,-1.451 0.186,-0.495 -0.466,-1.53 -1.041,-1.567 -0.692,-0.045 -1.391,0.013 -2.087,0.006 -0.793,-0.008 -1.24,-0.702 -0.926,-1.407 2.652,-5.953 6.19,-11.338 10.489,-16.222 2.081,-2.365 4.332,-4.555 6.961,-6.335 0.711,-0.482 1.341,-1.103 1.931,-1.733 0.191,-0.204 0.244,-0.67 0.162,-0.96 -0.078,-0.277 -0.38,-0.63 -0.643,-0.689 -0.845,-0.19 -1.726,-0.223 -2.571,-0.411 -0.144,-0.032 -0.344,-0.694 -0.243,-0.797 0.967,-0.995 1.911,-2.04 3.014,-2.868 9.571,-7.187 20.098,-12.616 31.263,-16.851 0.641,-0.243 1.358,-0.396 2.038,-0.391 0.465,0.004 0.928,0.356 0.821,0.344 m -42.207,19.912 c -0.112,0.331 -0.255,0.655 -0.331,0.994 -0.397,1.771 -0.249,1.975 1.695,2.38 0.336,0.07 0.772,-0.003 0.993,0.187 0.182,0.157 0.272,0.764 0.135,0.897 -1.12,1.085 -2.293,2.117 -3.469,3.145 -5.472,4.787 -9.724,10.494 -12.722,17.107 -0.786,1.735 -1.344,3.59 -1.837,5.436 -0.282,1.055 0.013,2.214 2.018,2.25 2.553,0.046 2.606,0.171 1.395,2.636 -1.238,2.52 -2.243,5.119 -2.873,7.854 -1.024,4.444 -1.618,8.947 -1.359,13.509 0.098,1.726 0.543,3.434 0.874,5.142 0.112,0.58 1.102,1.067 1.692,0.865 0.654,-0.224 1.281,-0.53 1.933,-0.762 0.575,-0.205 1.166,0.117 1.179,0.623 0.045,1.743 0.078,3.487 0.112,5.231 0.088,4.458 1.479,8.572 3.324,12.563 0.218,0.471 0.526,0.905 0.828,1.331 0.877,1.238 2.023,1.848 3.591,1.595 3.146,-0.508 6.066,-1.574 8.753,-3.31 0.995,-0.643 1.88,-1.582 3.303,-1.539 0,0.713 0.094,1.416 -0.014,2.085 -2.226,13.796 -3.805,27.68 -5.596,41.534 -0.023,0.171 0.024,0.349 0.014,0.522 -0.037,0.714 0.666,1.311 1.4,1.103 6.762,-1.913 13.125,-0.739 19.235,2.449 0.462,0.241 0.941,0.451 1.416,0.665 0.395,0.177 1.161,-0.207 1.23,-0.652 0.507,-3.273 1.112,-6.536 1.473,-9.825 1.027,-9.376 1.978,-18.759 2.913,-28.144 0.865,-8.69 1.665,-17.387 2.507,-26.08 0.303,-3.129 0.72,-6.249 0.935,-9.384 0.124,-1.806 0.853,-2.793 2.599,-3.418 1.265,-0.453 2.406,-1.404 3.447,-2.312 5.118,-4.463 7.693,-10.281 8.621,-16.878 0.387,-2.757 0.733,-5.544 0.308,-8.352 -0.102,-0.674 -0.015,-1.377 -0.015,-1.708 0.245,-0.515 0.279,-0.717 0.399,-0.82 2.753,-2.38 4.313,-5.432 5.111,-8.935 0.147,-0.644 0.369,-1.312 1.207,-1.672 1.41,1.253 2.357,2.923 3.522,4.651 -0.02,4.763 -0.241,9.645 -0.461,14.528 -0.087,1.919 -0.236,3.837 -0.291,5.758 -0.479,16.765 -0.952,33.53 -1.408,50.296 -0.566,20.783 -1.114,41.566 -1.671,62.349 -0.023,0.873 -0.062,1.746 -0.082,2.619 -0.489,21.309 -0.964,42.619 -1.472,63.927 -0.179,7.511 -0.455,15.018 -0.649,22.528 -0.04,1.553 -0.323,3.14 0.306,4.628 0.702,0.34 1.363,0.244 2.037,-0.02 4.333,-1.693 8.846,-1.961 13.412,-1.548 1.729,0.156 3.433,0.597 5.148,0.909 0.645,0.117 1.529,-0.446 1.576,-1.027 0.083,-1.043 0.183,-2.086 0.208,-3.131 0.418,-17.816 0.82,-35.632 1.236,-53.447 0.53,-22.706 1.069,-45.412 1.604,-68.118 0.058,-2.446 0.131,-4.891 0.17,-7.336 0.398,-24.981 0.789,-49.962 1.193,-74.942 0.017,-1.043 0.1,-2.09 0.254,-3.12 0.028,-0.187 0.655,-0.505 0.825,-0.416 0.919,0.482 1.803,1.041 2.659,1.632 3.031,2.09 6.193,3.931 9.668,5.188 0.826,0.299 1.695,0.501 2.536,0.097 0.258,-0.124 0.595,-0.521 0.56,-0.739 -0.135,-0.843 -0.48,-1.655 -0.596,-2.499 -0.062,-0.449 0.183,-0.94 0.305,-1.478 0.593,0.263 1.095,0.429 1.539,0.692 7.972,4.722 16.659,5.984 25.741,5.343 0.522,-0.037 1.045,-0.104 1.558,-0.206 1.103,-0.218 1.887,-0.832 2.27,-1.919 0.893,-2.535 1.002,-5.117 0.521,-7.749 -0.731,-4.002 -2.14,-7.733 -4.376,-11.139 -0.764,-1.163 -1.57,-2.299 -2.279,-3.335 -0.026,-0.503 -0.117,-0.861 -0.05,-1.186 0.809,-3.912 -0.552,-7.235 -2.839,-10.267 -2.339,-3.101 -5.21,-5.63 -8.536,-7.648 -3.301,-2.002 -6.815,-3.533 -10.449,-4.806 -0.983,-0.344 -1.972,-0.675 -2.842,-0.972 -0.286,-0.399 -0.597,-0.651 -0.663,-0.955 -0.676,-3.151 -2.745,-5.168 -5.37,-6.771 -2.405,-1.469 -5.033,-2.4 -7.683,-3.294 -0.66,-0.222 -1.21,-0.601 -1.217,-1.577 1.846,-0.338 3.719,-0.737 5.61,-1.018 9.325,-1.385 18.653,-2.751 27.983,-4.101 10.713,-1.55 21.434,-3.045 32.143,-4.622 10.536,-1.552 21.057,-3.2 31.591,-4.762 8.29,-1.23 16.599,-2.335 24.882,-3.602 6.903,-1.055 13.778,-2.283 20.671,-3.401 5.859,-0.949 11.722,-1.871 17.59,-2.767 6.04,-0.923 12.085,-1.82 18.133,-2.691 6.048,-0.871 12.103,-1.7 18.156,-2.538 7.955,-1.1 15.913,-2.18 23.864,-3.305 0.666,-0.094 1.384,-0.352 1.901,-0.757 0.303,-0.238 0.354,-0.925 0.327,-1.4 -0.013,-0.228 -0.449,-0.46 -0.728,-0.635 -0.13,-0.082 -0.348,-0.068 -0.515,-0.037 -2.947,0.541 -4.506,-1.176 -5.744,-3.476 -2.568,-4.77 -3.735,-9.747 -2.455,-15.149 0.534,-2.255 1.668,-4.203 3.349,-6.718 0.635,-0.689 0.749,-0.841 0.901,-0.912 2.252,-1.056 2.792,-2.84 2.377,-5.167 -0.276,-1.543 -0.252,-3.136 -0.466,-4.692 -1.31,-9.524 -3.102,-18.956 -5.534,-28.26 C 36.103,64.86 22.374,34.249 3.451,5.973 2.674,4.812 1.871,3.667 1.136,2.48 0.875,2.059 0.753,1.542 0.622,1.054 0.503,0.608 0.707,0.321 1.113,0.357 c 1.032,0.094 2.094,0.102 3.083,0.371 2.727,0.745 5.5,0.995 8.304,0.948 2.268,-0.039 4.534,-0.175 6.801,-0.279 1.219,-0.056 2.443,-0.252 3.653,-0.179 3.057,0.183 5.251,1.704 6.471,4.544 0.344,0.801 0.613,1.636 0.95,2.441 2.815,6.722 6.875,12.518 12.624,17.08 9.761,7.746 20.272,14.256 31.667,19.319 2.233,0.992 4.472,1.971 6.691,2.994 4.807,2.217 9.014,5.332 12.935,8.837 14.179,12.676 23.628,28.362 29.194,46.437 1.963,6.376 2.92,12.95 2.467,19.659 -0.374,5.547 -2.091,10.574 -5.724,14.896 -2.887,3.437 -5.207,3.678 -8.793,2.547 -1.749,-0.552 -3.111,-1.516 -3.976,-3.168 -1.375,-2.628 -2.815,-5.222 -4.172,-7.859 -2.601,-5.053 -6.567,-8.542 -11.904,-10.455 -4.424,-1.586 -8.933,-1.658 -13.394,-0.297 -6.307,1.923 -11.106,5.755 -14.05,11.745 -0.384,0.781 -0.7,1.6 -0.994,2.42 -0.324,0.906 -1,1.408 -1.85,1.701 -0.825,0.283 -1.685,0.462 -2.507,0.75 -3.29,1.153 -6.729,1.873 -9.893,3.392 -1.423,2.835 -2.434,5.76 -2.468,9 -0.033,3.214 0.574,6.251 1.991,9.123 1.716,3.475 2.088,3.894 6.07,2.946 1.693,-0.403 3.446,-0.562 5.179,-0.785 1.749,-0.224 2.426,0.168 3.338,1.846 0.249,0.46 0.422,0.961 0.672,1.421 5.461,10.05 14.117,15.69 25.094,18.037 9.781,2.092 19.159,0.521 28.042,-3.771 14.14,-6.831 23.512,-17.89 27.869,-32.975 1.315,-4.551 3.469,-8.335 7.034,-11.353 1.865,-1.58 3.845,-3.024 5.696,-4.619 1.582,-1.363 3.137,-2.778 4.554,-4.31 1.73,-1.87 2.423,-4.209 2.494,-6.735 0.082,-2.918 -1.593,-5.423 -4.317,-6.568 -2.183,-0.917 -4.415,-0.972 -6.679,-0.459 -3.505,0.795 -6.46,2.594 -9.013,5.08 -4.114,4.006 -6.718,8.884 -8.196,14.389 -0.316,1.178 -0.459,2.401 -0.728,3.593 -2.894,12.793 -9.897,22.582 -21.398,29 -5.124,2.86 -10.642,4.361 -16.566,4.147 -7.317,-0.264 -13.57,-2.905 -18.666,-8.226 -2.448,-2.555 -4.41,-5.365 -5.597,-8.748 -1.989,-5.667 0.869,-11.562 5.652,-13.678 4.005,-1.772 7.88,-1.372 11.358,1.301 3.483,2.678 5.005,6.3 4.064,10.636 -0.919,4.23 -3.438,7.209 -7.758,8.363 -1.499,0.4 -3.045,0.627 -4.698,0.959 0.296,0.609 0.402,1.199 0.754,1.496 5.088,4.28 11.062,5.859 17.569,5.329 6.048,-0.493 11.573,-2.645 16.45,-6.253 9.264,-6.854 14.98,-15.937 16.841,-27.367 0.597,-3.666 1.833,-7.116 3.802,-10.246 1.17,-1.859 1.578,-3.807 1.679,-5.939 0.259,-5.468 -0.382,-10.787 -2.069,-16.015 -1.781,-5.519 -4.193,-10.731 -7.164,-15.69 C 121.783,68.115 111.913,56.862 100.36,47.074 92.741,40.618 84.571,34.943 75.761,30.221 72.065,28.24 68.268,26.472 64.344,24.976 54.049,21.05 46.867,13.697 41.654,4.22 40.295,1.751 39.59,-0.958 39.041,-3.711 c -0.273,-1.367 -0.549,-2.749 -1.01,-4.058 -1.209,-3.426 -3.945,-5.285 -7.564,-5.405 -2.148,-0.07 -4.169,0.423 -6.129,1.187 -2.447,0.954 -4.935,1.727 -7.5,2.31 -8.284,1.881 -15.951,0.36 -23.083,-4.098 -3.749,-2.344 -6.844,-5.411 -9.388,-9.023 -5.526,-7.845 -8.055,-16.579 -7.68,-26.156 0.228,-5.84 1.493,-11.412 4.361,-16.565 0.514,-0.924 0.278,-1.819 -0.56,-2.237 -2.807,-1.4 -5.632,-2.764 -8.459,-4.123 -0.58,-0.279 -1.503,0.151 -1.724,0.772 -1.056,2.966 -1.853,5.993 -2.177,9.136 -0.107,1.036 -0.179,2.101 -0.487,3.084 -0.374,1.195 -1.174,2.122 -2.429,2.563 -2.37,0.832 -4.498,-1.422 -4.718,-2.992 -0.145,-1.035 -0.157,-2.088 -0.23,-3.133 -0.073,-1.041 -0.148,-2.082 -0.22,-3.097 -0.77,-0.209 -0.857,0.339 -0.975,0.746 -0.545,1.878 -0.491,3.802 -0.353,5.724 0.328,4.548 1.089,9.013 2.597,13.333 0.402,1.152 0.773,2.315 1.347,3.968 0.464,0.837 0.395,1.142 -0.035,1.17 -0.256,0.017 -0.53,-0.229 -0.796,-0.357 -1.013,-0.676 -2.06,-1.307 -3.035,-2.036 -9.168,-6.85 -19.264,-11.964 -29.897,-16.093 -6.077,-2.359 -12.437,-3.477 -18.854,-4.283 -7.465,-0.937 -14.97,-1.314 -22.494,-1.048 -17.939,0.632 -35.431,3.609 -52.156,10.315 -4.695,1.883 -9.245,4.133 -13.809,6.324 -1.401,0.672 -2.685,1.632 -3.925,2.586 -5.275,4.057 -10.166,8.539 -14.649,13.463 -5.779,6.345 -10.978,13.134 -15.616,20.356 -0.751,1.17 -1.606,2.272 -2.436,3.389 -0.061,0.082 -0.3,0.032 -0.456,0.044 -0.441,0.036 -0.703,-0.158 -0.714,-0.585 -0.031,-1.213 -0.08,-2.427 -0.054,-3.638 0.128,-5.966 -0.381,-11.87 -1.687,-17.696 -0.691,-3.078 -1.656,-6.063 -3.15,-8.858 -1.176,-2.202 -2.77,-3.99 -4.898,-5.343 -1.511,-0.961 -3.019,-0.996 -4.43,-0.09 -2.5,1.605 -4.864,3.411 -6.936,5.566 -1.448,1.506 -2.96,2.959 -3.937,4.717 0.156,1.078 0.869,1.607 1.473,2.211 6.761,6.757 9.892,15.074 10.479,24.469 0.538,8.596 -1.243,16.673 -5.545,24.159 -2.201,3.828 -4.977,7.178 -8.524,9.838 -4.451,3.338 -9.369,5.386 -15.036,5.268 -2.793,-0.058 -5.587,-0.105 -8.378,-0.208 -3.018,-0.111 -5.424,1.115 -7.393,3.299 -1.453,1.611 -2.321,3.51 -2.32,5.697 0,1.389 0.065,2.807 0.346,4.161 0.544,2.621 0.422,5.169 -0.075,7.791 -0.79,4.173 -2.238,8.025 -4.406,11.689 -3.036,5.129 -6.516,9.931 -10.198,14.592 -1.294,1.638 -2.843,3.076 -4.292,4.589 -11.552,12.056 -21.484,25.283 -29.023,40.23 -5.228,10.365 -8.948,21.24 -10.661,32.739 -1.166,7.824 -1.285,15.663 0.47,23.447 1.048,4.646 2.812,8.989 5.439,12.973 1.157,1.755 2.445,3.374 4.038,4.786 3.288,2.914 6.121,6.255 8.324,10.058 1.625,2.803 3.862,4.935 6.466,6.752 8.136,5.677 17.106,8.589 27.085,8.136 3.36,-0.153 6.572,-0.951 9.588,-2.415 3.437,-1.67 5.901,-4.292 7.252,-7.909 0.218,-0.582 -0.119,-1.452 -0.731,-1.767 -3.26,-1.672 -6.525,-3.334 -9.777,-5.021 -0.615,-0.319 -1.181,-0.733 -1.764,-1.111 -0.423,-0.274 -0.48,-0.992 -0.101,-1.33 0.515,-0.46 1.151,-0.834 1.523,-1.387 0.242,-0.361 0.284,-1.057 0.099,-1.457 -0.283,-0.613 -0.805,-1.133 -1.285,-1.635 -1.328,-1.389 -2.707,-2.73 -4.03,-4.124 -3.412,-3.595 -6.094,-7.643 -7.569,-12.418 -0.205,-0.663 -0.314,-1.357 -0.432,-2.043 -0.15,-0.868 0.379,-1.923 1.132,-2.137 1.677,-0.477 3.347,-1.024 5.059,-1.318 7.363,-1.262 14.614,-0.806 21.707,1.641 0.494,0.17 1.001,0.307 1.507,0.435 0.895,0.227 1.68,-0.274 1.895,-1.228 0.077,-0.337 -0.027,-0.741 0.119,-1.029 0.128,-0.253 0.512,-0.572 0.748,-0.546 5.061,0.56 9.979,1.611 14.515,4.091 4.443,2.429 8.947,4.744 13.415,7.127 0.923,0.492 1.829,1.027 2.704,1.601 5.697,3.74 11.49,7.307 17.699,10.156 0.202,0.093 0.262,0.565 0.318,0.873 0.021,0.119 -0.121,0.355 -0.24,0.401 -3.586,1.358 -7.168,2.725 -10.776,4.022 -0.805,0.29 -1.698,0.357 -2.558,0.467 -5.799,0.737 -11.494,0.226 -17.121,-1.349 -8.14,-2.277 -15.694,-5.847 -22.885,-10.23 -2.237,-1.364 -4.425,-2.81 -6.656,-4.183 -1.636,-1.007 -3.293,-1.981 -4.967,-2.923 -1.407,-0.791 -2.671,-0.884 -2.816,-0.281 -0.292,1.216 0.572,1.943 1.244,2.701 2.099,2.369 4.528,4.364 7.192,6.064 9.963,6.36 20.695,10.868 32.28,13.281 1.534,0.32 3.11,0.437 4.654,0.717 0.207,0.038 0.377,0.473 0.489,0.755 0.043,0.109 -0.083,0.354 -0.202,0.449 -3.995,3.192 -8.702,4.262 -13.664,4.566 -4.754,0.291 -9.409,-0.411 -14.036,-1.397 -0.851,-0.182 -1.701,-0.456 -2.559,-0.485 -0.441,-0.014 -1.025,0.313 -1.317,0.671 -0.427,0.524 -0.677,1.202 -0.956,1.836 -1.63,3.701 -4.447,6.203 -8.017,7.935 -4.345,2.108 -8.999,2.878 -13.753,2.696 -7.266,-0.279 -14.126,-2.186 -20.454,-5.85 -4.764,-2.758 -8.685,-6.355 -11.726,-11.006 -4.776,-7.306 -11.143,-12.955 -18.867,-17.01 -1.996,-1.048 -4.192,-1.713 -6.287,-2.576 -2.386,-0.985 -4.727,-0.736 -7.172,-0.082 -4.727,1.264 -6.522,7.154 -3.73,11.024 0.933,1.294 2.037,2.401 3.469,3.129 0.932,0.475 1.889,0.903 2.848,1.323 1.279,0.559 2.572,1.089 3.858,1.633 6.749,2.854 12.261,7.343 16.885,12.948 2.561,3.104 5.126,6.195 8.123,8.891 10.114,9.1 21.978,13.268 35.558,12.555 0.696,-0.037 1.412,-0.062 2.077,-0.246 3.868,-1.069 7.851,-1.868 11.551,-3.361 5.184,-2.092 10.101,-4.798 14.157,-8.795 1.238,-1.22 2.482,-2.434 4.275,-4.005 0.862,-0.649 1.172,-0.944 1.555,-1.519 0.468,-0.323 0.864,-0.365 1.011,-0.743 -0.582,-1.22 -0.36,-2.03 0.058,-2.824 0.698,-1.325 1.193,-1.567 2.98,-1.39 0.16,0.016 0.369,0.097 0.447,0.218 0.081,0.126 0.11,0.414 0.027,0.498 -0.847,0.856 -1.754,1.655 -2.572,2.536 -0.332,0.357 -0.488,0.878 -1.018,1.286 -0.573,0.196 -0.854,0.43 -1.45,0.755 -0.598,0.401 -0.881,0.709 -1.164,1.017"
       style="fill:#ffffff;fill-opacity:1;fill-rule:nonzero;stroke:none"
       transform="matrix(1.3333333,0,0,-1.3333333,2375.4485,647.34013)"
       clip-path="url(#clipPath105)" />
    <path
       id="path106"
       d="m 0,0 c -0.664,0.566 -1.358,1.103 -1.989,1.704 -3.673,3.501 -6.073,7.618 -6.283,12.833 -0.056,1.375 -0.403,1.643 -2.003,1.905 -8.444,1.386 -16.892,2.753 -25.339,4.122 -7.413,1.201 -14.829,2.382 -22.24,3.595 -7.41,1.213 -14.814,2.467 -22.224,3.68 -9.479,1.553 -18.966,3.057 -28.442,4.627 -11.542,1.913 -23.077,3.872 -34.615,5.814 -12.054,2.029 -24.105,4.076 -36.164,6.076 -1.869,0.31 -3.75,0.774 -5.533,0.538 -0.345,-0.454 -0.59,-0.701 -0.743,-0.996 -0.159,-0.305 -0.215,-0.663 -0.343,-0.987 -1.482,-3.744 -4.163,-6.415 -7.595,-8.377 -2.444,-1.397 -5.048,-2.336 -7.859,-2.769 -1.531,-0.235 -3.18,0.154 -4.67,-0.814 -0.153,-0.424 -0.401,-0.894 -0.49,-1.392 -1.427,-7.907 -2.839,-15.817 -4.242,-23.728 -1.953,-11.007 -3.886,-22.017 -5.847,-33.023 -1.501,-8.426 -3.037,-16.845 -4.544,-25.27 -0.091,-0.509 -0.122,-1.048 -0.059,-1.558 0.038,-0.306 0.241,-0.708 0.492,-0.85 0.755,-0.426 1.558,-0.772 2.362,-1.104 6.653,-2.747 10.579,-7.779 12.24,-14.674 0.285,-1.179 0.353,-2.412 0.497,-3.623 0.209,-1.75 0.609,-2.242 2.093,-2.49 6.545,-1.094 13.094,-2.167 19.636,-3.283 9.467,-1.615 18.93,-3.26 28.394,-4.894 8.776,-1.516 17.552,-3.038 26.328,-4.553 8.949,-1.545 17.9,-3.072 26.846,-4.63 9.118,-1.589 18.231,-3.207 27.346,-4.809 9.288,-1.632 18.576,-3.259 27.864,-4.889 4.472,-0.785 8.938,-1.608 13.42,-2.334 1.349,-0.219 2.741,-0.658 4.271,0.045 0.372,1.037 0.767,2.186 1.197,3.322 0.813,2.153 2.034,4.053 3.634,5.706 2.483,2.567 5.475,4.305 8.849,5.419 2.513,0.83 5.086,1.232 7.736,1.151 0.873,-0.027 1.752,0.004 2.62,0.858 0.572,3.581 1.166,7.373 1.785,11.162 1.518,9.31 3.035,18.619 4.577,27.925 1.599,9.65 3.218,19.296 4.846,28.941 0.814,4.823 1.686,9.636 2.487,14.461 0.167,1.005 0.511,2.068 -0.352,3.245 C 5.551,-3.018 2.917,-2.09 0,0 m 34.801,-128.666 c -0.367,-1.795 -0.622,-3.168 -0.948,-4.523 -0.219,-0.907 -1.012,-1.343 -2.015,-1.174 -8.779,1.479 -17.555,2.967 -26.334,4.446 -7.23,1.218 -14.461,2.425 -21.691,3.64 -9.64,1.62 -19.278,3.249 -28.919,4.86 -9.297,1.554 -18.598,3.084 -27.897,4.633 -9.298,1.549 -18.595,3.104 -27.892,4.663 -9.296,1.559 -18.591,3.13 -27.887,4.689 -9.813,1.645 -19.626,3.293 -29.442,4.918 -9.472,1.568 -18.951,3.098 -28.424,4.662 -9.472,1.564 -18.94,3.16 -28.412,4.723 -7.234,1.193 -14.472,2.367 -21.711,3.533 -8.1,1.304 -16.198,2.62 -24.306,3.871 -5.866,0.904 -11.747,1.712 -17.622,2.563 -1.036,0.15 -2.078,0.273 -3.108,0.457 -2.044,0.366 -2.424,0.887 -2.099,2.771 0.297,1.72 0.607,3.438 0.885,5.162 1.752,10.859 3.459,21.725 5.253,32.577 1.851,11.197 3.784,22.38 5.68,33.57 1.516,8.952 3.044,17.902 4.542,26.856 1.555,9.3 3.067,18.606 4.621,27.905 1.295,7.749 2.617,15.494 3.943,23.238 0.206,1.203 0.474,2.396 0.757,3.583 0.218,0.913 0.952,1.357 1.987,1.229 1.039,-0.129 2.078,-0.275 3.109,-0.457 11.515,-2.041 23.018,-4.152 34.546,-6.121 13.937,-2.382 27.89,-4.678 41.845,-6.951 13.957,-2.274 27.929,-4.451 41.887,-6.713 13.958,-2.263 27.904,-4.597 41.86,-6.866 11.717,-1.906 23.445,-3.743 35.162,-5.648 9.477,-1.54 18.942,-3.147 28.416,-4.703 7.408,-1.217 14.822,-2.391 22.23,-3.604 9.647,-1.578 19.29,-3.183 28.938,-4.764 7.407,-1.214 14.818,-2.404 22.226,-3.615 4.824,-0.788 9.645,-1.59 14.465,-2.398 0.859,-0.144 1.56,-1.005 1.489,-1.864 -0.129,-1.565 -0.235,-3.139 -0.482,-4.688 -2.609,-16.381 -5.245,-32.757 -7.873,-49.135 -2.794,-17.412 -5.699,-34.807 -8.341,-52.242 -1.571,-10.371 -3.944,-20.573 -5.928,-30.856 -0.76,-3.942 -1.616,-7.866 -2.51,-12.227"
       style="fill:#ffffff;fill-opacity:1;fill-rule:nonzero;stroke:none"
       transform="matrix(1.3333333,0,0,-1.3333333,2265.2392,1174.6708)"
       clip-path="url(#clipPath107)" />
    <path
       id="path108"
       d="m 0,0 c 3.896,-0.649 7.342,-1.216 10.786,-1.795 2.237,-0.375 4.472,-0.767 6.526,-1.12 0.695,-0.669 0.875,-1.325 0.808,-2.045 -0.095,-1.044 -0.175,-2.093 -0.349,-3.124 -0.992,-5.856 -2.004,-11.707 -3.025,-17.557 -0.089,-0.51 -0.183,-1.076 -0.47,-1.476 -0.277,-0.385 -0.784,-0.775 -1.231,-0.829 -0.852,-0.103 -1.746,-0.051 -2.601,0.079 -7.423,1.131 -14.843,2.289 -22.262,3.448 -7.936,1.24 -15.871,2.491 -23.807,3.735 -7.591,1.189 -15.184,2.372 -22.774,3.564 -8.108,1.273 -16.216,2.548 -24.322,3.835 -7.761,1.232 -15.517,2.493 -23.279,3.718 -7.59,1.199 -15.185,2.361 -22.776,3.555 -7.935,1.248 -15.866,2.52 -23.801,3.769 -7.59,1.195 -15.184,2.366 -22.774,3.56 -7.935,1.248 -15.867,2.516 -23.802,3.766 -7.59,1.195 -15.183,2.372 -22.774,3.569 -7.934,1.25 -15.866,2.519 -23.8,3.773 -7.589,1.2 -15.18,2.389 -22.77,3.587 -7.59,1.197 -15.18,2.391 -22.768,3.602 -7.759,1.238 -15.518,2.481 -23.273,3.748 -11.03,1.803 -22.081,3.49 -33.072,5.504 -5.929,1.087 -6.116,0.49 -5.144,6.988 0.879,5.873 1.734,11.75 2.607,17.625 0.077,0.516 0.121,1.069 0.344,1.525 0.221,0.452 0.644,0.825 1.233,0.803 0.695,-0.025 1.399,-0.011 2.081,-0.127 11.188,-1.91 22.365,-3.888 33.562,-5.747 9.647,-1.603 19.316,-3.07 28.974,-4.608 7.416,-1.181 14.83,-2.375 22.244,-3.568 7.585,-1.222 15.169,-2.456 22.756,-3.672 8.104,-1.299 16.209,-2.588 24.316,-3.87 7.245,-1.147 14.493,-2.269 21.738,-3.417 10.521,-1.667 21.038,-3.356 31.56,-5.018 7.59,-1.198 15.187,-2.351 22.775,-3.557 7.589,-1.206 15.169,-2.46 22.755,-3.68 7.414,-1.193 14.832,-2.361 22.246,-3.554 7.93,-1.276 15.857,-2.576 23.788,-3.849 7.414,-1.191 14.833,-2.353 22.248,-3.542 7.586,-1.217 15.168,-2.462 22.756,-3.675 C -16.667,2.628 -8.558,1.358 0,0"
       style="fill:#ffffff;fill-opacity:1;fill-rule:nonzero;stroke:none"
       transform="matrix(1.3333333,0,0,-1.3333333,2315.2752,1382.5184)"
       clip-path="url(#clipPath109)" />
    <path
       id="path110"
       d="M 0,0 C 0.457,2.843 0.829,5.255 1.267,7.655 1.303,7.854 1.796,8.124 2.048,8.097 2.55,8.044 3.053,7.852 3.519,7.637 11.852,3.781 20.627,1.63 29.752,0.841 32.187,0.63 34.626,0.402 37.067,0.349 c 5.258,-0.115 10.46,0.488 15.625,1.443 0.682,0.126 1.387,0.211 2.074,0.179 0.263,-0.013 0.726,-0.412 0.723,-0.632 -0.011,-1.039 -0.034,-2.104 -0.265,-3.111 -1.689,-7.374 -2.212,-14.847 -1.995,-22.387 0.378,-13.128 3.442,-25.575 9.588,-37.209 1.303,-2.466 2.683,-4.933 4.362,-7.146 1.93,-2.544 3.006,-5.486 4.473,-8.243 0.402,-0.755 0.598,-1.636 0.788,-2.482 0.516,-2.294 -0.227,-4.081 -2.179,-5.435 -2.503,-1.737 -5.336,-2.633 -8.263,-3.141 -3.782,-0.656 -7.59,-1.154 -11.452,-1.226 -8.933,-0.165 -17.792,0.493 -26.633,1.772 -7.96,1.152 -15.859,2.558 -23.644,4.566 -8.808,2.272 -17.396,5.184 -25.629,9.095 -3.166,1.504 -6.23,3.183 -8.976,5.364 -1.496,1.189 -2.869,2.543 -4.224,3.896 -0.845,0.842 -0.906,2.458 -0.131,3.407 0.766,0.94 1.625,1.82 2.535,2.623 1.964,1.733 4.046,3.335 5.975,5.105 15.244,13.987 25.313,31.004 29.877,51.225 C -0.189,-1.478 -0.145,-0.952 0,0"
       style="fill:#ffffff;fill-opacity:1;fill-rule:nonzero;stroke:none"
       transform="matrix(1.3333333,0,0,-1.3333333,2142.3823,863.5256)"
       clip-path="url(#clipPath111)" />
    <path
       id="path112"
       d="m 0,0 c 8.037,-1.305 15.619,-2.544 23.2,-3.793 7.408,-1.22 14.814,-2.453 22.221,-3.678 7.408,-1.225 14.816,-2.445 22.224,-3.669 7.408,-1.224 14.816,-2.446 22.223,-3.674 9.647,-1.598 19.292,-3.206 28.939,-4.802 7.236,-1.197 14.47,-2.4 21.711,-3.566 5.343,-0.861 10.695,-1.67 16.045,-2.495 0.514,-0.079 1.035,-0.134 1.554,-0.158 0.738,-0.035 1.781,0.723 1.966,1.463 0.38,1.524 0.781,3.046 1.066,4.589 1.489,8.071 2.938,16.15 4.422,24.223 0.125,0.678 0.398,1.329 0.614,1.989 0.116,0.354 0.911,0.678 1.327,0.596 1.112,-0.217 2.002,-0.773 2.292,-1.878 0.575,-2.193 1.098,-4.403 1.53,-6.628 2.497,-12.857 4.963,-25.72 7.426,-38.584 0.097,-0.505 0.055,-1.037 0.076,-1.557 0.019,-0.443 -0.559,-1.088 -0.957,-1.037 -1.902,0.242 -3.812,0.444 -5.705,0.753 -11.89,1.943 -23.771,3.938 -35.664,5.861 -11.894,1.923 -23.803,3.755 -35.697,5.676 -11.894,1.922 -23.774,3.927 -35.667,5.854 -11.893,1.928 -23.8,3.77 -35.691,5.711 -16.026,2.616 -32.04,5.308 -48.064,7.937 -13.785,2.261 -27.579,4.463 -41.364,6.724 -13.957,2.289 -27.902,4.65 -41.862,6.922 -13.96,2.271 -27.931,4.477 -41.899,6.699 -12.416,1.975 -24.835,3.93 -37.251,5.9 -1.541,0.245 -3.081,0.499 -4.605,0.827 -0.242,0.052 -0.56,0.525 -0.553,0.795 0.013,0.502 0.163,1.037 0.391,1.49 1.018,2.029 2.071,4.042 3.136,6.047 5.161,9.719 10.327,19.436 15.5,29.148 0.738,1.387 1.509,2.758 2.305,4.113 0.163,0.278 0.471,0.555 0.771,0.655 1.364,0.454 2.753,0.443 4.087,-0.098 0.236,-0.096 0.456,-0.587 0.443,-0.884 -0.064,-1.393 -0.147,-2.791 -0.341,-4.171 -0.826,-5.881 -1.694,-11.755 -2.546,-17.632 -0.101,-0.691 -0.233,-1.38 -0.299,-2.075 -0.474,-4.981 -0.726,-5.568 4.77,-6.567 9.276,-1.688 18.536,-3.458 27.817,-5.113 9.282,-1.657 18.578,-3.233 27.873,-4.812 9.296,-1.58 18.599,-3.118 27.898,-4.678 9.472,-1.589 18.941,-3.189 28.414,-4.771 7.233,-1.208 14.472,-2.387 21.706,-3.594 C -16.296,2.735 -8.376,1.395 0,0"
       style="fill:#ffffff;fill-opacity:1;fill-rule:nonzero;stroke:none"
       transform="matrix(1.3333333,0,0,-1.3333333,2100.6353,1324.6392)"
       clip-path="url(#clipPath113)" />
    <path
       id="path114"
       d="m 0,0 c -1.972,0.338 -3.516,0.633 -5.068,0.881 -4.797,0.765 -8.974,2.802 -12.54,6.088 -0.899,0.828 -1.774,1.686 -2.61,2.576 -1.196,1.275 -2.443,2.451 -3.877,3.492 -2.836,2.058 -5.269,4.569 -7.393,7.38 -2.21,2.926 -4.438,5.824 -6.351,8.972 -2.272,3.741 -5.176,7.035 -8.067,10.306 -1.144,1.295 -2.604,2.317 -3.955,3.42 -1.346,1.1 -2.736,2.146 -4.159,3.257 0.309,0.547 0.461,1.089 0.816,1.391 1.195,1.019 2.455,1.961 3.703,2.916 23.731,18.152 47.465,36.302 71.196,54.455 2.773,2.121 5.522,4.274 8.312,6.373 0.835,0.629 3.173,-0.413 3.458,-1.488 0.087,-0.33 0.17,-0.688 0.132,-1.019 -0.097,-0.866 -0.228,-1.731 -0.406,-2.584 C 29.809,90.176 26.384,73.944 23.04,57.696 20.399,44.868 17.838,32.023 15.273,19.179 13.94,12.501 12.682,5.807 11.366,-0.876 11.233,-1.548 10.986,-2.216 10.672,-2.825 10.547,-3.068 10.07,-3.31 9.802,-3.264 9.126,-3.148 8.453,-2.927 7.825,-2.645 5.432,-1.569 3.019,-0.561 0,0"
       style="fill:#ffffff;fill-opacity:1;fill-rule:nonzero;stroke:none"
       transform="matrix(1.3333333,0,0,-1.3333333,2490.3495,394.7228)"
       clip-path="url(#clipPath115)" />
    <path
       id="path116"
       d="m 0,0 c 1.747,8.827 3.416,17.215 5.051,25.61 3.003,15.419 5.994,30.839 8.97,46.263 0.793,4.113 1.496,8.243 2.284,12.357 0.128,0.664 0.478,1.288 0.75,1.92 0.062,0.144 0.27,0.364 0.344,0.34 0.319,-0.102 0.762,-0.202 0.892,-0.446 0.569,-1.071 1.097,-2.171 1.549,-3.298 11.313,-28.181 22.603,-56.371 33.923,-84.549 5.01,-12.47 10.083,-24.915 15.111,-37.378 0.323,-0.801 0.558,-1.649 0.722,-2.497 0.051,-0.264 -0.217,-0.645 -0.433,-0.888 -0.223,-0.252 -0.537,-0.46 -0.852,-0.587 -4.574,-1.843 -9.351,-2.813 -14.254,-3.144 -1.207,-0.081 -2.442,0.067 -3.65,0.223 -3.827,0.494 -7.505,1.604 -11.136,2.865 -2.494,0.867 -4.667,2.37 -6.87,3.773 -2.797,1.781 -5.578,3.604 -8.24,5.579 -3.464,2.57 -7.338,3.997 -11.553,4.575 -1.9,0.261 -3.824,0.484 -5.738,0.482 -3.529,-0.005 -6.926,0.785 -10.349,1.443 -1.171,0.225 -1.795,1.105 -1.592,2.289 0.325,1.891 0.713,3.771 1.096,5.652 C -2.687,-13.089 -1.388,-6.763 0,0"
       style="fill:#ffffff;fill-opacity:1;fill-rule:nonzero;stroke:none"
       transform="matrix(1.3333333,0,0,-1.3333333,2515.0705,365.07147)"
       clip-path="url(#clipPath117)" />
    <path
       id="path118"
       d="m 0,0 c -0.074,-0.323 -0.305,-0.715 -0.198,-0.959 1.271,-2.914 3.07,-5.471 5.344,-7.694 3.763,-3.68 7.914,-6.858 12.38,-9.634 5.051,-3.139 10.33,-5.839 15.76,-8.259 12.467,-5.557 25.359,-9.904 38.518,-13.463 13.659,-3.693 27.495,-6.539 41.49,-8.672 15.586,-2.377 31.232,-3.483 46.988,-2.873 7.867,0.305 15.671,1.19 23.32,3.118 2.534,0.638 5.04,1.428 7.493,2.329 4.151,1.525 7.766,3.938 10.92,7.043 0.316,0.312 1.109,0.239 1.439,-0.071 0.126,-0.119 0.295,-0.195 0.407,-0.323 2.722,-3.118 4.199,-6.813 4.891,-10.836 0.109,-0.629 -0.113,-1.404 -0.412,-1.994 -0.388,-0.766 -0.959,-1.457 -1.536,-2.104 -1.764,-1.981 -3.939,-3.432 -6.242,-4.712 -4.149,-2.306 -8.565,-3.926 -13.157,-5.068 -6.791,-1.689 -13.682,-2.69 -20.661,-3.284 -8.022,-0.681 -16.045,-0.894 -24.081,-0.736 -8.035,0.157 -16.045,0.745 -24.042,1.567 -5.906,0.608 -11.795,1.312 -17.677,2.137 -6.747,0.946 -13.439,2.186 -20.114,3.516 -11.302,2.251 -22.516,4.872 -33.529,8.298 -10.854,3.376 -21.419,7.479 -31.603,12.545 -5.637,2.805 -11.099,5.9 -16.263,9.513 -2.728,1.909 -5.328,3.982 -7.557,6.451 -1.515,1.676 -2.924,3.478 -4.159,5.368 -0.844,1.293 -1.428,2.796 -1.913,4.276 -0.753,2.295 -0.37,4.429 1.157,6.404 2.869,3.708 6.345,6.472 11.011,7.504 0.499,0.11 1.039,0.032 1.819,0.316 C 0.051,-0.023 0,0 0,0"
       style="fill:#ffffff;fill-opacity:1;fill-rule:nonzero;stroke:none"
       transform="matrix(1.3333333,0,0,-1.3333333,2018.6036,1004.3668)"
       clip-path="url(#clipPath119)" />
    <path
       id="path120"
       d="m 0,0 c 0.313,-0.15 0.664,-0.25 0.932,-0.457 8.014,-6.172 17.17,-9.997 26.73,-12.967 16.902,-5.252 34.2,-6.887 51.798,-5.412 3.469,0.291 6.896,1.074 10.346,1.605 1.021,0.158 2.054,0.229 3.106,0.342 0,-0.502 0.141,-0.977 -0.025,-1.14 -0.742,-0.727 -1.54,-1.408 -2.376,-2.029 -5.677,-4.215 -10.429,-9.261 -14.029,-15.375 -2.663,-4.522 -5.185,-9.108 -6.943,-14.073 -1.169,-3.302 -2.049,-6.672 -2.492,-10.156 -0.243,-1.904 -0.723,-3.785 -0.849,-5.693 -0.111,-1.678 -0.798,-2.99 -1.798,-4.242 -1.906,-2.386 -4.352,-4 -7.151,-5.142 -5.1,-2.083 -10.44,-2.923 -15.897,-2.688 -5.97,0.256 -11.769,1.502 -17.288,3.891 -2.738,1.185 -5.334,2.612 -7.702,4.43 -1.951,1.498 -3.678,3.216 -5.079,5.255 -0.628,0.913 -0.922,1.865 -0.661,2.957 0.243,1.019 0.517,2.031 0.729,3.057 1.25,6.039 1.428,12.158 0.959,18.269 -0.686,8.934 -2.516,17.65 -6.172,25.875 C 4.511,-10.034 2.483,-6.554 0.664,-2.978 0.273,-2.21 0.001,-1.381 -0.141,-0.256 0.044,0.069 0,0 0,0"
       style="fill:#ffffff;fill-opacity:1;fill-rule:nonzero;stroke:none"
       transform="matrix(1.3333333,0,0,-1.3333333,2135.3001,735.9944)"
       clip-path="url(#clipPath121)" />
    <path
       id="path122"
       d="m 0,0 c 4.637,-4.304 8.999,-8.332 13.332,-12.391 0.172,-0.162 0.093,-0.626 0.064,-0.943 -0.007,-0.073 -0.287,-0.144 -0.448,-0.173 -0.167,-0.031 -0.346,-0.029 -0.515,-0.008 -1.387,0.17 -2.78,0.304 -4.159,0.531 -9.475,1.558 -18.944,3.149 -28.42,4.703 -9.303,1.525 -18.612,3.014 -27.918,4.528 -9.994,1.627 -19.985,3.27 -29.98,4.898 -7.237,1.178 -14.478,2.334 -21.715,3.517 -7.754,1.267 -15.503,2.56 -23.256,3.83 -7.236,1.185 -14.475,2.351 -21.711,3.534 -9.477,1.549 -18.953,3.102 -28.428,4.663 -7.407,1.219 -14.811,2.465 -22.22,3.676 -7.408,1.211 -14.823,2.386 -22.233,3.59 -10.167,1.652 -20.331,3.326 -30.499,4.972 -7.756,1.256 -15.512,2.503 -23.275,3.714 -3.45,0.539 -6.918,0.962 -10.372,1.474 -1.899,0.281 -3.79,0.623 -5.677,0.978 -0.283,0.053 -0.524,0.327 -0.79,0.502 0.901,0.93 2.147,1.095 3.287,1.471 7.291,2.408 14.595,4.776 21.876,7.212 1.208,0.404 2.374,0.492 3.6,0.285 2.41,-0.405 4.819,-0.813 7.232,-1.206 12.062,-1.962 24.123,-3.933 36.189,-5.872 6.895,-1.109 13.793,-2.205 20.703,-3.211 1.925,-0.28 3.75,-0.804 5.552,-1.468 12.956,-4.778 26.165,-8.714 39.604,-11.879 8.331,-1.962 16.754,-3.442 25.212,-4.753 7.599,-1.178 15.243,-1.942 22.883,-2.752 0.174,-0.019 0.347,-0.042 0.522,-0.05 10.469,-0.461 20.929,-1.371 31.421,-0.842 2.646,0.134 5.228,-0.079 7.803,-0.605 11.977,-2.445 24.041,-4.398 36.107,-6.341 7.584,-1.22 15.155,-2.52 22.74,-3.737 C -2.223,1.644 -1.153,1.197 0,0"
       style="fill:#ffffff;fill-opacity:1;fill-rule:nonzero;stroke:none"
       transform="matrix(1.3333333,0,0,-1.3333333,2314.5896,1118.5401)"
       clip-path="url(#clipPath123)" />
    <path
       id="path124"
       d="m 0,0 c -22.056,-16.641 -43.806,-33.066 -65.564,-49.482 -0.268,-0.202 -0.629,-0.281 -1.154,-0.507 -2.031,0.509 -4.08,1.485 -6.145,2.364 -2.416,1.027 -4.825,2.046 -7.393,2.616 -4.95,1.099 -8.955,3.75 -12.438,7.35 -3.172,3.278 -6.161,6.711 -8.377,10.702 -2.572,4.632 -5.624,8.826 -9.746,12.196 -0.43,0.351 -0.562,1.15 -0.285,1.387 0.251,0.216 0.502,0.477 0.802,0.584 0.488,0.174 1.016,0.236 1.526,0.349 6.135,1.358 12.275,2.7 18.406,4.079 16.35,3.678 32.707,7.33 49.043,11.073 18.548,4.25 37.075,8.594 55.617,12.873 1.352,0.312 2.743,0.511 4.125,0.594 0.363,0.022 0.837,-0.537 1.109,-0.933 0.103,-0.15 -0.171,-0.628 -0.362,-0.892 -0.198,-0.275 -0.49,-0.491 -0.765,-0.701 -0.834,-0.634 -1.68,-1.253 -2.522,-1.877 C 10.686,7.922 5.496,4.07 0,0"
       style="fill:#ffffff;fill-opacity:1;fill-rule:nonzero;stroke:none"
       transform="matrix(1.3333333,0,0,-1.3333333,2502.9348,263.67213)"
       clip-path="url(#clipPath125)" />
    <path
       id="path126"
       d="m 0,0 c -0.03,-0.801 0.573,-1.229 1.048,-1.707 4.004,-4.023 5.031,-9.057 4.813,-14.458 -0.07,-1.727 -0.514,-3.439 -0.806,-5.283 -1.008,-0.941 -2.014,-1.903 -3.044,-2.838 -24.583,-22.309 -49.164,-44.62 -73.762,-66.912 -2.977,-2.698 -6.035,-5.307 -9.087,-7.921 -0.781,-0.668 -1.683,-1.194 -2.479,-1.751 -1.117,0.754 -1.231,1.836 -1.477,2.837 -1.17,4.75 -3.803,8.585 -7.399,11.8 -1.839,1.644 -3.952,2.857 -6.255,3.759 -0.98,0.383 -1.036,1.209 -0.225,2.055 0.483,0.505 0.968,1.009 1.476,1.487 1.527,1.437 3.047,2.883 4.604,4.286 24.274,21.868 48.551,43.734 72.836,65.591 3.376,3.039 6.844,5.977 10.179,9.061 1.596,1.476 3.313,1.843 5.296,1.212 C -3.121,0.85 -1.997,0.365 -0.426,-0.058 0.005,-0.048 0,0 0,0"
       style="fill:#ffffff;fill-opacity:1;fill-rule:nonzero;stroke:none"
       transform="matrix(1.3333333,0,0,-1.3333333,2028.9531,140.7628)"
       clip-path="url(#clipPath127)" />
    <path
       id="path128"
       d="m 0,0 c -0.215,-0.833 -0.345,-1.7 -0.659,-2.493 -2.476,-6.247 -3.591,-12.724 -3.674,-19.441 -0.133,-10.627 1.939,-20.862 5.535,-30.769 6.689,-18.435 16.458,-35.044 30.027,-49.318 2.527,-2.657 5.073,-5.305 7.447,-8.096 4.985,-5.861 9.498,-12.077 13.377,-18.732 1.15,-1.972 1.79,-4.168 2.306,-6.384 0.238,-1.02 0.335,-2.072 0.577,-3.089 0.495,-2.076 0.509,-4.127 0.092,-6.229 -0.305,-1.532 -0.448,-3.111 -0.509,-4.675 -0.168,-4.265 1.986,-7.308 5.352,-9.603 2.409,-1.643 5.169,-2.029 8.016,-1.865 1.393,0.08 2.781,0.254 4.169,0.413 7.519,0.86 13.68,-1.966 18.949,-7.074 4.225,-4.096 7.066,-9.055 8.802,-14.667 2.768,-8.949 2.787,-17.877 -0.207,-26.775 -1.466,-4.359 -3.739,-8.262 -6.855,-11.654 -0.583,-0.635 -1.267,-1.177 -1.933,-1.789 -0.556,0.277 -1.125,0.393 -1.436,0.74 -2.681,2.992 -5.353,5.993 -7.942,9.064 -0.893,1.058 -1.642,2.269 -2.284,3.499 -1.315,2.519 -1.288,4.987 0.453,7.385 0.827,1.139 1.714,2.187 2.744,3.145 1.277,1.187 2.511,2.426 3.701,3.701 2.066,2.214 3.29,4.862 4.212,7.746 0.977,3.055 0.454,5.854 -0.745,8.642 -0.343,0.796 -0.85,1.522 -1.284,2.279 -2.302,4.012 -6.111,5.411 -10.76,4.526 -2.394,-0.455 -4.745,-1.172 -7.084,-1.877 -3.096,-0.934 -6.222,-0.827 -9.342,-0.343 -1.723,0.268 -3.366,0.902 -4.881,1.824 -5.48,3.336 -9.916,7.692 -13.058,13.318 -1.409,2.523 -1.988,5.204 -1.458,8.074 0.253,1.373 0.587,2.73 0.837,4.103 0.5,2.757 0.811,5.532 0.647,8.34 -0.21,3.583 -1.287,6.862 -3.586,9.656 -1.44,1.749 -2.846,3.561 -4.5,5.093 -6.302,5.836 -11.965,12.239 -17.191,19.035 -8.976,11.674 -16.671,24.128 -22.632,37.62 -4.466,10.108 -7.797,20.564 -9.483,31.503 -1.204,7.809 -1.45,15.649 -0.322,23.494 0.248,1.725 0.69,3.422 1.025,5.135 0.291,1.49 1.022,2.543 2.587,2.934 3.412,0.852 6.568,2.342 10.165,3.93 C -0.31,0.299 0,0 0,0"
       style="fill:#ffffff;fill-opacity:1;fill-rule:nonzero;stroke:none"
       transform="matrix(1.3333333,0,0,-1.3333333,1931.1001,393.6476)"
       clip-path="url(#clipPath129)" />
    <path
       id="path130"
       d="m 0,0 c -2.614,-10.527 -7.017,-19.795 -12.6,-28.538 -5.863,-9.181 -12.92,-17.371 -20.775,-24.888 -11.042,-10.567 -23.211,-19.619 -36.711,-26.8 -4.926,-2.62 -10.082,-4.803 -15.113,-7.227 -4.165,-2.006 -7.701,-4.751 -10.232,-8.714 -1.34,-2.099 -2.282,-4.312 -2.656,-6.77 -0.316,-2.072 -0.59,-4.151 -0.955,-6.215 -0.628,-3.547 -2.255,-6.54 -4.91,-9.024 -2.974,-2.781 -6.383,-4.887 -10.029,-6.592 -1.559,-0.729 -3.309,-1.114 -5.013,-1.454 -3.02,-0.602 -5.925,-0.099 -8.603,1.428 -1.363,0.777 -2.634,1.714 -3.966,2.548 -1.775,1.111 -3.531,2.261 -5.362,3.271 -3.234,1.784 -6.638,2.02 -10.109,0.76 -2.493,-0.905 -4.718,-2.236 -6.517,-4.24 -3.179,-3.54 -3.954,-7.691 -3.081,-12.217 0.363,-1.879 0.917,-3.725 1.837,-5.442 0.742,-1.384 1.399,-2.814 2.057,-4.24 0.666,-1.444 1.041,-2.973 1.037,-4.565 -0.001,-0.689 -0.009,-1.452 -0.29,-2.052 -1.04,-2.222 -2.227,-4.354 -4.425,-5.701 -3.126,-1.917 -6.227,-3.875 -9.352,-5.792 -0.837,-0.513 -1.709,-0.181 -2.093,0.757 -4.361,10.64 -4.925,21.371 -0.539,32.132 3.07,7.536 8.148,13.341 15.363,17.251 5.948,3.223 12.237,3.895 18.803,2.807 1.566,-0.259 2.976,-0.921 4.374,-1.681 1.37,-0.746 2.823,-1.417 4.319,-1.839 3.085,-0.868 6.193,-0.928 9.25,0.281 3.502,1.386 5.723,3.9 6.683,7.517 0.313,1.179 0.595,2.384 0.709,3.594 0.319,3.386 1.623,6.408 3.227,9.339 2.037,3.723 4.741,6.906 7.893,9.715 4.069,3.627 8.487,6.657 13.679,8.544 7.756,2.817 14.927,6.816 21.738,11.441 13.553,9.202 25.338,20.302 35.313,33.298 4.802,6.255 8.922,12.938 12.18,20.133 1.587,3.504 2.87,7.11 3.914,10.822 1.101,3.916 1.166,7.926 1.491,11.919 0.033,0.401 0.907,0.889 1.213,0.665 2.823,-2.063 5.832,-3.8 9.033,-5.207 C 0.922,8.962 1.011,8.783 1.249,8.521 1.584,5.813 0.416,3.166 0,0"
       style="fill:#ffffff;fill-opacity:1;fill-rule:nonzero;stroke:none"
       transform="matrix(1.3333333,0,0,-1.3333333,2576.4689,517.60707)"
       clip-path="url(#clipPath131)" />
    <path
       id="path132"
       d="m 0,0 c -11.469,-32.435 -22.782,-64.493 -34.104,-96.548 -0.463,-1.31 -0.999,-2.595 -1.541,-3.997 -0.687,-0.153 -1.345,-0.412 -2.011,-0.433 -6.8,-0.214 -13.6,-0.394 -20.401,-0.566 -0.329,-0.008 -0.708,0.079 -0.98,0.253 -0.267,0.17 -0.64,0.55 -0.597,0.764 0.237,1.185 0.519,2.37 0.909,3.513 10.765,31.509 21.543,63.014 32.323,94.518 1.241,3.63 2.494,7.255 3.757,10.877 0.344,0.987 0.735,1.958 1.12,2.931 0.186,0.472 0.897,0.811 1.269,0.625 0.465,-0.233 0.945,-0.445 1.385,-0.719 C -13.754,8.037 -8.182,6.167 -2.231,5.33 -1.066,5.166 0.255,5.42 1.321,4.247 0.949,3.015 0.552,1.697 0,0"
       style="fill:#ffffff;fill-opacity:1;fill-rule:nonzero;stroke:none"
       transform="matrix(1.3333333,0,0,-1.3333333,2464.5753,95.324267)"
       clip-path="url(#clipPath133)" />
    <path
       id="path134"
       d="m 0,0 c -3.133,-0.759 -5.84,-1.431 -8.551,-2.088 -1.109,-0.268 -2.047,0.066 -2.865,0.847 -2.295,2.191 -4.287,4.631 -5.501,7.573 -1.062,2.574 -1.986,5.215 -2.783,7.883 -0.652,2.184 -0.646,4.473 -0.544,6.756 0.123,2.785 0.338,5.575 -0.189,8.356 -0.207,1.09 0.633,1.979 1.829,2.017 2.093,0.065 4.188,0.11 6.282,0.101 23.218,-0.096 46.435,-0.189 69.652,-0.312 19.377,-0.103 38.754,-0.238 58.131,-0.378 1.557,-0.011 3.116,-0.136 4.667,-0.285 0.221,-0.022 0.51,-0.46 0.567,-0.746 0.058,-0.292 -0.043,-0.844 -0.224,-0.918 -1.12,-0.46 -2.259,-0.918 -3.435,-1.193 C 103.451,24.431 89.848,21.327 76.27,18.114 51.152,12.17 26.048,6.168 0.938,0.191 0.769,0.151 0.596,0.125 0,0"
       style="fill:#ffffff;fill-opacity:1;fill-rule:nonzero;stroke:none"
       transform="matrix(1.3333333,0,0,-1.3333333,2364.5456,276.3668)"
       clip-path="url(#clipPath135)" />
    <path
       id="path136"
       d="m 0,0 c 0.277,0.203 0.555,0.406 0.858,0.628 -0.149,0.49 -0.303,0.989 -0.453,1.489 -1.474,4.922 0.051,8.962 3.796,12.211 3.786,3.284 8.21,4.47 13.159,3.447 0.259,-0.054 0.452,-0.423 0.713,-0.681 -0.862,-1.083 -1.79,-2.126 -2.576,-3.267 -1.088,-1.578 -1.082,-3.256 -0.182,-4.948 0.751,-1.412 1.758,-2.639 2.999,-3.601 1.927,-1.493 3.89,-2.968 5.976,-4.222 6.012,-3.613 12.47,-6.268 19.116,-8.455 11.959,-3.935 24.138,-6.93 36.621,-8.701 9.186,-1.304 18.393,-2.009 27.67,-1.765 4.908,0.129 9.74,0.775 14.488,2.026 2.209,0.582 4.309,1.414 6.212,2.702 2.488,1.684 3.899,3.911 3.752,7.03 -0.057,1.192 -0.458,2.424 0.156,3.628 0.331,0 0.75,0.131 0.999,-0.02 5.086,-3.082 8.544,-9.542 8.32,-15.411 -0.049,-1.303 -0.575,-2.343 -1.495,-3.226 -2.296,-2.2 -4.969,-3.835 -7.819,-5.196 -5.561,-2.656 -11.443,-4.276 -17.516,-5.157 -12.338,-1.79 -24.697,-1.716 -37.085,-0.384 -8.526,0.916 -16.924,2.434 -25.222,4.55 -10.868,2.773 -21.29,6.741 -31.185,12.014 C 14.637,-11.757 8.61,-7.307 3.472,-1.717 2.543,-0.706 1.796,0.549 0.146,0.474 -0.032,0.023 0,0 0,0"
       style="fill:#ffffff;fill-opacity:1;fill-rule:nonzero;stroke:none"
       transform="matrix(1.3333333,0,0,-1.3333333,2066.6384,962.54987)"
       clip-path="url(#clipPath137)" />
    <path
       id="path138"
       d="m 0,0 c 18.001,-29.167 35.81,-58.005 53.619,-86.842 0.276,-0.446 0.555,-0.889 0.833,-1.334 2.595,-4.155 2.231,-4.478 -1.107,-8.085 -1.805,-1.951 -4.109,-3.289 -6.762,-3.782 -1.881,-0.348 -3.799,-0.576 -5.709,-0.663 -2.443,-0.112 -4.885,-0.049 -7.253,-0.843 -0.864,-0.289 -1.655,0.212 -2.061,1.158 -0.825,1.926 -1.628,3.862 -2.425,5.8 -14.952,36.337 -29.901,72.676 -44.854,109.012 -1.263,3.068 -2.573,6.116 -3.823,9.188 -0.253,0.623 -0.338,1.315 -0.536,2.123 0.808,0.217 1.459,0.438 2.129,0.56 0.727,0.131 1.448,-0.089 1.876,-0.663 0.834,-1.118 1.582,-2.303 2.321,-3.488 C -9.225,14.875 -4.711,7.601 0,0"
       style="fill:#ffffff;fill-opacity:1;fill-rule:nonzero;stroke:none"
       transform="matrix(1.3333333,0,0,-1.3333333,2568.7781,284.26933)"
       clip-path="url(#clipPath139)" />
    <path
       id="path140"
       d="m 0,0 c -1.85,-5.519 -3.578,-10.641 -5.336,-15.754 -0.452,-1.316 -0.932,-2.631 -1.538,-3.879 -0.184,-0.378 -0.847,-0.768 -1.266,-0.744 -2.085,0.122 -4.165,0.352 -6.241,0.595 -3.983,0.467 -7.964,0.954 -11.942,1.465 -0.946,0.122 -1.504,1 -1.281,1.884 0.257,1.014 0.509,2.031 0.813,3.032 7.16,23.524 14.328,47.045 21.486,70.57 0.346,1.139 0.537,2.34 1.689,3.246 0.473,-0.618 0.947,-1.127 1.295,-1.71 3.808,-6.388 8.646,-11.808 14.867,-15.943 0.144,-0.096 0.281,-0.207 0.408,-0.325 0.545,-0.508 0.827,-1.135 0.637,-1.867 C 13.373,39.729 13.082,38.905 12.804,38.08 8.575,25.52 4.343,12.96 0,0"
       style="fill:#ffffff;fill-opacity:1;fill-rule:nonzero;stroke:none"
       transform="matrix(1.3333333,0,0,-1.3333333,2368.6356,381.10173)"
       clip-path="url(#clipPath141)" />
    <path
       id="path142"
       d="m 0,0 c -5.792,2.622 -10.936,5.564 -15.574,9.319 -1.619,1.311 -3.069,2.835 -4.57,4.288 -0.423,0.409 -0.468,1.432 -0.183,1.969 1.276,2.413 2.149,3.427 5.121,5.927 0.436,-0.167 0.969,-0.266 1.381,-0.543 C -6.196,15.839 2.294,12.694 11.048,10.198 18.441,8.091 25.979,6.72 33.618,5.779 44.757,4.406 55.909,4.35 67.072,5.083 c 3.993,0.263 7.952,1.034 11.927,1.57 1.209,0.163 2.417,0.393 3.631,0.433 C 83.068,7.1 83.732,6.762 83.934,6.39 85.267,3.932 86.175,1.297 86.884,-1.405 87.031,-1.967 86.608,-3.01 86.122,-3.223 84.524,-3.921 82.95,-4.689 81.309,-5.266 76.688,-6.892 71.917,-7.918 67.081,-8.673 58.583,-10 50.024,-10.146 41.485,-9.557 27.309,-8.577 13.468,-5.933 0,0"
       style="fill:#ffffff;fill-opacity:1;fill-rule:nonzero;stroke:none"
       transform="matrix(1.3333333,0,0,-1.3333333,2157.9089,744.15133)"
       clip-path="url(#clipPath143)" />
    <path
       id="path144"
       d="m 0,0 c 1.405,1.12 2.761,1.447 4.101,1.847 3.094,0.925 5.604,2.756 7.744,5.143 3.09,3.447 5.068,7.49 6.389,11.882 1.162,3.864 1.671,7.838 1.93,11.851 0.089,1.391 0.084,2.793 0.257,4.173 0.083,0.661 0.454,1.295 0.74,1.92 0.241,0.525 1.496,0.478 1.793,-0.042 0.171,-0.298 0.442,-0.571 0.511,-0.889 0.332,-1.531 0.685,-3.064 0.894,-4.615 0.799,-5.953 2.783,-11.505 5.623,-16.765 1.246,-2.31 2.743,-4.457 4.584,-6.344 3.135,-3.214 6.741,-5.504 11.383,-5.759 0.513,-0.028 1.067,-0.11 1.515,-0.338 0.619,-0.315 1.119,-0.814 1.193,-1.591 0.06,-0.623 -0.394,-1.516 -0.932,-1.723 -0.976,-0.374 -1.938,-0.82 -2.947,-1.066 -7.173,-1.748 -11.723,-6.559 -15.018,-12.82 -1.552,-2.949 -2.54,-6.106 -3.185,-9.377 -0.575,-2.917 -0.949,-5.852 -1.054,-8.824 -0.038,-1.066 -0.301,-2.082 -1.063,-2.875 -0.211,-0.22 -0.584,-0.399 -0.878,-0.392 -0.288,0.007 -0.722,0.208 -0.825,0.442 -0.276,0.625 -0.492,1.302 -0.582,1.978 -0.253,1.901 -0.424,3.813 -0.642,5.72 -0.439,3.844 -1.513,7.517 -3.112,11.029 -0.648,1.423 -1.388,2.818 -2.217,4.143 C 12.931,-8.066 8.417,-4.419 2.45,-2.668 1.787,-2.474 1.094,-2.329 0.481,-2.027 -0.197,-1.693 -0.477,-1.074 0,0"
       style="fill:#ffffff;fill-opacity:1;fill-rule:nonzero;stroke:none"
       transform="matrix(1.3333333,0,0,-1.3333333,2298.1681,775.992)"
       clip-path="url(#clipPath145)" />
    <path
       id="path146"
       d="m 0,0 c 3.362,1.301 5.902,3.128 8.283,5.212 0.621,0.543 1.7,0.452 2.421,-0.081 1.432,-1.059 2.486,-2.39 3.272,-4.008 1.95,-4.018 -0.536,-9.327 -3.692,-10.896 -3.477,-1.728 -7.157,-2.84 -10.95,-3.458 -14.632,-2.387 -28.896,-0.772 -42.757,4.368 -2.77,1.026 -5.447,2.378 -8.023,3.833 -3.33,1.882 -5.451,4.819 -6.507,8.514 -0.736,2.574 -0.092,4.844 1.535,6.858 1.475,1.825 3.452,2.905 5.692,3.532 0.591,0.165 1.491,-0.129 1.826,-0.702 C -44.871,6.282 -38.515,2.5 -31.218,0.056 -22.95,-2.713 -14.499,-3.467 -5.907,-1.751 -4.035,-1.377 -2.224,-0.693 0,0"
       style="fill:#ffffff;fill-opacity:1;fill-rule:nonzero;stroke:none"
       transform="matrix(1.3333333,0,0,-1.3333333,2211.9139,839.93707)"
       clip-path="url(#clipPath147)" />
    <path
       id="path148"
       d="m 0,0 c 4.275,-3.085 8.478,-5.563 12.796,-7.857 0.57,-0.303 1.206,-0.668 1.034,-1.689 -1.538,0.231 -3.074,0.476 -4.616,0.689 -1.382,0.191 -2.773,0.322 -4.154,0.521 -10.873,1.563 -21.744,3.14 -32.617,4.701 -2.07,0.298 -4.149,0.532 -6.222,0.816 -0.705,0.097 -1.324,0.388 -1.818,1.159 2.245,5.933 4.524,11.965 6.824,17.989 0.114,0.299 0.423,0.524 0.776,0.944 0.897,0.019 1.939,0.13 2.965,0.044 2.955,-0.246 5.905,-0.558 8.853,-0.875 0.71,-0.076 1.374,-0.393 1.715,-1.051 C -11.237,9.184 -6.195,4.664 -0.72,0.542 -0.581,0.437 -0.443,0.331 0,0"
       style="fill:#ffffff;fill-opacity:1;fill-rule:nonzero;stroke:none"
       transform="matrix(1.3333333,0,0,-1.3333333,2015.4736,1051.7316)"
       clip-path="url(#clipPath149)" />
    <path
       id="path150"
       d="m 0,0 c 0.735,-0.506 1.235,-0.879 1.304,-1.319 0.323,-2.062 0.666,-4.137 0.748,-6.217 0.329,-8.373 0.075,-16.716 -1.455,-24.988 -0.443,-2.395 -0.627,-4.838 -1.443,-7.159 -0.239,-0.679 -0.844,-1.2 -1.529,-1.163 -1.388,0.074 -2.782,0.128 -4.159,0.303 -2.072,0.262 -4.133,0.617 -6.198,0.941 -2.283,0.358 -2.721,0.939 -2.393,3.09 0.605,3.96 1.206,7.92 1.795,11.881 1.203,8.096 2.443,16.187 3.16,24.346 0.06,0.679 0.742,1.25 1.427,1.214 0.867,-0.044 1.737,-0.085 2.6,-0.176 C -4.238,0.552 -2.336,0.32 0,0"
       style="fill:#ffffff;fill-opacity:1;fill-rule:nonzero;stroke:none"
       transform="matrix(1.3333333,0,0,-1.3333333,2176.7619,1010.3045)"
       clip-path="url(#clipPath151)" />
    <path
       id="path152"
       d="m 0,0 c 3.213,0.671 6.13,1.188 9.021,1.82 4.43,0.968 8.78,2.216 13.027,3.828 4.783,1.815 9.165,4.245 12.804,7.903 0.364,0.366 0.815,0.646 1.297,1.02 3.479,0.096 6.835,-0.89 10.208,-1.695 0.323,-0.078 0.72,-0.864 0.676,-1.277 -0.147,-1.38 -0.493,-2.737 -0.737,-4.108 -0.733,-4.118 -1.455,-8.239 -2.177,-12.359 -0.404,-2.303 -0.976,-2.763 -3.077,-2.448 -2.068,0.31 -4.136,0.617 -6.203,0.936 -8.095,1.25 -16.186,2.523 -24.285,3.747 -3.446,0.521 -6.908,0.941 -10.361,1.413 -0.343,0.047 -0.8,0.024 -0.996,0.231 C -1.441,-0.315 -0.573,-0.352 0,0"
       style="fill:#ffffff;fill-opacity:1;fill-rule:nonzero;stroke:none"
       transform="matrix(1.3333333,0,0,-1.3333333,2252.4164,1099.3611)"
       clip-path="url(#clipPath153)" />
    <path
       id="path154"
       d="M 0,0 C 1.776,1.946 3.269,3.659 5.238,4.847 5.858,5.221 6.547,5.394 7.225,5.086 9.282,4.152 11.322,3.182 13.362,2.212 13.802,2.002 13.955,1.255 13.638,0.844 9.68,-4.29 6.681,-9.999 3.683,-15.709 0.762,-21.274 -1.883,-26.947 -3.26,-33.131 c -0.289,-1.299 -0.991,-1.641 -2.309,-1.122 -3.241,1.275 -6.47,2.578 -9.683,3.922 -0.613,0.257 -1.127,0.751 -1.741,1.173 0.778,3.399 2.442,6.279 3.952,9.196 C -9.427,-12.985 -5.374,-6.276 0,0"
       style="fill:#ffffff;fill-opacity:1;fill-rule:nonzero;stroke:none"
       transform="matrix(1.3333333,0,0,-1.3333333,2089.7863,996.98693)"
       clip-path="url(#clipPath155)" />
    <path
       id="path156"
       d="m 0,0 c -2.525,0.89 -4.671,1.606 -6.797,2.375 -0.933,0.338 -1.238,1.132 -0.88,2.094 3.653,9.815 7.961,19.324 13.398,28.29 1.17,1.929 2.533,3.746 3.869,5.57 0.417,0.569 1.099,0.907 1.845,0.655 2.307,-0.777 4.603,-1.583 6.895,-2.403 0.704,-0.251 1.012,-1.063 0.677,-1.685 -0.495,-0.92 -1.041,-1.814 -1.515,-2.744 -0.87,-1.705 -1.803,-3.387 -2.536,-5.151 C 12.28,20.56 9.99,13.981 8.363,7.194 7.755,4.66 7.429,2.058 6.955,-0.509 6.826,-1.212 6.083,-1.711 5.415,-1.535 3.734,-1.094 2.062,-0.616 0,0"
       style="fill:#ffffff;fill-opacity:1;fill-rule:nonzero;stroke:none"
       transform="matrix(1.3333333,0,0,-1.3333333,2099.4568,1048.6875)"
       clip-path="url(#clipPath157)" />
    <path
       id="path158"
       d="m 0,0 c -1.017,-6.276 -1.957,-12.125 -2.868,-17.978 -0.776,-4.992 -1.516,-9.99 -2.28,-14.983 -0.071,-0.465 -0.692,-0.931 -1.125,-0.911 -0.172,0.008 -0.352,-0.054 -0.517,-0.022 -3.25,0.625 -6.505,1.233 -9.746,1.905 -1.514,0.313 -2.045,1.168 -1.718,2.651 1.275,5.783 2.516,11.575 3.882,17.337 0.884,3.727 1.95,7.411 2.963,11.107 0.414,1.512 0.819,3.035 1.376,4.496 1.405,3.684 1.153,4.252 5.578,3.14 C -3.108,6.403 -1.71,6.275 -0.343,6.013 0.534,5.846 0.996,5.009 0.805,4.015 0.574,2.817 0.328,1.622 0,0"
       style="fill:#ffffff;fill-opacity:1;fill-rule:nonzero;stroke:none"
       transform="matrix(1.3333333,0,0,-1.3333333,2158.5557,1016.0001)"
       clip-path="url(#clipPath159)" />
    <path
       id="path160"
       d="m 0,0 c 2.001,6.006 3.889,11.612 5.748,17.228 1.375,4.154 3.347,8.025 5.522,11.802 0.503,0.872 1.284,1.247 2.178,1.016 2.021,-0.523 4.037,-1.067 6.046,-1.633 0.932,-0.262 1.291,-1.074 0.892,-2.048 C 17.474,19.246 15.71,11.799 14.045,4.321 13.133,0.227 12.9,-3.942 12.525,-8.098 c -0.062,-0.687 -0.132,-1.385 -0.322,-2.041 -0.076,-0.261 -0.473,-0.453 -0.759,-0.615 -0.126,-0.071 -0.341,0 -0.512,0.026 -3.971,0.6 -7.774,1.872 -11.626,2.942 -0.323,0.09 -0.659,0.288 -0.885,0.532 -0.214,0.232 -0.472,0.643 -0.402,0.885 C -1.404,-4.366 -0.754,-2.384 0,0"
       style="fill:#ffffff;fill-opacity:1;fill-rule:nonzero;stroke:none"
       transform="matrix(1.3333333,0,0,-1.3333333,2114.5819,1042.4516)"
       clip-path="url(#clipPath161)" />
    <path
       id="path162"
       d="m 0,0 c -0.51,-0.525 -0.835,-0.822 -1.131,-0.796 -2.946,0.256 -5.888,0.561 -8.83,0.865 -0.366,0.037 -0.843,0.812 -0.768,1.212 0.641,3.425 1.33,6.843 1.915,10.278 0.293,1.715 0.5,3.457 0.572,5.194 0.316,7.69 0.137,15.349 -1.654,22.892 -0.313,1.319 0.216,1.887 1.649,1.914 0.348,0.007 0.698,0.012 1.046,0 C 0.602,41.287 -0.467,42.43 1.107,34.15 2.382,27.442 2.535,20.619 2.186,13.807 1.954,9.277 1.468,4.764 0,0"
       style="fill:#ffffff;fill-opacity:1;fill-rule:nonzero;stroke:none"
       transform="matrix(1.3333333,0,0,-1.3333333,2195.0331,1065.9164)"
       clip-path="url(#clipPath163)" />
    <path
       id="path164"
       d="m 0,0 c 2.128,3.999 4.1,7.689 6.084,11.373 0.579,1.073 1.18,2.135 1.799,3.186 0.456,0.775 1.132,1.313 1.969,1.644 0.162,0.063 0.325,0.127 0.491,0.179 6.493,2 12.986,4.003 19.483,5.994 0.708,0.218 1.414,-0.455 1.261,-1.151 C 31.05,21.057 31.068,20.875 31.018,20.712 29.47,15.719 27.926,10.724 26.349,5.74 26.199,5.264 25.844,4.853 25.563,4.374 19.4,2.464 13.249,0.554 7.097,-1.349 4.604,-2.12 2.109,-2.883 -0.391,-3.634 c -0.502,-0.151 -1.047,0.472 -0.876,0.97 0.112,0.328 0.226,0.659 0.377,0.97 C -0.662,-1.225 -0.4,-0.772 0,0"
       style="fill:#ffffff;fill-opacity:1;fill-rule:nonzero;stroke:none"
       transform="matrix(1.3333333,0,0,-1.3333333,1928.4883,1060.1309)"
       clip-path="url(#clipPath165)" />
    <path
       id="path166"
       d="m 0,0 c 3.829,-3.86 7.359,-7.476 10.966,-11.013 1.43,-1.402 2.308,-2.927 2.536,-4.972 0.657,-5.883 1.478,-11.748 2.202,-17.624 0.105,-0.854 0.084,-1.732 0.012,-2.59 -0.018,-0.205 -0.473,-0.373 -0.869,-0.661 -2.935,2.666 -5.893,5.362 -8.862,8.047 -3.359,3.038 -6.692,6.105 -10.11,9.076 -1.198,1.04 -1.564,2.202 -1.356,3.697 0.818,5.856 1.61,11.717 2.4,17.485 C -1.622,1.962 -1.041,0.915 0,0"
       style="fill:#ffffff;fill-opacity:1;fill-rule:nonzero;stroke:none"
       transform="matrix(1.3333333,0,0,-1.3333333,2324.0739,1088.1664)"
       clip-path="url(#clipPath167)" />
    <path
       id="path168"
       d="m 0,0 c -5.918,-8.005 -11.617,-15.704 -17.331,-23.393 -0.196,-0.263 -0.547,-0.41 -0.893,-0.661 -0.796,0 -1.674,-0.099 -2.521,0.019 -2.239,0.313 -4.466,0.716 -6.696,1.092 -0.639,0.107 -0.946,1.022 -0.574,1.661 0.174,0.3 0.321,0.619 0.522,0.899 7.433,10.318 14.87,20.634 22.315,30.943 0.199,0.275 0.463,0.56 0.762,0.69 0.28,0.123 0.781,0.194 0.955,0.036 C -1.406,9.409 0.614,7.494 2.617,5.563 2.849,5.34 2.924,4.954 3.157,4.463 2.215,3.131 1.216,1.719 0,0"
       style="fill:#ffffff;fill-opacity:1;fill-rule:nonzero;stroke:none"
       transform="matrix(1.3333333,0,0,-1.3333333,2452.3924,387.91773)"
       clip-path="url(#clipPath169)" />
    <path
       id="path170"
       d="m 0,0 c -2.291,0.221 -4.224,-0.069 -5.974,0.522 -0.722,1.119 -0.315,2.166 -0.12,3.151 1.402,7.044 1.581,14.149 1.252,21.295 -0.258,5.595 -1.153,11.056 -3.065,16.336 -0.338,0.934 0.216,1.683 1.259,1.751 1.387,0.09 2.776,0.162 4.166,0.196 1.236,0.031 2.031,-0.476 2.353,-1.632 C 0.989,37.602 2.15,33.592 3.114,29.537 4.244,24.788 4.628,19.921 4.929,15.061 5.2,10.701 4.727,6.376 3.924,2.092 3.623,0.49 3.017,0.105 0.933,-0.035 0.76,-0.047 0.586,-0.026 0,0"
       style="fill:#ffffff;fill-opacity:1;fill-rule:nonzero;stroke:none"
       transform="matrix(1.3333333,0,0,-1.3333333,2209.1097,1067.994)"
       clip-path="url(#clipPath171)" />
    <path
       id="path172"
       d="M 0,0 C 2.34,2.127 4.37,4.051 6.842,5.408 7.831,5.951 8.831,5.995 9.814,5.376 10.682,4.829 11.729,4.48 12.116,3.208 11.734,2.741 11.329,2.178 10.857,1.68 2.123,-7.536 -4.817,-17.895 -9.289,-29.837 c -0.181,-0.482 -0.436,-0.964 -0.769,-1.349 -0.187,-0.217 -0.674,-0.407 -0.909,-0.314 -3.246,1.283 -6.346,2.864 -9.275,4.77 -0.389,0.253 -0.624,1.022 -0.43,1.381 0.246,0.457 0.439,0.95 0.73,1.375 C -14.118,-15.459 -7.811,-7.344 0,0"
       style="fill:#ffffff;fill-opacity:1;fill-rule:nonzero;stroke:none"
       transform="matrix(1.3333333,0,0,-1.3333333,2075.9476,991.53827)"
       clip-path="url(#clipPath173)" />
    <path
       id="path174"
       d="m 0,0 c -0.049,-0.78 -0.042,-1.135 -0.113,-1.473 -0.288,-1.369 -0.578,-1.777 -1.518,-1.802 -2.257,-0.06 -4.516,-0.056 -6.774,-0.05 -0.514,0.001 -1.207,0.951 -1.149,1.516 0.09,0.866 0.167,1.735 0.312,2.592 1.061,6.239 0.917,12.483 0.146,18.738 -0.857,6.951 -2.625,13.655 -5.448,20.14 0.437,0.37 0.776,0.884 1.211,0.983 1.179,0.269 2.394,0.436 3.602,0.485 0.43,0.017 1.003,-0.323 1.291,-0.678 0.427,-0.527 0.727,-1.186 0.963,-1.833 C -4.359,30.1 -1.688,21.458 -0.48,12.432 0.053,8.452 0.105,4.444 0,0"
       style="fill:#ffffff;fill-opacity:1;fill-rule:nonzero;stroke:none"
       transform="matrix(1.3333333,0,0,-1.3333333,2231.8376,1063.782)"
       clip-path="url(#clipPath175)" />
    <path
       id="path176"
       d="m 0,0 c -0.387,-0.303 -0.937,-0.527 -0.697,-1.181 0.479,-1.305 0.97,-2.606 1.473,-3.903 2.905,-7.5 5.127,-15.202 6.301,-23.156 0.583,-3.955 0.689,-7.983 0.945,-11.982 0.055,-0.853 -0.074,-1.751 -0.309,-2.575 -0.119,-0.419 -0.62,-0.96 -1.019,-1.026 -1.365,-0.228 -2.76,-0.301 -4.147,-0.373 -1.007,-0.052 -1.568,0.559 -1.554,1.608 0.012,0.871 0.056,1.742 0.079,2.613 0.242,9.144 -1.208,18.059 -3.623,26.844 -1.022,3.714 -2.45,7.256 -4.34,10.619 -0.497,0.886 -1.223,1.722 -1.094,2.867 0.752,0.863 1.903,0.763 2.843,1.174 1.804,0.788 3.012,0.146 3.847,-1.532 0.144,-0.291 0.496,-0.478 1.051,-0.376 C 0.056,-0.042 0,0 0,0"
       style="fill:#ffffff;fill-opacity:1;fill-rule:nonzero;stroke:none"
       transform="matrix(1.3333333,0,0,-1.3333333,2235.6605,1008.7296)"
       clip-path="url(#clipPath177)" />
    <path
       id="path178"
       d="m 0,0 c 0.289,0.433 0.373,0.89 0.194,1.432 -0.234,0.71 -0.128,1.394 0.635,1.742 0.791,0.36 1.603,0.684 2.43,0.95 0.904,0.292 1.68,-0.069 2.204,-0.922 0.182,-0.298 0.394,-0.58 0.55,-0.89 4.965,-9.845 9.214,-19.953 11.317,-30.846 0.763,-3.953 1.188,-7.936 0.846,-11.969 -0.08,-0.938 -0.641,-1.581 -1.558,-1.861 -1.342,-0.409 -2.697,-0.769 -4.107,-0.475 -0.277,0.058 -0.675,0.39 -0.705,0.634 -0.149,1.201 -0.234,2.415 -0.267,3.626 -0.265,9.67 -1.957,19.081 -5.283,28.165 C 4.879,-6.654 3.38,-2.917 0.322,0.131 -0.076,0.071 -0.02,0.029 0,0"
       style="fill:#ffffff;fill-opacity:1;fill-rule:nonzero;stroke:none"
       transform="matrix(1.3333333,0,0,-1.3333333,2235.7624,1008.824)"
       clip-path="url(#clipPath179)" />
    <path
       id="path180"
       d="m 0,0 c -2.181,5.228 -4.793,9.751 -7.853,14.027 -0.262,0.366 -0.4,1.027 -0.261,1.436 0.419,1.227 2.714,1.733 3.483,0.843 0.341,-0.396 0.706,-0.777 1.003,-1.205 C 3.728,4.539 9.11,-6.928 12.185,-19.45 c 0.627,-2.555 0.972,-5.141 0.773,-7.781 -0.087,-1.15 -0.618,-1.987 -1.687,-2.422 -0.969,-0.394 -1.956,-0.744 -2.947,-1.081 -1.333,-0.453 -2.043,0.007 -2.114,1.315 -0.121,2.264 -0.167,4.536 -0.395,6.79 C 5.034,-14.934 2.922,-7.569 0,0"
       style="fill:#ffffff;fill-opacity:1;fill-rule:nonzero;stroke:none"
       transform="matrix(1.3333333,0,0,-1.3333333,2256.6548,1021.9379)"
       clip-path="url(#clipPath181)" />
    <path
       id="path182"
       d="m 0,0 c 5.325,6.517 10.876,12.3 17.088,17.43 2.83,2.338 5.784,4.502 9.048,6.206 0.769,0.402 1.574,0.763 2.401,1.013 0.898,0.271 1.694,-0.026 2.342,-0.738 0.288,-0.317 0.412,-0.608 0.162,-0.908 -0.329,-0.395 -0.66,-0.815 -1.071,-1.11 C 25.263,18.51 21.193,14.441 17.386,10.109 14.968,7.359 12.655,4.513 10.375,1.646 8.093,-1.225 5.986,-4.222 4.399,-7.552 4.028,-8.331 3.646,-9.121 2.569,-9.483 0.438,-8.244 -1.95,-7.189 -3.594,-5.123 -2.752,-3.188 -1.393,-1.806 0,0"
       style="fill:#ffffff;fill-opacity:1;fill-rule:nonzero;stroke:none"
       transform="matrix(1.3333333,0,0,-1.3333333,2039.6759,1011.1173)"
       clip-path="url(#clipPath183)" />
    <path
       id="path184"
       d="m 0,0 c -0.068,0.153 -0.099,0.401 -0.21,0.443 -1.293,0.496 -2.641,1.314 -3.092,1.905 -0.402,0.527 -0.885,0.993 -1.732,1.285 -0.4,-0.2 -0.349,-0.223 -0.337,-0.203 0.321,0.014 0.887,-0.052 0.902,0.012 0.741,3.156 2.593,5.706 4.535,8.168 6.916,8.766 15.445,15.582 25.344,20.702 1.549,0.8 3.139,1.535 5.048,2.096 0.134,0.388 0.102,0.411 0.095,0.434 -0.143,-0.251 -0.458,-0.602 -0.38,-0.784 0.272,-0.635 0.69,-1.207 1.037,-1.812 0.892,-1.555 0.771,-2.068 -0.789,-2.836 C 21.698,25.113 14.22,19.157 7.578,12.128 4.341,8.703 1.269,5.118 -0.292,0.311 -0.045,-0.039 0,0 0,0"
       style="fill:#ffffff;fill-opacity:1;fill-rule:nonzero;stroke:none"
       transform="matrix(1.3333333,0,0,-1.3333333,2025.8491,1008.9441)"
       clip-path="url(#clipPath185)" />
    <path
       id="path186"
       d="m 0,0 c 2.945,-6.205 5.208,-12.233 6.786,-18.529 0.435,-1.733 0.14,-3.11 -0.941,-4.371 -0.674,-0.786 -1.477,-1.47 -2.273,-2.14 -0.211,-0.177 -0.61,-0.13 -1.043,-0.207 -0.659,3.225 -1.174,6.493 -2.019,9.672 -0.851,3.198 -1.908,6.355 -3.101,9.443 -1.193,3.09 -2.553,6.128 -4.046,9.084 -1.494,2.957 -3.087,5.888 -4.924,8.637 -1.823,2.728 -4.004,5.217 -6.007,7.784 0.316,0.38 0.501,0.694 0.767,0.907 1.18,0.943 1.88,0.975 2.777,0.245 1.773,-1.445 3.249,-3.167 4.644,-4.962 2.472,-3.179 4.619,-6.57 6.539,-10.105 C -1.924,3.77 -1.053,2.058 0,0"
       style="fill:#ffffff;fill-opacity:1;fill-rule:nonzero;stroke:none"
       transform="matrix(1.3333333,0,0,-1.3333333,2276.1829,1022.9243)"
       clip-path="url(#clipPath187)" />
    <path
       id="path188"
       d="m 0,0 c 1.911,-0.875 3.496,-1.555 5.161,-2.271 -0.127,-0.568 -0.118,-1.125 -0.363,-1.53 -1.892,-3.132 -3.802,-6.255 -5.774,-9.338 -0.976,-1.526 -2.309,-1.967 -4.074,-1.548 -4.092,0.971 -7.328,3.126 -9.476,6.812 -0.578,0.993 -0.682,1.939 -0.021,2.926 1.941,2.896 3.826,5.831 5.827,8.685 1.138,1.624 1.662,2.461 3.498,0.34 C -3.845,2.484 -2.168,1.223 0,0"
       style="fill:#ffffff;fill-opacity:1;fill-rule:nonzero;stroke:none"
       transform="matrix(1.3333333,0,0,-1.3333333,2548.4732,226.56093)"
       clip-path="url(#clipPath189)" />
    <path
       id="path190"
       d="M 0,0 C 0.574,1.305 0.949,2.283 1.503,3.147 5.035,8.651 12.58,7.179 15.505,2.705 19.005,-2.648 15.565,-9.549 9.73,-10.604 6.268,-11.229 2.16,-9.143 0.65,-5.92 -0.168,-4.173 -0.656,-2.336 0,0"
       style="fill:#ffffff;fill-opacity:1;fill-rule:nonzero;stroke:none"
       transform="matrix(1.3333333,0,0,-1.3333333,2475.7563,451.858)"
       clip-path="url(#clipPath191)" />
    <path
       id="path192"
       d="m 0,0 c 0.292,-0.062 0.768,-0.271 0.905,-0.136 0.741,0.731 1.426,1.526 2.081,2.338 5.851,7.247 12.54,13.618 20.019,19.161 2.953,2.188 6.037,4.177 9.391,5.702 0.618,0.281 1.338,0.455 2.011,0.458 0.458,0.002 0.957,-0.325 1.364,-0.61 0.389,-0.273 0.398,-1.203 0.09,-1.409 -0.435,-0.29 -0.862,-0.598 -1.317,-0.856 C 23.393,18.308 14.523,9.529 7.223,-0.923 6.523,-1.925 5.899,-2.98 5.216,-3.994 4.696,-4.766 3.788,-4.808 2.997,-4.079 2.357,-3.49 1.746,-2.867 1.16,-2.224 0.637,-1.648 0.789,-0.918 0.44,-0.088 0.072,0.051 0.027,0.012 0,0"
       style="fill:#ffffff;fill-opacity:1;fill-rule:nonzero;stroke:none"
       transform="matrix(1.3333333,0,0,-1.3333333,2025.7533,1009.0116)"
       clip-path="url(#clipPath193)" />
    <path
       id="path194"
       d="m 0,0 c -4.269,2.941 -7.094,6.573 -8.885,11.031 -0.662,1.648 -0.933,3.318 -0.571,5.076 0.127,0.616 0.92,1.244 1.493,1.157 1.569,-0.238 3.01,-0.81 4.31,-1.702 C 1.418,12.081 4.612,7.291 6.161,1.372 6.248,1.042 6.22,0.684 6.256,0.34 6.349,-0.558 5.632,-1.421 4.759,-1.368 3.902,-1.316 3.031,-1.255 2.204,-1.045 1.548,-0.878 0.95,-0.481 0,0"
       style="fill:#ffffff;fill-opacity:1;fill-rule:nonzero;stroke:none"
       transform="matrix(1.3333333,0,0,-1.3333333,1904.5951,277.4352)"
       clip-path="url(#clipPath195)" />
    <path
       id="path196"
       d="M 0,0 C -2.009,0.016 -3.584,-0.033 -5.122,0.185 -5.928,0.3 -6.695,0.838 -7.42,1.282 -7.625,1.407 -7.657,1.87 -7.701,2.187 -7.755,2.585 -7.497,2.807 -7.045,2.727 -0.554,1.58 5.33,3.419 10.993,6.368 11.91,6.845 12.84,7.298 13.78,7.729 13.881,7.775 14.153,7.634 14.228,7.509 14.385,7.247 14.635,6.853 14.542,6.664 14.242,6.055 13.8,5.517 13.418,4.948 12.659,3.819 12.821,3.423 14.326,2.759 14.479,2.692 14.689,2.747 14.837,2.674 15.443,2.372 15.715,1.418 15.328,0.933 14.897,0.393 14.52,-0.243 13.973,-0.63 8.786,-4.29 3.005,-5.75 -3.293,-5.06 c -1.015,0.111 -2.002,0.562 -2.975,0.927 -0.293,0.11 -0.576,0.419 -0.719,0.709 -0.135,0.272 -0.191,0.687 -0.076,0.949 0.107,0.246 0.522,0.568 0.736,0.525 5.693,-1.143 11.065,0.067 16.303,2.202 0.791,0.322 1.543,0.816 2.193,1.371 0.326,0.278 0.426,0.862 0.542,1.329 0.063,0.255 -0.937,0.583 -1.328,0.453 C 11.054,3.296 10.716,3.213 10.393,3.09 9.905,2.903 9.417,2.713 8.948,2.487 6.252,1.193 3.354,0.608 0,0"
       style="fill:#ffffff;fill-opacity:1;fill-rule:nonzero;stroke:none"
       transform="matrix(1.3333333,0,0,-1.3333333,2053.8376,175.16013)"
       clip-path="url(#clipPath197)" />
    <path
       id="path198"
       d="m 0,0 c 4.233,-0.774 7.839,-2.033 11.115,-4.144 1.193,-0.769 2.205,-1.7 2.617,-3.139 0.13,-0.456 -0.215,-1.155 -0.674,-1.225 -0.341,-0.052 -0.681,-0.181 -1.019,-0.174 -1.047,0.02 -2.104,0.009 -3.138,0.151 -5.766,0.796 -11.231,2.508 -16.257,5.497 -0.296,0.176 -0.539,0.44 -0.812,0.656 -0.503,0.4 -0.381,1.443 0.146,1.823 1.037,0.748 2.22,1.083 3.444,1.055 C -3.19,0.468 -1.807,0.218 0,0"
       style="fill:#ffffff;fill-opacity:1;fill-rule:nonzero;stroke:none"
       transform="matrix(1.3333333,0,0,-1.3333333,2450.2309,71.762533)"
       clip-path="url(#clipPath199)" />
    <path
       id="path202"
       d="M 0,0 C 0.312,0.113 0.785,0.176 0.895,0.41 1.008,0.652 0.863,1.14 0.661,1.375 0.329,1.76 -0.106,2.09 -0.557,2.333 -1.609,2.899 -2.697,3.4 -3.746,3.915 c 0.3,1.531 1.59,1.862 2.631,2.431 1.341,0.734 2.702,0.6 3.992,-0.162 2.972,-1.756 5.087,-4.271 6.213,-7.518 1.289,-3.718 1.595,-7.484 -10e-4,-11.298 -0.293,0.254 -0.64,0.403 -0.697,0.627 C 8.003,-10.483 7.74,-8.927 7.315,-7.416 6.394,-4.136 4.678,-1.349 1.952,0.757 1.37,1.207 0.691,1.303 -0.014,0.602 -0.004,0.073 0.001,0.025 0,0"
       style="fill:#ffffff;fill-opacity:1;fill-rule:nonzero;stroke:none"
       transform="matrix(1.3333333,0,0,-1.3333333,2028.9579,140.86013)"
       clip-path="url(#clipPath203)" />
    <path
       id="path204"
       d="m 0,0 c 0.559,-4.724 -0.021,-8.786 -2.342,-12.506 -0.384,-0.616 -0.863,-1.076 -1.593,-1.235 -0.619,1.008 -0.16,2.009 0.062,2.993 0.626,2.769 0.61,5.512 -0.04,8.286 -0.734,3.134 -2.096,5.894 -4.398,8.169 -0.617,0.609 -1.255,1.204 -1.797,1.875 -0.164,0.204 -0.069,0.65 -0.019,0.973 0.013,0.086 0.298,0.149 0.466,0.188 2.682,0.616 4.764,-0.524 6.568,-2.332 C -1.447,4.762 -0.481,2.734 0,0"
       style="fill:#ffffff;fill-opacity:1;fill-rule:nonzero;stroke:none"
       transform="matrix(1.3333333,0,0,-1.3333333,2050.0364,141.19707)"
       clip-path="url(#clipPath205)" />
    <path
       id="path206"
       d="m 0,0 c 0.035,0.344 -0.008,0.719 0.115,1.028 2.391,5.989 2.227,11.834 -0.924,17.531 -0.059,0.106 0.023,0.332 0.105,0.461 0.074,0.118 0.266,0.28 0.357,0.253 2.57,-0.754 4.633,-2.31 6.444,-4.214 C 6.417,14.723 6.627,14.1 6.588,13.635 6.455,12.088 6.354,10.505 5.936,9.021 4.99,5.664 3.611,2.486 0.842,-0.266 0.385,-0.33 0,0 0,0"
       style="fill:#ffffff;fill-opacity:1;fill-rule:nonzero;stroke:none"
       transform="matrix(1.3333333,0,0,-1.3333333,2051.0899,157.128)"
       clip-path="url(#clipPath207)" />
    <path
       id="path208"
       d="M 0,0 C 0.316,-0.07 0.697,-0.285 0.937,-0.18 1.544,0.087 2.056,-0.136 2.272,-0.567 2.811,-1.645 3.223,-2.789 3.649,-3.92 3.932,-4.672 3.5,-5.254 3.076,-5.813 2.972,-5.949 2.836,-6.068 2.695,-6.168 c -5.42,-3.859 -11.295,-6.146 -18.09,-5.176 -0.151,0.021 -0.242,0.467 -0.36,0.714 6.872,0.956 12.642,3.699 15.996,10.33 C 0.011,0.038 0,0 0,0"
       style="fill:#ffffff;fill-opacity:1;fill-rule:nonzero;stroke:none"
       transform="matrix(1.3333333,0,0,-1.3333333,2066.7072,153.17133)"
       clip-path="url(#clipPath209)" />
    <path
       id="path210"
       d="m 0,0 c -1.516,1.201 -2.732,2.176 -3.909,3.197 -0.553,0.479 -0.862,1.721 -0.52,1.848 0.624,0.23 1.34,0.546 1.945,0.434 C 0.666,4.898 3.455,3.571 5.582,1.085 5.917,0.692 6.271,0.26 6.425,-0.215 6.573,-0.672 6.653,-1.325 6.428,-1.678 6.225,-1.996 5.54,-2.215 5.118,-2.151 3.377,-1.885 1.823,-1.087 0,0"
       style="fill:#ffffff;fill-opacity:1;fill-rule:nonzero;stroke:none"
       transform="matrix(1.3333333,0,0,-1.3333333,2548.5201,222.0896)"
       clip-path="url(#clipPath211)" />
    <path
       id="path212"
       d="m 0,0 c -0.191,0.364 -0.23,1.231 -0.873,0.695 -1.571,-1.31 -3.001,-2.787 -4.541,-4.136 -0.342,-0.299 -0.897,-0.366 -1.366,-0.492 -0.062,-0.016 -0.243,0.241 -0.292,0.396 -0.044,0.139 -0.032,0.34 0.04,0.465 1.79,3.146 3.27,6.422 4.227,9.925 0.037,0.138 0.252,0.329 0.376,0.323 C -2.113,7.159 -1.692,7.149 -1.508,6.953 -0.399,5.766 0.259,4.439 -0.34,2.741 -0.621,1.944 -0.765,1.097 -0.501,0.116 -0.031,-0.042 -0.02,-0.004 0,0"
       style="fill:#ffffff;fill-opacity:1;fill-rule:nonzero;stroke:none"
       transform="matrix(1.3333333,0,0,-1.3333333,2066.7484,153.11547)"
       clip-path="url(#clipPath213)" />
    <path
       id="path214"
       d="m 0,0 c -0.012,-0.42 -0.176,-0.722 -0.427,-0.907 -0.195,-0.143 -0.498,-0.139 -0.753,-0.2 -0.039,0.296 -0.106,0.594 -0.103,0.89 10e-4,0.146 0.133,0.29 0.456,0.575 C -0.575,0.497 -0.19,0.168 0,0"
       style="fill:#ffffff;fill-opacity:1;fill-rule:nonzero;stroke:none"
       transform="matrix(1.3333333,0,0,-1.3333333,2051.8571,157.79107)"
       clip-path="url(#clipPath215)" />
    <path
       id="path216"
       d="M 0,0 C -0.156,-0.339 -0.416,-0.422 -0.708,-0.153 -0.784,-0.083 -0.734,0.122 -0.743,0.266 -0.602,0.252 -0.461,0.239 -0.192,0.06 -0.064,-0.104 -0.02,-0.035 0,0"
       style="fill:#ffffff;fill-opacity:1;fill-rule:nonzero;stroke:none"
       transform="matrix(1.3333333,0,0,-1.3333333,2135.3855,735.85587)"
       clip-path="url(#clipPath217)" />
    <path
       id="path218"
       d="M 0,0 C 0.136,0.253 0.437,0.46 0.703,0.421 1.129,0.359 1.181,0.046 0.675,-0.37 0.459,-0.455 0.149,-0.156 0,0"
       style="fill:#ffffff;fill-opacity:1;fill-rule:nonzero;stroke:none"
       transform="matrix(1.3333333,0,0,-1.3333333,1930.4883,393.0412)"
       clip-path="url(#clipPath219)" />
    <path
       id="path220"
       d="m 0,0 c 0.698,-3.893 1.654,-7.254 3.194,-10.402 6.586,-13.465 17.415,-20.473 32.377,-21.09 1.917,-0.079 3.841,0.028 5.757,-0.046 2.104,-0.081 3.295,-2.31 2.288,-4.207 -0.502,-0.947 -1.215,-1.685 -2.243,-2.093 -1.309,-0.52 -2.659,-0.774 -4.061,-0.928 -7.089,-0.779 -13.554,-3.265 -19.285,-7.496 -8.49,-6.269 -13.813,-14.637 -16.108,-24.932 -0.532,-2.387 -0.912,-4.788 -1.054,-7.242 -0.09,-1.548 -0.515,-3.082 -0.862,-4.605 -0.055,-0.242 -0.474,-0.515 -0.758,-0.559 -0.293,-0.046 -0.771,0.073 -0.916,0.289 -0.476,0.709 -1.022,1.453 -1.208,2.26 -0.509,2.207 -0.829,4.457 -1.257,6.683 -1.998,10.38 -6.405,19.524 -14.029,26.962 -6.627,6.465 -14.55,10.089 -23.847,10.599 -1.387,0.077 -2.78,0.229 -4.141,0.495 -0.431,0.084 -0.797,0.626 -1.138,1.008 -0.269,0.3 -0.002,1.235 0.344,1.347 0.483,0.156 0.961,0.37 1.458,0.441 5.918,0.846 11.561,2.596 16.971,5.116 5.274,2.457 9.988,5.713 14.014,9.932 6.934,7.265 10.595,15.881 10.674,25.965 0.005,0.697 -0.091,1.397 -0.058,2.091 0.024,0.514 0.168,1.023 0.28,1.53 0.142,0.649 0.784,1.261 1.406,1.332 0.717,0.081 1.704,-0.724 1.796,-1.567 0.093,-0.862 0.199,-1.744 0.118,-2.6 C -0.535,5.656 -0.356,3.052 0,0"
       style="fill:#ffffff;fill-opacity:1;fill-rule:nonzero;stroke:none"
       transform="matrix(1.3333333,0,0,-1.3333333,2059.6743,476.052)"
       clip-path="url(#clipPath221)" />
    <path
       id="path222"
       d="m 0,0 c 6.187,-1.087 12.377,-2.161 18.562,-3.264 10.823,-1.931 21.641,-3.886 32.463,-5.819 11.337,-2.026 22.676,-4.043 34.016,-6.052 2.059,-0.364 4.123,-0.719 6.197,-0.97 0.431,-0.052 0.962,0.319 1.367,0.607 0.262,0.186 0.386,0.571 0.561,0.874 4.303,7.418 10.717,11.763 19.149,13.202 0.83,0.141 1.743,0.172 2.457,1.032 0.099,0.369 0.275,0.859 0.361,1.365 0.266,1.549 0.502,3.102 0.742,4.655 0.877,5.693 1.661,11.402 2.645,17.077 2.178,12.553 4.458,25.089 6.69,37.633 0.153,0.86 0.262,1.73 -0.283,2.656 -0.642,0.389 -1.404,0.812 -2.126,1.295 -5.82,3.893 -9.499,9.149 -10.297,16.231 -0.02,0.173 -0.04,0.347 -0.052,0.521 -0.141,1.945 -0.829,2.52 -2.49,2.796 -6.886,1.142 -13.779,2.239 -20.667,3.375 -9.814,1.618 -19.624,3.26 -29.437,4.884 -7.232,1.196 -14.465,2.378 -21.697,3.57 -9.298,1.533 -18.598,3.058 -27.893,4.609 -9.467,1.579 -18.936,3.149 -28.392,4.792 -9.111,1.582 -18.206,3.259 -27.313,4.868 -0.655,0.115 -1.348,0.015 -1.908,0.015 -0.348,-0.395 -0.609,-0.636 -0.805,-0.921 -3.9,-5.666 -9.228,-9.423 -15.636,-11.757 -0.633,-0.231 -1.208,-0.621 -1.829,-0.946 -0.285,-1.303 -0.585,-2.48 -0.796,-3.673 -1.645,-9.28 -3.255,-18.567 -4.909,-27.845 -1.838,-10.309 -3.731,-20.609 -5.546,-30.922 -0.236,-1.345 -0.721,-2.716 -0.186,-4.352 3.243,-2.081 6.123,-4.829 8.643,-7.988 2.659,-3.333 4.067,-7.258 5.333,-11.073 0.551,-0.207 0.867,-0.391 1.204,-0.442 5.522,-0.829 11.054,-1.593 16.569,-2.469 7.41,-1.179 14.809,-2.429 22.21,-3.67 C -15.693,2.654 -8.297,1.388 0,0 m -46.285,4.678 c -6.241,1.323 -12.046,2.557 -17.848,3.803 -0.499,0.107 -0.98,0.295 -1.623,0.493 -0.227,0.599 -0.48,1.232 -0.707,1.875 -1.475,4.171 -3.814,7.839 -6.577,11.254 -1.554,1.921 -3.364,3.524 -5.648,4.575 -0.861,0.396 -1.197,1.265 -1.059,2.203 0.734,5.011 1.462,10.023 2.256,15.025 1.56,9.831 3.158,19.657 4.748,29.484 1.117,6.896 2.232,13.793 3.384,20.683 0.228,1.367 0.623,2.706 0.904,3.897 1.272,1.358 2.848,1.698 4.275,2.309 2.415,1.035 4.756,2.195 6.883,3.757 2.553,1.874 4.888,3.952 6.549,6.7 0.359,0.594 0.737,1.224 1.256,1.658 0.506,0.423 1.179,0.744 1.827,0.876 0.665,0.136 1.397,0.058 2.082,-0.046 7.425,-1.122 14.851,-2.236 22.266,-3.414 7.415,-1.179 14.82,-2.422 22.227,-3.647 7.407,-1.224 14.813,-2.46 22.219,-3.691 7.406,-1.231 14.814,-2.457 22.219,-3.695 9.471,-1.583 18.941,-3.179 28.412,-4.762 7.234,-1.209 14.47,-2.397 21.703,-3.609 6.371,-1.068 12.74,-2.156 19.109,-3.24 0.343,-0.058 0.688,-0.135 1.015,-0.251 0.871,-0.308 1.523,-0.854 1.674,-1.814 0.109,-0.688 0.082,-1.4 0.219,-2.08 1.412,-7.035 4.727,-12.715 11.434,-15.961 0.314,-0.152 0.616,-0.332 0.913,-0.515 0.979,-0.603 1.485,-1.498 1.35,-2.631 -0.269,-2.254 -0.576,-4.505 -0.94,-6.745 -1.99,-12.239 -3.956,-24.482 -6.026,-36.708 -1.137,-6.714 -2.459,-13.396 -3.711,-20.091 -0.193,-1.029 -0.394,-2.065 -0.711,-3.059 -0.39,-1.225 -1.149,-2.215 -2.519,-2.379 -8.575,-1.025 -14.848,-5.785 -19.801,-12.463 -1.578,-2.127 -3.223,-2.881 -5.764,-2.403 -5.489,1.034 -11.01,1.901 -16.512,2.874 -10.659,1.887 -21.314,3.801 -31.971,5.702 -10.657,1.9 -21.32,3.771 -31.97,5.706 -10.479,1.903 -20.948,3.858 -31.417,5.816 -7.207,1.348 -14.406,2.741 -21.61,4.108 -0.687,0.13 -1.382,0.214 -2.51,0.406"
       style="fill:#ffffff;fill-opacity:1;fill-rule:nonzero;stroke:none"
       transform="matrix(1.3333333,0,0,-1.3333333,2089.58,1276.1829)"
       clip-path="url(#clipPath223)" />
    <path
       id="path224"
       d="m 0,0 c 0.144,0.5 0.317,0.993 0.427,1.5 0.546,2.521 -0.443,4.398 -2.494,5.799 -1.598,1.091 -3.401,1.73 -5.261,2.163 -2.363,0.551 -4.751,0.999 -7.133,1.468 -0.875,0.172 -1.754,-0.456 -1.877,-1.324 -0.411,-2.919 -0.816,-5.84 -1.195,-8.764 -0.066,-0.507 0,-1.032 0.012,-1.549 0.014,-0.606 0.448,-1.035 0.902,-1.148 3.885,-0.963 7.809,-1.628 11.842,-1.339 C -2.931,-3.062 -1.426,-2.384 0,0 m -1.467,-11.017 c -1.001,1.762 -2.722,2.618 -4.412,3.519 -3.433,1.83 -7.253,2.279 -10.972,3.085 -0.62,0.134 -1.482,-0.419 -1.59,-1.022 -0.646,-3.589 -1.297,-7.177 -1.918,-10.77 -0.117,-0.671 -0.105,-1.365 -0.148,-1.984 0.392,-0.265 0.657,-0.581 0.965,-0.631 3.427,-0.557 6.852,-1.137 10.297,-1.564 1.18,-0.146 2.428,0.021 3.617,0.216 2.496,0.41 4.29,2.276 4.836,4.831 0.263,1.228 0.133,2.415 -0.675,4.32 m -14.222,-11.037 c -4.56,0.837 -8.663,1.619 -12.764,2.408 -0.165,0.032 -0.311,0.15 -0.474,0.203 -0.491,0.161 -0.925,0.89 -0.665,1.176 0.217,0.24 0.515,0.585 0.772,0.58 1.388,-0.025 2.775,-0.149 4.163,-0.23 1.005,-0.059 1.523,0.387 1.718,1.502 0.601,3.432 1.169,6.869 1.793,10.297 1.028,5.652 2.089,11.298 3.176,17.163 -0.475,0.293 -1.006,0.749 -1.621,0.973 -1.301,0.474 -2.655,0.798 -3.964,1.251 -0.25,0.087 -0.455,0.462 -0.566,0.749 -0.151,0.389 0.089,0.61 0.559,0.628 0.346,0.013 0.695,0.095 1.037,0.071 0.868,-0.061 1.747,-0.094 2.597,-0.261 4.956,-0.97 9.899,-2.011 14.86,-2.954 C -2.569,11.027 -0.535,9.867 1.199,8.016 3.326,5.745 3.797,3.145 2.93,0.27 2.315,-1.773 1.209,-3.527 -0.594,-4.779 c -0.518,-0.359 -1.274,-0.486 -1.465,-1.464 0.388,-0.444 0.865,-0.935 1.278,-1.476 0.631,-0.827 1.335,-1.628 1.802,-2.545 1.958,-3.85 0.844,-8.549 -2.6,-11.228 -1.121,-0.872 -2.384,-1.531 -3.814,-1.544 -2.083,-0.018 -4.174,0.061 -6.251,0.23 -1.207,0.099 -2.392,0.456 -4.045,0.752"
       style="fill:#ffffff;fill-opacity:1;fill-rule:nonzero;stroke:none"
       transform="matrix(1.3333333,0,0,-1.3333333,2076.1841,1194.7463)"
       clip-path="url(#clipPath225)" />
    <path
       id="path226"
       d="m 0,0 c 7.804,-0.631 15.178,-2.051 22.557,-3.441 0.508,-0.095 1.024,-0.242 1.481,-0.474 0.278,-0.141 0.593,-0.465 0.646,-0.752 0.348,-1.892 0.52,-3.801 -0.056,-5.678 -0.072,-0.236 -0.517,-0.486 -0.795,-0.492 -0.275,-0.006 -0.772,0.256 -0.801,0.455 -0.15,1.02 -0.173,2.058 -0.254,3.089 -0.056,0.713 -0.568,1.333 -1.263,1.468 -4.454,0.871 -8.908,1.741 -13.369,2.578 -0.944,0.177 -1.794,-0.444 -1.909,-1.336 -0.47,-3.636 -0.923,-7.274 -1.366,-10.913 -0.078,-0.642 0.549,-1.421 1.178,-1.509 3.113,-0.436 6.236,-0.81 9.337,-1.315 1.825,-0.296 3.01,0.254 3.634,2.03 0.061,0.172 0.588,0.213 0.905,0.241 0.078,0.007 0.246,-0.267 0.263,-0.423 0.054,-0.511 0.135,-1.038 0.067,-1.54 -0.258,-1.903 -0.563,-3.801 -0.871,-5.698 -0.055,-0.337 -0.216,-0.657 -0.317,-0.988 -0.112,-0.362 -0.967,-0.961 -1.189,-0.785 -0.253,0.201 -0.536,0.473 -0.613,0.765 -0.261,0.982 0.263,2.116 -0.74,3.165 -0.817,0.182 -1.826,0.413 -2.839,0.63 -5.957,1.278 -8.986,1.688 -9.197,1.139 -1.068,-2.784 -1.406,-5.734 -1.848,-8.659 -0.208,-1.38 -0.488,-2.749 -0.711,-4.126 -0.115,-0.714 0.339,-1.338 1.074,-1.552 0.503,-0.147 0.997,-0.35 1.509,-0.428 4.145,-0.624 8.293,-1.223 12.439,-1.835 0.945,-0.14 1.728,0.17 2.315,0.889 0.773,0.946 1.465,1.959 2.245,2.899 0.436,0.526 0.981,0.962 1.492,1.453 0.167,-0.242 0.358,-0.395 0.339,-0.513 -0.079,-0.492 -0.123,-1.027 -0.355,-1.45 -3.703,-6.752 -2.756,-6.765 -10.297,-5.297 -5.997,1.168 -11.998,2.317 -17.99,3.507 -0.475,0.095 -0.908,0.435 -1.333,0.703 -0.08,0.051 -0.063,0.309 -0.036,0.461 0.027,0.146 0.124,0.397 0.194,0.399 0.692,0.016 1.398,0.075 2.073,-0.038 2.752,-0.46 3.455,-0.159 3.914,2.66 1.458,8.965 3.07,17.9 5.15,26.746 0.173,0.738 -0.184,1.454 -0.855,1.687 -1.31,0.454 -2.64,0.853 -3.946,1.317 C -0.49,-0.836 -0.523,-0.469 0,0"
       style="fill:#ffffff;fill-opacity:1;fill-rule:nonzero;stroke:none"
       transform="matrix(1.3333333,0,0,-1.3333333,2093.7233,1183.1332)"
       clip-path="url(#clipPath227)" />
    <path
       id="path228"
       d="M 0,0 C 0.467,2.647 0.877,4.878 1.306,7.106 1.447,7.843 1.89,8.328 2.799,8.524 2.832,7.638 2.944,6.771 2.878,5.917 2.759,4.372 3.47,3.278 4.509,2.244 c 1.89,-1.881 4.016,-3.37 6.587,-4.122 2.236,-0.653 4.473,-0.67 6.654,0.302 3.603,1.607 4.717,6.215 2.173,9.215 -0.785,0.924 -1.694,1.76 -2.63,2.535 -1.613,1.335 -3.334,2.542 -4.933,3.894 -1.73,1.464 -3.429,2.975 -5.038,4.57 -1.844,1.828 -2.507,4.107 -2.299,6.702 0.2,2.482 1.423,4.299 3.473,5.536 2.867,1.729 5.969,2.012 9.055,0.751 2.077,-0.848 4.012,-2.042 6.206,-3.182 0.227,0.111 0.687,0.328 1.138,0.562 0.614,0.32 1.051,0.208 1.066,-0.281 0.09,-2.99 -0.575,-5.873 -1.285,-8.743 -0.063,-0.255 -0.497,-0.459 -0.798,-0.603 -0.329,-0.158 -1.071,0.543 -1.027,0.958 0.183,1.723 0.38,3.445 0.579,5.229 -2.324,2.613 -5.263,3.995 -8.612,4.559 -1.993,0.336 -3.805,-0.296 -5.441,-1.42 -2.017,-1.385 -2.746,-4.434 -1.469,-6.538 0.625,-1.03 1.401,-2.027 2.302,-2.818 2.622,-2.303 5.346,-4.489 8.021,-6.732 1.068,-0.896 2.196,-1.741 3.156,-2.744 C 26.666,4.363 23.42,-3.456 16.9,-4.731 13.265,-5.442 9.969,-4.63 6.872,-2.802 5.678,-2.097 4.613,-1.176 3.484,-0.359 3.148,-0.116 2.492,-0.421 2.292,-0.925 2.042,-1.554 2.04,-2.278 1.416,-2.754 1.041,-3.04 0.236,-2.943 0.148,-2.465 0.024,-1.793 0.011,-1.101 0,0"
       style="fill:#ffffff;fill-opacity:1;fill-rule:nonzero;stroke:none"
       transform="matrix(1.3333333,0,0,-1.3333333,2129.6435,1235.0212)"
       clip-path="url(#clipPath229)" />
    <path
       id="path230"
       d="m 0,0 c 6.129,-0.989 11.812,-1.895 17.498,-2.785 1.552,-0.243 3.1,-0.479 4.67,-1.314 0.689,-2.145 0.224,-4.357 -0.167,-6.565 -0.024,-0.139 -0.193,-0.271 -0.323,-0.368 -0.131,-0.097 -0.329,-0.237 -0.441,-0.198 -0.29,0.103 -0.725,0.245 -0.785,0.459 -0.133,0.48 -0.131,1.02 -0.081,1.524 0.1,1.022 0.269,2.036 0.408,3.04 -0.617,0.305 -1.06,0.656 -1.552,0.746 -3.084,0.563 -6.177,1.078 -9.271,1.584 C 9.251,-3.762 8.651,-4.261 8.486,-5.025 8.302,-5.878 8.115,-6.731 7.972,-7.591 6.592,-15.849 5.219,-24.109 3.855,-32.37 c -0.056,-0.339 -0.007,-0.695 -0.007,-1.173 0.328,-0.231 0.702,-0.653 1.159,-0.787 1.336,-0.393 2.71,-0.653 4.057,-1.009 0.319,-0.085 0.672,-0.285 0.864,-0.541 0.175,-0.235 0.188,-0.616 0.203,-0.936 0.006,-0.146 -0.121,-0.384 -0.246,-0.434 -0.473,-0.188 -0.982,-0.48 -1.455,-0.443 -4.534,0.353 -8.986,1.148 -13.287,2.67 -0.151,0.054 -0.259,0.229 -0.487,0.44 0.452,0.247 0.854,0.637 1.281,0.667 1.213,0.085 2.437,0.009 3.657,0.027 0.705,0.01 1.38,0.55 1.503,1.207 0.607,3.257 1.172,6.522 1.801,9.775 1.159,5.992 2.356,11.977 3.53,17.967 0.184,0.937 -0.353,1.8 -1.245,1.958 -2.918,0.515 -5.838,1.014 -8.762,1.495 -0.712,0.117 -1.267,-0.34 -1.515,-1.103 -0.374,-1.149 -0.739,-2.303 -1.18,-3.427 -0.046,-0.118 -0.586,-0.086 -0.884,-0.041 -0.129,0.02 -0.316,0.246 -0.323,0.385 -0.099,2.168 0.659,4.069 1.807,5.828 C -3.889,0.727 -2.169,0.268 0,0"
       style="fill:#ffffff;fill-opacity:1;fill-rule:nonzero;stroke:none"
       transform="matrix(1.3333333,0,0,-1.3333333,2182.3855,1198.1449)"
       clip-path="url(#clipPath231)" />
  </g>
</svg>
