<?xml version="1.0" encoding="UTF-8" standalone="no"?>
<!-- Created with Inkscape (http://www.inkscape.org/) -->

<svg
   version="1.1"
   id="svg1"
   width="1440"
   height="1440"
   viewBox="0 0 1440 1440"
   xmlns="http://www.w3.org/2000/svg"
   xmlns:svg="http://www.w3.org/2000/svg">
  <defs
     id="defs1">
    <clipPath
       clipPathUnits="userSpaceOnUse"
       id="clipPath725">
      <path
         d="M 0,1080 H 1080 V 0 H 0 Z"
         transform="translate(-243.17851,-491.23441)"
         id="path725" />
    </clipPath>
    <clipPath
       clipPathUnits="userSpaceOnUse"
       id="clipPath727">
      <path
         d="M 0,1080 H 1080 V 0 H 0 Z"
         transform="translate(-621.25127,-382.59311)"
         id="path727" />
    </clipPath>
    <clipPath
       clipPathUnits="userSpaceOnUse"
       id="clipPath729">
      <path
         d="M 0,1080 H 1080 V 0 H 0 Z"
         transform="translate(-494.76676,-857.28112)"
         id="path729" />
    </clipPath>
    <clipPath
       clipPathUnits="userSpaceOnUse"
       id="clipPath731">
      <path
         d="M 0,1080 H 1080 V 0 H 0 Z"
         transform="translate(-227.47801,-654.61682)"
         id="path731" />
    </clipPath>
    <clipPath
       clipPathUnits="userSpaceOnUse"
       id="clipPath733">
      <path
         d="M 0,1080 H 1080 V 0 H 0 Z"
         transform="translate(-352.56826,-752.82092)"
         id="path733" />
    </clipPath>
    <clipPath
       clipPathUnits="userSpaceOnUse"
       id="clipPath735">
      <path
         d="M 0,1080 H 1080 V 0 H 0 Z"
         transform="translate(-457.46626,-749.44912)"
         id="path735" />
    </clipPath>
    <clipPath
       clipPathUnits="userSpaceOnUse"
       id="clipPath737">
      <path
         d="M 0,1080 H 1080 V 0 H 0 Z"
         transform="translate(-558.77776,-523.22392)"
         id="path737" />
    </clipPath>
  </defs>
  <g
     id="layer-MC1"
     transform="translate(-14600)">
    <path
       id="path724"
       d="m 0,0 -0.296,0.137 c 0,0 0.083,-0.371 0.296,-0.137 m -128.697,-44.237 c -0.501,-0.05 -1.012,-0.056 -1.503,-0.159 -1.03,-0.218 -1.484,-0.897 -1.154,-1.785 2.403,-6.455 4.822,-12.904 7.246,-19.351 0.234,-0.623 0.518,-1.228 0.809,-1.826 0.057,-0.117 0.28,-0.262 0.376,-0.232 0.292,0.093 0.744,0.205 0.81,0.414 0.924,2.873 1.899,5.737 2.65,8.657 0.961,3.74 1.749,7.526 2.57,11.3 0.14,0.643 0.077,1.33 0.101,1.997 0.013,0.35 -0.578,1.012 -0.945,1.013 -3.36,0.012 -6.72,0.011 -10.96,-0.028 m -46.03,23.608 c 0.333,-0.054 0.665,-0.142 0.999,-0.155 0.557,-0.021 1.141,0.38 1.106,0.728 -0.067,0.671 -0.089,1.352 -0.231,2.007 -0.681,3.139 -1.421,6.265 -2.089,9.406 -0.351,1.652 -0.574,3.33 -0.901,4.988 -0.196,0.989 -0.479,1.961 -0.724,2.94 -0.1,0.396 -0.869,0.645 -1.262,0.42 -3.839,-2.194 -7.196,-5.041 -10.578,-7.848 -1.691,-1.403 -3.305,-2.899 -4.942,-4.365 -0.114,-0.102 -0.136,-0.305 -0.273,-0.636 1.035,-1.422 2.875,-1.399 4.322,-2.077 1.372,-0.643 2.855,-1.047 4.282,-1.573 1.586,-0.585 3.165,-1.187 4.745,-1.787 1.581,-0.6 3.159,-1.206 5.546,-2.048 M 54.377,-73.817 c -2.539,7.383 -5.738,14.478 -9.391,21.371 -0.551,1.04 -1.234,2.011 -1.851,3.016 -0.213,0.348 -0.489,0.387 -0.885,0.322 -0.367,-0.061 -0.637,-0.202 -0.579,-0.632 0.223,-1.669 0.401,-3.352 0.754,-4.996 1.28,-5.969 2.29,-11.978 2.714,-18.07 0.123,-1.755 0.614,-3.275 1.659,-4.696 4.422,-6.019 8.346,-12.347 11.604,-19.078 0.147,-0.303 0.359,-0.573 0.537,-0.861 0.266,-0.43 1.08,-0.748 1.28,-0.477 0.181,0.245 0.437,0.564 0.404,0.815 -0.223,1.677 -0.418,3.367 -0.802,5.011 -1.39,5.939 -3.075,11.795 -5.444,18.275 m 171.655,29.167 c 0.638,0.997 1.269,1.998 1.915,2.99 3.237,4.973 6.795,9.689 11.09,13.816 0.608,0.584 1.171,1.218 1.719,1.86 0.213,0.25 0.333,0.582 0.482,0.884 0.295,0.6 -0.004,1.831 -0.566,2.312 -0.54,0.462 -1.195,0.748 -1.861,0.483 -0.773,-0.307 -1.596,-0.662 -2.187,-1.219 -2.088,-1.969 -4.233,-3.908 -6.094,-6.082 -11.168,-13.048 -18.799,-28.006 -23.716,-44.402 -1.414,-4.714 -2.211,-9.542 -2.647,-14.438 -0.288,-3.23 -0.065,-6.422 0.66,-9.575 0.109,-0.473 0.442,-0.896 0.685,-1.335 0.195,-0.352 1.028,-0.617 1.344,-0.386 0.258,0.189 0.626,0.392 0.689,0.651 0.198,0.812 0.285,1.652 0.397,2.483 0.448,3.349 0.696,6.738 1.365,10.041 2.981,14.728 8.666,28.406 16.725,41.917 M -79.766,-160.273 c 1.579,-2.795 3.155,-5.591 4.739,-8.383 0.333,-0.588 0.684,-1.165 1.046,-1.735 0.498,-0.785 1.399,-0.874 2.133,-0.192 5.233,4.869 9.616,10.412 13.144,16.629 0.08,0.142 0.086,0.325 0.148,0.573 -0.263,0.353 -0.479,0.876 -0.869,1.124 -1.567,0.995 -3.172,1.937 -4.794,2.842 -7.255,4.049 -14.81,7.375 -22.906,9.369 -0.648,0.159 -1.331,0.186 -1.999,0.261 -0.458,0.051 -0.989,-0.578 -0.815,-0.968 0.408,-0.921 0.784,-1.861 1.255,-2.75 2.849,-5.373 5.72,-10.733 8.918,-16.77 m -100.191,117.995 c 2.909,5.334 5.818,10.668 8.661,15.88 -0.29,0.862 -0.739,1.305 -1.41,1.58 -7.352,3.014 -14.699,6.042 -22.051,9.057 -0.308,0.126 -0.658,0.147 -0.986,0.226 -0.563,0.134 -1.355,-0.566 -1.302,-1.196 0.127,-1.516 0.224,-3.039 0.437,-4.544 0.876,-6.194 1.713,-12.395 2.713,-18.57 1.027,-6.34 2.228,-12.652 3.358,-18.976 0.029,-0.161 0.091,-0.357 0.206,-0.455 0.24,-0.202 0.513,-0.382 0.802,-0.499 0.085,-0.034 0.328,0.143 0.399,0.276 2.938,5.52 5.865,11.046 9.173,17.221 m 1.411,-5.463 c -2.313,-4.507 -4.634,-9.011 -6.934,-13.525 -0.458,-0.9 -0.846,-1.837 -1.252,-2.763 -0.163,-0.371 0.157,-1.158 0.516,-1.301 0.626,-0.25 1.243,-0.535 1.888,-0.725 9.389,-2.764 18.782,-5.516 28.174,-8.267 0.16,-0.047 0.336,-0.104 0.495,-0.082 0.314,0.044 0.694,0.054 0.911,0.238 0.203,0.173 0.372,0.588 0.31,0.835 -0.203,0.812 -0.498,1.604 -0.793,2.39 -2.13,5.691 -4.304,11.367 -6.396,17.072 -2.559,6.973 -4.991,13.99 -7.09,21.119 -0.223,0.759 -0.419,1.592 -1.404,1.99 -1.629,-2.569 -2.616,-5.461 -4.009,-8.146 -1.399,-2.698 -2.716,-5.439 -4.416,-8.835 m 6.819,-63.98 c -0.17,-0.291 -0.383,-0.565 -0.501,-0.876 -0.331,-0.869 -0.108,-1.5 0.542,-1.586 2.176,-0.291 4.346,-0.661 6.532,-0.833 8.763,-0.691 17.474,-1.806 26.18,-2.99 0.977,-0.132 1.986,-0.018 2.925,-0.018 0.417,1.224 -0.076,2.121 -0.481,3.05 -4.596,10.53 -9.18,21.065 -13.781,31.593 -0.198,0.454 -0.507,0.864 -0.797,1.271 -0.249,0.352 -0.6,0.42 -0.84,0.133 -0.645,-0.77 -1.305,-1.537 -1.856,-2.373 -5.857,-8.894 -11.695,-17.802 -17.923,-27.371 m 25.1,129.229 c -0.17,-0.469 -0.489,-0.939 -0.481,-1.405 0.025,-1.514 0.047,-3.046 0.292,-4.535 0.604,-3.658 1.293,-7.304 2.031,-10.937 0.23,-1.129 0.717,-1.902 2.613,-1.511 6.782,1.4 13.666,2.018 20.565,2.459 1.682,0.108 3.372,0.067 5.059,0.098 0.841,0.015 2.025,-0.069 2.229,0.771 0.566,2.322 -0.189,4.674 -0.269,7.022 -0.139,4.062 -0.973,8.028 -2.052,11.936 -0.357,1.295 -0.865,2.551 -1.347,3.809 -0.292,0.761 -1.165,1.181 -2.075,1.081 -3.365,-0.369 -6.588,-1.395 -9.874,-2.13 -2.479,-0.554 -4.877,-1.332 -7.2,-2.339 -2.938,-1.274 -5.854,-2.598 -9.491,-4.319 m 52.404,-144.398 c 1.897,2.802 3.528,5.755 4.953,8.818 3.283,7.053 5.823,14.377 7.892,21.868 0.086,0.315 0.129,0.674 0.065,0.987 -0.062,0.303 -0.22,0.729 -0.454,0.831 -1.072,0.468 -2.164,0.921 -3.289,1.236 -6.997,1.96 -14.117,3.309 -21.345,4.029 -2.006,0.2 -4.045,0.092 -6.068,0.087 -0.826,-0.002 -1.383,-0.98 -1.081,-1.841 0.222,-0.635 0.463,-1.265 0.732,-1.881 1.082,-2.473 2.144,-4.956 3.276,-7.406 3.821,-8.269 7.649,-16.535 11.53,-24.776 0.562,-1.193 0.921,-2.571 2.215,-3.401 0.37,0.275 0.76,0.565 1.574,1.449 m -90.499,42.631 c 2.172,-8.332 4.447,-16.636 7.064,-24.842 0.103,-0.322 0.144,-0.678 0.311,-0.959 0.158,-0.265 0.413,-0.561 0.685,-0.641 0.259,-0.077 0.697,0.009 0.877,0.196 0.463,0.483 0.845,1.048 1.228,1.602 1.825,2.641 3.632,5.295 5.459,7.934 4.522,6.527 9.053,13.048 13.577,19.573 0.472,0.68 1.057,1.322 0.825,2.435 -1.157,0.436 -2.404,0.938 -3.672,1.377 -8.931,3.096 -17.867,6.178 -26.801,9.266 -0.638,0.22 -1.265,0.471 -1.906,0.681 -0.657,0.215 -1.457,-0.405 -1.312,-1.024 1.157,-4.929 2.326,-9.856 3.665,-15.598 m 103.907,-136.048 c -0.89,1.393 -1.52,2.974 -2.786,4.114 -1.155,-0.463 -1.558,-1.439 -2.097,-2.277 -5.857,-9.105 -11.707,-18.214 -17.556,-27.324 -0.365,-0.568 -0.71,-1.15 -1.046,-1.736 -0.309,-0.541 0.152,-1.543 0.726,-1.571 1.35,-0.064 2.701,-0.112 4.051,-0.156 6.087,-0.198 12.178,-0.331 18.261,-0.606 6.248,-0.282 12.488,-0.709 18.734,-1.035 0.235,-0.013 0.596,0.313 0.705,0.564 0.113,0.258 0.081,0.668 -0.053,0.925 -0.31,0.597 -0.704,1.153 -1.09,1.707 -6.094,8.748 -11.853,17.715 -17.849,27.395 m -63.108,86.087 c 1.685,2.535 3.373,5.068 5.052,7.607 2.374,3.589 2.327,3.677 -2.209,4.225 -0.671,0.082 -1.35,0.118 -2.015,0.232 -8.99,1.548 -18.037,2.757 -26.97,4.637 -1.15,0.242 -2.348,0.259 -3.525,0.365 -0.404,0.037 -0.992,-0.608 -0.906,-0.982 0.187,-0.816 0.331,-1.647 0.596,-2.437 3.978,-11.864 8.46,-23.537 13.38,-35.041 0.198,-0.461 0.378,-0.951 0.679,-1.34 0.169,-0.218 0.571,-0.256 1.036,-0.444 4.823,7.497 9.664,15.023 14.882,23.178 m 21.263,-9.885 c -2.945,6.1 -5.889,12.2 -8.834,18.3 -0.147,0.305 -0.289,0.612 -0.442,0.915 -0.342,0.681 -0.83,1.019 -1.136,0.789 -0.258,-0.194 -0.596,-0.344 -0.749,-0.602 -1.988,-3.35 -3.917,-6.736 -5.925,-10.074 -4.19,-6.967 -8.427,-13.906 -12.622,-20.871 -0.607,-1.006 -1.121,-2.073 -1.594,-3.149 -0.083,-0.188 0.18,-0.721 0.399,-0.811 0.455,-0.187 0.986,-0.214 1.49,-0.252 5.741,-0.427 11.49,-0.773 17.224,-1.285 4.889,-0.437 9.76,-1.08 14.643,-1.593 1.683,-0.177 3.378,-0.247 5.07,-0.334 0.325,-0.017 0.718,0.026 0.968,0.201 0.22,0.155 0.444,0.575 0.385,0.804 -0.166,0.645 -0.438,1.273 -0.739,1.871 -2.592,5.141 -5.2,10.274 -8.138,16.091 m 21.883,-91.227 c 4.071,6.007 8.149,12.01 12.205,18.027 0.442,0.655 1.093,1.278 0.752,2.351 -1.687,0.639 -3.533,0.773 -5.38,0.906 -2.188,0.158 -4.381,0.27 -6.561,0.504 -4.36,0.468 -8.705,1.082 -13.069,1.495 -5.712,0.539 -11.406,1.187 -17.073,2.079 -0.498,0.079 -1.008,0.085 -1.513,0.112 -0.166,0.009 -0.333,-0.03 -0.5,-0.03 -0.414,0.002 -0.918,-0.707 -0.724,-1.059 0.814,-1.476 1.617,-2.958 2.469,-4.411 5.899,-10.048 12.297,-19.775 18.915,-29.359 0.645,-0.933 1.107,-2.089 2.555,-2.501 2.841,3.483 4.948,7.535 7.924,11.886 m -17.424,48.996 c -2.121,-3.259 -4.245,-6.517 -6.362,-9.78 -2.209,-3.403 -4.416,-6.808 -6.613,-10.219 -0.441,-0.683 -0.149,-1.448 0.548,-1.494 4.216,-0.281 8.431,-0.567 12.648,-0.829 7.255,-0.451 14.513,-0.875 21.768,-1.338 1.178,-0.075 2.344,-0.327 3.522,-0.43 1.676,-0.147 3.355,-0.469 5.018,-0.101 0.374,0.696 0.172,1.3 -0.176,1.903 -2.199,3.806 -4.428,7.595 -6.575,11.43 -3.881,6.933 -7.71,13.896 -11.564,20.844 -0.655,1.18 -1.317,2.356 -2,3.52 -0.366,0.625 -1.199,0.591 -1.642,-0.053 -0.383,-0.556 -0.754,-1.121 -1.115,-1.691 -2.351,-3.715 -4.698,-7.432 -7.457,-11.762 m 28.235,-86.809 c 11.84,-14.373 11.84,-14.373 14.651,-16.693 0.889,0.35 1.152,1.157 1.487,1.939 3.867,9.007 7.676,18.039 11.647,26.999 2.722,6.14 2.454,5.148 -3.58,5.972 -1.504,0.205 -3.037,0.184 -4.555,0.292 -6.069,0.432 -12.145,0.799 -18.205,1.337 -4.709,0.418 -9.398,1.07 -14.1,1.583 -0.827,0.091 -1.671,0.013 -2.49,0.013 -0.083,-0.401 -0.306,-0.808 -0.186,-1.014 0.681,-1.16 1.375,-2.325 2.191,-3.391 4.217,-5.502 8.472,-10.975 13.14,-17.037 m -40.883,75.002 c 5.931,8.846 11.865,17.69 17.79,26.539 0.468,0.699 0.913,1.42 1.288,2.171 0.131,0.264 0.021,0.648 0.021,1.09 -0.67,0.137 -1.313,0.314 -1.969,0.396 -7.71,0.968 -15.43,1.858 -23.131,2.897 -6.023,0.813 -12.022,1.805 -18.032,2.714 -0.333,0.051 -0.67,0.072 -1.004,0.119 -0.784,0.108 -1.438,-0.526 -1.177,-1.173 0.442,-1.096 0.885,-2.194 1.376,-3.269 5.196,-11.381 10.799,-22.559 16.805,-33.534 0.729,-1.333 1.518,-2.633 2.297,-3.937 0.374,-0.627 1.291,-0.694 1.685,-0.113 1.231,1.819 2.437,3.654 4.051,6.1 m 16.526,172.577 c 0.909,7.065 0.696,14.164 0.629,21.257 -0.015,1.586 -0.546,2.145 -2.077,2.249 -1.852,0.125 -3.714,0.303 -5.564,0.24 -5.57,-0.188 -11.14,-0.431 -16.703,-0.766 -1.67,-0.101 -3.323,-0.547 -4.969,-0.903 -0.229,-0.05 -0.561,-0.522 -0.527,-0.751 0.224,-1.499 0.471,-3.001 0.829,-4.473 2.358,-9.68 5.263,-19.203 8.322,-28.68 0.414,-1.282 0.95,-2.527 1.453,-3.779 0.27,-0.673 0.904,-1.084 1.557,-1.04 0.841,0.056 1.689,0.083 2.519,0.219 3.668,0.6 7.338,1.129 11.068,1.17 1.472,0.015 1.941,0.584 2.173,2.23 0.567,4.014 1.106,8.031 1.29,13.027 M 56.38,-163.416 c -0.633,1.383 -1.268,2.765 -1.898,4.15 -3.301,7.248 -7.314,14.099 -11.609,20.792 -0.273,0.425 -0.595,0.82 -0.923,1.206 -0.101,0.118 -0.332,0.251 -0.441,0.211 -0.273,-0.103 -0.669,-0.252 -0.736,-0.468 -0.393,-1.287 -0.726,-2.593 -1.045,-3.901 -2.284,-9.365 -4.969,-18.612 -8.402,-27.624 -0.681,-1.789 -0.526,-3.217 0.622,-4.698 0.93,-1.2 1.731,-2.503 2.551,-3.784 4.666,-7.282 8.698,-14.881 11.505,-23.09 0.162,-0.475 0.318,-0.973 0.595,-1.38 0.156,-0.23 0.544,-0.327 0.848,-0.416 0.088,-0.025 0.273,0.167 0.364,0.295 0.193,0.272 0.378,0.556 0.523,0.856 4.573,9.468 7.952,19.37 10.688,29.504 0.229,0.848 0.121,1.676 -0.204,2.479 -0.698,1.722 -1.405,3.441 -2.438,5.868 M 5.68,-19.94 c 1.323,-5.081 2.214,-10.248 2.781,-15.456 0.629,-5.775 0.448,-4.933 4.732,-8.257 8.975,-6.962 17.456,-14.452 24.909,-23.057 0.442,-0.511 0.887,-1.027 1.392,-1.471 0.227,-0.199 0.621,-0.332 0.908,-0.289 0.156,0.023 0.38,0.494 0.349,0.734 -0.278,2.179 -0.552,4.361 -0.929,6.524 -1.718,9.85 -4.217,19.484 -8.001,28.763 -0.582,1.428 -1.347,2.723 -2.295,3.923 C 21.84,-18.794 13.171,-10.039 3.443,-2.343 2.791,-1.827 2.035,-1.427 1.285,-1.057 1.079,-0.956 0.705,-1.125 0.442,-1.245 0.328,-1.296 0.215,-1.559 0.247,-1.69 0.484,-2.663 0.68,-3.658 1.035,-4.59 2.846,-9.335 4.369,-14.165 5.68,-19.94 m 58.556,-107.086 c -0.122,2.538 -0.185,5.081 -0.394,7.612 -0.082,0.986 -0.311,2.049 -0.795,2.892 -0.858,1.493 -1.328,3.095 -1.86,4.701 -3.212,9.711 -7.767,18.765 -13.446,27.26 -0.256,0.384 -0.693,0.658 -1.079,0.936 -0.091,0.065 -0.319,-0.062 -0.583,-0.123 -0.035,-0.639 -0.113,-1.307 -0.104,-1.973 0.175,-12.569 -0.834,-25.05 -2.794,-37.459 -0.291,-1.839 -0.574,-3.68 -0.915,-5.51 -0.233,-1.247 -0.026,-2.351 0.781,-3.338 0.106,-0.13 0.182,-0.285 0.278,-0.425 6.215,-9.123 11.648,-18.682 16.091,-28.795 0.131,-0.298 0.328,-0.617 0.584,-0.797 0.246,-0.172 0.611,-0.175 1.072,-0.289 2.15,11.349 3.321,22.771 3.164,35.308 M -79.428,20.997 c -0.646,1.747 -1.207,3.532 -1.957,5.233 -1.639,3.721 -1.612,3.702 -5.638,3.782 -4.582,0.091 -9.132,-0.396 -13.696,-0.672 -4.071,-0.246 -8.075,-0.927 -12.103,-1.448 -1.143,-0.148 -2.241,-0.649 -3.481,-1.024 0.298,-0.796 0.484,-1.435 0.767,-2.028 2.058,-4.321 3.208,-8.911 3.998,-13.599 0.449,-2.67 0.749,-5.365 1.178,-8.039 0.073,-0.453 0.415,-1.191 0.71,-1.232 3.009,-0.414 6.035,-0.711 9.057,-1.04 0.168,-0.018 0.337,-0.026 0.507,-0.036 6.776,-0.404 13.45,-1.53 20.1,-2.831 1.162,-0.228 2.34,-0.383 3.515,-0.531 1.148,-0.144 1.811,0.567 1.689,1.848 -0.144,1.516 -0.28,3.04 -0.548,4.538 -0.984,5.503 -2.27,10.939 -4.098,17.079 M 31.579,-229.387 c 3.538,4.76 6.814,9.694 9.803,14.817 0.852,1.461 1.673,2.941 2.464,4.437 0.402,0.762 0.536,1.594 0.309,2.458 -0.171,0.655 -0.282,1.328 -0.486,1.972 -3.2,10.081 -7.989,19.379 -13.896,28.122 -0.623,0.921 -1.446,0.836 -1.882,-0.198 -4.817,-11.415 -10.613,-22.306 -17.478,-32.624 -0.27,-0.406 -0.408,-0.899 -0.677,-1.512 0.402,-0.679 0.825,-1.395 1.249,-2.11 1.64,-2.766 3.337,-5.499 4.907,-8.304 2.483,-4.436 4.633,-9.033 6.3,-13.846 0.22,-0.636 0.515,-1.247 0.785,-1.866 0.16,-0.365 0.963,-0.409 1.324,-0.079 2.642,2.413 4.606,5.394 7.278,8.733 M -42.845,12.944 c -1.206,3.335 -2.444,6.657 -4.119,9.794 -0.414,0.776 -1.008,1.333 -1.87,1.586 -0.809,0.237 -1.599,0.55 -2.418,0.735 -4.279,0.967 -8.535,2.075 -12.856,2.801 -4.32,0.725 -8.663,1.47 -13.075,1.462 -0.495,-10e-4 -1.019,-0.07 -1.472,-0.251 -0.219,-0.088 -0.481,-0.556 -0.422,-0.769 0.218,-0.798 0.494,-1.595 0.868,-2.331 2.072,-4.08 3.748,-8.306 4.869,-12.748 1.075,-4.258 2.007,-8.543 2.58,-12.903 0.153,-1.164 0.4,-2.327 0.737,-3.45 0.126,-0.424 0.565,-0.879 0.976,-1.065 0.762,-0.344 1.603,-0.52 2.42,-0.732 9.487,-2.466 18.765,-5.56 27.861,-9.211 0.461,-0.186 0.967,-0.265 1.453,-0.388 0.398,-0.101 1.172,0.391 1.137,0.746 -0.148,1.507 -0.203,3.034 -0.498,4.512 -1.454,7.293 -3.378,14.462 -6.171,22.212 m 10.771,-26.668 c 0.098,-0.497 0.206,-0.994 0.293,-1.493 0.252,-1.451 1.005,-2.448 2.429,-2.982 1.105,-0.415 2.156,-0.977 3.224,-1.487 9.326,-4.452 18.328,-9.479 26.963,-15.159 0.987,-0.649 1.996,-1.267 3.031,-1.835 0.253,-0.138 0.733,-0.139 0.953,0.017 0.209,0.149 0.333,0.6 0.293,0.892 -1.485,11.087 -3.821,21.982 -7.453,32.579 -0.604,1.759 -1.226,3.512 -1.87,5.256 -0.419,1.137 -1.092,2.092 -2.16,2.732 -0.435,0.26 -0.839,0.571 -1.264,0.848 -10.394,6.775 -21.449,12.204 -33.17,16.272 -0.795,0.276 -1.621,0.47 -2.44,0.672 -0.126,0.031 -0.389,-0.07 -0.423,-0.169 -0.097,-0.273 -0.232,-0.635 -0.129,-0.859 0.495,-1.074 1.054,-2.12 1.608,-3.166 1.586,-2.994 2.91,-6.098 4.089,-9.277 2.657,-7.158 4.519,-14.521 6.026,-22.841 M 89.821,-75.915 c 3.957,-0.934 7.851,-2.084 11.664,-3.495 4.612,-1.706 9.157,-3.567 13.242,-6.363 4.481,-3.068 8.803,-6.334 12.51,-10.343 0.689,-0.746 1.417,-1.46 2.158,-2.155 5.468,-5.131 12.006,-8.19 19.283,-9.65 2.637,-0.53 5.374,-0.577 8.07,-0.791 2.195,-0.175 4.403,-0.205 6.594,-0.414 4.411,-0.421 8.697,-1.325 12.633,-3.502 1.312,-0.726 2.688,-1.337 3.997,-1.982 0.934,0.382 1.744,0.644 2.489,1.029 3.611,1.865 7.22,3.733 10.797,5.662 1.785,0.962 3.502,2.053 5.244,3.095 0.38,0.227 0.47,1.1 0.147,1.338 -0.677,0.499 -1.333,1.038 -2.054,1.466 -3.971,2.357 -8.378,3.668 -12.751,4.938 -2.897,0.841 -5.991,1.396 -9.05,0.853 -3.689,-0.657 -7.419,-0.678 -11.128,-1.018 -6.585,-0.604 -12.803,0.638 -18.709,3.583 -3.34,1.664 -6.576,3.489 -9.654,5.61 -4.051,2.791 -8.268,5.346 -12.789,7.282 -7.314,3.131 -14.666,6.186 -22.208,8.739 -7.069,2.392 -14.3,4.133 -21.686,5.213 -1.924,0.281 -3.687,-0.196 -5.33,-1.193 -0.488,-0.297 -0.773,-1.261 -0.559,-1.805 0.395,-1.002 1.116,-1.727 2.06,-2.144 1.08,-0.476 2.208,-0.878 3.352,-1.164 3.611,-0.902 7.241,-1.734 11.678,-2.789 m -76.583,-26.83 c -0.87,0.806 -1.737,1.616 -2.613,2.416 -0.375,0.342 -0.763,0.671 -1.154,0.995 -0.758,0.63 -1.727,0.29 -1.888,-0.664 -0.591,-3.505 -1.166,-7.013 -1.771,-10.516 -1.442,-8.351 -3.494,-16.56 -5.771,-24.716 -0.091,-0.326 -0.209,-0.644 -0.307,-0.968 -0.215,-0.71 -0.026,-1.357 0.445,-1.877 0.566,-0.626 1.201,-1.192 1.821,-1.768 8.574,-7.974 16.695,-16.368 23.889,-25.63 0.402,-0.518 0.946,-0.925 1.403,-1.363 0.263,0.184 0.453,0.252 0.531,0.385 0.335,0.573 0.718,1.136 0.941,1.755 3.498,9.731 6.275,19.664 8.525,29.76 0.868,3.897 0.516,3.729 -1.422,6.488 -0.487,0.693 -1.013,1.358 -1.53,2.029 -6.311,8.208 -13.192,15.908 -21.099,23.674 m -84.099,-72.971 c 3.272,-5.534 6.465,-11.117 9.839,-16.588 3.553,-5.762 7.263,-11.428 10.948,-17.107 0.535,-0.825 1.313,-1.491 1.953,-2.202 2.296,0.882 3.765,2.565 5.356,4.063 7.709,7.257 13.826,15.759 19.245,24.797 0.256,0.426 0.434,0.92 0.536,1.407 0.063,0.298 0.008,0.705 -0.16,0.951 -0.376,0.552 -0.808,1.086 -1.3,1.537 -1.873,1.715 -3.765,3.41 -5.674,5.085 -6.753,5.925 -13.845,11.413 -21.288,16.445 -0.7,0.473 -1.423,0.913 -2.146,1.35 -0.563,0.339 -1.509,0.209 -1.856,-0.261 -0.501,-0.68 -0.988,-1.37 -1.46,-2.07 -3.701,-5.496 -7.818,-10.637 -12.751,-15.095 -0.489,-0.442 -0.84,-1.038 -1.242,-2.312 m -10.405,130.847 c 1.147,-0.287 2.29,-0.59 3.442,-0.855 0.987,-0.227 1.983,-0.42 2.978,-0.609 0.622,-0.119 1.441,0.417 1.515,1.007 0.126,1.001 0.277,2.005 0.31,3.012 0.276,8.457 0.327,16.916 -0.034,25.37 -0.115,2.698 -0.474,5.388 -0.76,8.077 -0.128,1.207 -0.714,1.872 -1.848,2.102 -3.312,0.672 -6.623,1.347 -9.949,1.943 -5.993,1.076 -12.053,1.657 -18.103,2.292 -1.673,0.176 -3.373,0.105 -5.061,0.124 -0.626,0.007 -1.233,-0.685 -1.226,-1.35 0.037,-3.211 0.18,-6.424 0.093,-9.631 -0.111,-4.056 -0.378,-8.11 -0.636,-12.161 -0.13,-2.022 -0.399,-4.036 -0.591,-6.054 -0.224,-2.358 -0.47,-4.714 -0.634,-7.075 -0.091,-1.311 0.234,-2.074 2.103,-2.15 1.353,-0.054 2.705,-0.091 4.057,-0.16 1.351,-0.07 2.711,-0.091 4.049,-0.269 6.532,-0.869 13.066,-1.739 20.295,-3.613 m 13.752,36.179 c -0.498,-0.024 -1.103,0.115 -1.463,-0.12 -0.334,-0.218 -0.586,-0.846 -0.562,-1.277 0.11,-2.027 0.432,-4.046 0.49,-6.073 0.288,-9.994 0.562,-19.99 -0.377,-29.969 -0.016,-0.168 0,-0.338 -0.008,-0.507 -0.034,-0.753 0.322,-1.34 0.944,-1.661 0.746,-0.385 1.556,-0.652 2.352,-0.929 9.607,-3.351 18.958,-7.299 27.987,-11.997 0.901,-0.469 1.809,-0.927 2.723,-1.369 0.303,-0.146 0.631,-0.246 0.957,-0.333 0.378,-0.102 1.035,0.349 1.042,0.818 0.085,5.589 0.193,11.177 0.283,16.766 0.121,7.47 -0.653,14.889 -1.322,22.313 -0.046,0.505 -0.136,1.007 -0.229,1.506 -0.198,1.066 -0.746,1.872 -1.772,2.304 -0.623,0.262 -1.251,0.515 -1.875,0.776 -9.228,3.867 -18.721,6.946 -29.17,9.752 M 17.62,-161.486 c -4.754,5.737 -9.989,11.022 -15.326,16.207 -0.965,0.937 -2.031,1.77 -3.059,2.64 -0.29,0.246 -1.221,0.086 -1.357,-0.222 -0.272,-0.613 -0.565,-1.221 -0.782,-1.855 -3.902,-11.367 -8.528,-22.421 -14.171,-33.041 -0.314,-0.59 -0.662,-1.181 -0.215,-2.289 0.54,-0.557 1.348,-1.413 2.18,-2.244 7.43,-7.418 14.362,-15.266 20.559,-23.751 0.298,-0.409 0.649,-0.778 0.977,-1.164 0.272,-0.318 1.101,-0.333 1.353,-0.029 0.214,0.258 0.462,0.495 0.643,0.774 6.746,10.38 12.274,21.389 16.969,32.83 0.425,1.036 0.293,1.971 -0.394,2.841 -2.302,2.919 -4.605,5.837 -7.377,9.303 m -45.626,-33.699 c -0.919,-1.216 -1.822,-2.445 -2.763,-3.644 -0.94,-1.2 -1.899,-2.387 -2.886,-3.549 -0.878,-1.032 -1.787,-2.039 -2.718,-3.024 -1.047,-1.107 -2.117,-2.196 -3.21,-3.259 -1.092,-1.063 -2.261,-2.049 -3.328,-3.135 -1.037,-1.054 -2.565,-1.649 -3.163,-3.303 0.322,-0.559 0.606,-1.167 0.99,-1.703 3.453,-4.819 6.888,-9.651 10.4,-14.427 2.208,-3.001 4.509,-5.935 6.834,-8.847 0.61,-0.763 1.463,-1.331 2.157,-1.947 0.639,0.303 1.126,0.477 1.55,0.749 0.854,0.547 1.686,1.133 2.507,1.73 9.976,7.248 18.16,16.23 25.312,26.205 0.806,1.124 0.826,1.756 0.097,2.77 -6.842,9.514 -14.479,18.343 -22.896,26.497 -0.465,0.451 -1.309,0.267 -1.723,-0.359 -2.238,-3.393 -4.473,-6.788 -7.16,-10.754 m 26.779,105.307 c -6.035,4.91 -12.262,9.561 -18.774,13.822 -2.262,1.481 -4.553,2.917 -6.85,4.344 -0.566,0.353 -1.2,0.597 -1.808,0.882 -0.399,0.187 -1.125,-0.186 -1.176,-0.61 -0.582,-4.863 -1.024,-9.746 -1.768,-14.584 -1.154,-7.511 -2.511,-14.991 -4.486,-22.342 -0.13,-0.483 -0.223,-1.015 -0.158,-1.5 0.062,-0.464 0.241,-1.015 0.566,-1.317 0.611,-0.568 1.348,-1.008 2.058,-1.461 9.711,-6.177 18.98,-12.957 27.802,-20.349 0.388,-0.325 0.791,-0.634 1.194,-0.94 0.551,-0.418 1.437,-0.139 1.625,0.52 3.208,11.222 5.597,22.624 7.235,34.172 0.669,4.716 0.809,4.136 -2.959,7.248 -0.652,0.538 -1.292,1.09 -2.501,2.115 m -70.714,20.051 c -1.09,-6.502 -2.222,-12.996 -3.834,-19.396 -0.123,-0.489 -0.154,-1.002 -0.219,-1.505 -0.08,-0.618 0.356,-1.473 0.889,-1.683 0.628,-0.248 1.27,-0.461 1.906,-0.687 9.423,-3.343 18.473,-7.514 27.25,-12.288 1.04,-0.566 2.063,-1.162 3.1,-1.732 0.444,-0.243 0.902,-0.46 1.356,-0.682 0.394,-0.193 1.06,0.105 1.247,0.529 1.037,2.347 1.306,4.894 1.862,7.359 1.715,7.592 2.813,15.295 3.795,23.009 0.382,3.001 0.725,6.035 0.44,8.984 -3.774,2.841 -11.403,6.705 -20.863,10.595 -8.774,3.609 -11.15,4.413 -14.501,4.87 -1.225,-5.424 -1.313,-11.025 -2.428,-17.373 m 112.935,-41.825 c 0.075,1.012 0.109,2.028 0.231,3.034 1.207,9.943 0.864,19.915 0.619,29.887 -0.044,1.783 -0.679,3.216 -1.814,4.586 -8.34,10.074 -17.734,19.041 -28.1,27 -0.394,0.302 -0.86,0.558 -1.333,0.684 -0.223,0.06 -0.773,-0.224 -0.781,-0.375 -0.066,-1.175 -0.133,-2.365 -0.018,-3.533 0.382,-3.876 0.487,-7.758 0.502,-11.649 0.036,-9.308 -0.535,-18.58 -1.554,-27.828 -0.074,-0.672 -0.128,-1.347 -0.15,-2.022 -0.028,-0.889 0.29,-1.639 0.97,-2.236 0.635,-0.558 1.248,-1.14 1.873,-1.709 5.004,-4.557 9.767,-9.35 14.288,-14.389 3.841,-4.281 7.569,-8.651 11.051,-13.23 0.502,-0.66 0.945,-1.42 2.082,-1.507 0.277,0.915 0.688,1.849 0.831,2.822 0.465,3.176 0.832,6.366 1.303,10.465 m -72.719,-55.438 c 3.058,-2.671 6.11,-5.348 9.179,-8.006 0.504,-0.437 1.054,-0.841 1.64,-1.154 0.213,-0.113 0.724,-0.02 0.871,0.163 0.52,0.65 1.001,1.347 1.391,2.082 2.938,5.533 5.416,11.278 7.759,17.082 2.153,5.333 4.014,10.771 5.778,16.243 0.348,1.081 0.148,1.987 -0.733,2.725 -0.13,0.108 -0.241,0.238 -0.368,0.349 -9.319,8.147 -19.259,15.453 -29.78,21.969 -0.28,0.173 -0.631,0.327 -0.945,0.321 -0.299,-0.006 -0.776,-0.161 -0.862,-0.375 -0.563,-1.405 -1.081,-2.83 -1.538,-4.273 -3.224,-10.179 -7.136,-20.071 -12.233,-29.473 -0.318,-0.586 -0.573,-1.207 -0.82,-1.731 0.109,-0.278 0.156,-0.443 0.237,-0.591 0.079,-0.145 0.166,-0.309 0.295,-0.4 3.038,-2.145 6.125,-4.222 9.112,-6.434 3.533,-2.617 6.98,-5.351 11.017,-8.497 m 30.611,129.225 c -7.797,5.09 -15.897,9.643 -24.279,13.694 -1.062,0.513 -2.154,0.968 -3.246,1.418 -0.865,0.356 -1.721,-0.244 -1.669,-1.18 0.112,-2.026 0.132,-4.069 0.423,-6.07 0.562,-3.864 0.747,-7.747 0.764,-11.635 0.029,-6.765 -0.048,-13.53 -0.071,-20.294 -0.004,-1.34 0.038,-2.679 0.059,-4.012 1.128,-0.718 2.106,-1.377 3.118,-1.979 8.59,-5.103 16.776,-10.793 24.634,-16.958 1.729,-1.357 3.413,-2.772 5.164,-4.099 0.346,-0.262 0.907,-0.241 1.561,-0.396 0.261,2.646 0.771,5.124 0.906,7.663 0.617,11.664 0.725,23.328 0.057,34.994 -0.049,0.843 -0.116,1.687 -0.208,2.527 -0.097,0.875 -0.48,1.644 -1.187,2.158 -1.778,1.291 -3.593,2.529 -6.026,4.169 m -53.183,-67.429 c -1.218,0.59 -2.432,1.186 -3.654,1.768 -5.346,2.548 -10.789,4.864 -16.369,6.853 -0.478,0.17 -0.945,0.372 -1.426,0.531 -0.876,0.29 -1.743,-0.125 -2.015,-0.975 -1.031,-3.22 -1.992,-6.464 -3.085,-9.663 -2.965,-8.68 -6.644,-17.013 -12.15,-24.435 -0.199,-0.269 -0.367,-0.573 -0.491,-0.884 -0.124,-0.309 -0.296,-0.674 -0.234,-0.969 0.246,-1.164 0.63,-2.333 1.548,-3.113 0.465,-0.395 1.232,-0.518 1.882,-0.597 5.569,-0.676 10.976,-1.999 16.197,-4.043 4.73,-1.852 9.293,-4.069 13.764,-6.478 1.04,-0.561 2.096,-1.093 3.158,-1.613 0.552,-0.271 1.398,0.024 1.739,0.618 0.674,1.171 1.355,2.34 1.962,3.546 5.034,10.007 8.857,20.472 11.753,31.283 0.078,0.292 -0.079,0.646 -0.128,0.971 -0.22,0.25 -0.395,0.584 -0.669,0.736 -3.698,2.048 -7.41,4.07 -11.782,6.464 m -49.717,18.569 c 4.593,-0.011 9.101,-0.743 13.58,-1.665 2.815,-0.579 5.608,-1.264 8.408,-1.914 1.536,-0.357 2.09,-0.031 2.541,1.543 0.094,0.326 0.211,0.646 0.28,0.976 0.72,3.48 1.475,6.952 2.137,10.443 1.23,6.487 2.053,13.038 2.85,19.588 0.244,2.006 0.244,4.047 0.245,6.072 0.001,0.399 -0.42,0.985 -0.796,1.159 -0.915,0.422 -1.907,0.692 -2.886,0.953 -10.165,2.708 -20.507,4.387 -30.98,5.27 -3.923,0.331 -4.113,0.127 -4.844,-3.942 -0.06,-0.333 -0.079,-0.674 -0.145,-1.006 -1.245,-6.314 -2.761,-12.553 -4.897,-18.638 -0.723,-2.059 -1.88,-3.98 -2.085,-6.214 0.809,-2.043 1.607,-4.091 2.432,-6.128 0.571,-1.412 1.155,-2.82 1.783,-4.208 0.343,-0.757 0.789,-1.468 1.327,-2.453 3.338,0.041 6.71,0.259 11.05,0.164 M 316.71,68.673 c -2.019,0.219 -4.044,0.667 -6.056,0.616 -7.425,-0.187 -13.916,-2.786 -19.105,-8.182 -7.465,-7.762 -9.484,-16.947 -6.627,-27.223 1.812,-6.514 6.002,-11.275 11.572,-14.919 9.542,-6.242 22.948,-5.997 32.489,2.572 4.432,3.981 7.299,8.867 8.572,14.664 0.687,3.126 1.211,6.201 0.613,9.517 -1.293,7.183 -4.648,12.994 -10.302,17.535 -3.084,2.477 -6.568,4.156 -11.156,5.42 m 234.058,24.455 c -7.456,0.115 -14.889,-0.042 -22.332,-0.736 -6.585,-0.614 -13.131,-1.46 -19.632,-2.584 -9.678,-1.672 -19.223,-3.975 -28.619,-6.857 -12.979,-3.98 -25.578,-8.912 -37.547,-15.355 -3.427,-1.844 -6.727,-3.925 -10.054,-5.948 -0.543,-0.33 -0.927,-0.921 -1.415,-1.423 0.92,-1.985 2.07,-3.645 3.306,-5.251 0.4,-0.521 1.2,-0.637 1.835,-0.277 0.442,0.249 0.876,0.512 1.308,0.778 5.346,3.301 10.987,6.011 16.79,8.401 12.579,5.182 25.664,8.581 39.007,11.053 5.326,0.987 10.687,1.74 16.071,2.384 6.398,0.766 12.815,1.204 19.24,1.507 7.624,0.36 15.236,0.008 22.84,-0.705 7.433,-0.697 14.787,-1.752 21.96,-3.886 1.132,-0.336 2.284,-0.605 3.425,-0.911 0.389,-0.104 1.068,0.432 1.035,0.821 -0.058,0.675 -0.094,1.354 -0.204,2.021 -0.669,4.073 -0.587,8.097 0.663,12.067 0.089,0.282 -0.087,0.647 -0.158,1.091 -1.947,0.358 -3.959,0.629 -5.92,1.106 -6.78,1.649 -13.697,2.181 -21.599,2.704 M 104.341,-177.138 c 1.439,2.094 2.84,4.214 4.326,6.275 2.276,3.156 4.447,6.409 6.954,9.375 4.914,5.814 9.946,11.501 15.753,16.517 6.94,5.994 14.196,11.509 21.865,16.505 0.992,0.646 2.007,1.27 3.059,1.809 5.573,2.855 11.162,5.677 16.742,8.518 0.737,0.376 1.538,0.682 1.977,1.538 -0.366,0.322 -0.694,0.745 -1.126,0.968 -2.582,1.333 -5.332,2.061 -8.216,2.477 -4.71,0.679 -9.457,0.56 -14.18,0.906 -0.876,0.065 -1.661,-0.156 -2.385,-0.665 -5.544,-3.901 -10.933,-7.998 -16.056,-12.445 -12.968,-11.255 -24.598,-23.769 -35.012,-37.404 -7.31,-9.571 -13.916,-19.61 -19.373,-30.371 -2.606,-5.139 -4.97,-10.382 -6.619,-15.921 -0.919,-3.089 -1.736,-6.197 -1.693,-9.458 0.005,-0.338 0.039,-0.675 0.06,-1.013 0.022,-0.377 0.712,-0.902 1.089,-0.874 1.792,0.131 3.179,1.066 4.446,2.23 3.264,2.996 6.011,6.429 8.441,10.119 1.491,2.261 2.918,4.564 4.397,6.834 5.082,7.799 10.655,15.281 15.551,24.08 M 8.024,-254.635 c 3.68,3.009 6.969,6.432 10.384,9.725 1.422,1.372 1.652,2.849 1.131,4.598 -0.289,0.973 -0.579,1.948 -0.914,2.906 -2.595,7.401 -6.316,14.225 -10.656,20.729 -0.428,0.642 -1.256,0.752 -1.696,0.225 -1.192,-1.431 -2.382,-2.865 -3.541,-4.322 -6.469,-8.133 -13.748,-15.432 -22.196,-21.515 -4.707,-3.39 -4.494,-2.464 -0.772,-6.969 0.431,-0.522 0.876,-1.036 1.345,-1.525 3.515,-3.67 7.042,-7.328 10.555,-11.001 0.685,-0.716 1.579,-1.307 1.629,-2.52 -0.308,-0.336 -0.64,-0.714 -0.991,-1.075 -0.235,-0.242 -0.512,-0.444 -0.74,-0.691 -0.342,-0.372 -0.328,-1.005 0.067,-1.357 1.642,-1.461 3.301,-2.904 4.955,-4.351 0.382,-0.334 0.776,-0.656 1.158,-0.991 0.722,-0.637 0.602,-1.535 -0.33,-2.052 -5.923,-3.289 -11.859,-6.557 -17.783,-9.844 -1.008,-0.559 -1.925,-0.48 -2.817,0.22 -3.065,2.405 -6.124,4.818 -9.204,7.203 -0.544,0.422 -1.212,0.601 -1.911,0.401 -0.487,-0.139 -0.966,-0.308 -1.441,-0.485 -0.475,-0.177 -0.931,-0.412 -1.413,-0.564 -0.877,-0.277 -1.677,-0.089 -2.33,0.561 -3.731,3.711 -7.07,7.765 -10.339,11.877 -1.792,2.255 -3.54,4.545 -5.318,6.81 -0.823,1.049 -1.597,0.876 -2.158,-0.47 -0.13,-0.312 -0.231,-0.636 -0.357,-0.951 -3.458,-8.647 -6.92,-17.294 -10.375,-25.943 -0.25,-0.625 -0.465,-1.265 -0.683,-1.903 -0.15,-0.439 0.307,-1.11 0.733,-1.105 0.337,0.005 0.682,-0.051 1.01,0.004 8.224,1.372 16.162,3.689 23.73,7.222 1.367,0.638 2.597,1.611 4.145,1.745 0.189,-0.08 0.379,-0.109 0.494,-0.218 3.808,-3.629 8.155,-6.597 12.174,-9.963 2.663,-2.23 5.142,-2.637 8.284,-0.741 8.41,5.074 16.967,9.905 25.461,14.84 0.285,0.166 0.521,0.416 0.781,0.626 0.322,0.259 0.465,1.072 0.229,1.406 -0.289,0.41 -0.53,0.886 -0.905,1.196 -2.088,1.728 -4.227,3.393 -6.312,5.123 -1.297,1.076 -2.546,2.212 -3.768,3.373 -0.164,0.157 -0.173,0.72 -0.022,0.919 0.401,0.526 0.894,1 1.413,1.416 2.907,2.332 5.832,4.64 9.294,7.431 M 522.17,13.679 c -1.174,0.166 -2.354,0.296 -3.521,0.504 -8.005,1.425 -16.041,2.582 -24.178,2.908 -1.015,0.041 -2.035,0.072 -3.043,0.19 -5.231,0.612 -10.481,0.636 -15.729,0.44 -3.721,-0.14 -7.433,-0.496 -11.152,-0.696 -3.9,-0.21 -7.726,-0.924 -11.554,-1.623 -1.494,-0.273 -2.982,-0.612 -4.444,-1.02 -0.657,-0.184 -1.222,-0.701 -1.285,-1.436 -0.258,-3.032 -0.466,-6.069 -0.68,-9.104 -0.028,-0.396 0.581,-0.979 0.988,-0.957 1.011,0.055 2.024,0.098 3.031,0.207 1.681,0.18 3.352,0.51 5.037,0.599 11.019,0.584 22.016,0.289 32.952,-1.216 8.717,-1.2 17.379,-2.716 25.976,-4.639 17.892,-4.002 35.283,-9.513 52.021,-17.006 9.286,-4.158 18.281,-8.868 26.589,-14.798 0.411,-0.292 0.866,-0.521 1.304,-0.775 0.41,-0.237 1.158,-0.044 1.312,0.343 1.06,2.662 2.116,5.325 3.162,7.958 -0.177,0.34 -0.27,0.699 -0.496,0.926 -3.177,3.177 -5.377,6.95 -6.808,11.181 -0.518,1.532 -1.503,2.616 -2.863,3.422 -3.057,1.814 -6.046,3.754 -9.173,5.436 -10.629,5.716 -21.873,9.914 -33.42,13.35 -7.63,2.269 -15.381,4.029 -24.026,5.806 M 409.307,167.741 c -10.518,-19.757 -19.24,-40.298 -26.896,-61.313 -1.709,-4.69 -1.36,-4.415 2.668,-6.409 0.274,-0.136 0.645,-0.077 0.971,-0.108 0.729,0.545 0.93,1.405 1.21,2.181 4.454,12.303 10.442,23.861 17.056,35.111 9.379,15.952 20.209,30.87 32.31,44.855 7.318,8.458 15.101,16.474 23.583,23.785 5.649,4.868 11.496,9.488 17.797,13.484 3.711,2.353 7.591,4.44 11.386,6.662 0.568,0.333 1.097,0.738 1.615,1.146 0.084,0.066 0.091,0.402 0.008,0.481 -0.596,0.568 -1.188,1.151 -1.848,1.638 -3.058,2.256 -5.445,5.066 -7.055,8.511 -1.74,3.724 -2.729,7.639 -2.811,11.76 -0.027,1.351 0.031,2.705 0.045,4.058 0.005,0.421 -0.184,0.653 -0.545,0.688 -0.161,0.015 -0.378,0.094 -0.477,0.02 -1.485,-1.119 -3,-2.205 -4.42,-3.403 -9.734,-8.209 -18.561,-17.324 -26.76,-27.049 -14.456,-17.149 -26.828,-35.711 -37.837,-56.098 M 571.871,31.876 c -5.572,2.014 -11.231,3.753 -17.02,5.007 -5.121,1.11 -10.266,2.093 -15.477,2.755 -6.38,0.812 -12.752,1.631 -19.188,1.778 -4.738,0.107 -9.478,0.224 -14.216,0.192 -5.076,-0.035 -10.165,-0.052 -15.223,-0.423 -5.223,-0.382 -10.439,-0.928 -15.642,-1.622 -6.376,-0.851 -12.705,-1.92 -18.981,-3.3 -3.301,-0.726 -6.576,-1.572 -9.857,-2.39 -1.216,-0.303 -1.801,-1.144 -1.531,-2.208 1.041,-4.104 1.916,-8.235 2.249,-12.467 0.025,-0.32 0.165,-0.68 0.37,-0.923 0.201,-0.238 0.55,-0.482 0.837,-0.486 0.496,-0.008 1.01,0.121 1.49,0.276 4.514,1.458 9.117,2.48 13.801,3.272 3.355,0.567 6.732,0.661 10.084,1.088 5.57,0.71 11.163,0.684 16.731,0.336 8.437,-0.528 16.86,-1.204 25.232,-2.541 11.213,-1.792 22.249,-4.29 33.09,-7.609 13.139,-4.022 25.825,-9.149 37.642,-16.259 0.433,-0.26 0.894,-0.475 1.345,-0.704 0.636,-0.323 1.497,0.07 1.525,0.712 0.053,1.18 0.082,2.362 0.121,3.543 0.187,5.666 1.271,11.082 4.413,15.932 0.356,0.549 0.63,1.152 0.856,1.571 -0.182,1.347 -1.117,1.917 -1.803,2.623 -0.817,0.841 -1.747,1.588 -2.696,2.283 -5.36,3.929 -11.234,6.897 -18.152,9.564 m -49.308,115.241 c 1.485,0.336 2.967,0.69 4.456,1.004 1.491,0.314 2.983,0.623 4.485,0.871 1.502,0.248 3.04,0.32 4.521,0.651 1.41,0.316 2.927,0.177 4.358,0.803 -0.324,0.382 -0.477,0.717 -0.731,0.84 -6.646,3.183 -11.48,8.31 -15.324,14.437 -2.714,4.326 -4.766,8.964 -5.789,14.008 -0.202,0.994 -0.481,1.978 -0.6,2.982 -0.247,2.084 -1.034,1.988 -2.275,1.558 -4.485,-1.551 -8.819,-3.462 -13.095,-5.517 -11.024,-5.298 -21.391,-11.688 -31.27,-18.874 -15.113,-10.993 -29.007,-23.348 -41.636,-37.144 -8.932,-9.757 -17.375,-19.9 -25.157,-30.594 -0.498,-0.683 -0.962,-1.391 -1.426,-2.097 -0.341,-0.52 -0.23,-1.464 0.258,-1.855 2.639,-2.116 5.29,-4.218 7.944,-6.314 0.113,-0.09 0.305,-0.079 0.45,-0.113 0.912,0.185 1.403,0.898 1.968,1.521 2.048,2.257 3.992,4.62 6.169,6.745 5.336,5.208 10.943,10.12 16.933,14.572 25.792,19.17 53.825,33.846 85.761,42.516 m 63.054,-83.583 c -2.29,2.015 -4.656,3.808 -7.611,4.901 -8.664,3.203 -17.638,4.861 -26.791,5.376 -11.677,0.656 -23.352,0.528 -35.02,-0.696 -6.405,-0.672 -12.791,-1.46 -19.122,-2.558 -13.36,-2.315 -26.468,-5.691 -39.3,-10.093 -6.731,-2.308 -13.322,-4.972 -19.77,-7.988 -1.211,-0.567 -1.43,-1.17 -0.789,-2.388 2.133,-4.05 4.088,-8.179 5.611,-12.503 0.111,-0.313 0.256,-0.671 0.5,-0.864 0.365,-0.289 0.842,-0.642 1.253,-0.622 0.655,0.032 1.314,0.305 1.94,0.554 9.172,3.642 18.72,5.938 28.409,7.569 8.683,1.462 17.443,2.371 26.273,2.528 10.846,0.194 21.665,0.148 32.475,-1.071 8.09,-0.912 16.086,-2.231 23.998,-4.122 10.09,-2.413 19.834,-5.734 28.881,-10.908 0.286,-0.163 0.631,-0.309 0.948,-0.307 0.303,0.003 0.604,0.209 0.964,0.348 0.445,2.285 0.042,4.744 1.062,6.957 0.582,1.265 0.234,2.186 -0.666,3.187 -4.144,4.61 -5.231,10.115 -4.364,16.079 0.29,1.993 0.938,3.934 1.119,6.621 m -175.238,44.089 c 7.321,10.424 15.735,19.904 24.783,28.849 14.014,13.853 29.204,26.232 45.902,36.72 10.196,6.404 20.799,12.009 32.22,15.958 0.739,0.256 1.576,0.445 2.13,1.334 -13.518,5.993 -20.615,16.434 -21.413,31.118 -0.938,0.495 -1.687,0.007 -2.413,-0.378 -7.043,-3.743 -13.671,-8.122 -19.929,-13.063 -12.542,-9.902 -23.699,-21.213 -33.949,-33.438 -11.117,-13.258 -20.923,-27.445 -29.906,-42.221 -6.597,-10.851 -12.606,-22.027 -18.631,-33.197 -0.331,-0.614 -0.165,-1.464 0.352,-1.802 3.116,-2.037 6.236,-4.066 9.359,-6.091 0.506,-0.327 1.461,-0.073 1.762,0.492 2.788,5.235 5.933,10.249 9.733,15.719 M 108.525,40.068 C 103.781,40.103 99.055,39.86 94.318,39.567 87.883,39.169 81.51,38.415 75.174,37.286 68.336,36.069 61.6,34.434 55.022,32.187 54.383,31.969 53.753,31.72 53.139,31.442 52.837,31.305 52.557,31.094 52.316,30.866 52.218,30.773 52.264,30.54 52.219,30.377 c -0.1,-0.364 0.055,-0.66 0.492,-0.668 2.033,-0.034 3.996,0.467 5.955,0.912 7.941,1.803 15.998,2.919 24.102,3.415 8.614,0.528 17.243,0.534 25.865,-0.524 6.064,-0.744 12.056,-1.749 17.949,-3.309 12.389,-3.279 23.926,-8.403 34.292,-16.032 15.724,-11.573 26.24,-26.688 30.964,-45.692 0.772,-3.106 1.285,-6.317 1.516,-9.508 0.565,-7.811 -0.092,-15.554 -1.778,-23.215 -2.1,-9.543 -5.493,-18.486 -11.804,-26.119 -0.105,-0.128 -0.164,-0.292 -0.256,-0.432 -0.25,-0.382 0.066,-0.986 0.606,-1.131 0.654,-0.177 1.302,-0.402 1.968,-0.503 3.025,-0.46 5.967,-1.203 8.81,-2.349 0.452,-0.182 0.987,-0.166 1.484,-0.234 0.444,-0.061 0.999,0.43 0.995,0.905 -0.011,1.182 -0.025,2.365 -0.065,3.546 -0.207,6.128 0.459,12.139 1.896,18.118 2.873,11.953 7.559,23.15 13.623,33.794 3.7,6.495 8.022,12.558 13.12,18.043 3.594,3.867 7.533,7.343 12.276,9.736 2.892,1.458 2.434,2.017 1.176,4.183 -1.453,2.503 -3.229,4.758 -5.163,6.903 -3.439,3.813 -7.515,6.822 -11.89,9.448 -14.741,8.847 -30.439,15.526 -46.891,20.433 -13.318,3.972 -26.862,6.867 -40.696,8.432 -7.076,0.801 -14.165,1.186 -22.24,1.539 m 419.523,57.76 c 1.686,0.135 3.371,0.371 5.058,0.387 6.6,0.065 13.201,0.126 19.801,0.048 2.526,-0.03 5.047,-0.452 7.574,-0.662 1.002,-0.083 2.012,-0.082 3.019,-0.093 0.096,-10e-4 0.237,0.171 0.28,0.291 0.055,0.151 0.105,0.384 0.029,0.492 -1.073,1.517 -2.242,2.972 -3.245,4.533 -5.446,8.475 -7.751,17.568 -5.296,27.571 0.277,1.129 -0.133,1.931 -1.178,2.491 -3.294,1.765 -5.272,4.683 -6.795,7.963 -0.425,0.917 -0.783,1.876 -1.063,2.847 -0.389,1.355 -1.266,1.758 -2.185,1.7 -2.869,-0.184 -5.762,-0.26 -8.595,-0.702 -9.217,-1.438 -18.158,-3.977 -26.925,-7.14 -13.401,-4.835 -26.221,-10.924 -38.631,-17.901 -19.704,-11.076 -37.859,-24.312 -54.787,-39.259 -0.328,-0.29 -0.488,-0.77 -0.676,-1.078 0.151,-0.314 0.19,-0.499 0.302,-0.612 4.645,-4.692 9.19,-9.475 13.381,-14.583 0.105,-0.129 0.248,-0.228 0.371,-0.343 0.416,-0.387 0.965,-0.459 1.391,-0.217 0.729,0.414 1.402,0.942 2.048,1.483 5.212,4.371 10.912,7.985 16.925,11.146 7.506,3.945 15.28,7.249 23.302,9.97 17.856,6.057 36.156,10.015 55.895,11.668 M 367.12,260.316 c 0.029,0.505 -0.009,1.025 0.105,1.51 0.113,0.477 0.362,0.94 0.965,0.987 0.337,0.026 0.691,0.106 1.01,0.037 3.642,-0.791 7.262,-1.636 10.43,-3.765 1.122,-0.754 2.315,-1.403 3.485,-2.084 5.906,-3.436 10.274,-8.204 12.775,-14.624 0.924,-2.371 1.662,-4.778 2.227,-7.268 0.912,-4.017 1.003,-8.063 0.808,-12.127 -0.354,-7.368 -2.089,-14.376 -5.748,-20.837 -1.59,-2.809 -3.419,-5.445 -5.655,-7.794 -1.401,-1.471 -2.744,-2.999 -4.063,-4.544 -0.545,-0.638 -1.013,-1.357 -1.421,-2.091 -0.793,-1.428 -0.156,-3.237 1,-4.108 1.387,-1.047 2.979,-1.589 4.767,-1.254 2.541,0.477 4.892,1.419 6.896,3.061 3.144,2.576 6.303,5.142 9.061,8.148 0.456,0.497 0.939,0.979 1.328,1.526 4.231,5.948 8.122,12.079 10.581,19.022 2.696,7.613 4.092,15.357 2.712,23.435 -0.085,0.499 -0.085,1.012 -0.134,1.518 -0.472,4.8 -1.996,9.28 -4.484,13.369 -3.905,6.42 -8.813,12.003 -14.734,16.658 -6.395,5.028 -13.001,9.759 -19.837,14.174 -2.556,1.651 -5.14,3.324 -7.427,5.313 -3.95,3.435 -7.965,6.828 -10.892,11.301 -0.901,1.376 -2.352,2.417 -3.642,3.503 -0.631,0.532 -1.441,0.893 -2.224,1.191 -0.96,0.364 -2.012,0.515 -2.992,0.142 -2.71,-1.03 -4.744,-2.764 -4.872,-5.862 -0.111,-2.698 -0.192,-5.445 0.177,-8.106 0.931,-6.699 2.128,-13.362 3.209,-20.041 1.001,-6.179 1.978,-12.362 2.987,-18.54 0.682,-4.173 1.403,-8.339 2.103,-12.509 0.168,-1 0.369,-1.996 0.479,-3.003 0.621,-5.718 2.076,-11.307 2.65,-17.033 0.016,-0.165 0.105,-0.323 0.134,-0.489 0.724,-4.166 1.464,-8.329 2.159,-12.5 0.945,-5.671 1.648,-11.379 2.789,-17.022 0.704,-3.48 1.136,-7.015 1.66,-10.53 0.13,-0.874 -0.427,-1.617 -1.372,-1.812 -2.651,-0.548 -5.304,-1.103 -7.975,-1.541 -1.521,-0.249 -3.01,-0.587 -4.366,-1.285 -3.16,-1.627 -6.336,-3.238 -9.39,-5.048 -2.481,-1.469 -4.789,-3.28 -6.441,-5.675 -2.713,-3.932 -4.735,-8.227 -5.679,-12.938 -0.295,-1.468 -0.383,-3.064 -0.148,-4.536 0.729,-4.573 2.445,-8.79 5.132,-12.589 0.791,-1.119 1.739,-2.058 2.873,-2.837 5.229,-3.591 10.904,-5.257 17.281,-4.291 5.091,0.771 9.913,2.133 13.996,5.462 2.505,2.042 4.837,4.276 6.727,6.884 2.301,3.176 4.112,6.61 4.408,10.657 0.099,1.349 0.382,2.683 0.562,4.026 1.136,8.462 1.358,16.878 -1.201,25.167 -0.247,0.801 -0.334,1.654 -0.46,2.488 -1.006,6.69 -1.998,13.381 -3.004,20.071 -0.755,5.018 -1.347,10.068 -2.333,15.041 -1.053,5.312 -1.578,10.7 -2.612,16.013 -0.775,3.983 -1.267,8.022 -1.887,12.036 -0.776,5.019 -1.553,10.038 -2.483,15.943 m 249.173,-94.319 c 0.641,-0.217 1.291,-0.411 1.921,-0.656 9.909,-3.853 17.286,-10.515 21.886,-20.101 3.379,-7.043 4.697,-14.418 3.024,-22.207 -2.094,-9.747 -7.514,-16.858 -16.476,-21.242 -1.206,-0.589 -2.448,-1.103 -3.56,-1.601 -0.186,-0.475 -0.372,-0.777 -0.419,-1.1 -0.318,-2.161 -0.294,-2.387 1.449,-3.268 3.234,-1.635 5.879,-3.973 8.268,-6.634 2.283,-2.542 3.919,-5.505 5.425,-8.546 0.375,-0.756 0.666,-1.576 1.167,-2.237 0.235,-0.309 0.946,-0.522 1.322,-0.403 0.79,0.25 1.529,0.704 2.241,1.152 6.591,4.153 12.962,8.624 19.109,13.411 12.206,9.505 23.297,20.143 32.837,32.354 5.855,7.494 11.022,15.415 14.977,24.092 1.831,4.018 3.32,8.161 4.218,12.477 1.109,5.325 1.723,10.68 0.449,16.108 -1.453,6.189 -4.485,11.228 -9.866,14.811 -2.44,1.624 -5.166,2.464 -7.82,3.557 -7.615,3.136 -15.629,4.439 -23.738,4.965 -15.743,1.02 -31.449,0.545 -47.102,-1.7 -9.056,-1.299 -18.006,-3.033 -26.832,-5.403 -5.885,-1.581 -11.642,-3.563 -17.281,-5.882 -1.089,-0.448 -2.226,-0.82 -3.052,-2.001 0.243,-0.692 0.491,-1.49 0.802,-2.263 0.631,-1.568 1.37,-3.097 1.935,-4.688 1.773,-4.992 2.772,-10.097 2.028,-15.43 -0.042,-0.298 0.154,-0.63 0.251,-0.99 1.154,-1.056 2.63,-1.322 4.306,-1.57 1.037,0.673 2.139,1.448 3.295,2.13 4.754,2.806 9.829,4.394 15.421,4.377 3.09,-0.01 6.046,-0.61 9.815,-1.512 M 98.789,68.54 C 92.686,67.136 86.624,65.583 80.667,63.642 67.725,59.425 55.443,53.8 44.038,46.338 37.214,41.874 30.881,36.796 25.139,30.989 c -2.05,-2.074 -3.682,-4.416 -4.852,-7.075 -0.459,-1.043 -0.062,-1.991 0.626,-2.806 0.596,-0.706 1.404,-0.898 2.291,-0.74 0.33,0.059 0.642,0.217 0.97,0.297 4.993,1.218 9.501,3.568 13.826,6.221 5.365,3.289 10.959,6.072 16.835,8.277 10.367,3.89 21.151,6.044 32.132,7.093 7.072,0.675 14.174,1.307 21.303,0.987 4.058,-0.183 8.112,-0.472 12.17,-0.645 8.306,-0.355 16.498,-1.577 24.677,-2.999 15.062,-2.619 29.671,-6.798 43.893,-12.378 10.897,-4.276 21.402,-9.347 31.419,-15.419 7.523,-4.561 13.675,-10.486 18.219,-18.057 4.159,-6.931 6.933,-14.39 7.578,-22.426 0.707,-8.822 -0.034,-17.601 -2.548,-26.154 -4.721,-16.062 -13.465,-29.454 -26.551,-39.961 -0.527,-0.423 -1.039,-0.873 -1.511,-1.356 -3.815,-3.914 -8.318,-6.979 -12.892,-9.851 -8.745,-5.492 -17.746,-10.558 -27.026,-15.119 -5.771,-2.836 -11.482,-5.799 -17.164,-8.811 -2.389,-1.266 -4.713,-2.692 -6.924,-4.248 -3.737,-2.631 -7.376,-5.404 -11.027,-8.155 -2.976,-2.242 -5.702,-4.79 -8.572,-7.158 -5.798,-4.783 -10.444,-10.601 -15.162,-16.364 -1.392,-1.7 -2.707,-3.47 -3.963,-5.274 -2.611,-3.751 -5.305,-7.456 -7.692,-11.347 -2.392,-3.898 -4.806,-7.772 -7.403,-11.538 -3.172,-4.6 -6.299,-9.233 -9.345,-13.916 -1.852,-2.847 -3.785,-5.614 -6.069,-8.133 -0.56,-0.618 -1.015,-1.334 -1.495,-2.021 -0.056,-0.08 -0.004,-0.296 0.071,-0.394 0.095,-0.123 0.307,-0.298 0.393,-0.263 0.622,0.248 1.269,0.474 1.827,0.834 6.867,4.437 13.057,9.698 18.526,15.758 6.819,7.557 14.249,14.486 21.753,21.325 6.882,6.271 14.01,12.272 21.14,18.269 7.661,6.445 15.756,12.282 24.021,17.889 6.864,4.657 13.528,9.596 20.535,14.057 5.138,3.27 10.163,6.726 15.353,9.925 2.16,1.332 4.338,2.665 6.348,4.207 8.898,6.83 17.056,14.451 24.175,23.143 5.496,6.711 10.261,13.894 13.818,21.833 4.269,9.531 6.939,19.438 6.848,29.964 -0.022,2.539 -0.009,5.099 -0.322,7.611 -0.375,3.006 -0.973,5.996 -1.666,8.949 -1.719,7.319 -4.777,14.089 -8.733,20.463 -5.599,9.021 -12.821,16.602 -20.916,23.384 -3.375,2.827 -6.874,5.506 -10.33,8.234 -4.129,3.257 -8.091,6.664 -11.437,10.776 -6.285,7.725 -11.182,16.121 -13.28,25.974 -0.172,0.809 -0.539,1.576 -0.857,2.479 -1.661,0.467 -3.264,0.985 -4.9,1.364 -6.266,1.454 -12.576,2.631 -18.969,3.431 -6.895,0.864 -13.797,1.469 -20.742,1.68 -8.486,0.257 -16.923,-0.443 -25.364,-1.118 -0.675,-0.054 -1.344,-0.168 -2.015,-0.26 -5.533,-0.76 -11.05,-1.614 -17.37,-2.887 M 573.272,-61.309 c 0.44,-3.355 0.668,-6.73 1.456,-10.048 3.967,-16.707 12.889,-30.038 26.981,-39.868 4.044,-2.822 8.282,-5.284 13.141,-6.479 0.819,-0.201 1.611,-0.521 2.407,-0.811 7.476,-2.73 15.216,-3.252 23.043,-2.479 8.281,0.817 16.353,2.702 24.238,5.383 14.197,4.828 27.461,11.532 39.944,19.806 8.49,5.628 16.445,11.94 23.941,18.839 8.785,8.085 15.92,17.55 22.837,27.2 1.486,2.074 2.583,4.37 3.534,6.732 0.638,1.584 0.967,3.229 1.082,4.94 0.284,4.215 -0.82,8.042 -3.03,11.597 -2.177,3.502 -5.034,6.368 -8.257,8.894 -3.482,2.727 -7.249,5.002 -11.198,6.975 -5.616,2.805 -11.445,5.104 -17.415,7.02 -16.208,5.203 -32.864,8.105 -49.825,9.134 -6.755,0.409 -13.55,0.168 -20.327,0.198 -0.665,0.003 -1.378,-0.059 -1.981,-0.305 -0.386,-0.159 -0.851,-0.704 -0.862,-1.088 -0.03,-1 0.142,-2.011 0.286,-3.009 0.194,-1.338 0.565,-2.662 0.637,-4.004 0.245,-4.572 0.371,-9.143 -0.726,-13.652 -0.334,-1.377 0.05,-2.045 1.264,-2.269 3.678,-0.681 7.17,-2.005 10.732,-3.077 5.649,-1.7 10.48,-4.835 14.342,-9.251 7.917,-9.05 11.288,-19.493 9.149,-31.514 -1.748,-9.823 -6.733,-17.652 -14.696,-23.53 -6.301,-4.652 -13.432,-6.989 -21.33,-7.086 -7.532,-0.091 -14.39,1.918 -20.619,6.074 -5.919,3.95 -10.364,9.19 -13.286,15.693 -0.623,1.386 -1.163,2.81 -1.781,4.316 -0.5,0.348 -1.042,0.745 -1.602,1.114 -6.565,4.324 -9.805,10.553 -10.44,18.26 -0.111,1.35 -0.124,2.708 -0.147,4.063 -0.018,1.111 -0.52,1.953 -1.391,2.57 -2.211,1.567 -4.399,3.172 -6.676,4.638 -2.275,1.464 -4.645,2.783 -6.98,4.153 -0.611,0.359 -1.509,0.131 -1.76,-0.428 -0.346,-0.772 -0.713,-1.539 -0.995,-2.336 -2.914,-8.239 -4.228,-16.721 -3.69,-26.365 M 76.614,137.163 c -1.272,-3.651 -1.038,-7.325 -0.091,-10.984 1.595,-6.16 5.781,-10.305 11.098,-13.237 5.707,-3.146 11.905,-4.704 18.521,-4.587 3.093,0.055 6.073,0.336 8.921,1.536 3.6,1.517 7.176,3.165 10,5.918 2.912,2.839 5.428,6.053 7.398,9.638 2.941,5.353 5.25,10.98 7.3,16.73 3.637,10.2 7.38,20.361 11.055,30.547 3.618,10.028 7.263,20.047 10.791,30.106 3.864,11.015 7.607,22.073 11.41,33.109 0.219,0.637 0.419,1.311 0.792,1.855 0.255,0.371 0.78,0.732 1.214,0.77 1.003,0.09 2.043,0.095 3.035,-0.068 4.531,-0.746 9.112,-0.728 13.674,-0.988 1.015,-0.058 2.057,0.025 3.041,-0.175 3.524,-0.714 7.083,-0.548 10.635,-0.544 3.723,0.004 7.433,0.118 11.158,0.418 4.392,0.354 8.781,0.54 13.087,1.567 0.3,0.072 0.692,0.005 0.969,-0.138 0.254,-0.131 0.577,-0.451 0.577,-0.688 10e-4,-0.664 -0.039,-1.367 -0.259,-1.984 -1.537,-4.303 -3.13,-8.585 -4.693,-12.879 -2.253,-6.195 -4.487,-12.398 -6.747,-18.591 -1.101,-3.018 -2.283,-6.008 -3.353,-9.037 -3.098,-8.773 -6.155,-17.56 -9.238,-26.338 -0.449,-1.278 -0.882,-2.569 -1.452,-3.794 -0.448,-0.963 -1.334,-1.505 -2.384,-1.714 -1.526,-0.303 -3.034,-0.174 -4.523,0.238 -1.468,0.406 -2.909,0.99 -4.403,1.2 -2.361,0.331 -4.657,0.866 -6.917,1.591 -1.965,0.63 -3.964,0.836 -6.017,0.678 -1.182,-0.09 -2.374,-0.058 -3.553,-0.172 -4.06,-0.392 -8.081,-1.117 -11.736,-2.96 -4.118,-2.078 -7.694,-4.91 -10.39,-8.741 -3.78,-5.371 -5.494,-11.173 -3.93,-17.744 0.321,-1.347 0.742,-2.605 1.518,-3.729 2.736,-3.963 6.023,-7.404 10.424,-9.449 3.672,-1.707 7.478,-3.186 11.501,-3.911 1.992,-0.359 3.962,-0.784 6.024,-0.822 3.281,-0.06 6.347,0.885 9.483,1.557 6.556,1.403 11.849,4.836 16.151,9.902 0.328,0.387 0.677,0.758 1.026,1.127 1.652,1.747 2.886,3.748 3.719,6.005 0.937,2.539 1.84,5.094 2.863,7.599 5.499,13.47 10.839,27.003 16.145,40.549 0.679,1.733 1.401,3.448 2.077,5.182 2.889,7.406 5.775,14.813 8.649,22.224 2.142,5.523 4.27,11.051 6.391,16.581 3.575,9.321 7.161,18.638 10.699,27.974 2.34,6.173 4.586,12.381 6.918,18.558 0.449,1.189 0.436,2.295 -0.031,3.444 -0.254,0.627 -0.407,1.302 -0.719,1.896 -0.476,0.91 -1.144,1.688 -2.073,2.174 -3.784,1.979 -7.7,2.548 -11.727,0.844 -3.114,-1.317 -6.204,-2.701 -9.25,-4.169 -4.432,-2.136 -8.985,-3.966 -13.691,-5.363 -2.42,-0.718 -4.94,-1.137 -7.439,-1.538 -2.505,-0.403 -5.038,-0.642 -7.563,-0.904 -3.551,-0.368 -7.148,-0.519 -10.651,0.034 -6.851,1.081 -13.654,2.461 -20.059,5.309 -1.386,0.616 -2.838,1.16 -4.314,1.482 -2.871,0.626 -5.794,-0.457 -7.168,-3.45 -0.494,-1.076 -0.953,-2.17 -1.368,-3.279 -0.95,-2.534 -1.866,-5.082 -2.791,-7.626 -3.528,-9.697 -7.076,-19.386 -10.573,-29.094 -3.612,-10.028 -7.179,-20.072 -10.754,-30.113 -2.611,-7.336 -5.197,-14.681 -7.806,-22.018 -2.777,-7.811 -5.566,-15.619 -8.355,-23.427 -0.285,-0.796 -0.534,-1.618 -0.931,-2.357 -0.325,-0.604 -0.943,-1.019 -1.665,-0.95 -1.684,0.163 -3.4,0.244 -5.032,0.649 -3.344,0.829 -6.717,0.845 -10.102,0.636 -2.868,-0.176 -5.722,-0.584 -8.59,-0.769 -2.407,-0.154 -4.678,-0.686 -6.826,-1.783 -1.206,-0.616 -2.45,-1.157 -3.654,-1.777 -6.71,-3.454 -11.835,-8.389 -14.519,-15.596 -0.177,-0.475 -0.408,-0.929 -0.927,-2.14 m 453.823,106.614 c 0.108,-0.879 0.425,-1.633 1.274,-2.043 1.37,-0.661 2.785,-1.239 4.105,-1.988 1.034,-0.585 1.974,-0.465 2.858,0.11 1.557,1.013 3.154,2.005 4.555,3.214 3.472,2.998 6.54,6.375 9.073,10.227 4.016,6.104 7.343,12.563 10.101,19.32 4.62,11.319 7.86,23.046 10.337,35 1.824,8.796 3.078,17.685 3.784,26.624 0.827,10.473 0.876,20.979 0.192,31.476 -0.055,0.843 -0.163,1.685 -0.272,2.524 -0.526,4.029 -1.057,8.056 -1.592,12.084 -0.448,3.375 -1.297,6.647 -2.722,9.742 -3.922,8.525 -10.695,12.836 -19.972,13.3 -3.045,0.152 -6.064,-0.099 -9.086,-0.708 -4.005,-0.806 -7.864,-2.02 -11.638,-3.528 -6.942,-2.773 -13.446,-6.388 -19.717,-10.433 -7.983,-5.15 -15.488,-10.937 -22.708,-17.097 -8.252,-7.039 -16.307,-14.281 -23.247,-22.672 -1.075,-1.301 -2.328,-2.456 -3.515,-3.662 -4.534,-4.604 -8.529,-9.633 -11.923,-15.131 -7.761,-12.577 -11.796,-26.132 -10.928,-41.032 0.39,-6.678 1.869,-13.074 4.587,-19.146 3.308,-7.392 8.07,-13.693 14.79,-18.365 1.097,-0.763 2.308,-1.363 3.368,-1.981 2.285,0.814 4.115,1.928 5.799,3.385 4.483,3.88 9.101,7.599 14.025,10.909 1.436,0.966 2.654,2.098 3.591,3.528 0.248,0.377 0.317,0.871 0.487,1.368 -1.325,0.934 -2.622,1.739 -3.792,2.699 -1.435,1.178 -2.926,2.349 -4.113,3.759 -7.395,8.783 -10.34,18.755 -8.317,30.225 2.287,12.963 13.922,28.415 34.211,29.626 8.399,0.502 16.038,-2.041 22.888,-6.91 12.258,-8.713 18.079,-25.008 13.563,-39.62 -3.178,-10.284 -9.552,-17.764 -19.245,-22.411 -1.524,-0.73 -3.124,-1.301 -4.665,-1.999 -0.426,-0.192 -0.765,-0.577 -1.247,-0.955 0.699,-2.108 1.382,-4.17 2.066,-6.234 1.162,-0.146 2.177,-0.2 3.159,-0.412 3.683,-0.794 6.424,-2.873 8.29,-6.152 1.034,-1.817 1.496,-3.761 1.596,-6.641 m -12.578,-453.09 c -0.226,-1.504 -0.308,-3.048 -0.704,-4.505 -1.422,-5.233 -2.099,-10.607 -3.132,-15.912 -0.485,-2.491 -1.072,-4.974 -1.351,-7.489 -0.263,-2.371 -0.717,-4.679 -1.331,-6.972 -0.218,-0.815 -0.365,-1.653 -0.482,-2.489 -0.612,-4.355 -1.385,-8.679 -2.431,-12.953 -0.24,-0.981 -0.374,-1.99 -0.53,-2.99 -0.287,-1.84 -0.519,-3.688 -0.836,-5.523 -0.836,-4.833 -1.7,-9.661 -2.566,-14.488 -0.089,-0.495 -0.263,-0.976 -0.413,-1.458 -0.168,-0.541 -0.983,-1.039 -1.61,-1.003 -0.338,0.019 -0.691,-0.025 -1.011,0.059 -3.445,0.904 -7.033,0.914 -10.5,1.787 -2.611,0.658 -5.35,0.714 -8.08,0.514 -3.551,-0.26 -7.058,-0.808 -10.581,-1.278 -4.406,-0.587 -8.59,-1.886 -12.635,-3.624 -1.688,-0.725 -3.286,-1.774 -4.737,-2.915 -3.598,-2.829 -6.872,-5.999 -9.777,-9.566 -3.541,-4.348 -5.589,-9.207 -5.812,-14.843 -0.128,-3.222 -0.085,-6.438 0.262,-9.635 0.366,-3.377 1.015,-6.737 2.949,-9.619 6.409,-9.545 15.131,-15.281 26.813,-16.054 1.01,-0.067 2.029,-0.187 3.012,-0.417 1.343,-0.313 2.677,-0.276 4.037,-0.234 3.247,0.098 6.4,0.705 9.444,1.777 6.251,2.201 12.2,4.959 17.228,9.441 2.297,2.048 4.278,4.27 5.804,6.972 2.333,4.129 4.529,8.322 6.608,12.581 4.039,8.273 7.02,16.854 7.752,26.111 0.173,2.192 0.301,4.405 0.717,6.556 1.381,7.14 2.788,14.278 4.37,21.375 1.326,5.944 2.401,11.935 3.603,17.901 1.034,5.134 1.844,10.313 2.811,15.461 1.031,5.486 2.449,10.896 3.21,16.436 0.184,1.339 0.53,2.656 0.795,3.984 1.125,5.637 2.281,11.267 3.361,16.913 1.461,7.638 2.856,15.289 4.301,22.93 0.092,0.486 0.362,0.94 0.563,1.402 0.256,0.592 1.123,0.987 1.674,0.751 1.867,-0.803 3.724,-1.618 5.329,-2.908 1.32,-1.06 2.679,-2.071 4.003,-3.127 1.726,-1.376 3.304,-2.884 4.599,-4.704 1.077,-1.513 2.285,-2.942 3.525,-4.328 5.339,-5.964 8.54,-12.94 9.946,-20.779 1.687,-9.405 0.316,-18.563 -2.49,-27.537 -1.411,-4.51 -3.316,-8.84 -5.641,-13.004 -3.239,-5.803 -6.949,-11.217 -11.746,-15.822 -4.288,-4.116 -8.902,-7.803 -14.296,-10.437 -2.733,-1.334 -5.392,-2.828 -8.038,-4.331 -1.019,-0.579 -1.983,-1.307 -2.843,-2.105 -2.129,-1.978 -2.116,-5.248 -0.046,-7.238 0.366,-0.351 0.764,-0.67 1.142,-1.008 1.709,-1.529 3.677,-2.252 5.999,-2.35 3.44,-0.146 6.731,0.3 9.94,1.562 2.833,1.115 5.753,2.017 8.559,3.194 2.96,1.241 6,2.423 8.697,4.121 3.713,2.339 7.181,5.079 10.674,7.751 5.131,3.925 9.646,8.511 13.817,13.426 3.289,3.876 6.076,8.11 8.576,12.541 2.43,4.306 4.043,8.932 5.496,13.62 2.123,6.847 3.124,13.852 2.675,21.031 -0.106,1.689 -0.136,3.404 -0.468,5.054 -1.677,8.343 -4.754,16.217 -8.211,23.955 -0.344,0.77 -0.783,1.504 -1.234,2.219 -3.435,5.439 -6.829,10.906 -10.342,16.295 -4.903,7.518 -10.447,14.58 -15.782,21.788 -1.821,2.461 -3.418,5.035 -4.863,7.717 -0.883,1.639 -1.622,3.365 -2.606,4.938 -2.364,3.774 -3.848,7.902 -5.126,12.124 -0.195,0.647 -0.277,1.333 -0.505,1.967 -1.036,2.881 -2.281,5.682 -4.317,7.996 -2.114,2.403 -4.532,3.751 -8.063,2.868 -3.432,-0.858 -5.747,-2.57 -7.147,-5.789 -1.627,-3.739 -2.923,-7.568 -3.672,-11.573 -1.305,-6.982 -2.581,-13.969 -3.863,-20.955 -0.152,-0.833 -0.24,-1.678 -0.401,-2.508 -1.322,-6.808 -2.665,-13.611 -3.977,-20.42 -0.609,-3.158 -1.126,-6.333 -1.751,-9.487 -0.721,-3.645 -1.65,-7.253 -2.248,-10.917 -0.983,-6.021 -2.085,-12.013 -3.467,-17.954 -0.23,-0.988 -0.345,-2.002 -0.629,-3.87 M 147.82,324.573 c -8.529,13.495 -18.258,26.053 -29.149,37.732 -9.503,10.191 -19.788,19.472 -31.163,27.528 -5.4,3.824 -11.086,7.161 -17.125,9.891 -4.337,1.961 -8.825,3.44 -13.497,4.332 -5.569,1.063 -10.86,0.234 -15.525,-3.027 -4.211,-2.943 -7.641,-6.676 -9.759,-11.464 -2.332,-5.273 -4.27,-10.688 -5.691,-16.275 -2.133,-8.388 -3.43,-16.932 -3.997,-25.55 -0.802,-12.189 -0.507,-24.379 1.009,-36.51 0.924,-7.389 2.167,-14.736 3.969,-21.969 2.212,-8.885 5.055,-17.559 8.993,-25.849 5.286,-11.129 10.346,-17.542 19.361,-24.387 5.86,-4.451 12.359,-7.599 19.443,-9.639 5.922,-1.706 11.956,-2.342 18.066,-2.292 3.38,0.028 6.793,0.182 10.126,0.699 7.58,1.178 14.757,3.657 21.527,7.306 20.379,10.983 35.98,33.711 33.692,60.879 -0.401,4.759 -1.392,9.358 -2.984,13.848 -1.763,4.971 -4.283,9.568 -7.296,14.747 M 626.13,88.113 c -2.174,2.159 -4.576,4.007 -7.238,5.541 -2.072,1.194 -2.482,1.986 -1.965,4.114 0.487,2.004 0.672,4.016 0.581,6.046 -0.489,10.994 -4.753,20.311 -12.593,28.002 -2.826,2.771 -6.134,4.776 -9.898,6.014 -0.481,0.158 -0.99,0.236 -1.468,0.404 -1.453,0.51 -2.272,1.584 -2.273,3.015 -10e-4,1.185 0.12,2.372 0.072,3.553 -0.076,1.87 -0.407,3.687 -1.209,5.417 -1.551,3.342 -3.904,5.916 -7.137,7.667 -1.041,0.563 -2.14,1.015 -3.202,1.54 -0.655,0.324 -1.035,0.89 -1.043,1.608 -0.013,1.181 0.057,2.363 0.087,3.545 0.061,2.37 0.193,4.748 -0.3,7.09 -1.833,8.702 -5.965,16.137 -12.35,22.322 -3.25,3.149 -7.088,5.161 -11.548,5.976 -0.662,0.121 -1.331,0.243 -1.966,0.459 -0.682,0.232 -1.15,0.791 -1.21,1.49 -0.085,1.004 -0.04,2.022 -10e-4,3.032 0.085,2.205 0.15,4.414 -0.332,6.58 -1.501,6.755 -4.548,12.724 -9.254,17.814 -3.506,3.792 -7.619,6.693 -12.544,8.373 -0.799,0.273 -1.581,0.603 -2.351,0.95 -0.668,0.301 -1.061,0.868 -1.043,1.593 0.031,1.18 0.177,2.357 0.228,3.537 0.117,2.73 -0.926,4.982 -3.024,6.682 -2.015,1.631 -4.211,2.811 -6.983,2.258 -1.125,-0.224 -1.922,0.365 -2.418,1.395 -1.026,2.136 -1.995,4.304 -3.135,6.378 -1.407,2.559 -3.337,4.659 -5.879,6.189 -4.042,2.433 -9.804,2.204 -13.677,-1.373 -2.161,-1.996 -3.714,-4.379 -4.769,-7.103 -1.905,-4.92 -2.034,-9.966 -0.532,-14.948 1.626,-5.393 4.624,-9.745 10.231,-11.834 2.575,-0.96 2.853,-1.571 2.792,-4.155 -0.016,-0.677 -0.078,-1.353 -0.096,-2.03 -0.243,-8.729 2.799,-16.265 8.477,-22.758 3.557,-4.067 7.941,-6.827 13.42,-7.57 0.501,-0.068 0.995,-0.195 1.486,-0.316 0.442,-0.109 1.192,-1.032 1.196,-1.526 0.007,-0.841 -0.063,-1.683 -0.056,-2.524 0.018,-2.027 -0.123,-4.077 0.127,-6.077 0.973,-7.775 4.221,-14.578 9.166,-20.602 1.947,-2.371 4.167,-4.461 6.763,-6.104 2.314,-1.466 4.773,-2.538 7.615,-2.459 0.832,0.023 1.674,-0.186 2.504,-0.33 0.53,-0.092 1.123,-1.013 1.067,-1.574 -0.034,-0.336 0.008,-0.705 -0.119,-1.001 -0.929,-2.166 -0.582,-4.338 0.006,-6.478 1.253,-4.558 3.218,-8.573 8.136,-10.254 0.755,-0.258 1.141,-1.261 0.979,-2.135 -0.307,-1.66 -0.768,-3.305 -0.919,-4.979 -0.821,-9.157 1.618,-17.429 6.959,-24.873 3.687,-5.139 8.401,-8.781 14.73,-10.058 0.662,-0.133 1.319,-0.303 1.964,-0.503 0.894,-0.276 1.67,-1.593 1.43,-2.425 -0.234,-0.812 -0.504,-1.616 -0.785,-2.413 -0.92,-2.611 -1.133,-5.323 -0.817,-8.027 0.672,-5.744 2.317,-10.962 8.114,-13.733 1.106,-0.529 1.4,-2.009 0.603,-3.085 -1.037,-1.4 -1.65,-2.897 -1.992,-4.6 -0.76,-3.791 -0.121,-7.408 1.099,-10.976 0.67,-1.957 1.679,-3.69 3.456,-4.886 0.411,-0.277 0.773,-0.668 1.061,-1.074 0.406,-0.574 0.535,-1.259 0.259,-1.925 -0.511,-1.237 -1.488,-2.244 -1.614,-3.683 -0.315,-3.603 -0.026,-7.111 1.472,-10.443 0.845,-1.881 1.902,-3.593 3.969,-4.412 0.451,-0.178 0.818,-0.578 1.207,-0.896 0.342,-0.279 0.671,-1.53 0.472,-1.901 -0.398,-0.741 -0.767,-1.514 -1.274,-2.177 -1.569,-2.052 -2.656,-4.346 -3.339,-6.803 -2.249,-8.082 -1.912,-16.08 1.042,-23.94 1.021,-2.716 2.502,-5.181 4.464,-7.333 0.569,-0.624 1.23,-1.164 1.827,-1.764 1.338,-1.346 1.479,-1.999 0.725,-3.591 -0.725,-1.529 -1.569,-3.006 -2.227,-4.562 -3.278,-7.756 -3.211,-15.475 0.422,-23.107 0.952,-2.001 2.185,-3.817 3.836,-5.329 3.849,-3.528 8.829,-4.462 13.655,-2.247 2.983,1.369 5.464,3.378 7.399,6.035 4.371,6 6.295,12.669 5.375,20.079 -0.229,1.844 -0.554,3.682 -0.942,5.499 -0.277,1.301 0.049,2.317 0.988,3.209 1.862,1.77 3.347,3.798 4.358,6.183 2.222,5.243 2.99,10.782 2.925,16.384 -0.057,4.919 -0.905,9.775 -3.068,14.295 -0.145,0.305 -0.362,0.62 -0.373,0.936 -0.022,0.659 -0.041,1.356 0.147,1.974 0.192,0.631 0.627,1.191 0.97,1.774 2.122,3.615 3.023,7.546 2.747,11.693 -0.298,4.454 -1.274,8.717 -4.417,12.165 -0.228,0.25 -0.447,0.51 -0.644,0.785 -0.728,1.017 -0.988,2.149 -0.704,3.368 0.153,0.656 0.425,1.284 0.618,1.933 1.548,5.228 2.359,10.541 2.252,16.023 -0.204,10.375 -3.312,19.614 -10.75,27.977 M 49.91,163.635 c -0.193,0.279 -0.383,0.559 -0.58,0.835 -8.371,11.727 -19.444,19.635 -33.294,23.675 -7.97,2.324 -16.053,4.156 -24.194,5.74 -7.144,1.39 -14.319,2.578 -21.556,3.414 -7.405,0.854 -14.803,1.698 -22.267,1.752 -1.525,0.01 -3.05,0.026 -4.574,0.049 -9.169,0.134 -18.281,-0.451 -27.298,-2.184 -4.665,-0.896 -9.223,-2.168 -13.615,-4 -3.614,-1.509 -6.996,-3.417 -10.059,-5.872 -2.681,-2.149 -4.814,-4.728 -6.356,-7.822 -1.239,-2.485 -1.907,-5.058 -1.736,-7.835 0.43,-6.962 1.483,-13.783 4.09,-20.323 2.899,-7.276 6.646,-14.079 10.948,-20.599 7.973,-12.081 17.396,-22.931 27.873,-32.887 8.87,-8.428 18.423,-15.979 28.823,-22.443 8.547,-5.312 17.597,-9.403 27.469,-11.605 4.822,-1.076 9.673,-1.678 14.604,-1.515 1.857,0.061 3.702,0.396 5.558,0.541 4.94,0.387 9.681,1.664 14.286,3.386 12.228,4.572 22.27,12.131 29.953,22.678 10.794,14.821 14.767,31.416 12.023,49.503 -1.361,8.967 -4.613,17.32 -10.098,25.512 m 172.7,200.079 c -0.931,-7.039 0.276,-13.836 2.365,-20.52 5.654,-18.087 16.504,-32.085 33.028,-41.484 15.123,-8.601 31.444,-11.293 48.546,-8.869 12.446,1.765 23.791,6.527 33.839,14.166 12.538,9.531 21.13,21.791 25.413,37.007 1.337,4.75 2.248,9.598 2.285,14.508 0.067,8.634 -0.344,17.253 -1.515,25.836 -0.984,7.22 -2.298,14.367 -3.937,21.46 -3.941,17.045 -9.63,33.5 -16.854,49.42 -4.908,10.816 -10.668,21.163 -17.543,30.872 -3.634,5.132 -7.67,9.909 -12.254,14.217 -3.231,3.036 -6.743,5.67 -10.857,7.401 -2.548,1.073 -5.111,1.478 -7.911,0.723 -2.299,-0.62 -4.604,-1.17 -6.696,-2.303 -2.377,-1.289 -4.739,-2.628 -6.993,-4.117 -3.976,-2.627 -7.402,-5.914 -10.729,-9.305 -7.038,-7.175 -12.906,-15.247 -18.106,-23.812 -10.879,-17.92 -18.797,-37.121 -24.507,-57.254 -2.589,-9.127 -4.518,-18.41 -5.93,-27.787 -0.959,-6.365 -1.491,-12.782 -1.644,-20.159 m -3.613,-545.729 c -0.171,0.338 -0.389,0.374 -0.653,0.106 0.206,-0.139 0.411,-0.278 0.593,-1.146 0.562,-1.042 1.136,-2.078 1.686,-3.127 4.216,-8.04 6.851,-16.527 7.67,-25.614 0.397,-4.419 0.278,-8.781 -0.037,-13.18 -0.267,-3.733 -0.913,-7.389 -1.746,-11.024 -2.216,-9.663 -6.119,-18.639 -11.056,-27.195 -0.846,-1.466 -1.78,-2.897 -2.473,-4.434 -2.722,-6.038 -6.379,-11.561 -9.532,-17.36 -3.151,-5.795 -6.66,-11.401 -10.141,-17.01 -5.271,-8.492 -10.535,-16.985 -15.58,-25.613 -1.368,-2.338 -2.805,-4.637 -4.173,-6.976 -2.309,-3.947 -4.557,-7.929 -6.887,-11.862 -3.624,-6.118 -7.302,-12.204 -10.943,-18.312 -1.041,-1.746 -2.054,-3.508 -3.042,-5.284 -3.207,-5.771 -6.304,-11.605 -9.616,-17.315 -5.186,-8.942 -9.914,-18.127 -14.747,-27.256 -1.817,-3.433 -3.276,-7.055 -4.889,-10.595 -0.16,-0.35 0.165,-1.148 0.51,-1.314 0.608,-0.293 1.206,-0.618 1.839,-0.842 3.51,-1.245 7.018,-2.497 10.547,-3.687 31.378,-10.577 63.47,-17.998 96.355,-22.023 8.409,-1.029 16.836,-1.817 25.267,-2.553 6.746,-0.59 13.526,-0.863 20.297,-1.068 16.101,-0.487 32.187,0.025 48.26,0.993 4.056,0.245 8.105,0.637 12.153,1.01 3.203,0.295 6.404,0.626 9.598,1.014 2.35,0.285 4.687,0.686 7.028,1.041 0.437,0.066 0.671,0.791 0.382,1.227 -0.653,0.986 -1.312,1.968 -1.989,2.938 -5.847,8.386 -10.484,17.39 -13.909,27.027 -4.93,13.867 -7.259,28.151 -7.194,42.866 0.039,8.844 0.869,17.598 2.642,26.247 1.771,8.644 4.418,17.034 7.822,25.186 3.341,8 7.609,15.512 12.352,22.718 9.606,14.594 18.483,29.597 26.326,45.207 13.883,27.634 24.809,56.389 32.77,86.281 3.358,12.608 6.245,25.315 8.521,38.154 1.478,8.334 2.671,16.717 3.574,25.144 0.848,7.919 1.672,15.833 1.973,23.794 0.045,1.186 0.078,2.373 0.179,3.554 0.855,9.981 0.829,19.989 0.34,29.968 -0.356,7.267 -0.672,14.546 -1.439,21.803 -0.89,8.422 -1.832,16.835 -2.886,25.237 -0.189,1.505 -0.185,3.038 -0.211,4.559 -0.018,1.041 1.238,1.819 2.19,1.361 0.754,-0.363 1.505,-0.765 2.183,-1.253 1.37,-0.989 2.624,-2.151 4.045,-3.056 2.611,-1.662 6.06,-0.531 7.158,2.366 0.656,1.732 1.135,3.547 1.525,5.36 1.597,7.432 1.035,14.831 -0.556,22.183 -1.516,7.003 -4.183,13.576 -7.636,19.843 -5.361,9.73 -12.274,18.266 -20.141,26.048 -10.944,10.825 -23.492,19.353 -37.364,26 -15.059,7.215 -30.79,12.337 -47.222,15.212 -7.333,1.284 -14.722,2.336 -22.2,2.432 -1.355,0.018 -2.708,0.103 -4.063,0.146 -10.181,0.329 -20.334,-0.085 -30.412,-1.567 -7.54,-1.109 -14.987,-2.743 -22.279,-4.99 -11.726,-3.612 -22.806,-8.617 -32.907,-15.643 -9.259,-6.44 -17.191,-14.258 -23.982,-23.263 -1.236,-1.64 -1.594,-3.302 -1.118,-5.226 0.692,-2.793 1.358,-5.585 2.428,-8.277 4.085,-10.278 10.384,-18.975 18.619,-26.306 0.248,-0.221 0.57,-0.356 0.853,-0.54 0.362,-0.235 1.122,-0.087 1.353,0.291 0.351,0.575 0.719,1.144 1.019,1.745 2.902,5.802 6.664,11.016 10.974,15.829 11.641,12.999 25.694,22.479 42.041,28.55 7.495,2.783 15.237,4.698 23.191,5.358 7.937,0.658 15.896,0.658 23.81,-0.763 8.753,-1.572 17.081,-4.29 24.723,-8.858 4.063,-2.43 7.968,-5.129 11.887,-7.791 2.8,-1.902 5.452,-4.025 8.265,-5.908 4.788,-3.206 9.852,-5.957 14.958,-8.618 1.943,-1.013 4.013,-1.784 6.029,-2.66 0.776,-0.338 1.604,-0.582 2.332,-1.002 2.689,-1.549 5.034,-3.411 6.056,-6.548 0.61,-1.873 0.645,-3.644 -0.317,-5.395 -0.571,-1.038 -1.182,-2.059 -1.681,-3.132 -4.119,-8.849 -9.812,-16.606 -16.444,-23.705 -4.635,-4.962 -9.686,-9.473 -15.021,-13.675 -12.219,-9.627 -25.639,-17.053 -40.347,-22.138 -6.893,-2.382 -13.927,-4.224 -21.11,-5.482 -7.55,-1.322 -15.169,-1.421 -22.8,-1.171 -2.539,0.083 -5.074,0.185 -7.575,0.753 -1.142,0.26 -2.349,0.229 -3.527,0.33 -0.347,0.03 -1.057,-0.581 -1.055,-0.909 0.008,-1.185 -0.001,-2.371 0.048,-3.554 0.239,-5.788 -0.36,-11.495 -1.495,-17.168 -1.884,-9.415 -5.587,-18.103 -10.5,-26.291 -9.21,-15.352 -21.626,-27.722 -35.903,-38.337 -0.54,-0.401 -1.103,-0.873 -1.727,-1.039 -1.527,-0.404 -2.702,-1.353 -3.975,-2.192 -5.657,-3.727 -11.482,-7.199 -16.943,-11.223 -0.136,-0.1 -0.281,-0.19 -0.429,-0.273 -6.365,-3.583 -12.024,-8.212 -18.09,-12.239 -0.38,-0.252 -0.578,-0.777 -0.98,-1.342 1.389,-0.489 2.638,-0.915 3.914,-1.287 4.07,-1.187 8.032,-2.656 11.836,-4.547 8.568,-4.258 16.374,-9.575 22.973,-16.551 1.776,-1.877 3.775,-3.381 6.102,-4.477 1.378,-0.649 2.732,-1.351 4.121,-1.978 10.191,-4.6 20.984,-6.496 32.062,-6.983 10.735,-0.472 21.337,0.811 31.75,3.27 21.768,5.141 41.469,14.63 58.709,28.965 11.057,9.193 20.298,19.922 26.707,32.92 0.373,0.757 0.806,1.491 1.266,2.199 0.609,0.937 2.181,1.227 3.197,0.639 0.903,-0.523 1.471,-1.698 1.178,-2.58 -0.319,-0.963 -0.652,-1.927 -1.075,-2.846 -2.058,-4.475 -4.505,-8.729 -7.326,-12.767 -7.152,-10.24 -15.918,-18.906 -25.871,-26.39 -16.201,-12.183 -34.237,-20.512 -53.901,-25.285 -9.74,-2.364 -19.637,-3.687 -29.697,-3.459 -1.694,0.039 -3.39,0.026 -5.083,0.098 -7.481,0.316 -14.824,1.476 -21.937,3.853 -2.886,0.964 -5.701,2.14 -8.547,3.224 -0.648,0.247 -1.29,0.372 -1.807,0.425 M 15.511,225.349 c 0.114,0.298 0.394,0.658 0.311,0.883 -0.291,0.788 -0.663,1.555 -1.083,2.285 -11.537,19.999 -19.041,41.491 -23.766,64.023 -1.808,8.626 -3.223,17.302 -4.123,26.076 -0.9,8.773 -1.54,17.554 -1.484,26.371 0.053,8.475 0.61,16.92 1.527,25.352 1.341,12.33 3.785,24.424 7.35,36.289 3.767,12.539 8.819,24.534 15.535,35.798 0.78,1.308 1.637,2.571 2.464,3.851 1.103,1.707 2.783,2.508 4.709,2.598 1.85,0.087 3.724,-0.041 5.572,-0.227 8.485,-0.855 16.592,-3.237 24.555,-6.184 10.833,-4.009 21.142,-9.125 31.139,-14.872 16.649,-9.571 32.122,-20.803 46.664,-33.334 10.931,-9.419 21.138,-19.56 30.523,-30.525 6.734,-7.869 12.872,-16.167 18.217,-25.045 0.522,-0.867 1.134,-1.682 1.731,-2.501 0.053,-0.072 0.322,-0.034 0.466,0.02 0.115,0.043 0.278,0.186 0.277,0.284 -0.016,1.691 0.035,3.39 -0.103,5.073 -0.432,5.249 -0.416,10.485 0.018,15.737 0.307,3.713 0.563,7.422 1.019,11.128 1.059,8.588 2.732,17.05 4.794,25.44 4.419,17.98 10.719,35.303 18.323,52.168 8.311,18.432 18.25,35.935 29.865,52.484 9.369,13.348 19.709,25.88 31.482,37.188 8.331,8.002 17.239,15.285 27.163,21.257 1.595,0.96 3.216,1.885 4.872,2.733 1.094,0.561 2.275,0.612 3.434,0.069 0.611,-0.286 1.213,-0.622 1.856,-0.809 8.289,-2.405 15.374,-7.006 22.123,-12.185 8.78,-6.737 16.468,-14.615 23.581,-23.057 9.856,-11.697 18.314,-24.378 25.968,-37.592 18.042,-31.148 30.959,-64.337 39.21,-99.351 2.214,-9.398 3.951,-18.901 5.157,-28.479 0.655,-5.202 1.358,-10.415 1.489,-15.68 0.046,-1.848 0.393,-3.69 0.633,-5.532 0.056,-0.426 0.351,-0.577 0.695,-0.469 0.155,0.049 0.354,0.065 0.452,0.172 0.227,0.247 0.445,0.52 0.598,0.818 4.054,7.884 9.393,14.887 14.932,21.749 13.492,16.713 29.099,31.215 46.308,44.006 20.786,15.451 43.233,27.896 67.516,36.978 7.459,2.789 15.03,5.218 22.73,7.246 0.654,0.173 1.305,0.372 1.97,0.486 1.559,0.269 2.897,0.002 4.247,-1.046 5.047,-3.919 8.813,-8.862 11.983,-14.331 4.703,-8.116 8.049,-16.797 10.519,-25.807 2.6,-9.482 4.42,-19.12 5.537,-28.906 1.366,-11.975 1.944,-23.972 1.73,-36.016 -0.148,-8.307 -0.833,-16.574 -1.649,-24.84 -0.95,-9.618 -2.424,-19.151 -4.359,-28.612 -3.059,-14.96 -7.143,-29.618 -13.096,-43.718 -2.243,-5.313 -4.797,-10.468 -7.542,-15.534 -0.482,-0.89 -0.967,-1.78 -1.427,-2.682 -0.197,-0.385 -0.076,-0.675 0.278,-0.812 0.15,-0.059 0.312,-0.153 0.46,-0.14 0.334,0.029 0.673,0.083 0.993,0.18 9.916,2.992 20.013,5.002 30.339,5.968 10.299,0.963 20.61,1.749 30.947,1.321 7.609,-0.315 15.223,-0.563 22.823,-1.342 12.658,-1.298 25.172,-3.329 37.514,-6.382 11.033,-2.729 21.792,-6.291 32.075,-11.193 3.826,-1.823 7.568,-3.803 11.122,-6.12 0.847,-0.552 1.664,-1.168 2.426,-1.833 0.647,-0.564 1.071,-1.312 1.154,-2.195 0.809,-8.623 1.023,-17.217 -0.205,-25.848 -2.042,-14.361 -6.277,-28.078 -11.831,-41.403 C 727.166,115.062 715.222,95.031 700.465,76.711 691.082,65.063 680.72,54.369 668.764,45.3 661.991,40.162 654.847,35.653 647,32.315 c -0.613,-0.26 -1.242,-0.564 -1.738,-0.994 -0.547,-0.474 -0.585,-1.194 -0.345,-1.869 0.106,-0.298 0.283,-0.631 0.529,-0.804 0.241,-0.169 0.633,-0.264 0.92,-0.205 11.068,2.277 22.202,2.192 33.378,1.033 26.021,-2.698 50.744,-10.07 74.517,-20.787 9.904,-4.465 19.355,-9.769 28.071,-16.302 3.801,-2.85 7.446,-5.886 10.64,-9.422 0.794,-0.879 1.577,-1.774 2.299,-2.712 0.748,-0.972 1.089,-2.104 0.941,-3.341 -0.483,-4.039 -1.263,-8.004 -2.584,-11.873 -4.55,-13.332 -11.976,-25.007 -20.622,-35.977 -9.365,-11.881 -19.921,-22.626 -31.239,-32.644 -21.307,-18.857 -44.797,-34.494 -70.035,-47.556 -10.693,-5.534 -21.703,-10.34 -33.072,-14.315 -0.953,-0.333 -1.913,-0.669 -2.818,-1.11 -0.512,-0.25 -0.455,-0.771 -0.088,-1.326 5.52,-0.207 11.034,-1.044 16.541,-2.023 8.875,-1.578 17.451,-4.152 25.804,-7.48 11.069,-4.411 21.499,-10.007 30.932,-17.328 3.207,-2.489 6.198,-5.257 9.267,-7.922 0.636,-0.553 1.216,-1.183 1.758,-1.831 1.201,-1.438 1.466,-3.044 0.569,-4.721 -1.197,-2.24 -2.441,-4.457 -3.702,-6.663 -14.922,-26.103 -31.987,-50.709 -51.409,-73.675 -10.404,-12.302 -21.321,-24.124 -32.895,-35.331 -28.246,-27.355 -59.288,-51.044 -93.239,-70.894 -32.594,-19.056 -66.915,-34.188 -103.025,-45.245 -17.334,-5.307 -34.897,-9.667 -52.714,-13.034 -9.653,-1.823 -19.343,-3.41 -29.08,-4.643 -8.733,-1.105 -17.499,-1.941 -26.291,-2.567 -12.683,-0.904 -25.374,-1.445 -38.08,-1.363 -9.146,0.059 -18.295,0.429 -27.431,0.889 -5.915,0.297 -11.803,1.093 -17.714,1.506 -7.273,0.508 -14.491,1.497 -21.695,2.52 -8.209,1.167 -16.396,2.545 -24.537,4.118 -16.295,3.149 -32.397,7.121 -48.292,11.916 -25.013,7.546 -49.284,16.987 -72.824,28.33 -30.939,14.907 -60.006,32.844 -87.253,53.734 -14.4,11.041 -28.132,22.863 -41.25,35.41 -28.294,27.061 -53.079,57.017 -74.366,89.868 -20.159,31.11 -36.67,64.05 -49.555,98.817 -7.661,20.673 -13.915,41.759 -18.815,63.244 -2.673,11.721 -4.983,23.521 -6.634,35.439 -0.766,5.535 -1.517,11.072 -2.265,16.61 -0.09,0.669 -0.167,1.348 -0.162,2.022 0.009,1.39 0.409,2.672 1.261,3.787 0.308,0.403 0.62,0.814 0.99,1.157 5.582,5.176 10.591,10.984 17.01,15.24 1.962,1.3 3.729,2.895 5.568,4.342 0.691,1.688 0.272,3.401 0.249,5.069 -0.025,1.874 0.637,3.268 2.151,4.319 3.485,2.418 7.1,4.625 10.911,6.482 4.416,2.151 8.89,4.183 13.661,5.448 0.805,0.213 1.653,0.264 2.482,0.385 0.405,0.059 0.984,-0.484 1.034,-0.927 0.019,-0.168 0.069,-0.338 0.058,-0.504 -0.308,-4.598 0.951,-3.544 3.903,-2.172 8.177,3.802 16.681,6.632 25.523,8.346 6.981,1.353 14.017,2.47 21.155,2.559 5.59,0.07 11.181,0.05 16.771,-0.014 3.218,-0.038 6.424,-0.28 9.614,-0.813 1.649,-0.275 3.359,-0.187 5.042,-0.24 0.058,-0.002 0.149,0.24 0.179,0.378 0.035,0.156 0.089,0.394 0.01,0.476 -0.35,0.363 -0.708,0.742 -1.13,1.011 -18.08,11.534 -33.067,26.381 -46.074,43.292 -16.045,20.861 -28.246,43.798 -36.559,68.78 -3.16,9.495 -5.544,19.197 -7.198,29.063 -1.037,6.184 -1.465,12.445 -1.952,18.694 -0.228,2.918 0.303,5.742 0.913,8.557 0.332,1.533 1.145,2.831 2.454,3.741 1.25,0.869 2.517,1.72 3.821,2.504 8.02,4.824 16.593,8.445 25.401,11.522 10.406,3.635 21.061,6.324 31.892,8.385 8.495,1.617 17.043,2.877 25.643,3.562 9.451,0.754 18.931,1.438 28.431,1.004 9.816,-0.448 19.619,-1.109 29.308,-2.858 7.843,-1.415 15.546,-3.38 22.987,-6.287 0.63,-0.246 1.272,-0.464 2.37,-0.871 0.596,-0.22 0.731,-0.263 0.865,-0.306 0.022,0.141 0.108,0.317 0.054,0.418 -0.194,0.364 -0.444,0.354 -0.684,0.006"
       style="fill:#d2451e;fill-opacity:1;fill-rule:nonzero;stroke:none"
       transform="matrix(1.3333333,0,0,-1.3333333,14924.238,785.0208)"
       clip-path="url(#clipPath725)" />
    <path
       id="path726"
       d="m 0,0 c -0.739,-0.924 -1.273,-1.557 -1.834,-2.165 -0.076,-0.082 -0.341,-0.101 -0.435,-0.033 -0.256,0.182 -0.628,0.402 -0.667,0.652 -0.219,1.377 0.306,2.648 0.766,3.894 0.523,1.418 1.116,2.82 1.8,4.167 2.678,5.267 4.62,10.805 6.235,16.473 0.134,0.471 0.458,0.891 0.719,1.321 0.425,0.701 1.484,1.12 2.174,0.879 0.793,-0.276 1.412,-1.127 1.307,-1.95 C 9.896,21.907 9.83,20.526 9.41,19.27 8.451,16.404 7.371,13.573 6.215,10.779 4.665,7.033 2.425,3.665 0,0"
       style="fill:#d2451e;fill-opacity:1;fill-rule:nonzero;stroke:none"
       transform="matrix(1.3333333,0,0,-1.3333333,15428.335,929.87587)"
       clip-path="url(#clipPath727)" />
    <path
       id="path728"
       d="m 0,0 c -0.396,7.692 0.834,14.653 3.855,21.224 5.772,12.555 15.186,21.001 28.625,24.645 4.921,1.335 9.954,1.981 15.077,1.167 0.995,-0.158 2.015,-0.21 3.025,-0.22 2.224,-0.021 4.338,-0.532 6.464,-1.153 C 72.3,41.206 84.672,27.978 87.567,12.052 90.474,-3.939 86.481,-17.865 74.819,-29.279 67.702,-36.244 59.033,-40.19 49.049,-41.176 38.556,-42.211 28.801,-40.076 20.023,-34.233 9.673,-27.343 3.228,-17.718 0.81,-5.473 0.483,-3.815 0.281,-2.132 0,0"
       style="fill:#d2451e;fill-opacity:1;fill-rule:nonzero;stroke:none"
       transform="matrix(1.3333333,0,0,-1.3333333,15259.689,296.95853)"
       clip-path="url(#clipPath729)" />
    <path
       id="path730"
       d="m 0,0 c 0.928,0.132 1.453,0.136 1.93,0.29 4.681,1.514 9.367,1.157 13.999,-0.103 13.254,-3.605 21.75,-12.24 25.115,-25.386 4.793,-18.723 -6.677,-36.843 -24.814,-41.634 -18.792,-4.964 -37.561,6.944 -42.09,24.851 -4.782,18.911 6.35,36.207 22.505,41.104 C -2.385,-0.584 -1.403,-0.331 0,0"
       style="fill:#d2451e;fill-opacity:1;fill-rule:nonzero;stroke:none"
       transform="matrix(1.3333333,0,0,-1.3333333,14903.304,567.1776)"
       clip-path="url(#clipPath731)" />
    <path
       id="path732"
       d="m 0,0 c -0.797,-0.396 -1.267,-0.589 -1.727,-0.805 -6.494,-3.066 -13.352,-3.606 -20.356,-2.763 -3.891,0.467 -7.596,1.736 -11.044,3.599 -11.041,5.964 -17.413,15.183 -19.243,27.618 -2.047,13.902 4.983,28.36 16.898,35.547 C -17.583,75.448 12,67.71 18.793,40.981 22.782,25.284 15.512,10.047 3.815,2.278 2.689,1.53 1.495,0.885 0,0"
       style="fill:#d2451e;fill-opacity:1;fill-rule:nonzero;stroke:none"
       transform="matrix(1.3333333,0,0,-1.3333333,15070.091,436.2388)"
       clip-path="url(#clipPath733)" />
    <path
       id="path734"
       d="m 0,0 c 2.62,0.436 4.793,0.754 6.949,1.164 3.826,0.728 7.53,1.903 11.221,3.13 2.397,0.797 4.77,1.763 7.371,1.682 C 26.047,5.96 26.551,5.894 27.055,5.845 27.413,5.809 27.972,5.128 27.958,4.762 27.946,4.426 28.028,4.06 27.92,3.76 27.462,2.489 26.971,1.229 26.447,-0.017 26.044,-0.976 25.384,-1.738 24.466,-2.258 21.368,-4.012 18.19,-5.439 14.638,-6.185 9.169,-7.333 3.662,-8.327 -1.87,-8.846 c -9.791,-0.918 -19.609,-0.915 -29.29,1.319 -0.489,0.113 -0.987,0.239 -1.442,0.445 -0.818,0.37 -1.376,1.027 -1.46,1.925 -0.177,1.876 -0.01,3.707 0.904,5.419 0.535,1.003 1.345,1.478 2.456,1.447 0.675,-0.019 1.359,-0.039 2.022,-0.154 2.827,-0.49 5.644,-1.034 8.472,-1.517 0.998,-0.171 2.016,-0.299 3.027,-0.319 C -11.604,-0.388 -6.022,-0.743 0,0"
       style="fill:#d2451e;fill-opacity:1;fill-rule:nonzero;stroke:none"
       transform="matrix(1.3333333,0,0,-1.3333333,15209.955,440.73453)"
       clip-path="url(#clipPath735)" />
    <path
       id="path736"
       d="m 0,0 c -1.365,-0.762 -2.388,-1.37 -3.476,-1.817 -6.983,-2.87 -13.864,1.634 -16.284,6.593 -3.363,6.89 -0.3,15.452 6.837,18.168 7.235,2.754 14.46,-0.645 16.946,-7.62 C 4.08,15.165 4.105,14.995 4.166,14.837 6.201,9.51 5.102,4.879 1.075,0.899 0.834,0.661 0.567,0.451 0,0"
       style="fill:#d2451e;fill-opacity:1;fill-rule:nonzero;stroke:none"
       transform="matrix(1.3333333,0,0,-1.3333333,15345.037,742.36813)"
       clip-path="url(#clipPath737)" />
  </g>
</svg>
