<?xml version="1.0" encoding="UTF-8" standalone="no"?>
<!-- Created with Inkscape (http://www.inkscape.org/) -->

<svg
   version="1.1"
   id="svg1"
   width="1440"
   height="1440"
   viewBox="0 0 1440 1440"
   xmlns="http://www.w3.org/2000/svg"
   xmlns:svg="http://www.w3.org/2000/svg">
  <defs
     id="defs1">
    <clipPath
       clipPathUnits="userSpaceOnUse"
       id="clipPath427">
      <path
         d="M 0,1080 H 1080 V 0 H 0 Z"
         transform="translate(-656.33094,-685.80712)"
         id="path427" />
    </clipPath>
    <clipPath
       clipPathUnits="userSpaceOnUse"
       id="clipPath429">
      <path
         d="M 0,1080 H 1080 V 0 H 0 Z"
         transform="translate(-646.91049,-101.1297)"
         id="path429" />
    </clipPath>
    <clipPath
       clipPathUnits="userSpaceOnUse"
       id="clipPath431">
      <path
         d="M 0,1080 H 1080 V 0 H 0 Z"
         transform="translate(-443.90874,-206.69701)"
         id="path431" />
    </clipPath>
    <clipPath
       clipPathUnits="userSpaceOnUse"
       id="clipPath433">
      <path
         d="M 0,1080 H 1080 V 0 H 0 Z"
         transform="translate(-323.98973,-746.91112)"
         id="path433" />
    </clipPath>
    <clipPath
       clipPathUnits="userSpaceOnUse"
       id="clipPath435">
      <path
         d="M 0,1080 H 1080 V 0 H 0 Z"
         transform="translate(-798.12302,-242.26651)"
         id="path435" />
    </clipPath>
    <clipPath
       clipPathUnits="userSpaceOnUse"
       id="clipPath437">
      <path
         d="M 0,1080 H 1080 V 0 H 0 Z"
         transform="translate(-394.24171,-929.36303)"
         id="path437" />
    </clipPath>
    <clipPath
       clipPathUnits="userSpaceOnUse"
       id="clipPath439">
      <path
         d="M 0,1080 H 1080 V 0 H 0 Z"
         transform="translate(-309.24841,-177.11933)"
         id="path439" />
    </clipPath>
    <clipPath
       clipPathUnits="userSpaceOnUse"
       id="clipPath441">
      <path
         d="M 0,1080 H 1080 V 0 H 0 Z"
         transform="translate(-715.42389,-170.20208)"
         id="path441" />
    </clipPath>
    <clipPath
       clipPathUnits="userSpaceOnUse"
       id="clipPath443">
      <path
         d="M 0,1080 H 1080 V 0 H 0 Z"
         transform="translate(-301.06561,-862.24412)"
         id="path443" />
    </clipPath>
    <clipPath
       clipPathUnits="userSpaceOnUse"
       id="clipPath445">
      <path
         d="M 0,1080 H 1080 V 0 H 0 Z"
         transform="translate(-886.32055,-565.61581)"
         id="path445" />
    </clipPath>
    <clipPath
       clipPathUnits="userSpaceOnUse"
       id="clipPath447">
      <path
         d="M 0,1080 H 1080 V 0 H 0 Z"
         transform="translate(-995.2831,-860.10482)"
         id="path447" />
    </clipPath>
    <clipPath
       clipPathUnits="userSpaceOnUse"
       id="clipPath449">
      <path
         d="M 0,1080 H 1080 V 0 H 0 Z"
         transform="translate(-904.78742,-397.54121)"
         id="path449" />
    </clipPath>
    <clipPath
       clipPathUnits="userSpaceOnUse"
       id="clipPath451">
      <path
         d="M 0,1080 H 1080 V 0 H 0 Z"
         transform="translate(-1035.7081,-485.79751)"
         id="path451" />
    </clipPath>
    <clipPath
       clipPathUnits="userSpaceOnUse"
       id="clipPath453">
      <path
         d="M 0,1080 H 1080 V 0 H 0 Z"
         transform="translate(-986.06245,-602.89292)"
         id="path453" />
    </clipPath>
    <clipPath
       clipPathUnits="userSpaceOnUse"
       id="clipPath455">
      <path
         d="M 0,1080 H 1080 V 0 H 0 Z"
         transform="translate(-979.26332,-736.51212)"
         id="path455" />
    </clipPath>
    <clipPath
       clipPathUnits="userSpaceOnUse"
       id="clipPath457">
      <path
         d="M 0,1080 H 1080 V 0 H 0 Z"
         transform="translate(-28.596676,-617.65252)"
         id="path457" />
    </clipPath>
    <clipPath
       clipPathUnits="userSpaceOnUse"
       id="clipPath459">
      <path
         d="M 0,1080 H 1080 V 0 H 0 Z"
         transform="translate(-89.020802,-375.60771)"
         id="path459" />
    </clipPath>
    <clipPath
       clipPathUnits="userSpaceOnUse"
       id="clipPath461">
      <path
         d="M 0,1080 H 1080 V 0 H 0 Z"
         transform="translate(-155.48963,-500.31622)"
         id="path461" />
    </clipPath>
    <clipPath
       clipPathUnits="userSpaceOnUse"
       id="clipPath463">
      <path
         d="M 0,1080 H 1080 V 0 H 0 Z"
         transform="translate(-143.6835,-734.92832)"
         id="path463" />
    </clipPath>
    <clipPath
       clipPathUnits="userSpaceOnUse"
       id="clipPath465">
      <path
         d="M 0,1080 H 1080 V 0 H 0 Z"
         transform="translate(-137.67158,-839.20842)"
         id="path465" />
    </clipPath>
    <clipPath
       clipPathUnits="userSpaceOnUse"
       id="clipPath467">
      <path
         d="M 0,1080 H 1080 V 0 H 0 Z"
         transform="translate(-950.71975,-257.29073)"
         id="path467" />
    </clipPath>
    <clipPath
       clipPathUnits="userSpaceOnUse"
       id="clipPath469">
      <path
         d="M 0,1080 H 1080 V 0 H 0 Z"
         transform="translate(-191.37458,-313.95001)"
         id="path469" />
    </clipPath>
    <clipPath
       clipPathUnits="userSpaceOnUse"
       id="clipPath471">
      <path
         d="M 0,1080 H 1080 V 0 H 0 Z"
         transform="translate(-965.36822,-662.18801)"
         id="path471" />
    </clipPath>
    <clipPath
       clipPathUnits="userSpaceOnUse"
       id="clipPath473">
      <path
         d="M 0,1080 H 1080 V 0 H 0 Z"
         transform="translate(-77.571002,-674.26292)"
         id="path473" />
    </clipPath>
    <clipPath
       clipPathUnits="userSpaceOnUse"
       id="clipPath475">
      <path
         d="M 0,1080 H 1080 V 0 H 0 Z"
         transform="translate(-929.03642,-771.84932)"
         id="path475" />
    </clipPath>
    <clipPath
       clipPathUnits="userSpaceOnUse"
       id="clipPath477">
      <path
         d="M 0,1080 H 1080 V 0 H 0 Z"
         transform="translate(-964.02775,-553.38952)"
         id="path477" />
    </clipPath>
    <clipPath
       clipPathUnits="userSpaceOnUse"
       id="clipPath479">
      <path
         d="M 0,1080 H 1080 V 0 H 0 Z"
         transform="translate(-908.8843,-441.67641)"
         id="path479" />
    </clipPath>
    <clipPath
       clipPathUnits="userSpaceOnUse"
       id="clipPath481">
      <path
         d="M 0,1080 H 1080 V 0 H 0 Z"
         transform="translate(-909.50972,-865.19332)"
         id="path481" />
    </clipPath>
    <clipPath
       clipPathUnits="userSpaceOnUse"
       id="clipPath483">
      <path
         d="M 0,1080 H 1080 V 0 H 0 Z"
         transform="translate(-148.09613,-773.13562)"
         id="path483" />
    </clipPath>
    <clipPath
       clipPathUnits="userSpaceOnUse"
       id="clipPath485">
      <path
         d="M 0,1080 H 1080 V 0 H 0 Z"
         transform="translate(-166.52093,-358.53451)"
         id="path485" />
    </clipPath>
    <clipPath
       clipPathUnits="userSpaceOnUse"
       id="clipPath487">
      <path
         d="M 0,1080 H 1080 V 0 H 0 Z"
         transform="translate(-884.98435,-358.94601)"
         id="path487" />
    </clipPath>
    <clipPath
       clipPathUnits="userSpaceOnUse"
       id="clipPath489">
      <path
         d="M 0,1080 H 1080 V 0 H 0 Z"
         transform="translate(-92.161877,-553.62851)"
         id="path489" />
    </clipPath>
    <clipPath
       clipPathUnits="userSpaceOnUse"
       id="clipPath491">
      <path
         d="M 0,1080 H 1080 V 0 H 0 Z"
         transform="translate(-155.3115,-454.69351)"
         id="path491" />
    </clipPath>
    <clipPath
       clipPathUnits="userSpaceOnUse"
       id="clipPath493">
      <path
         d="M 0,1080 H 1080 V 0 H 0 Z"
         transform="translate(-226.74833,-283.52971)"
         id="path493" />
    </clipPath>
    <clipPath
       clipPathUnits="userSpaceOnUse"
       id="clipPath495">
      <path
         d="M 0,1080 H 1080 V 0 H 0 Z"
         transform="translate(-550.23669,-578.99791)"
         id="path495" />
    </clipPath>
    <clipPath
       clipPathUnits="userSpaceOnUse"
       id="clipPath497">
      <path
         d="M 0,1080 H 1080 V 0 H 0 Z"
         transform="translate(-612.24159,-504.21172)"
         id="path497" />
    </clipPath>
    <clipPath
       clipPathUnits="userSpaceOnUse"
       id="clipPath499">
      <path
         d="M 0,1080 H 1080 V 0 H 0 Z"
         transform="translate(-639.24444,-543.87941)"
         id="path499" />
    </clipPath>
    <clipPath
       clipPathUnits="userSpaceOnUse"
       id="clipPath501">
      <path
         d="M 0,1080 H 1080 V 0 H 0 Z"
         transform="translate(-619.11032,-602.33471)"
         id="path501" />
    </clipPath>
    <clipPath
       clipPathUnits="userSpaceOnUse"
       id="clipPath503">
      <path
         d="M 0,1080 H 1080 V 0 H 0 Z"
         transform="translate(-657.57069,-502.97111)"
         id="path503" />
    </clipPath>
    <clipPath
       clipPathUnits="userSpaceOnUse"
       id="clipPath505">
      <path
         d="M 0,1080 H 1080 V 0 H 0 Z"
         transform="translate(-521.62741,-640.74662)"
         id="path505" />
    </clipPath>
    <clipPath
       clipPathUnits="userSpaceOnUse"
       id="clipPath507">
      <path
         d="M 0,1080 H 1080 V 0 H 0 Z"
         transform="translate(-522.04531,-561.20731)"
         id="path507" />
    </clipPath>
    <clipPath
       clipPathUnits="userSpaceOnUse"
       id="clipPath509">
      <path
         d="M 0,1080 H 1080 V 0 H 0 Z"
         transform="translate(-560.82549,-632.25892)"
         id="path509" />
    </clipPath>
    <clipPath
       clipPathUnits="userSpaceOnUse"
       id="clipPath511">
      <path
         d="M 0,1080 H 1080 V 0 H 0 Z"
         transform="translate(-636.73239,-616.52261)"
         id="path511" />
    </clipPath>
    <clipPath
       clipPathUnits="userSpaceOnUse"
       id="clipPath513">
      <path
         d="M 0,1080 H 1080 V 0 H 0 Z"
         transform="translate(-575.75041,-496.80431)"
         id="path513" />
    </clipPath>
  </defs>
  <g
     id="layer-MC0"
     style="display:none"
     transform="translate(-7300)">
    <path
       id="path425"
       d="M 0,0 H 1080 V 1080 H 0 Z"
       style="fill:#d2451e;fill-opacity:1;fill-rule:nonzero;stroke:none"
       transform="matrix(1.3333333,0,0,-1.3333333,7300,1440)" />
  </g>
  <g
     id="layer-MC1"
     transform="translate(-7300)">
    <path
       id="path426"
       d="m 0,0 c 1.93,0.48 3.884,0.879 5.786,1.453 6.849,2.07 13.441,4.743 19.525,8.568 3.379,2.126 6.578,4.483 9.419,7.3 0.47,0.466 0.935,0.947 1.323,1.478 0.159,0.216 0.223,0.635 0.121,0.873 -0.101,0.234 -0.467,0.504 -0.714,0.502 C 31.153,20.13 26.847,20.046 22.51,19.971 21.471,19.01 20.481,18.138 19.54,17.217 15.241,13.007 10.414,9.525 5.071,6.77 -2.977,2.622 -11.526,0.121 -20.526,-0.821 c -3.463,-0.363 -6.935,-0.634 -10.401,-0.972 -0.305,-0.03 -0.591,-0.247 -1.237,-0.531 C -21.368,-3.236 -11.042,-2.422 0,0 m -139.817,-5.577 c 6.317,1.39 12.499,3.206 18.453,5.766 9.221,3.965 17.567,9.24 24.681,16.373 0.464,0.465 0.867,0.992 1.276,1.508 0.086,0.108 0.099,0.294 0.101,0.444 0.003,0.408 -0.205,0.645 -0.592,0.659 -3.641,0.138 -7.265,-0.089 -10.958,-0.445 -0.96,-0.897 -1.928,-1.795 -2.89,-2.7 -3.632,-3.413 -7.564,-6.434 -11.792,-9.073 -10.987,-6.857 -22.969,-10.884 -35.745,-12.754 -4.437,-0.65 -8.887,-0.972 -13.354,-1.151 -1.374,-0.055 -2.574,-0.344 -3.628,-1.292 -0.197,-0.177 -0.914,0.011 -1.237,0.243 -0.39,0.281 -0.217,1.559 0.151,1.776 0.134,0.079 0.319,0.079 0.483,0.102 0.157,0.022 0.391,0.103 0.464,0.03 1.142,-1.141 2.595,-1.301 4.1,-1.421 9.972,-0.796 19.853,-0.176 30.487,1.935 m -0.911,-214.149 c -2.216,2.9 -4.458,5.78 -6.645,8.703 -23.338,31.198 -43.243,64.421 -58.993,100.09 -10.677,24.18 -19.36,49.028 -24.962,74.897 -2.037,9.406 -3.573,18.893 -4.637,28.464 -0.55,4.954 -0.873,9.912 -1.094,14.884 -0.037,0.828 -0.138,1.652 -0.207,2.478 -0.05,0.594 -0.8,1.264 -1.337,1.24 -1.663,-0.076 -3.278,-0.319 -4.776,-1.208 -0.447,-1.999 -0.204,-3.992 -0.041,-5.96 0.437,-5.288 0.927,-10.573 1.482,-15.851 1.145,-10.901 3.205,-21.645 5.689,-32.311 4.485,-19.256 10.584,-38 17.938,-56.341 13.57,-33.844 30.766,-65.758 51.203,-95.94 18.662,-27.562 39.679,-53.164 63.625,-76.321 15.784,-15.264 32.765,-29.044 51.112,-41.127 0.97,-0.638 1.92,-1.312 2.928,-1.885 0.561,-0.319 1.226,-0.663 1.837,-0.651 2.646,0.049 5.289,0.221 7.933,0.366 0.103,0.006 0.232,0.174 0.288,0.295 0.171,0.364 0.055,0.646 -0.283,0.864 -0.973,0.628 -1.925,1.29 -2.911,1.897 -6.507,4.007 -12.721,8.429 -18.722,13.154 -6.649,5.236 -13.145,10.656 -19.488,16.26 -21.825,19.283 -41.552,40.531 -59.939,64.003 M 35.44,-273.704 c 2.845,-8.738 4.196,-17.723 4.425,-26.889 0.104,-4.15 0.348,-8.279 1.117,-12.369 1.209,-6.429 3.34,-12.487 7.18,-17.845 4.902,-6.84 11.438,-10.901 19.935,-11.614 3.144,-0.264 6.254,-0.806 9.267,-1.761 4.979,-1.578 9.545,-3.812 12.605,-8.316 0.087,-0.127 0.266,-0.192 0.396,-0.282 0.737,0.109 1.128,0.596 1.415,1.229 1.196,2.623 3.145,4.636 5.225,6.569 2.845,2.645 6.185,4.421 9.761,5.821 1.697,0.665 3.427,1.262 5.072,2.037 5.593,2.631 9.082,7.058 10.812,12.934 1.339,4.553 1.405,9.173 0.462,13.78 -0.53,2.59 -1.297,5.14 -2.107,7.66 -1.977,6.151 -4.07,12.265 -6.058,18.413 -0.815,2.522 -1.516,5.082 -2.205,7.642 -1.138,4.227 -1.333,8.499 -0.495,12.809 0.347,1.788 0.696,3.576 0.966,5.376 0.067,0.45 -0.132,0.958 -0.278,1.417 -0.195,0.611 -1.214,0.937 -1.638,0.548 -0.974,-0.894 -1.904,-1.838 -2.901,-2.705 -4.926,-4.284 -10.639,-5.976 -17.08,-4.938 -3.975,0.64 -7.645,2.134 -10.958,4.472 -3.139,2.216 -5.965,4.74 -8.234,7.866 -0.477,0.657 -1.056,1.253 -1.663,1.793 -0.171,0.152 -0.793,0.123 -0.893,-0.03 -0.541,-0.823 -1.022,-1.693 -1.451,-2.581 -1.385,-2.869 -3.18,-5.44 -5.521,-7.603 -4.588,-4.238 -9.966,-6.438 -16.267,-6.25 -4.408,0.132 -8.477,1.414 -12.288,3.566 -0.864,0.488 -1.65,1.112 -2.486,1.649 -0.271,0.175 -0.584,0.296 -0.892,0.4 -0.125,0.042 -0.304,0.008 -0.431,-0.052 -0.366,-0.174 -0.519,-0.492 -0.326,-0.822 2.087,-3.573 4.212,-7.125 5.534,-11.924 m -154.386,-88.437 c 5.839,2.951 9.417,7.737 11.102,13.955 0.914,3.37 1.278,6.822 0.964,10.342 -0.401,4.497 -1.635,8.773 -3.034,13.036 -2.789,8.498 -5.472,17.03 -8.206,25.545 -1.768,5.504 -1.716,11.095 -0.817,16.726 0.235,1.472 0.564,2.93 0.786,4.404 0.072,0.475 0.057,1.035 -0.135,1.458 -0.179,0.395 -0.603,0.741 -1.003,0.95 -0.221,0.115 -0.706,0.009 -0.91,-0.176 -0.981,-0.889 -1.871,-1.878 -2.859,-2.76 -4.393,-3.922 -9.509,-5.937 -15.439,-5.757 -4.931,0.15 -9.451,1.674 -13.596,4.266 -3.823,2.39 -7.179,5.337 -9.874,8.988 -0.196,0.267 -0.36,0.558 -0.559,0.822 -1.643,2.178 -2.258,2.154 -3.376,-0.131 -0.436,-0.893 -0.823,-1.813 -1.3,-2.683 -2.109,-3.846 -4.947,-7.037 -8.608,-9.478 -2.94,-1.961 -6.146,-3.307 -9.65,-3.743 -6.467,-0.805 -12.537,0.452 -18.115,3.878 -0.846,0.519 -1.626,1.145 -2.459,1.686 -0.266,0.173 -0.602,0.25 -0.917,0.332 -0.135,0.035 -0.317,0.007 -0.443,-0.059 -0.358,-0.187 -0.509,-0.511 -0.313,-0.82 2.661,-4.214 4.995,-8.583 6.298,-13.429 0.86,-3.199 1.79,-6.385 2.469,-9.623 1.261,-6.011 1.998,-12.092 2.048,-18.252 0.046,-5.65 0.619,-11.253 1.898,-16.767 1.323,-5.702 3.467,-11.06 6.84,-15.881 5.458,-7.804 12.823,-12.212 22.431,-12.903 4.982,-0.359 9.807,-1.615 14.334,-3.815 2.856,-1.389 5.496,-3.07 7.386,-5.721 0.379,-0.531 0.85,-0.997 1.219,-1.424 0.876,0.036 1.32,0.439 1.616,1.091 1.188,2.612 3.048,4.695 5.094,6.676 3.284,3.181 7.194,5.275 11.389,6.93 1.693,0.668 3.382,1.343 5.739,2.337 M 96.53,-37.174 c 0.995,-1.526 1.904,-3.118 3.001,-4.567 5.412,-7.153 12.607,-11.042 21.573,-11.692 4.838,-0.351 9.479,-1.54 13.881,-3.599 3.192,-1.493 6.105,-3.347 8.101,-6.369 0.179,-0.271 0.444,-0.485 0.655,-0.737 0.256,-0.305 1.1,-0.242 1.31,0.11 1.267,2.131 2.484,4.274 4.224,6.103 3.624,3.807 7.962,6.447 12.834,8.302 1.855,0.707 3.738,1.371 5.521,2.235 5.006,2.424 8.453,6.337 10.443,11.5 1.574,4.081 2.121,8.333 1.793,12.698 -0.338,4.5 -1.574,8.784 -2.974,13.049 -2.79,8.499 -5.479,17.031 -8.219,25.546 -1.824,5.668 -1.811,11.416 -0.791,17.212 0.229,1.306 0.511,2.604 0.706,3.915 0.071,0.479 0.027,1 -0.083,1.474 -0.111,0.477 -0.39,0.928 -0.944,1.009 -0.311,0.045 -0.752,0.092 -0.943,-0.077 -1.116,-0.987 -2.136,-2.081 -3.259,-3.058 -4.6,-4.001 -9.98,-5.897 -16.045,-5.443 -4.693,0.352 -9.078,1.857 -13.037,4.476 -3.766,2.49 -7.113,5.424 -9.762,9.115 -0.477,0.664 -1.064,1.25 -1.615,1.858 -0.23,0.253 -1.166,0.077 -1.33,-0.246 -0.451,-0.885 -0.887,-1.777 -1.329,-2.665 -1.491,-2.996 -3.385,-5.703 -5.834,-7.995 -4.951,-4.631 -10.784,-7.027 -17.606,-6.79 -5.083,0.177 -9.765,1.703 -14.067,4.403 -0.978,0.614 -1.939,1.255 -2.922,1.859 -0.311,0.192 -0.607,0.046 -0.769,-0.341 -0.06,-0.144 -0.101,-0.344 -0.048,-0.478 0.176,-0.452 0.334,-0.933 0.613,-1.32 2.46,-3.399 4.063,-7.193 5.354,-11.159 2.947,-9.047 4.601,-18.31 4.863,-27.821 0.055,-1.989 0.074,-3.981 0.216,-5.965 0.599,-8.333 2.117,-16.438 6.489,-24.542 m 31.051,-168.98 c 4.059,-1.665 7.691,-3.887 10.131,-7.694 0.376,-0.587 1.359,-0.522 1.648,0.09 1.219,2.577 2.85,4.832 4.897,6.834 3.381,3.307 7.311,5.682 11.717,7.334 1.862,0.698 3.734,1.39 5.53,2.234 5.207,2.449 8.789,6.456 10.782,11.821 1.639,4.414 2.226,8.985 1.659,13.697 -0.459,3.81 -1.44,7.485 -2.633,11.113 -2.072,6.297 -4.193,12.578 -6.224,18.889 -1.015,3.153 -1.86,6.361 -2.814,9.534 -0.675,2.248 -0.919,4.544 -0.921,6.878 -0.003,2.824 0.068,5.635 0.736,8.406 0.31,1.286 0.499,2.606 0.671,3.92 0.063,0.476 0.036,1.035 -0.164,1.454 -0.19,0.397 -0.618,0.741 -1.022,0.953 -0.219,0.114 -0.703,0.007 -0.904,-0.177 -0.974,-0.899 -1.853,-1.903 -2.839,-2.786 -4.111,-3.682 -8.873,-5.662 -14.459,-5.708 -5.138,-0.042 -9.825,1.361 -14.172,3.988 -3.867,2.337 -7.242,5.253 -10.002,8.854 -0.603,0.786 -1.222,1.56 -1.858,2.319 -0.458,0.546 -1.358,0.501 -1.655,-0.067 -0.615,-1.174 -1.212,-2.356 -1.819,-3.534 -1.616,-3.138 -3.784,-5.841 -6.485,-8.106 -3.238,-2.716 -6.898,-4.619 -11.09,-5.295 -7.001,-1.129 -13.524,0.229 -19.517,4.043 -0.419,0.267 -0.804,0.585 -1.208,0.875 -0.27,0.194 -0.549,0.374 -0.816,0.57 -0.419,0.309 -0.856,0.397 -1.349,0.18 -0.368,-0.162 -0.435,-0.789 -0.073,-1.311 1.99,-2.873 3.776,-5.856 4.866,-9.201 0.872,-2.678 1.801,-5.344 2.527,-8.063 2.022,-7.56 3.106,-15.256 3.254,-23.091 0.106,-5.644 0.571,-11.265 1.82,-16.789 1.444,-6.38 3.87,-12.324 7.863,-17.569 5.201,-6.831 12.001,-10.765 20.606,-11.555 4.303,-0.394 8.544,-1.154 13.317,-3.04 m -238.384,343.789 c 0.394,0.304 0.777,0.623 1.183,0.909 3.545,2.497 7.4,4.408 11.449,5.923 2.966,1.109 5.812,2.445 8.413,4.245 5.046,3.494 8.032,8.223 8.612,14.426 0.327,3.497 0.09,6.966 -0.327,10.419 -0.657,5.447 -1.898,10.762 -4.161,15.797 -4.175,9.288 -6.814,18.989 -8.098,29.096 -0.637,5.011 -0.612,9.905 0.957,14.746 0.199,0.611 0.156,1.304 0.196,1.961 0.028,0.461 -0.717,1.502 -1.135,1.48 -0.47,-0.024 -1.068,-0.101 -1.369,-0.398 -1.058,-1.044 -1.969,-2.235 -3.012,-3.295 -4.861,-4.946 -10.741,-6.93 -17.627,-6.075 -4.722,0.587 -8.925,2.432 -12.83,5.047 -3.185,2.133 -5.995,4.702 -8.581,7.524 -1.117,1.218 -2.245,2.427 -3.376,3.632 -0.289,0.307 -1.141,0.235 -1.322,-0.108 -0.462,-0.875 -0.919,-1.753 -1.359,-2.639 -1.722,-3.462 -4.048,-6.473 -6.989,-8.96 -6.429,-5.439 -13.788,-7.69 -22.183,-6.277 -4.005,0.674 -7.626,2.169 -10.808,4.716 -0.631,0.505 -1.35,0.9 -2.045,1.318 -0.07,0.042 -0.281,-0.089 -0.385,-0.185 -0.103,-0.096 -0.249,-0.311 -0.212,-0.369 1.239,-1.948 2.655,-3.802 3.725,-5.837 3.028,-5.76 5.095,-11.849 6.022,-18.325 0.658,-4.601 0.935,-9.231 1.343,-13.852 0.233,-2.64 0.394,-5.286 0.542,-7.932 0.092,-1.655 0.036,-3.319 0.16,-4.97 0.333,-4.463 0.708,-8.927 1.953,-13.253 2.364,-8.22 6.737,-15.105 13.732,-20.157 4.798,-3.465 10.1,-5.623 16.103,-5.893 2.147,-0.097 4.299,-0.341 6.421,-0.69 3.288,-0.54 6.456,-1.555 9.378,-3.164 2.931,-1.613 5.596,-3.569 7.036,-6.77 0.13,-0.29 0.378,-0.528 0.572,-0.789 0.227,-0.306 1.139,-0.395 1.348,-0.103 0.668,0.936 1.476,1.808 1.957,2.833 1.009,2.146 2.391,3.963 4.717,5.969 m 66.517,26.696 c -0.3,-0.019 -0.627,0.032 -0.892,-0.074 -0.356,-0.143 -0.366,-0.47 -0.129,-0.826 1.281,-1.927 2.738,-3.763 3.801,-5.804 3.007,-5.772 5.013,-11.879 5.885,-18.366 0.575,-4.277 0.875,-8.572 1.225,-12.865 0.243,-2.972 0.561,-5.948 0.587,-8.924 0.04,-4.492 0.441,-8.949 1.161,-13.363 1.345,-8.244 4.819,-15.491 10.867,-21.336 5.671,-5.479 12.355,-8.821 20.386,-9.149 1.982,-0.08 3.967,-0.333 5.925,-0.656 3.289,-0.543 6.458,-1.551 9.384,-3.153 2.934,-1.607 5.609,-3.552 7.047,-6.753 0.068,-0.151 0.139,-0.303 0.226,-0.443 0.475,-0.763 1.613,-0.888 2.066,-0.202 0.638,0.965 1.354,1.903 1.829,2.947 1.285,2.823 3.408,4.878 5.883,6.6 2.313,1.609 4.721,3.077 7.343,4.154 1.839,0.755 3.666,1.542 5.513,2.277 2.321,0.924 4.518,2.084 6.585,3.473 5.269,3.54 8.303,8.409 8.855,14.803 0.302,3.498 0.061,6.969 -0.372,10.419 -0.662,5.276 -1.818,10.453 -4.044,15.319 -3.606,7.887 -6.006,16.14 -7.537,24.651 -0.469,2.607 -0.764,5.251 -1.01,7.891 -0.34,3.666 0.031,7.287 1.103,10.817 0.292,0.963 0.595,1.931 0.355,2.917 -0.104,0.423 -0.497,0.912 -0.887,1.091 -0.366,0.167 -0.991,0.109 -1.343,-0.108 -0.546,-0.337 -0.973,-0.877 -1.421,-1.358 -0.903,-0.969 -1.716,-2.033 -2.689,-2.924 -4.677,-4.285 -10.197,-5.977 -16.49,-5.255 -3.508,0.403 -6.819,1.436 -9.867,3.187 -2.005,1.153 -4.004,2.378 -5.788,3.836 -2.175,1.777 -4.149,3.803 -6.156,5.776 -1.062,1.044 -2.002,2.211 -3.01,3.31 -0.448,0.488 -1.434,0.397 -1.705,-0.146 -0.518,-1.036 -0.987,-2.097 -1.535,-3.116 -2.073,-3.855 -4.864,-7.104 -8.381,-9.709 -5.118,-3.792 -10.909,-5.625 -17.24,-5.287 -5.586,0.298 -10.731,2.035 -15.53,6.349 m -18.113,-578.586 c 0.201,-3.478 0.452,-6.953 0.593,-10.432 0.161,-3.986 0.48,-7.951 1.239,-11.868 1.288,-6.644 3.99,-12.663 8.455,-17.766 6.166,-7.045 13.766,-11.278 23.355,-11.557 2.467,-0.072 4.922,-0.648 7.372,-1.054 0.811,-0.135 1.596,-0.446 2.383,-0.708 5.167,-1.72 9.755,-4.192 12.243,-9.409 0.254,-0.533 1.435,-0.612 1.74,-0.158 0.646,0.958 1.42,1.866 1.876,2.911 1.389,3.187 3.835,5.369 6.61,7.252 2.337,1.586 4.802,2.956 7.41,4.052 1.682,0.706 3.366,1.41 5.068,2.065 2.337,0.899 4.534,2.078 6.573,3.501 5.357,3.738 8.444,8.819 8.634,15.44 0.076,2.649 0.075,5.322 -0.19,7.953 -0.584,5.796 -1.756,11.487 -4.165,16.828 -4.052,8.985 -6.696,18.349 -8.096,28.1 -0.787,5.488 -0.948,10.895 0.769,16.247 0.197,0.612 0.18,1.298 0.23,1.952 0.033,0.426 -0.754,1.491 -1.173,1.473 -0.465,-0.02 -1.053,-0.116 -1.356,-0.414 -0.824,-0.808 -1.502,-1.762 -2.28,-2.62 -4.654,-5.138 -10.424,-7.428 -17.357,-6.896 -4.763,0.366 -9.019,2.088 -13.002,4.588 -3.392,2.131 -6.358,4.784 -9.075,7.716 -1.127,1.216 -2.18,2.502 -3.329,3.695 -0.313,0.325 -0.852,0.431 -1.423,0.701 -0.633,-1.236 -1.213,-2.414 -1.833,-3.57 -2.481,-4.628 -5.862,-8.451 -10.359,-11.189 -7.412,-4.513 -15.255,-5.194 -23.415,-2.354 -2.046,0.712 -3.914,1.796 -5.626,3.139 -0.648,0.508 -1.321,0.984 -1.988,1.468 -0.352,0.256 -0.69,0.206 -0.817,-0.187 -0.086,-0.266 -0.107,-0.665 0.035,-0.876 1.014,-1.514 2.236,-2.909 3.095,-4.502 2.686,-4.982 4.741,-10.209 5.809,-15.805 1.061,-5.555 1.467,-11.177 1.995,-17.716 m -231.741,326.22 c 2.498,0.889 4.989,1.794 7.493,2.661 3.469,1.2 6.686,2.873 9.726,4.927 3.154,2.131 5.251,5.03 6.381,8.616 0.495,1.571 0.849,3.205 1.08,4.837 0.636,4.483 0.163,8.943 -0.621,13.358 -1.192,6.719 -3.24,13.185 -6.112,19.382 -3.799,8.196 -6.161,16.775 -6.951,25.783 -0.306,3.483 -0.368,6.951 0.313,10.401 0.257,1.299 0.52,2.598 0.731,3.905 0.049,0.302 -0.045,0.663 -0.176,0.949 -0.132,0.288 -0.347,0.606 -0.612,0.741 -0.226,0.115 -0.687,0.107 -0.849,-0.049 -0.83,-0.8 -1.595,-1.668 -2.388,-2.508 -5.629,-5.958 -12.435,-7.866 -20.377,-5.974 -3.754,0.894 -7.211,2.46 -10.428,4.546 -4.332,2.809 -8.277,6.085 -11.662,10.007 -0.54,0.625 -1.098,1.235 -1.673,1.828 -0.597,0.616 -1.652,0.361 -2.021,-0.499 -0.458,-1.065 -0.835,-2.165 -1.32,-3.217 -1.688,-3.663 -4.034,-6.845 -7.087,-9.491 -3.596,-3.117 -7.75,-5.131 -12.446,-5.812 -6.438,-0.933 -12.549,0.215 -18.227,3.438 -1.152,0.653 -2.233,1.429 -3.364,2.119 -0.272,0.166 -0.625,0.318 -0.922,0.289 -0.256,-0.025 -0.485,-0.319 -0.8,-0.548 0.313,-0.565 0.632,-1.14 0.95,-1.715 2.329,-4.219 4.257,-8.585 5.542,-13.261 2.781,-10.122 4.138,-20.451 4.698,-30.895 0.24,-4.472 0.544,-8.935 1.088,-13.375 0.403,-3.289 1.102,-6.544 2.215,-9.673 2.263,-6.364 5.736,-11.942 11.036,-16.245 4.492,-3.647 9.531,-5.906 15.426,-6.105 3.483,-0.117 6.931,-0.67 10.28,-1.676 6.77,-2.032 12.991,-4.996 17.657,-10.559 0.182,-0.216 0.526,-0.324 0.815,-0.407 0.113,-0.033 0.362,0.105 0.419,0.226 0.346,0.739 0.683,1.484 0.971,2.246 1.389,3.669 3.762,6.614 6.782,9.038 1.154,0.927 2.49,1.626 4.433,2.712 m 125.627,-84.862 c 7.015,-11.27 14.471,-22.24 22.35,-32.923 17.568,-23.819 37.01,-45.985 58.427,-66.425 15.762,-15.043 33.038,-28.205 50.565,-41.065 0.524,-0.385 1.125,-0.665 1.788,-1.051 0.593,0.384 1.191,0.668 1.659,1.094 1.719,1.562 3.42,3.144 5.082,4.765 13.852,13.515 25.562,28.724 35.643,45.21 13.832,22.622 24.268,46.759 32.004,72.085 6.214,20.341 10.594,41.068 13.185,62.188 1.213,9.887 2.065,19.8 2.472,29.738 0.795,19.423 0.055,38.791 -2.492,58.087 -1.5,11.356 -3.547,22.597 -6.254,33.721 -1.725,7.088 -3.774,14.088 -6.02,21.029 -0.294,0.908 -0.455,1.93 -1.44,2.444 C 37.562,15.865 37.029,15.196 36.438,14.63 33.795,12.097 30.928,9.851 27.858,7.859 22.116,4.133 15.921,1.383 9.428,-0.733 1.179,-3.42 -7.322,-4.835 -15.94,-5.442 c -13.348,-0.94 -26.514,0.316 -39.399,4.007 -11.6,3.323 -22.321,8.406 -31.667,16.171 -1.015,0.844 -2.15,1.547 -3.247,2.289 -0.507,0.343 -1.359,0.186 -1.819,-0.289 -0.346,-0.357 -0.686,-0.719 -1.011,-1.094 -5.618,-6.47 -12.349,-11.52 -19.877,-15.545 -13.079,-6.993 -27.103,-10.706 -41.838,-11.671 -8.112,-0.531 -16.23,-0.34 -24.334,0.714 -12.135,1.577 -23.624,5.072 -34.479,10.715 -5.735,2.982 -11.522,5.862 -17.301,8.756 -0.4,0.2 -0.935,0.13 -1.455,0.191 -0.386,-1.034 -0.288,-2.02 -0.211,-2.988 0.333,-4.132 0.593,-8.275 1.063,-12.392 1.506,-13.195 3.961,-26.221 7.176,-39.106 6.202,-24.855 15.037,-48.766 25.802,-71.983 8.729,-18.828 18.688,-36.993 30.024,-55.23 m -146.806,24.018 c -0.208,0.35 -0.373,0.365 -0.428,0.035 -0.009,-0.055 0.2,-0.146 0.306,-0.947 1.364,-2.833 2.885,-5.581 4.009,-8.539 3.734,-9.826 5.825,-20.022 6.898,-30.432 0.543,-5.27 0.766,-10.575 1.037,-15.87 0.373,-7.261 2.318,-14.055 6.102,-20.249 6.338,-10.373 15.775,-15.781 27.785,-16.789 3.162,-0.266 6.249,-0.791 9.242,-1.79 5.168,-1.724 9.513,-4.61 12.561,-9.24 0.271,-0.411 0.608,-0.779 0.918,-1.164 0.307,-0.383 0.995,-0.32 1.2,0.139 0.47,1.053 0.937,2.109 1.354,3.184 1.435,3.692 3.847,6.503 7.303,8.483 3.315,1.898 6.742,3.546 10.256,5.025 2.442,1.028 4.938,1.936 7.334,3.059 4.695,2.2 8.076,5.647 9.908,10.596 1.231,3.326 1.768,6.703 1.576,10.231 -0.235,4.335 -1.246,8.516 -2.385,12.676 -1.883,6.878 -4.266,13.588 -6.834,20.236 -1.972,5.105 -3.585,10.321 -4.86,15.648 -0.982,4.101 -1.102,8.202 -0.357,12.328 0.352,1.951 0.873,3.872 1.284,5.813 0.136,0.642 0.185,1.303 0.242,1.958 0.054,0.635 -0.499,1.504 -1.035,1.495 -0.452,-0.008 -1.03,-0.125 -1.324,-0.421 -0.931,-0.936 -1.722,-2.009 -2.628,-2.973 -2.305,-2.453 -5.026,-4.327 -8.181,-5.502 -4.158,-1.55 -8.431,-1.653 -12.724,-0.682 -3.754,0.85 -7.217,2.421 -10.429,4.537 -3.617,2.383 -6.875,5.185 -9.784,8.398 -0.886,0.98 -1.806,1.937 -2.79,2.815 -0.306,0.273 -0.876,0.248 -1.408,0.381 -0.523,-1.132 -0.984,-2.189 -1.494,-3.221 -2.264,-4.575 -5.588,-8.187 -9.939,-10.851 -3.139,-1.923 -6.509,-3.257 -10.13,-3.956 -7.184,-1.386 -13.83,-0.15 -19.878,4.039 -0.678,0.469 -1.318,1.001 -2.029,1.411 -0.211,0.123 -0.604,-0.069 -0.678,0.139 m 7.897,296.452 c -0.254,-0.07 -0.648,-0.065 -0.736,-0.226 -0.255,-0.468 0.081,-0.742 0.693,-1.583 2.894,-4.474 5.298,-9.187 6.881,-14.29 1.477,-4.764 2.469,-9.646 3.013,-14.588 0.543,-4.94 0.818,-9.913 1.081,-14.879 0.203,-3.808 0.416,-7.608 0.834,-11.404 0.44,-4 1.432,-7.826 3.091,-11.471 3.862,-8.489 9.917,-14.813 18.56,-18.518 2.604,-1.117 5.289,-1.946 8.163,-1.968 6.488,-0.05 12.336,-2.249 17.898,-5.371 2.485,-1.395 4.715,-3.091 6.138,-5.66 0.145,-0.263 0.469,-0.428 0.711,-0.638 0.299,0.11 0.718,0.133 0.873,0.347 0.382,0.528 0.72,1.116 0.941,1.728 1.732,4.819 5.254,7.93 9.657,10.217 2.214,1.15 4.525,2.046 6.911,2.77 1.743,0.528 3.455,1.158 5.195,1.696 3.864,1.194 6.585,3.767 8.552,7.179 0.822,1.426 1.524,2.95 2.065,4.505 1.544,4.443 2.048,9.049 1.689,13.727 -0.292,3.808 -0.883,7.587 -2.062,11.227 -1.276,3.941 -2.685,7.839 -4.086,11.738 -1.288,3.587 -2.647,7.147 -3.966,10.723 -1.325,3.592 -2.081,7.325 -2.757,11.082 -0.81,4.5 -0.519,8.907 0.954,13.24 0.266,0.783 0.503,1.584 0.665,2.394 0.093,0.47 0.037,0.978 -0.001,1.464 -0.047,0.587 -0.673,1.385 -1.217,1.409 -0.459,0.02 -1.068,-0.045 -1.368,-0.329 -0.959,-0.907 -1.8,-1.938 -2.695,-2.912 -2.067,-2.252 -4.584,-3.761 -7.496,-4.691 -3.576,-1.142 -7.195,-1.127 -10.818,-0.455 -3.779,0.7 -7.326,2.094 -10.634,4.059 -4.172,2.478 -7.88,5.502 -10.863,9.362 -0.606,0.784 -1.162,1.609 -2.084,2.087 -0.334,0.173 -1.147,0.058 -1.319,-0.287 -0.515,-1.034 -1.033,-2.067 -1.515,-3.117 -1.47,-3.202 -3.452,-6.045 -5.996,-8.479 -5.054,-4.837 -11.112,-7.193 -18.081,-6.811 -4.868,0.267 -9.444,1.706 -13.5,4.545 -0.947,0.663 -1.928,1.277 -3.371,2.178 M 214.479,38.396 c -0.148,-0.636 -0.456,-1.282 -0.414,-1.905 0.123,-1.817 0.322,-3.634 0.604,-5.434 1.721,-10.975 3.436,-21.947 4.719,-32.987 1.302,-11.206 2.29,-22.433 3.085,-33.686 1.451,-20.536 2.038,-41.089 1.543,-61.666 -0.239,-9.947 -0.667,-19.892 -1.516,-29.814 -0.48,-5.618 -0.815,-11.25 -1.361,-16.861 -0.641,-6.602 -1.323,-13.204 -2.199,-19.778 -1.05,-7.888 -2.298,-15.75 -3.506,-23.616 -2.214,-14.428 -5.057,-28.739 -8.298,-42.968 -6.524,-28.647 -14.797,-56.783 -25.058,-84.323 -3.648,-9.789 -7.596,-19.46 -11.746,-29.047 -0.523,-1.209 -1.154,-2.375 -1.793,-3.528 -0.096,-0.173 -0.51,-0.169 -0.822,-0.26 -0.048,0.503 -0.145,0.996 -0.133,1.486 0.079,3.008 -1.319,5.414 -3.073,7.688 -1.8,2.335 -5.969,3.174 -8.614,1.627 -1.131,-0.661 -2.141,-1.565 -3.103,-2.468 -0.727,-0.683 -1.213,-1.593 -1.328,-2.617 -0.24,-2.139 -0.473,-4.281 -0.647,-6.426 -0.416,-5.121 -0.546,-10.262 -1.233,-15.365 -1.293,-9.603 -3.812,-18.843 -8.03,-27.585 -2.686,-5.566 -6.046,-10.673 -10.536,-14.981 -2.408,-2.311 -5.06,-4.279 -7.992,-5.879 -2.202,-1.2 -4.497,-2.206 -6.971,-2.565 -2.375,-0.346 -4.4,-1.434 -6.441,-2.526 -1.508,-0.807 -2.528,-2.104 -3.265,-3.644 -0.521,-1.087 -0.688,-2.224 -0.545,-3.392 0.451,-3.661 3.309,-6.896 6.988,-7.459 2.515,-0.385 4.78,-1.309 7.07,-2.266 0.596,-0.25 0.82,-1.088 0.463,-1.682 -0.427,-0.71 -0.852,-1.422 -1.316,-2.106 -13.533,-19.938 -28.32,-38.88 -44.87,-56.418 -21.857,-23.161 -46.057,-43.476 -73.194,-60.223 -1.407,-0.869 -2.747,-1.847 -4.116,-2.779 -0.6,-0.409 -1.252,-0.433 -1.887,-0.17 -1.071,0.443 -2.122,0.937 -3.174,1.425 -38.226,17.723 -73.989,39.509 -107.481,65.056 -33.45,25.514 -64.534,53.656 -93.473,84.17 -55.784,58.823 -103.021,123.882 -142.017,194.934 -17.574,32.021 -33.155,64.98 -46.339,99.056 -10.721,27.71 -19.866,55.919 -26.824,84.82 -3.573,14.838 -6.587,29.784 -8.748,44.896 -0.446,3.119 -0.905,6.236 -1.313,9.36 -0.057,0.438 0.079,0.931 0.237,1.358 0.13,0.352 0.886,-0.111 1.487,-1.054 1.425,-2.238 2.9,-4.449 4.21,-6.753 5.543,-9.746 9.15,-20.207 11.462,-31.152 0.824,-3.902 1.287,-7.851 1.851,-11.788 0.309,-2.158 0.921,-4.204 1.881,-6.153 0.819,-1.664 1.925,-3.101 3.434,-4.193 2.937,-2.124 6.997,-1.784 9.56,0.81 1.343,1.361 1.879,3.116 2.126,4.94 0.155,1.143 0.156,2.322 0.091,3.477 -0.216,3.843 0.229,7.615 1.068,11.356 1.343,5.989 2.818,11.94 4.897,17.728 9.676,26.928 32.221,43.778 53.481,49.386 5.299,1.398 10.676,2.387 16.151,2.786 0.166,0.013 0.332,0.01 0.497,0.019 3.9,0.218 6.901,1.99 9.255,5.091 2.467,3.249 3.285,6.799 2.495,10.773 -0.786,3.95 -3.235,6.472 -6.895,7.815 -1.375,0.505 -2.91,0.755 -4.378,0.78 -2.146,0.035 -4.33,-0.053 -6.436,-0.431 -2.155,-0.387 -4.284,-0.459 -6.436,-0.327 -9.019,0.553 -17.74,2.444 -26.021,6.103 -10.063,4.445 -18.434,11.085 -25.147,19.802 -0.495,0.643 -0.877,1.373 -1.247,1.959 0.541,1.849 1.727,3.051 2.667,4.391 7.535,10.743 14.387,21.899 20.398,33.566 6.472,12.559 11.926,25.526 15.777,39.146 2.035,7.197 3.496,14.5 4.475,21.908 0.087,0.656 0.146,1.318 0.262,1.969 0.127,0.706 0.547,1.204 1.261,1.355 3.242,0.688 6.499,1.304 9.729,2.043 4.684,1.071 9.391,2.075 14.009,3.389 3.98,1.132 7.848,2.656 11.765,4.011 7.366,2.55 14.502,5.691 21.733,8.584 4.918,1.969 9.691,4.315 14.477,6.602 14.684,7.016 28.796,15.052 42.402,23.98 1.524,1 3.113,1.902 4.664,2.862 1.269,0.785 2.56,1.541 3.784,2.392 4.22,2.936 8.427,5.891 12.616,8.871 4.068,2.892 8.492,5.171 12.844,7.579 9.849,5.449 20.452,8.64 31.516,10.27 9.717,1.432 19.48,1.465 29.283,0.542 12.957,-1.22 25.51,-4.105 37.807,-8.27 3.308,-1.121 6.513,-2.447 9.566,-4.15 1.157,-0.646 2.349,-1.234 3.551,-1.793 7.385,-3.431 14.31,-7.669 21.193,-11.989 5.48,-3.438 11.114,-6.612 16.926,-9.46 1.34,-0.657 2.693,-1.294 3.991,-2.026 4.913,-2.771 9.992,-5.214 15.008,-7.784 7.823,-4.007 15.719,-7.84 23.739,-11.438 7.714,-3.461 15.378,-7.032 23.231,-10.174 1.842,-0.737 3.702,-1.473 5.615,-1.979 3.694,-0.976 7.332,-2.108 10.886,-3.497 5.881,-2.299 11.998,-3.829 18.032,-5.629 1.108,-0.33 2.257,-0.628 3.402,-0.704 4.337,-0.288 8.444,-1.704 12.681,-2.476 1.027,-0.187 1.767,-0.826 2.179,-1.836 5.797,-14.228 13.902,-27.147 22.801,-39.571 23.413,-32.692 50.754,-61.717 81.973,-87.068 9.154,-7.434 18.745,-14.26 29.032,-20.068 0.431,-0.243 0.834,-0.536 1.446,-0.934 1.271,-4.452 2.347,-9.122 3.314,-13.815 0.6,-2.912 1.542,-5.77 1.207,-8.945 -0.433,-0.144 -0.556,-0.135 -0.679,-0.125 0.007,-0.123 0.015,-0.245 0.022,-0.368 0.232,0.071 0.464,0.142 0.696,0.213"
       style="fill:#fffefe;fill-opacity:1;fill-rule:nonzero;stroke:none"
       transform="matrix(1.3333333,0,0,-1.3333333,8175.1079,525.59053)"
       clip-path="url(#clipPath427)" />
    <path
       id="path428"
       d="m 0,0 c -1.975,1.557 -4.329,2.421 -6.541,3.537 -34.863,17.587 -68.369,37.439 -100.213,60.06 -31.849,22.625 -61.728,47.624 -89.892,74.683 -48.667,46.761 -91.229,98.58 -128.267,154.963 -24.725,37.638 -46.523,76.898 -65.151,117.907 -15.937,35.085 -29.42,71.072 -39.836,108.193 -5.739,20.452 -10.532,41.118 -14.232,62.031 -1.763,9.96 -3.328,19.958 -4.407,30.022 -0.813,7.586 -1.591,15.175 -2.368,22.764 -0.05,0.481 -0.029,0.998 0.104,1.456 0.067,0.234 0.476,0.549 0.696,0.524 0.472,-0.054 0.96,-0.239 1.375,-0.484 6.326,-3.741 11.961,-8.345 17.036,-13.652 0.959,-1.002 1.529,-2.141 1.697,-3.508 0.444,-3.622 0.897,-7.242 1.355,-10.861 1.248,-9.876 2.939,-19.676 4.843,-29.446 3.428,-17.592 7.751,-34.96 12.791,-52.153 9.579,-32.681 21.756,-64.388 35.807,-95.391 20.452,-45.126 44.722,-88.125 72.245,-129.3 30.497,-45.625 64.534,-88.428 102.466,-128.109 22.496,-23.532 46.167,-45.809 71.387,-66.414 24.322,-19.871 49.838,-38.048 76.908,-54.005 C -34.88,42.609 -16.976,33.589 1.787,26.323 2.694,25.971 3.552,25.492 4.286,25.142 4.413,24.764 4.478,24.61 4.515,24.449 4.552,24.29 4.581,24.124 4.579,23.961 4.573,23.464 4.556,22.967 4.535,22.47 4.166,13.689 3.795,4.908 3.421,-3.968 2.978,-4.381 2.547,-4.903 2.009,-5.264 c -4.275,-2.858 -8.583,-5.667 -12.851,-8.536 -1.213,-0.814 -2.448,-1.004 -3.766,-0.461 -2.759,1.137 -5.523,2.266 -8.241,3.495 -18.913,8.548 -37.225,18.251 -55.101,28.784 -24.616,14.506 -48.161,30.595 -70.878,47.911 -2.496,1.902 -4.822,4.051 -7.784,5.305 -0.885,0.375 -1.6,1.167 -2.37,1.796 -30.236,24.699 -58.806,51.2 -85.841,79.362 -20.004,20.839 -39.277,42.329 -57.366,64.853 -12.468,15.525 -24.214,31.601 -35.575,47.955 -6.153,8.857 -11.876,17.993 -17.757,27.028 -14.309,21.981 -27.457,44.629 -39.533,67.905 -17.824,34.354 -33.236,69.742 -45.767,106.375 -8.596,25.132 -15.748,50.661 -21.198,76.655 -2.586,12.335 -4.739,24.751 -6.485,37.241 -1.47,10.519 -2.646,21.067 -3.449,31.651 -0.589,7.772 -0.813,15.572 -1.18,23.361 -0.047,0.991 -0.001,1.99 0.054,2.982 0.039,0.697 0.407,1.302 0.971,1.657 1.539,0.969 3.094,1.926 4.713,2.748 0.53,0.268 1.321,0.268 1.92,0.114 3.369,-0.868 6.667,-1.943 9.681,-3.662 0.172,-0.571 0.401,-1.034 0.443,-1.514 0.349,-3.966 0.599,-7.941 1.004,-11.901 0.707,-6.93 1.367,-13.869 2.299,-20.77 1.022,-7.557 2.273,-15.086 3.524,-22.61 2.748,-16.531 6.347,-32.885 10.527,-49.109 11.742,-45.578 27.903,-89.564 47.795,-132.197 26.825,-57.493 59.648,-111.365 97.93,-161.93 33.14,-43.773 69.912,-84.243 110.519,-121.208 29.501,-26.855 60.781,-51.435 94.184,-73.279 17.088,-11.175 34.631,-21.578 52.906,-30.71 C -23.83,8.613 -12.843,3.533 -0.951,-1.164 -0.008,-1.416 0.309,-1.529 0.6,-1.481 0.873,-1.435 1.118,-1.22 1.376,-1.08 1.202,-0.839 1.068,-0.546 0.843,-0.37 0.608,-0.188 0.285,-0.119 0,0"
       style="fill:#fffefe;fill-opacity:1;fill-rule:nonzero;stroke:none"
       transform="matrix(1.3333333,0,0,-1.3333333,8162.5473,1305.1604)"
       clip-path="url(#clipPath429)" />
    <path
       id="path430"
       d="m 0,0 c 12.711,-11.699 25.445,-22.834 38.675,-33.396 0.532,-0.425 0.963,-0.898 0.729,-1.84 -2.879,-0.361 -5.831,-0.701 -8.799,-0.926 -8.102,-0.615 -16.204,-1.245 -24.307,-1.859 -4.465,-0.339 -8.93,-0.671 -13.397,-0.982 -6.453,-0.45 -12.908,-0.859 -19.36,-1.32 -7.113,-0.507 -14.223,-1.054 -21.335,-1.583 -0.992,-0.074 -1.985,-0.148 -2.977,-0.219 -8.768,-0.624 -17.534,-1.264 -26.303,-1.866 -6.95,-0.477 -13.903,-0.901 -20.853,-1.362 -5.13,-0.34 -10.258,-0.711 -15.388,-1.045 -0.824,-0.054 -1.654,0.001 -2.481,0.021 -0.395,0.009 -0.955,0.62 -0.926,0.976 0.041,0.492 0.025,0.995 0.124,1.474 3,14.444 6.016,28.885 9.019,43.329 3.205,15.417 6.408,30.834 9.595,46.255 2.482,12.013 4.939,24.03 7.404,36.046 0.598,2.92 1.183,5.842 1.799,8.887 0.528,-0.084 1.135,0.005 1.392,-0.253 1.168,-1.174 2.253,-2.432 3.34,-3.683 C -57.689,56.326 -29.744,27.535 0,0"
       style="fill:#fffefe;fill-opacity:1;fill-rule:nonzero;stroke:none"
       transform="matrix(1.3333333,0,0,-1.3333333,7891.8783,1164.404)"
       clip-path="url(#clipPath431)" />
    <path
       id="path432"
       d="m 0,0 c -14.072,-2.422 -26.564,-7.561 -37.431,-16.184 -16.349,-12.971 -26.594,-29.784 -30.679,-50.275 -0.874,-4.383 -1.697,-8.774 -1.769,-13.293 -0.045,-2.798 -0.653,-5.588 -1.026,-8.378 -0.043,-0.322 -0.191,-0.632 -0.307,-0.941 -0.545,-1.449 -2.643,-1.938 -3.721,-0.841 -0.459,0.467 -0.94,0.967 -1.216,1.546 -0.496,1.042 -0.973,2.126 -1.23,3.244 -0.705,3.069 -1.509,6.139 -1.885,9.255 -1.449,12 -5.204,23.266 -10.625,34 -4.825,9.553 -11.069,18.091 -18.833,25.487 -9.432,8.985 -20.388,15.25 -33.016,18.583 -4.359,1.151 -8.786,1.663 -13.261,1.952 -2.809,0.182 -5.614,0.421 -8.419,0.648 -1.387,0.112 -2.542,0.758 -3.492,1.725 -0.731,0.743 -1.114,1.696 -0.747,2.729 0.355,1.002 1.115,1.626 2.221,1.72 16.165,1.379 31.02,6.811 44.979,14.814 9.584,5.495 17.885,12.579 24.783,21.255 8.558,10.763 13.851,22.951 15.731,36.561 0.588,4.254 1.072,8.562 0.422,12.885 -0.305,2.028 0.297,3.958 0.858,5.855 0.468,1.583 3.07,2.964 4.856,1.017 0.54,-0.589 1.001,-1.34 1.24,-2.098 0.501,-1.588 0.688,-3.249 0.438,-4.917 -2.323,-15.466 3.741,-37.406 14.568,-52.014 10.732,-14.48 24.939,-23.538 42.435,-27.557 7.16,-1.644 14.422,-2.12 21.751,-1.773 1.819,0.087 3.651,0.154 5.466,0.042 2.928,-0.182 4.77,-2.283 4.818,-5.289 C 16.963,6.429 14.771,3.119 11.627,2.103 9.593,1.446 7.575,0.697 5.35,0.687 3.707,0.68 2.065,0.281 0,0"
       style="fill:#fffefe;fill-opacity:1;fill-rule:nonzero;stroke:none"
       transform="matrix(1.3333333,0,0,-1.3333333,7731.9863,444.11853)"
       clip-path="url(#clipPath433)" />
    <path
       id="path434"
       d="m 0,0 c -1.708,1.84 -3.127,3.471 -4.675,4.967 -3.487,3.371 -7.41,6.112 -11.895,8.028 -3.657,1.562 -7.221,3.359 -11.252,3.837 -1.007,0.12 -1.858,0.653 -2.527,1.453 -0.744,0.888 -0.817,2.328 -0.169,3.237 0.595,0.835 1.347,1.503 2.289,1.855 2.017,0.754 4.029,1.58 6.114,2.091 5.64,1.381 10.381,4.297 14.593,8.177 3.315,3.052 6.102,6.542 8.512,10.347 4.764,7.52 7.788,15.726 9.679,24.381 1.635,7.485 2.414,15.069 2.306,22.725 -0.043,3.053 0.646,5.912 1.615,8.743 0.156,0.456 0.465,0.873 0.762,1.264 0.917,1.21 2.451,1.226 3.389,0.085 0.962,-1.169 1.753,-2.412 1.988,-3.945 0.301,-1.966 0.741,-3.921 0.886,-5.898 0.306,-4.157 1.102,-8.221 2.124,-12.24 2.089,-8.22 4.878,-16.191 8.788,-23.742 2.37,-4.578 5.075,-8.943 8.313,-12.964 2.087,-2.592 4.386,-4.982 6.959,-7.095 6.333,-5.202 13.413,-8.507 21.78,-8.524 2.048,-0.004 3.419,-1.08 4.336,-2.828 0.789,-1.503 0.332,-3.439 -1.063,-4.437 -0.4,-0.286 -0.826,-0.587 -1.287,-0.73 C 69.034,18.004 66.504,17.209 63.944,16.528 56.883,14.649 50.837,11.025 45.567,6.023 38.188,-0.98 33.109,-9.449 29.814,-19.002 c -2.168,-6.284 -3.667,-12.73 -4.322,-19.377 -0.357,-3.629 -0.798,-7.242 -0.997,-10.889 -0.089,-1.627 -0.625,-3.244 -1.078,-4.832 -0.277,-0.972 -0.997,-1.7 -1.83,-2.291 -1.34,-0.952 -3.176,-0.354 -3.593,1.228 -0.592,2.248 -0.994,4.523 -1.055,6.864 -0.103,3.984 -0.51,7.938 -1.19,11.872 -1.161,6.728 -2.948,13.267 -5.583,19.57 C 7.654,-10.849 4.398,-5.287 0,0"
       style="fill:#fffefe;fill-opacity:1;fill-rule:nonzero;stroke:none"
       transform="matrix(1.3333333,0,0,-1.3333333,8364.164,1116.978)"
       clip-path="url(#clipPath435)" />
    <path
       id="path436"
       d="m 0,0 c -5.988,-2.928 -11.635,-5.718 -17.337,-8.392 -3.298,-1.547 -6.677,-2.923 -10.033,-4.344 -2.135,-0.904 -4.281,-1.788 -6.448,-2.614 -4.489,-1.712 -8.997,-3.375 -13.494,-5.066 -9.958,-3.744 -20.298,-6.102 -30.644,-8.425 -2.423,-0.544 -4.885,-0.928 -7.343,-1.284 -0.792,-0.115 -1.693,-0.078 -2.441,0.184 -5.627,1.979 -11.235,4.018 -16.829,6.09 -0.374,0.139 -0.589,0.708 -0.932,1.146 3.211,1.297 6.547,1.582 9.739,2.436 2.555,0.684 5.165,1.207 7.779,1.617 3.461,0.545 6.768,1.598 10.078,2.68 1.886,0.617 3.806,1.133 5.708,1.701 1.429,0.426 2.878,0.797 4.277,1.306 25.307,9.206 49.629,20.498 72.697,34.429 7.102,4.288 14.04,8.829 20.563,13.97 2.994,2.36 5.896,4.837 8.857,7.239 11.417,9.261 24.446,15.195 38.684,18.546 8.424,1.983 16.996,2.979 25.65,2.845 18.032,-0.28 35.105,-4.542 51.189,-12.718 0.707,-0.359 1.464,-0.688 1.696,-1.578 -1.222,-0.428 -2.268,0.323 -3.397,0.471 -0.985,0.13 -1.965,0.312 -2.94,0.511 -11.438,2.336 -22.996,3.231 -34.636,2.473 C 97.107,52.356 84.16,49.674 72.031,43.83 65.012,40.448 58.064,36.918 51.68,32.393 48.298,29.997 44.928,27.583 41.498,25.258 37.382,22.468 33.258,19.683 29.044,17.045 23.285,13.439 17.581,9.739 11.6,6.495 7.813,4.44 4.077,2.293 0,0"
       style="fill:#fffefe;fill-opacity:1;fill-rule:nonzero;stroke:none"
       transform="matrix(1.3333333,0,0,-1.3333333,7825.6556,200.84933)"
       clip-path="url(#clipPath437)" />
    <path
       id="path438"
       d="m 0,0 c -0.17,3.197 0.696,5.903 1.226,8.649 3.487,18.059 7.036,36.106 10.658,54.139 4.437,22.094 8.96,44.171 13.458,66.252 0.827,4.057 1.711,8.101 2.577,12.15 0.087,0.408 0.912,0.583 1.244,0.291 0.244,-0.216 0.52,-0.401 0.744,-0.637 0.342,-0.359 0.657,-0.745 0.975,-1.128 3.915,-4.723 7.832,-9.445 11.738,-14.175 0.523,-0.633 0.989,-1.314 1.568,-2.087 -0.209,-1.108 -0.392,-2.24 -0.636,-3.358 C 37.69,93.223 31.793,66.357 25.964,39.477 22.453,23.283 19.049,7.067 15.59,-9.138 c -0.38,-1.781 -0.801,-3.554 -1.215,-5.327 -0.157,-0.672 -1.114,-1.029 -1.551,-0.585 -0.58,0.591 -1.172,1.173 -1.708,1.803 C 7.46,-8.957 3.817,-4.655 0,0"
       style="fill:#fffefe;fill-opacity:1;fill-rule:nonzero;stroke:none"
       transform="matrix(1.3333333,0,0,-1.3333333,7712.3312,1203.8409)"
       clip-path="url(#clipPath439)" />
    <path
       id="path440"
       d="m 0,0 c 23.424,21.998 43.873,46.086 62,72.166 0.945,1.361 1.866,2.738 2.804,4.104 1.599,2.329 2.226,2.423 4.462,1.048 1.813,-1.115 3.369,-2.655 5.014,-4.036 0.494,-0.415 0.606,-1.288 0.306,-1.813 C 74.176,70.751 73.772,70.026 73.311,69.34 71.834,67.139 70.346,64.944 68.836,62.765 34.468,13.181 -6.86,-29.74 -54.802,-66.327 c -1.185,-0.904 -2.381,-1.799 -3.632,-2.604 -0.341,-0.221 -0.902,-0.101 -1.469,-0.146 -0.062,0.942 -0.165,1.761 -0.162,2.581 0.024,6.298 0.105,12.595 0.082,18.893 -0.007,1.85 0.645,3.197 2.224,4.122 0.429,0.251 0.845,0.525 1.273,0.777 19.501,11.491 37.342,25.198 54.034,40.44 C -1.718,-1.593 -0.99,-0.916 0,0"
       style="fill:#fffefe;fill-opacity:1;fill-rule:nonzero;stroke:none"
       transform="matrix(1.3333333,0,0,-1.3333333,8253.8985,1213.0639)"
       clip-path="url(#clipPath441)" />
    <path
       id="path442"
       d="m 0,0 c -7.771,-21.53 -18.415,-41.109 -31.394,-59.447 -0.841,-1.188 -1.433,-2.654 -3.138,-3.302 -0.451,0.623 -0.998,1.234 -1.381,1.935 -3.116,5.702 -5.335,11.751 -6.8,18.072 -0.522,2.255 -0.887,4.547 -1.292,6.828 -0.877,4.942 -0.938,3.883 1.549,8.405 6.952,12.641 13.118,25.641 18.052,39.206 3.171,8.72 5.887,17.574 7.636,26.703 0.093,0.483 0.269,0.95 0.413,1.423 0.174,0.57 0.973,0.95 1.615,0.776 0.16,-0.044 0.321,-0.08 0.478,-0.129 C -7.309,38.306 -0.356,36.142 6.594,33.968 6.901,33.872 7.179,33.686 7.477,33.539 8.153,32.454 7.851,31.288 7.68,30.161 6.511,22.457 4.812,14.872 2.465,7.438 1.718,5.071 0.897,2.728 0,0"
       style="fill:#fffefe;fill-opacity:1;fill-rule:nonzero;stroke:none"
       transform="matrix(1.3333333,0,0,-1.3333333,7701.4208,290.3412)"
       clip-path="url(#clipPath443)" />
    <path
       id="path444"
       d="m 0,0 c -0.369,-11.935 -0.762,-23.369 -1.515,-34.793 -0.622,-9.436 -1.449,-18.852 -2.448,-28.25 -0.963,-9.066 -2.184,-18.103 -3.55,-27.122 -1.565,-10.331 -3.359,-20.619 -5.454,-30.85 -6.126,-29.929 -14.349,-59.273 -24.95,-87.936 -4.775,-12.909 -10.015,-25.629 -15.71,-38.161 -0.617,-1.356 -1.293,-2.687 -1.994,-4.003 -0.106,-0.2 -0.487,-0.29 -0.758,-0.352 -0.117,-0.026 -0.321,0.122 -0.412,0.245 -0.195,0.263 -0.408,0.543 -0.497,0.85 -1.016,3.502 -2.015,7.009 -3.005,10.518 -0.373,1.322 -0.298,2.599 0.316,3.868 0.722,1.491 1.353,3.027 2.014,4.547 15.777,36.272 28.261,73.637 37.364,112.136 3.74,15.819 6.937,31.743 9.507,47.788 1.337,8.346 2.411,16.738 3.45,25.129 0.958,7.733 1.801,15.483 2.524,23.241 0.585,6.273 0.894,12.572 1.363,18.856 0.876,11.752 1.117,23.528 1.14,35.304 0.023,11.776 -0.153,23.553 -0.255,35.329 -0.009,0.993 -0.029,2 -0.193,2.976 -0.501,2.965 -0.43,5.949 -0.426,9.063 0.666,-1.149 0.303,-2.299 0.42,-3.386 0.106,-0.989 -10e-4,-2.018 0.226,-2.972 0.934,-3.909 0.751,-7.912 1.144,-11.863 0.739,-7.437 0.814,-14.903 1.21,-22.354 C 0.171,25.376 0.111,12.938 0,0"
       style="fill:#fffefe;fill-opacity:1;fill-rule:nonzero;stroke:none"
       transform="matrix(1.3333333,0,0,-1.3333333,8481.7607,685.8456)"
       clip-path="url(#clipPath445)" />
    <path
       id="path446"
       d="m 0,0 c -25.162,-16.051 -50.005,-31.931 -74.884,-47.754 -4.469,-2.842 -9.07,-5.482 -13.651,-8.144 -1.128,-0.655 -2.394,-1.112 -3.646,-1.5 -0.615,-0.19 -1.301,0.092 -1.72,0.707 -0.399,0.586 -0.548,1.233 -0.182,1.854 0.33,0.559 0.709,1.138 1.203,1.54 1.412,1.15 2.851,2.276 4.354,3.3 3.696,2.518 7.392,5.039 11.161,7.446 32.944,21.043 65.904,42.063 98.86,63.088 1.117,0.713 2.213,1.464 3.37,2.106 0.563,0.313 1.232,0.463 1.872,0.599 0.915,0.194 2.093,-0.36 2.577,-1.135 0.59,-0.941 0.504,-2.543 -0.297,-3.226 -1.003,-0.854 -2.054,-1.667 -3.16,-2.379 C 19.589,12.468 13.298,8.468 7.015,4.459 4.78,3.034 2.543,1.613 0,0"
       style="fill:#fffefe;fill-opacity:1;fill-rule:nonzero;stroke:none"
       transform="matrix(1.3333333,0,0,-1.3333333,8627.0441,293.1936)"
       clip-path="url(#clipPath447)" />
    <path
       id="path448"
       d="m 0,0 c 35.926,-10.83 71.467,-21.551 107.004,-32.287 1.42,-0.429 2.844,-0.898 4.185,-1.523 1.74,-0.812 1.869,-3.447 0.24,-4.553 -0.511,-0.347 -1.234,-0.553 -1.849,-0.531 -0.806,0.029 -1.614,0.311 -2.401,0.548 -16.03,4.818 -32.061,9.631 -48.084,14.473 -23.796,7.191 -47.584,14.407 -71.379,21.598 -1.907,0.577 -3.825,1.107 -5.57,2.098 -0.574,0.326 -1.132,0.69 -1.659,1.088 -0.715,0.539 -1.019,1.29 -0.884,2.178 0.111,0.732 0.965,1.493 1.765,1.499 1.155,0.008 2.328,0.036 3.461,-0.146 1.304,-0.21 2.584,-0.599 3.853,-0.981 C -7.668,2.362 -4.029,1.227 0,0"
       style="fill:#fffefe;fill-opacity:1;fill-rule:nonzero;stroke:none"
       transform="matrix(1.3333333,0,0,-1.3333333,8506.3832,909.94507)"
       clip-path="url(#clipPath449)" />
    <path
       id="path450"
       d="M 0,0 C 2.233,-0.32 4.049,-0.535 5.831,-0.909 6.427,-1.035 7.043,-1.473 7.465,-1.937 8.758,-3.36 7.848,-5.857 5.938,-6.24 5.455,-6.337 4.944,-6.429 4.463,-6.375 c -5.603,0.635 -11.204,1.293 -16.804,1.957 -7.411,0.879 -14.822,1.766 -22.232,2.657 -6.916,0.831 -13.831,1.674 -20.747,2.507 -3.787,0.456 -7.576,0.9 -11.364,1.353 -7.575,0.908 -15.148,1.832 -22.725,2.725 -6.918,0.815 -13.842,1.582 -20.76,2.402 -4.611,0.546 -9.217,1.143 -13.823,1.732 -0.655,0.084 -1.308,0.217 -1.947,0.385 -1.023,0.269 -1.975,1.528 -2.012,2.593 -0.041,1.188 1.203,2.528 2.509,2.671 0.491,0.054 0.996,0.114 1.481,0.059 5.604,-0.633 11.207,-1.279 16.807,-1.941 7.412,-0.876 14.822,-1.765 22.232,-2.656 6.916,-0.833 13.83,-1.685 20.746,-2.511 C -57.424,6.75 -50.668,5.97 -43.915,5.167 -36.669,4.304 -29.424,3.428 -22.179,2.556 -19.05,2.179 -15.924,1.78 -12.794,1.42 -8.674,0.946 -4.551,0.501 0,0"
       style="fill:#fffefe;fill-opacity:1;fill-rule:nonzero;stroke:none"
       transform="matrix(1.3333333,0,0,-1.3333333,8680.9441,792.27)"
       clip-path="url(#clipPath451)" />
    <path
       id="path452"
       d="m 0,0 c -13.428,0.151 -26.358,0.324 -39.289,0.423 -5.977,0.046 -11.929,0.381 -17.854,1.143 -0.972,0.125 -1.945,0.381 -2.859,0.73 -0.377,0.143 -0.663,0.658 -0.875,1.064 -0.179,0.341 0.265,1.051 0.698,1.169 1.111,0.305 2.222,0.757 3.353,0.825 5.624,0.338 11.257,0.837 16.883,0.798 37.301,-0.257 74.6,-0.634 111.9,-0.992 1.647,-0.016 3.308,-0.138 4.934,-0.391 1.546,-0.241 2.434,-1.988 1.882,-3.448 -0.379,-1 -1.114,-1.68 -2.191,-1.773 -1.317,-0.112 -2.647,-0.131 -3.97,-0.121 C 48.574,-0.391 24.536,-0.199 0,0"
       style="fill:#fffefe;fill-opacity:1;fill-rule:nonzero;stroke:none"
       transform="matrix(1.3333333,0,0,-1.3333333,8614.7499,636.1428)"
       clip-path="url(#clipPath453)" />
    <path
       id="path454"
       d="m 0,0 c 7.691,1.664 14.978,3.215 22.258,4.794 18.605,4.035 37.206,8.086 55.813,12.112 0.799,0.173 1.655,0.29 2.455,0.191 0.604,-0.074 1.265,-0.423 1.719,-0.845 1.306,-1.215 0.959,-3.385 -0.642,-4.16 C 80.869,11.737 80.073,11.466 79.276,11.29 71.678,9.617 64.074,7.97 56.47,6.321 40.292,2.811 24.116,-0.702 7.935,-4.2 c -15.209,-3.288 -30.42,-6.572 -45.638,-9.822 -2.588,-0.553 -5.203,-1.02 -7.829,-1.347 -1.626,-0.203 -3.294,-0.089 -4.942,-0.072 -0.541,0.006 -1.203,0.763 -1.277,1.346 -0.091,0.721 0.167,1.366 0.78,1.687 1.166,0.61 2.353,1.233 3.604,1.614 2.69,0.82 5.404,1.589 8.147,2.203 9.047,2.024 18.111,3.969 27.168,5.945 C -8.17,-1.799 -4.289,-0.949 0,0"
       style="fill:#fffefe;fill-opacity:1;fill-rule:nonzero;stroke:none"
       transform="matrix(1.3333333,0,0,-1.3333333,8605.6844,457.98387)"
       clip-path="url(#clipPath455)" />
    <path
       id="path456"
       d="m 0,0 c 39.118,-0.187 77.772,-0.377 116.426,-0.568 1.162,-0.006 2.327,0.022 3.482,-0.073 0.643,-0.053 1.29,-0.273 1.896,-0.517 1.019,-0.409 1.608,-1.711 1.391,-2.908 -0.176,-0.968 -1.042,-1.921 -1.91,-2.072 -0.487,-0.085 -0.98,-0.176 -1.472,-0.191 -0.994,-0.032 -1.991,-0.022 -2.986,-0.015 -37.658,0.232 -75.317,0.459 -112.975,0.713 -3.15,0.021 -6.299,0.221 -9.447,0.35 -2.337,0.096 -4.6,0.623 -6.825,1.297 -0.427,0.129 -0.813,0.546 -1.099,0.921 -0.132,0.174 -0.087,0.667 0.07,0.839 0.317,0.349 0.732,0.733 1.167,0.828 1.94,0.423 3.888,0.854 5.857,1.081 C -4.452,-0.087 -2.452,-0.097 0,0"
       style="fill:#fffefe;fill-opacity:1;fill-rule:nonzero;stroke:none"
       transform="matrix(1.3333333,0,0,-1.3333333,7338.1289,616.46333)"
       clip-path="url(#clipPath457)" />
    <path
       id="path458"
       d="m 0,0 c -9.168,-2.569 -17.942,-5.051 -26.726,-7.496 -1.104,-0.307 -2.257,-0.495 -3.4,-0.596 -1.074,-0.094 -2.18,0.907 -2.487,2.059 -0.24,0.9 0.15,2.172 0.956,2.635 0.851,0.488 1.753,0.94 2.689,1.215 4.136,1.212 8.293,2.353 12.441,3.523 29.358,8.284 58.71,16.587 88.076,24.838 6.702,1.883 13.425,3.705 20.288,4.946 1.642,0.297 3.282,0.591 4.933,0.287 0.36,-0.066 0.711,-0.621 0.891,-1.028 0.09,-0.202 -0.142,-0.667 -0.362,-0.86 -0.491,-0.43 -1.039,-0.814 -1.611,-1.13 C 93.503,27.183 91.159,26.359 88.8,25.559 80.318,22.681 71.699,20.262 63.085,17.824 42.188,11.911 21.289,6.006 0,0"
       style="fill:#fffefe;fill-opacity:1;fill-rule:nonzero;stroke:none"
       transform="matrix(1.3333333,0,0,-1.3333333,7418.6944,939.18973)"
       clip-path="url(#clipPath459)" />
    <path
       id="path460"
       d="m 0,0 c -9.504,-1.093 -18.564,-2.127 -27.627,-3.133 -7.25,-0.805 -14.507,-1.552 -21.756,-2.367 -7.249,-0.814 -14.491,-1.692 -21.739,-2.519 -3.459,-0.395 -6.922,-0.762 -10.388,-1.096 -8.417,-0.811 -16.836,-1.608 -25.256,-2.385 -3.301,-0.305 -6.606,-0.574 -9.914,-0.786 -0.98,-0.063 -1.988,0.056 -2.96,0.224 -0.652,0.113 -1.177,0.564 -1.407,1.238 -0.169,0.494 0.285,1.342 0.905,1.609 0.753,0.324 1.513,0.706 2.309,0.847 3.263,0.581 6.531,1.147 9.815,1.593 6.078,0.824 12.166,1.576 18.254,2.328 7.239,0.895 14.482,1.765 21.724,2.633 3.457,0.415 6.916,0.814 10.377,1.195 10.217,1.124 20.439,2.214 30.654,3.359 7.249,0.813 14.488,1.715 21.736,2.538 5.272,0.599 10.551,1.144 15.829,1.684 0.647,0.067 1.319,0.006 1.967,-0.087 1.071,-0.153 2.002,-1.324 2.06,-2.494 C 14.637,3.269 13.769,1.883 12.758,1.702 10.64,1.322 8.51,1 6.376,0.719 4.404,0.459 2.421,0.283 0,0"
       style="fill:#fffefe;fill-opacity:1;fill-rule:nonzero;stroke:none"
       transform="matrix(1.3333333,0,0,-1.3333333,7507.3195,772.91173)"
       clip-path="url(#clipPath461)" />
    <path
       id="path462"
       d="m 0,0 c 1.31,-0.394 2.287,-0.63 3.16,-1.071 1.024,-0.517 1.444,-1.906 1.077,-3.025 -0.371,-1.135 -1.472,-1.975 -2.623,-1.89 -0.986,0.074 -1.976,0.204 -2.942,0.414 -14.901,3.239 -29.801,6.486 -44.697,9.752 -16.19,3.55 -32.391,7.055 -48.558,10.71 -8.244,1.863 -16.43,3.981 -24.626,6.052 -2.245,0.567 -4.436,1.357 -6.636,2.095 -0.62,0.208 -1.251,0.511 -1.741,0.93 -0.314,0.269 -0.607,0.909 -0.493,1.239 0.122,0.355 0.708,0.598 1.137,0.783 0.286,0.123 0.657,0.103 0.983,0.073 2.311,-0.211 4.642,-0.306 6.925,-0.688 11.774,-1.973 23.462,-4.383 35.12,-6.947 17.484,-3.846 34.97,-7.676 52.455,-11.518 C -21.098,4.633 -10.739,2.348 0,0"
       style="fill:#fffefe;fill-opacity:1;fill-rule:nonzero;stroke:none"
       transform="matrix(1.3333333,0,0,-1.3333333,7491.578,460.0956)"
       clip-path="url(#clipPath463)" />
    <path
       id="path464"
       d="m 0,0 c 11.329,-7.252 22.357,-14.308 33.371,-21.385 1.108,-0.712 2.217,-1.46 3.179,-2.35 1.412,-1.307 0.695,-3.819 -1.204,-4.395 -0.449,-0.136 -1.032,-0.212 -1.437,-0.041 -1.06,0.449 -2.097,0.983 -3.069,1.6 -5.457,3.463 -10.89,6.963 -16.334,10.448 -23.587,15.099 -47.198,30.162 -70.746,45.323 -5.011,3.226 -9.813,6.78 -14.672,10.239 -1.338,0.953 -2.705,1.952 -3.387,3.546 -0.113,0.264 -0.076,0.661 0.036,0.938 0.194,0.48 0.607,0.796 1.149,0.76 0.485,-0.033 1.001,-0.081 1.438,-0.272 1.515,-0.662 3.058,-1.292 4.491,-2.109 4.316,-2.464 8.668,-4.879 12.859,-7.546 C -36.29,23.279 -18.308,11.719 0,0"
       style="fill:#fffefe;fill-opacity:1;fill-rule:nonzero;stroke:none"
       transform="matrix(1.3333333,0,0,-1.3333333,7483.5621,321.05547)"
       clip-path="url(#clipPath465)" />
    <path
       id="path466"
       d="M 0,0 C 0.969,-0.947 1.751,-1.592 2.307,-2.394 2.968,-3.346 2.698,-4.789 1.9,-5.606 1.126,-6.399 -0.38,-6.678 -1.325,-6.067 c -1.109,0.717 -2.173,1.515 -3.196,2.351 -10.659,8.708 -21.306,17.431 -31.957,26.148 -16.297,13.339 -32.6,26.672 -48.889,40.022 -1.922,1.575 -3.803,3.204 -5.641,4.877 -1.104,1.006 -2.074,2.156 -2.569,3.613 -0.16,0.471 -0.222,0.943 0.075,1.421 0.359,0.58 1.043,1.032 1.625,0.917 0.642,-0.127 1.307,-0.237 1.9,-0.496 2.304,-1.008 4.231,-2.587 6.158,-4.167 10.262,-8.408 20.533,-16.803 30.798,-25.207 C -35.442,29.021 -17.865,14.626 0,0"
       style="fill:#fffefe;fill-opacity:1;fill-rule:nonzero;stroke:none"
       transform="matrix(1.3333333,0,0,-1.3333333,8567.6263,1096.9457)"
       clip-path="url(#clipPath467)" />
    <path
       id="path468"
       d="m 0,0 c -21.32,-17.158 -42.363,-34.098 -63.411,-51.031 -0.772,-0.621 -1.553,-1.245 -2.395,-1.761 -1.49,-0.912 -3.589,-0.118 -4.085,1.481 -0.325,1.046 -0.056,2.014 0.618,2.779 0.65,0.737 1.466,1.335 2.238,1.957 16.651,13.41 33.304,26.816 49.96,40.22 9.038,7.273 18.089,14.53 27.118,21.816 2.716,2.191 5.551,4.213 8.62,5.861 1.335,0.716 2.662,2.244 4.442,0.803 0.63,-2.031 -1.014,-3.004 -2.052,-4.176 C 18.742,15.343 16.185,12.98 13.455,10.806 9.048,7.295 4.667,3.75 0,0"
       style="fill:#fffefe;fill-opacity:1;fill-rule:nonzero;stroke:none"
       transform="matrix(1.3333333,0,0,-1.3333333,7555.1661,1021.4)"
       clip-path="url(#clipPath469)" />
    <path
       id="path470"
       d="m 0,0 c -5.065,-0.524 -9.673,-1.13 -14.3,-1.469 -5.29,-0.387 -10.596,-0.557 -15.896,-0.767 -0.98,-0.039 -1.971,0.172 -2.955,0.285 -0.409,0.047 -0.967,0.703 -0.823,1.079 0.163,0.426 0.387,1.026 0.73,1.151 1.548,0.562 3.119,1.145 4.732,1.427 7.347,1.281 14.69,2.587 22.119,3.354 7.255,0.75 14.492,1.674 21.737,2.517 2.964,0.345 5.928,0.688 8.895,1.014 4.449,0.489 8.9,0.966 13.351,1.44 0.824,0.088 1.651,0.162 2.479,0.196 1.824,0.076 3.081,-0.79 3.35,-2.272 C 43.679,6.525 42.608,5.098 40.951,4.773 39.65,4.519 38.335,4.326 37.02,4.166 34.222,3.824 31.421,3.511 28.62,3.204 21.369,2.408 14.116,1.628 6.866,0.827 4.724,0.59 2.588,0.301 0,0"
       style="fill:#fffefe;fill-opacity:1;fill-rule:nonzero;stroke:none"
       transform="matrix(1.3333333,0,0,-1.3333333,8587.1576,557.08267)"
       clip-path="url(#clipPath471)" />
    <path
       id="path472"
       d="M 0,0 C -0.799,0.377 -1.268,0.598 -1.596,0.951 -2.318,1.725 -2.624,2.646 -2.169,3.679 -1.737,4.658 -0.938,5.262 0.085,5.428 0.891,5.56 1.737,5.547 2.556,5.481 14.289,4.546 26.022,3.606 37.753,2.636 44.527,2.076 51.302,1.51 58.066,0.843 c 2.301,-0.226 4.591,-0.681 6.845,-1.21 0.921,-0.216 1.758,-0.862 2.584,-1.39 0.646,-0.412 0.396,-1.722 -0.315,-2.077 -1.362,-0.679 -2.816,-1.017 -4.315,-1.021 -2.319,-0.007 -4.646,0 -6.956,0.17 -6.945,0.51 -13.884,1.089 -20.823,1.666 -5.947,0.494 -11.891,1.032 -17.838,1.534 C 11.631,-1.011 6.012,-0.558 0,0"
       style="fill:#fffefe;fill-opacity:1;fill-rule:nonzero;stroke:none"
       transform="matrix(1.3333333,0,0,-1.3333333,7403.428,540.9828)"
       clip-path="url(#clipPath473)" />
    <path
       id="path474"
       d="m 0,0 c 4.43,1.554 8.465,3.076 12.568,4.387 12.948,4.135 25.92,8.192 38.885,12.272 0.947,0.298 1.897,0.623 2.871,0.788 1.162,0.196 2.665,-0.665 3.069,-2.025 0.351,-1.186 -0.339,-2.864 -1.499,-3.355 C 54.98,11.68 54.038,11.35 53.091,11.051 39.495,6.768 25.91,2.448 12.291,-1.759 5.956,-3.716 -0.452,-5.434 -6.99,-6.606 -7.965,-6.78 -8.956,-6.878 -9.943,-6.97 c -0.817,-0.077 -1.622,0.414 -1.483,0.902 0.126,0.44 0.332,1.001 0.681,1.208 1.422,0.841 2.879,1.642 4.386,2.315 C -4.392,-1.669 -2.365,-0.928 0,0"
       style="fill:#fffefe;fill-opacity:1;fill-rule:nonzero;stroke:none"
       transform="matrix(1.3333333,0,0,-1.3333333,8538.7152,410.8676)"
       clip-path="url(#clipPath475)" />
    <path
       id="path476"
       d="m 0,0 c 3.268,-0.263 6.072,-0.506 8.879,-0.712 5.283,-0.389 10.569,-0.745 15.852,-1.15 0.644,-0.05 1.288,-0.269 1.903,-0.49 1.079,-0.386 1.776,-1.619 1.641,-2.785 -0.127,-1.087 -1.207,-2.287 -2.238,-2.353 -1.151,-0.073 -2.315,-0.112 -3.465,-0.034 -5.45,0.374 -10.898,0.792 -16.347,1.196 -7.595,0.562 -15.191,1.101 -22.783,1.693 -6.6,0.515 -13.218,0.833 -19.763,1.924 -1.961,0.327 -3.929,0.62 -5.682,1.606 -0.354,0.199 -0.672,0.79 -0.67,1.198 0.003,0.405 0.348,1.047 0.69,1.167 1.079,0.378 2.225,0.768 3.35,0.782 3.971,0.052 7.954,0.112 11.914,-0.128 C -17.961,1.384 -9.214,0.673 0,0"
       style="fill:#fffefe;fill-opacity:1;fill-rule:nonzero;stroke:none"
       transform="matrix(1.3333333,0,0,-1.3333333,8585.3703,702.14733)"
       clip-path="url(#clipPath477)" />
    <path
       id="path478"
       d="M 0,0 C -2.144,0.575 -3.937,0.966 -5.491,1.974 -6.057,2.341 -6.39,2.918 -6.341,3.647 -6.292,4.38 -5.503,5.16 -4.72,5.273 -2.562,5.582 -0.414,5.39 1.709,5.042 7.589,4.079 13.467,3.097 19.331,2.04 c 11.892,-2.143 23.776,-4.33 35.658,-6.525 1.621,-0.3 3.23,-0.697 4.814,-1.153 1.039,-0.299 1.673,-1.628 1.519,-2.843 -0.151,-1.18 -1.16,-2.21 -2.332,-2.174 -1.482,0.046 -2.976,0.141 -4.436,0.391 -4.078,0.697 -8.141,1.487 -12.21,2.235 -9.931,1.826 -19.865,3.631 -29.791,5.481 C 8.486,-1.79 4.437,-0.937 0,0"
       style="fill:#fffefe;fill-opacity:1;fill-rule:nonzero;stroke:none"
       transform="matrix(1.3333333,0,0,-1.3333333,8511.8457,851.09813)"
       clip-path="url(#clipPath479)" />
    <path
       id="path480"
       d="m 0,0 c -9.336,-7.185 -18.39,-14.158 -27.438,-21.136 -1.707,-1.316 -3.396,-2.662 -5.479,-3.35 -0.643,-0.213 -1.296,-0.145 -1.909,0.207 -1.007,0.579 -1.457,2.059 -0.835,3.007 0.45,0.687 0.916,1.395 1.511,1.946 1.213,1.123 2.482,2.192 3.79,3.202 13.896,10.726 27.801,21.441 41.718,32.14 1.175,0.903 2.428,1.715 3.698,2.48 0.913,0.55 2.304,0.092 3.093,-0.883 0.612,-0.757 0.79,-2.088 0.272,-2.796 C 17.939,14.158 17.409,13.501 16.784,12.984 15.254,11.718 13.658,10.531 12.085,9.316 8.153,6.28 4.219,3.246 0,0"
       style="fill:#fffefe;fill-opacity:1;fill-rule:nonzero;stroke:none"
       transform="matrix(1.3333333,0,0,-1.3333333,8512.6796,286.40893)"
       clip-path="url(#clipPath481)" />
    <path
       id="path482"
       d="m 0,0 c -12.359,6.119 -24.411,12.035 -36.432,18.015 -5.641,2.807 -11.182,5.808 -16.489,9.216 -1.381,0.886 -2.864,1.673 -3.792,3.127 -0.221,0.345 0.025,1.138 0.461,1.224 0.47,0.093 0.998,0.264 1.424,0.141 1.907,-0.553 3.842,-1.069 5.667,-1.835 4.736,-1.988 9.49,-3.955 14.11,-6.194 C -22.522,17.622 -10.058,11.416 2.426,5.249 3.313,4.811 4.174,4.306 4.993,3.752 5.878,3.154 6.228,1.659 5.82,0.602 5.329,-0.673 3.918,-1.47 2.619,-1.104 1.828,-0.881 1.085,-0.492 0,0"
       style="fill:#fffefe;fill-opacity:1;fill-rule:nonzero;stroke:none"
       transform="matrix(1.3333333,0,0,-1.3333333,7497.4615,409.15253)"
       clip-path="url(#clipPath483)" />
    <path
       id="path484"
       d="m 0,0 c 7.7,3.197 15.025,6.305 22.392,9.312 2.602,1.062 5.29,1.923 7.971,2.774 0.757,0.24 1.632,0.19 2.447,0.149 1.132,-0.057 1.912,-1.752 1.244,-2.683 C 33.676,9.025 33.269,8.423 32.727,8.124 30.552,6.926 28.369,5.72 26.098,4.724 21.393,2.659 16.631,0.726 11.891,-1.26 1.19,-5.746 -9.509,-10.24 -20.22,-14.704 c -1.213,-0.505 -2.474,-0.959 -3.757,-1.217 -1.699,-0.343 -3.255,1.375 -2.867,3.116 0.135,0.604 0.476,1.3 0.948,1.661 0.773,0.591 1.704,1.003 2.612,1.386 C -15.648,-6.535 -8.002,-3.335 0,0"
       style="fill:#fffefe;fill-opacity:1;fill-rule:nonzero;stroke:none"
       transform="matrix(1.3333333,0,0,-1.3333333,7522.0279,961.954)"
       clip-path="url(#clipPath485)" />
    <path
       id="path486"
       d="m 0,0 c 14.348,-7.721 28.374,-15.256 42.392,-22.805 1.165,-0.628 2.326,-1.284 3.401,-2.05 1.016,-0.723 1.364,-2.236 0.933,-3.104 -0.62,-1.249 -1.995,-2.02 -3.241,-1.652 -0.477,0.14 -0.961,0.275 -1.411,0.48 -0.603,0.274 -1.177,0.61 -1.761,0.924 -14.166,7.624 -28.339,15.235 -42.491,22.885 -2.039,1.103 -3.993,2.368 -5.959,3.602 -1.411,0.886 -2.714,1.929 -3.668,3.314 -0.251,0.363 -0.312,0.91 -0.318,1.375 -0.006,0.459 0.97,0.975 1.591,0.933 C -9.031,3.801 -7.577,3.515 -6.201,2.875 -4.247,1.966 -2.283,1.079 0,0"
       style="fill:#fffefe;fill-opacity:1;fill-rule:nonzero;stroke:none"
       transform="matrix(1.3333333,0,0,-1.3333333,8479.9791,961.40533)"
       clip-path="url(#clipPath487)" />
    <path
       id="path488"
       d="m 0,0 c -1.962,0.036 -3.457,0.039 -4.946,0.127 -0.475,0.028 -0.94,0.277 -1.404,0.439 -0.351,0.122 -0.718,0.879 -0.573,1.232 0.12,0.291 0.251,0.719 0.48,0.802 1.237,0.446 2.482,0.931 3.767,1.163 2.446,0.442 4.913,0.818 7.387,1.053 8.75,0.831 17.479,1.872 26.26,2.406 8.608,0.523 17.203,1.271 25.806,1.896 0.985,0.072 1.985,0.029 2.972,-0.039 0.904,-0.063 1.77,-0.989 1.979,-1.99 C 61.981,5.884 61.399,4.486 60.469,4.107 60.009,3.919 59.545,3.71 59.063,3.621 58.25,3.471 57.422,3.376 56.596,3.316 50.475,2.875 44.353,2.434 38.23,2.02 31.445,1.561 24.652,1.203 17.873,0.669 12.077,0.212 6.277,0.055 0,0"
       style="fill:#fffefe;fill-opacity:1;fill-rule:nonzero;stroke:none"
       transform="matrix(1.3333333,0,0,-1.3333333,7422.8825,701.82867)"
       clip-path="url(#clipPath489)" />
    <path
       id="path490"
       d="m 0,0 c -13.38,-2.798 -26.357,-5.492 -39.341,-8.152 -1.122,-0.23 -2.291,-0.295 -3.439,-0.309 -0.449,-0.006 -0.959,0.262 -1.342,0.541 -1.469,1.072 -1.467,3.26 0.032,4.236 0.677,0.44 1.46,0.807 2.244,0.975 3.24,0.692 6.492,1.326 9.751,1.926 12.546,2.311 25.093,4.615 37.647,6.885 2.282,0.413 4.59,0.69 6.895,0.954 0.98,0.112 1.982,0.054 2.973,0.028 0.72,-0.019 1.23,-0.463 1.603,-1.03 C 17.251,5.71 16.709,4.672 16.169,4.438 15.11,3.978 14.053,3.496 12.956,3.145 8.846,1.832 4.619,0.991 0,0"
       style="fill:#fffefe;fill-opacity:1;fill-rule:nonzero;stroke:none"
       transform="matrix(1.3333333,0,0,-1.3333333,7507.082,833.742)"
       clip-path="url(#clipPath491)" />
    <path
       id="path492"
       d="m 0,0 c -7.211,-6.621 -14.164,-13.004 -21.134,-19.368 -0.85,-0.777 -1.741,-1.529 -2.699,-2.163 -1.242,-0.821 -3.145,-0.206 -3.825,1.156 -0.39,0.782 -0.495,1.639 0.043,2.354 0.689,0.917 1.448,1.802 2.29,2.579 4.62,4.272 9.247,8.537 13.926,12.744 4.678,4.207 9.391,8.376 14.148,12.492 2.126,1.84 4.354,3.571 6.619,5.239 1.46,1.075 3.067,1.953 4.617,2.904 0.406,0.249 1.263,0.034 1.306,-0.303 0.04,-0.311 0.125,-0.69 -0.006,-0.932 C 14.892,15.978 14.47,15.25 13.939,14.625 12.225,12.608 10.528,10.568 8.693,8.663 5.938,5.801 3.071,3.045 0,0"
       style="fill:#fffefe;fill-opacity:1;fill-rule:nonzero;stroke:none"
       transform="matrix(1.3333333,0,0,-1.3333333,7602.3311,1061.9604)"
       clip-path="url(#clipPath493)" />
    <path
       id="path494"
       d="M 0,0 C 0.292,-0.153 0.568,-0.371 0.879,-0.45 2.629,-0.894 3.96,-0.337 4.603,1.101 5.08,2.167 5.465,3.267 5.357,4.46 5.074,7.595 4.957,10.76 4.435,13.857 3.252,20.878 1.94,27.88 0.534,34.861 c -0.817,4.056 -1.872,8.067 -2.912,12.074 -0.414,1.594 -1.052,3.134 -1.638,4.679 -0.365,0.961 -1.089,1.638 -1.966,2.167 -1.018,0.615 -2.298,0.422 -3.179,-0.447 -0.743,-0.731 -1.14,-1.62 -1.342,-2.607 -0.504,-2.463 -0.343,-4.946 -0.185,-7.43 0.412,-6.46 1.348,-12.854 2.631,-19.189 1.183,-5.843 2.489,-11.664 4.558,-17.28 C -2.697,4.651 -1.964,2.449 0,0 m 10.481,53.346 c 0.189,-0.627 0.286,-1.3 0.581,-1.872 4.844,-9.382 7.594,-19.366 8.928,-29.816 0.675,-5.283 0.827,-10.572 0.807,-15.865 -0.021,-5.746 -2.3,-10.613 -6.587,-14.484 -3.075,-2.777 -6.757,-4.252 -10.841,-4.363 -4.272,-0.117 -8.18,1.259 -11.463,4.049 -3.298,2.802 -6.174,5.972 -8.302,9.805 -2.263,4.078 -3.998,8.363 -5.381,12.796 -2.432,7.791 -3.678,15.802 -4.084,23.933 -0.282,5.648 0.181,11.26 1.641,16.748 0.382,1.434 0.857,2.862 1.466,4.213 3.113,6.904 10.178,10.351 18.18,8.605 2.459,-0.537 4.548,-1.964 6.454,-3.597 1.894,-1.623 3.581,-3.447 5.03,-5.478 1.058,-1.483 2.065,-3.002 3.375,-4.611 0.28,-0.107 0.196,-0.063 0.196,-0.063"
       style="fill:#fffefe;fill-opacity:1;fill-rule:nonzero;stroke:none"
       transform="matrix(1.3333333,0,0,-1.3333333,8033.6489,668.0028)"
       clip-path="url(#clipPath495)" />
    <path
       id="path496"
       d="m 0,0 c -0.293,-2.213 -0.617,-3.993 -1.478,-5.647 -2.389,-4.586 -6.283,-7.25 -11.179,-8.346 -3.585,-0.802 -7.233,-0.665 -10.8,0.52 -6.56,2.179 -10.546,6.704 -12.046,13.353 -1.093,4.845 -1.928,9.75 -2.828,14.638 -2.219,12.057 -4.415,24.118 -6.605,36.179 -0.384,2.117 -0.704,4.245 -1.038,6.37 -0.093,0.591 0.51,1.306 1.174,1.349 3.635,0.233 7.271,0.463 10.909,0.65 1.032,0.053 1.935,-0.689 2.162,-1.697 0.363,-1.616 0.707,-3.237 1.004,-4.866 2.145,-11.734 4.276,-23.47 6.41,-35.206 0.682,-3.749 1.31,-7.508 2.063,-11.243 0.359,-1.779 0.891,-3.532 1.465,-5.256 0.254,-0.763 0.752,-1.467 1.236,-2.126 0.755,-1.026 2.421,-1.381 3.609,-0.823 1.264,0.595 2.16,1.545 2.471,2.928 0.406,1.804 0.322,3.631 0.046,5.441 -0.349,2.292 -0.76,4.576 -1.157,6.861 -2.186,12.567 -4.381,25.134 -6.559,37.703 -0.396,2.284 -0.731,4.579 -1.081,6.871 -0.082,0.536 0.562,1.401 1.094,1.43 3.474,0.189 6.948,0.379 10.423,0.519 1.145,0.047 1.87,-0.59 2.062,-1.715 0.723,-4.246 1.442,-8.494 2.129,-12.746 1.533,-9.486 3.046,-18.975 4.567,-28.463 C -1.081,11.279 -0.297,5.87 0,0"
       style="fill:#fffefe;fill-opacity:1;fill-rule:nonzero;stroke:none"
       transform="matrix(1.3333333,0,0,-1.3333333,8116.3221,767.71773)"
       clip-path="url(#clipPath497)" />
    <path
       id="path498"
       d="m 0,0 c -0.319,-1.024 -0.507,-1.659 -0.693,-2.295 -0.29,-0.993 -0.226,-1.971 0.177,-2.916 0.52,-1.22 1.078,-2.423 1.602,-3.641 5.112,-11.877 10.224,-23.754 15.327,-35.635 0.523,-1.216 1.04,-2.44 1.459,-3.695 0.137,-0.409 -0.048,-0.925 -0.093,-1.495 -3.882,-0.376 -7.686,-0.233 -11.489,-0.1 -0.721,0.026 -1.257,0.478 -1.575,1.066 -0.55,1.018 -1.027,2.078 -1.492,3.138 -2.929,6.68 -5.853,13.363 -8.76,20.052 -0.396,0.911 -0.698,1.861 -1.472,2.546 -0.128,-0.031 -0.312,-0.02 -0.368,-0.099 -0.284,-0.401 -0.617,-0.796 -0.782,-1.247 -0.739,-2.023 -1.573,-4.028 -2.093,-6.109 -0.538,-2.155 0.492,-4.244 0.749,-6.371 0.379,-3.122 1.051,-6.209 1.556,-9.317 0.186,-1.142 0.267,-2.302 0.368,-3.457 0.061,-0.69 -0.439,-1.381 -1.055,-1.43 -3.303,-0.264 -6.606,-0.535 -9.914,-0.739 -1.161,-0.072 -1.802,0.503 -2.031,1.731 -1,5.378 -2,10.757 -2.942,16.145 -1.544,8.818 -3.05,17.642 -4.558,26.465 -1.424,8.334 -2.832,16.67 -4.24,25.006 -0.055,0.323 -0.015,0.661 -0.046,0.989 -0.036,0.387 0.425,1.097 0.769,1.144 4.111,0.56 8.237,0.846 12.388,0.668 0.613,-0.026 1.342,-0.621 1.43,-1.184 0.305,-1.963 0.642,-3.924 0.868,-5.897 0.49,-4.283 0.906,-8.574 1.379,-12.859 0.199,-1.813 0.444,-3.621 0.714,-5.424 0.071,-0.475 0.311,-0.925 0.477,-1.395 1.125,0.532 1.085,1.657 1.325,2.539 1.218,4.478 2.309,8.99 3.49,13.477 0.842,3.205 1.747,6.393 2.644,9.583 0.247,0.876 0.843,1.373 1.783,1.435 2.979,0.197 5.955,0.436 8.936,0.594 C 4.926,21.331 6.02,20.817 5.5,19.022 4.946,17.112 4.449,15.186 3.896,13.276 2.652,8.977 1.388,4.684 0,0"
       style="fill:#fffefe;fill-opacity:1;fill-rule:nonzero;stroke:none"
       transform="matrix(1.3333333,0,0,-1.3333333,8152.3259,714.82747)"
       clip-path="url(#clipPath499)" />
    <path
       id="path500"
       d="m 0,0 c -1.536,5.371 -3.056,10.746 -4.627,16.107 -0.221,0.755 -0.685,1.441 -1.068,2.142 -0.036,0.067 -0.3,0.009 -0.639,0.009 -0.041,-3.944 -0.088,-7.883 -0.119,-11.822 -0.024,-2.959 -0.04,-5.918 -0.033,-8.876 0.003,-0.935 0.635,-1.563 1.511,-1.521 1.477,0.071 2.952,0.178 4.425,0.296 0.632,0.051 1.093,0.649 1.052,1.415 C 0.476,-1.762 0.349,-1.279 0,0 m 19.674,-19.572 c 0.913,-3.087 1.731,-5.784 2.514,-8.49 0.183,-0.632 0.259,-1.297 0.366,-1.95 0.101,-0.616 -0.446,-1.441 -1.006,-1.482 -3.796,-0.278 -7.592,-0.341 -11.508,-0.04 -2.522,4.95 -3.588,10.368 -5.75,15.257 -0.822,0.56 -1.654,0.544 -2.48,0.465 -2.294,-0.219 -4.642,-0.15 -6.928,-1.245 -0.087,-0.953 -0.237,-1.93 -0.253,-2.908 -0.053,-3.15 -0.034,-6.302 -0.084,-9.453 -0.047,-2.935 -0.325,-3.236 -3.031,-3.311 -2.155,-0.06 -4.312,-0.081 -6.468,-0.076 -2.16,0.006 -2.584,0.431 -2.634,2.611 -0.038,1.658 -0.033,3.317 -0.021,4.976 0.154,20.564 0.31,41.129 0.477,61.694 0.013,1.657 0.089,3.314 0.177,4.968 0.046,0.871 0.666,1.449 1.619,1.578 4.938,0.67 9.907,0.921 14.883,1.045 1.181,0.029 1.702,-0.372 2.095,-1.672 1.437,-4.76 2.87,-9.521 4.255,-14.296 4.568,-15.758 9.114,-31.522 13.777,-47.671"
       style="fill:#fffefe;fill-opacity:1;fill-rule:nonzero;stroke:none"
       transform="matrix(1.3333333,0,0,-1.3333333,8125.4804,636.88707)"
       clip-path="url(#clipPath501)" />
    <path
       id="path502"
       d="m 0,0 c -1.617,10.916 -3.197,21.396 -4.747,31.88 -1.38,9.338 -2.73,18.679 -4.077,28.022 -0.069,0.479 10e-4,0.983 0.04,1.472 0.045,0.571 0.497,0.831 0.937,1.039 0.292,0.137 0.636,0.193 0.963,0.22 3.632,0.305 7.263,0.618 10.898,0.885 3.965,0.292 7.932,0.548 11.9,0.798 1.321,0.083 2.646,0.113 3.97,0.142 0.544,0.012 1.368,-0.617 1.457,-1.158 0.509,-3.098 1.007,-6.198 1.468,-9.303 0.124,-0.834 -0.506,-1.538 -1.448,-1.65 -1.808,-0.215 -3.62,-0.413 -5.436,-0.541 C 13.777,51.654 11.622,51.602 9.473,51.469 8.819,51.428 8.171,51.274 7.525,51.146 6.959,51.034 6.324,50.241 6.39,49.705 6.695,47.24 7.007,44.777 7.335,42.315 7.466,41.33 7.692,40.357 7.789,39.37 c 0.494,-5.005 0.671,-4.641 5.537,-4.567 1.657,0.026 3.314,0.069 4.97,0.047 0.64,-0.008 1.277,-0.172 1.569,-0.215 0.975,-0.627 0.956,-1.337 1.041,-1.968 0.396,-2.952 0.778,-5.907 1.12,-8.866 0.099,-0.854 -0.597,-1.676 -1.417,-1.723 -2.315,-0.131 -4.633,-0.196 -6.946,-0.337 -0.813,-0.049 -1.628,-0.197 -2.417,-0.398 -0.249,-0.063 -0.483,-0.415 -0.604,-0.688 -0.126,-0.284 -0.18,-0.642 -0.138,-0.951 0.576,-4.266 1.172,-8.531 1.774,-12.794 0.046,-0.324 0.189,-0.633 0.273,-0.953 0.144,-0.554 0.877,-1.166 1.448,-1.166 1.656,-0.001 3.312,0.006 4.968,0.021 3.148,0.028 6.296,0.089 9.444,0.086 1.412,-0.002 2.026,-0.614 2.228,-2.119 0.354,-2.625 0.692,-5.251 0.998,-7.882 0.101,-0.865 -0.562,-1.615 -1.399,-1.728 C 30.074,-6.853 29.914,-6.915 29.75,-6.923 21.146,-7.352 12.542,-7.78 3.937,-8.195 3.447,-8.219 2.951,-8.131 2.459,-8.088 1.887,-8.038 1.25,-7.433 1.139,-6.799 0.769,-4.679 0.412,-2.556 0,0"
       style="fill:#fffefe;fill-opacity:1;fill-rule:nonzero;stroke:none"
       transform="matrix(1.3333333,0,0,-1.3333333,8176.7609,769.37187)"
       clip-path="url(#clipPath503)" />
    <path
       id="path504"
       d="M 0,0 C 0.489,-3.026 0.881,-5.638 1.267,-8.25 1.32,-8.604 0.755,-9.272 0.399,-9.313 c -0.656,-0.075 -1.313,-0.166 -1.972,-0.205 -1.984,-0.119 -3.971,-0.185 -5.952,-0.341 -0.642,-0.05 -1.288,-0.264 -1.891,-0.506 -0.252,-0.101 -0.533,-0.454 -0.563,-0.718 -0.054,-0.48 0.03,-0.988 0.126,-1.471 1.285,-6.493 2.593,-12.983 3.875,-19.477 2.627,-13.314 5.244,-26.629 7.857,-39.945 0.094,-0.482 0.166,-0.993 0.099,-1.47 -0.037,-0.261 -0.349,-0.541 -0.608,-0.696 -0.272,-0.163 -0.627,-0.258 -0.947,-0.26 -3.807,-0.018 -7.614,-0.021 -11.421,-0.002 -0.312,0.002 -0.625,0.195 -0.955,0.305 -0.879,1.058 -1.037,2.408 -1.314,3.682 -3.412,15.684 -6.794,31.376 -10.181,47.066 -0.733,3.397 -1.452,6.797 -2.181,10.195 -0.07,0.324 -0.159,0.643 -0.245,0.963 -0.463,1.737 -1.062,2.257 -2.737,2.263 -1.49,0.006 -2.98,-0.07 -4.47,-0.07 -1.156,0 -2.315,0.034 -3.469,0.109 -0.712,0.046 -1.338,0.467 -1.482,1.13 -0.738,3.391 -1.4,6.798 -2.073,10.203 -0.114,0.577 0.51,1.312 1.15,1.357 1.486,0.106 2.972,0.241 4.46,0.259 10.102,0.125 20.204,0.225 30.307,0.326 0.66,0.007 1.323,-0.032 1.983,-0.072 C -1.273,3.257 -0.69,2.753 -0.445,1.863 -0.313,1.385 -0.214,0.897 0,0"
       style="fill:#fffefe;fill-opacity:1;fill-rule:nonzero;stroke:none"
       transform="matrix(1.3333333,0,0,-1.3333333,7995.5032,585.6712)"
       clip-path="url(#clipPath505)" />
    <path
       id="path506"
       d="m 0,0 c 2.794,0.002 5.114,0.022 7.433,-0.02 1.092,-0.019 1.979,-0.744 2.116,-1.744 0.402,-2.954 0.774,-5.911 1.09,-8.875 0.048,-0.45 -0.223,-0.999 -0.777,-1.143 -0.793,-0.205 -1.597,-0.435 -2.408,-0.492 -2.976,-0.21 -5.958,-0.333 -8.934,-0.538 -0.645,-0.044 -1.295,-0.239 -1.904,-0.467 -0.261,-0.098 -0.58,-0.447 -0.601,-0.704 -0.066,-0.81 -0.103,-1.646 0.025,-2.444 0.709,-4.415 1.461,-8.824 2.218,-13.232 0.181,-1.056 0.911,-1.625 2.14,-1.656 2.319,-0.058 4.64,-0.06 6.96,-0.112 0.992,-0.022 1.983,-0.098 2.972,-0.173 0.593,-0.045 1.217,-0.614 1.373,-1.256 0.392,-1.609 0.775,-3.219 1.138,-4.834 0.327,-1.454 0.638,-2.912 0.928,-4.374 0.219,-1.111 -0.446,-2.029 -1.497,-2.116 -0.495,-0.041 -0.99,-0.09 -1.485,-0.098 -1.16,-0.018 -2.321,-0.012 -3.481,-0.018 -6.254,-0.033 -5.952,0.533 -4.715,-6.05 1.284,-6.837 2.531,-13.682 3.789,-20.524 0.089,-0.486 0.141,-0.981 0.199,-1.473 0.038,-0.328 -0.522,-1.03 -0.855,-1.11 -0.157,-0.038 -0.306,-0.16 -0.459,-0.16 -3.644,-0.013 -7.288,-0.034 -10.932,-0.006 -1.027,0.008 -1.727,0.715 -2.011,1.869 -0.316,1.286 -0.621,2.576 -0.903,3.871 -3.761,17.318 -7.516,34.637 -11.276,51.956 -0.878,4.046 -1.778,8.088 -2.638,12.138 -0.135,0.637 -0.223,1.326 -0.121,1.956 0.067,0.411 0.463,1.018 0.805,1.089 1.123,0.234 2.287,0.333 3.439,0.361 C -12.407,-0.234 -6.44,-0.128 0,0"
       style="fill:#fffefe;fill-opacity:1;fill-rule:nonzero;stroke:none"
       transform="matrix(1.3333333,0,0,-1.3333333,7996.0604,691.7236)"
       clip-path="url(#clipPath507)" />
    <path
       id="path508"
       d="M 0,0 C 0.177,0.245 0.495,0.555 0.457,0.813 0.14,2.94 -0.274,5.053 -0.596,7.18 c -0.247,1.631 -0.427,3.275 -0.571,4.918 -0.02,0.232 0.289,0.647 0.523,0.717 0.619,0.186 1.28,0.304 1.926,0.316 4.472,0.083 8.944,0.13 13.415,0.192 6.294,0.087 12.587,0.183 18.881,0.259 0.825,0.011 1.652,-0.051 2.476,-0.112 0.805,-0.06 1.614,-0.766 1.717,-1.536 0.396,-2.952 0.82,-5.903 1.129,-8.865 0.224,-2.143 -0.324,-2.661 -2.487,-2.632 -2.481,0.034 -4.961,0.096 -7.441,0.131 -0.403,0.006 -0.944,-0.59 -0.941,-0.992 0.003,-0.657 -0.052,-1.326 0.049,-1.969 0.386,-2.453 0.825,-4.897 1.245,-7.344 1.902,-11.093 3.803,-22.186 5.708,-33.279 0.813,-4.73 1.654,-9.456 2.446,-14.19 0.246,-1.466 0.386,-2.95 0.543,-4.429 0.061,-0.579 -0.577,-1.388 -1.118,-1.447 -0.985,-0.106 -1.973,-0.222 -2.961,-0.249 -2.649,-0.074 -5.299,-0.131 -7.949,-0.138 -1.929,-0.006 -2.535,0.559 -2.913,2.618 -0.686,3.745 -1.358,7.492 -2.016,11.242 -1.889,10.759 -3.776,21.518 -5.648,32.281 -0.822,4.729 -1.604,9.465 -2.412,14.197 -0.111,0.651 -0.249,1.298 -0.399,1.941 -0.139,0.6 -0.809,1.228 -1.383,1.251 C 9.736,0.121 8.248,0.139 6.76,0.189 4.778,0.255 2.796,0.336 0.353,0.248 -0.108,0.085 -0.023,0.041 0,0"
       style="fill:#fffefe;fill-opacity:1;fill-rule:nonzero;stroke:none"
       transform="matrix(1.3333333,0,0,-1.3333333,8047.7673,596.98813)"
       clip-path="url(#clipPath509)" />
    <path
       id="path510"
       d="m 0,0 c -0.915,6.16 -1.769,11.887 -2.633,17.613 -0.444,2.945 -0.928,5.884 -1.343,8.833 -0.114,0.81 -0.092,1.65 -0.024,2.467 0.022,0.26 0.369,0.673 0.611,0.707 3.931,0.554 7.871,1.038 11.856,0.849 0.55,-0.026 1.207,-0.65 1.314,-1.295 0.672,-4.081 1.357,-8.16 1.979,-12.249 1.217,-8.015 2.403,-16.035 3.587,-24.055 0.822,-5.565 1.615,-11.135 2.427,-16.701 0.359,-2.456 0.724,-4.911 1.105,-7.364 0.163,-1.046 0.899,-1.634 2.107,-1.656 1.655,-0.03 3.311,-0.015 4.966,-0.013 2.814,0.003 5.629,0.036 8.443,0.007 1.619,-0.016 2.171,-0.434 2.391,-1.887 0.396,-2.614 0.727,-5.238 1.042,-7.863 0.1,-0.835 -0.577,-1.541 -1.488,-1.609 -2.311,-0.175 -4.622,-0.384 -6.937,-0.46 -6.287,-0.205 -12.577,-0.358 -18.866,-0.507 -0.818,-0.019 -1.662,0.013 -2.448,0.206 -0.399,0.098 -0.911,0.558 -1.001,0.941 -0.454,1.93 -0.848,3.88 -1.151,5.839 C 4.113,-26.425 2.322,-14.648 0.513,-2.873 0.388,-2.056 0.21,-1.246 0,0"
       style="fill:#fffefe;fill-opacity:1;fill-rule:nonzero;stroke:none"
       transform="matrix(1.3333333,0,0,-1.3333333,8148.9765,617.96987)"
       clip-path="url(#clipPath511)" />
    <path
       id="path512"
       d="m 0,0 c 0.097,-0.572 0.117,-0.737 0.15,-0.899 1.39,-6.803 1.991,-6.199 -5.36,-6.615 -7.287,-0.413 -14.592,-0.502 -21.888,-0.733 -0.166,-0.005 -0.332,0.003 -0.498,0.005 -1.221,0.016 -1.876,0.505 -2.1,1.648 -0.606,3.092 -1.227,6.181 -1.775,9.283 -2.133,12.083 -4.232,24.172 -6.361,36.255 -1.15,6.532 -2.346,13.056 -3.491,19.588 -0.258,1.468 -0.414,2.954 -0.573,4.437 -0.086,0.803 0.657,1.598 1.526,1.608 3.15,0.035 6.301,0.053 9.451,0.029 0.717,-0.005 1.205,-0.51 1.445,-1.167 0.227,-0.619 0.43,-1.257 0.549,-1.904 2.425,-13.209 4.831,-26.421 7.253,-39.631 0.956,-5.218 1.937,-10.432 2.919,-15.646 0.133,-0.704 0.675,-1.192 1.341,-1.237 0.991,-0.068 1.984,-0.135 2.976,-0.14 3.319,-0.016 6.637,0.005 9.956,-0.005 C -0.87,4.865 -1.22,4.827 -0.288,1.379 -0.201,1.059 -0.142,0.731 0,0"
       style="fill:#fffefe;fill-opacity:1;fill-rule:nonzero;stroke:none"
       transform="matrix(1.3333333,0,0,-1.3333333,8067.6672,777.59427)"
       clip-path="url(#clipPath513)" />
  </g>
</svg>
