<?xml version="1.0" encoding="UTF-8" standalone="no"?>
<!-- Created with Inkscape (http://www.inkscape.org/) -->

<svg
   version="1.1"
   id="svg1"
   width="1440"
   height="1440"
   viewBox="0 0 1440 1440"
   xmlns="http://www.w3.org/2000/svg"
   xmlns:svg="http://www.w3.org/2000/svg">
  <defs
     id="defs1">
    <clipPath
       clipPathUnits="userSpaceOnUse"
       id="clipPath515">
      <path
         d="M 0,1080 H 1080 V 0 H 0 Z"
         transform="translate(-289.41263,-483.39111)"
         id="path515" />
    </clipPath>
    <clipPath
       clipPathUnits="userSpaceOnUse"
       id="clipPath517">
      <path
         d="M 0,1080 H 1080 V 0 H 0 Z"
         transform="translate(-119.4579,-784.17572)"
         id="path517" />
    </clipPath>
    <clipPath
       clipPathUnits="userSpaceOnUse"
       id="clipPath519">
      <path
         d="M 0,1080 H 1080 V 0 H 0 Z"
         transform="translate(-856.33922,-394.49801)"
         id="path519" />
    </clipPath>
    <clipPath
       clipPathUnits="userSpaceOnUse"
       id="clipPath521">
      <path
         d="M 0,1080 H 1080 V 0 H 0 Z"
         transform="translate(-255.31921,-283.07078)"
         id="path521" />
    </clipPath>
    <clipPath
       clipPathUnits="userSpaceOnUse"
       id="clipPath523">
      <path
         d="M 0,1080 H 1080 V 0 H 0 Z"
         transform="translate(-902.005,-790.93372)"
         id="path523" />
    </clipPath>
    <clipPath
       clipPathUnits="userSpaceOnUse"
       id="clipPath525">
      <path
         d="M 0,1080 H 1080 V 0 H 0 Z"
         transform="translate(-653.14059,-655.76681)"
         id="path525" />
    </clipPath>
    <clipPath
       clipPathUnits="userSpaceOnUse"
       id="clipPath527">
      <path
         d="M 0,1080 H 1080 V 0 H 0 Z"
         transform="translate(-171.6852,-761.39292)"
         id="path527" />
    </clipPath>
    <clipPath
       clipPathUnits="userSpaceOnUse"
       id="clipPath529">
      <path
         d="M 0,1080 H 1080 V 0 H 0 Z"
         transform="translate(-162.41573,-728.82662)"
         id="path529" />
    </clipPath>
    <clipPath
       clipPathUnits="userSpaceOnUse"
       id="clipPath531">
      <path
         d="M 0,1080 H 1080 V 0 H 0 Z"
         transform="translate(-841.13342,-397.36141)"
         id="path531" />
    </clipPath>
  </defs>
  <g
     id="layer-MC1"
     transform="translate(-8760)">
    <path
       id="path514"
       d="m 0,0 c -3.419,10.122 -6.287,20.393 -8.391,30.872 -0.616,3.068 -1.202,6.143 -1.831,9.208 -0.17,0.829 -0.414,1.647 -0.698,2.443 -0.057,0.158 -0.495,0.324 -0.688,0.264 -0.67,-0.207 -1.347,-0.447 -1.956,-0.79 -11.304,-6.363 -22.265,-13.251 -32.469,-21.292 -4.254,-3.352 -8.383,-6.847 -12.15,-10.748 -2.576,-2.668 -4.985,-5.473 -6.935,-8.647 -1.049,-1.707 -1.9,-3.499 -2.445,-5.433 -1.014,-3.593 -0.304,-6.745 2.35,-9.429 1.317,-1.331 2.831,-2.374 4.467,-3.262 3.024,-1.64 6.261,-2.727 9.563,-3.612 6.617,-1.773 13.379,-2.764 20.186,-3.356 4.82,-0.419 9.663,-0.63 14.501,-0.757 7.974,-0.208 15.947,-0.062 23.907,0.494 0.417,0.029 0.825,0.178 1.317,0.289 0,0.428 0.115,0.879 -0.02,1.234 -0.556,1.462 -1.184,2.897 -1.793,4.339 C 4.477,-12.413 2.212,-6.577 0,0 m 677.537,224.328 c -1.565,1.654 -3.058,3.385 -4.708,4.95 -6.714,6.367 -14.407,11.083 -23.321,13.754 -2.076,0.623 -4.138,0.922 -6.299,0.899 -8.691,-0.095 -17.344,-0.916 -26.019,-1.309 -0.426,-0.02 -0.851,-0.079 -1.276,-0.115 -5.247,-0.447 -10.494,-0.893 -15.74,-1.341 -4.396,-0.376 -8.799,-0.684 -13.185,-1.146 -6.367,-0.671 -12.722,-1.45 -19.081,-2.188 -5.654,-0.656 -11.309,-1.305 -16.96,-1.982 -2.543,-0.304 -5.081,-0.652 -7.617,-1.008 -5.353,-0.751 -10.705,-1.508 -16.055,-2.287 -4.786,-0.698 -9.572,-1.402 -14.351,-2.151 -6.043,-0.948 -12.077,-1.948 -18.116,-2.919 -3.933,-0.632 -7.87,-1.229 -11.797,-1.894 -0.961,-0.163 -1.888,-0.531 -2.72,-0.772 -0.319,-0.942 0.09,-1.536 0.414,-2.156 2.236,-4.287 4.467,-8.577 6.701,-12.865 0.242,-0.465 0.899,-0.822 1.425,-0.747 2.253,0.323 4.503,0.661 6.756,0.984 4.649,0.668 9.296,1.345 13.948,1.987 3.804,0.526 7.613,1.018 11.422,1.504 2.964,0.378 5.93,0.733 8.897,1.078 3.957,0.46 7.915,0.907 11.874,1.344 3.678,0.406 7.354,0.828 11.037,1.175 4.534,0.427 9.075,0.779 13.613,1.171 5.103,0.441 10.202,0.934 15.309,1.325 4.257,0.326 8.52,0.613 12.786,0.785 8.394,0.34 16.789,0.661 25.186,0.851 8.256,0.188 16.508,-0.014 24.763,-0.38 6.121,-0.271 12.23,-0.67 18.313,-1.297 6.08,-0.626 12.142,-1.502 18.114,-2.878 0.521,-0.12 1.082,-0.063 1.869,-0.1 -0.319,0.735 -0.46,1.297 -0.772,1.738 -1.315,1.858 -2.68,3.681 -4.41,5.99 m 1.355,44.233 c -10.007,-8.733 -21.498,-14.319 -34.653,-16.422 -1.244,-0.198 -2.442,-0.698 -3.656,-1.076 -0.065,-0.02 -0.105,-0.215 -0.104,-0.328 0.002,-0.139 0.011,-0.338 0.099,-0.407 1.185,-0.933 2.667,-0.995 4.047,-1.166 3.28,-0.407 6.41,-1.329 9.49,-2.451 9.829,-3.584 18.257,-9.296 25.269,-17.03 10.522,-11.606 16.483,-25.147 16.997,-40.931 0.023,-0.71 0.054,-1.424 0.155,-2.126 0.032,-0.218 0.285,-0.426 0.476,-0.594 0.196,-0.174 0.95,0.279 0.996,0.601 0.122,0.843 0.237,1.688 0.336,2.535 0.479,4.101 1.046,8.187 2.101,12.188 3.168,12.018 9.304,22.291 18.331,30.807 6.187,5.837 13.199,10.423 21.365,12.992 5.29,1.665 10.671,3.035 16.178,3.834 0.698,0.101 1.391,0.292 2.061,0.517 0.963,0.323 1.529,1.387 1.345,2.398 -0.192,1.058 -1.041,1.817 -2.035,1.828 -2.99,0.031 -5.986,-0.047 -8.969,0.118 -10.392,0.575 -19.715,4.098 -28.017,10.366 -5.894,4.45 -10.558,9.976 -14.107,16.413 -4.797,8.704 -8.002,17.923 -8.471,27.953 -0.061,1.308 -0.569,2.481 -1.02,3.674 -0.118,0.312 -0.357,0.474 -0.68,0.371 -0.245,-0.079 -0.604,-0.215 -0.661,-0.403 -0.416,-1.352 -0.738,-2.67 -0.426,-4.164 0.826,-3.951 0.624,-7.944 -0.106,-11.889 -1.322,-7.137 -4.37,-13.512 -8.734,-19.285 -2.155,-2.85 -4.545,-5.483 -7.607,-8.323 M 511.722,148.259 c 0.265,-1.107 0.551,-2.21 0.793,-3.322 2.475,-11.414 4.511,-22.896 5.443,-34.555 0.078,-0.975 0.378,-1.939 0.644,-2.888 0.05,-0.179 0.472,-0.419 0.649,-0.369 0.813,0.228 1.631,0.485 2.392,0.847 6.17,2.934 12.353,5.839 18.481,8.859 7.921,3.903 15.631,8.196 23.134,12.858 5.569,3.462 10.959,7.171 16.035,11.33 2.761,2.262 5.339,4.713 7.713,7.373 2.097,2.349 3.899,4.904 5.094,7.843 1.929,4.742 0.737,8.222 -2.402,11.28 -0.811,0.79 -1.724,1.502 -2.682,2.104 -1.322,0.831 -2.705,1.577 -4.109,2.263 -3.081,1.506 -6.345,2.516 -9.652,3.386 -9.121,2.401 -18.454,3.43 -27.82,4.187 -4.256,0.345 -8.527,0.553 -12.796,0.671 -4.982,0.139 -9.968,0.087 -14.952,0.163 -5.114,0.078 -10.219,-0.379 -15.335,-0.242 -0.136,0.003 -0.453,-0.465 -0.4,-0.609 0.975,-2.664 2.053,-5.293 2.993,-7.97 2.595,-7.39 4.677,-14.934 6.777,-23.209 M -165.409,-93.052 c -1.516,-0.387 -3.024,-0.807 -4.55,-1.152 -3.466,-0.783 -6.998,-1.177 -10.511,-1.671 -1.139,-0.16 -2.241,-0.341 -3.234,-0.963 -0.407,-0.254 -0.594,-1.061 -0.328,-1.521 0.455,-0.787 1.133,-1.3 2.015,-1.418 0.693,-0.093 1.414,-0.05 2.117,0.004 0.987,0.077 1.988,0.4 2.951,0.3 2.259,-0.236 4.522,-0.553 6.743,-1.03 5.628,-1.21 10.78,-3.585 15.62,-6.669 6.194,-3.948 11.352,-8.988 15.879,-14.748 7.381,-9.39 11.876,-20.019 13.825,-31.747 0.651,-3.92 1.456,-7.839 1.265,-11.858 -0.02,-0.417 0.046,-0.856 0.166,-1.257 0.063,-0.206 0.308,-0.396 0.516,-0.511 0.311,-0.171 0.603,-0.049 0.69,0.294 0.556,2.198 1.069,4.418 1.108,6.688 0.049,2.874 0.553,5.681 1.249,8.431 4.454,17.581 14.231,31.506 29.204,41.689 9.698,6.595 20.561,10.256 32.121,11.966 1.967,0.291 3.939,0.619 5.861,1.114 0.93,0.24 1.848,0.82 1.973,2.002 0.106,0.992 -0.706,2.078 -2.001,2.444 -2.049,0.578 -4.097,1.201 -6.266,1.202 -4.577,0.002 -9.072,0.737 -13.533,1.658 -7.568,1.564 -14.79,4.118 -21.605,7.788 -6.068,3.268 -11.522,7.342 -16.159,12.455 -7.72,8.513 -12.265,18.387 -12.805,29.987 -0.099,2.126 -0.466,4.242 -0.775,6.352 -0.1,0.68 -0.335,1.385 -1.118,1.652 -0.593,0.203 -1.473,-0.471 -1.858,-1.458 -0.363,-0.93 -0.661,-1.87 -0.495,-2.905 0.868,-5.424 0.416,-10.807 -0.816,-16.104 -3.047,-13.105 -10.002,-23.752 -20.542,-32.079 -4.851,-3.832 -10.235,-6.68 -16.707,-8.935 m -13.269,2.381 c 1.545,0.252 3.082,0.568 4.635,0.745 3.569,0.407 6.963,1.46 10.27,2.788 6.29,2.526 11.826,6.221 16.642,10.991 0.303,0.3 0.584,0.624 0.87,0.94 0.325,0.359 0.426,1.002 0.181,1.16 -0.22,0.142 -0.439,0.353 -0.679,0.386 -4.366,0.616 -8.747,1.138 -13.101,1.826 -6.759,1.068 -13.393,2.66 -19.81,5.085 -2.938,1.11 -5.762,2.45 -8.461,4.054 -2.586,1.539 -4.991,3.323 -6.921,5.646 -3.862,4.649 -5.446,9.883 -4.066,15.917 0.643,2.809 1.665,5.442 3.035,7.95 1.3,2.378 2.834,4.607 4.499,6.747 3.867,4.97 8.375,9.315 13.1,13.446 4.938,4.318 10.182,8.246 15.536,12.025 11.998,8.47 24.59,15.984 37.449,23.055 14.475,7.959 29.253,15.323 44.223,22.305 19.094,8.908 38.411,17.302 57.954,25.176 2.508,1.01 4.996,2.068 7.493,3.107 0.747,0.311 1.066,0.952 1.066,1.69 -0.004,3.131 -0.052,6.263 -0.09,9.394 -0.006,0.49 -0.731,1.006 -1.202,0.87 -0.409,-0.119 -0.828,-0.213 -1.222,-0.371 -2.376,-0.956 -4.719,-2.002 -7.124,-2.881 -12.7,-4.641 -25.3,-9.54 -37.85,-14.574 -30.401,-12.195 -60.328,-25.441 -89.528,-40.307 -20.061,-10.213 -39.713,-21.144 -58.551,-33.493 -11.445,-7.503 -22.538,-15.482 -32.812,-24.552 -6.421,-5.669 -12.452,-11.704 -17.497,-18.667 -1.675,-2.313 -3.187,-4.719 -4.473,-7.268 -1.095,-2.169 -1.987,-4.421 -2.541,-6.785 -0.862,-3.684 -0.88,-7.349 0.667,-10.888 1.286,-2.94 3.348,-5.277 5.868,-7.22 2.151,-1.657 4.485,-3.013 6.948,-4.162 3.756,-1.754 7.673,-3.054 11.683,-4.044 4.975,-1.228 10.013,-2.119 15.105,-2.771 5.23,-0.671 10.477,-1.176 15.732,-1.384 6.543,-0.259 13.101,-0.172 19.652,-0.21 0.989,-0.006 1.979,0.119 3.005,0.186 1.955,2.351 4.552,3.377 7.467,3.746 0.707,0.089 1.415,0.161 2.848,0.342 m 117.479,17.56 c -0.565,-0.079 -1.127,-0.207 -1.694,-0.229 -7.402,-0.296 -14.773,-1.189 -22.191,-1.194 -0.854,-10e-4 -1.711,-0.026 -2.563,-0.087 -2.131,-0.153 -4.261,-0.321 -6.388,-0.518 -0.205,-0.019 -0.549,-0.292 -0.543,-0.436 0.009,-0.226 0.211,-0.52 0.417,-0.65 5.47,-3.447 11.435,-5.743 17.617,-7.521 3.838,-1.103 7.751,-1.923 11.698,-2.441 3.379,-0.443 6.725,-1.269 10.183,-1.128 0.823,0.033 1.675,-0.27 2.489,-0.505 0.952,-0.275 1.876,-0.644 2.897,-1.002 3.595,1.272 7.424,1.712 11.197,2.403 7.141,1.309 14.3,2.519 21.447,3.793 8.968,1.599 17.931,3.228 26.899,4.831 7.007,1.252 14.019,2.475 21.025,3.727 8.968,1.603 17.932,3.228 26.899,4.832 7.007,1.253 14.019,2.473 21.025,3.734 7.004,1.26 13.999,2.576 21.006,3.824 8.829,1.572 17.669,3.086 26.499,4.652 9.251,1.64 18.499,3.29 27.741,4.978 4.48,0.818 8.979,1.581 13.407,2.628 25.348,5.991 50.612,12.318 75.785,19.003 29.853,7.929 59.557,16.388 89.161,25.199 20.33,6.05 40.586,12.334 60.768,18.857 32.377,10.465 64.564,21.487 96.512,33.2 0.933,0.342 1.841,0.752 2.757,1.137 1.311,0.551 2.603,1.148 3.929,1.657 11.033,4.235 22.091,8.404 33.105,12.688 26.15,10.171 52.028,20.993 77.577,32.597 21.142,9.603 42.04,19.705 62.479,30.741 14.923,8.058 29.601,16.531 43.746,25.899 10.818,7.165 21.361,14.705 31.098,23.316 5.452,4.822 10.639,9.904 15.139,15.648 3.087,3.941 5.774,8.118 7.687,12.775 1.325,3.224 1.884,6.547 1.747,10.018 -0.128,3.235 -1.17,6.153 -3.06,8.741 -0.919,1.258 -2.004,2.41 -3.111,3.513 -2.549,2.54 -5.576,4.422 -8.755,6.056 -5.217,2.684 -10.747,4.536 -16.401,6.038 -0.412,0.109 -0.845,0.233 -1.261,0.21 -0.698,-0.037 -1.437,-0.066 -2.073,-0.316 -0.92,-0.363 -1.778,-0.896 -2.638,-1.398 -10.818,-6.316 -18.625,-15.312 -23.724,-26.708 -0.347,-0.777 -0.613,-1.592 -0.897,-2.396 -0.211,-0.597 -0.002,-1.158 0.365,-1.59 0.645,-0.758 1.405,-1.417 2.061,-2.166 4.491,-5.125 5.716,-10.988 3.937,-17.53 -1.1,-4.046 -3.111,-7.637 -5.502,-11.032 -3.216,-4.567 -7.08,-8.559 -11.123,-12.384 -6.747,-6.385 -14.166,-11.923 -21.802,-17.181 -15.515,-10.683 -31.887,-19.925 -48.589,-28.583 -16.44,-8.522 -33.161,-16.469 -50.11,-23.932 C 561.557,85.999 546.347,79.561 531.005,73.439 518.309,68.372 505.581,63.391 492.738,58.709 482.171,54.856 471.654,50.862 461.044,47.133 437.134,38.731 413.115,30.651 388.943,23.03 366.404,15.924 343.783,9.095 321.06,2.6 c -17.793,-5.085 -35.637,-9.987 -53.528,-14.719 -18.578,-4.914 -37.203,-9.636 -55.885,-14.134 -12.455,-2.999 -24.928,-5.925 -37.43,-8.724 -12.639,-2.831 -25.313,-5.511 -37.99,-8.169 -9.472,-1.986 -18.969,-3.856 -28.464,-5.732 -6.702,-1.324 -13.412,-2.61 -20.131,-3.844 -8.401,-1.544 -16.81,-3.049 -25.225,-4.513 -6.451,-1.121 -12.912,-2.189 -19.38,-3.215 -6.327,-1.003 -12.666,-1.94 -19.004,-2.873 -4.789,-0.705 -9.586,-1.358 -14.38,-2.031 -5.075,-0.712 -10.144,-1.478 -15.229,-2.115 -5.792,-0.725 -11.599,-1.337 -17.401,-1.989 -2.971,-0.334 -5.946,-0.64 -8.919,-0.969 -3.82,-0.423 -7.634,-0.93 -11.462,-1.267 -5.676,-0.5 -11.362,-0.881 -17.831,-1.417 m -45.992,47.368 c 1.79,-2.849 4.31,-4.908 7.177,-6.576 3.215,-1.872 6.646,-3.254 10.187,-4.373 6.401,-2.021 12.959,-3.365 19.601,-4.206 8.905,-1.127 17.843,-1.955 26.836,-1.981 3.99,-0.011 7.981,-0.155 11.97,-0.119 7.268,0.066 14.537,0.14 21.801,0.366 5.551,0.172 11.096,0.584 16.644,0.891 0.426,0.024 0.853,0.057 1.278,0.094 5.392,0.469 10.784,0.935 16.174,1.412 4.256,0.376 8.516,0.723 12.766,1.161 3.824,0.394 7.637,0.893 11.455,1.349 2.545,0.304 5.089,0.62 7.635,0.92 3.251,0.382 6.513,0.689 9.754,1.144 6.766,0.951 13.523,1.971 20.281,2.974 6.619,0.983 13.25,1.899 19.851,2.992 9.831,1.628 19.658,3.292 29.454,5.116 11.054,2.059 22.069,4.328 33.107,6.478 16.629,3.238 33.157,6.954 49.666,10.742 20.674,4.743 41.261,9.859 61.763,15.299 32.89,8.728 65.577,18.164 97.992,28.533 31.469,10.065 62.68,20.862 93.499,32.785 20.856,8.07 41.524,16.59 61.84,25.94 17.474,8.042 34.716,16.547 51.384,26.177 10.493,6.063 20.777,12.451 30.426,19.807 4.99,3.804 9.789,7.837 14.177,12.337 2.693,2.762 5.173,5.699 7.25,8.957 1.615,2.536 2.879,5.21 3.589,8.172 0.979,4.089 -0.051,7.61 -2.647,10.763 -1.089,1.324 -2.336,2.516 -3.807,3.411 -1.823,1.108 -3.65,2.231 -5.565,3.163 -4.245,2.068 -8.767,3.356 -13.355,4.409 -5.555,1.276 -11.166,2.195 -16.837,2.817 -5.666,0.621 -11.334,1.19 -17.029,1.362 -5.698,0.172 -11.399,0.255 -17.099,0.294 -13.115,0.088 -26.214,-0.367 -39.299,-1.252 -0.427,-0.029 -0.853,-0.068 -1.279,-0.105 -4.965,-0.436 -9.93,-0.868 -14.894,-1.31 -3.972,-0.354 -7.944,-0.716 -11.914,-1.092 -0.265,-0.025 -0.516,-0.194 -0.771,-0.295 -0.255,-0.555 -0.227,-1.092 0.072,-1.625 1.115,-1.984 2.216,-3.976 3.342,-5.954 0.306,-0.538 0.864,-0.786 1.437,-0.756 1.991,0.104 3.977,0.363 5.968,0.403 7.548,0.15 15.094,0.511 22.647,0.16 6.545,-0.305 13.094,-0.335 19.635,-0.941 6.817,-0.632 13.589,-1.458 20.296,-2.808 4.333,-0.873 8.598,-2.02 12.727,-3.602 3.469,-1.328 6.771,-2.99 9.711,-5.314 1.583,-1.252 2.956,-2.678 4.032,-4.381 2.073,-3.278 2.817,-6.768 1.891,-10.616 -0.61,-2.532 -1.629,-4.858 -2.979,-7.051 -1.273,-2.067 -2.758,-3.981 -4.414,-5.76 -2.625,-2.821 -5.418,-5.462 -8.412,-7.891 -6.101,-4.949 -12.611,-9.31 -19.356,-13.31 -8.58,-5.089 -17.355,-9.833 -26.388,-14.07 -8.895,-4.172 -17.839,-8.241 -26.785,-12.303 -6.094,-2.767 -12.191,-5.531 -18.353,-8.141 -9.964,-4.22 -20.005,-8.258 -29.973,-12.47 -22.7,-9.59 -45.715,-18.354 -69.014,-26.375 C 369.74,42.361 347.338,35.312 324.762,28.81 304.515,22.979 284.183,17.473 263.684,12.599 253.162,10.097 242.636,7.603 232.082,5.239 223.888,3.403 215.667,1.677 207.424,0.079 c -9.92,-1.923 -19.868,-3.707 -29.82,-5.46 -6.728,-1.184 -13.484,-2.208 -20.227,-3.309 -2.528,-0.412 -5.056,-0.828 -7.582,-1.258 -5.753,-0.978 -11.503,-1.978 -17.257,-2.947 -4.491,-0.757 -8.984,-1.505 -13.483,-2.212 -4.358,-0.685 -8.722,-1.336 -13.09,-1.959 -5.638,-0.806 -11.281,-1.587 -16.926,-2.344 -3.104,-0.416 -6.215,-0.78 -9.327,-1.131 -3.537,-0.398 -7.081,-0.735 -10.618,-1.137 -2.263,-0.257 -4.52,-0.564 -6.776,-0.881 -3.524,-0.496 -7.041,-1.034 -10.565,-1.528 -2.539,-0.355 -5.081,-0.681 -7.625,-0.994 -3.815,-0.47 -7.626,-0.981 -11.45,-1.359 -4.676,-0.461 -9.377,-0.692 -14.045,-1.219 -7.09,-0.801 -14.217,-0.968 -21.328,-1.233 -12.255,-0.458 -24.497,0.007 -36.699,1.381 -4.826,0.543 -9.575,1.401 -14.261,2.653 -2.76,0.737 -5.425,1.74 -8.008,2.946 -2.864,1.338 -5.49,3.047 -7.595,5.44 -3.218,3.658 -4.48,7.831 -3.312,12.675 0.781,3.237 2.166,6.177 4.037,8.896 2.677,3.889 5.775,7.424 9.266,10.6 3.269,2.974 6.598,5.885 10.194,8.46 4.285,3.069 8.56,6.158 12.945,9.08 6.757,4.505 13.652,8.798 20.68,12.873 1.107,0.643 2.179,1.351 3.233,2.076 0.195,0.134 0.34,0.508 0.32,0.757 -0.108,1.398 -0.118,2.832 -1.024,4.187 -0.824,-0.312 -1.639,-0.548 -2.389,-0.916 -5.244,-2.569 -10.503,-5.111 -15.704,-7.765 -12.696,-6.476 -25.147,-13.389 -37.142,-21.102 -8.398,-5.401 -16.528,-11.165 -24.037,-17.772 -3.755,-3.303 -7.229,-6.871 -10.332,-10.796 -2.131,-2.696 -3.962,-5.575 -5.193,-8.801 -1.427,-3.741 -1.814,-7.47 0.525,-11.723 M 18.13,95.632 c -0.167,-2.7 -0.388,-5.398 -0.49,-8.101 -0.297,-7.845 0.125,-15.667 0.885,-23.474 0.303,-3.119 0.782,-6.214 1.664,-9.231 0.643,-2.2 1.532,-4.289 2.851,-6.18 4.118,-5.908 9.892,-8.814 16.967,-9.339 3.766,-0.28 7.4,0.394 10.86,1.833 7.557,3.14 12.671,8.602 14.968,16.486 0.874,3.001 1.255,6.141 1.28,9.288 0.062,7.71 0.931,15.359 1.895,22.987 1.018,8.054 2.518,16.038 4.372,23.942 3.649,15.554 8.446,30.751 14.516,45.535 6.836,16.652 15.044,32.583 25.169,47.493 6.258,9.216 13.136,17.927 21.142,25.709 4.819,4.685 9.962,8.962 15.773,12.364 1.992,1.166 3.751,2.572 5.36,4.195 4.648,4.686 7.042,10.284 6.781,16.934 -0.282,7.202 -3.406,12.831 -9.447,16.78 -3.419,2.236 -7.272,3.245 -11.293,3.559 -6.873,0.536 -13.297,-0.974 -19.234,-4.506 -0.977,-0.581 -1.905,-1.349 -2.965,-1.665 -1.69,-0.504 -3.085,-1.461 -4.496,-2.408 -2.128,-1.43 -4.239,-2.89 -6.295,-4.421 C 97.137,265.031 87.138,255.318 78.114,244.592 65.208,229.253 54.424,212.52 45.57,194.549 33.599,170.253 25.083,144.825 20.694,118.055 19.517,110.882 18.508,103.694 18.13,95.632 M 426.383,47.306 C 396.398,36.854 366.152,27.217 335.684,18.276 316.697,12.704 297.631,7.415 278.488,2.4 c -17.628,-4.619 -35.3,-9.056 -53.045,-13.195 -13.03,-3.039 -26.082,-5.988 -39.167,-8.775 -12.11,-2.58 -24.266,-4.953 -36.423,-7.304 -10.061,-1.947 -20.137,-3.834 -30.239,-5.556 -9.542,-1.626 -19.095,-3.185 -28.669,-4.632 -9.011,-1.362 -18.05,-2.516 -27.062,-3.866 -2.674,-0.4 -5.366,-0.686 -8.053,-0.992 -3.396,-0.387 -6.794,-0.741 -10.192,-1.11 -6.795,-0.736 -13.584,-1.546 -20.388,-2.186 -5.388,-0.508 -10.794,-0.809 -16.192,-1.201 -0.427,-0.031 -0.854,-0.055 -1.279,-0.096 -7.236,-0.702 -14.503,-0.881 -21.757,-1.249 -4.409,-0.223 -8.833,-0.186 -13.25,-0.226 -13.257,-0.119 -26.494,0.125 -39.682,1.713 -5.803,0.699 -11.563,1.618 -17.264,2.874 -4.314,0.95 -8.523,2.276 -12.604,3.995 -2.766,1.166 -5.431,2.507 -7.902,4.217 -2.724,1.885 -5.082,4.132 -6.804,6.992 -1.661,2.758 -2.495,5.778 -2.333,8.968 0.137,2.702 0.719,5.346 1.83,7.867 0.982,2.228 2.131,4.35 3.494,6.356 2.006,2.952 4.278,5.692 6.742,8.274 3.549,3.719 7.41,7.097 11.41,10.313 5.889,4.737 12.059,9.086 18.399,13.2 13.881,9.007 28.367,16.944 43.13,24.389 4.704,2.373 9.468,4.629 14.204,6.94 0.945,0.462 1.317,1.056 1.195,2.021 -0.304,2.392 -0.632,4.78 -0.97,7.322 -0.69,-0.114 -1.264,-0.113 -1.761,-0.308 -2.386,-0.937 -4.747,-1.936 -7.123,-2.897 -20.865,-8.436 -41.485,-17.431 -61.798,-27.125 -18.646,-8.899 -37.018,-18.322 -54.733,-28.982 -10.874,-6.542 -21.48,-13.479 -31.358,-21.479 -4.324,-3.501 -8.5,-7.163 -12.308,-11.228 -2.634,-2.813 -5.074,-5.783 -7.138,-9.047 -1.609,-2.546 -2.916,-5.236 -3.598,-8.178 -0.658,-2.837 -0.599,-5.663 0.602,-8.378 1.058,-2.394 2.684,-4.357 4.714,-5.988 2.799,-2.249 5.913,-3.962 9.231,-5.305 3.437,-1.391 6.965,-2.505 10.554,-3.435 5.937,-1.539 11.988,-2.467 18.046,-3.341 2.676,-0.386 5.38,-0.58 8.072,-0.851 1.048,-0.106 1.938,0.098 2.583,1.077 5.891,8.945 9.078,18.643 8.306,29.465 -0.091,1.277 -0.172,2.559 -0.179,3.839 -0.015,2.556 1.096,4.696 2.697,6.577 1.272,1.494 3.088,1.96 4.954,2.201 0.267,0.035 0.562,-0.068 0.831,-0.149 1.263,-0.382 2.338,-1.05 3.105,-2.145 0.657,-0.936 1.197,-1.922 1.48,-3.055 0.452,-1.811 0.594,-3.647 0.673,-5.503 0.24,-5.594 1.26,-11.029 3.407,-16.226 2.772,-6.71 6.982,-12.351 12.444,-16.999 0.707,-0.047 1.274,-0.111 1.84,-0.117 9.841,-0.101 19.648,0.682 29.464,1.185 5.829,0.299 11.645,0.865 17.464,1.341 4.543,0.371 9.083,0.772 13.622,1.188 2.979,0.272 5.955,0.567 8.927,0.9 3.538,0.397 7.069,0.852 10.605,1.269 5.797,0.684 11.604,1.29 17.391,2.052 7.198,0.949 14.38,2.012 21.567,3.044 6.623,0.951 13.253,1.861 19.861,2.909 7.872,1.247 15.722,2.63 23.585,3.941 12.497,2.083 24.971,4.288 37.395,6.777 11.863,2.376 23.747,4.646 35.602,7.061 17.435,3.553 34.806,7.408 52.138,11.424 16.917,3.919 33.788,8.034 50.629,12.273 23.331,5.872 46.572,12.07 69.738,18.559 23.99,6.72 47.873,13.803 71.65,21.242 23.371,7.312 46.65,14.904 69.773,22.971 16.939,5.909 33.84,11.924 50.59,18.349 12.229,4.692 24.417,9.495 36.58,14.356 16.927,6.766 33.643,14.025 50.234,21.58 18.285,8.327 36.282,17.225 53.885,26.911 11.739,6.458 23.192,13.39 34.198,21.045 7.263,5.051 14.231,10.466 20.68,16.537 2.6,2.447 5.036,5.042 7.284,7.809 2.343,2.883 4.397,5.954 5.925,9.364 1.192,2.658 1.707,5.417 1.566,8.318 -0.137,2.822 -1.211,5.246 -3.104,7.306 -0.228,0.248 -0.718,0.255 -1.225,0.418 -0.339,-1.195 -0.762,-2.266 -0.935,-3.375 -0.439,-2.813 -0.763,-5.644 -1.141,-8.466 -0.113,-0.843 -0.173,-1.705 -0.398,-2.519 -0.85,-3.061 -3.222,-4.722 -6.349,-4.552 -2.067,0.113 -3.425,1.149 -4.274,3.015 -0.611,1.342 -0.747,2.73 -0.728,4.167 0.092,6.8 -1.428,13.28 -3.918,19.562 -0.311,0.784 -0.746,1.518 -1.082,2.192 -2.322,1.177 -4.749,1.477 -7.101,1.992 -7.807,1.707 -15.737,2.663 -23.688,3.227 -7.67,0.543 -15.351,1.085 -23.054,1.053 -9.973,-0.041 -19.94,-0.036 -29.912,-0.54 -7.683,-0.389 -15.359,-0.923 -23.044,-1.256 -0.712,-0.031 -1.424,-0.075 -2.133,-0.139 -5.107,-0.457 -10.212,-0.919 -15.318,-1.382 -4.256,-0.385 -8.514,-0.756 -12.768,-1.167 -2.836,-0.274 -5.667,-0.587 -8.496,-0.918 -3.818,-0.446 -7.63,-0.936 -11.447,-1.389 -3.111,-0.369 -6.231,-0.668 -9.337,-1.075 -6.07,-0.794 -12.136,-1.619 -18.198,-2.476 -3.382,-0.479 -6.754,-1.037 -10.125,-1.595 -0.347,-0.058 -0.655,-0.36 -1.086,-0.609 0.718,-1.822 1.362,-3.551 2.096,-5.241 0.138,-0.317 0.611,-0.533 0.975,-0.692 0.238,-0.104 0.562,-0.049 0.842,-0.017 5.801,0.671 11.604,1.312 17.438,1.627 0.427,0.023 0.852,0.072 1.278,0.107 5.251,0.433 10.498,0.932 15.755,1.279 5.259,0.347 10.525,0.661 15.794,0.78 13.815,0.312 27.628,0.634 41.442,-0.372 6.541,-0.476 13.06,-1.065 19.541,-2.026 6.058,-0.899 12.043,-2.173 17.87,-4.106 4.338,-1.439 8.546,-3.155 12.376,-5.708 1.911,-1.274 3.656,-2.731 5.17,-4.447 2.214,-2.508 3.665,-5.37 4.198,-8.729 0.483,-3.043 0.08,-5.96 -0.819,-8.84 -0.898,-2.875 -2.282,-5.525 -3.96,-8.021 -3.359,-4.998 -7.422,-9.373 -11.858,-13.421 -6.014,-5.488 -12.513,-10.358 -19.207,-14.966 -10.22,-7.034 -20.903,-13.309 -31.78,-19.267 C 556.67,100.117 534.818,90.041 512.688,80.558 498.292,74.389 483.765,68.529 469.123,62.961 455.148,57.647 441.135,52.442 426.383,47.306 m -156.051,61.498 c 3.358,-10.951 8.086,-21.287 14.033,-31.064 7.614,-12.518 16.891,-23.617 28.225,-32.955 3.967,-3.268 8.14,-6.231 12.558,-8.859 1.185,-0.705 2.271,-0.879 3.637,-0.453 11.548,3.6 23.151,7.027 34.675,10.701 28.083,8.954 55.834,18.841 83.124,29.998 4.612,1.886 9.179,3.879 13.774,5.805 0.866,0.363 1.375,1.011 1.604,1.866 1.183,4.403 2.055,8.869 2.839,13.361 0.786,4.508 0.924,9.067 1.308,13.604 0.312,3.689 0.26,7.401 -0.153,11.096 -0.126,1.132 -0.216,2.272 -0.241,3.41 -0.078,3.573 -0.624,7.103 -1.188,10.61 -1.336,8.307 -3.41,16.438 -6.267,24.366 -6.558,18.197 -16.273,34.474 -29.528,48.589 -10.237,10.901 -21.922,19.88 -35.401,26.461 -10.591,5.171 -21.724,8.603 -33.427,9.821 -9.094,0.946 -18.196,0.605 -27.194,-1.418 -12.721,-2.86 -24.25,-8.165 -34.369,-16.422 -8.944,-7.299 -16.061,-16.137 -21.61,-26.228 -8.406,-15.289 -12.241,-31.798 -12.815,-49.135 -0.17,-5.13 -0.008,-10.258 0.666,-15.356 0.448,-3.386 0.832,-6.783 1.393,-10.151 0.961,-5.765 2.43,-11.415 4.357,-17.647 M -58.684,73.599 c 11.213,4.288 22.101,8.504 33.021,12.637 2.792,1.057 5.69,1.832 8.528,2.772 0.927,0.308 1.817,0.729 2.819,1.138 0.094,1.211 0.255,2.335 0.256,3.458 0.003,5.567 0.511,11.109 1.028,16.636 0.756,8.083 1.83,16.137 3.368,24.114 2.158,11.194 4.806,22.269 8.358,33.113 10.081,30.773 25.061,58.914 45.243,84.264 19.549,24.555 42.746,44.981 69.482,61.396 13.997,8.594 28.65,15.875 44.02,21.674 15.085,5.692 30.546,10.106 46.408,13.021 6.858,1.26 13.765,2.235 20.713,2.966 10.645,1.121 21.302,1.614 31.999,1.493 7.844,-0.088 15.648,-0.697 23.45,-1.46 6.385,-0.624 12.716,-1.557 19.033,-2.654 13.919,-2.418 27.545,-5.971 40.88,-10.608 23.826,-8.287 46.029,-19.741 66.666,-34.27 12.627,-8.889 24.286,-18.898 35.182,-29.806 9.99,-10.001 19.058,-20.801 27.334,-32.258 2.168,-3.001 4.143,-6.141 6.221,-9.207 0.475,-0.702 1.008,-1.366 1.464,-1.98 1.552,-0.446 2.959,-0.045 4.343,0.181 9.412,1.543 18.805,3.193 28.223,4.699 6.607,1.056 13.24,1.952 19.865,2.895 7.189,1.024 14.375,2.074 21.576,3.013 5.93,0.773 11.879,1.4 17.82,2.094 3.677,0.429 7.352,0.878 11.031,1.291 3.255,0.365 6.512,0.708 9.771,1.033 3.118,0.311 6.239,0.597 9.36,0.876 2.98,0.267 5.959,0.551 8.943,0.757 6.111,0.422 12.226,0.789 18.338,1.194 2.132,0.141 4.261,0.323 6.392,0.487 0.574,0.045 1.195,0.123 1.522,0.612 0.216,0.323 0.19,0.819 0.236,1.242 0.245,2.232 1.584,3.603 3.559,4.405 0.917,0.372 1.889,0.675 2.864,0.824 2.974,0.453 5.812,1.363 8.649,2.322 4.052,1.369 8.069,2.812 11.912,4.702 6.838,3.362 12.98,7.7 18.256,13.216 3.57,3.734 6.478,7.927 8.712,12.603 2.376,4.971 3.611,10.189 3.655,15.683 0.017,2.133 -0.096,4.269 -0.199,6.401 -0.048,1.015 0.047,1.974 0.449,2.92 1.022,2.404 2.375,3.243 5.014,3.049 1.772,-0.13 2.845,-1.192 3.509,-2.721 0.221,-0.511 0.252,-1.104 0.375,-1.658 1.049,-4.726 2.019,-9.471 3.17,-14.171 1.295,-5.285 3.357,-10.297 6.076,-15.006 7.299,-12.637 17.999,-20.729 32.307,-23.921 4.18,-0.933 8.402,-1.539 12.695,-1.561 0.855,-0.004 1.71,-0.034 2.563,-0.078 1.165,-0.06 2.23,-0.477 3.225,-1.044 2.338,-1.331 3.708,-4.64 2.087,-7.414 -1.037,-1.775 -2.407,-3.179 -4.354,-3.931 -1.729,-0.668 -3.485,-1.202 -5.356,-1.38 -2.697,-0.257 -5.336,-0.858 -7.922,-1.673 -0.236,-0.074 -0.432,-0.276 -0.645,-0.418 0.119,-0.651 0.62,-0.902 1.161,-1.108 2.527,-0.963 5.089,-1.844 7.574,-2.906 4.077,-1.742 7.877,-3.981 11.344,-6.766 2.241,-1.799 4.17,-3.889 5.767,-6.27 2.354,-3.511 3.64,-7.354 3.735,-11.628 0.09,-4.072 -0.748,-7.923 -2.27,-11.656 -1.132,-2.777 -2.515,-5.427 -4.146,-7.946 -2.564,-3.956 -5.455,-7.656 -8.653,-11.119 -5.62,-6.085 -11.719,-11.649 -18.157,-16.854 -9.654,-7.805 -19.828,-14.873 -30.298,-21.528 C 691.61,131.541 671.6,120.646 651.249,110.356 626.453,97.818 601.149,86.385 575.585,75.515 557.237,67.713 538.709,60.357 520.126,53.136 c -0.925,-0.36 -1.835,-0.759 -2.8,-1.16 -0.716,-1.915 -0.822,-3.923 -1.107,-5.869 -2.506,-17.109 -6.751,-33.778 -12.539,-50.06 -1.525,-4.291 -3.019,-8.596 -5.085,-12.679 -0.765,-1.511 -1.169,-3.199 -1.85,-4.757 -10.872,-24.862 -25.216,-47.527 -43.03,-67.997 -14.48,-16.639 -30.785,-31.235 -48.843,-43.9 -12.518,-8.779 -25.707,-16.404 -39.559,-22.824 -13.97,-6.476 -28.371,-11.849 -43.294,-15.767 -8.683,-2.28 -17.434,-4.234 -26.287,-5.686 -5.335,-0.875 -10.711,-1.517 -16.088,-2.144 -5.673,-0.661 -11.368,-0.848 -17.052,-1.181 -7.397,-0.432 -14.813,-0.46 -22.214,0.15 -1.135,0.094 -2.275,0.142 -3.414,0.181 -5.987,0.202 -11.923,0.907 -17.865,1.625 -7.076,0.855 -14.081,2.088 -21.065,3.484 -11.89,2.376 -23.531,5.667 -34.931,9.766 -21.825,7.846 -42.338,18.29 -61.475,31.412 -14.622,10.027 -28.096,21.426 -40.468,34.111 -6.07,6.224 -11.8,12.768 -17.2,19.591 -0.442,0.559 -0.914,1.096 -1.322,1.679 -0.722,1.035 -1.634,1.487 -2.923,1.258 -2.522,-0.449 -5.063,-0.798 -7.586,-1.246 -11.073,-1.967 -22.144,-3.942 -33.212,-5.937 -10.227,-1.844 -20.447,-3.73 -30.675,-5.574 -4.063,-0.732 -8.138,-1.4 -12.208,-2.1 -0.28,-0.048 -0.559,-0.11 -0.837,-0.172 -0.517,-0.116 -1.039,-0.65 -1.115,-1.162 -0.147,-0.983 -0.25,-1.974 -0.432,-2.95 -0.219,-1.172 -0.899,-2.083 -1.806,-2.822 -1.586,-1.294 -3.357,-1.987 -5.449,-2.155 -18.575,-1.49 -34.209,-9.145 -46.941,-22.704 -5.435,-5.788 -9.297,-12.574 -12.116,-19.974 -1.423,-3.735 -2.565,-7.549 -3.303,-11.479 -0.63,-3.357 -1.512,-6.665 -1.897,-10.072 -0.111,-0.98 -0.462,-1.937 -0.751,-2.891 -0.436,-1.443 -1.402,-2.418 -2.724,-3.129 -2.265,-1.219 -4.059,-0.346 -5.455,1.715 -0.728,1.074 -0.921,2.369 -1.029,3.667 -0.235,2.835 -0.444,5.676 -0.796,8.499 -0.974,7.825 -2.873,15.343 -6.632,22.393 -5.207,9.768 -12.237,17.807 -21.423,23.962 -5.524,3.702 -11.545,6.155 -18.149,7.099 -1.837,0.263 -3.673,0.418 -5.525,0.041 -2.922,-0.595 -5.333,0.345 -7.267,2.567 -0.466,0.536 -0.87,1.126 -1.417,1.841 -0.713,0.063 -1.548,0.193 -2.385,0.201 -2.564,0.026 -5.13,0.04 -7.695,-0.007 -7.42,-0.133 -14.819,0.34 -22.197,0.97 -8.232,0.703 -16.4,1.938 -24.386,4.169 -4.679,1.308 -9.204,3.005 -13.477,5.332 -2.893,1.576 -5.562,3.456 -7.866,5.836 -5.372,5.549 -7.202,12.093 -5.659,19.646 0.956,4.682 2.979,8.897 5.45,12.924 2.391,3.898 5.201,7.487 8.248,10.892 6.099,6.815 12.843,12.943 19.958,18.673 12.899,10.388 26.66,19.525 40.815,28.088 19.273,11.66 39.176,22.15 59.426,31.998 25.243,12.277 50.966,23.46 77.028,33.871 0.925,0.37 1.848,0.746 3.086,1.22"
       style="fill:#d2451e;fill-opacity:1;fill-rule:nonzero;stroke:none"
       transform="matrix(1.3333333,0,0,-1.3333333,9145.8835,795.47853)"
       clip-path="url(#clipPath515)" />
    <path
       id="path516"
       d="m 0,0 c -2.256,-2.76 -4.37,-5.626 -6.199,-8.685 -1.239,-2.073 -2.339,-4.228 -3.465,-6.367 -0.081,-0.154 0.143,-0.469 0.241,-0.756 0.375,0.213 0.782,0.373 1.102,0.637 4.629,3.825 9.712,6.959 14.948,9.866 9.112,5.059 18.686,9.055 28.525,12.444 13.078,4.506 26.436,7.907 40.121,9.927 3.931,0.581 7.887,1.089 11.883,1.253 5.125,0.21 10.242,0.341 15.365,-0.013 0,0.288 0.091,0.655 -0.015,0.725 -0.708,0.468 -1.43,0.93 -2.197,1.289 -7.645,3.575 -15.593,6.177 -23.957,7.459 C 70.857,28.62 65.342,29.337 59.78,29.007 55.668,28.763 51.557,28.443 47.48,27.686 38.87,26.087 30.712,23.272 23.037,19.065 14.323,14.288 6.804,8.047 0,0 m 64.846,-3.853 c -3.782,1.77 -7.791,2.714 -11.923,3.077 C 48.189,-0.36 43.547,-1.016 39.012,-2.402 21.49,-7.757 9.175,-25.454 12.116,-43.839 c 1.088,-6.801 3.822,-12.801 8.483,-17.853 7.385,-8.002 16.653,-11.669 27.465,-11.512 1.836,0.027 3.679,0.361 5.496,0.68 9.188,1.613 16.858,5.975 22.826,13.12 7.337,8.784 10.259,18.903 8.383,30.254 -0.921,5.571 -3.138,10.646 -6.73,15.034 -3.466,4.234 -7.568,7.718 -13.193,10.263 m -1.517,-82.506 c -1.323,-0.523 -2.647,-1.042 -3.969,-1.567 -10.996,-4.368 -21.639,-9.452 -31.747,-15.624 -4.624,-2.823 -9.023,-5.965 -13.229,-9.374 -0.883,-0.715 -1.706,-1.507 -2.53,-2.29 -0.555,-0.526 -0.453,-1.288 0.228,-1.812 0.789,-0.606 1.578,-1.218 2.403,-1.774 5.684,-3.829 11.702,-7.027 18.069,-9.576 9.335,-3.738 19.052,-5.709 29.061,-6.3 3.415,-0.202 6.815,0.109 10.224,0.435 5.414,0.517 10.68,1.649 15.837,3.306 15.366,4.938 27.859,14.051 37.971,26.493 7.258,8.929 12.472,19.007 16.158,29.889 0.09,0.267 0.125,0.552 0.19,0.827 0.122,0.517 -0.329,1.124 -0.891,1.193 -0.282,0.035 -0.564,0.081 -0.848,0.099 -8.114,0.505 -16.199,0.362 -24.285,-0.648 -7.775,-0.971 -15.443,-2.437 -23.062,-4.229 -9.844,-2.316 -19.459,-5.366 -29.58,-9.048 m 30.081,-46.812 c -6.599,-2.498 -13.106,-4.05 -19.76,-4.849 -4.372,-0.524 -8.788,-0.834 -13.213,-0.513 -3.404,0.246 -6.806,0.354 -10.203,0.876 -9.814,1.508 -19.07,4.601 -27.781,9.325 -17.105,9.278 -29.66,22.807 -37.735,40.514 -3.151,6.91 -5.304,14.132 -6.489,21.607 -1.275,8.046 -1.447,16.128 -0.442,24.259 1.564,12.654 5.693,24.367 12.481,35.112 10.233,16.198 24.454,27.565 42.313,34.424 7.749,2.976 15.767,4.945 24.01,5.744 7.527,0.73 15.04,0.553 22.508,-1.138 5.986,-1.355 11.886,-2.89 17.524,-5.33 21.686,-9.382 37.022,-25.072 46.253,-46.762 3.141,-7.382 5.162,-15.12 5.885,-23.09 2.549,-28.098 -6.073,-52.205 -26.315,-71.993 -7.098,-6.939 -15.321,-12.256 -24.38,-16.287 -1.43,-0.637 -2.891,-1.203 -4.656,-1.899"
       style="fill:#d2451e;fill-opacity:1;fill-rule:nonzero;stroke:none"
       transform="matrix(1.3333333,0,0,-1.3333333,8919.2772,394.4324)"
       clip-path="url(#clipPath517)" />
    <path
       id="path518"
       d="m 0,0 c 4.702,6.744 5.81,14.155 3.762,22.002 -1.968,7.539 -6.305,13.319 -13.441,16.782 -4.171,2.024 -8.506,2.177 -12.897,0.934 -5.018,-1.42 -8.861,-4.472 -11.637,-8.85 -2.83,-4.463 -3.996,-9.368 -3.878,-14.644 0.132,-5.904 1.987,-11.178 5.519,-15.866 2.448,-3.249 5.526,-5.743 9.327,-7.265 6.955,-2.787 13.384,-1.786 19.295,2.759 C -2.586,-3.1 -1.416,-1.856 0,0 m 4.502,-32.704 c -13.193,1.088 -24.302,6.056 -33.717,14.765 -9.444,8.735 -14.958,19.608 -17.094,32.233 -0.549,3.24 -0.498,6.529 -0.484,9.808 0.049,11.491 3.652,21.852 10.246,31.153 7.326,10.335 17.124,17.352 29.251,21.112 7.046,2.184 14.259,2.841 21.543,2.08 6.534,-0.683 12.91,-2.259 18.897,-5.06 C 46.733,67.026 55.883,56.568 61.215,42.65 64.387,34.371 65.43,25.753 64.376,17.02 62.198,-1.038 53.405,-15.076 37.953,-24.816 c -6.358,-4.008 -13.335,-6.442 -20.731,-7.525 -4.07,-0.596 -8.207,-0.949 -12.72,-0.363"
       style="fill:#d2451e;fill-opacity:1;fill-rule:nonzero;stroke:none"
       transform="matrix(1.3333333,0,0,-1.3333333,9901.7856,914.00267)"
       clip-path="url(#clipPath519)" />
    <path
       id="path520"
       d="m 0,0 c -0.587,-1.294 -1.241,-2.563 -1.751,-3.887 -3.224,-8.357 -3.849,-16.863 -1.326,-25.519 0.357,-1.224 0.823,-2.421 1.304,-3.603 0.146,-0.36 0.513,-0.63 0.949,-1.141 0.661,5.509 2.655,10.35 4.951,15.067 6.672,13.713 15.486,25.848 26.812,36.112 0.633,0.573 1.28,1.132 1.879,1.738 0.163,0.164 0.283,0.509 0.224,0.714 C 32.99,19.667 32.668,19.9 32.463,19.902 26.935,19.965 21.773,18.423 16.856,16.071 9.722,12.659 4.175,7.486 0,0 m 44.199,-35.648 c -3.26,-6.478 -6.067,-13.127 -7.79,-20.27 0.51,-0.198 0.883,-0.457 1.265,-0.471 2.158,-0.077 4.225,0.472 6.273,1.065 7.716,2.232 14.285,6.268 19.342,12.568 6.812,8.487 9.768,18.172 8.681,29.022 -0.269,2.683 -0.807,5.337 -1.693,7.902 -0.331,0.959 -1.188,1.223 -2.008,0.525 -1.838,-1.565 -3.709,-3.102 -5.431,-4.789 -7.472,-7.326 -13.426,-15.778 -18.639,-25.552 m 4.228,57.5 c 15.066,-5.878 23.732,-16.847 27.034,-32.07 3.371,-15.539 -2.79,-32.79 -17.424,-42.937 -7.226,-5.011 -15.221,-7.458 -24.044,-7.543 -10.118,-0.097 -19.02,3.162 -26.879,9.32 -8.029,6.29 -13.114,14.582 -15.274,24.506 -2.912,13.377 0.227,25.422 8.86,35.985 6.042,7.393 13.737,12.277 23.076,14.487 6.347,1.503 12.686,1.54 19.011,-0.097 1.788,-0.462 3.553,-1.018 5.64,-1.651"
       style="fill:#d2451e;fill-opacity:1;fill-rule:nonzero;stroke:none"
       transform="matrix(1.3333333,0,0,-1.3333333,9100.4256,1062.5723)"
       clip-path="url(#clipPath521)" />
    <path
       id="path522"
       d="m 0,0 c 1.06,0.72 2.091,1.488 3.184,2.152 4.087,2.484 8.475,4.021 13.304,4.144 0.71,0.018 1.44,0.031 2.119,0.206 0.524,0.134 1.001,0.492 1.468,0.798 0.442,0.29 0.416,1.168 -0.053,1.453 -0.475,0.289 -0.985,0.67 -1.502,0.711 -1.274,0.1 -2.561,0.004 -3.843,0.029 -2.421,0.048 -4.819,0.182 -7.193,0.82 -4.476,1.201 -8.501,3.223 -12.096,6.137 -5.75,4.661 -10.053,10.448 -13.264,17.072 -2.565,5.291 -4.255,10.867 -5.108,16.68 -0.435,2.957 -0.685,5.94 -1.03,8.91 -0.049,0.423 -0.139,0.844 -0.252,1.254 -0.075,0.27 -0.184,0.551 -0.353,0.769 -0.166,0.213 -0.414,0.373 -0.65,0.516 -0.19,0.114 -0.913,-0.439 -0.927,-0.717 -0.074,-1.559 -0.208,-3.119 -0.186,-4.677 0.062,-4.284 -0.145,-8.536 -0.91,-12.766 -1.124,-6.215 -2.963,-12.17 -6.086,-17.686 -1.764,-3.117 -3.888,-5.967 -6.505,-8.428 -3.94,-3.705 -8.48,-6.189 -13.916,-6.906 -2.254,-0.297 -4.495,-0.704 -6.728,-1.132 -0.328,-0.064 -0.579,-0.529 -1.038,-0.975 1.576,-0.382 2.933,-0.818 4.325,-1.023 2.582,-0.38 4.929,-1.365 7.219,-2.531 3.327,-1.693 6.324,-3.865 8.98,-6.477 11.445,-11.254 17.814,-24.87 18.936,-40.909 0.078,-1.116 0.149,-2.232 0.244,-3.67 0.394,0.591 0.687,0.891 0.817,1.25 0.546,1.504 0.442,3.09 0.492,4.652 0.074,2.279 0.179,4.545 0.573,6.805 1.396,7.995 4.545,15.255 9.053,21.953 C -8.042,-7.302 -4.599,-3.522 0,0 m 21.102,2.124 c -2.047,-0.197 -3.75,-0.333 -5.45,-0.5 -3.617,-0.356 -6.895,-1.672 -9.963,-3.566 -3.418,-2.11 -6.444,-4.686 -9.062,-7.733 -4.699,-5.472 -8.103,-11.651 -10.311,-18.529 -1.583,-4.931 -2.243,-9.979 -2.44,-15.116 -0.055,-1.423 -0.024,-2.848 -0.069,-4.271 -0.043,-1.337 -0.637,-2.449 -1.463,-3.474 -1.927,-2.392 -6.336,-2.327 -7.861,0.942 -0.414,0.888 -0.689,1.873 -0.842,2.843 -0.309,1.968 -0.587,3.95 -0.71,5.936 -0.484,7.824 -2.945,15.064 -6.535,21.937 -2.65,5.072 -5.974,9.69 -10.122,13.679 -1.957,1.883 -4.061,3.575 -6.352,5.029 -2.052,1.302 -4.22,2.352 -6.58,2.997 -2.056,0.561 -4.091,1.203 -6.138,1.802 -1.568,0.459 -2.807,1.364 -3.7,2.728 -0.937,1.43 -0.683,3.48 0.544,4.716 0.719,0.723 1.552,1.275 2.531,1.523 1.239,0.314 2.498,0.554 3.757,0.779 1.681,0.3 3.366,0.575 5.055,0.826 2.441,0.363 4.63,1.353 6.71,2.629 4.87,2.987 8.446,7.159 11.044,12.192 2.102,4.072 3.585,8.382 4.416,12.884 0.983,5.325 1.641,10.686 1.427,16.131 -0.055,1.402 0.139,2.855 0.472,4.223 0.683,2.813 4.796,5.21 7.933,3.249 0.988,-0.619 1.758,-1.441 2.155,-2.566 0.429,-1.217 0.587,-2.478 0.72,-3.76 0.935,-8.982 3.044,-17.654 6.95,-25.84 1.29,-2.704 2.731,-5.326 4.559,-7.706 4.281,-5.574 9.622,-9.63 16.482,-11.559 2.37,-0.666 4.763,-0.794 7.187,-0.774 1.138,0.009 2.276,0.107 3.414,0.11 1.612,0.004 3.068,-0.531 4.416,-1.393 3.079,-1.966 3.227,-6.37 1.056,-8.583 -0.817,-0.832 -1.745,-1.455 -3.23,-1.785"
       style="fill:#d2451e;fill-opacity:1;fill-rule:nonzero;stroke:none"
       transform="matrix(1.3333333,0,0,-1.3333333,9962.6733,385.42173)"
       clip-path="url(#clipPath523)" />
    <path
       id="path524"
       d="m 0,0 c 0.346,-1.874 1.38,-3.416 2.453,-4.917 3.705,-5.185 8.46,-9.165 14.112,-12.073 1.004,-0.517 2.094,-0.87 3.151,-1.28 0.452,-0.175 1.214,0.072 1.539,0.468 2.467,3.015 4.277,6.371 5.096,10.195 0.572,2.67 0.715,5.436 -0.107,8.025 C 24.092,7.194 19.442,11.429 12.474,12.945 10.68,13.335 8.808,13.244 6.985,12.739 4.419,12.029 2.268,10.73 0.898,8.403 -0.522,5.99 -1.154,3.422 0,0 m -5.947,-66.698 c 0.61,-0.96 1.159,-1.966 1.841,-2.871 2.032,-2.698 4.659,-4.465 7.946,-5.449 2.388,-0.715 4.754,-0.798 7.172,-0.709 2.769,0.102 5.293,1.012 7.645,2.443 5.059,3.075 6.604,9.094 5.882,13.27 -0.728,4.208 -2.423,7.867 -5.616,10.767 -0.422,0.383 -0.843,0.766 -1.275,1.137 -4.328,3.716 -8.875,7.144 -13.574,10.373 -0.799,0.549 -1.567,0.504 -2.396,0.075 -2.183,-1.13 -4.049,-2.619 -5.564,-4.572 -2.804,-3.614 -4.106,-7.771 -4.501,-12.252 -0.358,-4.065 0.429,-7.938 2.44,-12.212 m -14.78,57.466 c -0.438,2.592 -1.005,4.836 -1.069,7.095 -0.275,9.535 2.471,18.007 9.466,24.754 5.117,4.934 11.316,7.497 18.429,7.898 9.014,0.508 16.764,-2.558 23.584,-8.258 6.343,-5.302 10.233,-12.127 12.255,-20.075 0.992,-3.902 1.25,-7.879 0.942,-11.875 -0.412,-5.351 -2.122,-10.291 -5.06,-14.792 -0.544,-0.833 -1.167,-1.615 -1.726,-2.439 -0.491,-0.724 -0.47,-1.761 0.035,-2.399 0.352,-0.445 0.717,-0.885 1.116,-1.288 3.48,-3.513 5.767,-7.75 7.402,-12.356 2.625,-7.393 3.308,-14.971 1.939,-22.711 -0.297,-1.674 -0.324,-3.373 -0.893,-5.028 -2.011,-5.846 -5.502,-10.587 -10.423,-14.266 -5.354,-4.002 -11.381,-6.292 -18.017,-7.246 -8.454,-1.215 -16.447,0.161 -24.113,3.71 -4.438,2.054 -8.324,4.911 -11.659,8.514 -3.554,3.838 -6.058,8.248 -7.34,13.323 -0.766,3.032 -1.548,6.058 -1.655,9.222 -0.285,8.518 1.837,16.347 6.589,23.434 1.844,2.75 4.131,5.074 6.968,6.829 0.475,0.294 0.901,0.67 1.335,1.026 0.102,0.084 0.141,0.245 0.291,0.521 -3.66,4.829 -6.935,9.962 -8.396,16.407"
       style="fill:#d2451e;fill-opacity:1;fill-rule:nonzero;stroke:none"
       transform="matrix(1.3333333,0,0,-1.3333333,9630.8541,565.64427)"
       clip-path="url(#clipPath525)" />
    <path
       id="path526"
       d="m 0,0 c -0.717,-0.53 -1.101,-1.289 -1.422,-2.085 -1.687,-4.186 -2.134,-8.535 -1.694,-12.998 0.073,-0.738 0.829,-1.287 1.516,-1.032 1.999,0.74 3.987,1.51 5.97,2.292 0.556,0.219 0.838,0.843 0.642,1.393 C 3.724,-8.803 2.739,-5.09 1.888,-1.339 1.825,-1.065 1.778,-0.746 1.609,-0.547 1.344,-0.236 0.98,-0.009 0,0 m 19.81,-19.195 c 0.661,-0.218 1.079,-0.385 1.355,-0.682 0.38,-0.409 0.286,-1.23 -0.098,-1.549 -0.325,-0.27 -0.638,-0.583 -1.011,-0.758 -0.641,-0.302 -1.31,-0.567 -1.994,-0.751 -3.435,-0.922 -6.805,-2.034 -10.125,-3.31 -0.515,-0.198 -1.102,-0.222 -1.661,-0.285 -0.493,-0.056 -1.06,0.381 -1.289,0.934 -0.206,0.5 -0.057,1.232 0.327,1.554 0.216,0.182 0.43,0.377 0.673,0.517 0.717,0.413 1.676,0.577 1.811,1.606 0.174,1.329 -0.244,2.519 -1.047,3.562 -0.148,0.192 -0.5,0.329 -0.75,0.318 -0.702,-0.031 -1.431,-0.054 -2.095,-0.258 -1.766,-0.542 -3.501,-1.181 -5.251,-1.774 -0.671,-0.227 -1.339,-0.474 -2.025,-0.646 -1.291,-0.323 -2.226,0.22 -2.592,1.489 -0.927,3.208 -0.976,6.488 -0.616,9.74 0.635,5.732 2.46,11.08 5.736,15.89 C 0.146,7.851 1.342,8.999 2.945,9.735 4.981,10.669 7.027,9.98 7.921,7.93 8.315,7.027 8.566,6.053 8.798,5.09 9.932,0.385 11.47,-4.195 13.057,-8.76 c 0.233,-0.67 0.473,-1.359 0.853,-1.948 0.192,-0.297 0.713,-0.56 1.068,-0.539 1.126,0.065 2.242,0.284 3.364,0.416 0.419,0.049 1.15,-0.544 1.29,-0.985 0.144,-0.451 -0.169,-1.268 -0.614,-1.476 -0.894,-0.419 -1.808,-0.795 -2.707,-1.206 -0.598,-0.273 -0.79,-0.835 -0.745,-1.408 0.055,-0.699 0.187,-1.41 0.411,-2.074 0.408,-1.207 1.215,-1.599 2.695,-1.413 0.281,0.035 0.554,0.127 1.138,0.198"
       style="fill:#d2451e;fill-opacity:1;fill-rule:nonzero;stroke:none"
       transform="matrix(1.3333333,0,0,-1.3333333,8988.9136,424.80947)"
       clip-path="url(#clipPath527)" />
    <path
       id="path528"
       d="m 0,0 c -3.199,-1.289 -6.086,-2.484 -8.985,-3.646 -0.652,-0.262 -1.341,-0.442 -2.027,-0.604 -0.688,-0.162 -1.516,0.259 -1.784,0.84 -0.344,0.745 -0.159,1.917 0.438,2.346 0.69,0.497 1.436,0.915 2.142,1.39 0.933,0.628 1.222,1.521 0.991,2.596 -0.119,0.556 -0.234,1.115 -0.405,1.656 -1.848,5.819 -3.705,11.636 -5.569,17.45 -0.172,0.534 -0.409,1.049 -0.629,1.566 -0.139,0.327 -0.739,0.592 -1.081,0.467 -0.795,-0.293 -1.565,-0.682 -2.383,-0.872 -0.327,-0.076 -0.874,0.173 -1.099,0.452 -0.227,0.282 -0.239,0.787 -0.233,1.192 0.004,0.257 0.162,0.558 0.342,0.758 0.376,0.421 0.781,0.829 1.229,1.171 2.162,1.65 4.082,3.518 5.599,5.798 0.38,0.571 0.972,1.029 1.535,1.445 0.817,0.603 2.164,0.211 2.525,-0.709 0.363,-0.923 0.691,-1.862 0.998,-2.806 C -6.025,23.198 -3.663,15.903 -1.298,8.609 -1.123,8.068 -0.96,7.523 -0.772,6.988 -0.289,5.614 0.453,5.194 1.813,5.495 2.639,5.678 3.464,5.881 4.299,6.007 4.941,6.104 5.714,5.499 5.907,4.849 6.122,4.121 6.027,3.4 5.558,2.841 5.206,2.421 4.698,2.088 4.196,1.845 2.919,1.227 1.607,0.681 0,0"
       style="fill:#d2451e;fill-opacity:1;fill-rule:nonzero;stroke:none"
       transform="matrix(1.3333333,0,0,-1.3333333,8976.5543,468.2312)"
       clip-path="url(#clipPath529)" />
    <path
       id="path530"
       d="m 0,0 c -3.48,0.756 -6.567,1.84 -9.798,2.38 -0.691,0.115 -1.36,0.404 -2.017,0.667 -1.551,0.62 -2.174,2.54 -1.16,3.884 0.761,1.009 1.645,1.962 2.614,2.772 1.524,1.274 3.176,2.393 4.752,3.605 1.705,1.309 3.153,2.861 4.255,4.717 0.367,0.619 0.568,1.287 0.549,2.024 -0.025,0.988 -0.793,1.891 -1.806,2.07 -1.025,0.181 -2.179,-0.37 -2.431,-1.261 -0.23,-0.811 -0.327,-1.66 -0.487,-2.491 -0.198,-1.033 -0.758,-1.59 -1.648,-1.648 -1.104,-0.073 -2.025,0.461 -2.374,1.418 -0.144,0.394 -0.256,0.811 -0.308,1.227 -0.171,1.342 0.229,2.578 1.042,3.594 1.83,2.288 4.234,3.248 7.159,2.739 2.066,-0.36 3.694,-1.382 4.814,-3.191 C 4.74,19.944 4.625,17.399 3.153,14.843 2.432,13.59 1.457,12.566 0.313,11.704 -1.275,10.508 -2.892,9.35 -4.478,8.149 -4.924,7.812 -5.304,7.387 -5.709,6.996 -5.951,6.763 -5.831,5.989 -5.532,5.902 -4.307,5.545 -3.087,5.171 -1.85,4.863 -1.001,4.652 -0.191,4.926 0.649,5.119 2.071,5.447 3.145,4.19 2.757,2.786 2.395,1.478 1.649,0.499 0,0"
       style="fill:#d2451e;fill-opacity:1;fill-rule:nonzero;stroke:none"
       transform="matrix(1.3333333,0,0,-1.3333333,9881.5112,910.1848)"
       clip-path="url(#clipPath531)" />
  </g>
</svg>
