<?xml version="1.0" encoding="UTF-8" standalone="no"?>
<!-- Created with Inkscape (http://www.inkscape.org/) -->

<svg
   version="1.1"
   id="svg1"
   width="1440"
   height="1440"
   viewBox="0 0 1440 1440"
   xmlns="http://www.w3.org/2000/svg"
   xmlns:svg="http://www.w3.org/2000/svg">
  <defs
     id="defs1">
    <clipPath
       clipPathUnits="userSpaceOnUse"
       id="clipPath740">
      <path
         d="M 0,1080 H 1080 V 0 H 0 Z"
         transform="translate(-999.15077,-453.65331)"
         id="path740" />
    </clipPath>
    <clipPath
       clipPathUnits="userSpaceOnUse"
       id="clipPath742">
      <path
         d="M 0,1080 H 1080 V 0 H 0 Z"
         transform="translate(-258.60001,-716.51782)"
         id="path742" />
    </clipPath>
    <clipPath
       clipPathUnits="userSpaceOnUse"
       id="clipPath744">
      <path
         d="M 0,1080 H 1080 V 0 H 0 Z"
         transform="translate(-629.75777,-407.72561)"
         id="path744" />
    </clipPath>
    <clipPath
       clipPathUnits="userSpaceOnUse"
       id="clipPath746">
      <path
         d="M 0,1080 H 1080 V 0 H 0 Z"
         transform="translate(-535.59076,-816.00172)"
         id="path746" />
    </clipPath>
    <clipPath
       clipPathUnits="userSpaceOnUse"
       id="clipPath748">
      <path
         d="M 0,1080 H 1080 V 0 H 0 Z"
         transform="translate(-243.93301,-587.88091)"
         id="path748" />
    </clipPath>
    <clipPath
       clipPathUnits="userSpaceOnUse"
       id="clipPath750">
      <path
         d="M 0,1080 H 1080 V 0 H 0 Z"
         transform="translate(-342.79876,-749.44312)"
         id="path750" />
    </clipPath>
    <clipPath
       clipPathUnits="userSpaceOnUse"
       id="clipPath752">
      <path
         d="M 0,1080 H 1080 V 0 H 0 Z"
         transform="translate(-425.26351,-742.16562)"
         id="path752" />
    </clipPath>
    <clipPath
       clipPathUnits="userSpaceOnUse"
       id="clipPath754">
      <path
         d="M 0,1080 H 1080 V 0 H 0 Z"
         transform="translate(-545.18476,-545.90092)"
         id="path754" />
    </clipPath>
  </defs>
  <g
     id="layer-MC0"
     style="display:none"
     transform="translate(-16060)">
    <path
       id="path738"
       d="M 0,0 H 1080 V 1080 H 0 Z"
       style="fill:#d2451e;fill-opacity:1;fill-rule:nonzero;stroke:none"
       transform="matrix(1.3333333,0,0,-1.3333333,16060,1440)" />
  </g>
  <g
     id="layer-MC1"
     transform="translate(-16060)">
    <path
       id="path739"
       d="m 0,0 c -0.097,-2.242 -0.556,-4.392 -1.481,-6.394 -0.919,-1.992 -1.91,-3.997 -3.188,-5.767 -3.569,-4.944 -7.181,-9.867 -11,-14.619 -5.644,-7.022 -12.146,-13.218 -19.062,-18.983 -15.62,-13.019 -32.815,-23.373 -51.85,-30.587 -9.22,-3.495 -18.705,-6.004 -28.541,-7.004 -8.009,-0.814 -15.907,-0.373 -23.556,2.416 -0.796,0.29 -1.597,0.576 -2.416,0.787 -4.665,1.203 -8.807,3.494 -12.729,6.196 -15.436,10.638 -24.789,25.26 -28.083,43.658 -2.011,11.229 -0.919,22.283 2.951,33.037 0.229,0.636 0.518,1.252 0.789,1.873 0.383,0.879 1.257,1.221 2.042,0.759 2.335,-1.373 4.669,-2.747 6.978,-4.162 1.155,-0.707 2.282,-1.466 3.377,-2.263 5.131,-3.733 4.403,-2.525 4.648,-8.087 0.104,-2.365 0.467,-4.702 1.244,-6.981 1.637,-4.804 4.363,-8.765 8.566,-11.663 0.696,-0.48 1.403,-0.945 2.279,-1.533 0.457,-1.101 0.949,-2.356 1.495,-3.587 5.244,-11.826 14.157,-19.413 26.824,-21.906 11.626,-2.288 22.24,0.591 31.254,8.421 7.639,6.636 11.841,15.149 12.741,25.213 0.637,7.106 -0.903,13.849 -4.264,20.105 -4.612,8.584 -11.458,14.563 -20.945,17.326 -3.25,0.945 -6.449,2.062 -9.765,2.776 -0.864,0.186 -1.326,0.953 -1.1,1.946 0.642,2.825 0.905,5.688 0.92,8.574 0.018,3.221 -0.032,6.433 -0.826,9.596 -0.24,0.955 -0.188,1.995 -0.176,2.995 0.003,0.251 0.327,0.629 0.584,0.72 0.624,0.219 1.295,0.416 1.949,0.425 8.471,0.114 16.934,0.247 25.396,-0.564 6.414,-0.615 12.81,-1.294 19.15,-2.427 13.207,-2.362 26.13,-5.729 38.467,-11.109 6.238,-2.72 12.177,-5.947 17.416,-10.348 2.84,-2.505 4.913,-4.732 6.573,-7.319 C -1.087,8.012 0.184,4.235 0,0 m -150.854,-191.479 c -1.223,-4.767 -2.687,-9.422 -4.583,-13.963 -2.573,-6.163 -6.309,-11.586 -10.523,-16.681 -3.888,-4.7 -8.17,-9.042 -12.965,-12.847 -4.232,-3.177 -7.787,-6.082 -11.629,-8.535 -2.686,-1.715 -5.724,-2.912 -8.683,-4.156 -2.961,-1.245 -6.009,-2.29 -9.039,-3.367 -2.892,-1.028 -5.85,-1.47 -8.958,-1.432 -3.12,0.037 -5.547,1.213 -7.705,3.286 -2.037,1.958 -2.141,5.378 -0.108,7.273 0.859,0.8 1.823,1.528 2.843,2.105 2.796,1.582 5.617,3.127 8.483,4.578 5.348,2.707 9.961,6.395 14.228,10.537 4.777,4.637 8.409,10.109 11.671,15.891 2.264,4.013 4.014,8.226 5.402,12.562 2.869,8.965 4.185,18.144 2.549,27.539 -1.364,7.84 -4.599,14.822 -9.923,20.796 -1.126,1.264 -2.296,2.514 -3.235,3.912 -1.54,2.292 -3.513,4.111 -5.682,5.754 -2.558,1.937 -4.924,4.173 -8.048,5.24 -0.315,0.108 -0.649,0.249 -0.968,0.236 -0.299,-0.014 -0.712,-0.129 -0.862,-0.347 -0.376,-0.544 -0.788,-1.141 -0.911,-1.77 -1.39,-7.138 -2.706,-14.29 -4.086,-21.431 -1.219,-6.31 -2.494,-12.609 -3.743,-18.913 -0.23,-1.163 -0.516,-2.32 -0.671,-3.493 -0.73,-5.548 -2.151,-10.959 -3.195,-16.444 -0.947,-4.983 -1.767,-9.99 -2.737,-14.967 -2.103,-10.792 -4.191,-21.585 -6.585,-32.32 -0.843,-3.78 -1.654,-7.594 -1.929,-11.504 -0.224,-3.199 -0.734,-6.391 -1.33,-9.546 -1.264,-6.692 -3.661,-13.004 -6.674,-19.1 -2.1,-4.25 -4.283,-8.45 -6.615,-12.579 -1.437,-2.544 -3.272,-4.689 -5.417,-6.647 -5.238,-4.782 -11.492,-7.685 -18.102,-9.931 -3.227,-1.096 -6.581,-1.575 -9.987,-1.637 -0.839,-0.015 -1.685,0.084 -2.523,0.182 -1.175,0.139 -2.34,0.399 -3.518,0.481 -11.668,0.813 -20.388,6.522 -26.845,16.051 -0.874,1.29 -1.368,2.719 -1.826,4.168 -1.295,4.089 -1.4,8.325 -1.46,12.56 -0.015,1.015 0.066,2.031 0.119,3.046 0.264,5.068 2.088,9.531 5.165,13.54 3.221,4.196 7.017,7.802 11.203,10.998 1.201,0.917 2.531,1.744 3.925,2.312 4.075,1.661 8.225,3.104 12.649,3.589 3.364,0.368 6.723,0.794 10.073,1.269 3.074,0.435 6.08,-0.016 9.088,-0.524 3.502,-0.591 6.999,-1.204 10.499,-1.803 0.165,-0.028 0.339,0.006 0.507,-0.004 0.646,-0.038 1.434,0.442 1.617,0.988 0.106,0.32 0.26,0.631 0.319,0.959 0.963,5.328 2.05,10.639 2.829,15.995 0.804,5.529 2.088,10.959 3.041,16.453 1.359,7.832 3.01,15.612 4.287,23.454 0.707,4.347 1.479,8.662 2.551,12.929 0.247,0.984 0.488,1.985 0.569,2.991 0.31,3.901 1.175,7.693 2.055,11.492 0.573,2.473 1.018,4.979 1.423,7.486 0.835,5.178 1.834,10.32 2.996,15.434 0.637,2.803 1.018,5.663 1.562,8.488 1.44,7.477 3.011,14.931 4.328,22.429 1.054,6 2.211,11.981 3.249,17.983 0.808,4.675 1.726,9.323 3.489,13.75 0.623,1.564 1.315,3.118 2.149,4.577 0.957,1.674 2.493,2.754 4.322,3.354 0.802,0.263 1.662,0.341 2.471,0.585 1.951,0.588 3.648,0.09 5.273,-1.027 1.576,-1.083 2.779,-2.501 3.707,-4.123 1.175,-2.054 2.286,-4.148 2.914,-6.461 0.399,-1.47 0.902,-2.911 1.333,-4.372 0.77,-2.612 1.874,-5.07 3.213,-7.441 1.248,-2.21 2.349,-4.503 3.582,-6.722 1.479,-2.66 3.047,-5.25 4.897,-7.698 7.96,-10.536 15.777,-21.178 22.689,-32.45 1.062,-1.732 2.125,-3.465 3.158,-5.215 0.602,-1.019 1.23,-2.037 1.702,-3.118 3.256,-7.453 6.246,-15.005 7.85,-23.017 0.566,-2.828 0.617,-5.713 0.609,-8.6 -0.012,-4.419 -0.416,-8.753 -1.523,-13.067 M -318.392,33.602 c -1.49,-0.657 -2.992,-0.769 -4.373,0.135 -1.411,0.924 -2.69,2.046 -4.076,3.012 -0.824,0.573 -1.721,1.053 -2.624,1.496 -0.663,0.326 -1.924,-0.451 -1.922,-1.157 0.002,-1.353 -0.05,-2.718 0.104,-4.056 0.718,-6.227 1.53,-12.443 2.246,-18.669 0.444,-3.871 0.867,-7.749 1.145,-11.634 1.138,-15.898 1.724,-31.802 0.699,-47.738 -0.435,-6.763 -0.708,-13.538 -1.442,-20.277 -0.715,-6.568 -1.402,-13.143 -2.352,-19.679 -1.755,-12.071 -4.035,-24.05 -6.829,-35.928 -10.868,-46.189 -28.217,-89.753 -52.855,-130.359 -2.197,-3.62 -4.408,-7.24 -6.792,-10.737 -3.341,-4.902 -6.321,-10.023 -9.29,-15.142 -5.556,-9.579 -9.486,-19.844 -12.336,-30.534 -3.881,-14.554 -5.152,-29.373 -3.935,-44.341 1.736,-21.348 8.319,-41.077 20.627,-58.758 0.77,-1.106 1.474,-2.262 2.14,-3.434 0.087,-0.153 -0.207,-0.76 -0.384,-0.789 -2.671,-0.44 -5.342,-0.912 -8.031,-1.193 -6.234,-0.652 -12.479,-1.204 -18.719,-1.796 -0.506,-0.048 -1.012,-0.106 -1.52,-0.129 -8.463,-0.383 -16.924,-0.958 -25.391,-1.093 -11.181,-0.178 -22.361,-0.118 -33.541,0.574 -6.934,0.429 -13.871,0.831 -20.786,1.468 -7.25,0.668 -14.486,1.501 -21.699,2.545 -6.874,0.995 -13.731,2.068 -20.566,3.301 -15.512,2.801 -30.839,6.385 -45.996,10.695 -11.078,3.15 -22.043,6.661 -32.853,10.64 -0.791,0.291 -1.556,0.653 -2.326,0.997 -0.381,0.171 -0.706,0.922 -0.562,1.292 0.369,0.943 0.705,1.899 1.116,2.823 2.959,6.665 6.536,13.016 9.935,19.455 2.372,4.492 4.841,8.932 7.314,13.37 4.534,8.134 9.092,16.256 13.665,24.368 1.081,1.917 2.271,3.772 3.393,5.665 1.382,2.331 2.75,4.67 4.116,7.01 0.341,0.585 0.614,1.211 0.978,1.781 3.917,6.143 7.523,12.467 11.138,18.792 4.285,7.499 8.88,14.821 13.388,22.191 3.447,5.635 7.004,11.202 10.441,16.842 1.937,3.181 3.835,6.394 5.555,9.695 1.333,2.558 2.723,5.071 4.275,7.499 0.274,0.428 0.579,0.844 0.793,1.301 2.807,5.988 6.313,11.606 9.293,17.498 4.074,8.052 7.051,16.488 8.594,25.414 2.807,16.244 0.776,31.708 -7.281,46.233 -0.409,0.739 -0.781,1.499 -1.171,2.249 -0.15,0.896 -0.296,1.064 -0.443,1.232 0.304,0.152 0.506,0.06 0.605,-0.275 0.192,-0.246 0.726,-0.024 1.139,-0.162 1.281,-0.43 2.512,-1.006 3.77,-1.509 5.845,-2.339 11.883,-3.919 18.122,-4.811 9.797,-1.402 19.585,-1.377 29.386,-0.104 27.777,3.61 52.395,14.495 73.995,32.248 7.495,6.161 14.098,13.194 19.737,21.11 2.957,4.15 5.566,8.506 7.687,13.143 0.491,1.075 0.908,2.187 1.298,3.303 0.317,0.91 -0.201,2.048 -1.1,2.61 -0.993,0.621 -2.549,0.34 -3.186,-0.625 -0.466,-0.704 -0.903,-1.435 -1.278,-2.192 -6.593,-13.296 -16.095,-24.222 -27.492,-33.569 -14.193,-11.641 -30.166,-20.001 -47.637,-25.541 -9.893,-3.137 -20.031,-5.099 -30.37,-5.856 -12.098,-0.886 -24.034,0.139 -35.689,3.705 -3.408,1.043 -6.688,2.397 -9.927,3.882 -3.582,1.643 -6.668,3.852 -9.474,6.669 -9.378,9.418 -20.532,15.981 -33.217,19.944 -1.424,0.444 -2.844,0.9 -4.412,1.397 0.399,0.591 0.585,1.131 0.962,1.381 6.065,4.03 11.719,8.669 18.091,12.245 0.295,0.165 0.59,0.338 0.859,0.542 5.146,3.886 10.726,7.118 16.09,10.673 1.408,0.934 2.715,1.996 4.404,2.479 0.778,0.222 1.466,0.829 2.14,1.334 10.084,7.548 19.271,16.039 27.109,25.934 5.175,6.534 9.624,13.527 13.143,21.09 4.712,10.127 7.18,20.775 7.292,31.956 0.019,1.863 0.02,3.727 0.052,5.59 0.016,0.954 0.647,1.436 1.683,1.335 0.506,-0.049 1.016,-0.08 1.516,-0.161 9.614,-1.555 19.244,-1.48 28.858,-0.105 21.726,3.107 41.367,11.391 59.168,24.126 6.626,4.74 12.858,9.966 18.547,15.814 5.576,5.732 10.535,11.953 14.565,18.868 1.873,3.215 3.506,6.571 5.239,9.867 0.836,1.59 0.853,3.253 0.346,4.936 -0.996,3.312 -3.418,5.356 -6.288,6.982 -0.44,0.249 -0.924,0.424 -1.397,0.609 -9.372,3.655 -17.909,8.782 -26.053,14.633 -3.16,2.271 -6.189,4.746 -9.677,6.539 -0.449,0.231 -0.87,0.528 -1.274,0.834 -8.002,6.047 -17.14,9.515 -26.825,11.636 -9.531,2.087 -19.198,2.207 -28.835,1.082 -9.643,-1.125 -18.922,-3.797 -27.771,-7.828 -15.368,-7 -28.539,-16.865 -39.019,-30.189 -2.519,-3.202 -4.804,-6.558 -6.673,-10.191 -0.538,-1.046 -1.244,-2.006 -1.888,-2.995 -0.218,-0.334 -1.064,-0.492 -1.366,-0.292 -0.281,0.187 -0.593,0.337 -0.842,0.558 -8.248,7.334 -14.455,16.102 -18.535,26.368 -1.005,2.53 -1.66,5.156 -2.277,7.794 -0.486,2.08 -0.32,3.966 1.221,5.682 1.695,1.889 3.142,3.997 4.804,5.918 10.372,11.991 22.904,21.051 37.41,27.404 10.447,4.576 21.331,7.671 32.551,9.662 10.382,1.842 20.849,2.583 31.372,2.447 26.999,-0.347 52.673,-6.369 77.044,-18.04 13.888,-6.65 26.386,-15.247 37.323,-26.068 8.725,-8.632 16.251,-18.181 21.743,-29.236 3.73,-7.51 6.179,-15.395 7.065,-23.736 0.707,-6.642 0.26,-13.201 -1.83,-19.589 -0.491,-1.499 -1.35,-2.717 -2.864,-3.385 M -538.11,68.119 c 0.308,0.781 0.62,1.586 1.084,2.277 10.293,15.331 23.261,27.708 39.857,36.093 9.604,4.852 19.698,8.225 30.346,9.705 14.162,1.967 28.068,0.957 41.438,-4.51 2.815,-1.15 5.529,-2.555 8.257,-3.908 2.269,-1.126 4.329,-2.614 6.7,-3.602 1.522,-0.635 2.792,-1.886 4.156,-2.888 4.503,-3.307 8.915,-6.745 13.772,-9.545 5.865,-3.38 11.665,-6.876 18.062,-9.227 2.976,-1.093 5.214,-3.082 6.553,-6.016 0.517,-1.131 0.678,-2.276 0.231,-3.447 -0.784,-2.052 -1.537,-4.104 -2.702,-6.006 -2.303,-3.759 -4.658,-7.479 -7.344,-10.975 -7.374,-9.596 -15.831,-18.105 -25.657,-25.201 -13.292,-9.6 -27.727,-16.919 -43.484,-21.561 -7.013,-1.886 -13.294,-3.242 -19.704,-3.984 -7.44,-0.86 -14.863,-1.026 -22.287,0.098 -1.84,0.278 -3.684,0.541 -5.509,0.9 -1.051,0.207 -1.765,0.813 -2.022,1.984 -0.508,2.311 -1.064,4.618 -1.736,6.887 -1.061,3.582 -2.591,6.984 -4.297,10.301 -6.747,13.121 -15.685,24.508 -27.011,33.988 -2.469,2.066 -5.019,4.028 -7.806,5.667 -1.353,0.797 -1.509,1.418 -0.897,2.97 m -116.571,-233.036 c -5.131,-5.67 -10.895,-10.658 -17.341,-14.815 -0.558,-0.36 -1.2,-0.594 -1.818,-0.849 -0.085,-0.035 -0.279,0.125 -0.386,0.231 -0.104,0.102 -0.215,0.247 -0.227,0.382 -0.014,0.158 0.028,0.367 0.128,0.483 3.664,4.243 6.566,9.022 9.664,13.664 3.949,5.917 8.121,11.694 11.856,17.741 2.585,4.184 5.243,8.301 8.095,12.299 1.474,2.065 3.023,4.078 4.537,6.115 5.327,6.868 10.492,12.877 16.55,18.132 5.897,5.116 12.085,9.827 18.392,14.401 4.265,3.093 8.945,5.492 13.599,7.919 4.804,2.506 9.63,4.972 14.499,7.347 8.232,4.015 16.128,8.633 23.88,13.477 4.585,2.865 9.067,5.956 12.902,9.847 0.475,0.482 0.964,0.96 1.5,1.369 7.096,5.415 12.709,12.155 17.457,19.645 6.267,9.884 10.162,20.633 11.377,32.293 0.474,4.551 0.64,9.136 0.287,13.705 -0.313,4.065 -1.249,8.022 -2.572,11.885 -4.222,12.33 -11.792,21.993 -22.937,28.804 -7.816,4.777 -15.957,8.933 -24.359,12.575 -16.381,7.102 -33.351,12.224 -50.933,15.384 -14.218,2.555 -28.532,3.922 -42.966,3.654 -13.929,-0.26 -27.708,-1.822 -41.121,-5.84 -8.153,-2.442 -15.88,-5.812 -23.129,-10.302 -4.76,-2.949 -9.76,-5.426 -15.269,-6.694 -1.48,-0.341 -3.09,1.202 -2.878,2.741 0.069,0.495 0.161,1.018 0.384,1.456 1.075,2.122 2.32,4.136 4.009,5.839 0.835,0.842 1.668,1.687 2.524,2.508 8.748,8.396 18.67,15.115 29.408,20.69 13.624,7.072 28.029,11.928 43.014,15.065 15.482,3.242 31.152,4.693 46.969,4.038 13.399,-0.554 26.643,-2.297 39.649,-5.709 1.798,-0.471 2.552,-1.393 2.882,-3.034 1.252,-6.218 3.744,-11.947 7.061,-17.314 4.125,-6.674 8.998,-12.715 15.26,-17.545 2.549,-1.966 5.059,-3.982 7.588,-5.972 5.734,-4.512 11.238,-9.279 16.173,-14.667 6.107,-6.668 11.217,-14.002 14.873,-22.31 6.683,-15.188 7.584,-30.746 3.012,-46.654 -3.033,-10.554 -8.154,-20.052 -14.73,-28.789 -7.9,-10.498 -17.305,-19.499 -27.715,-27.465 -2.011,-1.54 -4.21,-2.842 -6.371,-4.176 -5.044,-3.115 -9.939,-6.464 -14.929,-9.654 -6.429,-4.11 -12.562,-8.628 -18.869,-12.902 -8.834,-5.986 -17.504,-12.179 -25.703,-19.043 -7.405,-6.2 -14.778,-12.44 -21.906,-18.946 -7.377,-6.732 -14.652,-13.585 -21.37,-21.009 m -26.502,-16.553 c -0.771,-0.669 -1.717,-1.044 -2.743,-1.247 -0.979,-0.193 -1.742,0.287 -1.758,1.213 -0.035,2.039 0.15,4.046 0.612,6.043 1.307,5.638 3.404,10.988 5.862,16.201 3.181,6.746 6.875,13.21 10.944,19.461 13.588,20.873 29.956,39.284 49.11,55.195 3.902,3.241 8.094,6.132 12.149,9.188 0.703,0.53 1.481,0.811 2.361,0.74 4.72,-0.382 9.469,-0.258 14.18,-0.884 2.887,-0.384 5.637,-1.129 8.228,-2.44 0.435,-0.22 0.777,-0.624 1.147,-0.93 -0.282,-0.981 -1.131,-1.229 -1.842,-1.589 -3.624,-1.831 -7.29,-3.584 -10.894,-5.454 -4.205,-2.182 -8.453,-4.311 -12.326,-7.063 -6.484,-4.607 -12.825,-9.377 -18.825,-14.639 -5.765,-5.054 -10.784,-10.748 -15.706,-16.556 -2.184,-2.578 -4.214,-5.312 -6.071,-8.134 -2.883,-4.379 -6.05,-8.569 -8.546,-13.213 -1.437,-2.675 -3.254,-5.148 -4.935,-7.689 -3.922,-5.93 -7.864,-11.846 -11.797,-17.767 -2.075,-2.737 -3.696,-4.912 -5.47,-6.955 -1.102,-1.269 -2.404,-2.375 -3.68,-3.481 m -11.483,72.723 c -0.604,-5.797 -1.204,-10.667 -2.3,-15.461 -0.086,-0.378 -0.36,-0.511 -0.774,-0.37 -0.151,0.051 -0.333,0.13 -0.414,0.253 -0.271,0.418 -0.542,0.844 -0.744,1.298 -4.297,9.612 -9.479,18.728 -15.349,27.459 -0.378,0.563 -0.76,1.122 -1.128,1.69 -0.484,0.749 -0.578,1.575 -0.437,2.435 0.081,0.501 0.198,0.996 0.287,1.496 1.756,9.853 2.741,19.793 3.269,29.777 0.205,3.887 0.107,7.789 0.168,11.685 0.011,0.669 0.117,1.339 0.218,2.002 0.014,0.091 0.249,0.181 0.395,0.211 0.141,0.029 0.365,0.041 0.439,-0.042 0.449,-0.5 0.916,-0.996 1.286,-1.554 5.456,-8.232 9.779,-17.02 12.879,-26.399 0.531,-1.606 0.968,-3.221 1.886,-4.687 0.424,-0.679 0.609,-1.583 0.667,-2.401 0.216,-3.039 0.386,-6.083 0.478,-9.129 0.185,-6.106 -0.294,-12.187 -0.826,-18.263 m -6.235,-31.899 c -2.133,-7.679 -5.095,-15.073 -8.417,-22.317 -0.278,-0.605 -0.663,-1.179 -1.093,-1.686 -0.119,-0.141 -0.652,-0.092 -0.868,0.056 -0.253,0.172 -0.427,0.527 -0.531,0.838 -3.249,9.721 -8.152,18.589 -13.9,27.024 -0.381,0.56 -0.752,1.127 -1.115,1.699 -0.483,0.763 -0.568,1.592 -0.274,2.431 0.559,1.598 1.17,3.178 1.732,4.776 0.449,1.277 0.856,2.569 1.282,3.855 2.566,7.677 4.52,14.687 6.092,21.803 0.218,0.988 0.344,2.018 1.224,2.703 0.91,-0.23 1.294,-0.999 1.747,-1.692 5.01,-7.676 9.507,-15.647 13.084,-24.083 4.043,-9.534 3.701,-5.813 1.037,-15.407 m -14.531,-34.192 c -4.744,-8.419 -10.21,-16.349 -16.427,-23.752 -0.645,-0.767 -1.396,-1.454 -2.162,-2.104 -0.187,-0.159 -0.624,-0.024 -1.088,-0.024 -2.945,8.83 -7.24,17.051 -12.371,24.85 -0.453,1.104 -0.777,1.675 -0.623,2.049 0.382,0.927 0.945,1.789 1.501,2.634 5.965,9.064 11.022,18.616 15.375,28.548 0.405,0.925 0.86,1.829 1.303,2.737 0.211,0.431 1.016,0.515 1.321,0.155 0.217,-0.255 0.473,-0.483 0.656,-0.76 5.53,-8.356 10.164,-17.15 13.236,-26.729 1.449,-4.519 1.182,-4.227 -0.721,-7.604 m -23.69,-31.877 c -2.415,-2.374 -4.782,-4.801 -7.258,-7.11 -3.968,-3.699 -8.16,-7.136 -12.522,-10.364 -0.671,-0.497 -1.287,-1.084 -1.845,-1.705 -0.159,-0.177 -0.158,-0.729 0,-0.918 0.533,-0.645 1.124,-1.262 1.775,-1.787 2.109,-1.701 4.273,-3.334 6.377,-5.041 0.917,-0.744 1.755,-1.588 2.597,-2.419 0.586,-0.578 0.4,-1.735 -0.314,-2.212 -0.141,-0.095 -0.286,-0.182 -0.432,-0.268 -8.047,-4.689 -16.094,-9.38 -24.143,-14.065 -0.585,-0.341 -1.231,-0.589 -1.779,-0.979 -2.649,-1.883 -5.057,-1.359 -7.391,0.612 -1.292,1.092 -2.652,2.104 -3.981,3.152 -2.696,2.131 -4.883,3.753 -6.841,5.616 -2.482,2.361 -2.51,1.982 -5.253,0.603 -7.789,-3.916 -16.064,-6.265 -24.604,-7.782 -0.481,-0.086 -0.997,-0.005 -1.493,0.04 -0.43,0.039 -0.63,0.304 -0.533,0.691 0.163,0.647 0.306,1.307 0.551,1.924 3.561,8.968 7.13,17.933 10.726,26.887 0.238,0.592 0.707,1.091 1.048,1.602 1.183,-0.47 1.642,-1.423 2.274,-2.204 3.304,-4.08 6.574,-8.188 9.922,-12.232 1.402,-1.693 2.967,-3.251 4.457,-4.872 0.768,-0.836 1.743,-1.158 2.753,-0.695 4.219,1.933 3.862,0.991 6.69,-1.155 2.691,-2.041 5.28,-4.22 7.83,-5.984 0.657,0 1.054,-0.121 1.31,0.018 6.248,3.392 12.483,6.806 18.713,10.232 0.78,0.429 0.755,1.434 -0.014,2.08 -0.648,0.545 -1.32,1.061 -1.966,1.608 -1.034,0.875 -2.089,1.73 -3.067,2.665 -0.466,0.446 -0.932,1.008 -1.116,1.604 -0.249,0.808 0.67,1.043 1.086,1.526 0.219,0.254 0.517,0.479 0.631,0.774 0.104,0.269 0.135,0.72 -0.021,0.911 -0.749,0.91 -1.532,1.802 -2.377,2.623 -4.257,4.135 -8.278,8.487 -12.121,13.007 -0.438,0.515 -0.872,1.036 -1.292,1.566 -0.44,0.555 -0.383,1.445 0.103,1.826 0.266,0.209 0.528,0.423 0.808,0.613 9.915,6.72 18.223,15.119 25.605,24.489 0.835,1.061 1.726,2.079 2.605,3.105 0.103,0.121 0.291,0.168 0.518,0.291 0.363,-0.26 0.885,-0.46 1.134,-0.839 4.479,-6.814 8.43,-13.898 10.889,-21.726 0.304,-0.966 0.563,-1.949 0.798,-2.935 0.255,-1.072 -0.052,-2.002 -0.837,-2.773 m -91.527,-40.558 c -1.044,-2.162 -1.15,-4 -2.808,-5.115 -0.522,0.449 -1.082,0.827 -1.514,1.319 -9.848,11.205 -19.182,22.823 -27.931,34.908 -0.286,0.395 -0.485,0.871 -0.64,1.337 -0.134,0.405 0.083,0.702 0.479,0.719 0.669,0.028 1.35,0.078 2.01,-0.006 11.262,-1.44 22.575,-2.299 33.901,-3.029 2.365,-0.152 4.724,-0.417 7.082,-0.671 0.486,-0.053 0.953,-0.291 1.391,-0.432 0.317,-1.141 -0.208,-2.029 -0.614,-2.951 -3.065,-6.975 -6.127,-13.952 -9.179,-20.933 -0.747,-1.706 -1.453,-3.43 -2.177,-5.146 m -36.553,37.498 c -0.553,0.619 -1.053,1.078 -1.433,1.62 -7.587,10.821 -14.738,21.922 -21.395,33.34 -0.254,0.436 -0.45,0.907 -0.666,1.366 -0.193,0.411 0.217,1.12 0.64,1.108 0.503,-0.013 1.014,0.057 1.51,-0.004 7.056,-0.866 14.105,-1.803 21.169,-2.609 5.046,-0.576 10.111,-0.989 15.169,-1.458 2.18,-0.202 4.378,-0.286 6.58,-1.102 -0.606,-2.129 -2.077,-3.587 -3.157,-5.266 -1.006,-1.566 -2.097,-3.078 -3.151,-4.614 -1.353,-2.013 -2.309,-3.411 -3.25,-4.819 -1.036,-1.548 -2.062,-3.103 -3.085,-4.66 -0.93,-1.415 -1.852,-2.835 -2.773,-4.256 -1.013,-1.564 -1.994,-3.148 -3.038,-4.69 -0.915,-1.351 -1.54,-2.956 -3.12,-3.956 m -26.16,42.839 c -0.133,-0.149 -0.759,-0.136 -0.873,0.016 -0.702,0.935 -1.391,1.893 -1.959,2.913 -6.004,10.78 -11.548,21.794 -16.716,32.998 -0.777,1.686 -1.499,3.399 -2.225,5.108 -0.268,0.631 0.381,1.346 1.107,1.235 2.502,-0.385 4.998,-0.811 7.505,-1.158 6.693,-0.924 13.388,-1.837 20.088,-2.713 4.858,-0.635 9.726,-1.199 14.587,-1.811 0.661,-0.083 1.309,-0.264 1.898,-0.386 0.264,-0.814 0.073,-1.413 -0.33,-2.002 -2.577,-3.765 -5.139,-7.541 -7.706,-11.314 -4.787,-7.236 -9.148,-13.875 -13.529,-20.5 -0.554,-0.838 -1.182,-1.633 -1.847,-2.386 m -23.499,47.475 c -0.143,-0.155 -0.659,-0.124 -0.898,0.01 -0.264,0.149 -0.465,0.488 -0.594,0.788 -5.238,12.114 -9.89,24.453 -14.12,36.952 -0.054,0.159 -0.064,0.333 -0.107,0.496 -0.255,0.958 0.317,1.753 1.22,1.654 1.176,-0.129 2.356,-0.243 3.519,-0.45 2.996,-0.535 5.984,-1.118 8.975,-1.682 7.387,-1.139 13.902,-2.16 20.414,-3.202 0.827,-0.133 1.638,-0.371 2.451,-0.581 0.374,-0.096 0.647,-0.913 0.439,-1.268 -0.342,-0.582 -0.676,-1.17 -1.042,-1.737 -6.236,-9.666 -12.474,-19.332 -18.724,-28.99 -0.454,-0.703 -0.966,-1.378 -1.533,-1.99 m -18.372,46.712 c -0.414,1.104 -0.868,2.198 -1.206,3.326 -2.766,9.237 -5.431,18.503 -7.65,27.891 -0.234,0.988 -0.497,1.969 -0.746,2.953 -0.633,2.959 -1.128,5.101 -1.595,7.249 -0.198,0.913 0.609,1.48 1.611,1.149 0.642,-0.213 1.274,-0.454 1.913,-0.675 8.791,-3.044 17.583,-6.083 26.371,-9.134 1.269,-0.441 2.518,-0.938 3.705,-1.382 0,-0.493 0.105,-0.865 -0.021,-1.123 -0.296,-0.603 -0.684,-1.164 -1.068,-1.72 -5.865,-8.496 -11.731,-16.992 -17.611,-25.478 -0.768,-1.109 -1.609,-2.166 -2.416,-3.247 -0.251,-0.335 -1.138,-0.206 -1.287,0.191 m -12.55,50.751 c -0.159,0.023 -0.383,0.096 -0.443,0.216 -0.224,0.443 -0.477,0.899 -0.569,1.378 -1.642,8.617 -3.273,17.236 -4.394,25.941 -0.581,4.518 -1.242,9.026 -1.85,13.54 -0.09,0.666 -0.09,1.344 -0.121,2.017 -0.017,0.358 0.686,0.974 1.038,0.911 0.49,-0.088 1.019,-0.074 1.468,-0.258 7.181,-2.94 14.351,-5.905 21.522,-8.867 0.31,-0.128 0.609,-0.283 0.909,-0.434 0.564,-0.283 0.916,-1.194 0.631,-1.71 -0.897,-1.623 -1.811,-3.236 -2.718,-4.853 -4.726,-8.853 -9.087,-17.044 -13.466,-25.225 -0.471,-0.881 -1.041,-1.71 -1.588,-2.548 -0.061,-0.092 -0.283,-0.128 -0.419,-0.108 m -3.339,47.415 c 3.359,2.824 6.734,5.627 10.105,8.436 2.103,1.467 3.632,2.517 5.171,3.552 0.407,0.273 1.104,0.007 1.217,-0.443 0.163,-0.655 0.365,-1.304 0.466,-1.969 0.812,-5.345 1.972,-10.616 3.286,-15.856 0.202,-0.806 0.38,-1.656 -0.286,-2.383 -3.238,0.638 -8.865,2.581 -19.065,6.614 -0.456,0.18 -0.852,0.521 -1.255,0.817 -0.101,0.074 -0.119,0.261 -0.175,0.396 0.176,0.282 0.294,0.633 0.536,0.836 m 23.333,-18.933 c 0.103,0.016 0.287,-0.181 0.358,-0.32 0.232,-0.448 0.483,-0.898 0.629,-1.377 3.839,-12.627 8.292,-25.037 13.15,-37.305 0.433,-1.093 0.758,-2.23 1.123,-3.35 0.131,-0.402 -0.451,-1.02 -0.876,-0.955 -0.332,0.051 -0.68,0.04 -0.998,0.133 -9.413,2.751 -18.825,5.504 -28.229,8.282 -0.788,0.233 -1.523,0.648 -2.447,1.051 0.426,1.088 0.715,2.049 1.16,2.931 2.511,4.985 5.064,9.949 7.594,14.924 1.15,2.262 2.279,4.534 3.418,6.801 1.647,3.427 2.976,6.165 4.347,8.882 0.096,0.189 0.498,0.26 0.771,0.303 m 18.162,-50.659 c 0.319,-0.343 0.746,-0.658 0.974,-1.081 0.4,-0.741 0.668,-1.551 1.007,-2.326 4.26,-9.763 8.524,-19.525 12.785,-29.289 0.468,-1.072 1.184,-2.074 0.979,-3.335 -0.567,-0.492 -1.236,-0.447 -1.899,-0.367 -6.38,0.772 -12.758,1.559 -19.139,2.323 -2.015,0.241 -4.036,0.424 -6.055,0.634 -3.767,0.296 -6.609,0.645 -9.513,1.162 0.079,0.619 0.017,1.168 0.227,1.577 0.461,0.899 1.048,1.735 1.604,2.583 5.752,8.771 11.508,17.538 17.261,26.308 0.459,0.699 0.861,1.448 1.769,1.811 m 4.481,98.174 c 0.04,0.436 0.359,1.045 0.723,1.222 4.402,2.148 8.802,4.337 13.521,5.703 3.566,1.032 7.2,1.833 10.814,2.691 0.815,0.194 1.68,0.303 2.51,0.256 0.437,-0.025 1.05,-0.371 1.236,-0.746 0.596,-1.201 1.14,-2.451 1.507,-3.739 1.019,-3.581 1.722,-7.235 2.072,-10.942 0.238,-2.522 0.345,-5.057 0.482,-7.588 0.046,-0.84 -0.687,-1.522 -1.613,-1.567 -0.675,-0.033 -1.352,-0.053 -2.028,-0.052 -3.894,0.005 -7.771,-0.243 -11.632,-0.754 -4.811,-0.307 -8.637,-1.014 -12.455,-1.73 -1.873,-0.351 -2.672,0.037 -3.053,2.229 -0.261,1.498 -0.602,2.982 -0.856,4.48 -0.422,2.499 -0.842,5 -1.183,7.51 -0.136,0.995 -0.135,2.026 -0.045,3.027 m 39.757,12.221 c 2.997,0.495 6.058,0.598 9.091,0.873 4.985,0.452 9.04,0.595 13.106,0.412 1.296,-0.058 2.297,-0.586 2.813,-1.786 0.868,-2.018 1.769,-4.031 2.477,-6.108 2.297,-6.744 3.805,-13.682 4.868,-20.719 0.15,-0.995 0.146,-2.022 0.112,-3.03 -0.008,-0.251 -0.419,-0.702 -0.635,-0.697 -1.178,0.03 -2.364,0.105 -3.526,0.291 -4.007,0.641 -8.006,1.331 -12.007,2.009 -5.349,0.905 -10.763,1.171 -16.154,1.662 -0.505,0.046 -1.015,0.041 -1.52,0.084 -0.924,0.079 -1.57,0.676 -1.7,1.565 -0.318,2.175 -0.634,4.35 -0.943,6.527 -0.79,5.558 -2.156,10.947 -4.623,16.023 -0.138,0.286 -0.132,0.642 -0.211,1.062 2.741,1.542 5.886,1.341 8.852,1.832 m 28.87,0.573 c 2.355,-0.08 4.733,0.007 7.059,-0.296 6.7,-0.873 13.362,-1.997 19.893,-3.786 0.489,-0.133 0.984,-0.242 1.476,-0.365 1.75,-0.434 2.876,-1.468 3.653,-3.151 2.911,-6.31 5.092,-12.873 6.992,-19.537 1.297,-4.55 2.345,-9.162 3.116,-13.832 0.109,-0.66 0.089,-1.343 0.118,-2.015 0.015,-0.334 -0.585,-0.764 -1.128,-0.759 -0.33,0.004 -0.659,0.112 -0.989,0.173 -10.665,4.29 -20.784,7.538 -30.81,10.079 -1.297,1.019 -1.405,2.232 -1.546,3.388 -0.45,3.694 -1.161,7.335 -1.966,10.967 -1.251,5.64 -3.105,11.048 -5.797,16.166 -0.313,0.594 -0.547,1.231 -0.808,1.852 -0.127,0.3 0.408,1.127 0.737,1.116 m 119.024,-97.398 c -0.291,-0.054 -0.602,-0.048 -0.898,-0.005 -0.15,0.021 -0.306,0.146 -0.42,0.263 -0.355,0.362 -0.699,0.736 -1.034,1.118 -7.621,8.688 -16.189,16.351 -25.326,23.399 -3.815,2.943 -3.722,2.14 -4.357,7.408 -1.361,11.3 -3.795,22.341 -8.136,32.908 -0.319,0.777 -0.564,1.587 -0.81,2.392 -0.036,0.118 0.09,0.326 0.199,0.434 0.084,0.083 0.289,0.139 0.388,0.094 0.456,-0.208 0.936,-0.398 1.33,-0.697 10.585,-8.021 19.89,-17.337 28.089,-27.773 1.057,-1.346 1.825,-2.822 2.457,-4.412 1.69,-4.249 3.159,-8.569 4.404,-12.968 2.034,-7.673 3.432,-14.633 4.266,-21.701 0.018,-0.153 -0.072,-0.445 -0.152,-0.46 m -15.161,-96.674 c -5.376,6.779 -11.176,13.174 -17.356,19.226 -2.849,2.719 -5.184,4.933 -7.523,7.145 -0.821,0.776 -0.983,1.645 -0.663,2.751 1.928,6.669 3.666,13.39 4.969,20.212 0.984,5.154 1.833,10.334 2.743,15.502 0.173,0.977 1.126,1.34 1.886,0.721 0.262,-0.214 0.527,-0.426 0.78,-0.652 0.379,-0.338 0.751,-0.684 1.12,-1.033 8.878,-8.404 17.017,-17.469 24.363,-27.243 0.305,-0.406 0.573,-0.845 0.914,-1.218 1.136,-1.242 1.356,-2.636 0.954,-4.25 -0.982,-3.942 -1.814,-7.922 -2.848,-11.849 -1.68,-6.386 -3.598,-12.704 -5.885,-18.903 -0.232,-0.629 -0.548,-1.227 -0.839,-1.832 -0.195,-0.404 -0.977,-0.471 -1.292,-0.115 -0.447,0.507 -0.903,1.009 -1.323,1.538 m -40.404,-17.525 c -0.716,0.717 -1.45,1.423 -2.095,2.202 -0.433,0.525 -0.636,1.155 -0.254,1.865 0.72,1.338 1.393,2.702 2.086,4.055 4.738,9.437 8.494,18.476 11.683,27.754 0.436,1.27 0.975,2.508 1.542,3.726 0.09,0.193 0.623,0.345 0.871,0.265 0.465,-0.149 0.934,-0.415 1.292,-0.748 8.808,-8.187 16.965,-16.968 24.203,-26.583 0.305,-0.405 0.596,-0.821 0.881,-1.24 0.518,-0.759 0.559,-1.586 0.223,-2.409 -4.667,-11.447 -10.163,-22.467 -16.925,-32.834 -0.382,-0.586 -0.832,-1.049 -1.705,-1.246 -0.487,0.569 -1.07,1.172 -1.566,1.84 -6.156,8.295 -12.946,16.04 -20.236,23.353 m -29.814,-30.986 c 8.573,7.096 15.443,15.653 21.457,24.947 0.829,1.279 1.598,2.599 2.472,3.846 0.26,0.372 0.783,0.561 1.268,0.889 4.472,-4.013 8.372,-8.47 12.305,-12.895 3.648,-4.513 6.83,-8.475 9.989,-12.455 0.524,-0.659 1.032,-1.358 1.391,-2.113 0.19,-0.398 0.149,-0.987 0.02,-1.435 -0.136,-0.469 -0.473,-0.892 -0.77,-1.3 -6.216,-8.524 -13.189,-16.345 -21.431,-22.978 -2.367,-1.905 -4.757,-3.786 -7.572,-5.319 -0.67,0.613 -1.365,1.103 -1.879,1.74 -6.282,7.779 -12.177,15.847 -17.843,24.083 -0.861,1.251 -0.747,1.881 0.593,2.99 m -25.41,36.33 c -0.766,1.472 -0.836,2.267 -0.128,2.965 0.48,0.474 0.98,0.929 1.474,1.39 4.218,3.938 7.857,8.367 11.116,13.118 0.764,1.113 1.529,2.226 2.312,3.325 0.345,0.484 1.291,0.633 1.842,0.285 1.283,-0.811 2.572,-1.617 3.821,-2.479 8.634,-5.96 16.77,-12.542 24.479,-19.654 0.62,-0.572 1.223,-1.163 1.813,-1.766 0.636,-0.652 0.772,-1.499 0.262,-2.317 -1.874,-3.009 -3.716,-6.041 -5.7,-8.976 -3.985,-5.894 -8.501,-11.359 -13.679,-16.252 -1.468,-1.387 -3.069,-2.638 -4.628,-3.928 -0.492,-0.407 -1.321,-0.215 -1.754,0.38 -0.596,0.816 -1.178,1.644 -1.739,2.485 -6.843,10.259 -13.278,20.773 -19.491,31.424 m -15.08,-40.769 c 0.444,0.691 0.84,1.417 1.901,1.495 4.544,-7.124 9.08,-14.233 13.615,-21.343 2.928,-4.405 5.454,-8.194 7.972,-11.989 0.253,-0.383 -0.15,-1.109 -0.599,-1.145 -0.333,-0.027 -0.667,-0.117 -0.997,-0.101 -4.554,0.222 -9.118,0.334 -13.66,0.715 -7.582,0.636 -15.179,0.748 -22.776,0.929 -1.181,0.028 -2.361,0.075 -3.54,0.13 -0.676,0.031 -1.232,0.873 -0.947,1.421 0.309,0.594 0.605,1.2 0.966,1.762 6.017,9.378 12.045,18.75 18.065,28.126 m -23.605,45.479 c 0.289,-0.163 0.671,-0.258 0.845,-0.501 0.489,-0.682 0.929,-1.405 1.324,-2.146 5.87,-11.026 11.994,-21.909 18.318,-32.68 0.491,-0.835 1.253,-1.656 0.764,-2.819 -1.656,-0.457 -3.319,-0.05 -4.984,0.073 -7.78,0.602 -14.682,1.109 -21.588,1.563 -5.39,0.354 -10.784,0.637 -16.177,0.962 -1.023,0.062 -1.3,0.795 -0.692,1.786 0.353,0.575 0.725,1.139 1.093,1.704 4.234,6.509 8.485,13.006 12.697,19.529 2.288,3.545 4.506,7.135 6.762,10.702 0.442,0.699 0.827,1.456 1.638,1.827 m -4.28,83.114 c 2.359,0.507 4.89,0.264 7.408,0.007 6.748,-0.691 13.399,-1.917 19.936,-3.739 1.75,-0.525 2.718,-0.834 3.675,-1.175 0.585,-0.209 0.988,-1.053 0.839,-1.666 -0.04,-0.164 -0.051,-0.336 -0.097,-0.498 -2.102,-7.509 -4.546,-14.902 -7.968,-21.922 -1.479,-3.035 -3.275,-5.918 -4.983,-8.837 -0.319,-0.546 -0.905,-0.935 -1.483,-1.511 -0.503,0.688 -0.984,1.181 -1.274,1.768 -5.685,11.543 -11.019,23.247 -16.158,35.042 -0.336,0.772 -0.619,1.602 0.105,2.531 m 50.989,34.69 c 10.678,-3.859 23.094,-9.787 27.885,-13.198 0.448,-4.507 -0.11,-9.924 -2.488,-24.116 -1.075,-5.166 -1.941,-9.475 -2.838,-13.778 -0.172,-0.823 -0.441,-1.635 -1.146,-2.235 -1.557,0.138 -2.765,1.113 -4.067,1.837 -8.143,4.526 -16.557,8.467 -25.263,11.783 -1.579,0.601 -3.182,1.139 -4.764,1.734 -0.807,0.303 -1.28,1.166 -1.101,2.04 0.474,2.317 0.981,4.628 1.476,6.942 1.628,7.611 2.888,15.282 3.755,23.019 0.299,2.67 0.528,5.359 1.204,8.087 2.736,-0.06 5.007,-1.269 7.347,-2.115 m 27.447,33.045 c 0.143,-0.832 0.264,-1.67 0.356,-2.509 0.895,-8.248 1.366,-16.518 1.264,-24.816 -0.051,-4.059 -0.134,-8.118 -0.202,-12.177 -0.71,-1.884 -0.922,-2.046 -1.457,-1.808 -0.924,0.411 -1.854,0.813 -2.752,1.277 -9.33,4.815 -18.95,8.95 -28.884,12.354 -0.637,0.218 -1.277,0.444 -1.882,0.737 -0.64,0.311 -1.038,0.847 -1.077,1.586 -0.018,0.336 -0.013,0.676 0.015,1.012 0.688,8.274 0.612,16.563 0.447,24.85 -0.06,3.04 -0.344,6.076 -0.521,9.114 -0.039,0.675 -0.062,1.35 -0.086,2.024 -0.024,0.667 0.698,1.359 1.298,1.224 0.988,-0.222 1.97,-0.47 2.949,-0.726 9.008,-2.356 17.796,-5.369 26.42,-8.868 0.782,-0.318 1.553,-0.665 2.333,-0.988 1.03,-0.426 1.595,-1.216 1.779,-2.286 m 39.031,-15.26 c -0.624,0.214 -1.249,0.473 -1.806,0.821 -2.295,1.436 -4.549,2.939 -6.848,4.37 -7.046,4.387 -14.343,8.318 -21.84,11.879 -1.222,0.581 -2.426,1.206 -3.671,1.734 -1.05,0.445 -1.553,1.259 -1.779,2.294 -0.217,0.991 -0.389,1.992 -0.573,2.99 -1.106,5.997 -2.58,11.903 -4.437,17.709 -1.601,5.007 -3.634,9.835 -6.103,14.48 -0.39,0.734 -0.682,1.528 -0.929,2.322 -0.042,0.135 0.404,0.616 0.572,0.591 0.832,-0.126 1.67,-0.301 2.464,-0.579 11.717,-4.089 22.763,-9.539 33.184,-16.281 1.798,-1.163 2.981,-2.611 3.707,-4.619 3.059,-8.45 5.473,-17.072 7.13,-25.904 0.437,-2.327 0.791,-4.669 1.183,-7.005 0.229,-1.982 0.366,-3.147 0.447,-4.315 0.026,-0.379 -0.305,-0.623 -0.701,-0.487 m -0.515,-52.234 c -1.887,1.428 -3.702,2.952 -5.578,4.395 -2.547,1.959 -5.127,3.875 -7.693,5.809 -6.633,4.769 -12.924,8.734 -19.029,12.347 -0.924,1.175 -0.724,2.213 -0.712,3.207 0.066,5.58 0.215,11.16 0.208,16.741 -0.007,5.75 -0.2,11.495 -0.902,17.217 -0.245,1.991 -0.673,4.012 -0.194,6.031 0.053,0.221 0.485,0.524 0.711,0.501 0.652,-0.067 1.344,-0.171 1.923,-0.457 3.638,-1.795 7.277,-3.593 10.865,-5.485 6.587,-3.474 12.925,-7.368 19.078,-11.562 0.837,-0.571 1.664,-1.162 2.458,-1.791 0.688,-0.544 1.07,-1.294 1.173,-2.168 0.079,-0.672 0.149,-1.345 0.193,-2.02 0.796,-12.001 0.7,-24.002 -0.086,-35.999 -0.155,-2.354 -0.418,-4.706 -0.947,-7.132 -0.559,0.13 -1.122,0.105 -1.468,0.366 m -10.966,-42.884 c -7.979,6.577 -16.307,12.678 -24.996,18.285 -4.362,2.775 -4.566,2.364 -3.387,7.238 2.668,11.034 4.575,22.211 5.526,33.536 0.028,0.337 0.095,0.67 0.141,1.005 0.099,0.709 0.887,1.205 1.465,0.894 1.039,-0.561 2.088,-1.111 3.091,-1.732 6.918,-4.28 13.604,-8.897 19.981,-13.95 2.919,-2.313 5.749,-4.739 8.65,-7.076 1.035,-0.834 1.404,-1.874 1.234,-3.133 -0.363,-2.683 -0.708,-5.37 -1.145,-8.041 -1.506,-9.194 -3.474,-18.287 -6.01,-27.254 -0.137,-0.485 -0.309,-0.961 -0.474,-1.438 -0.156,-0.455 -0.885,-0.739 -1.251,-0.469 -0.951,0.7 -1.915,1.385 -2.825,2.135 m -45.083,-19.221 c 0.103,0.484 0.344,0.949 0.582,1.393 5.297,9.865 9.448,20.2 12.706,30.904 0.294,0.966 0.665,1.908 1.008,2.859 0.141,0.388 0.829,0.716 1.27,0.535 0.621,-0.254 1.207,-0.592 1.809,-0.895 9.348,-5.949 17.682,-12.017 25.601,-18.651 1.296,-1.084 2.543,-2.227 3.792,-3.365 0.544,-0.495 0.714,-1.186 0.504,-1.853 -0.865,-2.739 -1.761,-5.468 -2.692,-8.185 -2.962,-8.649 -6.53,-17.044 -10.687,-25.185 -0.456,-0.893 -1.031,-1.732 -1.624,-2.543 -0.139,-0.19 -0.592,-0.257 -0.871,-0.209 -0.311,0.053 -0.627,0.258 -0.876,0.472 -0.895,0.773 -1.762,1.581 -2.643,2.371 -7.942,7.125 -16.292,13.728 -25.196,19.62 -0.841,0.557 -1.648,1.173 -2.414,1.828 -0.206,0.177 -0.328,0.626 -0.269,0.904 m -6.534,-3.178 c -3.684,-6.102 -7.955,-11.735 -13.291,-16.508 -0.504,-0.452 -1.423,-0.347 -1.774,0.206 -0.453,0.711 -0.913,1.422 -1.315,2.162 -4.674,8.605 -9.341,17.214 -13.995,25.83 -0.316,0.585 -0.509,1.236 -0.768,1.852 -0.171,0.404 0.372,0.978 0.869,0.917 0.667,-0.081 1.342,-0.137 1.994,-0.286 4.96,-1.132 9.679,-2.957 14.325,-4.992 4.682,-2.18 8.538,-4.275 12.305,-6.536 0.432,-0.259 0.839,-0.561 1.25,-0.853 0.538,-0.381 0.741,-1.227 0.4,-1.792 m -0.331,6.305 c -1.647,0.866 -3.283,1.756 -4.943,2.598 -8.35,4.237 -16.984,7.605 -26.402,8.549 -0.683,0.068 -1.377,0.177 -1.841,0.71 -0.784,0.902 -1.308,1.962 -1.447,3.16 -0.036,0.305 0.13,0.662 0.284,0.953 0.236,0.446 0.52,0.871 0.823,1.276 3.668,4.918 6.407,10.342 8.785,15.971 1.846,4.37 3.407,8.838 4.833,13.358 0.458,1.451 0.881,2.914 1.338,4.366 0.188,0.597 1.059,1.089 1.609,0.919 0.807,-0.249 1.613,-0.503 2.405,-0.794 10.35,-3.802 20.257,-8.551 29.817,-14.031 0.583,-0.334 1.194,-0.678 1.648,-1.155 0.305,-0.319 0.564,-0.925 0.481,-1.328 -0.307,-1.487 -0.736,-2.95 -1.17,-4.408 -2.665,-8.933 -5.97,-17.621 -10.04,-26.013 -1.109,-2.013 -1.833,-3.35 -2.588,-4.67 -0.293,-0.512 -1.185,-0.691 -1.792,-0.393 -0.606,0.297 -1.202,0.617 -1.8,0.932 m -50.806,142.41 c -0.01,0.673 -0.06,1.374 0.109,2.009 0.108,0.407 0.522,0.906 0.906,1.028 0.62,0.197 1.336,0.202 1.999,0.141 4.877,-0.452 9.758,-0.879 14.622,-1.441 2.681,-0.31 5.332,-0.866 7.997,-1.311 2.187,-0.387 3.52,-0.609 4.843,-0.877 6.413,-1.299 5.347,-0.527 6.072,-6.568 0.262,-2.177 0.399,-4.381 0.411,-6.574 0.041,-7.434 0.021,-14.869 -0.027,-22.303 -0.009,-1.337 -0.262,-2.673 -0.405,-4.01 -0.033,-0.311 -0.816,-0.994 -1.074,-0.947 -0.997,0.179 -2.012,0.294 -2.983,0.566 -7.662,2.154 -15.476,3.519 -23.366,4.458 -2.345,0.279 -4.718,0.324 -7.078,0.478 -0.843,0.055 -1.687,0.097 -2.527,0.178 -0.835,0.08 -1.451,0.864 -1.379,1.796 0.156,2.021 0.301,4.046 0.534,6.059 1.051,9.077 1.475,18.183 1.346,27.318 m -4.924,-81.239 c -0.364,0.385 -0.678,0.585 -0.801,0.867 -1.615,3.728 -3.218,7.461 -4.786,11.21 -0.341,0.815 -0.116,1.644 0.189,2.464 1.003,2.697 1.964,5.409 2.942,8.116 1.741,5.983 3.106,11.226 3.953,16.591 0.131,0.824 0.461,1.619 0.72,2.421 0.18,0.554 0.686,0.756 1.173,0.817 0.667,0.083 1.356,0.079 2.029,0.022 7.938,-0.67 15.848,-1.567 23.622,-3.366 3.628,-0.84 7.221,-1.827 10.825,-2.764 0.597,-0.155 1.109,-0.884 1.101,-1.54 -0.015,-1.184 -10e-4,-2.374 -0.119,-3.549 -1.103,-10.967 -2.824,-21.835 -5.278,-32.583 -0.112,-0.491 -0.331,-0.958 -0.503,-1.435 -0.245,-0.679 -0.929,-1.107 -1.563,-0.957 -1.318,0.31 -2.638,0.613 -3.948,0.955 -8.42,2.199 -16.97,3.16 -25.671,2.74 -1.338,-0.064 -2.682,-0.009 -3.885,-0.009 m -18.927,-37.879 c 0.341,0.577 1.388,0.539 1.693,-0.054 0.464,-0.902 0.908,-1.814 1.35,-2.726 2.063,-4.258 4.085,-8.536 6.191,-12.772 3.234,-6.507 6.529,-12.983 9.786,-19.478 0.377,-0.753 0.684,-1.54 1.014,-2.316 0.138,-0.326 -0.436,-1.018 -0.838,-1.033 -0.336,-0.012 -0.673,-0.069 -1.007,-0.049 -1.181,0.07 -2.363,0.137 -3.541,0.254 -8.577,0.851 -17.15,1.735 -25.73,2.557 -2.354,0.226 -4.726,0.267 -7.089,0.409 -2.283,0.137 -2.532,0.701 -1.27,2.845 0.342,0.583 0.704,1.154 1.057,1.731 2.464,4.04 4.938,8.074 7.391,12.122 1.751,2.891 3.474,5.8 5.209,8.701 2.189,3.69 3.98,6.753 5.784,9.809 m 17.023,78.723 c -1.237,-7.128 -2.725,-14.195 -5.296,-20.985 -0.085,-0.223 -0.541,-0.437 -0.81,-0.421 -0.255,0.015 -0.61,0.286 -0.717,0.533 -0.537,1.232 -1.007,2.494 -1.5,3.745 -2.129,5.569 -3.948,10.452 -5.75,15.343 -0.231,0.628 -0.373,1.291 -0.546,1.94 -0.099,0.374 0.361,1.043 0.769,1.153 0.321,0.086 0.638,0.261 0.959,0.267 3.865,0.075 7.73,0.142 11.596,0.171 0.892,0.007 1.463,-0.781 1.295,-1.746 m -1.509,5.091 c -3.216,-0.108 -6.399,-0.441 -9.564,-1.027 -1.157,-0.214 -2.347,-0.258 -3.524,-0.358 -0.66,-0.055 -1.338,0.358 -1.578,1.009 -0.701,1.899 -1.369,3.81 -2.05,5.716 -4.654,14.171 -7.734,25.646 -8.49,31.613 0.403,0.22 0.81,0.582 1.269,0.669 1.492,0.283 2.997,0.577 4.508,0.666 6.578,0.386 13.158,0.815 19.754,0.636 1.01,-0.028 2.029,-0.087 3.021,-0.26 0.458,-0.079 0.945,-0.399 1.026,-0.98 0.094,-0.665 0.202,-1.333 0.218,-2.002 0.259,-11.171 -0.399,-22.29 -1.933,-33.358 -0.252,-1.821 -0.699,-2.258 -2.657,-2.324 m 160.17,-38.539 c 0.282,-10.16 0.464,-20.314 -0.737,-30.438 -0.489,-5.468 -0.927,-10.014 -2.012,-14.467 -0.116,-0.473 -0.878,-0.725 -1.183,-0.415 -0.118,0.121 -0.267,0.213 -0.376,0.34 -0.331,0.385 -0.659,0.773 -0.969,1.174 -7.779,10.079 -16.383,19.396 -25.807,27.958 -0.5,0.455 -0.973,0.94 -1.467,1.403 -0.532,0.499 -0.711,1.141 -0.704,1.831 0.006,0.675 0.062,1.352 0.135,2.024 1.085,10.11 1.684,20.246 1.479,30.416 -0.068,3.384 -0.328,6.763 -0.474,10.145 -0.036,0.839 -0.015,1.688 0.086,2.52 0.019,0.166 0.559,0.433 0.788,0.375 0.476,-0.12 0.951,-0.366 1.344,-0.668 10.252,-7.861 19.526,-16.739 27.823,-26.648 1.386,-1.656 2.015,-3.425 2.074,-5.55 m 17.998,-13.017 c 0.415,-1.789 1.059,-3.568 0.741,-5.462 -0.019,-0.115 -0.17,-0.247 -0.29,-0.296 -0.15,-0.062 -0.368,-0.115 -0.493,-0.05 -0.271,0.142 -0.57,0.314 -0.733,0.557 -0.375,0.558 -0.7,1.154 -1.001,1.757 -3.108,6.213 -6.684,12.145 -10.822,17.722 -1.364,1.839 -2.039,3.773 -2.191,6.058 -0.394,5.91 -1.402,11.74 -2.67,17.525 -0.361,1.646 -0.673,3.305 -0.95,4.968 -0.039,0.235 0.195,0.659 0.41,0.755 0.247,0.11 0.752,0.068 0.902,-0.111 0.539,-0.642 1.051,-1.329 1.437,-2.07 1.559,-2.998 3.068,-6.021 4.595,-9.035 4.972,-10.873 8.54,-21.421 11.065,-32.318 m 138.77,-12.092 c -0.445,-0.491 -0.962,-0.959 -1.537,-1.281 -2.658,-1.492 -5.34,-2.943 -8.025,-4.386 -1.938,-1.041 -3.882,-2.074 -5.849,-3.061 -1.053,-0.528 -2.159,-0.951 -3.294,-1.446 -1.243,0.633 -2.462,1.202 -3.632,1.86 -4.228,2.378 -8.819,3.394 -13.603,3.739 -3.713,0.267 -7.427,0.528 -11.134,0.864 -8.576,0.776 -15.948,4.266 -22.264,10.05 -1.373,1.258 -2.624,2.649 -3.971,3.936 -4.802,4.588 -10.015,8.633 -16.018,11.533 -5.347,2.582 -10.912,4.618 -16.684,6.046 -4.273,1.056 -8.561,2.055 -12.833,3.111 -1.478,0.366 -2.951,0.773 -4.39,1.267 -0.965,0.332 -1.776,0.949 -2.381,1.821 -0.578,0.831 -0.314,2.226 0.549,2.644 1.718,0.833 3.503,1.22 5.419,0.906 3.841,-0.631 7.662,-1.33 11.448,-2.264 8.249,-2.037 16.152,-5.047 23.991,-8.255 1.097,-0.449 2.182,-0.928 3.291,-1.347 6.534,-2.469 12.586,-5.841 18.329,-9.788 3.08,-2.118 6.354,-3.883 9.726,-5.483 5.795,-2.75 11.86,-3.906 18.266,-3.22 3.703,0.396 7.418,0.692 11.125,1.057 3.087,0.303 6.17,-0.095 9.049,-0.977 4.025,-1.234 8.148,-2.345 11.825,-4.538 1.285,-0.829 1.982,-1.309 2.586,-1.886 0.16,-0.154 0.167,-0.731 0.011,-0.902 m 39.812,82.024 c 0.643,0.416 1.752,0.157 2.356,-0.408 0.669,-0.625 0.786,-2.059 0.183,-2.799 -0.534,-0.653 -1.087,-1.298 -1.694,-1.884 -4.907,-4.737 -8.924,-10.176 -12.51,-15.943 -8.297,-13.343 -14.282,-27.644 -17.486,-43.047 -0.686,-3.301 -0.892,-6.701 -1.329,-10.054 -0.109,-0.832 -0.208,-1.671 -0.409,-2.482 -0.064,-0.256 -0.424,-0.468 -0.689,-0.638 -0.322,-0.206 -1.149,0.056 -1.327,0.421 -0.293,0.599 -0.713,1.2 -0.785,1.833 -0.268,2.35 -0.417,4.714 -0.61,7.072 0.437,9.273 2.651,17.24 5.589,25.037 3.839,10.189 8.883,19.745 15.176,28.634 3.04,4.294 6.394,8.33 10.262,11.905 0.981,0.906 2.145,1.624 3.273,2.353 m -2.714,12.377 c -7.061,-3.356 -12.429,-8.714 -17.336,-14.621 -11.441,-14.68 -18.882,-30.49 -23.17,-47.828 -1.517,-6.131 -2.2,-12.323 -1.863,-18.631 0.054,-1.008 0.012,-2.022 0.016,-3.033 0.001,-0.396 -0.66,-0.917 -1.054,-0.852 -0.165,0.027 -0.348,0 -0.498,0.058 -3.804,1.481 -7.816,2.168 -11.764,3.102 -0.449,0.107 -0.735,0.829 -0.489,1.189 0.096,0.14 0.177,0.291 0.285,0.421 5.988,7.211 9.335,15.669 11.447,24.66 1.71,7.282 2.475,14.68 2.199,22.181 -0.206,5.627 -1.276,11.062 -2.899,16.449 -3.23,10.726 -8.651,20.19 -15.965,28.608 -6.97,8.022 -15.265,14.392 -24.599,19.415 -10.377,5.585 -21.43,9.174 -33.014,11.3 -11.413,2.095 -22.904,2.427 -34.421,1.696 -8.109,-0.515 -16.171,-1.632 -24.117,-3.439 -1.97,-0.448 -3.97,-0.772 -5.965,-1.096 -0.228,-0.036 -0.674,0.255 -0.736,0.473 -0.074,0.262 0.083,0.672 0.275,0.904 0.203,0.245 0.552,0.392 0.863,0.518 0.783,0.316 1.574,0.62 2.375,0.888 8.862,2.953 17.935,4.95 27.198,6.156 8.244,1.074 16.517,1.648 24.826,1.601 7.626,-0.042 15.221,-0.583 22.807,-1.427 8.596,-0.957 17.098,-2.405 25.521,-4.333 20.75,-4.749 40.593,-11.911 59.116,-22.503 3.082,-1.762 6.079,-3.697 8.989,-5.732 5.074,-3.549 9.021,-8.165 12.166,-13.479 0.172,-0.289 0.277,-0.617 0.425,-0.921 0.262,-0.541 -0.013,-1.437 -0.618,-1.724 m -334.606,137.941 c -4.263,6.127 -8.104,12.508 -11.067,19.378 -1.004,2.329 -1.888,4.712 -2.761,7.094 -2.065,5.634 -2.561,11.544 -2.958,17.462 -0.174,2.597 0.521,5.02 1.671,7.342 1.451,2.93 3.423,5.435 5.926,7.528 3.144,2.629 6.643,4.668 10.422,6.235 6.459,2.679 13.224,4.136 20.126,5.079 10.962,1.499 21.971,1.35 32.971,0.818 5.065,-0.245 10.105,-1.001 15.157,-1.525 6.642,-0.647 12.308,-1.682 17.967,-2.72 7.157,-1.313 14.275,-2.838 21.318,-4.689 2.29,-0.602 4.583,-1.208 6.84,-1.923 20.941,-6.633 34.481,-20.67 41.328,-41.382 10.367,-34.869 -9.238,-70.034 -41.442,-81.095 -9.785,-3.362 -19.831,-4.463 -30.038,-2.578 -6.834,1.262 -13.462,3.344 -19.762,6.37 -6.892,3.312 -13.384,7.294 -19.567,11.766 -18.002,13.02 -33.434,28.592 -46.131,46.84 m 120.642,217.144 c 0.574,11.706 2.306,23.25 5.958,34.433 1.049,3.214 2.305,6.364 3.572,9.501 1.821,4.509 4.877,8.123 8.633,11.119 5.083,4.055 10.913,5.216 17.235,3.973 4.5,-0.885 8.835,-2.305 13.021,-4.193 5.73,-2.586 11.141,-5.721 16.316,-9.279 10.512,-7.225 20.025,-15.62 28.882,-24.768 3.062,-3.162 5.98,-6.465 8.963,-9.704 7.96,-9.098 14.766,-18.167 21.042,-27.64 2.341,-3.532 4.452,-7.188 6.428,-10.94 4.944,-9.386 6.97,-19.365 6.442,-29.913 -0.676,-13.485 -5.453,-25.415 -13.896,-35.852 -10.924,-13.506 -25.155,-21.454 -42.261,-24.02 -9.285,-1.393 -18.574,-0.884 -27.681,1.746 -8.264,2.387 -15.537,6.489 -22.195,11.933 -7.276,5.948 -12.221,13.518 -16.25,21.812 -4.086,8.414 -6.956,17.266 -9.146,26.336 -2.108,8.733 -3.481,17.587 -4.399,26.532 -0.99,9.635 -1.138,19.279 -0.664,28.924 m 147.308,-71.642 c 0.413,1.11 0.847,2.217 1.349,3.288 1.495,3.182 4.58,4.516 8.046,3.436 1.451,-0.452 2.845,-1.085 4.273,-1.616 1.741,-0.648 3.462,-1.376 5.244,-1.888 2.765,-0.795 5.562,-1.484 8.366,-2.133 5.837,-1.349 11.733,-1.574 17.674,-0.815 2.856,0.365 5.729,0.603 8.577,1.018 4.56,0.663 8.807,2.406 13.067,4.049 2.207,0.852 4.321,1.944 6.48,2.919 2.776,1.252 5.543,2.523 8.335,3.735 4.018,1.744 7.936,1.222 11.749,-0.668 1.095,-0.542 1.907,-1.443 2.37,-2.564 0.449,-1.088 0.75,-2.239 1.176,-3.544 -9.846,-26.202 -19.668,-52.515 -30.038,-78.62 -3.629,-9.229 -6.959,-17.732 -10.325,-26.222 -3.617,-9.122 -7.277,-18.228 -10.899,-27.348 -0.999,-2.516 -1.909,-5.067 -2.9,-7.586 -0.433,-1.1 -0.81,-2.271 -1.48,-3.22 -4.275,-6.057 -9.309,-11.227 -16.697,-13.396 -2.76,-0.81 -5.54,-1.664 -8.372,-2.083 -2.314,-0.342 -4.743,-0.275 -7.079,-0.011 -2.85,0.323 -5.683,0.923 -8.363,2.058 -0.778,0.329 -1.583,0.608 -2.394,0.85 -5.603,1.667 -9.736,5.329 -13.279,9.782 -1.51,1.898 -2.323,4.075 -2.675,6.488 -0.851,5.85 0.71,11.06 3.992,15.846 2.645,3.856 6.178,6.729 10.268,8.895 3.643,1.93 7.655,2.644 11.707,3.095 1.345,0.149 2.709,0.116 4.059,0.228 2.058,0.17 4.037,-0.162 6.023,-0.679 3.926,-1.024 7.874,-1.966 11.817,-2.926 0.49,-0.119 1.003,-0.16 1.508,-0.201 3.033,-0.247 4.52,0.533 5.463,3.304 1.582,4.646 3.324,9.236 4.949,13.868 1.681,4.788 3.272,9.607 4.958,14.393 1.124,3.191 2.357,6.342 3.518,9.519 2.32,6.354 4.62,12.715 6.936,19.07 1.507,4.134 3.047,8.256 4.525,12.4 0.22,0.614 0.241,1.323 0.223,1.985 -0.006,0.228 -0.382,0.585 -0.639,0.638 -0.479,0.098 -1.017,0.109 -1.492,-0.004 -3.974,-0.947 -8.009,-1.229 -12.082,-1.454 -3.381,-0.187 -6.754,-0.473 -10.144,-0.449 -4.232,0.03 -8.471,-0.15 -12.673,0.567 -0.664,0.114 -1.351,0.09 -2.028,0.125 -4.734,0.244 -9.477,0.356 -14.184,1.014 -0.996,0.139 -2.032,0.136 -3.033,0.032 -0.425,-0.045 -0.929,-0.438 -1.177,-0.817 -0.363,-0.554 -0.552,-1.229 -0.773,-1.868 -3.809,-11.035 -7.567,-22.089 -11.429,-33.107 -3.974,-11.339 -8.005,-22.658 -12.09,-33.958 -3.911,-10.821 -7.843,-21.636 -11.92,-32.395 -2.525,-6.667 -5.676,-13.017 -10.478,-18.434 -1.594,-1.798 -3.277,-3.426 -5.342,-4.633 -1.604,-0.938 -3.221,-1.873 -4.901,-2.66 -3.248,-1.52 -6.614,-2.336 -10.288,-2.324 -5.691,0.019 -11.064,1.099 -16.297,3.297 -3.351,1.407 -6.155,3.451 -8.71,5.988 -3.672,3.647 -5.49,7.972 -5.677,13.148 -0.101,2.783 0.137,5.393 1.405,7.882 0.229,0.451 0.377,0.944 0.563,1.417 2.539,6.451 7.228,10.938 13.125,14.298 1.321,0.754 2.737,1.341 4.096,2.031 2.45,1.243 5.025,1.942 7.783,2.101 2.701,0.155 5.389,0.544 8.089,0.73 3.387,0.233 6.773,0.262 10.104,-0.595 0.654,-0.169 1.33,-0.278 2.002,-0.35 4.73,-0.505 4.39,-1.133 6.121,3.728 3.066,8.609 6.041,17.251 9.097,25.864 2.151,6.063 4.394,12.094 6.558,18.152 3.701,10.358 7.346,20.735 11.066,31.086 3.375,9.393 6.819,18.761 10.234,28.14 0.984,2.703 1.959,5.409 2.963,8.104 m 53.424,89.132 c 0.117,2.538 0.296,5.074 0.398,7.613 0.273,6.787 1.224,13.5 2.424,20.166 3.712,20.611 10.076,40.387 19.017,59.329 4.709,9.977 10.086,19.573 16.455,28.592 4.704,6.661 9.913,12.895 15.946,18.406 4.401,4.02 9.172,7.512 14.635,9.984 2.904,1.289 5.23,1.755 7.56,2.197 1.354,0.257 2.668,0.138 4.008,-0.26 2.796,-0.831 5.328,-2.154 7.716,-3.794 4.225,-2.901 7.794,-6.515 11.157,-10.34 4.713,-5.36 8.731,-11.229 12.455,-17.305 8.178,-13.341 14.57,-27.525 19.855,-42.226 4.648,-12.931 8.341,-26.129 10.841,-39.645 1.914,-10.345 3.114,-20.768 3.073,-31.309 -0.002,-0.678 -0.023,-1.357 0.007,-2.033 0.459,-10.404 -2.073,-20.157 -6.573,-29.436 -6.729,-13.877 -17.131,-24.254 -30.637,-31.556 -7.206,-3.896 -14.881,-6.502 -22.975,-7.837 -24.4,-4.022 -49.728,3.733 -66.744,21.97 -9.746,10.444 -15.619,22.838 -18.19,36.843 -0.647,3.526 -0.591,7.082 -0.428,10.641 m 164.411,-84.385 c 4.545,-3.253 9.067,-6.55 13.432,-10.038 5.61,-4.484 10.16,-9.961 13.804,-16.134 2.345,-3.972 3.673,-8.329 4.214,-12.945 0.513,-4.39 0.806,-8.755 0.287,-13.17 -0.438,-3.728 -1.34,-7.343 -2.577,-10.849 -1.979,-5.608 -4.827,-10.783 -8.037,-15.805 -3.539,-5.539 -8.328,-9.763 -13.348,-13.809 -1.739,-1.402 -3.748,-2.261 -5.92,-2.81 -1.747,-0.441 -3.358,-0.152 -4.943,0.55 -1.72,0.763 -2.583,3.161 -1.675,4.729 0.421,0.728 0.906,1.432 1.448,2.073 1.204,1.422 2.424,2.833 3.704,4.186 5.375,5.682 8.796,12.405 10.495,19.988 1.727,7.708 1.901,15.462 -0.083,23.159 -1.549,6.011 -4.239,11.419 -8.925,15.668 -0.251,0.227 -0.466,0.496 -0.731,0.706 -4.463,3.531 -11.539,7.952 -17.927,9.148 -0.495,0.093 -1.01,0.077 -1.516,0.108 -0.706,0.043 -1.364,-0.503 -1.37,-1.174 -0.006,-0.671 -0.042,-1.353 0.059,-2.011 0.822,-5.357 1.677,-10.709 2.514,-16.063 0.549,-3.514 1.063,-7.033 1.631,-10.543 0.919,-5.676 1.904,-11.341 2.796,-17.02 1.129,-7.189 2.199,-14.388 3.281,-21.584 0.678,-4.518 1.323,-9.041 2.002,-13.559 0.125,-0.833 0.274,-1.674 0.523,-2.477 2.418,-7.783 2.238,-15.708 1.311,-23.671 -0.215,-1.85 -0.601,-3.681 -0.803,-5.532 -0.456,-4.191 -2.347,-7.725 -4.867,-10.994 -1.875,-2.433 -4.109,-4.508 -6.495,-6.41 -2.541,-2.026 -5.361,-3.516 -8.595,-4.182 -1.818,-0.374 -3.585,-0.919 -5.448,-1.177 -5.26,-0.726 -10.088,0.456 -14.691,2.894 -2.922,1.549 -5.177,3.762 -6.72,6.717 -1.498,2.868 -2.714,5.822 -3.357,9.011 -0.444,2.202 -0.426,4.365 0.1,6.543 1.089,4.507 3.098,8.598 5.732,12.373 0.761,1.09 1.891,1.922 2.851,2.872 4.386,3.626 8.826,5.74 13.292,7.782 1.211,0.554 2.582,0.793 3.901,1.069 2.652,0.554 5.323,1.016 7.977,1.557 0.933,0.19 1.457,0.934 1.322,1.849 -0.496,3.35 -0.927,6.714 -1.568,10.037 -1.155,5.985 -2.073,12.004 -2.956,18.033 -0.515,3.515 -1.055,7.038 -1.839,10.499 -1.161,5.126 -1.219,10.433 -2.695,15.497 -0.5,6.426 -2.045,12.693 -2.931,19.062 -0.816,5.866 -1.839,11.704 -2.791,17.551 -1.116,6.849 -2.267,13.692 -3.378,20.541 -0.463,2.857 -0.484,5.739 -0.212,8.613 0.262,2.783 2.24,5.042 4.965,5.808 1.017,0.286 2.065,0.209 2.988,-0.216 1.065,-0.49 2.099,-1.108 3.023,-1.829 1.474,-1.149 2.643,-2.6 3.762,-4.108 3.875,-5.225 8.749,-9.41 14.039,-13.119 3.604,-2.528 7.366,-4.832 10.945,-7.394 M -323,243.255 c 9.745,13.491 20.392,26.208 32.518,37.632 3.818,3.598 7.887,6.931 11.854,10.369 0.504,0.437 1.074,0.848 1.968,0.272 0,-1.186 0.024,-2.529 -0.005,-3.871 -0.064,-2.915 0.467,-5.75 1.317,-8.504 1.536,-4.983 4.232,-9.206 8.54,-12.296 0.665,-0.477 1.238,-1.086 1.825,-1.663 0.084,-0.082 0.078,-0.421 -0.004,-0.481 -0.669,-0.491 -1.328,-1.02 -2.062,-1.396 -7.571,-3.871 -14.61,-8.567 -21.267,-13.83 -3.454,-2.73 -6.845,-5.551 -10.129,-8.483 -10.518,-9.391 -19.971,-19.791 -28.745,-30.811 -12.913,-16.216 -24.253,-33.45 -33.516,-52.02 -2.724,-5.461 -5.177,-11.038 -7.387,-16.723 -0.429,-1.105 -0.862,-2.207 -1.31,-3.304 -0.176,-0.434 -0.879,-0.766 -1.254,-0.576 -1.197,0.607 -2.396,1.212 -3.554,1.89 -0.228,0.133 -0.41,0.603 -0.371,0.885 0.112,0.827 0.253,1.672 0.547,2.447 2.396,6.335 4.778,12.676 7.267,18.975 1.866,4.724 3.884,9.387 5.835,14.078 10.612,24.206 22.891,46.585 37.933,67.41 m 12.297,114.977 c 4.147,9.225 9.889,17.328 16.906,24.571 1.766,1.824 3.493,3.69 5.162,5.602 4.8,5.499 10.039,10.558 15.484,15.404 7.344,6.536 14.901,12.812 22.958,18.465 7.225,5.069 14.731,9.655 22.809,13.254 5.124,2.283 10.403,4.107 15.954,4.995 4.376,0.701 8.753,0.788 13.106,-0.37 5.877,-1.563 10.301,-4.958 13.339,-10.204 1.892,-3.267 3.194,-6.795 3.652,-10.498 1.016,-8.23 2.384,-16.418 2.536,-24.755 0.488,-26.861 -3.431,-53.002 -12.402,-78.352 -3.176,-8.973 -7.17,-17.556 -12.48,-25.484 -3.329,-4.97 -7.277,-9.355 -12.33,-12.651 -0.565,-0.369 -1.137,-0.744 -1.747,-1.027 -0.609,-0.282 -1.243,-0.457 -1.935,-0.097 -1.788,0.932 -3.599,1.818 -5.494,2.769 -0.131,1.057 -0.243,2.053 -0.379,3.047 -0.914,6.675 -4.733,10.428 -11.592,11.418 -0.48,0.07 -0.944,0.251 -1.282,0.343 -0.222,0.249 -0.389,0.357 -0.437,0.503 -0.623,1.927 -1.229,3.86 -1.838,5.787 1.004,1.069 2.392,1.267 3.625,1.769 4.438,1.803 8.481,4.223 11.948,7.559 17.207,16.556 14.023,44.448 -6.042,56.912 -6.356,3.949 -13.312,5.969 -20.797,5.491 -20.391,-1.301 -31.892,-16.727 -34.188,-29.704 -1.784,-10.086 0.428,-19.148 6.194,-27.458 1.849,-2.665 4.126,-4.934 6.762,-6.834 1.094,-0.788 2.198,-1.562 3.285,-2.334 -0.275,-1.727 -1.505,-2.686 -2.561,-3.73 -0.595,-0.588 -1.351,-1.015 -2.046,-1.498 -4.453,-3.102 -8.753,-6.407 -12.811,-10.006 -1.667,-1.479 -3.51,-2.61 -5.454,-3.631 -1.5,0.106 -2.325,0.347 -3.03,0.782 -4.838,2.985 -8.7,6.987 -11.897,11.647 -4.893,7.133 -7.692,15.069 -8.607,23.626 -1.29,12.053 0.653,23.618 5.629,34.689 m 1.455,-286.639 c 9.358,2.353 18.791,4.257 28.367,5.571 16.682,2.29 33.419,2.597 50.17,1.571 13.366,-0.819 26.566,-2.948 39.421,-6.871 4.698,-1.433 9.296,-3.134 13.767,-5.175 4.33,-1.976 8.374,-4.431 12.238,-7.191 1.759,-1.256 2.67,-2.324 3.958,-4.468 -0.152,-0.296 -0.272,-0.616 -0.461,-0.889 -3.504,-5.06 -4.808,-10.774 -4.861,-16.811 -0.043,-4.861 -0.03,-5.262 -4.43,-2.641 -10.669,6.358 -22.116,10.957 -33.909,14.744 -12.757,4.096 -25.782,7.075 -39.042,8.916 -10.062,1.398 -20.187,2.344 -30.367,2.099 -10.692,-0.256 -21.28,-1.322 -31.517,-4.703 -0.628,-0.207 -1.307,-0.317 -1.968,-0.339 -0.257,-0.009 -0.634,0.295 -0.766,0.554 -0.223,0.439 -0.344,0.948 -0.422,1.441 -0.315,2.004 -0.597,4.013 -0.892,6.02 -0.51,2.331 -0.844,3.816 -1.179,5.301 -0.39,1.732 0.031,2.403 1.893,2.871 m -9.414,18.018 c 0.591,0.321 1.181,0.646 1.788,0.932 5.976,2.818 12.115,5.235 18.356,7.39 12.981,4.482 26.249,7.889 39.774,10.229 6.164,1.067 12.379,1.846 18.611,2.511 10.808,1.153 21.622,1.258 32.463,0.917 6.284,-0.197 12.459,-1.199 18.625,-2.314 4.074,-1.15 7.327,-2.076 10.556,-3.082 2.954,-0.921 5.514,-2.514 7.735,-4.683 0.71,-0.693 0.804,-1.396 0.545,-2.271 -0.384,-1.295 -0.777,-2.589 -1.09,-3.902 -0.978,-4.099 -0.322,-8.064 1.057,-11.962 0.572,-1.616 1.408,-3.072 2.553,-4.351 0.557,-0.622 1.098,-1.259 1.662,-1.907 -0.366,-1.574 -0.77,-3.03 -1.031,-4.511 -0.234,-1.327 -0.304,-2.682 -0.458,-4.023 -0.048,-0.418 -0.789,-0.787 -1.188,-0.608 -0.46,0.207 -0.936,0.385 -1.374,0.631 -8.632,4.84 -17.901,8.001 -27.463,10.362 -8.059,1.99 -16.23,3.316 -24.484,4.262 -14.018,1.607 -28.058,1.696 -42.087,0.634 -13.702,-1.036 -27.195,-3.411 -40.268,-7.81 -2.244,-0.755 -4.46,-1.589 -6.693,-2.376 -0.608,-0.214 -1.422,0.139 -1.687,0.738 -0.341,0.77 -0.622,1.568 -0.973,2.334 -1.761,3.844 -3.537,7.681 -5.305,11.521 -0.197,0.427 -0.003,1.134 0.376,1.339 m -4.775,9.59 c 2.433,1.536 4.878,3.06 7.382,4.475 11.54,6.524 23.747,11.525 36.326,15.621 12.902,4.202 26.084,7.302 39.513,9.216 11.071,1.577 22.204,2.564 33.417,2.216 7.973,-0.247 15.876,-1.019 23.661,-2.823 1.797,-0.416 3.608,-0.767 5.265,-1.117 0.453,-0.866 0.148,-1.5 10e-4,-2.148 -0.799,-3.502 -1.101,-7.016 -0.348,-10.578 0.171,-0.811 0.172,-1.668 0.151,-2.502 -0.005,-0.214 -0.389,-0.583 -0.611,-0.593 -0.489,-0.021 -1,0.093 -1.476,0.236 -8.468,2.549 -17.127,3.91 -25.938,4.637 -7.109,0.586 -14.208,0.8 -21.318,0.54 -6.428,-0.236 -12.84,-0.754 -19.239,-1.494 -9.431,-1.09 -18.75,-2.759 -27.988,-4.915 -12.378,-2.965 -23.638,-6.597 -34.327,-11.838 -3.339,-1.637 -6.558,-3.523 -9.805,-5.344 -1.944,-1.09 -2.327,-1.047 -3.633,0.936 -0.833,1.264 -1.595,2.575 -2.46,3.98 0.519,0.555 0.89,1.156 1.427,1.495 m -17.413,18.797 c 23.508,20.77 49.262,38.111 77.965,50.92 11.618,5.185 23.541,9.494 36.008,12.193 4.979,1.077 9.995,1.805 15.092,1.924 0.876,0.021 1.584,-0.495 1.914,-1.376 0.297,-0.791 0.532,-1.607 0.855,-2.387 1.524,-3.682 3.683,-6.849 7.239,-8.889 0.42,-0.241 0.741,-0.655 1.053,-0.938 0,-0.604 0.098,-1.129 -0.015,-1.604 -2.431,-10.226 0.093,-19.437 5.722,-28.007 0.834,-1.269 1.805,-2.449 2.654,-3.709 0.143,-0.211 -0.01,-0.62 -0.033,-1.064 -4.207,0.282 -8.409,0.663 -12.62,0.818 -4.061,0.15 -8.13,0.068 -12.195,0.088 -10.331,-0.236 -19.563,-1.383 -28.773,-2.837 -11.9,-1.879 -23.561,-4.718 -35.007,-8.445 -9.191,-2.993 -18.119,-6.631 -26.661,-11.183 -5.697,-3.035 -11.105,-6.499 -16.081,-10.622 -0.651,-0.54 -1.319,-1.061 -1.99,-1.575 -0.615,-0.472 -1.372,-0.451 -1.829,0.021 -0.117,0.122 -0.255,0.225 -0.36,0.356 -3.931,4.894 -8.223,9.455 -12.709,13.84 -0.354,0.346 -0.605,0.798 -0.978,1.301 0.248,0.4 0.416,0.881 0.749,1.175 m -13.768,12.804 c -0.322,-0.586 -0.688,-1.163 -1.124,-1.665 -0.182,-0.209 -0.64,-0.347 -0.906,-0.275 -0.476,0.129 -0.922,0.411 -1.344,0.685 -2.558,1.656 -5.106,3.328 -7.657,4.994 -1.496,0.977 -1.664,1.45 -0.919,2.844 9.743,18.219 19.81,36.242 31.689,53.191 11.11,15.853 23.409,30.686 37.545,43.95 7.422,6.964 15.252,13.422 23.827,18.936 3.274,2.106 6.571,4.176 10.145,5.755 0.655,0.289 1.442,-0.133 1.522,-0.808 0.019,-0.167 0.05,-0.335 0.055,-0.503 0.254,-8.337 3.558,-15.392 9.051,-21.526 0.113,-0.126 0.232,-0.247 0.348,-0.37 2.206,-2.181 4.085,-3.611 6.053,-4.948 1.809,-1.23 4.047,-1.683 5.884,-3.222 -0.753,-0.398 -1.316,-0.795 -1.942,-1.011 -13.875,-4.775 -26.542,-11.897 -38.654,-20.047 -18.493,-12.442 -35.153,-27.029 -50.116,-43.533 -9.011,-9.939 -16.977,-20.663 -23.457,-32.447 m 1.71,-3.179 c 0.271,0.428 0.531,0.864 0.829,1.273 16.722,22.967 35.721,43.786 58.034,61.474 10.498,8.322 21.518,15.867 33.318,22.24 6.11,3.299 12.366,6.287 18.885,8.697 0.791,0.293 1.602,0.536 2.407,0.789 0.402,0.127 1.102,-0.289 1.187,-0.698 0.344,-1.655 0.627,-3.324 1.032,-4.963 1.912,-7.722 5.662,-14.455 11.067,-20.269 2.436,-2.62 5.198,-4.833 8.379,-6.514 0.705,-0.372 1.639,-0.525 1.957,-1.666 -1.564,-0.637 -3.249,-0.702 -4.859,-0.907 -8.598,-1.095 -16.911,-3.335 -25.13,-6.007 -9.995,-3.25 -19.632,-7.366 -29.105,-11.89 -15.915,-7.815 -30.416,-16.495 -43.938,-26.763 -8.644,-6.564 -16.845,-13.625 -23.832,-21.994 -0.316,-0.379 -0.742,-0.67 -1.136,-0.978 -0.126,-0.098 -0.315,-0.116 -0.661,-0.235 -2.788,1.994 -5.432,4.35 -8.191,6.558 -0.486,0.388 -0.581,1.318 -0.243,1.853 M -157.175,10.44 c -1.024,-2.498 -2.078,-4.984 -3.142,-7.465 -0.046,-0.107 -0.272,-0.156 -0.423,-0.195 -0.159,-0.041 -0.36,-0.103 -0.49,-0.043 -0.457,0.212 -0.921,0.431 -1.329,0.721 -10.133,7.203 -21.182,12.713 -32.615,17.469 -16.296,6.779 -33.144,11.776 -50.415,15.408 -10.285,2.164 -20.65,3.84 -31.11,4.679 -9.788,0.785 -19.62,1.038 -29.402,-0.433 -0.829,-0.125 -1.688,-0.128 -2.526,-0.074 -0.26,0.016 -0.523,0.385 -0.733,0.636 -0.089,0.107 -0.07,0.328 -0.057,0.494 0.224,2.868 0.432,5.737 0.699,8.6 0.085,0.916 0.698,1.577 1.558,1.811 1.631,0.445 3.278,0.876 4.947,1.126 3.848,0.577 7.68,1.235 11.578,1.515 7.101,0.509 14.197,0.921 21.314,0.541 11.335,-0.605 22.627,-1.62 33.797,-3.728 9.346,-1.755 17.762,-3.649 26.041,-6.118 11.544,-3.444 22.779,-7.669 33.393,-13.41 3.271,-1.77 6.392,-3.818 9.578,-5.745 0.897,-0.542 1.545,-1.295 1.899,-2.298 0.225,-0.638 0.49,-1.262 0.744,-1.89 1.406,-3.484 3.202,-6.72 5.902,-9.395 0.352,-0.35 0.607,-0.797 0.867,-1.146 -0.024,-0.414 0.042,-0.775 -0.075,-1.06 m -20.235,198.824 c 0.489,-2.343 0.384,-4.719 0.31,-7.091 -0.037,-1.182 -0.099,-2.364 -0.083,-3.546 0.011,-0.715 0.388,-1.285 1.045,-1.608 0.911,-0.448 1.861,-0.822 2.753,-1.305 5.688,-3.082 8.782,-7.787 8.87,-14.334 0.011,-0.845 -0.117,-1.691 -0.125,-2.537 -0.013,-1.467 0.741,-2.598 2.246,-3.006 2.979,-0.806 5.733,-2.042 8.24,-3.841 2.496,-1.792 4.676,-3.913 6.598,-6.299 4.787,-5.944 7.68,-12.739 8.851,-20.248 0.498,-3.189 0.504,-6.414 -0.173,-9.607 -0.14,-0.659 -0.34,-1.359 -0.238,-1.997 0.098,-0.624 0.47,-1.251 0.866,-1.765 0.293,-0.379 0.803,-0.604 1.24,-0.857 9.249,-5.344 14.403,-13.628 16.804,-23.767 1.868,-7.891 1.563,-15.8 -0.507,-23.638 -0.26,-0.982 -0.465,-1.99 -0.842,-2.927 -0.779,-1.934 -0.53,-3.65 0.878,-5.175 3.433,-3.721 4.37,-8.32 4.532,-13.143 0.127,-3.798 -0.757,-7.395 -2.672,-10.709 -0.339,-0.586 -0.711,-1.154 -1.016,-1.757 -0.403,-0.795 -0.405,-1.631 -0.074,-2.455 0.314,-0.785 0.671,-1.553 0.98,-2.34 2.012,-5.142 2.62,-10.486 2.229,-15.961 -0.193,-2.703 -0.488,-5.384 -1.177,-8.03 -1.086,-4.169 -2.651,-8.044 -5.867,-11.059 -1.105,-1.035 -1.342,-2.213 -0.998,-3.685 0.423,-1.81 0.73,-3.659 0.917,-5.508 0.712,-7.033 -1.063,-13.438 -5.125,-19.195 -2.089,-2.962 -4.748,-5.293 -8.146,-6.674 -4.677,-1.901 -8.959,-1.151 -12.822,2.047 -1.858,1.538 -3.23,3.475 -4.259,5.637 -3.723,7.815 -3.706,15.693 -0.272,23.59 0.675,1.551 1.49,3.04 2.229,4.563 0.504,1.04 0.277,1.979 -0.491,2.786 -0.584,0.612 -1.219,1.175 -1.831,1.761 -4.754,5.295 -6.422,11.111 -7.136,17.257 -0.391,3.369 -0.336,6.775 0.251,10.134 0.738,4.212 1.979,8.234 4.717,11.647 0.313,0.39 0.529,0.861 0.766,1.307 0.314,0.59 0.027,1.936 -0.493,2.358 -0.262,0.213 -0.513,0.481 -0.816,0.594 -2.467,0.918 -3.586,2.979 -4.496,5.225 -1.237,3.053 -1.488,6.231 -1.247,9.485 0.105,1.424 0.895,2.526 1.503,3.728 0.484,0.959 0.329,2.118 -0.587,2.739 -2.548,1.725 -3.918,4.208 -4.618,7.062 -0.896,3.653 -1.298,7.374 -0.097,11.042 0.359,1.097 1.128,2.059 1.699,3.089 0.494,0.893 0.229,2.207 -0.552,2.746 -0.278,0.192 -0.566,0.378 -0.872,0.519 -3.344,1.531 -5.088,4.401 -6.219,7.679 -1.527,4.426 -1.838,8.937 -0.441,13.483 0.296,0.967 0.561,1.945 0.821,2.922 0.105,0.392 -0.462,1.587 -0.832,1.767 -0.454,0.22 -0.908,0.467 -1.391,0.598 -1.143,0.311 -2.319,0.51 -3.455,0.843 -4.018,1.179 -7.375,3.464 -10.076,6.591 -7.887,9.133 -11.157,19.579 -8.634,31.584 0.104,0.495 0.175,0.999 0.243,1.501 0.079,0.59 -0.361,1.417 -0.89,1.713 -0.148,0.083 -0.283,0.207 -0.44,0.251 -3.429,0.97 -5.259,3.595 -6.597,6.597 -1.393,3.124 -2.378,6.363 -1.222,9.839 0.104,0.314 0.091,0.667 0.13,1.002 0.091,0.77 -0.621,1.643 -1.477,1.776 -0.666,0.104 -1.341,0.252 -2.009,0.239 -3.206,-0.067 -5.957,1.165 -8.466,2.993 -1.363,0.994 -2.696,2.072 -3.869,3.28 -6.332,6.525 -10.256,14.266 -11.339,23.331 -0.239,1.997 -0.008,4.051 0.009,6.079 0.006,0.674 0.041,1.348 0.023,2.021 -0.013,0.488 -0.754,1.452 -1.187,1.55 -0.824,0.185 -1.656,0.336 -2.486,0.5 -4.282,0.846 -7.955,2.844 -11.023,5.926 -6.517,6.547 -10.007,14.377 -9.927,23.691 0.01,1.186 0.098,2.37 0.116,3.555 0.019,1.339 -0.733,2.202 -1.843,2.807 -0.295,0.161 -0.62,0.27 -0.939,0.384 -5.615,2.021 -8.641,6.375 -10.268,11.792 -1.554,5.178 -1.347,10.384 0.694,15.44 1.026,2.542 2.524,4.778 4.57,6.642 4.102,3.737 10.068,3.837 14.115,1.151 2.469,-1.638 4.337,-3.785 5.727,-6.346 1.048,-1.933 1.948,-3.947 2.889,-5.936 0.486,-1.029 1.257,-1.671 2.388,-1.431 1.771,0.374 3.357,-0.031 4.897,-0.83 3.476,-1.802 5.356,-4.575 5.158,-8.582 -0.05,-1.011 -0.212,-2.017 -0.236,-3.028 -0.017,-0.713 0.335,-1.301 1.01,-1.616 0.613,-0.286 1.236,-0.555 1.87,-0.79 12.402,-4.576 19.187,-13.919 22.302,-26.342 0.539,-2.15 0.446,-4.373 0.351,-6.579 -0.043,-1.011 -0.09,-2.029 -0.01,-3.034 0.055,-0.701 0.523,-1.26 1.201,-1.498 0.632,-0.222 1.301,-0.353 1.963,-0.47 4.476,-0.787 8.313,-2.826 11.562,-5.964 6.395,-6.178 10.526,-13.622 12.345,-22.333 m 2.913,16.243 c 6.891,2.862 13.974,5.145 21.213,6.932 10.202,2.518 20.53,4.285 30.992,5.355 12.329,1.262 24.66,1.607 37.032,0.895 5.767,-0.332 11.455,-1.175 17.088,-2.362 4.649,-0.979 9.115,-2.651 13.419,-4.615 7.11,-3.244 11.276,-8.943 12.966,-16.535 1.245,-5.596 0.664,-11.118 -0.564,-16.615 -1.112,-4.981 -2.951,-9.705 -5.19,-14.284 -4.64,-9.493 -10.651,-18.069 -17.421,-26.142 -8.524,-10.162 -18.117,-19.21 -28.541,-27.392 -6.265,-4.918 -12.763,-9.508 -19.489,-13.773 -0.852,-0.541 -1.746,-1.055 -2.687,-1.401 -0.352,-0.129 -0.99,0.15 -1.322,0.442 -0.358,0.315 -0.509,0.864 -0.75,1.311 -0.925,1.903 -1.509,3.128 -2.189,4.297 -2.957,5.084 -6.81,9.271 -12.179,11.876 -1.101,0.534 -1.382,1.336 -1.285,2.458 0.095,1.092 0.444,1.935 1.551,2.367 1.103,0.429 2.201,0.886 3.254,1.422 8.193,4.171 13.277,10.821 15.549,19.669 1.698,6.612 1.219,13.183 -1.163,19.483 -5.09,13.459 -14.566,22.166 -28.735,25.435 -7.995,1.845 -15.455,0.365 -22.4,-3.912 -1,-0.616 -1.956,-1.305 -2.849,-1.904 -1.665,0.302 -3.132,0.615 -4.272,1.666 -0.099,0.365 -0.291,0.693 -0.253,0.993 0.776,6.237 -0.593,12.108 -2.989,17.81 -0.65,1.547 -1.297,3.096 -1.906,4.549 0.889,1.169 2.032,1.523 3.12,1.975 M 39.234,17.965 c -0.736,0.929 -1.525,1.818 -2.323,2.694 -2.979,3.269 -6.329,6.125 -9.84,8.8 -6.49,4.946 -13.423,9.198 -20.702,12.854 -26.131,13.122 -53.65,21.631 -82.787,24.744 -9.481,1.013 -18.938,1.072 -28.392,-0.217 -1.674,-0.229 -3.332,-0.572 -5.006,-0.805 -0.269,-0.037 -0.659,0.155 -0.859,0.367 -0.718,0.764 -0.622,2.257 0.133,2.702 0.434,0.255 0.868,0.522 1.33,0.712 7.892,3.253 15.031,7.778 21.814,12.903 9.232,6.975 17.524,14.961 25.171,23.619 17.078,19.334 30.642,40.911 41.003,64.517 4.846,11.039 8.763,22.39 11.396,34.167 2.531,11.318 3.809,22.72 2.257,34.307 0.395,3.183 -1.311,5.078 -3.909,6.465 -1.045,0.558 -2.024,1.237 -3.047,1.837 -4.835,2.83 -9.909,5.167 -15.087,7.291 -10.849,4.45 -22.095,7.573 -33.542,10.022 -8.124,1.738 -16.33,2.999 -24.575,3.953 -7.406,0.856 -14.851,1.259 -22.305,1.589 -10.183,0.45 -20.334,-0.017 -30.487,-0.593 -3.549,-0.202 -7.097,-0.587 -10.617,-1.087 -7.889,-1.12 -15.691,-2.684 -23.348,-4.922 -0.809,-0.237 -1.618,-0.491 -2.445,-0.641 -0.276,-0.05 -0.607,0.2 -0.916,0.314 -0.045,1.091 0.665,1.884 1.118,2.771 1.617,3.167 3.343,6.281 4.886,9.484 5.165,10.718 8.991,21.928 12.083,33.397 4.02,14.914 6.786,30.056 8.352,45.427 0.858,8.436 1.467,16.882 1.641,25.356 0.309,14.941 -0.616,29.812 -2.952,44.578 -1.565,9.889 -3.857,19.612 -7.214,29.056 -2.618,7.366 -5.916,14.413 -10.301,20.919 -2.675,3.968 -5.879,7.43 -9.681,10.348 -0.872,0.669 -1.794,0.971 -2.826,0.848 -1.003,-0.119 -1.997,-0.355 -2.978,-0.606 -7.555,-1.931 -14.975,-4.302 -22.272,-7.043 -32.411,-12.175 -61.458,-29.912 -87.3,-52.92 -11.168,-9.943 -21.378,-20.789 -30.499,-32.648 -4.137,-5.378 -8.118,-10.858 -11.216,-16.925 -0.229,-0.448 -0.553,-0.852 -0.87,-1.248 -0.084,-0.105 -0.337,-0.18 -0.455,-0.13 -0.264,0.11 -0.677,0.28 -0.705,0.473 -0.237,1.669 -0.482,3.343 -0.576,5.025 -0.661,11.866 -2.357,23.598 -4.69,35.236 -4.676,23.326 -11.76,45.916 -20.942,67.857 -9.585,22.902 -21.303,44.629 -35.711,64.872 -6.794,9.546 -14.268,18.522 -22.669,26.711 -4.988,4.861 -10.299,9.322 -16.026,13.289 -5.318,3.684 -10.892,6.858 -17.129,8.744 -0.804,0.244 -1.568,0.625 -2.34,0.967 -1.174,0.519 -2.342,0.406 -3.437,-0.144 -1.36,-0.683 -2.681,-1.451 -3.992,-2.227 -5.112,-3.026 -9.959,-6.437 -14.624,-10.112 -11.234,-8.848 -21.198,-18.989 -30.352,-29.939 -15.068,-18.024 -27.689,-37.66 -38.243,-58.625 -11.859,-23.555 -21.034,-48.082 -26.481,-73.94 -1.503,-7.136 -2.678,-14.329 -3.351,-21.583 -0.626,-6.748 -0.953,-13.525 -0.507,-20.312 0.122,-1.859 0.178,-3.723 0.227,-5.587 0.008,-0.298 -0.145,-0.619 -0.293,-0.892 -0.05,-0.093 -0.412,-0.15 -0.468,-0.084 -0.537,0.633 -1.115,1.251 -1.54,1.957 -6.411,10.632 -13.92,20.441 -22.188,29.682 -10.42,11.645 -21.736,22.351 -33.879,32.181 -15.053,12.185 -30.955,23.102 -48.144,32.084 -9.171,4.792 -18.593,8.999 -28.445,12.22 -6.467,2.115 -13.058,3.602 -19.83,4.252 -1.512,0.145 -3.051,0.208 -4.564,0.109 -1.946,-0.127 -3.577,-0.966 -4.656,-2.687 -0.81,-1.292 -1.676,-2.549 -2.452,-3.86 -7.289,-12.325 -12.66,-25.463 -16.502,-39.233 -4.114,-14.741 -6.47,-29.762 -7.382,-45.045 -0.791,-13.24 -0.314,-26.415 1.032,-39.59 1.243,-12.161 3.42,-24.15 6.426,-35.985 4.818,-18.973 11.655,-37.155 21.579,-54.101 0.426,-0.727 0.794,-1.497 1.086,-2.285 0.033,-0.089 -0.037,-0.217 -0.136,-0.355 0.078,-0.006 0.166,-0.032 0.27,-0.104 0.087,-0.059 0.141,-0.294 0.092,-0.386 -0.045,-0.086 -0.248,-0.087 -0.884,0.025 -8.571,3.316 -16.881,5.639 -25.414,7.123 -11.548,2.007 -23.21,2.908 -34.916,2.871 -14.08,-0.043 -28.085,-1.171 -42.002,-3.454 -13.07,-2.144 -25.903,-5.182 -38.413,-9.524 -8.818,-3.061 -17.378,-6.724 -25.401,-11.545 -1.304,-0.785 -2.568,-1.641 -3.825,-2.502 -1.167,-0.801 -1.887,-1.962 -2.246,-3.297 -0.661,-2.46 -1.17,-4.966 -1.026,-7.525 0.237,-4.229 0.424,-8.471 0.913,-12.674 1.197,-10.285 3.349,-20.387 6.315,-30.309 8.345,-27.92 21.63,-53.293 39.486,-76.289 8.34,-10.741 17.627,-20.593 28.012,-29.392 5.049,-4.278 10.347,-8.22 15.899,-11.824 0.835,-0.542 1.574,-1.233 2.334,-1.883 0.066,-0.056 -0.015,-0.332 -0.082,-0.482 -0.054,-0.122 -0.194,-0.299 -0.289,-0.295 -1.852,0.084 -3.706,0.157 -5.555,0.303 -3.038,0.24 -6.067,0.648 -9.109,0.776 -9.323,0.391 -18.632,0.322 -27.907,-0.967 -5.205,-0.724 -10.375,-1.58 -15.476,-2.862 -6.922,-1.739 -13.595,-4.158 -20.086,-7.115 -1.047,-0.478 -2.02,-1.31 -3.496,-1.037 -0.096,0.585 -0.234,1.224 -0.298,1.869 -0.066,0.672 -0.049,1.352 -0.093,2.026 -0.021,0.326 -0.801,0.866 -1.161,0.804 -0.828,-0.14 -1.674,-0.231 -2.476,-0.467 -8.697,-2.549 -16.661,-6.623 -24.146,-11.68 -0.419,-0.283 -0.812,-0.616 -1.175,-0.969 -0.621,-0.603 -1.077,-1.322 -1.122,-2.208 -0.052,-1.015 -0.043,-2.033 -0.046,-3.049 -0.003,-1.174 0.266,-2.377 -0.389,-3.452 -3.376,-2.587 -6.86,-5.015 -10.061,-7.772 -3.847,-3.314 -7.475,-6.884 -11.156,-10.388 -2.952,-2.81 -3.853,-3.988 -3.273,-9.003 1.092,-9.429 2.539,-18.798 4.172,-28.146 4.002,-22.898 9.568,-45.415 16.871,-67.472 31.407,-94.854 85.723,-174.017 163.691,-236.546 71.837,-57.612 153.63,-92.533 244.931,-105.064 12.096,-1.661 24.236,-2.853 36.411,-3.559 10.995,-0.637 22.014,-1.043 33.034,-0.828 14.573,0.284 29.13,0.822 43.645,2.337 10.451,1.091 20.858,2.43 31.235,4.075 14.064,2.229 27.99,5.128 41.775,8.654 44.752,11.451 87.139,28.714 126.907,52.254 76.419,45.234 136.147,106.761 179.464,184.251 0.413,0.739 0.857,1.469 1.182,2.247 0.564,1.351 0.44,2.701 -0.503,3.829 -0.974,1.167 -2.029,2.276 -3.136,3.317 -4.455,4.189 -9.236,7.975 -14.364,11.307 -19.998,12.999 -41.84,20.588 -65.674,22.313 -0.644,0.047 -1.28,0.233 -1.911,0.39 -0.047,0.012 -0.084,0.348 -0.019,0.482 0.329,0.673 1.004,0.814 1.641,1.032 13.66,4.661 26.794,10.521 39.501,17.349 24.736,13.292 47.773,29.019 68.563,47.95 11.555,10.522 22.284,21.812 31.586,34.4 7.186,9.723 13.295,20.034 17.19,31.562 1.255,3.713 1.998,7.514 2.506,11.379 0.022,0.167 0.011,0.339 0.026,0.507 0.112,1.25 -0.292,2.351 -1.051,3.308"
       style="fill:#ffffff;fill-opacity:1;fill-rule:nonzero;stroke:none"
       transform="matrix(1.3333333,0,0,-1.3333333,17392.201,835.12893)"
       clip-path="url(#clipPath740)" />
    <path
       id="path741"
       d="M 0,0 C 0.082,0.135 0.213,0.287 0.314,0.429 0.136,0.442 0.023,0.299 0,0"
       style="fill:#ffffff;fill-opacity:1;fill-rule:nonzero;stroke:none"
       transform="matrix(1.3333333,0,0,-1.3333333,16404.8,484.64293)"
       clip-path="url(#clipPath742)" />
    <path
       id="path743"
       d="M 0,0 C -0.554,0.156 -1.009,-0.049 -1.411,-0.354 -2.263,-1 -2.579,-1.955 -2.868,-2.945 c -1.42,-4.871 -3.04,-9.668 -5.29,-14.236 -0.896,-1.819 -1.692,-3.689 -2.469,-5.562 -0.321,-0.774 -0.491,-1.614 -0.695,-2.433 -0.08,-0.323 -0.123,-0.677 -0.08,-1.003 0.042,-0.313 0.198,-0.618 0.339,-0.91 0.163,-0.339 0.958,-0.165 1.297,0.296 3.421,4.649 6.348,9.582 8.516,14.943 0.505,1.25 0.883,2.553 1.456,4.196 0.94,2.263 1.313,4.235 1.14,6.299 C 1.295,-0.756 0.713,-0.201 0,0"
       style="fill:#ffffff;fill-opacity:1;fill-rule:nonzero;stroke:none"
       transform="matrix(1.3333333,0,0,-1.3333333,16899.677,896.36587)"
       clip-path="url(#clipPath744)" />
    <path
       id="path745"
       d="m 0,0 c 15.057,-0.978 27.613,4.19 37.384,15.68 7.335,8.626 10.709,18.778 10.192,30.075 -0.804,17.594 -9.202,30.484 -24.791,38.578 -4.511,2.342 -9.321,4.07 -14.587,3.776 C 7.699,88.081 7.19,88.222 6.688,88.3 1.567,89.092 -3.449,88.402 -8.405,87.145 -15.626,85.313 -21.871,81.716 -27.468,76.281 -28.753,74.904 -29.864,73.844 -30.796,72.645 -40.004,60.8 -43.19,47.565 -39.406,32.965 -34.391,13.615 -17.797,1.155 0,0"
       style="fill:#ffffff;fill-opacity:1;fill-rule:nonzero;stroke:none"
       transform="matrix(1.3333333,0,0,-1.3333333,16774.121,351.99773)"
       clip-path="url(#clipPath746)" />
    <path
       id="path747"
       d="m 0,0 c 19.897,5.479 30.597,26.569 23.193,45.764 -5.474,14.192 -19.187,22.712 -32.22,22.099 -8.613,-0.405 -16.61,-3.015 -23.199,-8.958 -0.377,-0.34 -0.74,-0.695 -1.097,-1.056 -0.595,-0.602 -1.18,-1.214 -2.005,-2.099 -0.95,-1.224 -1.718,-2.134 -2.368,-3.121 -5.952,-9.033 -7.423,-18.827 -4.363,-29.131 C -36.676,5.377 -17.712,-4.877 0,0"
       style="fill:#ffffff;fill-opacity:1;fill-rule:nonzero;stroke:none"
       transform="matrix(1.3333333,0,0,-1.3333333,16385.244,656.1588)"
       clip-path="url(#clipPath748)" />
    <path
       id="path749"
       d="m 0,0 c 13.764,3.223 23.214,11.32 27.761,24.808 1.982,5.879 2.378,11.92 0.967,18.446 -0.49,1.883 -0.827,3.376 -1.35,4.801 C 18.646,71.844 -8.718,78.084 -25.582,66.693 -38.124,59.151 -44.52,44.529 -42.701,30.758 -40.338,12.872 -23.536,-3.974 0,0"
       style="fill:#ffffff;fill-opacity:1;fill-rule:nonzero;stroke:none"
       transform="matrix(1.3333333,0,0,-1.3333333,16517.065,440.74253)"
       clip-path="url(#clipPath750)" />
    <path
       id="path751"
       d="m 0,0 c 4.968,-1.023 9.972,-1.926 15.047,-2.033 10.682,-0.227 21.232,0.915 31.689,3.164 3.542,0.762 6.727,2.144 9.827,3.884 0.921,0.517 1.583,1.254 2,2.212 0.269,0.619 0.472,1.268 0.763,1.877 1.942,4.064 0.245,4.378 -3.103,4.056 -0.83,-0.08 -1.655,-0.31 -2.459,-0.55 C 51.661,11.985 49.566,11.332 47.477,10.662 38.883,7.906 30.103,6.46 20.561,6.841 17.369,6.976 14.656,7.008 11.979,7.335 9.138,7.681 6.339,8.355 3.508,8.801 0.284,9.308 -1.044,8.989 -1.782,5.158 -1.941,4.334 -1.97,3.479 -1.996,2.637 -2.031,1.481 -1.119,0.23 0,0"
       style="fill:#ffffff;fill-opacity:1;fill-rule:nonzero;stroke:none"
       transform="matrix(1.3333333,0,0,-1.3333333,16627.018,450.44587)"
       clip-path="url(#clipPath752)" />
    <path
       id="path753"
       d="m 0,0 c 6.54,3.19 14.653,0.062 17.318,-6.693 0.862,-2.185 1.615,-4.46 1.388,-6.897 -0.264,-2.37 -0.864,-3.764 -1.628,-5.087 -2.991,-5.184 -9.227,-7.702 -14.765,-6.216 -5.308,1.424 -10.136,6.615 -9.878,13.168 C -7.356,-6.425 -4.844,-2.363 0,0 m 8.995,-40.02 c 15.089,0 27.321,12.232 27.321,27.321 0,15.089 -12.232,27.321 -27.321,27.321 -15.089,0 -27.321,-12.232 -27.321,-27.321 0,-15.089 12.232,-27.321 27.321,-27.321"
       style="fill:#ffffff;fill-opacity:1;fill-rule:nonzero;stroke:none"
       transform="matrix(1.3333333,0,0,-1.3333333,16786.913,712.13213)"
       clip-path="url(#clipPath754)" />
  </g>
</svg>
