<?xml version="1.0" encoding="UTF-8" standalone="no"?>
<!-- Created with Inkscape (http://www.inkscape.org/) -->

<svg
   version="1.1"
   id="svg1"
   width="1440"
   height="1440"
   viewBox="0 0 1440 1440"
   xmlns="http://www.w3.org/2000/svg"
   xmlns:svg="http://www.w3.org/2000/svg">
  <defs
     id="defs1">
    <clipPath
       clipPathUnits="userSpaceOnUse"
       id="clipPath651">
      <path
         d="M 0,1080 H 1080 V 0 H 0 Z"
         transform="translate(-528.01801,-479.08081)"
         id="path651" />
    </clipPath>
    <clipPath
       clipPathUnits="userSpaceOnUse"
       id="clipPath653">
      <path
         d="M 0,1080 H 1080 V 0 H 0 Z"
         transform="translate(-520.38901,-862.38172)"
         id="path653" />
    </clipPath>
    <clipPath
       clipPathUnits="userSpaceOnUse"
       id="clipPath655">
      <path
         d="M 0,1080 H 1080 V 0 H 0 Z"
         transform="translate(-470.69851,-646.52152)"
         id="path655" />
    </clipPath>
    <clipPath
       clipPathUnits="userSpaceOnUse"
       id="clipPath657">
      <path
         d="M 0,1080 H 1080 V 0 H 0 Z"
         transform="translate(-469.00501,-947.78033)"
         id="path657" />
    </clipPath>
    <clipPath
       clipPathUnits="userSpaceOnUse"
       id="clipPath659">
      <path
         d="M 0,1080 H 1080 V 0 H 0 Z"
         transform="translate(-571.13101,-893.80352)"
         id="path659" />
    </clipPath>
    <clipPath
       clipPathUnits="userSpaceOnUse"
       id="clipPath661">
      <path
         d="M 0,1080 H 1080 V 0 H 0 Z"
         transform="translate(-449.53801,-820.58132)"
         id="path661" />
    </clipPath>
    <clipPath
       clipPathUnits="userSpaceOnUse"
       id="clipPath663">
      <path
         d="M 0,1080 H 1080 V 0 H 0 Z"
         transform="translate(-510.08326,-980.10593)"
         id="path663" />
    </clipPath>
    <clipPath
       clipPathUnits="userSpaceOnUse"
       id="clipPath665">
      <path
         d="M 0,1080 H 1080 V 0 H 0 Z"
         transform="translate(-404.75626,-870.55632)"
         id="path665" />
    </clipPath>
    <clipPath
       clipPathUnits="userSpaceOnUse"
       id="clipPath667">
      <path
         d="M 0,1080 H 1080 V 0 H 0 Z"
         transform="translate(-578.76676,-836.28762)"
         id="path667" />
    </clipPath>
    <clipPath
       clipPathUnits="userSpaceOnUse"
       id="clipPath669">
      <path
         d="M 0,1080 H 1080 V 0 H 0 Z"
         transform="translate(-559.09651,-956.71142)"
         id="path669" />
    </clipPath>
    <clipPath
       clipPathUnits="userSpaceOnUse"
       id="clipPath671">
      <path
         d="M 0,1080 H 1080 V 0 H 0 Z"
         transform="translate(-555.36826,-924.03632)"
         id="path671" />
    </clipPath>
    <clipPath
       clipPathUnits="userSpaceOnUse"
       id="clipPath673">
      <path
         d="M 0,1080 H 1080 V 0 H 0 Z"
         transform="translate(-430.47076,-915.48542)"
         id="path673" />
    </clipPath>
    <clipPath
       clipPathUnits="userSpaceOnUse"
       id="clipPath675">
      <path
         d="M 0,1080 H 1080 V 0 H 0 Z"
         transform="translate(-531.40501,-973.83312)"
         id="path675" />
    </clipPath>
    <clipPath
       clipPathUnits="userSpaceOnUse"
       id="clipPath677">
      <path
         d="M 0,1080 H 1080 V 0 H 0 Z"
         transform="translate(-468.41776,-858.57912)"
         id="path677" />
    </clipPath>
    <clipPath
       clipPathUnits="userSpaceOnUse"
       id="clipPath679">
      <path
         d="M 0,1080 H 1080 V 0 H 0 Z"
         transform="translate(-482.62126,-977.86712)"
         id="path679" />
    </clipPath>
    <clipPath
       clipPathUnits="userSpaceOnUse"
       id="clipPath681">
      <path
         d="M 0,1080 H 1080 V 0 H 0 Z"
         transform="translate(-556.33801,-868.79902)"
         id="path681" />
    </clipPath>
    <clipPath
       clipPathUnits="userSpaceOnUse"
       id="clipPath683">
      <path
         d="M 0,1080 H 1080 V 0 H 0 Z"
         transform="translate(-453.35026,-1005.9308)"
         id="path683" />
    </clipPath>
    <clipPath
       clipPathUnits="userSpaceOnUse"
       id="clipPath685">
      <path
         d="M 0,1080 H 1080 V 0 H 0 Z"
         transform="translate(-599.51326,-858.08942)"
         id="path685" />
    </clipPath>
    <clipPath
       clipPathUnits="userSpaceOnUse"
       id="clipPath687">
      <path
         d="M 0,1080 H 1080 V 0 H 0 Z"
         transform="translate(-440.01151,-852.22192)"
         id="path687" />
    </clipPath>
    <clipPath
       clipPathUnits="userSpaceOnUse"
       id="clipPath689">
      <path
         d="M 0,1080 H 1080 V 0 H 0 Z"
         transform="translate(-396.32926,-927.41243)"
         id="path689" />
    </clipPath>
    <clipPath
       clipPathUnits="userSpaceOnUse"
       id="clipPath691">
      <path
         d="M 0,1080 H 1080 V 0 H 0 Z"
         transform="translate(-587.50876,-1027.9724)"
         id="path691" />
    </clipPath>
    <clipPath
       clipPathUnits="userSpaceOnUse"
       id="clipPath693">
      <path
         d="M 0,1080 H 1080 V 0 H 0 Z"
         transform="translate(-412.09501,-984.84482)"
         id="path693" />
    </clipPath>
    <clipPath
       clipPathUnits="userSpaceOnUse"
       id="clipPath695">
      <path
         d="M 0,1080 H 1080 V 0 H 0 Z"
         transform="translate(-473.47426,-1049.9061)"
         id="path695" />
    </clipPath>
    <clipPath
       clipPathUnits="userSpaceOnUse"
       id="clipPath697">
      <path
         d="M 0,1080 H 1080 V 0 H 0 Z"
         transform="translate(-419.83651,-977.28192)"
         id="path697" />
    </clipPath>
    <clipPath
       clipPathUnits="userSpaceOnUse"
       id="clipPath699">
      <path
         d="M 0,1080 H 1080 V 0 H 0 Z"
         transform="translate(-620.61452,-956.89202)"
         id="path699" />
    </clipPath>
    <clipPath
       clipPathUnits="userSpaceOnUse"
       id="clipPath701">
      <path
         d="M 0,1080 H 1080 V 0 H 0 Z"
         transform="translate(-618.09002,-880.40402)"
         id="path701" />
    </clipPath>
    <clipPath
       clipPathUnits="userSpaceOnUse"
       id="clipPath703">
      <path
         d="M 0,1080 H 1080 V 0 H 0 Z"
         transform="translate(-585.06676,-951.54383)"
         id="path703" />
    </clipPath>
    <clipPath
       clipPathUnits="userSpaceOnUse"
       id="clipPath705">
      <path
         d="M 0,1080 H 1080 V 0 H 0 Z"
         transform="translate(-618.39677,-844.37052)"
         id="path705" />
    </clipPath>
    <clipPath
       clipPathUnits="userSpaceOnUse"
       id="clipPath707">
      <path
         d="M 0,1080 H 1080 V 0 H 0 Z"
         transform="translate(-464.57476,-1028.243)"
         id="path707" />
    </clipPath>
    <clipPath
       clipPathUnits="userSpaceOnUse"
       id="clipPath709">
      <path
         d="M 0,1080 H 1080 V 0 H 0 Z"
         transform="translate(-585.00226,-1015.3852)"
         id="path709" />
    </clipPath>
    <clipPath
       clipPathUnits="userSpaceOnUse"
       id="clipPath711">
      <path
         d="M 0,1080 H 1080 V 0 H 0 Z"
         transform="translate(-381.51076,-851.39222)"
         id="path711" />
    </clipPath>
    <clipPath
       clipPathUnits="userSpaceOnUse"
       id="clipPath713">
      <path
         d="M 0,1080 H 1080 V 0 H 0 Z"
         transform="translate(-626.35652,-872.10972)"
         id="path713" />
    </clipPath>
    <clipPath
       clipPathUnits="userSpaceOnUse"
       id="clipPath715">
      <path
         d="M 0,1080 H 1080 V 0 H 0 Z"
         transform="translate(-619.15202,-919.30002)"
         id="path715" />
    </clipPath>
    <clipPath
       clipPathUnits="userSpaceOnUse"
       id="clipPath717">
      <path
         d="M 0,1080 H 1080 V 0 H 0 Z"
         transform="translate(-387.53926,-848.41882)"
         id="path717" />
    </clipPath>
    <clipPath
       clipPathUnits="userSpaceOnUse"
       id="clipPath719">
      <path
         d="M 0,1080 H 1080 V 0 H 0 Z"
         transform="translate(-589.85776,-956.88572)"
         id="path719" />
    </clipPath>
    <clipPath
       clipPathUnits="userSpaceOnUse"
       id="clipPath721">
      <path
         d="M 0,1080 H 1080 V 0 H 0 Z"
         transform="translate(-163.0725,-538.78901)"
         id="path721" />
    </clipPath>
    <clipPath
       clipPathUnits="userSpaceOnUse"
       id="clipPath723">
      <path
         d="M 0,1080 H 1080 V 0 H 0 Z"
         transform="translate(-849.45452,-524.68511)"
         id="path723" />
    </clipPath>
  </defs>
  <g
     id="layer-MC0"
     style="display:none"
     transform="translate(-13140)">
    <path
       id="path649"
       d="M 0,0 H 1080 V 1080 H 0 Z"
       style="fill:#d2451e;fill-opacity:1;fill-rule:nonzero;stroke:none"
       transform="matrix(1.3333333,0,0,-1.3333333,13140,1440)" />
  </g>
  <g
     id="layer-MC1"
     transform="translate(-13140)">
    <path
       id="path650"
       d="m 0,0 c 2.362,0.208 4.638,0.791 6.82,1.692 3.717,1.536 6.461,4.134 8.227,7.756 0.248,0.509 -0.319,1.574 -0.833,1.555 C 13.879,10.99 13.54,11.017 13.211,10.968 10.536,10.566 7.997,9.733 5.55,8.579 3.271,7.504 0.923,6.62 -1.535,6.003 -4.53,5.252 -7.497,5.133 -10.488,5.949 c -1.454,0.396 -2.912,0.777 -4.374,1.141 -0.131,0.033 -0.341,-0.082 -0.45,-0.192 -0.085,-0.086 -0.121,-0.283 -0.091,-0.409 0.331,-1.361 1.165,-2.395 2.232,-3.239 2.012,-1.588 4.266,-2.707 6.827,-3.004 C -4.517,0.034 -2.665,0.032 0,0 m -24.184,39.118 c -1.444,-3.28 -0.309,-5.901 2.186,-8.076 1.002,-0.873 2.147,-1.637 3.337,-2.227 1.497,-0.741 3.066,-1.411 4.676,-1.835 8.504,-2.24 16.947,-2.032 25.265,0.931 2.057,0.733 4.056,1.647 5.817,2.96 1.069,0.797 2.146,1.651 2.988,2.672 2.335,2.83 2.601,5.499 0.071,8.644 -0.624,0.776 -1.285,1.58 -2.434,1.596 C 14.823,38.63 12.638,36.789 7.256,35.149 1.665,33.446 -3.985,33.222 -9.621,34.876 c -4.29,1.259 -8.109,3.248 -10.314,7.448 -0.138,0.261 -0.519,0.394 -0.788,0.587 -0.29,-0.143 -0.657,-0.218 -0.856,-0.442 -0.778,-0.874 -1.503,-1.795 -2.605,-3.351 m -23.574,-2.945 c -0.044,-1.09 0.373,-1.976 1.26,-2.595 0.825,-0.576 1.696,-1.087 2.547,-1.625 1.779,-1.126 2.947,-2.722 3.592,-4.711 0.466,-1.438 0.863,-2.901 1.384,-4.318 1.442,-3.922 4.345,-6.285 8.244,-7.521 0.96,-0.305 1.939,-0.615 2.932,-0.735 4.89,-0.592 9.461,-2.04 13.85,-4.338 3.993,-2.091 8.316,-2.626 12.708,-1.115 1.902,0.654 3.818,1.301 5.647,2.131 3.251,1.477 6.648,2.376 10.171,2.77 1.831,0.204 3.692,0.139 5.539,0.2 2.706,0.089 5.343,0.443 7.859,1.573 2.603,1.17 4.605,2.878 5.205,5.742 0.571,2.726 2.171,4.47 4.587,5.616 0.607,0.288 1.292,0.473 1.807,0.876 0.919,0.719 1.819,1.5 2.561,2.393 0.391,0.47 0.603,1.235 0.596,1.863 -0.017,1.543 -0.429,3.009 -1.639,4.089 -1.002,0.895 -2.012,1.794 -3.099,2.58 -3.06,2.213 -4.196,5.13 -3.411,8.815 0.105,0.493 0.199,0.992 0.245,1.493 0.173,1.879 -0.689,3.247 -2.221,4.209 -1.155,0.725 -2.433,1.107 -3.819,1.131 -3.358,0.06 -6.715,0.15 -10.073,0.224 -0.166,0.003 -0.371,0.015 -0.493,-0.071 -0.266,-0.188 -0.656,-0.404 -0.705,-0.664 -0.345,-1.829 -0.277,-3.665 -0.077,-5.229 0.252,-0.399 0.31,-0.576 0.432,-0.67 0.664,-0.513 1.361,-0.985 2.015,-1.511 0.785,-0.631 1.598,-1.242 2.294,-1.964 3.789,-3.931 4.058,-8.923 0.736,-13.259 -1.451,-1.894 -3.262,-3.386 -5.311,-4.593 -2.478,-1.459 -5.12,-2.548 -7.895,-3.27 -6.765,-1.761 -13.627,-2.029 -20.515,-0.96 -3.159,0.49 -6.212,1.465 -9.091,2.912 -1.814,0.91 -3.559,1.942 -4.966,3.411 -0.92,0.961 -1.802,2.015 -2.45,3.169 -1.595,2.842 -1.528,5.782 -0.108,8.697 0.828,1.701 2.066,3.07 3.583,4.166 1.085,0.784 2.251,1.456 3.48,2.242 0.157,3.45 0.41,6.935 -0.448,10.524 -1.628,0.154 -3.12,0.353 -4.618,0.419 -1.34,0.059 -2.69,0.018 -4.031,-0.062 -1.894,-0.112 -3.593,-0.796 -5.122,-1.92 -1.398,-1.027 -1.996,-2.365 -1.489,-3.946 0.518,-1.611 1.041,-3.186 0.917,-4.916 -0.103,-1.425 -0.657,-2.592 -1.742,-3.505 -1.432,-1.205 -3.049,-2.092 -4.824,-2.673 -1.78,-0.582 -3.432,-1.403 -4.814,-2.669 -0.472,-0.432 -0.745,-1.082 -1.23,-2.405 m -245.616,5.286 c -1.755,-0.581 -3.499,-1.197 -5.267,-1.736 -15.244,-4.652 -30.906,-6.461 -46.775,-6.837 -5.222,-0.124 -10.422,0.273 -15.63,0.588 -11.122,0.671 -22.049,2.502 -32.805,5.346 -9.296,2.458 -18.287,5.744 -26.7,10.467 -7.26,4.077 -13.798,9.014 -18.646,15.925 -0.096,0.137 -0.199,0.301 -0.339,0.367 -0.278,0.131 -0.581,0.225 -0.883,0.278 -0.053,0.009 -0.191,-0.249 -0.226,-0.398 -0.358,-1.533 -0.052,-2.996 0.457,-4.445 1.236,-3.514 2.92,-6.791 5.071,-9.834 3.538,-5.005 7.913,-9.147 12.919,-12.65 5.961,-4.17 12.401,-7.415 19.178,-10.026 14.111,-5.435 28.816,-8.006 43.833,-8.829 13.154,-0.72 26.224,0.24 39.155,2.864 9.595,1.948 18.889,4.815 27.765,8.982 6.121,2.873 11.848,6.369 17.025,10.737 3.489,2.943 6.612,6.225 9.19,10.007 1.334,1.956 2.452,4.023 3.119,6.3 0.113,0.387 -0.126,0.876 -0.257,1.636 -1.173,-1.122 -2.098,-2.08 -3.101,-2.948 -1.144,-0.989 -2.386,-1.863 -3.534,-2.848 -3.985,-3.415 -8.344,-6.269 -13.073,-8.515 -3.185,-1.513 -6.48,-2.795 -10.476,-4.431 M 286.549,7.491 c 4.496,-0.656 8.971,-1.55 13.49,-1.923 11.77,-0.973 23.532,-0.931 35.281,0.614 8.37,1.1 16.586,2.822 24.624,5.36 8.868,2.801 17.287,6.601 25.067,11.743 5.087,3.361 9.79,7.187 13.569,11.997 4.628,5.889 5.494,7.396 5.419,15.731 -0.002,0.163 -0.081,0.326 -0.171,0.668 -0.416,-0.152 -1.014,-0.179 -1.184,-0.462 -2.092,-3.486 -4.538,-6.684 -7.512,-9.465 -3.456,-3.233 -7.21,-6.064 -11.337,-8.398 -4.852,-2.744 -9.954,-4.913 -15.216,-6.724 -14.772,-5.083 -30.044,-7.379 -45.588,-7.984 -7.739,-0.301 -15.473,-0.087 -23.209,0.636 -10.091,0.943 -20.007,2.729 -29.736,5.505 -8.934,2.549 -17.491,6.042 -25.454,10.894 -6.387,3.891 -12.092,8.545 -16.482,14.683 -0.275,0.385 -0.721,0.655 -1.111,0.945 -0.093,0.068 -0.409,0.017 -0.412,-0.005 -0.06,-0.491 -0.218,-1.018 -0.107,-1.476 1.797,-7.367 5.372,-13.758 10.637,-19.206 3.888,-4.024 8.323,-7.345 13.13,-10.187 5.529,-3.268 11.383,-5.817 17.44,-7.917 5.892,-2.042 11.942,-3.508 18.862,-5.029 M -1.413,-24.782 c 1.051,-1.09 2.067,-2.217 3.159,-3.264 3.177,-3.046 6.685,-5.633 10.674,-7.536 6.797,-3.242 13.905,-3.996 21.15,-2.123 9.413,2.434 17.124,7.642 23.213,15.226 0.274,0.34 0.325,0.858 0.526,1.423 -0.751,0.531 -1.4,1.052 -2.106,1.48 -5.168,3.129 -10.194,6.502 -15.687,9.376 -0.575,-0.386 -1.128,-0.733 -1.655,-1.116 -2.544,-1.85 -5.225,-1.919 -8.135,-0.897 -2.489,0.875 -4.453,2.324 -5.963,4.437 -0.881,1.231 -1.715,2.495 -2.571,3.744 -1.258,1.838 -2.989,3.174 -4.753,4.475 C 15.496,1.139 14.56,1.851 13.168,1.874 12.683,1.609 12.094,1.289 11.508,0.966 10.919,0.642 10.344,0.289 9.741,-0.009 3.427,-3.134 -3.157,-3.869 -9.82,-1.547 c -4.65,1.621 -8.29,4.505 -8.843,9.948 -0.017,0.166 -0.071,0.328 -0.1,0.494 -0.198,1.135 -0.995,1.76 -1.987,2.061 -2.414,0.732 -4.892,1.17 -7.391,1.546 -4.462,0.672 -8.398,2.414 -11.168,6.178 -0.591,0.803 -1.355,1.017 -2.198,0.724 -3.863,-1.341 -7.392,-3.282 -10.182,-6.324 -2.285,-2.49 -2.077,-3.326 0.638,-5.149 6.704,-4.501 13.437,-8.96 20.171,-13.415 0.549,-0.363 1.198,-0.575 1.782,-0.848 1.532,0.433 2.965,0.911 4.432,1.24 5.809,1.303 11.425,-1.057 14.316,-6.023 0.592,-1.018 1.128,-2.068 1.724,-3.084 2.043,-3.483 4.078,-6.974 7.213,-10.583 m -392.4,-114.684 c 0.914,-1.798 1.775,-3.626 2.752,-5.39 2.641,-4.769 6.492,-8.104 11.779,-9.637 1.446,-0.42 2.93,-0.739 4.415,-0.993 1.677,-0.287 3.234,-0.84 4.769,-1.571 2.646,-1.259 4.772,-3.106 6.613,-5.348 1.387,-1.689 2.673,-3.511 4.295,-4.945 2.621,-2.316 6.498,-2.838 9.514,0.252 1.711,1.753 2.595,3.91 2.918,6.302 0.212,1.575 -0.1,2.944 -1.373,4.114 -1.363,1.253 -2.672,2.541 -4.2,3.612 -3.858,2.705 -7.703,5.432 -11.489,8.236 -35.435,26.245 -70.854,52.511 -106.284,78.762 -2.855,2.115 -5.416,4.54 -7.739,7.213 -14.155,16.286 -22.32,35.062 -23.519,56.726 -0.019,0.33 -0.031,0.723 -0.21,0.964 -0.144,0.193 -0.564,0.317 -0.813,0.26 -0.294,-0.068 -0.58,-0.324 -0.791,-0.567 -2.852,-3.285 -4.1,-7.303 -5.061,-11.416 -1.601,-6.846 -1.402,-13.728 0.17,-20.53 1.81,-7.838 5.076,-14.964 11.051,-20.604 0.733,-0.692 1.383,-1.473 2.096,-2.188 2.403,-2.408 4.263,-5.183 5.761,-8.233 0.963,-1.96 1.953,-3.927 3.144,-5.752 2.813,-4.31 6.264,-7.905 11.398,-9.472 1.444,-0.44 2.841,-1.046 4.238,-1.626 0.772,-0.32 1.574,-0.645 2.236,-1.138 3.648,-2.71 7.344,-5.382 10.024,-9.149 1.365,-1.918 2.809,-3.799 3.964,-5.84 1.682,-2.972 3.895,-5.443 6.304,-7.82 2.535,-2.5 5.52,-3.944 9.007,-3.927 3.892,0.019 7.21,-1.487 10.465,-3.269 2.242,-1.227 4.099,-2.923 5.401,-5.179 0.925,-1.602 1.869,-3.198 2.889,-4.74 1.02,-1.542 2.038,-3.106 3.247,-4.495 2.164,-2.489 4.788,-4.191 8.262,-4.245 2.023,-0.031 4.008,-0.401 5.974,-0.917 2.358,-0.619 4.343,-1.808 5.929,-3.633 0.882,-1.014 1.66,-2.118 2.864,-3.817 M 72.339,-4.323 c 4.888,0.097 9.744,0.472 14.52,1.602 6.304,1.491 12.129,4.008 17.224,8.067 4.014,3.198 7.185,7.056 9.203,11.827 0.667,1.578 1.033,3.183 1.117,4.886 0.236,4.808 -0.727,9.378 -2.692,13.743 -2.092,4.647 -4.951,8.788 -8.412,12.518 -3.802,4.098 -8.097,7.601 -12.844,10.541 -8.843,5.477 -18.407,8.932 -28.718,10.437 -6.396,0.933 -12.734,0.95 -19.084,-0.224 -4.841,-0.895 -9.414,-2.509 -13.686,-4.971 -2.056,-1.185 -3.929,-2.604 -5.544,-4.341 -0.545,-0.586 -1.379,-1.151 -1.126,-2.089 0.297,-1.104 1.342,-0.754 2.107,-0.772 1.681,-0.039 3.365,-0.016 5.046,0.045 1.763,0.065 3.31,-0.544 4.754,-1.447 2.164,-1.355 3.331,-3.3 3.191,-5.901 -0.063,-1.172 -0.285,-2.336 -0.379,-3.508 -0.144,-1.792 0.425,-3.284 1.859,-4.453 2.203,-1.796 4.701,-3.294 6.129,-5.912 0.071,-0.13 0.718,-0.138 0.91,0.021 1.032,0.858 1.997,1.797 2.999,2.691 3.192,2.848 6.784,4.998 10.993,5.915 5.841,1.272 11.015,-0.063 15.327,-4.302 2.496,-2.453 2.61,-5.902 0.362,-8.644 -0.866,-1.057 -1.911,-1.891 -3.091,-2.56 -1.77,-1.003 -3.665,-1.699 -5.64,-2.151 -4.973,-1.141 -10,-1.333 -15.051,-0.664 -2.825,0.374 -5.634,0.866 -8.331,1.286 -1.319,-0.694 -2.466,-1.414 -3.7,-1.921 -2.38,-0.978 -3.635,-2.706 -4.316,-5.174 -1.18,-4.273 -4.254,-6.752 -8.448,-7.801 -2.271,-0.568 -4.616,-0.841 -7.078,-1.273 0.252,-0.423 0.392,-1.008 0.733,-1.169 1.971,-0.937 3.97,-1.824 5.997,-2.636 8.135,-3.257 16.558,-5.626 24.985,-7.957 6.484,-1.793 13.028,-3.358 20.684,-3.709 m 149.446,160.288 c -1.467,-0.823 -2.936,-1.645 -4.402,-2.471 -0.88,-0.495 -1.764,-0.985 -2.634,-1.498 -2.223,-1.311 -2.202,-1.972 0.14,-3.419 1.145,-0.708 2.318,-1.371 3.492,-2.03 2.494,-1.4 4.993,-2.792 7.5,-4.169 1.043,-0.573 1.988,-1.239 2.728,-2.197 0.637,-0.825 0.62,-1.973 -0.056,-2.774 -1.109,-1.311 -2.543,-2.182 -3.973,-3.07 -4.003,-2.487 -8.016,-4.956 -11.993,-7.484 -8.239,-5.236 -16.456,-10.507 -24.684,-15.761 -0.993,-0.634 -1.979,-1.282 -2.997,-1.873 -2.121,-1.23 -4.367,-1.764 -6.776,-0.989 -1.757,0.565 -3.559,1.052 -5.226,1.823 -2.898,1.341 -5.703,2.881 -8.554,4.324 -1.5,0.76 -2.996,1.528 -4.527,2.22 -0.789,0.357 -1.671,0.325 -2.453,-0.055 -1.056,-0.514 -2.086,-1.091 -3.093,-1.696 -4.183,-2.516 -8.355,-5.048 -12.525,-7.585 -0.572,-0.348 -1.109,-0.753 -1.659,-1.138 -0.38,-0.266 -0.43,-1.072 -0.056,-1.317 1.824,-1.199 3.618,-2.451 5.496,-3.559 18.409,-10.861 36.833,-21.697 55.253,-32.539 0.725,-0.427 1.46,-0.837 2.185,-1.264 1.104,-0.65 2.22,-0.641 3.378,-0.135 5.241,2.293 10.493,4.559 15.724,6.875 0.753,0.333 1.44,0.847 2.086,1.367 0.165,0.133 0.196,0.724 0.047,0.902 -0.424,0.505 -0.945,0.942 -1.478,1.339 -2.293,1.709 -4.614,3.382 -6.903,5.097 -0.534,0.399 -1.049,0.858 -1.462,1.378 -1.034,1.301 -1.383,2.666 0.407,3.849 0.842,0.556 1.728,1.044 2.595,1.563 20.364,12.183 40.733,24.359 61.089,36.556 5.052,3.028 10.071,6.113 15.084,9.206 0.847,0.523 1.613,1.192 2.348,1.867 0.153,0.141 0.134,0.756 -0.03,0.902 -0.493,0.44 -1.065,0.82 -1.661,1.112 -6.801,3.326 -13.61,6.636 -20.424,9.939 -0.755,0.366 -1.523,0.743 -2.327,0.958 -0.618,0.165 -1.332,0.225 -1.95,0.09 -4.469,-0.97 -8.676,-0.164 -12.755,1.72 -5.346,2.469 -10.697,4.929 -16.057,7.368 -1.837,0.836 -3.703,1.609 -5.568,2.382 -0.983,0.408 -1.987,0.367 -2.924,-0.141 -3.255,-1.763 -6.498,-3.549 -10.405,-5.673 M 258.933,33.441 c 2.521,-0.939 5.016,-1.953 7.566,-2.804 16.112,-5.382 32.759,-7.407 49.654,-7.845 4.887,-0.127 9.751,0.28 14.622,0.588 9.267,0.585 18.379,2.097 27.351,4.431 9.495,2.47 18.518,6.107 26.888,11.282 3.596,2.223 6.915,4.784 9.788,7.904 2.186,2.376 3.959,5.027 5.183,8.013 1.86,4.538 1.956,9.159 0.464,13.823 -1.309,4.089 -3.652,7.557 -6.486,10.714 -2.831,3.155 -6.172,5.7 -9.766,7.921 -5.891,3.64 -12.155,6.502 -18.655,8.859 -13.071,4.739 -26.636,7.108 -40.444,8.06 -10.927,0.753 -21.854,0.502 -32.756,-0.798 -9.721,-1.16 -19.247,-3.12 -28.535,-6.215 -5.599,-1.865 -11.026,-4.128 -16.128,-7.117 -4.376,-2.564 -8.454,-5.517 -11.912,-9.263 -2.182,-2.363 -4.053,-4.94 -5.401,-7.877 -2.371,-5.166 -2.558,-10.372 -0.415,-15.67 1.475,-3.644 3.622,-6.823 6.323,-9.65 3.399,-3.557 7.339,-6.419 11.554,-8.917 3.334,-1.976 6.815,-3.661 11.105,-5.439 m -650.504,81.107 c -1.639,-0.376 -3.29,-0.706 -4.914,-1.137 -7.493,-1.991 -14.816,-4.447 -21.735,-8.004 -4.205,-2.161 -8.196,-4.643 -11.781,-7.744 -2.819,-2.438 -5.284,-5.182 -7.168,-8.417 -2.28,-3.915 -3.136,-8.115 -2.582,-12.621 0.292,-2.379 1.108,-4.571 2.199,-6.671 1.408,-2.708 3.268,-5.091 5.385,-7.281 3.298,-3.413 7.072,-6.215 11.12,-8.661 6.512,-3.937 13.471,-6.883 20.688,-9.235 15.805,-5.151 32.1,-7.332 48.647,-7.873 6.224,-0.204 12.439,0.065 18.659,0.547 7.901,0.613 15.719,1.691 23.446,3.398 8.899,1.966 17.501,4.833 25.655,8.953 3.913,1.977 7.688,4.199 11.06,7.017 5.053,4.222 8.717,9.354 9.743,16.021 0.54,3.505 0.81,7.065 -0.49,10.473 -1.266,3.321 -3.026,6.361 -5.597,8.897 -3.617,3.568 -7.661,6.562 -12.013,9.157 -7.564,4.509 -15.691,7.684 -24.105,10.18 -14.772,4.381 -29.918,6.335 -45.271,6.864 -6.735,0.231 -13.453,-0.112 -20.166,-0.724 -6.711,-0.611 -13.36,-1.559 -20.78,-3.139 m 38.081,-299.571 c -0.237,4.001 0.215,8.042 -0.537,12.098 -0.943,0.207 -1.746,0.409 -2.559,0.557 -3.29,0.598 -5.956,2.157 -7.922,4.92 -0.876,1.23 -1.879,2.378 -2.905,3.49 -2.35,2.545 -5.156,4.258 -8.672,4.722 -1.325,0.175 -2.626,0.571 -3.922,0.925 -6.521,1.78 -11.319,5.739 -14.563,11.623 -0.731,1.324 -1.353,2.708 -2.048,4.052 -2.056,3.977 -5.162,6.554 -9.674,7.281 -1.827,0.295 -3.635,0.704 -5.463,0.98 -1.372,0.208 -2.542,0.808 -3.701,1.517 -2.782,1.701 -4.989,3.993 -6.82,6.647 -1.432,2.077 -2.761,4.224 -4.106,6.36 -1.105,1.755 -2.583,3.085 -4.403,4.053 -2.684,1.426 -5.4,2.56 -8.547,2.775 -4.126,0.282 -7.741,1.923 -10.734,4.957 -2.731,2.768 -5.389,5.551 -7.199,9.035 -0.233,0.447 -0.495,0.883 -0.784,1.295 -4.534,6.457 -9.918,11.86 -17.7,14.296 -0.48,0.15 -0.936,0.377 -1.407,0.558 -2.551,0.98 -4.779,2.461 -6.719,4.374 -2.281,2.249 -4.472,4.572 -6.032,7.413 -0.97,1.768 -2.014,3.495 -2.968,5.271 -1.036,1.929 -2.003,3.905 -3.621,5.426 -0.28,0.263 -0.878,0.187 -1.424,0.285 -0.209,-2.338 0.014,-4.516 0.108,-6.693 0.153,-3.532 0.358,-7.061 0.486,-10.593 0.442,-12.11 0.86,-24.221 1.286,-36.332 0.012,-0.337 0.043,-0.674 0.035,-1.01 -0.036,-1.552 0.441,-2.96 1.062,-4.367 1.232,-2.794 2.998,-5.261 4.657,-7.789 3.982,-6.066 8.483,-11.714 13.749,-16.73 3.291,-3.134 6.539,-6.312 9.86,-9.414 1.719,-1.606 3.504,-3.149 5.344,-4.617 8.549,-6.82 17.093,-13.648 25.707,-20.387 8.878,-6.946 17.834,-13.795 26.76,-20.68 1.465,-1.13 2.99,-2.185 4.423,-3.353 4.7,-3.832 9.662,-7.302 14.671,-10.709 1.947,-1.325 3.932,-2.61 5.764,-4.083 4.336,-3.484 8.885,-6.649 13.604,-9.587 1.854,-1.154 3.624,-2.447 5.408,-3.709 3.434,-2.429 6.846,-4.889 10.28,-7.318 0.545,-0.385 1.154,-0.68 1.739,-1.007 0.431,-0.241 1.133,0.084 1.152,0.539 0.042,1.004 0.127,2.012 0.089,3.014 -0.253,6.559 -0.57,13.116 -0.798,19.676 -0.339,9.756 -0.622,19.514 -0.956,30.239 m -79.888,229.495 c -4.381,4.559 -7.583,9.843 -9.611,15.951 -0.573,-0.243 -1.177,-0.302 -1.421,-0.63 -7.666,-10.31 -10.078,-21.826 -7.679,-34.374 1.321,-6.908 4.513,-12.995 8.627,-18.624 3.192,-4.368 6.925,-8.237 11.046,-11.737 6.717,-5.705 14.171,-10.238 22.174,-13.88 16.769,-7.631 34.459,-11.328 52.795,-11.965 13.172,-0.457 26.214,0.873 39.062,3.851 11.546,2.676 22.497,6.879 32.652,13.05 5.78,3.512 11.095,7.612 15.757,12.531 4.193,4.424 7.829,9.255 10.393,14.81 5.777,12.52 5.739,25.049 -0.139,37.534 -0.346,0.734 -0.895,1.373 -1.313,2 -1.076,-0.257 -1.508,-0.984 -1.976,-1.685 -4.369,-6.543 -10.073,-11.705 -16.587,-16.028 -5.912,-3.923 -12.219,-7.079 -18.827,-9.636 -13.606,-5.264 -27.754,-8.108 -42.267,-8.999 -12.453,-0.765 -24.884,-0.341 -37.22,1.819 -11.49,2.011 -22.591,5.253 -33.13,10.289 -8.105,3.872 -15.512,8.772 -22.336,15.723 m -45.665,-285.179 c 4.184,-6.956 9.055,-13.375 14.851,-19.077 3.489,-3.433 7.284,-6.487 11.241,-9.361 34.184,-24.831 68.498,-49.485 102.374,-74.738 0.669,-0.499 1.394,-0.94 2.143,-1.305 0.183,-0.089 0.793,0.198 0.818,0.37 0.149,0.985 0.277,1.992 0.238,2.985 -0.383,9.758 -0.812,19.514 -1.203,29.271 -0.479,11.945 -0.922,23.891 -1.402,35.835 -0.21,5.215 -0.471,10.428 -0.716,15.642 -0.039,0.824 0.011,1.684 -0.721,2.384 -0.424,0.083 -0.913,0.236 -1.41,0.264 -1.771,0.101 -3.251,0.852 -4.496,2.049 -0.967,0.93 -1.883,1.923 -2.742,2.954 -0.968,1.163 -1.862,2.389 -2.76,3.609 -1.414,1.921 -3.124,3.449 -5.209,4.673 -2.762,1.621 -5.521,3.228 -8.483,4.45 -5.039,2.078 -9.554,4.898 -13.364,8.859 -2.333,2.425 -4.957,4.512 -7.885,6.254 -2.747,1.635 -5.265,3.648 -7.344,6.12 -4.2,4.992 -9.479,8.513 -15.26,11.385 -1.5,0.745 -2.958,1.59 -4.372,2.489 -1.846,1.173 -3.657,2.406 -5.432,3.684 -2.742,1.974 -5.499,3.865 -8.946,4.442 -0.806,0.135 -1.565,0.605 -2.321,0.972 -2.889,1.404 -5.567,3.127 -8.008,5.229 -4.732,4.076 -9.085,8.509 -12.938,13.43 -0.518,0.661 -1.023,1.367 -1.667,1.885 -3.275,2.633 -6.432,5.421 -10.199,7.396 -1.931,1.011 -3.752,2.239 -5.587,3.423 -2.612,1.685 -4.521,3.933 -5.754,6.838 -1.19,2.804 -2.89,5.314 -5.201,7.369 -0.626,0.557 -1.129,1.249 -1.723,1.843 -0.338,0.338 -0.691,0.67 -1.274,0.573 -0.367,-0.061 -0.759,-0.564 -0.748,-1.156 0.024,-1.346 0.037,-2.693 0.096,-4.038 0.426,-9.755 0.882,-19.51 1.289,-29.266 0.204,-4.878 0.289,-9.76 0.496,-14.637 0.221,-5.224 0.91,-10.38 2.18,-15.471 2.38,-9.543 6.049,-18.539 11.439,-27.628 m 509.495,-8.22 c -1.116,-0.754 -2.248,-1.484 -3.344,-2.265 -2.743,-1.953 -5.435,-3.978 -8.215,-5.875 -1.664,-1.136 -3.388,-2.228 -5.204,-3.088 -4.456,-2.11 -9.122,-3.421 -14.124,-3.297 -3.713,0.093 -7.412,-0.138 -11.052,-0.926 -4.151,-0.899 -8.056,-2.281 -11.353,-5.165 -1.762,-1.541 -3.862,-2.692 -5.769,-4.076 -2.639,-1.916 -5.628,-3.026 -8.744,-3.8 -2.119,-0.527 -4.292,-0.837 -6.433,-1.281 -0.455,-0.094 -0.877,-0.349 -1.447,-0.585 -0.183,-2.069 -0.059,-4.077 0.076,-6.073 0.52,-7.736 0.625,-15.484 0.682,-23.232 0.073,-9.936 0.088,-19.874 0.128,-29.811 0.001,-0.168 0.018,-0.336 0.021,-0.504 0.016,-0.907 0.692,-1.68 1.53,-1.635 3.71,0.199 7.387,0.008 11.072,-0.513 1.817,-0.258 3.676,-0.043 5.519,0.336 5.785,1.189 11.397,2.933 16.912,5.02 1.73,0.655 3.49,1.23 5.229,1.861 4.743,1.722 9.492,3.427 14.219,5.19 3.627,1.353 7.215,2.815 11.05,3.507 2.186,0.394 4.187,1.235 6.021,2.487 0.834,0.57 1.67,1.141 2.539,1.654 3.04,1.795 6.043,3.643 9.419,4.811 1.9,0.658 3.687,1.638 5.527,2.468 3.067,1.383 6.083,2.896 9.214,4.114 5.656,2.2 10.98,5.101 16.496,7.594 4.751,2.148 9.465,4.382 14.154,6.665 3.779,1.84 7.732,3.303 11.396,5.399 1.746,0.999 3.654,1.712 5.482,2.569 1.219,0.572 2.465,1.1 3.63,1.768 4.393,2.52 9.073,4.418 13.704,6.426 4.629,2.007 9.252,4.031 13.883,6.035 6.484,2.805 12.909,5.764 19.482,8.346 5.33,2.094 10.604,4.277 15.737,6.809 0.905,0.447 1.792,0.966 2.745,1.277 5.611,1.834 10.94,4.285 16.221,6.921 7.222,3.605 14.606,6.888 21.914,10.322 1.217,0.572 2.444,1.14 3.6,1.823 5.369,3.17 10.95,5.923 16.584,8.579 10.955,5.165 21.898,10.356 32.867,15.492 3.502,1.639 7.027,3.246 10.619,4.673 3.448,1.37 6.799,2.912 10.085,4.629 2.681,1.401 5.383,2.798 8.184,3.929 9.842,3.972 19.255,8.844 28.701,13.633 3.302,1.675 6.613,3.32 9.986,4.834 9.517,4.273 19.442,7.557 28.946,11.867 1.072,0.485 2.199,0.846 3.29,1.291 3.737,1.522 7.498,2.991 11.195,4.604 4.162,1.815 8.264,3.766 12.394,5.654 3.21,1.467 6.404,2.973 9.639,4.383 7.711,3.361 15.443,6.671 23.161,10.014 1.08,0.468 2.147,0.972 3.186,1.525 3.119,1.661 6.196,3.402 9.336,5.024 5.83,3.011 11.617,6.123 17.56,8.897 9.909,4.624 19.974,8.909 29.799,13.717 1.209,0.592 2.451,1.117 3.692,1.64 4.031,1.698 8.061,3.4 12.107,5.065 3.745,1.54 7.304,3.401 10.696,5.632 3.088,2.032 6.254,3.93 9.743,5.29 1.851,0.721 3.484,2.007 5.204,3.057 1.117,0.682 1.494,1.725 1.46,3 -0.101,3.873 -0.162,7.747 -0.247,11.62 -0.177,8.083 -0.214,16.172 -0.579,24.247 -0.419,9.259 -0.598,18.516 -0.575,27.782 0.01,3.872 -0.138,7.744 -0.223,11.616 -0.008,0.332 0.005,0.719 -0.156,0.977 -0.145,0.232 -0.51,0.431 -0.79,0.447 -0.309,0.019 -0.684,-0.116 -0.94,-0.306 -3.983,-2.953 -8.469,-4.799 -13.214,-6.105 -0.97,-0.267 -1.899,-0.681 -2.852,-1.015 -2.302,-0.809 -4.111,-2.258 -5.514,-4.235 -0.292,-0.412 -0.551,-0.851 -0.873,-1.237 -1.29,-1.55 -2.461,-3.234 -3.929,-4.595 -3.155,-2.924 -6.891,-4.932 -11.227,-5.191 -4.097,-0.244 -7.942,-1.248 -11.774,-2.592 -2.681,-0.939 -4.767,-2.485 -6.139,-4.941 -1.583,-2.833 -3.87,-5.081 -6.051,-7.411 -0.914,-0.977 -1.932,-1.907 -3.051,-2.63 -4.429,-2.857 -9.16,-4.98 -14.484,-5.515 -1.005,-0.101 -2.009,-0.222 -3.014,-0.32 -2.678,-0.261 -5.372,-0.409 -8.032,-0.795 -4.503,-0.654 -8.956,-1.56 -13.115,-3.528 -4.28,-2.024 -8.484,-4.216 -11.668,-7.816 -4.314,-4.877 -9.706,-8.287 -15.191,-11.592 -1.001,-0.603 -2.105,-1.065 -3.208,-1.463 -6.031,-2.175 -12.178,-3.956 -18.564,-4.667 -3.05,-0.339 -5.948,-1.118 -8.808,-2.127 -5.871,-2.072 -10.855,-5.336 -14.238,-10.72 -0.908,-1.444 -2.029,-2.718 -3.438,-3.66 -3.517,-2.349 -7.2,-4.313 -11.482,-4.953 -5.826,-0.869 -11.641,-1.817 -17.452,-2.782 -5.575,-0.925 -10.666,-2.992 -15.114,-6.55 -1.322,-1.057 -2.529,-2.17 -3.497,-3.596 -3.942,-5.812 -9.06,-10.384 -15.14,-13.856 -4.545,-2.596 -9.282,-4.815 -14.462,-5.801 -5.617,-1.068 -11.241,-2.12 -16.937,-2.728 -4.552,-0.486 -8.957,-1.562 -13.019,-3.742 -2.371,-1.273 -4.679,-2.664 -7.003,-4.022 -3.644,-2.128 -7.072,-4.54 -10.231,-7.362 -3.775,-3.374 -7.83,-6.375 -12.48,-8.491 -0.915,-0.416 -1.77,-0.974 -2.627,-1.507 -4.594,-2.857 -9.544,-4.979 -14.533,-7.007 -1.395,-0.567 -2.874,-0.949 -4.337,-1.323 -5.053,-1.29 -10.089,-2.668 -15.183,-3.772 -7.059,-1.529 -13.226,-4.876 -19.064,-8.934 -3.316,-2.304 -6.51,-4.784 -9.791,-7.14 -5.786,-4.153 -12.112,-7.219 -18.868,-9.468 -3.692,-1.229 -7.506,-1.882 -11.271,-2.763 -5.138,-1.202 -9.903,-3.238 -14.353,-6.044 -1.423,-0.898 -2.837,-1.812 -4.244,-2.735 -2.119,-1.39 -4.118,-2.925 -5.824,-4.816 -2.04,-2.262 -4.402,-4.142 -6.832,-5.972 -6.469,-4.872 -13.685,-7.843 -21.713,-8.855 -0.836,-0.105 -1.675,-0.189 -2.503,-0.338 -6.996,-1.261 -13.79,-3.104 -20.497,-7.376 m -72.269,-123.53 c -0.043,-0.33 -0.156,-0.669 -0.119,-0.99 0.853,-7.366 1.451,-14.748 1.636,-22.163 0.291,-11.62 0.61,-23.239 0.943,-34.857 0.126,-4.375 0.316,-8.748 0.504,-13.12 0.021,-0.492 0.136,-1.021 0.363,-1.451 0.22,-0.416 0.582,-0.846 0.991,-1.051 0.427,-0.213 0.987,-0.239 1.483,-0.22 8.154,0.303 16.048,1.832 23.436,5.383 4.415,2.121 8.945,3.967 13.608,5.362 4.205,1.258 8.29,2.783 12.372,4.352 1.726,0.663 3.422,1.549 5.213,1.856 2.055,0.351 3.837,1.203 5.65,2.075 4.238,2.038 8.459,4.111 12.707,6.128 4.408,2.092 8.898,4.02 13.245,6.23 4.942,2.513 9.983,4.812 14.97,7.226 6.052,2.932 12.312,5.428 18.229,8.651 1.032,0.562 2.102,1.068 3.192,1.508 2.655,1.071 5.183,2.423 7.795,3.564 6.32,2.762 12.316,6.191 18.674,8.866 2.476,1.043 4.845,2.338 7.284,3.472 5.328,2.478 10.682,4.9 16,7.398 2.889,1.357 5.655,3.004 8.611,4.184 2.51,1.003 4.922,2.146 7.311,3.391 2.679,1.396 5.37,2.827 8.194,3.871 2.702,0.999 5.28,2.179 7.769,3.6 0.581,0.332 1.168,0.693 1.798,0.896 3.225,1.037 6.134,2.743 9.137,4.25 0.751,0.376 1.477,0.811 2.251,1.136 6.659,2.796 13.029,6.22 19.714,8.975 7.145,2.945 13.825,6.923 21.045,9.723 0.313,0.121 0.624,0.264 0.905,0.444 1.845,1.182 3.682,2.378 5.876,2.833 7.166,3.309 14.227,6.84 21.426,10.084 8.124,3.661 16.149,7.542 24.204,11.354 5.464,2.585 11.126,4.756 16.43,7.667 2.952,1.62 5.968,3.09 9.1,4.28 2.367,0.898 4.634,1.98 6.91,3.061 6.076,2.886 12.154,5.769 18.232,8.65 0.911,0.432 1.891,0.752 2.735,1.289 2.291,1.458 4.803,2.417 7.297,3.43 1.713,0.696 3.512,1.276 5.069,2.236 2.881,1.778 6.033,2.958 9.048,4.431 3.016,1.473 6.142,2.721 9.209,4.091 2.148,0.96 4.302,1.91 6.412,2.95 3.916,1.928 7.794,3.932 11.704,5.874 0.898,0.446 1.859,0.769 2.791,1.148 0.932,0.379 1.938,0.638 2.783,1.158 2.45,1.51 5.129,2.503 7.744,3.651 2.768,1.216 5.504,2.509 8.249,3.778 3.206,1.482 6.411,2.968 9.608,4.468 1.826,0.856 3.623,1.773 5.455,2.614 5.805,2.666 11.639,5.269 17.426,7.972 5.637,2.632 11.217,5.387 16.85,8.029 2.278,1.068 4.64,1.955 6.942,2.975 1.228,0.545 2.409,1.197 3.612,1.799 1.503,0.752 2.986,1.549 4.515,2.245 4.742,2.16 9.556,4.141 14.211,6.514 5.238,2.671 10.688,4.926 16.046,7.362 0.767,0.348 1.612,0.583 2.289,1.057 2.104,1.476 4.51,2.24 6.899,3.014 3.599,1.166 6.699,3.108 9.421,5.694 1.221,1.16 2.4,2.365 3.613,3.533 2.43,2.34 4.701,4.795 6.061,7.952 0.198,0.461 0.473,0.894 0.754,1.313 0.955,1.426 1.529,2.991 1.748,4.689 0.28,2.167 0.342,4.389 0.881,6.489 0.77,2.996 0.701,6.01 0.677,9.029 -0.013,1.671 -0.423,3.337 -0.497,5.012 -0.247,5.55 -0.402,11.105 -0.633,16.656 -0.223,5.382 -0.485,10.762 -0.764,16.141 -0.033,0.632 -0.28,1.252 -0.445,1.952 -5.348,-0.549 -10.507,-1.269 -15.65,-2.115 -1.161,-0.19 -2.318,-0.462 -3.487,-0.534 -1.879,-0.114 -3.632,-0.661 -5.389,-1.262 -2.864,-0.979 -5.735,-1.943 -8.617,-2.867 -3.047,-0.978 -6.085,-1.962 -8.896,-3.538 -0.878,-0.492 -1.841,-0.832 -2.739,-1.292 -6.137,-3.143 -12.271,-6.293 -18.395,-9.461 -0.744,-0.385 -1.4,-0.938 -2.134,-1.344 -1.911,-1.058 -3.801,-2.17 -5.778,-3.088 -2.135,-0.991 -4.347,-1.819 -6.547,-2.663 -8.186,-3.138 -16.058,-6.999 -23.749,-11.137 -9.054,-4.871 -18.314,-9.25 -27.689,-13.429 -6.144,-2.738 -12.356,-5.335 -18.254,-8.602 -1.172,-0.65 -2.4,-1.27 -3.677,-1.648 -4.223,-1.248 -8.097,-3.323 -11.981,-5.273 -8.124,-4.078 -16.684,-7.2 -24.694,-11.508 -0.296,-0.159 -0.6,-0.311 -0.915,-0.426 -2.717,-0.989 -5.127,-2.509 -7.45,-4.203 -3.269,-2.384 -6.76,-4.404 -10.371,-6.227 -1.651,-0.833 -3.263,-1.745 -4.888,-2.63 -1.182,-0.643 -2.325,-1.366 -3.54,-1.938 -6.706,-3.155 -13.52,-6.032 -20.673,-8.044 -1.292,-0.364 -2.551,-0.856 -3.803,-1.346 -5.007,-1.96 -10.142,-3.623 -14.8,-6.398 -0.717,-0.427 -1.512,-0.74 -2.298,-1.032 -5.059,-1.878 -9.896,-4.206 -14.651,-6.767 -6.366,-3.428 -12.882,-6.578 -19.253,-10.001 -1.186,-0.637 -2.383,-1.278 -3.634,-1.762 -5.017,-1.939 -9.999,-3.949 -14.884,-6.21 -5.8,-2.683 -11.84,-4.806 -17.648,-7.492 -2.888,-1.335 -5.994,-2.198 -9.003,-3.271 -2.534,-0.904 -5.066,-1.789 -7.523,-2.917 -3.667,-1.684 -7.433,-3.15 -11.156,-4.712 -2.013,-0.845 -4.03,-1.681 -6.031,-2.553 -1.233,-0.537 -2.427,-1.164 -3.661,-1.698 -4.323,-1.869 -8.698,-3.621 -12.755,-6.057 -0.858,-0.515 -1.816,-0.874 -2.748,-1.257 -5.136,-2.11 -10.073,-4.614 -15.024,-7.13 -7.932,-4.03 -15.676,-8.512 -24.22,-11.245 -0.956,-0.306 -1.866,-0.773 -2.773,-1.216 -4.987,-2.441 -9.984,-4.863 -14.944,-7.359 -5.715,-2.877 -11.528,-5.546 -17.469,-7.903 -2.971,-1.178 -5.973,-2.283 -8.857,-3.652 -2.291,-1.088 -4.656,-1.924 -7.052,-2.726 -3.667,-1.228 -7.32,-2.509 -10.934,-3.888 -4.871,-1.859 -9.691,-3.835 -14.781,-5.073 -4.132,-1.005 -7.958,-2.703 -11.146,-5.632 -0.743,-0.682 -1.584,-1.257 -2.343,-1.923 -5.31,-4.658 -11.489,-7.569 -18.331,-9.149 -5.935,-1.371 -11.602,-3.456 -16.993,-6.296 -1.34,-0.706 -2.733,-1.308 -4.087,-1.989 -5.006,-2.518 -10.234,-4.292 -16.484,-5.28 m 300.946,340.828 c 8.767,-3.672 17.441,-6.344 26.426,-7.926 3.808,-0.67 7.654,-1.14 11.495,-1.605 6.363,-0.769 12.758,-1.035 19.162,-0.823 2.106,0.069 3.938,-0.473 5.772,-1.443 10.27,-5.427 20.567,-10.803 30.864,-16.178 1.483,-0.774 2.879,-1.761 4.562,-2.046 7.922,2.2 8.074,2.257 12.727,4.738 -0.056,0.289 -0.013,0.724 -0.187,0.842 -0.963,0.659 -1.95,1.298 -2.982,1.841 -7.599,3.996 -15.212,7.965 -22.818,11.948 -0.894,0.468 -1.82,0.901 -2.633,1.487 -0.282,0.204 -0.266,0.822 -0.406,1.325 6.728,1.465 13.245,3.121 19.58,5.432 8.102,2.956 15.779,6.746 22.913,11.611 7.172,4.89 13.297,10.851 18.24,17.994 3.878,5.605 6.635,11.691 7.797,18.461 1.502,8.746 0.279,17.095 -3.492,25.098 -0.401,0.851 -1.37,0.857 -1.961,0.008 -0.577,-0.828 -1.126,-1.677 -1.694,-2.513 -3.051,-4.495 -6.751,-8.388 -10.966,-11.801 -3.938,-3.189 -8.151,-5.961 -12.624,-8.342 -6.261,-3.333 -12.806,-5.975 -19.578,-8.063 -8.06,-2.485 -16.278,-4.183 -24.65,-5.265 -11.247,-1.454 -22.517,-1.586 -33.778,-0.652 -14.167,1.174 -27.96,4.093 -41.023,9.943 -5.703,2.553 -11.157,5.532 -16.241,9.175 -3.846,2.757 -7.402,5.844 -10.526,9.406 -4.399,5.017 -7.751,10.584 -8.957,17.267 -0.046,0.258 -0.324,0.607 -0.557,0.666 -0.274,0.071 -0.686,-0.044 -0.916,-0.231 -0.384,-0.311 -0.703,-0.72 -0.994,-1.128 -3.868,-5.43 -6.482,-11.39 -7.593,-17.988 -0.138,-0.821 -0.358,-1.638 -0.644,-2.419 -0.086,-0.236 -0.538,-0.498 -0.798,-0.474 -0.486,0.044 -0.981,0.233 -1.423,0.458 -2.1,1.069 -4.184,2.17 -6.273,3.261 -60.283,31.487 -120.57,62.967 -180.842,94.474 -5.616,2.935 -4.886,1.734 -4.903,7.968 -0.071,26.615 -0.104,53.23 -0.161,79.845 -0.012,5.727 -0.075,11.454 -0.093,17.181 -0.003,1.169 0.093,2.338 0.148,3.619 0.919,0.495 1.759,1.04 2.668,1.421 6.23,2.616 12.713,4.434 19.299,5.855 10.88,2.347 21.884,3.817 33.012,4.284 5.215,0.219 10.43,0.554 15.647,0.593 10.951,0.081 21.874,-0.568 32.79,-1.453 7.725,-0.627 15.418,-1.509 23.083,-2.588 12.67,-1.783 25.248,-4.122 37.712,-7.02 19.037,-4.425 37.74,-9.978 55.974,-17.046 5.02,-1.945 9.977,-4.027 14.85,-6.344 22.81,-10.845 45.198,-22.524 67.696,-33.988 47.096,-23.999 94.171,-48.04 141.264,-72.045 3.46,-1.764 6.718,-3.86 9.933,-5.998 12.148,-8.079 22.88,-17.729 31.833,-29.294 4.449,-5.747 8.223,-11.906 11.274,-18.513 1.298,-2.811 2.114,-5.649 1.656,-8.794 -0.244,-1.671 -0.051,-3.359 0.376,-4.834 0.489,-0.995 1.359,-1.181 2.098,-1.542 6.231,-3.043 9.604,-8.267 11.125,-14.81 0.882,-3.795 1.076,-7.637 0.41,-11.536 -0.845,-4.947 -3.12,-12.388 -5.187,-15.717 -1.15,-1.853 -2.496,-3.585 -3.812,-5.455 -0.434,-2.917 -0.238,-5.933 0.018,-8.958 0.754,-8.894 1.386,-17.793 1.676,-26.72 0.438,-13.467 1.08,-26.927 1.651,-40.389 0.042,-1 0.205,-1.995 0.32,-3.07 0.791,-0.398 1.508,-0.836 2.279,-1.133 2.478,-0.953 4.297,-2.687 5.546,-4.941 2.632,-4.752 3.575,-9.68 1.725,-15.045 -1.339,-3.881 -2.89,-7.542 -5.983,-10.362 -0.498,-0.455 -1.024,-0.879 -1.484,-1.272 -0.353,-4.219 -0.219,-8.253 -0.109,-12.285 0.023,-0.841 0.16,-1.682 0.139,-2.521 -0.201,-8.263 0.587,-16.49 0.844,-24.735 0.121,-3.869 0.186,-7.76 -0.079,-11.617 -0.587,-8.571 -3.116,-16.507 -8.365,-23.45 -1.025,-1.357 -2.152,-2.586 -3.576,-3.527 -0.983,-0.65 -1.931,-1.363 -2.958,-1.935 -3.372,-1.879 -6.688,-3.884 -10.175,-5.525 -26.345,-12.403 -52.702,-24.785 -79.102,-37.071 -60.736,-28.265 -121.481,-56.514 -182.258,-84.691 -48.865,-22.655 -97.772,-45.223 -146.685,-67.775 -23.232,-10.711 -46.562,-21.209 -70.045,-31.365 -3.551,-1.535 -7.106,-3.083 -10.551,-4.837 -5.425,-2.761 -11.177,-4.66 -16.878,-6.698 -4.118,-1.472 -8.303,-2.747 -12.295,-4.571 -1.52,-0.694 -3.152,-1.196 -4.779,-1.595 -5.396,-1.324 -10.84,-2.432 -16.377,-2.962 -1.831,-0.175 -3.699,-0.12 -5.539,-0.003 -1.071,0.068 -1.988,0.851 -2.16,1.865 -0.419,2.473 -1.292,4.836 -1.359,7.408 -0.187,7.239 -0.552,14.474 -0.88,21.709 -0.273,6.057 -0.708,12.109 -0.862,18.169 -0.192,7.576 -0.169,15.157 -0.238,22.737 -0.018,2.016 -0.029,4.032 -0.041,5.697 -0.559,1.184 -1.376,1.481 -2.136,1.786 -3.128,1.253 -5.353,3.455 -6.784,6.458 -1.561,3.276 -2.151,6.701 -1.454,10.318 0.825,4.277 2.724,7.935 6.039,10.809 0.381,0.331 0.754,0.68 1.174,0.957 1.136,0.751 1.353,1.852 1.252,3.093 -0.028,0.336 -0.052,0.672 -0.09,1.006 -0.955,8.372 -1.392,16.782 -1.816,25.191 -0.543,10.766 -1.015,21.535 -1.525,32.302 -0.023,0.498 -0.118,0.992 -0.167,1.385 -0.417,0.92 -1.208,1.284 -1.866,1.793 -0.798,0.617 -1.639,1.188 -2.378,1.87 -5.698,5.262 -6.949,11.689 -4.691,18.891 1.024,3.264 2.915,6.061 5.627,8.223 0.216,0.172 0.652,0.223 0.918,0.131 0.258,-0.09 0.572,-0.41 0.617,-0.67 0.495,-2.883 0.278,-5.542 -1.382,-8.191 -1.876,-2.994 -1.73,-6.448 -0.851,-9.803 0.298,-1.136 1.003,-2.04 1.97,-2.842 3.273,-2.716 7.045,-3.03 10.977,-2.415 4.363,0.683 8.519,1.995 12.078,4.774 0.928,0.724 1.955,1.331 2.834,2.108 5.118,4.529 11.225,6.626 17.887,7.442 3.011,0.369 6.013,0.753 9.056,0.645 5.414,-0.192 10.29,1.504 14.764,4.407 2.682,1.739 5.349,3.531 7.842,5.525 4.119,3.293 8.758,5.673 13.451,7.946 1.949,0.945 4.089,1.589 6.21,2.066 4.101,0.921 8.231,1.751 12.385,2.392 5.774,0.891 11.016,3.044 15.806,6.298 2.781,1.891 5.482,3.911 7.731,6.469 2.016,2.293 4.431,4.125 6.987,5.777 1.555,1.006 3.091,2.042 4.666,3.015 5.054,3.121 10.466,5.38 16.271,6.678 2.624,0.587 5.275,1.078 7.866,1.79 7.374,2.028 14.166,5.293 20.335,9.835 2.982,2.195 5.902,4.483 8.978,6.539 3.215,2.148 6.511,4.201 9.904,6.051 3.564,1.942 7.518,2.937 11.425,3.959 4.395,1.15 8.822,2.181 13.245,3.222 2.629,0.618 5.195,1.412 7.666,2.501 4.006,1.764 8.01,3.528 11.725,5.875 0.853,0.539 1.719,1.079 2.637,1.49 4.359,1.951 8.105,4.812 11.614,7.97 4.039,3.634 8.585,6.495 13.271,9.167 2.045,1.166 4.092,2.333 6.192,3.394 4.419,2.233 9.222,3.095 14.063,3.81 5.327,0.786 10.689,1.411 15.959,2.482 5.149,1.046 9.896,3.293 14.313,6.143 5.689,3.672 7.888,5.884 12.216,11.864 0.589,0.813 1.203,1.646 1.957,2.293 4.12,3.534 8.584,6.442 13.846,8.095 4.367,1.372 8.865,1.911 13.337,2.662 3.649,0.612 7.301,1.215 10.957,1.785 2.905,0.454 5.382,1.886 7.821,3.385 1.15,0.707 2.077,1.695 2.819,2.851 2.513,3.917 6.068,6.659 9.935,9.158 5.361,3.466 11.172,5.385 17.476,6.038 5.901,0.612 11.504,2.446 17.081,4.349 0.789,0.27 1.546,0.679 2.262,1.115 4.893,2.98 9.689,6.051 13.579,10.39 3.774,4.209 8.647,6.931 13.746,9.219 6.544,2.937 13.528,3.967 20.598,4.58 1.841,0.159 3.674,0.4 5.515,0.554 3.976,0.331 7.444,2.033 10.769,4.051 1.134,0.688 2.175,1.604 3.083,2.58 1.945,2.089 3.933,4.142 5.384,6.658 1.844,3.197 4.677,5.24 8.132,6.457 1.746,0.615 3.506,1.193 5.226,1.873 1.431,0.566 2.889,0.888 4.422,0.93 0.672,0.019 1.342,0.128 2.014,0.148 5.477,0.162 9.576,2.788 12.729,7.106 0.595,0.815 1.149,1.66 1.735,2.482 1.713,2.4 3.993,4.086 6.702,5.185 1.559,0.631 3.132,1.268 4.752,1.698 4.292,1.14 8.18,3.058 11.741,5.69 1.083,0.799 2.233,1.506 3.35,2.259 1.851,1.248 3.298,2.873 4.384,4.81 3.745,6.682 5.28,13.812 4.078,21.418 -0.707,4.466 -2.652,8.32 -6.284,11.177 -0.68,0.534 -1.442,0.863 -2.431,0.355 -0.115,-0.569 -0.283,-1.218 -0.374,-1.878 -0.516,-3.744 -1.985,-7.138 -4.038,-10.246 -1.121,-1.695 -2.093,-3.448 -3.004,-5.249 -2.25,-4.449 -5.349,-8.152 -9.625,-10.78 -2.723,-1.673 -5.491,-3.274 -8.253,-4.884 -0.871,-0.508 -1.832,-0.87 -2.677,-1.415 -7.814,-5.037 -16.359,-8.635 -24.714,-12.608 -4.71,-2.239 -9.468,-4.389 -14.103,-6.777 -5.986,-3.084 -12.137,-5.817 -18.181,-8.774 -4.534,-2.218 -9.036,-4.501 -13.567,-6.724 -1.812,-0.889 -3.639,-1.757 -5.503,-2.529 -7.463,-3.092 -14.753,-6.57 -22.109,-9.9 -4.596,-2.081 -9.043,-4.408 -13.172,-7.407 -3.962,-2.878 -8.464,-4.897 -13.357,-5.707 -2.695,-0.447 -5.21,-1.33 -7.688,-2.389 -6.186,-2.642 -12.364,-5.303 -18.543,-7.962 -0.773,-0.333 -1.548,-0.667 -2.297,-1.049 -5.251,-2.673 -10.619,-5.081 -16.036,-7.402 -7.422,-3.18 -14.778,-6.519 -22.112,-9.9 -5.958,-2.748 -11.786,-5.776 -17.828,-8.352 -8.671,-3.697 -17.114,-7.875 -25.494,-12.183 -1.197,-0.615 -2.412,-1.214 -3.67,-1.684 -6.947,-2.593 -13.356,-6.382 -20.255,-9.081 -1.406,-0.55 -2.777,-1.23 -4.084,-1.988 -5.403,-3.133 -11.154,-5.528 -16.841,-8.062 -0.922,-0.411 -1.848,-0.821 -2.731,-1.306 -5.763,-3.163 -11.77,-5.809 -17.821,-8.35 -5.602,-2.352 -10.959,-5.137 -16.09,-8.4 -2.835,-1.803 -5.803,-3.416 -8.795,-4.952 -2.846,-1.461 -5.84,-2.561 -9.036,-3.086 -1.14,-0.187 -2.292,-0.595 -3.318,-1.132 -5.677,-2.974 -11.622,-5.324 -17.562,-7.69 -1.093,-0.436 -2.218,-0.825 -3.248,-1.384 -3.706,-2.011 -7.588,-3.627 -11.463,-5.269 -1.701,-0.721 -3.402,-1.489 -4.984,-2.435 -2.323,-1.389 -4.775,-2.474 -7.24,-3.562 -3.848,-1.697 -7.604,-3.614 -11.494,-5.204 -6.713,-2.743 -13.105,-6.093 -19.502,-9.488 -4.59,-2.437 -9.485,-4.33 -14.331,-6.244 -4.081,-1.613 -7.985,-3.566 -11.923,-5.47 -3.028,-1.465 -6.11,-2.818 -9.171,-4.212 -4.747,-2.162 -9.498,-4.315 -14.246,-6.475 -1.378,-0.627 -2.745,-1.28 -4.129,-1.895 -6.463,-2.869 -12.837,-5.921 -18.983,-9.427 -1.753,-1 -3.455,-2.092 -5.155,-3.183 -3.415,-2.19 -7.014,-3.992 -10.849,-5.331 -3.491,-1.219 -6.935,-2.58 -10.451,-3.718 -2.399,-0.776 -4.823,-1.417 -7.073,-2.617 -1.018,-0.543 -2.201,-0.838 -3.344,-1.07 -3.622,-0.736 -7.259,-1.394 -10.893,-2.064 -0.32,-0.059 -0.72,-0.092 -0.985,0.047 -0.416,0.22 -0.816,0.548 -1.094,0.925 -0.174,0.236 -0.181,0.653 -0.147,0.977 0.295,2.846 0.585,5.694 0.938,8.534 0.313,2.522 0.348,5.008 -0.103,7.537 -0.986,5.519 -0.897,11.063 -0.016,16.596 0.106,0.665 0.252,1.329 0.292,1.999 0.833,13.779 2.49,27.511 2.413,41.342 -0.018,3.198 -0.108,6.397 -0.199,9.595 -0.114,4.05 -0.038,8.074 0.865,12.06 0.743,3.277 1.385,6.581 1.97,9.891 0.469,2.648 1.108,5.324 1.105,7.987 -0.007,6.422 0.673,12.772 1.436,19.123 0.222,1.848 0.388,3.678 0.159,5.535 -0.082,0.662 -0.127,1.352 -0.041,2.009 0.917,7.008 1.168,14.082 2.166,21.086 0.473,3.322 0.571,6.696 1.164,10.018 0.234,1.307 0.043,2.687 0.064,4.034 0.037,2.355 0.074,4.711 0.138,7.065 0.028,0.995 0.822,1.485 1.697,1.055 1.359,-0.667 2.711,-1.349 4.047,-2.061 57.341,-30.572 114.679,-61.15 172.023,-91.715 1.774,-0.945 3.622,-1.751 5.435,-2.622 2.374,0.126 4.638,0.856 6.827,1.636 2.52,0.898 4.889,2.229 7.31,3.4 0.645,0.312 0.579,1.164 -0.11,1.562 -1.164,0.672 -2.335,1.333 -3.52,1.967 -54.482,29.134 -108.966,58.265 -163.45,87.396 -8.314,4.445 -16.63,8.885 -24.941,13.335 -1.187,0.635 -2.349,1.316 -3.523,1.976 -0.671,0.376 -0.792,1.033 -0.866,1.71 -0.018,0.165 -0.01,0.338 0.02,0.502 0.596,3.302 1.099,6.624 1.82,9.898 1.019,4.626 1.566,9.297 1.673,14.021 0.034,1.508 -0.081,3.03 -0.259,4.529 -0.097,0.816 -0.372,1.648 -0.742,2.385 -0.718,1.435 -1.834,2.419 -3.553,2.408 -1.342,-0.009 -2.686,-0.034 -4.022,-0.133 -1.194,-0.088 -2.334,-0.465 -3.267,-1.228 -2.032,-1.66 -4.452,-2.297 -6.94,-2.815 -1.151,-0.24 -2.277,-0.599 -3.42,-0.877 -3.152,-0.767 -6.023,-2.073 -8.561,-4.141 -3.073,-2.504 -6.745,-3.74 -10.538,-4.625 -0.61,-0.142 -1.373,-0.049 -1.958,0.194 -1.393,0.58 -2.741,1.281 -4.075,1.994 -23.908,12.769 -47.81,25.548 -71.714,38.323 -10.393,5.554 -20.844,11.002 -31.167,16.684 -11.651,6.414 -23.493,12.465 -35.193,18.784 -13.183,7.121 -26.415,14.15 -39.642,21.186 -1.313,0.698 -2.522,1.729 -4.144,1.691 -0.164,-0.287 -0.437,-0.554 -0.461,-0.841 -0.238,-2.876 -0.971,-5.627 -1.961,-8.328 -0.507,-1.381 -0.189,-2.067 1.186,-2.912 1.003,-0.617 2.038,-1.183 3.053,-1.781 8.85,-5.21 17.694,-10.431 26.552,-15.627 1.887,-1.107 3.81,-2.155 5.74,-3.184 42.924,-22.903 85.852,-45.799 128.777,-68.7 1.483,-0.791 2.968,-1.584 4.393,-2.471 0.285,-0.177 0.302,-0.785 0.471,-1.278 -1.803,-0.427 -3.429,-0.85 -5.071,-1.194 -2.667,-0.559 -5.127,-1.536 -7.397,-3.089 -2.499,-1.711 -5.145,-3.173 -7.963,-4.346 -1.854,-0.772 -3.683,-1.719 -5.32,-2.875 -2.902,-2.052 -6.074,-3.604 -9.151,-5.332 -1.026,-0.576 -2.07,-1.15 -3.168,-1.559 -4.579,-1.704 -9.048,-3.654 -13.431,-5.807 -1.006,-0.494 -1.948,-0.339 -2.833,0.318 -0.675,0.503 -1.358,0.996 -2.037,1.494 -10.119,7.414 -21.429,11.999 -33.815,13.703 -8.234,1.133 -16.469,0.827 -24.492,-1.747 -6.038,-1.937 -11.432,-4.913 -15.705,-9.7 -0.444,-0.498 -0.801,-1.076 -1.187,-1.624 -0.265,-0.377 -0.219,-1.134 0.115,-1.404 0.912,-0.737 1.797,-1.519 2.772,-2.162 6.186,-4.078 12.391,-8.126 18.594,-12.178 1.55,-1.012 3.106,-2.018 4.679,-2.996 0.706,-0.439 1.459,-0.801 2.292,-1.253 0.578,0.457 1.173,0.793 1.594,1.28 5.752,6.641 12.874,7.242 20.697,4.713 0.42,-0.136 0.777,-0.571 1.079,-0.936 0.293,-0.354 -0.1,-0.749 -1.213,-1.254 -0.459,-0.208 -0.913,-0.429 -1.375,-0.632 -2.464,-1.084 -4.953,-2.115 -7.389,-3.258 -2.437,-1.142 -4.812,-2.415 -7.232,-3.594 -2.42,-1.18 -4.837,-2.374 -7.302,-3.455 -4.74,-2.081 -3.948,-2.606 -8.493,0.878 -0.696,0.532 -1.497,0.734 -2.37,0.443 -0.159,-0.054 -0.331,-0.077 -0.484,-0.143 -5.096,-2.2 -10.192,-4.399 -15.282,-6.614 -0.666,-0.29 -0.853,-1.205 -0.367,-1.655 0.74,-0.685 1.507,-1.339 2.25,-2.02 0.493,-0.452 0.968,-0.925 1.445,-1.395 0.319,-0.315 0.247,-1.159 -0.126,-1.297 -2.364,-0.874 -4.712,-1.797 -7.104,-2.588 -7.98,-2.64 -15.976,-5.232 -23.967,-7.838 -0.158,-0.051 -0.335,-0.039 -0.498,-0.079 -0.568,-0.139 -1.251,0.698 -1.018,1.327 0.288,0.779 0.568,1.588 1.016,2.277 1.216,1.874 2.947,3.216 4.826,4.373 2.308,1.421 4.81,2.409 7.361,3.288 0.794,0.274 1.585,0.561 2.355,0.895 0.296,0.128 0.528,0.402 0.856,0.663 -0.135,0.438 -0.168,0.991 -0.447,1.355 -0.508,0.663 -1.134,1.244 -1.758,1.807 -6.748,6.096 -13.537,12.148 -20.239,18.295 -1.67,1.532 -3.268,2.007 -5.471,1.235 -5.599,-1.962 -10.914,-4.424 -15.636,-8.063 -2.416,-1.861 -4.57,-3.98 -6.335,-6.478 -4.592,-6.496 -5.731,-13.513 -3.208,-21.099 1.073,-3.226 2.653,-6.183 4.587,-8.96 0.768,-1.105 1.585,-2.175 2.37,-3.268 0.246,-0.342 0.081,-1.088 -0.289,-1.347 -0.687,-0.482 -1.358,-0.995 -2.08,-1.419 -2.324,-1.362 -4.645,-2.72 -6.752,-4.42 -1.051,-0.847 -2.216,-1.509 -3.587,-1.771 -0.822,-0.157 -1.651,-0.387 -2.415,-0.723 -4.308,-1.896 -8.661,-3.708 -12.875,-5.796 -3.629,-1.798 -7.264,-3.563 -11.137,-4.724 -4.565,-1.368 -8.691,-3.642 -12.745,-6.019 -3.638,-2.133 -7.368,-4.052 -11.163,-5.87 -1.512,-0.723 -2.965,-1.582 -4.384,-2.477 -0.565,-0.356 -0.821,-1.035 -0.848,-1.752 -0.023,-0.617 0.515,-1.443 1.067,-1.521 0.496,-0.071 1.031,-0.214 1.496,-0.103 3.445,0.826 6.783,1.926 9.861,3.753 3.616,2.147 7.273,4.227 10.935,6.296 1.17,0.661 2.381,1.268 3.622,1.779 6.534,2.691 13.078,5.355 19.631,7.999 1.246,0.503 2.54,0.894 3.823,1.302 4.351,1.384 8.429,3.312 12.327,5.714 7.457,4.597 15.161,8.748 23.323,11.976 4.849,1.917 9.783,3.625 14.603,5.608 6.853,2.82 13.959,4.892 20.938,7.334 0.953,0.334 1.974,0.57 2.824,1.082 3.921,2.359 8.326,3.624 12.412,5.601 1.817,0.88 3.682,1.679 5.434,2.674 4.696,2.667 9.643,4.767 14.632,6.805 3.109,1.271 6.125,2.783 9.132,4.288 2.556,1.279 5.082,2.632 7.548,4.078 5.124,3.007 10.671,4.926 16.329,6.592 4.699,1.385 9.181,3.248 13.421,5.742 5.661,3.33 11.532,6.237 17.674,8.616 2.653,1.028 5.175,2.435 7.666,3.831 2.494,1.396 4.882,2.982 7.304,4.505 3.561,2.24 7.116,4.49 10.664,6.751 4.618,2.943 9.625,4.75 15.094,5.232 4.409,0.389 8.577,1.751 12.631,3.395 4.357,1.768 8.752,3.459 12.786,5.981 2.562,1.602 5.472,2.538 8.42,3.323 4.547,1.212 8.993,2.748 13.329,4.595 0.92,0.392 1.914,0.615 2.884,0.881 0.572,0.156 1.364,-0.446 1.432,-1.067 0.592,-5.413 0.459,-10.781 -1.464,-15.942 -0.836,-2.245 -1.295,-4.503 -1.421,-6.882 -0.349,-6.555 -0.932,-13.087 -1.77,-19.604 -0.385,-2.994 -0.382,-6.053 -0.368,-9.081 0.019,-3.724 -0.321,-7.406 -0.948,-11.061 -1.284,-7.492 -1.692,-15.051 -1.854,-22.633 -0.018,-0.841 -0.034,-1.682 -0.063,-2.523 -0.04,-1.174 -0.775,-1.945 -1.775,-2.194 -5.113,-1.274 -9.736,-3.701 -14.423,-5.983 -3.625,-1.765 -7.262,-3.509 -10.861,-5.326 -1.497,-0.756 -2.929,-1.651 -4.358,-2.533 -1.575,-0.973 -3.119,-1.997 -4.668,-3.011 -4.382,-2.871 -9.085,-5.14 -13.911,-7.112 -6.088,-2.487 -11.866,-5.599 -17.741,-8.509 -7.687,-3.807 -15.27,-7.823 -22.9,-11.745 -0.448,-0.23 -0.907,-0.442 -1.371,-0.637 -4.034,-1.7 -7.913,-3.69 -11.681,-5.928 -5.788,-3.439 -11.867,-6.33 -18.002,-9.09 -6.129,-2.758 -12.285,-5.459 -18.451,-8.133 -2.004,-0.87 -4.093,-1.542 -6.117,-2.368 -3.27,-1.333 -6.542,-2.664 -9.77,-4.094 -7.224,-3.2 -14.455,-6.383 -21.815,-9.266 -2.819,-1.104 -5.6,-2.306 -8.413,-3.429 -2.341,-0.934 -4.697,-1.831 -7.055,-2.72 -5.981,-2.255 -11.931,-4.579 -17.761,-7.212 -2.439,-1.102 -4.975,-1.932 -7.63,-2.532 -3.262,-0.737 -6.431,-1.954 -9.568,-3.154 -4.869,-1.861 -9.691,-3.848 -14.504,-5.853 -2.017,-0.84 -4.032,-1.732 -5.921,-2.821 -4.701,-2.71 -9.756,-4.558 -14.896,-6.144 -4.509,-1.392 -8.883,-3.086 -13.244,-4.867 -4.511,-1.842 -9.082,-3.552 -13.692,-5.128 -3.537,-1.208 -6.667,-3.196 -10.001,-4.789 -0.368,-0.175 -0.773,-0.822 -0.737,-1.21 0.293,-3.179 0.684,-6.349 1.055,-9.52 0.049,-0.422 0.739,-0.802 1.145,-0.65 1.1,0.412 2.235,0.756 3.288,1.267 3.482,1.687 6.956,3.393 10.388,5.179 1.936,1.007 3.774,2.203 5.675,3.279 1.316,0.746 2.629,1.517 4.011,2.124 1.553,0.682 3.186,1.014 4.923,0.651 3.391,-0.708 6.663,-0.188 9.932,0.879 3.673,1.2 7.392,2.278 11.136,3.232 2.966,0.756 6.024,0.799 9.002,0.025 1.553,-0.404 2.954,-0.205 4.455,0.161 4.326,1.056 8.107,3.282 11.86,5.508 3.614,2.144 7.063,4.543 10.217,7.377 4.152,3.73 8.79,6.76 13.943,8.996 2.773,1.204 5.505,2.539 8.135,4.028 2.973,1.683 6.15,2.781 9.432,3.49 5.794,1.253 11.3,3.249 16.668,5.719 2.596,1.195 5.298,2.105 8.114,2.73 2.782,0.617 5.516,1.479 8.235,2.349 2.402,0.768 4.722,1.726 6.918,3.028 4.822,2.859 10.012,4.776 15.578,5.61 1.685,0.252 3.241,0.886 4.741,1.668 1.791,0.933 3.595,1.845 5.363,2.821 2.945,1.626 5.854,3.32 8.803,4.939 3.552,1.951 6.841,4.24 9.848,6.978 1.988,1.811 4.194,3.378 6.651,4.545 4.424,2.103 8.604,4.581 12.346,7.785 1.005,0.861 2.271,1.435 3.463,2.055 4.478,2.328 8.934,4.696 13.373,7.1 4.281,2.319 8.714,4.446 13.27,6.148 4.709,1.759 9.647,2.904 14.485,4.318 5.412,0.488 9.82,3.235 14.122,6.246 4,2.8 8.159,5.346 12.504,7.577 1.945,0.999 3.94,1.886 6.089,2.366 0.593,0.133 1.504,-0.428 1.506,-1.005 0.006,-3.024 0.027,-6.049 -0.051,-9.071 -0.043,-1.68 -0.374,-3.354 -0.396,-5.033 -0.047,-3.723 -0.46,-7.374 -1.512,-10.962 -0.326,-1.111 -0.391,-2.32 -0.435,-3.49 -0.101,-2.692 -0.131,-5.387 -0.162,-8.081 -0.035,-3.026 0.184,-6.068 -0.777,-9.018 -0.152,-0.468 -0.145,-0.999 -0.156,-1.502 -0.129,-6.065 -1.638,-12.022 -1.424,-18.113 -0.992,-6.15 -0.889,-12.433 -2.268,-18.54 -0.295,-1.304 -0.32,-2.671 -0.438,-4.012 -0.353,-4.026 -0.669,-8.055 -1.05,-12.078 -0.094,-0.996 -0.317,-1.994 -0.608,-2.952 -0.134,-0.442 -0.492,-0.945 -0.888,-1.155 -1.337,-0.707 -2.725,-1.322 -4.115,-1.925 -16.057,-6.966 -32.109,-13.948 -48.182,-20.878 -35.084,-15.127 -70.177,-30.229 -105.272,-45.329 -4.328,-1.863 -8.686,-3.658 -13.036,-5.47 -0.931,-0.387 -55.878,-24.926 -56.651,-25.256 -18.72,-8.016 -37.335,-16.281 -56.229,-23.887 -1.716,-0.691 -3.465,-1.299 -5.188,-1.973 -1.012,-0.396 -2.011,-0.329 -2.933,0.146 -1.341,0.692 -2.681,1.412 -3.928,2.258 -3.621,2.46 -7.227,4.945 -10.785,7.495 -31.481,22.563 -63.03,45.031 -94.392,67.757 -18.448,13.368 -31.031,31.098 -37.651,52.978 -2.063,6.82 -2.959,13.803 -3.243,20.902 -0.263,6.562 -0.676,13.118 -1.027,19.677 -0.053,1.009 -0.139,2.016 -0.191,3.025 -0.476,9.251 -0.939,18.503 -1.43,27.754 -0.124,2.354 -0.357,4.703 -0.495,7.056 -0.082,1.389 -0.5,2.622 -1.317,3.752 -0.788,1.091 -1.506,2.232 -2.257,3.349 -1.718,2.558 -2.689,5.401 -3.327,8.396 -0.733,3.444 -0.2,6.71 1.31,9.817 0.425,0.873 1.178,1.628 1.909,2.296 0.73,0.667 1.62,1.158 2.552,1.803 0.026,0.997 0.11,1.998 0.069,2.993 -0.649,15.482 -1.314,30.964 -1.975,46.445 -0.057,1.347 -0.202,2.696 -0.153,4.039 0.113,3.132 -0.369,6.031 -2.787,8.297 -2.747,4.1 -4.576,8.613 -5.937,13.327 -2.926,10.136 -3.022,20.25 0.27,30.335 1.645,5.04 4.108,9.599 7.928,13.323 1.268,1.237 2.036,2.615 2.307,4.356 0.473,3.034 1.701,5.797 3.163,8.474 3.333,6.1 7.463,11.612 12.284,16.603 9.848,10.193 21.417,17.885 34.411,23.46 1.844,0.791 3.81,1.299 5.716,1.949 0.56,0.191 1.151,0.969 1.115,1.546 -0.195,3.038 -0.08,6.049 0.553,9.04 0.134,0.635 -0.013,1.336 -0.07,2.003 -0.029,0.331 -0.163,0.653 -0.223,0.984 -1.327,7.221 0.45,13.679 4.784,19.515 2.535,3.412 5.61,6.269 9.007,8.79 4.622,3.429 9.662,6.121 14.936,8.394 8.702,3.75 17.784,6.226 27.076,7.927 11.293,2.066 22.712,2.963 34.18,2.837 16.393,-0.179 32.579,-2.061 48.365,-6.716 1.934,-0.571 3.861,-1.164 5.996,-1.808 1.129,0.39 2.411,0.775 3.65,1.27 31.57,12.612 63.387,24.587 95.129,36.752 27.028,10.36 54.094,20.62 81.144,30.925 0.943,0.359 1.904,0.682 2.82,1.102 1.671,0.766 3.175,0.559 4.798,-0.308 6.979,-3.726 14.01,-7.356 21.02,-11.026 20.581,-10.775 41.162,-21.551 61.74,-32.331 1.635,-0.857 3.249,-1.752 4.521,-2.439 0.823,-1.06 0.755,-1.916 0.799,-2.746 0.018,-0.336 0.015,-0.673 0.022,-1.01 0.394,-18.188 0.76,-36.376 1.199,-54.563 0.138,-5.724 0.456,-11.443 0.733,-17.163 0.04,-0.822 0.304,-1.635 0.49,-2.447 0.027,-0.117 0.222,-0.299 0.301,-0.282 0.303,0.067 0.723,0.12 0.856,0.332 0.255,0.409 0.462,0.916 0.484,1.392 0.084,1.85 0.12,3.703 0.115,5.556 -0.025,10.949 0.021,21.899 -0.149,32.846 -0.066,4.278 0.715,8.325 1.863,12.401 2.108,7.485 5.12,14.589 8.381,21.626 5.537,11.948 12.143,23.276 19.443,34.211 1.11,1.664 2.569,3.098 3.912,4.599 0.092,0.103 0.767,-0.062 0.814,-0.213 0.196,-0.629 0.34,-1.3 0.351,-1.957 0.07,-4.211 0.099,-8.422 0.143,-12.633 0.107,-10.275 0.217,-20.55 0.321,-30.824 0.014,-1.348 -0.004,-2.696 0.008,-4.043 0.01,-1.056 -0.38,-1.971 -0.953,-2.823 -0.282,-0.419 -0.558,-0.853 -0.907,-1.212 -3.791,-3.904 -6.376,-8.659 -9.301,-13.172 -0.641,-0.989 -1.18,-2.047 -1.857,-3.008 -2.042,-2.9 -3.713,-6.007 -5.345,-9.147 -4.741,-9.117 -9.199,-18.355 -12.723,-28.028 -1.157,-3.176 -2.095,-6.41 -2.786,-9.697 -0.805,-3.828 -0.471,-7.721 0.066,-11.563 0.186,-1.338 0.945,-2.537 2.009,-3.428 0.77,-0.645 1.578,-1.293 2.47,-1.736 3.413,-1.692 3.848,-1.871 6.245,1.428 3.757,5.173 7.562,10.317 11.146,15.609 3.113,4.597 6.041,9.337 8.256,14.452 1,2.31 1.726,4.737 2.613,7.097 0.166,0.441 0.494,0.823 0.776,1.211 0.039,0.053 0.351,0.009 0.363,-0.035 0.164,-0.638 0.399,-1.28 0.426,-1.929 0.22,-5.217 0.384,-10.436 0.606,-15.653 0.035,-0.821 0.275,-1.634 0.441,-2.447 0.008,-0.037 0.24,-0.064 0.353,-0.036 0.161,0.04 0.408,0.103 0.443,0.212 0.205,0.631 0.473,1.273 0.509,1.922 0.111,2.018 0.161,4.04 0.177,6.061 0.105,13.812 0.192,27.624 0.293,41.437 0.012,1.682 0.064,3.364 0.114,5.045 0.019,0.653 0.829,1.075 1.479,0.761 1.362,-0.658 2.725,-1.318 4.065,-2.019 16.854,-8.82 33.704,-17.65 50.556,-26.474 44.592,-23.348 89.184,-46.695 133.775,-70.044 1.343,-0.703 2.677,-1.421 4.019,-2.125 0.951,-0.499 1.524,-1.293 1.817,-2.305 3.254,-11.246 10.103,-20.036 18.835,-27.524 6.436,-5.519 13.64,-9.842 21.273,-13.479 1.2,-0.572 2.427,-1.086 3.991,-1.791"
       style="fill:#ffffff;fill-opacity:1;fill-rule:nonzero;stroke:none"
       transform="matrix(1.3333333,0,0,-1.3333333,13844.024,801.2256)"
       clip-path="url(#clipPath651)" />
    <path
       id="path652"
       d="m 0,0 c -0.061,-1.677 -0.104,-3.354 -0.188,-5.03 -0.21,-4.208 0.387,-8.371 0.722,-12.548 0.033,-0.417 0.406,-1.019 0.768,-1.16 1.118,-0.436 2.308,-0.302 3.433,0.075 0.261,0.088 0.589,0.484 0.595,0.744 0.039,1.839 0.124,3.691 -0.034,5.519 C 4.964,-8.545 4.812,-4.701 5.186,-0.842 5.266,-0.016 5.199,0.833 5.12,1.663 5.091,1.968 4.899,2.33 4.665,2.53 3.823,3.247 1.032,3.116 0.48,2.303 0.215,1.913 0.197,1.355 0,0 m -2.624,-39.81 c 0.796,1.279 1.611,2.547 2.384,3.84 0.586,0.981 1.867,1.847 1.481,3.029 -0.457,1.4 -2.009,0.61 -3.057,0.863 -3.409,0.825 -6.94,1.154 -10.213,2.534 -0.305,0.128 -0.64,0.186 -0.962,0.275 -0.721,0.2 -1.447,-0.203 -1.487,-0.843 -0.053,-0.833 -0.125,-1.668 -0.116,-2.501 0.11,-9.882 0.234,-19.764 0.359,-29.645 0.004,-0.333 0.036,-0.67 0.109,-0.993 0.02,-0.088 0.236,-0.186 0.359,-0.183 0.146,0.003 0.388,0.08 0.42,0.179 1.449,4.465 3.892,8.496 5.606,12.837 1.357,3.439 2.938,6.749 5.117,10.608 m 8.411,18.533 c -2.327,-0.072 -4.67,-0.42 -6.874,0.316 -0.156,0.244 -0.27,0.372 -0.331,0.523 -1.414,3.507 -1.01,3.329 -4.662,2.483 -1.626,-0.377 -3.248,-0.839 -4.798,-1.448 -1.074,-0.422 -2.059,-1.108 -3.017,-1.773 -1.206,-0.838 -1.209,-2.555 -0.114,-3.449 1.595,-1.302 3.474,-1.968 5.4,-2.579 3.396,-1.077 6.918,-1.303 10.423,-1.473 4.872,-0.237 9.71,0.191 14.438,1.492 2.268,0.625 4.452,1.459 6.423,2.773 1.011,0.674 1.231,2.263 0.379,3.06 -0.606,0.566 -1.236,1.168 -1.967,1.526 -3.817,1.871 -7.865,2.789 -12.127,2.706 -0.613,-0.011 -1.085,-0.508 -1.234,-1.32 -0.121,-0.656 -0.152,-1.336 -0.343,-1.97 -0.08,-0.264 -0.471,-0.435 -1.596,-0.867 M 10.791,84.174 C 17.758,72.988 21.843,61.132 23.947,48.538 25.288,40.512 25.477,32.439 24.729,24.369 24.057,17.12 22.259,10.126 18.996,3.552 16.791,-0.891 13.834,-4.714 10.018,-7.88 9.376,-8.413 8.755,-8.97 8.033,-9.594 7.994,-10.587 7.92,-11.583 7.929,-12.579 c 0.006,-0.667 0.588,-1.232 1.28,-1.333 0.832,-0.121 1.675,-0.179 2.502,-0.323 2.821,-0.492 5.635,-1.028 8.287,-2.156 1.552,-0.66 3.043,-1.441 4.282,-2.627 1.009,-0.967 1.695,-2.081 1.712,-3.527 0.031,-2.526 0.094,-5.051 0.091,-7.577 -0.052,-38.403 -0.112,-76.807 -0.174,-115.21 -0.002,-1.175 -0.044,-2.35 -0.063,-3.29 -0.289,-0.517 -0.376,-0.917 -0.62,-1.072 -1.709,-1.083 -2.508,-2.549 -2.435,-4.622 0.101,-2.86 0.009,-5.726 0.018,-8.589 0.004,-1.213 -0.28,-2.283 -1.023,-3.294 -3.69,-5.031 -6.756,-10.464 -10.005,-15.776 -1.4,-2.289 -2.445,-4.794 -3.696,-7.178 -2.581,-4.917 -5.257,-9.785 -7.776,-14.733 -3.97,-7.801 -7.503,-15.807 -10.923,-23.863 -0.187,-0.441 -0.522,-0.826 -0.826,-1.207 -0.069,-0.087 -0.3,-0.086 -0.444,-0.06 -0.142,0.024 -0.381,0.124 -0.387,0.205 -0.088,1.172 -0.186,2.346 -0.201,3.52 -0.176,13.642 -0.334,27.284 -0.505,40.926 -0.028,2.19 -0.068,4.38 -0.15,6.568 -0.069,1.874 0.155,3.707 0.741,5.478 1.531,4.633 2.939,9.316 4.696,13.862 3.882,10.048 7.968,20.021 12.985,29.569 4.151,7.898 8.588,15.635 13.642,23.002 0.286,0.416 0.509,0.899 0.867,1.239 2.5,2.375 3.507,5.243 2.963,8.652 -0.017,12.801 -0.031,25.602 -0.059,38.403 -0.003,1.344 -0.056,2.69 -0.163,4.028 -0.017,0.214 -0.429,0.425 -0.694,0.573 -0.08,0.045 -0.304,-0.104 -0.421,-0.21 -0.245,-0.222 -0.498,-0.45 -0.685,-0.72 C 14.708,-62.65 8.953,-71.561 4.12,-81.02 c -2.371,-4.642 -4.485,-9.42 -6.617,-14.18 -1.649,-3.681 -3.435,-7.303 -4.645,-11.177 -2.005,-6.421 -4.216,-12.776 -5.706,-19.355 -0.451,-1.994 -0.717,-3.957 -0.7,-5.988 0.068,-8.253 0.119,-16.506 0.156,-24.759 0.007,-1.511 -0.031,-3.028 -0.16,-4.532 -0.037,-0.438 -0.442,-0.857 -0.724,-1.253 -0.073,-0.104 -0.336,-0.161 -0.472,-0.116 -0.273,0.091 -0.707,0.23 -0.742,0.413 -0.184,0.977 -0.349,1.971 -0.371,2.963 -0.244,11.114 -0.493,22.228 -0.679,33.343 -0.534,31.829 -1.042,63.659 -1.553,95.489 -0.035,2.188 0.017,4.379 -0.022,6.568 -0.039,2.222 0.969,3.865 2.699,5.138 1.505,1.108 3.151,1.955 4.944,2.469 1.777,0.509 3.577,0.937 5.372,1.382 2.365,0.587 2.581,0.87 2.516,3.501 -0.012,0.503 0.008,1.031 -0.141,1.499 -0.144,0.452 -0.407,0.936 -0.762,1.234 -0.507,0.426 -1.149,0.69 -1.727,1.034 -4.018,2.396 -7.04,5.701 -9.035,9.938 -2.236,4.747 -3.765,9.676 -4.555,14.9 -1.158,7.655 -0.44,15.114 1.662,22.48 1.384,4.852 2.828,9.695 4.466,14.466 2.14,6.236 3.674,12.599 4.618,19.112 0.802,5.544 0.732,11.067 -0.298,16.592 -0.344,1.841 -0.909,3.587 -1.575,5.31 -0.495,1.283 -0.827,2.582 -0.639,3.941 0.089,0.638 0.362,1.288 0.692,1.85 0.63,1.072 1.965,1.564 3.053,1.104 0.919,-0.388 1.842,-0.837 2.644,-1.422 3.558,-2.594 6.695,-5.65 9.418,-9.1 1.875,-2.377 3.585,-4.885 5.554,-7.65"
       style="fill:#ffffff;fill-opacity:1;fill-rule:nonzero;stroke:none"
       transform="matrix(1.3333333,0,0,-1.3333333,13833.852,290.15773)"
       clip-path="url(#clipPath653)" />
    <path
       id="path654"
       d="m 0,0 c -12.861,6.728 -25.396,13.271 -37.925,19.827 -1.188,0.622 -2.334,1.328 -3.489,2.013 -0.128,0.076 -0.289,0.306 -0.255,0.403 0.09,0.266 0.217,0.611 0.435,0.724 0.743,0.386 1.519,0.717 2.303,1.015 22.174,8.445 44.35,16.882 66.526,25.322 0.629,0.239 1.246,0.51 1.881,0.733 2.148,0.755 2.743,0.381 2.799,-1.86 0.219,-8.924 0.441,-17.849 0.609,-26.774 0.218,-11.621 0.389,-23.242 0.566,-34.863 0.013,-0.832 -0.086,-1.667 -0.152,-2.499 -0.036,-0.445 -0.738,-0.87 -1.133,-0.684 -1.214,0.573 -2.438,1.129 -3.629,1.748 C 19.129,-9.998 9.729,-5.088 0,0"
       style="fill:#ffffff;fill-opacity:1;fill-rule:nonzero;stroke:none"
       transform="matrix(1.3333333,0,0,-1.3333333,13767.598,577.97133)"
       clip-path="url(#clipPath655)" />
    <path
       id="path656"
       d="m 0,0 c 4.619,-1.24 8.855,-2.318 13.06,-3.505 0.937,-0.264 1.789,-0.874 2.631,-1.403 0.231,-0.145 0.47,-0.658 0.381,-0.855 -0.183,-0.404 -0.526,-0.88 -0.912,-1.014 -0.608,-0.21 -1.327,-0.3 -1.961,-0.2 -3.155,0.497 -6.313,0.997 -9.443,1.633 -21.583,4.39 -43.121,8.986 -64.572,13.988 -0.653,0.152 -1.339,0.252 -1.936,0.532 -0.59,0.278 -1.181,0.672 -1.6,1.162 -0.552,0.645 -0.846,1.452 -0.498,2.34 0.391,0.997 1.034,1.813 2.134,1.902 0.985,0.08 2.022,0.02 2.985,-0.202 8.847,-2.035 17.695,-4.072 26.52,-6.199 C -22.261,5.539 -11.332,2.812 0,0"
       style="fill:#ffffff;fill-opacity:1;fill-rule:nonzero;stroke:none"
       transform="matrix(1.3333333,0,0,-1.3333333,13765.34,176.29293)"
       clip-path="url(#clipPath657)" />
    <path
       id="path658"
       d="m 0,0 c -4.515,0.048 -8.529,0.465 -12.528,1.025 -0.635,0.089 -1.259,0.413 -1.826,0.737 -0.154,0.088 -0.199,0.638 -0.079,0.859 0.141,0.257 0.494,0.49 0.794,0.554 1.308,0.281 2.622,0.606 3.95,0.712 2.178,0.173 4.367,0.206 6.552,0.27 18.832,0.552 37.668,0.489 56.503,0.435 1.338,-0.004 2.681,0.09 3.993,-0.376 1.125,-0.399 1.852,-1.44 1.745,-2.742 C 59,0.217 58.079,-0.874 56.956,-0.988 56.122,-1.072 55.279,-1.122 54.442,-1.108 40.99,-0.888 27.538,-0.669 14.087,-0.416 9.548,-0.331 5.01,-0.152 0,0"
       style="fill:#ffffff;fill-opacity:1;fill-rule:nonzero;stroke:none"
       transform="matrix(1.3333333,0,0,-1.3333333,13901.508,248.262)"
       clip-path="url(#clipPath659)" />
    <path
       id="path660"
       d="m 0,0 c 11.911,7.919 23.523,15.63 35.138,23.337 1.118,0.742 2.23,1.5 3.389,2.175 0.738,0.429 1.578,0.519 2.439,0.349 1.551,-0.306 2.391,-2.351 1.44,-3.562 -0.309,-0.394 -0.613,-0.812 -0.998,-1.12 -0.654,-0.523 -1.356,-0.99 -2.062,-1.443 C 22.671,9.03 5.994,-1.674 -10.689,-12.367 c -1.696,-1.087 -3.426,-2.123 -5.159,-3.15 -1.01,-0.599 -2.047,-1.156 -3.093,-1.692 -1.238,-0.634 -2.258,-0.479 -2.643,0.35 -0.379,0.817 -0.064,1.738 1.014,2.574 1.591,1.234 3.193,2.461 4.852,3.599 C -10.594,-7.171 -5.44,-3.699 0,0"
       style="fill:#ffffff;fill-opacity:1;fill-rule:nonzero;stroke:none"
       transform="matrix(1.3333333,0,0,-1.3333333,13739.384,345.8916)"
       clip-path="url(#clipPath661)" />
    <path
       id="path662"
       d="m 0,0 c -0.125,-1.404 -0.214,-2.406 -0.407,-3.388 -0.052,-0.266 -0.395,-0.499 -0.645,-0.697 -0.276,-0.22 -1.09,0.074 -1.314,0.45 -0.256,0.432 -0.611,0.842 -0.731,1.31 -0.456,1.791 -0.948,3.585 -1.225,5.408 -1.439,9.479 -2.872,18.96 -4.2,28.454 -1.236,8.83 -2.341,17.678 -3.493,26.519 -0.087,0.664 -0.128,1.34 -0.119,2.009 0.017,1.235 1.319,2.581 2.573,2.717 1.231,0.133 2.829,-0.946 3.026,-2.179 0.424,-2.657 0.808,-5.321 1.133,-7.991 0.917,-7.515 1.82,-15.031 2.68,-22.553 0.535,-4.68 0.985,-9.37 1.469,-14.055 C -0.718,10.815 -0.129,5.63 0,0"
       style="fill:#ffffff;fill-opacity:1;fill-rule:nonzero;stroke:none"
       transform="matrix(1.3333333,0,0,-1.3333333,13820.111,133.19213)"
       clip-path="url(#clipPath663)" />
    <path
       id="path664"
       d="m 0,0 c 8.844,2.782 17.299,5.546 25.82,8.088 15.758,4.701 31.553,9.278 47.337,13.891 1.446,0.422 2.918,0.762 4.392,1.074 0.924,0.195 2.03,-0.588 2.333,-1.539 C 80.195,20.531 79.79,19.243 78.99,18.85 78.395,18.557 77.777,18.285 77.14,18.11 71.802,16.636 66.46,15.181 61.116,13.73 42.978,8.808 24.814,3.984 6.551,-0.456 4.114,-1.048 1.714,-1.895 -0.833,-1.937 c -0.237,-0.004 -0.564,0.236 -0.7,0.455 -0.209,0.338 -0.039,0.654 0.316,0.853 0.29,0.162 0.572,0.34 1.217,0.629"
       style="fill:#ffffff;fill-opacity:1;fill-rule:nonzero;stroke:none"
       transform="matrix(1.3333333,0,0,-1.3333333,13679.675,279.25827)"
       clip-path="url(#clipPath665)" />
    <path
       id="path666"
       d="m 0,0 c 13.563,-5.209 26.754,-10.29 39.938,-15.392 1.407,-0.545 2.78,-1.187 4.146,-1.833 0.641,-0.303 0.977,-0.916 1.132,-1.59 0.323,-1.402 -0.818,-2.8 -2.205,-2.714 -0.5,0.03 -1.02,0.045 -1.49,0.195 -0.96,0.305 -1.902,0.672 -2.835,1.055 -17.119,7.045 -34.244,14.073 -51.342,21.168 -2.946,1.222 -5.783,2.715 -8.641,4.14 -0.402,0.2 -0.711,0.693 -0.922,1.12 -0.082,0.167 0.191,0.73 0.366,0.763 0.646,0.118 1.355,0.241 1.974,0.088 1.63,-0.401 3.25,-0.875 4.828,-1.447 C -10.147,3.774 -5.265,1.937 0,0"
       style="fill:#ffffff;fill-opacity:1;fill-rule:nonzero;stroke:none"
       transform="matrix(1.3333333,0,0,-1.3333333,13911.689,324.94987)"
       clip-path="url(#clipPath667)" />
    <path
       id="path668"
       d="m 0,0 c -3.481,-3.2 -6.676,-6.184 -9.94,-9.089 -0.859,-0.765 -1.93,-1.294 -2.917,-1.91 -0.099,-0.062 -0.311,-0.003 -0.444,0.059 -0.376,0.173 -0.518,0.493 -0.317,0.842 0.416,0.72 0.801,1.48 1.336,2.106 1.966,2.299 3.906,4.629 6.002,6.807 11.308,11.753 22.654,23.469 34.008,35.177 0.927,0.956 1.995,1.782 3.041,2.614 0.574,0.456 1.726,0.309 2.34,-0.265 0.63,-0.59 1.126,-1.317 0.852,-2.22 -0.19,-0.623 -0.493,-1.267 -0.916,-1.753 C 32.166,31.354 31.188,30.423 30.226,29.484 20.24,19.734 10.25,9.99 0,0"
       style="fill:#ffffff;fill-opacity:1;fill-rule:nonzero;stroke:none"
       transform="matrix(1.3333333,0,0,-1.3333333,13885.462,164.3848)"
       clip-path="url(#clipPath669)" />
    <path
       id="path670"
       d="m 0,0 c 2.272,1.134 4.209,2.172 6.255,2.907 12.813,4.601 25.651,9.131 38.477,13.695 1.113,0.396 2.201,0.806 3.424,0.689 0.942,-0.089 1.949,-0.904 2.104,-1.867 C 50.403,14.533 50.124,13.756 49.424,13.18 49.04,12.865 48.617,12.565 48.164,12.373 47.236,11.98 46.284,11.641 45.328,11.319 38.161,8.904 30.996,6.481 23.819,4.096 18.396,2.294 12.958,0.536 7.522,-1.223 6.083,-1.689 4.631,-2.116 3.17,-2.507 2.527,-2.679 1.851,-2.757 1.185,-2.803 0.493,-2.851 -0.136,-2.652 -0.57,-2.049 -1.073,-1.351 -0.649,-0.799 0,0"
       style="fill:#ffffff;fill-opacity:1;fill-rule:nonzero;stroke:none"
       transform="matrix(1.3333333,0,0,-1.3333333,13880.491,207.9516)"
       clip-path="url(#clipPath671)" />
    <path
       id="path672"
       d="m 0,0 c -2.093,0.3 -3.749,0.534 -5.39,0.845 -0.197,0.037 -0.444,0.495 -0.436,0.751 0.009,0.26 0.266,0.688 0.48,0.735 0.977,0.211 1.974,0.404 2.97,0.441 C 3.163,2.98 8.703,3.247 14.245,3.294 25.5,3.391 36.757,3.362 48.013,3.379 49.02,3.38 50.028,3.357 51.034,3.31 c 0.327,-0.016 0.65,-0.138 0.972,-0.222 0.879,-0.231 1.759,-1.402 1.7,-2.255 -0.063,-0.917 -1.017,-2.02 -1.891,-2.094 -1.001,-0.085 -2.009,-0.14 -3.012,-0.127 -4.032,0.054 -8.064,0.11 -12.094,0.218 C 26.633,-0.903 16.557,-0.612 6.482,-0.317 4.467,-0.258 2.455,-0.135 0,0"
       style="fill:#ffffff;fill-opacity:1;fill-rule:nonzero;stroke:none"
       transform="matrix(1.3333333,0,0,-1.3333333,13713.961,219.3528)"
       clip-path="url(#clipPath673)" />
    <path
       id="path674"
       d="m 0,0 c 3.043,7.095 5.903,13.887 8.881,20.627 2.098,4.75 4.352,9.43 6.552,14.134 0.425,0.908 0.876,1.811 1.402,2.662 0.897,1.452 3.264,1.415 4.294,-0.013 0.419,-0.581 0.584,-1.235 0.439,-1.894 C 21.427,34.871 21.153,34.242 20.856,33.647 15.463,22.857 10.059,12.072 4.154,1.549 3.175,-0.195 2.308,-2.037 0.783,-3.41 0.59,-3.584 0.141,-3.684 -0.064,-3.578 -0.291,-3.46 -0.514,-3.055 -0.495,-2.793 -0.435,-1.966 -0.262,-1.147 0,0"
       style="fill:#ffffff;fill-opacity:1;fill-rule:nonzero;stroke:none"
       transform="matrix(1.3333333,0,0,-1.3333333,13848.54,141.55587)"
       clip-path="url(#clipPath675)" />
    <path
       id="path676"
       d="m 0,0 c -5.575,-2.023 -10.761,-3.969 -15.989,-5.793 -1.724,-0.602 -3.433,-1.392 -5.341,-1.325 -0.496,0.018 -1.061,0.325 -1.08,0.84 -0.018,0.457 0.049,1.074 0.337,1.351 0.591,0.568 1.311,1.051 2.057,1.399 2.281,1.063 4.578,2.1 6.908,3.05 8.859,3.613 17.732,7.189 26.601,10.774 0.621,0.251 1.247,0.501 1.888,0.69 1.408,0.414 2.958,-0.282 3.358,-1.473 C 19.064,8.549 18.386,7.111 17.297,6.585 16.545,6.222 15.757,5.93 14.974,5.634 10.109,3.794 5.24,1.96 0,0"
       style="fill:#ffffff;fill-opacity:1;fill-rule:nonzero;stroke:none"
       transform="matrix(1.3333333,0,0,-1.3333333,13764.557,295.22787)"
       clip-path="url(#clipPath677)" />
    <path
       id="path678"
       d="m 0,0 c 2.006,-2.716 3.827,-5.122 5.585,-7.573 0.779,-1.085 1.445,-2.253 2.136,-3.399 0.307,-0.508 0.088,-1.751 -0.341,-1.816 -0.453,-0.068 -1.044,-0.053 -1.394,0.189 -0.819,0.566 -1.583,1.238 -2.273,1.96 -1.854,1.936 -3.712,3.874 -5.471,5.895 -5.171,5.942 -10.3,11.92 -15.428,17.898 -0.541,0.63 -1.005,1.334 -1.444,2.041 -0.589,0.949 -0.249,2.35 0.71,3.159 0.866,0.73 2.453,0.744 3.238,-0.04 0.708,-0.708 1.385,-1.455 2.007,-2.24 C -8.51,10.822 -4.363,5.555 0,0"
       style="fill:#ffffff;fill-opacity:1;fill-rule:nonzero;stroke:none"
       transform="matrix(1.3333333,0,0,-1.3333333,13783.495,136.1772)"
       clip-path="url(#clipPath679)" />
    <path
       id="path680"
       d="m 0,0 c 2.693,-0.062 5.052,-0.086 7.356,-0.455 9.75,-1.562 19.485,-3.22 29.222,-4.867 0.644,-0.109 1.278,-0.366 1.875,-0.642 1.003,-0.463 1.439,-1.979 0.945,-3.051 -0.301,-0.651 -0.812,-1.162 -1.482,-1.214 -0.988,-0.075 -2.024,-0.074 -2.985,0.138 -10.132,2.235 -20.258,4.497 -30.371,6.812 -1.616,0.37 -3.172,1.015 -4.733,1.592 -0.254,0.094 -0.505,0.485 -0.548,0.77 C -0.758,-0.676 -0.491,-0.388 0,0"
       style="fill:#ffffff;fill-opacity:1;fill-rule:nonzero;stroke:none"
       transform="matrix(1.3333333,0,0,-1.3333333,13881.784,281.60133)"
       clip-path="url(#clipPath681)" />
    <path
       id="path682"
       d="M 0,0 C -0.554,1.059 -0.736,1.825 -0.436,2.698 0.259,4.724 2.679,4.649 3.733,3.839 3.865,3.737 4.013,3.642 4.113,3.512 5.959,1.129 7.923,-1.172 9.296,-3.885 9.715,-4.714 9.607,-5.501 8.99,-6.202 8.525,-6.732 7.69,-6.992 7.186,-6.694 6.472,-6.271 5.702,-5.883 5.116,-5.316 3.43,-3.683 1.824,-1.967 0,0"
       style="fill:#ffffff;fill-opacity:1;fill-rule:nonzero;stroke:none"
       transform="matrix(1.3333333,0,0,-1.3333333,13744.467,98.758933)"
       clip-path="url(#clipPath683)" />
    <path
       id="path684"
       d="M 0,0 C -0.498,1.32 0.06,1.848 0.889,2.205 1.039,2.269 1.216,2.303 1.379,2.3 4.381,2.237 7.384,2.218 10.382,2.073 11.763,2.007 12.703,0.541 12.435,-0.84 12.236,-1.864 11.309,-2.712 10.389,-2.715 10.223,-2.715 10.05,-2.765 9.892,-2.733 6.636,-2.071 3.252,-1.922 0,0"
       style="fill:#ffffff;fill-opacity:1;fill-rule:nonzero;stroke:none"
       transform="matrix(1.3333333,0,0,-1.3333333,13939.351,295.8808)"
       clip-path="url(#clipPath685)" />
    <path
       id="path686"
       d="m 0,0 c 0.673,0.099 1.016,0.166 1.328,0.095 1.204,-0.274 1.765,-0.968 1.703,-2.031 -0.055,-0.934 -0.55,-1.59 -1.382,-1.833 -2.055,-0.6 -4.103,-1.226 -6.17,-1.782 -0.622,-0.167 -1.3,-0.199 -1.946,-0.164 -0.234,0.013 -0.545,0.366 -0.644,0.63 -0.101,0.269 -0.104,0.725 0.061,0.915 0.422,0.486 0.909,0.962 1.464,1.276 C -3.862,-1.92 -2.095,-1.023 0,0"
       style="fill:#ffffff;fill-opacity:1;fill-rule:nonzero;stroke:none"
       transform="matrix(1.3333333,0,0,-1.3333333,13726.682,303.70413)"
       clip-path="url(#clipPath687)" />
    <path
       id="path688"
       d="M 0,0 C -0.417,-0.267 -0.573,-0.32 -0.728,-0.375 -1.697,-0.713 -2.701,-0.887 -3.503,-0.102 -4.231,0.609 -4.532,1.557 -4.472,2.6 -4.417,3.556 -3.514,4.497 -2.579,4.548 -0.906,4.641 0.375,3.718 0.576,2.115 0.652,1.504 0.377,0.848 0,0"
       style="fill:#ffffff;fill-opacity:1;fill-rule:nonzero;stroke:none"
       transform="matrix(1.3333333,0,0,-1.3333333,13668.439,203.45013)"
       clip-path="url(#clipPath689)" />
    <path
       id="path690"
       d="m 0,0 c 1.197,-1.53 0.915,-2.75 0.014,-3.931 -0.703,-0.92 -2.11,-1.279 -3.172,-0.679 -0.378,0.213 -0.724,0.735 -0.803,1.167 -0.118,0.641 -0.023,1.332 0.048,1.995 0.094,0.885 0.534,1.569 1.334,2.007 C -1.713,1.033 -0.968,0.702 0,0"
       style="fill:#ffffff;fill-opacity:1;fill-rule:nonzero;stroke:none"
       transform="matrix(1.3333333,0,0,-1.3333333,13923.345,69.370133)"
       clip-path="url(#clipPath691)" />
    <path
       id="path692"
       d="M 0,0 C -1.893,0.766 -2.489,2.045 -2.53,3.67 -2.555,4.661 -1.563,5.682 -0.615,5.539 0.397,5.386 1.318,5.013 1.926,4.114 2.524,3.228 2.688,2.268 2.308,1.264 1.975,0.389 1.247,0.034 0,0"
       style="fill:#ffffff;fill-opacity:1;fill-rule:nonzero;stroke:none"
       transform="matrix(1.3333333,0,0,-1.3333333,13689.46,126.8736)"
       clip-path="url(#clipPath693)" />
    <path
       id="path694"
       d="m 0,0 c 0.755,-1.517 0.509,-2.612 -0.541,-3.358 -1.011,-0.719 -2.684,-0.377 -3.612,0.557 -0.229,0.231 -0.452,0.482 -0.622,0.758 -0.827,1.35 -0.043,3.116 1.536,3.444 C -2.005,1.657 -0.974,1.284 0,0"
       style="fill:#ffffff;fill-opacity:1;fill-rule:nonzero;stroke:none"
       transform="matrix(1.3333333,0,0,-1.3333333,13771.299,40.1252)"
       clip-path="url(#clipPath695)" />
    <path
       id="path696"
       d="m 0,0 c -2.186,0.329 -3.309,1.356 -3.393,3.332 -0.052,1.23 1.162,2.309 2.307,1.913 C -0.325,4.982 0.419,4.551 1.041,4.038 1.694,3.5 2.013,2.724 1.897,1.81 1.775,0.849 1.144,0.387 0,0"
       style="fill:#ffffff;fill-opacity:1;fill-rule:nonzero;stroke:none"
       transform="matrix(1.3333333,0,0,-1.3333333,13699.782,136.95747)"
       clip-path="url(#clipPath697)" />
    <path
       id="path698"
       d="M 0,0 C 0.353,0.707 0.571,1.203 0.952,1.455 1.533,1.84 2.244,1.755 2.895,1.538 4.011,1.166 4.93,-0.044 4.805,-1.126 4.708,-1.966 4.364,-2.758 3.503,-3.137 2.43,-3.61 0.957,-3.241 0.402,-2.237 0.095,-1.682 0.083,-0.964 0,0"
       style="fill:#ffffff;fill-opacity:1;fill-rule:nonzero;stroke:none"
       transform="matrix(1.3333333,0,0,-1.3333333,13967.486,164.144)"
       clip-path="url(#clipPath699)" />
    <path
       id="path700"
       d="m 0,0 c -0.853,-1.607 -1.942,-2.11 -3.404,-1.707 -0.951,0.262 -1.661,1.208 -1.649,2.173 0.011,0.908 0.48,1.543 1.272,1.914 0.438,0.206 0.924,0.32 1.397,0.44 0.663,0.168 1.311,0.062 1.857,-0.337 C 0.223,1.935 0.339,1.159 0,0"
       style="fill:#ffffff;fill-opacity:1;fill-rule:nonzero;stroke:none"
       transform="matrix(1.3333333,0,0,-1.3333333,13964.12,266.128)"
       clip-path="url(#clipPath701)" />
    <path
       id="path702"
       d="M 0,0 C 0.482,0.049 0.648,0.057 0.813,0.049 1.899,-0.003 2.717,-0.427 3.037,-1.55 3.353,-2.655 2.822,-3.486 2.113,-4.211 c -0.93,-0.952 -2.771,-0.732 -3.456,0.412 -0.443,0.738 -0.476,1.57 -0.262,2.401 C -1.428,-0.712 -1.018,-0.239 0,0"
       style="fill:#ffffff;fill-opacity:1;fill-rule:nonzero;stroke:none"
       transform="matrix(1.3333333,0,0,-1.3333333,13920.089,171.27493)"
       clip-path="url(#clipPath703)" />
    <path
       id="path704"
       d="M 0,0 C 1.127,1.195 2.221,1.316 3.422,0.983 4.378,0.718 5.037,-0.332 4.861,-1.323 4.623,-2.665 3.642,-3.248 2.473,-3.556 1.419,-3.833 0.502,-3.425 -0.166,-2.617 -0.765,-1.892 -0.539,-1.061 0,0"
       style="fill:#ffffff;fill-opacity:1;fill-rule:nonzero;stroke:none"
       transform="matrix(1.3333333,0,0,-1.3333333,13964.529,314.17267)"
       clip-path="url(#clipPath705)" />
    <path
       id="path706"
       d="M 0,0 C -1.496,0.099 -2.193,0.713 -2.407,1.803 -2.605,2.811 -2.45,3.793 -1.731,4.566 -0.957,5.398 0.964,5.28 1.891,4.408 2.905,3.455 3.043,1.89 2.064,0.892 1.64,0.46 0.946,0.292 0,0"
       style="fill:#ffffff;fill-opacity:1;fill-rule:nonzero;stroke:none"
       transform="matrix(1.3333333,0,0,-1.3333333,13759.433,69.009333)"
       clip-path="url(#clipPath707)" />
    <path
       id="path708"
       d="M 0,0 C 1.287,0.896 2.427,0.814 3.585,0.538 4.127,0.409 4.661,-0.333 4.665,-0.979 4.672,-2.319 3.919,-3.123 2.781,-3.659 1.892,-4.079 0.88,-3.9 0.08,-3.031 -0.227,-2.698 -0.424,-2.169 -0.466,-1.711 -0.509,-1.24 -0.302,-0.746 0,0"
       style="fill:#ffffff;fill-opacity:1;fill-rule:nonzero;stroke:none"
       transform="matrix(1.3333333,0,0,-1.3333333,13920.003,86.153067)"
       clip-path="url(#clipPath709)" />
    <path
       id="path710"
       d="m 0,0 c -0.948,-0.101 -1.635,-0.193 -2.254,-0.027 -0.989,0.265 -1.684,1.298 -1.66,2.247 0.022,0.904 0.517,1.512 1.226,2.041 C -1.53,5.126 0.795,4.039 1.012,2.852 1.202,1.81 1.152,0.871 0,0"
       style="fill:#ffffff;fill-opacity:1;fill-rule:nonzero;stroke:none"
       transform="matrix(1.3333333,0,0,-1.3333333,13648.681,304.8104)"
       clip-path="url(#clipPath711)" />
    <path
       id="path712"
       d="M 0,0 C -0.808,-0.061 -1.33,-0.116 -1.762,0.054 -2.868,0.488 -3.39,1.372 -3.222,2.312 -3.013,3.483 -2.013,4.469 -0.941,4.52 -0.62,4.536 -0.287,4.493 0.028,4.423 1.655,4.065 2.328,2.511 1.444,1.022 1.213,0.633 0.707,0.408 0,0"
       style="fill:#ffffff;fill-opacity:1;fill-rule:nonzero;stroke:none"
       transform="matrix(1.3333333,0,0,-1.3333333,13975.142,277.18707)"
       clip-path="url(#clipPath713)" />
    <path
       id="path714"
       d="M 0,0 C -1.177,0.917 -1.325,1.871 -1.227,2.901 -1.149,3.731 -0.499,4.58 0.209,4.736 1.055,4.921 1.907,4.829 2.536,4.234 3.281,3.529 3.713,2.622 3.42,1.544 3.111,0.407 2.311,-0.142 0.833,-0.265 0.673,-0.278 0.506,-0.216 0,0"
       style="fill:#ffffff;fill-opacity:1;fill-rule:nonzero;stroke:none"
       transform="matrix(1.3333333,0,0,-1.3333333,13965.536,214.26667)"
       clip-path="url(#clipPath715)" />
    <path
       id="path716"
       d="M 0,0 C 0.576,0.545 0.974,0.873 1.431,1.019 2.285,1.293 3.118,1.095 3.729,0.444 4.275,-0.138 4.113,-1.589 3.508,-2.355 2.924,-3.094 2.141,-3.242 1.266,-3.048 0.562,-2.892 0.048,-2.462 -0.115,-1.77 -0.225,-1.303 -0.146,-0.791 0,0"
       style="fill:#ffffff;fill-opacity:1;fill-rule:nonzero;stroke:none"
       transform="matrix(1.3333333,0,0,-1.3333333,13656.719,308.77493)"
       clip-path="url(#clipPath717)" />
    <path
       id="path718"
       d="M 0,0 C 0.651,0.253 1.146,0.39 1.576,0.276 2.286,0.088 2.641,-0.571 2.524,-1.189 2.362,-2.051 1.678,-2.537 0.783,-2.426 0.068,-2.337 -0.267,-2.008 -0.37,-1.151 -0.405,-0.855 -0.252,-0.537 0,0"
       style="fill:#ffffff;fill-opacity:1;fill-rule:nonzero;stroke:none"
       transform="matrix(1.3333333,0,0,-1.3333333,13926.477,164.1524)"
       clip-path="url(#clipPath719)" />
    <path
       id="path720"
       d="m 0,0 c -5.136,0.696 -9.64,2.024 -13.982,3.909 -2.478,1.075 -4.824,2.389 -6.965,4.047 -1.877,1.453 -3.551,3.102 -4.752,5.173 -2.402,4.142 -2.425,8.31 -0.025,12.456 1.196,2.066 2.854,3.736 4.728,5.198 2.676,2.088 5.659,3.621 8.795,4.883 5.191,2.088 10.61,3.326 16.15,3.823 8.598,0.77 17.149,0.346 25.546,-1.878 3.754,-0.994 7.38,-2.32 10.792,-4.188 2.224,-1.217 4.288,-2.663 6.063,-4.49 1.54,-1.585 2.774,-3.36 3.549,-5.457 0.978,-2.649 0.941,-5.248 -0.053,-7.884 C 48.994,13.334 47.607,11.463 45.91,9.795 43.478,7.406 40.611,5.666 37.534,4.253 34.158,2.702 30.633,1.596 27.01,0.793 18.206,-1.16 9.348,-1.43 0,0"
       style="fill:#ffffff;fill-opacity:1;fill-rule:nonzero;stroke:none"
       transform="matrix(1.3333333,0,0,-1.3333333,13357.43,721.61467)"
       clip-path="url(#clipPath721)" />
    <path
       id="path722"
       d="m 0,0 c -10.098,-1.425 -19.56,-0.416 -28.879,2.261 -3.078,0.884 -6.054,2.077 -8.778,3.771 -1.704,1.06 -3.289,2.32 -4.874,3.56 -0.654,0.512 -1.216,1.168 -1.733,1.826 -4.082,5.199 -4.101,10.48 -0.066,15.687 1.35,1.742 3.036,3.134 4.853,4.373 3.223,2.197 6.74,3.807 10.442,4.957 9.439,2.932 19.062,3.869 28.898,2.569 4.011,-0.53 7.966,-1.246 11.837,-2.42 3.395,-1.029 6.633,-2.41 9.665,-4.255 1.877,-1.142 3.57,-2.508 5.074,-4.122 2.021,-2.17 3.057,-4.812 3.654,-7.635 0.279,-1.321 0.073,-2.683 -0.355,-3.983 C 28.989,14.314 27.775,12.332 26.094,10.617 23.827,8.305 21.176,6.554 18.293,5.129 12.656,2.343 6.674,0.76 0,0"
       style="fill:#ffffff;fill-opacity:1;fill-rule:nonzero;stroke:none"
       transform="matrix(1.3333333,0,0,-1.3333333,14272.606,740.41987)"
       clip-path="url(#clipPath723)" />
  </g>
</svg>
