<?xml version="1.0" encoding="UTF-8" standalone="no"?>
<!-- Created with Inkscape (http://www.inkscape.org/) -->

<svg
   version="1.1"
   id="svg1"
   width="1440"
   height="1440"
   viewBox="0 0 1440 1440"
   xmlns="http://www.w3.org/2000/svg"
   xmlns:svg="http://www.w3.org/2000/svg">
  <defs
     id="defs1">
    <clipPath
       clipPathUnits="userSpaceOnUse"
       id="clipPath233">
      <path
         d="M 0,1080 H 1080 V 0 H 0 Z"
         transform="translate(-798.50589,-335.68321)"
         id="path233" />
    </clipPath>
    <clipPath
       clipPathUnits="userSpaceOnUse"
       id="clipPath235">
      <path
         d="M 0,1080 H 1080 V 0 H 0 Z"
         transform="translate(-836.0566,-767.32762)"
         id="path235" />
    </clipPath>
    <clipPath
       clipPathUnits="userSpaceOnUse"
       id="clipPath237">
      <path
         d="M 0,1080 H 1080 V 0 H 0 Z"
         transform="translate(-962.96582,-762.26422)"
         id="path237" />
    </clipPath>
    <clipPath
       clipPathUnits="userSpaceOnUse"
       id="clipPath239">
      <path
         d="M 0,1080 H 1080 V 0 H 0 Z"
         transform="translate(-1045.7253,-571.06901)"
         id="path239" />
    </clipPath>
    <clipPath
       clipPathUnits="userSpaceOnUse"
       id="clipPath241">
      <path
         d="M 0,1080 H 1080 V 0 H 0 Z"
         transform="translate(-891.02762,-584.76862)"
         id="path241" />
    </clipPath>
    <clipPath
       clipPathUnits="userSpaceOnUse"
       id="clipPath243">
      <path
         d="M 0,1080 H 1080 V 0 H 0 Z"
         transform="translate(-1028.4856,-682.33832)"
         id="path243" />
    </clipPath>
    <clipPath
       clipPathUnits="userSpaceOnUse"
       id="clipPath245">
      <path
         d="M 0,1080 H 1080 V 0 H 0 Z"
         transform="translate(-896.6956,-752.09912)"
         id="path245" />
    </clipPath>
    <clipPath
       clipPathUnits="userSpaceOnUse"
       id="clipPath247">
      <path
         d="M 0,1080 H 1080 V 0 H 0 Z"
         transform="translate(-955.2598,-827.06452)"
         id="path247" />
    </clipPath>
    <clipPath
       clipPathUnits="userSpaceOnUse"
       id="clipPath249">
      <path
         d="M 0,1080 H 1080 V 0 H 0 Z"
         transform="translate(-963.71665,-694.33642)"
         id="path249" />
    </clipPath>
    <clipPath
       clipPathUnits="userSpaceOnUse"
       id="clipPath251">
      <path
         d="M 0,1080 H 1080 V 0 H 0 Z"
         transform="translate(-1063.197,-591.35291)"
         id="path251" />
    </clipPath>
    <clipPath
       clipPathUnits="userSpaceOnUse"
       id="clipPath253">
      <path
         d="M 0,1080 H 1080 V 0 H 0 Z"
         transform="translate(-755.71922,-727.38952)"
         id="path253" />
    </clipPath>
    <clipPath
       clipPathUnits="userSpaceOnUse"
       id="clipPath255">
      <path
         d="M 0,1080 H 1080 V 0 H 0 Z"
         transform="translate(-876.3715,-584.49301)"
         id="path255" />
    </clipPath>
    <clipPath
       clipPathUnits="userSpaceOnUse"
       id="clipPath257">
      <path
         d="M 0,1080 H 1080 V 0 H 0 Z"
         transform="translate(-786.81489,-632.49851)"
         id="path257" />
    </clipPath>
    <clipPath
       clipPathUnits="userSpaceOnUse"
       id="clipPath259">
      <path
         d="M 0,1080 H 1080 V 0 H 0 Z"
         transform="translate(-543.56574,-637.37132)"
         id="path259" />
    </clipPath>
    <clipPath
       clipPathUnits="userSpaceOnUse"
       id="clipPath261">
      <path
         d="M 0,1080 H 1080 V 0 H 0 Z"
         transform="translate(-178.40723,-630.34562)"
         id="path261" />
    </clipPath>
    <clipPath
       clipPathUnits="userSpaceOnUse"
       id="clipPath263">
      <path
         d="M 0,1080 H 1080 V 0 H 0 Z"
         transform="translate(-546.50371,-553.73221)"
         id="path263" />
    </clipPath>
    <clipPath
       clipPathUnits="userSpaceOnUse"
       id="clipPath265">
      <path
         d="M 0,1080 H 1080 V 0 H 0 Z"
         transform="translate(-539.11231,-584.66471)"
         id="path265" />
    </clipPath>
    <clipPath
       clipPathUnits="userSpaceOnUse"
       id="clipPath267">
      <path
         d="M 0,1080 H 1080 V 0 H 0 Z"
         transform="translate(-531.40051,-610.76861)"
         id="path267" />
    </clipPath>
    <clipPath
       clipPathUnits="userSpaceOnUse"
       id="clipPath269">
      <path
         d="M 0,1080 H 1080 V 0 H 0 Z"
         transform="translate(-552.28381,-636.88232)"
         id="path269" />
    </clipPath>
    <clipPath
       clipPathUnits="userSpaceOnUse"
       id="clipPath271">
      <path
         d="M 0,1080 H 1080 V 0 H 0 Z"
         transform="translate(-543.30879,-584.53051)"
         id="path271" />
    </clipPath>
    <clipPath
       clipPathUnits="userSpaceOnUse"
       id="clipPath273">
      <path
         d="M 0,1080 H 1080 V 0 H 0 Z"
         transform="translate(-568.84329,-565.82741)"
         id="path273" />
    </clipPath>
    <clipPath
       clipPathUnits="userSpaceOnUse"
       id="clipPath275">
      <path
         d="M 0,1080 H 1080 V 0 H 0 Z"
         transform="translate(-553.26444,-561.77711)"
         id="path275" />
    </clipPath>
    <clipPath
       clipPathUnits="userSpaceOnUse"
       id="clipPath277">
      <path
         d="M 0,1080 H 1080 V 0 H 0 Z"
         transform="translate(-542.93259,-596.36272)"
         id="path277" />
    </clipPath>
    <clipPath
       clipPathUnits="userSpaceOnUse"
       id="clipPath279">
      <path
         d="M 0,1080 H 1080 V 0 H 0 Z"
         transform="translate(-670.28372,-635.72252)"
         id="path279" />
    </clipPath>
    <clipPath
       clipPathUnits="userSpaceOnUse"
       id="clipPath281">
      <path
         d="M 0,1080 H 1080 V 0 H 0 Z"
         transform="translate(-680.08704,-578.43551)"
         id="path281" />
    </clipPath>
    <clipPath
       clipPathUnits="userSpaceOnUse"
       id="clipPath283">
      <path
         d="M 0,1080 H 1080 V 0 H 0 Z"
         transform="translate(-478.86129,-569.24551)"
         id="path283" />
    </clipPath>
  </defs>
  <g
     id="layer-MC1"
     transform="translate(-2920)">
    <path
       id="path232"
       d="m 0,0 c -1.021,-2.309 -2.586,-4.075 -5.092,-4.81 -2.146,-0.629 -4.259,-1.298 -6.556,-1.349 -3.989,-0.087 -7.852,-1.08 -11.689,-2.096 -9.607,-2.543 -18.484,-6.643 -26.516,-12.531 -9.632,-7.06 -17.172,-15.94 -22.857,-26.4 -4.315,-7.942 -7.346,-16.328 -8.713,-25.315 -0.468,-3.072 -0.953,-6.122 -1.159,-9.227 -0.193,-2.919 -0.594,-5.825 -0.979,-8.727 -0.087,-0.657 -0.434,-1.299 -0.751,-1.901 -0.535,-1.017 -2.398,-1.274 -3.158,-0.386 -0.662,0.775 -1.347,1.62 -1.69,2.556 -0.592,1.611 -1.028,3.297 -1.349,4.986 -0.74,3.889 -1.283,7.817 -2.065,11.697 -3.478,17.261 -10.669,32.753 -22.335,46.028 -9.692,11.028 -21.498,18.813 -35.741,22.716 -3.165,0.867 -6.36,1.555 -9.654,1.764 -3.787,0.241 -7.565,0.603 -11.35,0.877 -1.631,0.118 -3.004,0.73 -4.102,1.926 -0.621,0.676 -0.872,1.497 -0.549,2.384 0.31,0.848 0.925,1.437 1.816,1.676 0.33,0.088 0.68,0.15 1.02,0.145 4.543,-0.07 8.897,1.051 13.234,2.185 9.889,2.586 19.395,6.145 28.262,11.306 12.295,7.158 22.558,16.434 30.012,28.657 4.39,7.386 7.191,14.594 8.766,22.265 1.147,5.59 1.974,11.228 1.417,16.956 -0.171,1.759 0.175,3.431 0.371,5.136 0.02,0.168 0.094,0.329 0.142,0.494 0.313,1.058 1.546,2.048 2.678,2.15 1.121,0.102 2.594,-0.677 2.901,-1.772 0.415,-1.48 0.636,-3.016 0.902,-4.535 0.057,-0.328 -0.039,-0.686 -0.086,-1.027 -2.26,-16.44 4.162,-38.575 16.643,-53.475 9.03,-10.78 20.354,-18.032 33.811,-21.892 8.518,-2.443 17.235,-3.475 26.116,-2.594 1.197,0.118 2.419,0.146 3.616,0.051 C -0.651,7.599 1.637,3.705 0,0 m -119.838,-31.236 c -0.554,-0.875 -1.131,-1.736 -1.698,-2.603 -14.77,-22.576 -30.902,-44.137 -48.199,-64.836 -17.524,-20.968 -36.21,-40.843 -56.04,-59.639 -6.517,-6.176 -13.004,-12.397 -20.014,-18.032 -0.744,-0.598 -1.454,-0.748 -2.373,-0.456 -2.481,0.791 -4.805,1.929 -7.102,3.123 -5.209,2.708 -10.413,5.426 -15.59,8.195 -25.286,13.523 -50.127,27.817 -74.509,42.912 -22.622,14.004 -44.814,28.654 -66.534,44.021 -26.098,18.464 -51.46,37.884 -76.032,58.342 -31.368,26.116 -61.188,53.883 -89.254,83.517 -27.842,29.397 -53.522,60.565 -76.439,93.973 -15.457,22.533 -29.475,45.915 -41.521,70.46 -10.519,21.433 -19.365,43.521 -26.059,66.452 -0.725,2.485 -1.399,4.985 -2.048,7.491 -2.812,10.86 -5.64,21.715 -8.393,32.59 -1.61,6.363 -2.779,12.82 -3.708,19.315 -0.978,6.834 -1.98,13.669 -2.737,20.53 -0.606,5.489 -1.003,11.011 -1.241,16.53 -0.455,10.531 -0.522,21.076 -0.017,31.605 0.297,6.203 1.002,12.387 1.568,18.576 0.535,5.849 1.447,11.649 2.501,17.425 3.988,21.871 10.574,42.882 20.873,62.649 8.86,17.005 20.111,32.193 34.392,45.071 5.79,5.221 12.013,9.856 18.593,14.024 2.049,1.298 4.217,2.298 6.507,3.138 7.954,2.917 16.011,5.462 24.32,7.138 6.262,1.263 12.565,2.235 18.943,2.787 6.377,0.552 12.748,0.872 19.146,0.754 7.26,-0.134 14.475,-0.786 21.679,-1.662 27.196,-3.309 52.83,-11.731 77.396,-23.623 23.759,-11.501 45.573,-25.997 65.7,-43.044 4.481,-3.794 8.85,-7.723 13.181,-11.689 2.033,-1.862 3.832,-3.977 5.776,-5.939 1.087,-1.098 2.234,-2.14 3.405,-3.149 0.182,-0.157 0.749,-0.133 0.942,0.033 0.778,0.671 1.51,1.403 2.205,2.161 10.648,11.625 22.203,22.252 34.888,31.623 9.179,6.78 18.788,12.897 28.777,18.426 4.7,2.602 9.616,4.674 14.615,6.598 11.79,4.536 23.857,8.136 36.291,10.363 8.842,1.584 17.763,2.559 26.782,2.528 7.61,-0.026 15.206,-0.214 22.738,-1.335 9.406,-1.4 18.643,-3.544 27.624,-6.725 18.764,-6.647 35.654,-16.56 50.997,-29.182 12.455,-10.247 23.589,-21.795 33.711,-34.328 13.831,-17.124 25.565,-35.627 35.905,-55.026 9.349,-17.542 17.521,-35.631 24.787,-54.13 0.63,-1.606 1.201,-3.236 1.777,-4.863 0.171,-0.483 0.265,-0.992 0.437,-1.649 -0.444,-0.431 -0.848,-1.046 -1.418,-1.341 -2.76,-1.427 -5.555,-2.787 -8.355,-4.136 -28.306,-13.643 -56.604,-27.305 -84.93,-40.908 -20.233,-9.716 -40.493,-19.374 -60.768,-29.001 -5.457,-2.591 -11.014,-4.969 -16.523,-7.452 -1.414,-0.637 -2.819,-1.294 -4.224,-1.952 -0.382,-0.178 -0.652,-0.991 -0.471,-1.335 0.08,-0.152 0.125,-0.328 0.222,-0.467 4.111,-5.863 6.691,-12.447 8.998,-19.155 1.067,-3.101 2.065,-6.224 3.104,-9.334 0.226,-0.679 0.936,-1.095 1.603,-0.972 2.903,0.538 5.629,1.51 8.285,2.845 20.521,10.307 40.962,20.768 61.35,31.336 32.806,17.004 65.688,33.858 98.542,50.769 1.217,0.627 2.473,1.181 3.635,1.733 1.058,-0.752 1.307,-1.76 1.549,-2.771 1.404,-5.874 2.912,-11.726 4.187,-17.628 1.42,-6.578 2.653,-13.197 3.913,-19.808 0.323,-1.693 0.453,-3.422 0.646,-5.138 0.092,-0.814 -0.515,-1.684 -1.39,-1.926 -1.995,-0.55 -3.996,-1.078 -6.006,-1.568 -16.261,-3.97 -32.521,-7.942 -48.788,-11.886 -29.011,-7.034 -58.019,-14.087 -87.047,-21.05 -10.402,-2.495 -20.859,-4.764 -31.297,-7.111 -2.016,-0.454 -4.066,-0.761 -6.087,-1.197 -0.963,-0.208 -1.416,-0.988 -1.265,-1.925 0.083,-0.512 0.135,-1.032 0.269,-1.531 2.593,-9.679 4.583,-19.486 6.221,-29.368 0.028,-0.17 0.083,-0.335 0.115,-0.505 0.111,-0.591 1.006,-1.189 1.565,-1.05 0.334,0.082 0.68,0.126 1.006,0.232 20.041,6.478 40.376,11.938 60.669,17.545 37.259,10.296 74.564,20.417 111.951,30.238 0.833,0.219 1.669,0.428 2.512,0.602 0.878,0.182 1.672,-0.399 1.834,-1.353 0.172,-1.02 0.329,-2.045 0.426,-3.075 0.292,-3.094 0.61,-6.188 0.812,-9.289 0.483,-7.41 0.912,-14.823 1.343,-22.236 0.039,-0.683 -0.057,-1.375 -0.101,-2.062 -0.038,-0.587 -0.455,-0.94 -0.919,-1.12 -0.47,-0.183 -1.011,-0.204 -1.524,-0.252 -2.923,-0.271 -5.845,-0.564 -8.771,-0.785 -6.199,-0.468 -12.402,-0.871 -18.6,-1.349 -6.714,-0.517 -13.423,-1.089 -20.133,-1.64 -0.517,-0.042 -1.031,-0.116 -1.547,-0.152 -6.546,-0.457 -13.095,-0.876 -19.638,-1.373 -6.541,-0.496 -13.077,-1.068 -19.615,-1.608 -0.517,-0.043 -1.032,-0.101 -1.549,-0.136 -6.892,-0.462 -13.786,-0.888 -20.675,-1.391 -6.888,-0.502 -13.77,-1.08 -20.654,-1.625 -0.345,-0.027 -0.689,-0.059 -1.034,-0.079 -7.93,-0.464 -15.86,-0.935 -23.791,-1.385 -6.38,-0.362 -12.761,-0.688 -19.14,-1.056 -0.852,-0.049 -1.73,-0.154 -2.526,-0.434 -0.392,-0.137 -0.694,-0.698 -0.901,-1.133 -0.133,-0.278 -0.053,-0.679 -0.011,-1.018 0.509,-4.111 1.135,-8.212 1.513,-12.335 0.316,-3.436 0.327,-6.899 0.507,-10.348 0.144,-2.757 0.318,-5.514 0.524,-8.268 0.072,-0.959 0.738,-1.546 1.736,-1.534 2.589,0.031 5.196,-0.062 7.76,0.218 7.378,0.807 14.731,1.834 22.106,2.662 7.892,0.886 15.801,1.618 23.697,2.463 8.067,0.864 16.124,1.813 24.192,2.67 4.806,0.51 9.627,0.89 14.437,1.375 5.152,0.519 10.299,1.098 15.449,1.641 3.777,0.398 7.554,0.801 11.335,1.164 4.984,0.478 9.975,0.891 14.958,1.385 4.981,0.493 9.956,1.062 14.935,1.579 4.293,0.446 8.589,0.869 12.884,1.299 3.435,0.345 6.87,0.701 10.308,1.019 1.028,0.095 2.067,0.09 3.101,0.105 0.586,0.008 1.284,-0.715 1.345,-1.343 0.034,-0.344 0.095,-0.688 0.09,-1.031 -0.069,-4.834 -0.134,-9.669 -0.229,-14.502 -0.027,-1.381 -0.173,-2.759 -0.223,-4.14 -0.374,-10.368 -1.586,-20.646 -3.121,-30.902 -2.714,-18.135 -6.922,-35.92 -12.306,-53.431 -2.03,-6.599 -4.29,-13.127 -6.444,-19.688 -7.53,-20.565 -12.164,-31.865 -15.153,-37.127 -0.279,0.115 -0.655,0.155 -0.815,0.361 -0.31,0.4 -0.554,0.873 -0.728,1.352 -2.184,6.032 -3.645,12.234 -4.344,18.614 -0.263,2.403 -0.599,4.799 -0.819,7.205 -0.299,3.271 -0.411,6.552 -0.188,9.835 0.11,1.617 -0.357,3.073 -1.166,4.437 -1.461,2.465 -3.59,3.623 -6.487,3.333 -2.882,-0.29 -4.772,-1.884 -5.824,-4.475 -0.381,-0.938 -0.542,-2.001 -0.618,-3.021 -0.192,-2.583 -0.237,-5.177 -0.415,-7.761 -0.838,-12.1 -4.257,-23.391 -10.652,-33.74 -5.714,-9.248 -13.143,-16.865 -22.029,-23.079 -11.032,-7.717 -23.187,-12.94 -36.253,-16.056 -3.682,-0.878 -7.294,-2.096 -11.127,-2.346 -0.974,-0.063 -1.991,-0.617 -2.834,-1.177 -0.686,-0.456 -1.374,-1.172 -1.659,-1.925 -0.899,-2.378 -0.851,-4.773 0.757,-6.884 1.995,-2.618 4.636,-4.08 7.989,-4.083 1.382,-10e-4 2.783,-0.108 4.141,0.078 1.921,0.263 3.782,0.042 5.661,-0.243 16.316,-2.479 29.981,-10.009 41.434,-21.751 0.12,-0.123 0.223,-0.262 0.336,-0.392 0.508,-0.581 0.61,-1.291 0.232,-1.887 M 0.493,11.619 c -1.821,1.099 -3.862,1.549 -5.946,1.542 -2.064,-0.007 -4.15,-0.14 -6.185,-0.468 -1.896,-0.306 -3.773,-0.379 -5.674,-0.305 -6.427,0.251 -12.706,1.432 -18.807,3.39 -13.619,4.37 -24.556,12.444 -32.636,24.27 -2.92,4.275 -2.681,3.463 -0.672,7.931 9.503,21.125 17.679,42.747 24.093,65.01 4.688,16.268 8.453,32.745 10.931,49.514 1.111,7.522 2.116,15.057 2.631,22.631 0.585,8.61 1.119,17.238 0.882,25.885 -0.029,1.031 0.034,2.065 0.082,3.096 0.029,0.616 0.674,1.25 1.34,1.359 0.511,0.084 1.024,0.157 1.537,0.225 5.476,0.719 10.951,1.444 16.429,2.147 1.312,0.168 2.233,0.81 2.805,1.998 3.249,6.748 3.432,13.635 0.867,20.613 -0.594,1.617 -1.417,3.15 -2.613,4.439 -0.487,0.525 -1.064,0.902 -1.785,0.915 -1.38,0.025 -2.762,0.015 -4.142,-0.017 -4.144,-0.096 -8.286,-0.218 -12.43,-0.307 -0.945,-0.021 -1.609,0.619 -1.672,1.568 -0.321,4.825 -0.603,9.652 -0.943,14.475 -0.45,6.373 -0.811,12.757 -1.454,19.111 -0.653,6.453 -1.256,5.288 4.863,7.36 2.287,0.774 4.606,1.457 6.909,2.187 0.493,0.156 0.995,0.295 1.465,0.504 1.336,0.594 2.208,1.585 2.607,3.02 1.549,5.566 0.899,10.962 -1.305,16.207 -0.945,2.247 -2.333,4.228 -4.245,5.801 -1.413,1.164 -2.952,1.727 -4.797,1.216 -1.995,-0.553 -4,-1.078 -6.011,-1.571 -0.835,-0.205 -1.697,-0.303 -2.549,-0.44 -0.54,-0.087 -1.415,0.588 -1.519,1.157 -0.063,0.34 -0.143,0.676 -0.199,1.017 -2.335,14.319 -5.266,28.51 -9.093,42.51 -0.227,0.831 -0.412,1.682 -0.511,2.535 -0.083,0.712 0.173,1.367 0.828,1.761 1.035,0.622 2.065,1.258 3.136,1.811 1.013,0.523 1.456,1.393 1.786,2.409 0.878,2.697 0.855,5.474 0.511,8.213 -0.594,4.743 -2.327,9.028 -5.892,12.372 -2.343,2.197 -4.984,3.716 -8.397,3.174 -0.484,-0.077 -1.003,0.06 -1.459,0.094 -1.106,1.068 -1.358,2.456 -1.853,3.72 -6.737,17.213 -14.138,34.128 -22.586,50.576 -9.247,18.003 -19.612,35.323 -31.609,51.64 -11.705,15.921 -24.756,30.612 -39.841,43.435 -12.698,10.793 -26.441,19.971 -41.606,26.958 -11.02,5.077 -22.44,8.912 -34.36,11.252 -4.577,0.899 -9.184,1.554 -13.801,2.196 -7.712,1.072 -15.444,1.765 -23.23,1.569 -3.795,-0.095 -7.583,-0.445 -11.375,-0.659 -8.988,-0.507 -17.822,-2.049 -26.61,-3.916 -16.607,-3.527 -32.635,-8.847 -48.175,-15.64 -7.433,-3.249 -14.842,-6.562 -22.163,-10.054 -5.449,-2.599 -10.8,-5.422 -16.088,-8.34 -8.934,-4.928 -17.435,-10.536 -25.499,-16.799 -0.937,-0.727 -1.982,-1.314 -3.068,-2.027 -4.383,3.58 -8.604,7.136 -12.942,10.543 -4.482,3.519 -9.011,6.984 -13.64,10.305 -4.489,3.22 -9.069,6.322 -13.721,9.299 -4.798,3.07 -9.732,5.928 -14.941,9.058 -8.444,4.792 -16.762,8.989 -25.288,12.78 -23.01,10.231 -46.862,17.473 -71.938,20.434 -7.724,0.912 -15.46,1.559 -23.241,1.618 -5.187,0.039 -10.35,-0.336 -15.524,-0.647 -10.554,-0.635 -20.916,-2.405 -31.166,-4.867 -22.653,-5.44 -43.945,-14.23 -64.087,-25.938 -11.596,-6.74 -21.98,-14.913 -31.188,-24.639 -13.854,-14.635 -24.453,-31.215 -30.435,-50.582 -0.356,-1.153 -0.822,-2.272 -1.207,-3.417 -3.641,-10.803 -6.718,-21.757 -9.057,-32.924 -2.373,-11.335 -4.074,-22.753 -5.156,-34.285 -0.905,-9.643 -1.4,-19.3 -1.368,-28.968 0.032,-9.841 0.512,-19.669 1.344,-29.49 0.994,-11.717 2.62,-23.337 4.772,-34.876 3.548,-19.028 8.543,-37.694 14.701,-56.048 11.747,-35.012 27.524,-68.15 46.387,-99.856 16.275,-27.357 34.5,-53.355 54.402,-78.187 18.384,-22.937 38.082,-44.701 58.797,-65.542 10.716,-10.782 21.677,-21.312 32.901,-31.57 18.752,-17.138 38.138,-33.524 58.11,-49.217 28.674,-22.531 58.367,-43.631 89.049,-63.34 30.672,-19.703 62.119,-38.074 94.378,-55.057 12.529,-6.596 25.171,-12.962 38.018,-18.919 2.355,-1.092 4.758,-2.032 7.28,-2.668 0.859,-0.217 1.666,-0.256 2.537,-0.044 5.029,1.227 10.077,2.38 15.102,3.621 6.365,1.57 12.695,3.284 19.079,4.771 3.15,0.733 5.695,2.317 8.059,4.423 9.419,8.389 18.617,17.015 27.584,25.881 15.117,14.945 29.54,30.537 43.271,46.769 15.294,18.08 29.705,36.832 43.093,56.367 2.636,3.846 5.224,7.725 7.827,11.594 0.485,0.721 0.952,1.446 2.053,1.747 0.709,-0.833 1.56,-1.68 2.236,-2.65 9.484,-13.601 14.752,-28.787 16.921,-45.135 0.25,-1.88 0.543,-3.76 0.94,-5.614 0.402,-1.87 1.216,-3.597 2.274,-5.192 0.874,-1.317 2.062,-2.263 3.436,-3.072 3.371,-1.984 8.62,0.205 9.695,4.034 0.569,2.025 0.782,4.072 0.623,6.152 -0.226,2.959 0.109,5.885 0.692,8.757 1.134,5.584 2.425,11.147 4.309,16.529 7.958,22.73 23.297,38.377 45.67,47.128 7.119,2.784 14.601,4.115 22.206,4.694 2.132,0.162 4.122,0.7 5.8,1.956 2.093,1.567 3.746,3.578 4.826,5.994 2.286,5.117 0.408,11.134 -4.375,14.02"
       style="fill:#d2451e;fill-opacity:1;fill-rule:nonzero;stroke:none"
       transform="matrix(1.3333333,0,0,-1.3333333,3984.6745,992.4224)"
       clip-path="url(#clipPath233)" />
    <path
       id="path234"
       d="m 0,0 c 0.493,0.052 1.005,0.235 1.438,0.486 11.944,6.94 24.123,13.451 36.286,19.994 15.963,8.586 31.911,17.202 47.895,25.75 13.09,7.002 26.229,13.913 39.33,20.895 1.672,0.891 3.289,1.905 4.852,2.978 2.291,1.574 3.412,3.748 3.336,6.607 -0.088,3.315 -0.71,6.51 -1.828,10.046 -4.108,11.532 -11.894,18.838 -22.815,23.023 -7.607,2.916 -15.51,3.562 -23.458,2.44 C 72.52,110.452 61.722,105.021 52.792,95.971 48.505,91.627 45.187,86.587 42.158,81.355 39.478,76.725 37.022,71.965 34.47,67.26 26.075,51.781 17.67,36.308 9.294,20.819 6.091,14.897 2.955,8.939 -0.203,2.993 -0.608,2.231 -1.016,1.433 -0.719,0.545 -0.636,0.298 -0.227,-0.024 0,0"
       style="fill:#d2451e;fill-opacity:1;fill-rule:nonzero;stroke:none"
       transform="matrix(1.3333333,0,0,-1.3333333,4034.7421,416.89653)"
       clip-path="url(#clipPath235)" />
    <path
       id="path236"
       d="m 0,0 c -14.15,-2.751 -26.08,-9.676 -35.598,-20.606 -13.369,-15.352 -26.754,-30.689 -40.117,-46.046 -5.096,-5.856 -10.158,-11.742 -15.214,-17.634 -0.894,-1.042 -1.707,-2.159 -2.494,-3.285 -0.133,-0.19 0.018,-0.617 0.117,-0.909 0.035,-0.103 0.306,-0.184 0.464,-0.176 0.509,0.026 1.038,0.023 1.52,0.164 4.134,1.21 8.26,2.45 12.797,3.787 1.738,0.469 3.067,0.836 4.398,1.195 11.148,3.009 22.297,6.013 33.445,9.024 26.287,7.102 52.573,14.208 78.861,21.31 3.493,0.944 6.986,1.89 10.489,2.796 1.113,0.287 1.749,0.942 2.12,2.011 3.208,9.269 2.735,18.32 -1.654,27.105 -3.672,7.347 -9.439,12.643 -16.532,16.617 C 22.329,1.107 11.293,2.195 0,0"
       style="fill:#d2451e;fill-opacity:1;fill-rule:nonzero;stroke:none"
       transform="matrix(1.3333333,0,0,-1.3333333,4203.9544,423.64773)"
       clip-path="url(#clipPath237)" />
    <path
       id="path238"
       d="M 0,0 C -0.687,-0.058 -1.379,-0.107 -2.057,-0.227 -8.003,-1.28 -13.988,-2 -20.004,-2.545 c -8.59,-0.778 -17.175,-1.547 -25.806,-1.718 -14.321,-0.282 -28.642,-0.234 -42.958,0.149 -6.894,0.185 -13.782,0.692 -20.667,1.144 -4.129,0.271 -8.253,0.659 -12.367,1.102 -4.971,0.535 -9.941,1.104 -14.89,1.806 -5.459,0.774 -10.94,1.441 -16.309,2.767 -0.997,0.246 -2.041,0.301 -3.066,0.426 -0.657,0.08 -1.092,-0.338 -1.297,-1.268 -0.073,-0.332 -0.052,-0.686 -0.032,-1.456 0.244,-1.149 0.778,-1.556 1.42,-1.847 3.14,-1.423 6.272,-2.865 9.427,-4.257 30.603,-13.496 61.212,-26.981 91.815,-40.477 3.025,-1.333 6.191,-2.208 9.455,-2.534 14.188,-1.414 26.583,2.772 37.128,12.311 5.078,4.594 8.765,10.169 10.834,16.751 1.865,5.931 2.033,11.857 -0.034,17.781 C 2.135,-0.391 1.429,0.12 0,0"
       style="fill:#d2451e;fill-opacity:1;fill-rule:nonzero;stroke:none"
       transform="matrix(1.3333333,0,0,-1.3333333,4314.3004,678.57467)"
       clip-path="url(#clipPath239)" />
    <path
       id="path240"
       d="m 0,0 c 3.579,0.553 7.146,1.2 10.735,1.679 6.499,0.868 13.012,1.624 19.515,2.459 6.846,0.88 13.683,1.823 20.53,2.691 6.676,0.846 13.366,1.583 20.038,2.455 9.067,1.185 18.121,2.476 27.186,3.679 10.604,1.408 21.214,2.776 31.823,4.151 3.251,0.421 6.499,0.883 9.761,1.199 6.783,0.657 6.097,0.537 8.558,6.976 0.73,1.913 1.161,3.99 1.406,6.03 0.962,7.986 -0.691,15.442 -4.837,22.345 -1.43,2.381 -3.121,4.553 -5.038,6.555 -0.639,0.668 -1.505,0.663 -2.265,-0.038 -0.634,-0.585 -1.251,-1.19 -1.859,-1.802 -2.078,-2.091 -4.348,-3.952 -6.826,-5.539 -9.646,-6.173 -20.225,-9.57 -31.616,-10.452 -2.232,-0.173 -4.455,0.031 -6.695,0.41 -10.888,1.841 -21.726,3.93 -32.476,6.453 -1.841,0.432 -3.39,0.202 -4.755,-1.142 C 52.695,47.627 52.127,47.222 51.597,46.78 41.911,38.714 32.227,30.647 22.253,22.354 14.545,15.928 7.124,9.73 -0.29,3.523 -1.216,2.749 -2.124,1.951 -2.992,1.113 -3.194,0.918 -3.313,0.487 -3.251,0.215 -3.203,0.008 -2.804,-0.265 -2.569,-0.258 -1.711,-0.231 -0.85,-0.131 0,0"
       style="fill:#d2451e;fill-opacity:1;fill-rule:nonzero;stroke:none"
       transform="matrix(1.3333333,0,0,-1.3333333,4108.0368,660.30853)"
       clip-path="url(#clipPath241)" />
    <path
       id="path242"
       d="m 0,0 c -0.502,-0.128 -1.001,-0.268 -1.495,-0.423 -8.561,-2.691 -17.264,-4.839 -26.012,-6.823 -12.12,-2.748 -24.361,-4.829 -36.656,-6.567 -8.367,-1.183 -16.764,-2.192 -25.172,-3.038 -9.784,-0.984 -19.559,-2.122 -29.395,-2.504 -1.38,-0.053 -2.754,-0.225 -4.133,-0.277 -2.411,-0.09 -4.824,-0.193 -7.236,-0.177 -7.939,0.052 -15.878,0.171 -23.818,0.223 -1.196,0.008 -2.408,-0.122 -3.58,-0.352 -0.402,-0.079 -0.945,-0.622 -1.003,-1.016 -0.124,-0.833 -0.04,-1.718 0.087,-2.563 0.108,-0.72 0.637,-1.211 1.317,-1.465 0.481,-0.179 0.992,-0.283 1.492,-0.408 9.038,-2.243 18.071,-4.505 27.115,-6.721 14.739,-3.61 29.452,-7.333 44.239,-10.732 10.078,-2.316 20.2,-4.481 30.406,-6.195 2.72,-0.457 5.441,-0.996 8.184,-1.204 5.013,-0.381 10.001,-0.059 14.908,1.163 8.654,2.153 16.552,5.852 23.639,11.3 4.51,3.467 7.866,7.707 9.473,13.227 0.193,0.662 0.382,1.325 0.676,2.409 1.245,4.117 1.17,7.913 1.021,11.715 -0.131,3.329 -1.08,6.449 -2.409,9.473 C 1.356,-0.292 0.597,0.152 0,0"
       style="fill:#d2451e;fill-opacity:1;fill-rule:nonzero;stroke:none"
       transform="matrix(1.3333333,0,0,-1.3333333,4291.3141,530.2156)"
       clip-path="url(#clipPath243)" />
    <path
       id="path244"
       d="m 0,0 c 10.52,-0.236 21.038,-0.543 31.557,-0.797 1.191,-0.029 2.414,-0.208 3.652,0.392 0.325,0.256 0.751,0.553 1.132,0.899 12.144,11.019 33.024,16.698 49.811,13.569 5.4,-1.007 4.912,-1.277 7.991,3.381 5.619,8.501 8.214,17.775 6.377,28.02 -0.9,5.025 -2.83,9.573 -6.176,13.462 -0.422,0.49 -1.054,0.797 -1.549,1.16 C 89.602,58.329 86.518,56.77 83.571,54.985 75.004,49.798 66.163,45.142 56.72,40.781 52.275,38.785 48.209,36.897 44.101,35.105 20.996,25.027 -2.661,16.505 -27.037,10.045 -34.533,8.058 -42.086,6.289 -49.777,5.187 c -1.361,-0.195 -2.697,-0.564 -4.041,-0.87 -0.61,-0.139 -0.808,-1 -0.479,-1.718 0.412,-0.9 1.115,-1.226 2.046,-1.256 9.137,-0.298 18.274,-0.654 27.413,-0.89 C -16.56,0.238 -8.279,0.186 0,0"
       style="fill:#d2451e;fill-opacity:1;fill-rule:nonzero;stroke:none"
       transform="matrix(1.3333333,0,0,-1.3333333,4115.5941,437.2012)"
       clip-path="url(#clipPath245)" />
    <path
       id="path246"
       d="m 0,0 c -11.401,-6.116 -22.793,-12.249 -34.212,-18.331 -21.314,-11.352 -42.646,-22.674 -64.303,-34.198 -5.55,-2.866 -10.772,-5.536 -15.982,-8.228 -0.755,-0.391 -1.485,-0.851 -2.162,-1.365 -0.23,-0.174 -0.422,-0.656 -0.353,-0.925 0.698,-2.7 2.11,-3.721 4.786,-3.487 1.374,0.12 2.756,0.232 4.112,0.47 9.686,1.705 19.252,3.922 28.713,6.617 16.609,4.73 32.817,10.594 48.759,17.196 22.188,9.188 43.44,20.275 64.359,32.019 2.723,1.528 5.136,3.495 7.299,5.747 2.188,2.277 3.818,4.902 4.577,7.993 0.685,2.791 -0.155,5.151 -2.382,6.912 -0.928,0.734 -2.04,1.341 -3.166,1.696 -2.82,0.888 -5.743,1.293 -8.689,0.834 C 29.147,12.606 26.947,12.136 24.789,11.549 20.45,10.37 16.28,8.716 12.3,6.623 8.179,4.456 4.103,2.201 0,0"
       style="fill:#d2451e;fill-opacity:1;fill-rule:nonzero;stroke:none"
       transform="matrix(1.3333333,0,0,-1.3333333,4193.6797,337.24733)"
       clip-path="url(#clipPath247)" />
    <path
       id="path248"
       d="m 0,0 c -21.1,-5.84 -42.196,-11.696 -63.306,-17.5 -9.805,-2.696 -19.548,-5.636 -29.516,-7.714 -0.663,-0.138 -1.31,-0.443 -1.902,-0.779 -0.247,-0.14 -0.434,-0.553 -0.472,-0.863 -0.13,-1.064 0.757,-2.159 1.732,-2.144 1.895,0.03 3.792,0.073 5.685,0.17 12.576,0.647 25.175,0.66 37.741,1.692 10.66,0.875 21.318,1.715 31.919,3.141 8.373,1.127 16.754,2.229 25.09,3.594 9.014,1.477 17.997,3.159 26.963,4.909 10.157,1.983 20.185,4.512 30.094,7.507 4.675,1.414 9.005,3.469 13.062,6.866 1.184,1.291 2.19,2.261 2.952,3.395 1.937,2.88 1.736,6.572 -1.708,9.103 -1.691,1.242 -3.579,2.11 -5.564,2.696 C 67.062,15.76 61.29,16.244 55.39,15.022 49.306,13.761 43.34,12.092 37.371,10.389 24.938,6.841 12.461,3.449 0,0"
       style="fill:#d2451e;fill-opacity:1;fill-rule:nonzero;stroke:none"
       transform="matrix(1.3333333,0,0,-1.3333333,4204.9555,514.21813)"
       clip-path="url(#clipPath249)" />
    <path
       id="path250"
       d="M 0,0 C -0.682,0.765 -1.471,1.488 -2.339,2.022 -3.803,2.924 -5.319,3.776 -6.9,4.445 -11.871,6.547 -17.139,7.487 -22.453,8.198 -22.96,8.265 -23.491,8.251 -24,8.186 -29.308,7.512 -34.614,6.822 -39.92,6.132 -46.766,5.243 -53.608,4.329 -60.456,3.464 -67.135,2.62 -73.822,1.847 -80.5,1.003 c -6.85,-0.867 -13.689,-1.813 -20.54,-2.666 -6.852,-0.853 -13.714,-1.618 -20.568,-2.453 -3.597,-0.439 -7.186,-0.946 -11.241,-1.488 -8.699,-0.962 -16.936,-1.859 -25.173,-2.753 -2.402,-0.261 -4.806,-0.508 -7.208,-0.775 -3.087,-0.342 -6.173,-0.696 -9.259,-1.051 -0.372,-0.043 -0.82,-0.732 -0.804,-1.192 0.034,-0.952 0.604,-1.759 1.432,-1.877 4.271,-0.609 8.537,-1.276 12.822,-1.763 7.374,-0.838 14.728,-1.828 22.126,-2.493 8.771,-0.787 17.529,-1.689 26.337,-1.974 0.862,-0.027 1.723,-0.104 2.586,-0.147 5.001,-0.25 10,-0.644 15.003,-0.713 9.152,-0.126 18.307,-0.107 27.46,-0.062 12.791,0.063 25.535,1.008 38.25,2.314 4.459,0.458 8.904,1.144 13.318,1.939 3.917,0.705 7.669,2.021 11.198,3.911 1.845,0.988 3.531,2.189 4.861,3.813 C 2.304,-5.734 2.471,-2.77 0,0"
       style="fill:#d2451e;fill-opacity:1;fill-rule:nonzero;stroke:none"
       transform="matrix(1.3333333,0,0,-1.3333333,4337.596,651.52947)"
       clip-path="url(#clipPath251)" />
    <path
       id="path252"
       d="m 0,0 c 4.095,-4.301 6.157,-9.488 6.755,-15.328 0.087,-0.847 0.186,-1.698 0.385,-2.521 0.044,-0.182 0.604,-0.427 0.812,-0.347 0.797,0.307 1.568,0.697 2.311,1.122 11.674,6.683 23.342,13.376 35.345,20.248 11.375,6.58 22.413,12.985 33.462,19.37 4.497,2.599 3.998,2.145 2.213,6.757 -0.616,1.593 -1.504,3.11 -2.452,4.54 C 75.727,38.524 75.479,37.91 71.4,36.079 70.614,35.726 69.838,35.348 69.057,34.984 55.307,28.567 41.553,22.162 27.81,15.732 19.221,11.713 10.647,7.661 2.072,3.612 0.993,3.103 -0.216,2.783 -0.96,1.733 -0.934,1.568 -0.954,1.382 -0.876,1.257 -0.605,0.824 -0.349,0.366 0,0"
       style="fill:#d2451e;fill-opacity:1;fill-rule:nonzero;stroke:none"
       transform="matrix(1.3333333,0,0,-1.3333333,3927.6256,470.14733)"
       clip-path="url(#clipPath253)" />
    <path
       id="path254"
       d="m 0,0 c -9.638,-0.475 -19.276,-0.967 -28.909,-1.519 -8.085,-0.463 -16.163,-1.045 -24.247,-1.529 -8.256,-0.495 -16.516,-0.93 -24.773,-1.408 -0.678,-0.04 -1.349,-0.205 -2.022,-0.32 -0.408,-0.071 -0.815,-0.783 -0.691,-1.217 0.188,-0.663 0.375,-1.327 0.588,-1.983 1.411,-4.346 1.704,-8.776 0.951,-13.272 -0.283,-1.688 -0.678,-3.357 -1.047,-5.156 2.096,-0.977 4.077,-0.122 6.51,0.227 3.006,0.423 5.565,0.779 8.122,1.143 10.572,1.502 21.147,2.979 31.712,4.52 9.031,1.317 18.054,2.693 27.076,4.073 3.915,0.599 7.819,1.268 11.726,1.924 0.851,0.143 1.455,0.946 1.529,1.824 C 6.758,-9.903 6.141,-7.201 5.67,-4.49 4.833,0.324 4.61,0.227 0,0"
       style="fill:#d2451e;fill-opacity:1;fill-rule:nonzero;stroke:none"
       transform="matrix(1.3333333,0,0,-1.3333333,4088.4953,660.676)"
       clip-path="url(#clipPath255)" />
    <path
       id="path256"
       d="m 0,0 c 0.008,-0.285 0.294,-0.563 0.536,-0.993 5.828,1.351 11.473,3.482 17.656,5.241 13.728,4.238 27.07,8.317 40.407,12.414 6.092,1.871 12.177,3.765 18.258,5.674 1.568,0.492 2.006,1.108 1.95,2.577 -0.038,1.032 -0.061,2.075 -0.224,3.092 -0.496,3.094 -1.49,6.012 -3.262,8.631 -0.62,0.917 -1.567,1.309 -2.682,1.09 C 72.301,37.659 71.968,37.569 71.633,37.492 62.567,35.415 53.5,33.343 44.436,31.26 31.342,28.251 18.25,25.238 5.16,22.214 2.643,21.633 0.149,20.948 -2.374,20.393 -4.158,20 -4.551,19.148 -3.471,17.472 c 0.185,-0.288 0.319,-0.61 0.48,-0.915 C -0.849,12.508 0.171,8.198 0.042,3.617 0.008,2.411 -0.032,1.204 0,0"
       style="fill:#d2451e;fill-opacity:1;fill-rule:nonzero;stroke:none"
       transform="matrix(1.3333333,0,0,-1.3333333,3969.0865,596.66867)"
       clip-path="url(#clipPath257)" />
    <path
       id="path258"
       d="m 0,0 c 0.9,0.506 1.791,1.036 2.648,1.61 0.764,0.511 1.19,1.971 0.86,2.802 -0.254,0.641 -0.523,1.279 -0.838,1.891 -2.806,5.434 -6.513,10.161 -11.17,14.13 -9.966,8.493 -21.698,12.59 -34.578,13.589 -5.503,0.426 -11.009,0.208 -16.514,-0.701 -10.017,-1.655 -19.341,-5.018 -27.918,-10.44 -5.146,-3.254 -9.757,-7.14 -13.496,-11.968 -1.581,-2.04 -2.937,-4.254 -4.384,-6.398 -0.48,-0.712 -0.918,-1.453 -1.387,-2.173 -0.206,-0.317 -1.104,-0.374 -1.392,-0.088 -3.551,3.525 -7.017,7.137 -10.986,10.218 -10.842,8.417 -22.82,14.08 -36.589,15.837 -6.27,0.8 -12.47,0.616 -18.529,-0.743 -19.336,-4.336 -32.526,-15.948 -39.513,-34.494 -1.768,-4.693 -2.833,-9.592 -3.341,-15.069 -0.348,-6.148 -0.812,-11.795 -0.249,-17.522 0.712,-7.252 2.079,-14.327 4.143,-21.294 3.456,-11.659 8.746,-22.488 14.81,-32.978 12.807,-22.153 29.18,-41.461 47.337,-59.338 9.729,-9.579 20.056,-18.485 30.723,-27.003 13.908,-11.106 28.273,-21.568 43.38,-30.995 0.878,-0.548 1.745,-1.114 2.612,-1.68 4.478,-2.926 8.947,-5.867 13.441,-8.767 0.717,-0.463 1.521,-0.833 2.335,-1.085 0.444,-0.137 1.104,-0.1 1.472,0.147 0.997,0.667 1.935,1.439 2.816,2.257 8.244,7.659 15.773,15.973 22.454,25.026 19.645,26.622 32.922,56.172 40.417,88.356 0.273,1.172 0.37,2.385 0.525,3.582 0.068,0.522 -0.703,1.452 -1.212,1.447 -2.242,-0.02 -4.499,0.083 -6.724,-0.128 -6.025,-0.571 -12.069,-0.615 -18.107,-0.829 -1.898,-0.068 -3.796,-0.141 -5.693,-0.232 -10.689,-0.515 -21.374,-1.143 -32.067,-1.521 -8.109,-0.287 -16.229,-0.253 -24.344,-0.38 -0.853,-0.013 -1.714,-0.106 -2.551,-0.267 -0.217,-0.041 -0.496,-0.479 -0.502,-0.74 -0.013,-0.497 0.081,-1.023 0.253,-1.492 1.6,-4.363 1.55,-8.793 0.586,-13.264 -0.661,-3.063 -1.747,-5.962 -3.506,-8.569 -0.368,-0.547 -0.931,-1.017 -1.503,-1.358 -0.61,-0.364 -1.329,-0.292 -1.945,0.118 -0.533,0.354 -0.904,1.297 -0.712,1.814 0.298,0.803 0.63,1.594 0.959,2.385 0.66,1.591 1.501,3.13 1.961,4.776 1.499,5.359 1.219,10.603 -1.581,15.53 -0.674,1.187 -1.616,2.226 -2.462,3.312 -0.701,0.9 -0.793,1.876 -0.446,2.919 0.435,1.307 0.911,2.601 1.333,3.912 0.539,1.674 0.621,3.411 0.389,5.128 -0.491,3.623 -1.461,7.095 -3.61,10.141 -0.696,0.987 -1.398,1.977 -1.985,3.029 -0.517,0.927 -0.615,1.97 -0.295,3.011 0.507,1.648 1.158,3.264 1.514,4.943 1.132,5.332 1.075,10.629 -0.885,15.798 -1.237,3.264 -3.088,6.164 -5.349,8.811 -0.894,1.046 -1.81,2.078 -2.639,3.174 -0.292,0.386 -0.432,0.915 -0.175,1.465 0.267,0.575 1.022,1.016 1.698,0.848 0.664,-0.165 1.341,-0.324 1.967,-0.59 3.486,-1.485 5.903,-4.131 7.791,-7.317 1.787,-3.017 2.704,-6.329 3.192,-9.776 0.121,-0.85 0.209,-1.71 0.423,-2.537 0.053,-0.204 0.597,-0.476 0.817,-0.406 0.646,0.203 1.279,0.506 1.852,0.872 2.474,1.578 4.917,3.205 7.386,4.79 18.891,12.12 38.179,23.59 57.489,35.021 2.377,1.407 4.762,2.799 7.124,4.23 0.752,0.456 1.295,1.119 1.514,2.012 0.582,2.384 1.627,4.536 3.207,6.427 C -5.519,-4.117 -3.06,-1.719 0,0"
       style="fill:#d2451e;fill-opacity:1;fill-rule:nonzero;stroke:none"
       transform="matrix(1.3333333,0,0,-1.3333333,3644.7543,590.1716)"
       clip-path="url(#clipPath259)" />
    <path
       id="path260"
       d="m 0,0 c -1.647,-5.28 -2.832,-10.672 -3.243,-16.216 -0.242,-3.269 -0.626,-6.528 -0.94,-9.791 -0.134,-1.394 -0.435,-2.751 -1.244,-3.905 -0.378,-0.54 -0.931,-1.006 -1.499,-1.353 -0.914,-0.558 -2.235,-0.054 -2.605,0.861 -0.723,1.788 -0.982,3.65 -1.034,5.567 -0.187,6.939 -1.303,13.747 -3.176,20.417 -2.357,8.395 -6.061,16.116 -11.515,22.999 -5.657,7.139 -12.873,11.912 -21.437,14.763 -1.138,0.379 -2.359,0.501 -3.522,0.813 -0.659,0.177 -1.299,0.46 -1.914,0.762 -1.377,0.678 -1.7,2.935 -0.55,4.003 0.496,0.46 1.073,0.897 1.694,1.145 1.762,0.703 3.525,1.463 5.359,1.913 6.1,1.497 10.984,4.911 15.173,9.422 5.994,6.453 9.926,14.1 12.463,22.456 1.909,6.287 3.194,12.721 3.482,19.318 0.128,2.931 0.313,5.86 0.42,8.791 0.083,2.266 0.446,4.472 1.353,6.55 0.261,0.598 0.792,1.099 1.262,1.582 0.432,0.443 1.463,0.373 1.91,-0.01 1.087,-0.934 1.803,-2.115 2.078,-3.493 0.406,-2.027 0.854,-4.07 0.982,-6.125 0.269,-4.343 1.25,-8.544 2.391,-12.699 2.574,-9.374 6.232,-18.29 11.639,-26.43 2.598,-3.911 5.613,-7.456 9.217,-10.461 5.153,-4.295 10.939,-7.195 17.753,-7.685 2.518,0.11 3.947,-0.295 5.045,-1.61 0.579,-0.695 0.851,-1.481 0.887,-2.369 C 40.479,37.976 39.75,36.678 38.65,36.31 36.199,35.49 33.755,34.624 31.255,33.985 25.073,32.403 19.825,29.238 15.196,24.924 7.8,18.031 2.982,9.559 0,0 m 2.677,145.316 c -5.153,1.56 -10.418,2.386 -15.791,2.629 -2.412,0.11 -4.819,0.325 -7.223,0.549 -0.678,0.063 -1.397,0.211 -1.988,0.524 -0.743,0.394 -1.444,0.929 -2.036,1.528 -0.656,0.663 -0.7,1.538 -0.345,2.399 0.284,0.688 0.858,1.143 1.544,1.248 1.701,0.261 3.428,0.352 5.13,0.61 8.75,1.327 17.14,3.92 25.338,7.206 9.535,3.821 18.308,8.928 26.173,15.534 11.937,10.027 20.494,22.341 24.847,37.408 1.927,6.671 2.929,13.49 2.762,20.455 -0.443,3.054 -0.126,5.108 0.258,7.144 0.164,0.864 0.753,1.525 1.465,2.062 0.844,0.635 2.025,0.659 2.893,0.071 0.738,-0.501 1.31,-1.134 1.597,-1.974 0.563,-1.65 0.864,-3.333 0.613,-5.092 -2.442,-17.108 4.672,-40.054 17.336,-54.842 9.631,-11.246 21.723,-18.54 35.981,-22.266 6.031,-1.576 12.191,-2.409 18.455,-2.24 2.244,0.061 4.489,0.123 6.734,0.133 1.379,0.006 2.766,-0.008 4.135,-0.15 1.829,-0.19 3.544,-1.965 3.782,-3.754 0.56,-4.201 -1.471,-7.441 -5.506,-8.78 -1.804,-0.598 -3.627,-0.989 -5.543,-1.187 -15.478,-1.603 -29.481,-7.029 -41.82,-16.559 C 94.714,122.755 89.059,116.491 84.326,109.393 77.722,99.49 73.243,88.752 71.382,76.944 70.844,73.53 70.283,70.145 70.155,66.674 70.055,63.928 69.539,61.195 69.168,58.462 69.1,57.964 68.874,57.478 68.665,57.011 68.083,55.706 66.162,55.438 65.15,56.446 c -0.888,0.885 -1.454,1.949 -1.794,3.106 -0.485,1.654 -0.881,3.339 -1.22,5.029 -0.576,2.871 -0.956,5.777 -1.419,8.665 -0.873,5.454 -2.261,10.817 -4.077,16.042 -4.24,12.195 -10.347,23.34 -18.889,33.083 -9.559,10.902 -21.135,18.726 -35.074,22.945 m 100.901,28.247 c 0.048,0.11 0.25,0.221 0.378,0.218 2.061,-0.049 4.14,0.044 6.177,-0.207 10.44,-1.287 20.704,-3.411 30.686,-6.788 0.652,-0.221 1.316,-0.407 1.974,-0.609 1.935,-0.775 3.436,-0.783 4.16,-2.257 l -1.614,-0.227 v 0 c -1.868,-0.263 -3.705,-0.522 -5.531,-0.77 -0.338,-0.046 -0.688,-0.036 -1.031,-0.02 -10.063,0.462 -19.832,2.252 -29.004,6.602 -2.014,0.956 -3.928,2.125 -5.889,3.193 -0.346,0.188 -0.476,0.481 -0.306,0.865 m 385.245,-355.288 c 5.512,16.384 9.936,33.049 13.01,50.073 1.504,8.333 2.586,16.721 3.581,25.122 0.467,3.943 0.723,7.911 1.031,11.871 0.051,0.666 -0.055,1.365 -0.216,2.016 -0.063,0.253 -0.462,0.564 -0.74,0.6 -1.569,0.202 -3.056,-0.176 -4.654,-0.845 -0.124,-0.587 -0.329,-1.241 -0.392,-1.909 -0.392,-4.126 -0.635,-8.271 -1.148,-12.382 -1.045,-8.393 -2.191,-16.77 -3.738,-25.095 -3.191,-17.177 -7.579,-34.025 -13.326,-50.524 -7.291,-20.936 -16.63,-40.935 -27.576,-60.19 -13.286,-23.371 -29.113,-44.902 -47.272,-64.714 -10.164,-11.089 -20.915,-21.581 -32.359,-31.356 -7.489,-6.396 -15.182,-12.537 -23.115,-18.373 -1.096,-0.806 -2.283,-1.488 -3.397,-2.207 -0.804,0.3 -1.475,0.485 -2.086,0.788 -6.339,3.15 -12.8,6.083 -18.974,9.529 -14.776,8.247 -29.351,16.853 -43.655,25.902 -24.252,15.34 -47.601,31.957 -70.074,49.801 -20.17,16.015 -39.598,32.884 -58.138,50.764 -16.049,15.478 -31.351,31.666 -45.89,48.576 -13.411,15.597 -26.11,31.748 -37.901,48.603 -13.383,19.129 -25.565,38.983 -35.957,59.912 -5.302,10.678 -10.089,21.575 -14.284,32.738 -5.116,13.612 -8.79,27.622 -11.798,41.826 -0.194,0.912 -0.089,1.715 0.339,2.483 1.864,3.338 4.142,6.393 6.872,9.049 5.973,5.813 12.795,9.951 21.424,10.319 0.841,0.036 1.726,0.247 2.494,0.591 3.596,1.612 5.33,5.283 4.745,9.434 -0.41,2.912 -3.98,6.562 -7,6.811 -1.719,0.142 -3.423,0.456 -5.14,0.622 -2.987,0.29 -5.693,1.384 -8.276,2.82 -2.425,1.349 -4.633,2.998 -6.652,4.911 -5.608,5.315 -9.613,11.718 -12.811,18.685 -0.524,1.14 -0.733,2.308 -0.609,3.525 0.226,2.232 0.538,4.456 0.772,6.689 1.194,11.406 4.002,22.409 8.202,33.069 1.584,4.023 3.362,7.95 5.547,11.686 0.359,0.614 1.244,0.849 1.786,0.497 0.433,-0.281 0.879,-0.546 1.291,-0.857 5.131,-3.866 9.703,-8.315 13.696,-13.343 11.819,-14.88 18.162,-31.992 20.602,-50.691 0.245,-1.881 0.535,-3.767 0.986,-5.606 0.538,-2.195 1.467,-4.265 2.985,-5.972 2.863,-3.219 6.368,-3.849 9.735,-1.811 1.217,0.737 2.095,1.768 2.66,3.085 0.838,1.955 1.036,3.996 0.938,6.09 -0.17,3.641 0.028,7.242 0.94,10.798 0.901,3.511 1.582,7.08 2.545,10.572 4.144,15.023 11.749,27.943 23.52,38.29 9.508,8.357 20.305,14.271 32.684,17.154 4.71,1.096 9.453,1.99 14.304,2.247 3.669,0.195 6.603,1.847 8.763,4.836 0.303,0.42 0.591,0.851 0.89,1.275 1.676,2.368 2.232,5.03 1.938,7.867 -0.141,1.369 -0.481,2.717 -0.731,4.075 0,0 -0.164,0.272 -0.465,0.678 -0.016,0.129 -0.005,0.264 0.079,0.411 0.093,0.163 0.477,0.16 1.342,0.064 2.35,-0.933 4.108,-1.65 5.818,-2.465 9.993,-4.762 19.555,-10.289 28.84,-16.305 13.508,-8.752 26.178,-18.603 38.27,-29.212 0.648,-0.57 1.285,-1.155 1.957,-1.695 1.258,-1.012 2.745,-0.845 3.592,0.463 1.219,1.884 2.369,3.811 3.546,5.722 4.809,7.803 10.02,15.325 15.94,22.33 11.5,13.606 25.588,23.588 42.261,29.872 17.75,6.689 36.012,7.787 54.571,4.56 15.485,-2.692 29.838,-8.479 43.306,-16.533 12.999,-7.774 24.467,-17.411 34.711,-28.522 16.608,-18.012 28.901,-38.655 37.369,-61.611 0.597,-1.619 1.175,-3.246 1.822,-4.844 0.186,-0.459 0.537,-0.881 0.901,-1.226 0.226,-0.214 0.64,-0.385 0.931,-0.337 0.494,0.081 0.98,0.306 1.428,0.547 2.58,1.387 2.811,1.914 1.952,4.471 -0.384,1.145 -0.814,2.275 -1.229,3.409 -3.922,10.729 -8.726,21.045 -14.476,30.919 -11.24,19.302 -25.323,36.192 -42.735,50.235 -11.774,9.494 -24.644,17.15 -38.732,22.708 -10.66,4.206 -21.686,7.072 -33.088,8.115 -9.121,0.835 -18.268,0.761 -27.391,-0.598 -11.733,-1.748 -22.825,-5.351 -33.347,-10.782 -8.812,-4.549 -16.718,-10.375 -23.949,-17.124 -10.223,-9.541 -18.44,-20.536 -23.987,-33.439 -0.34,-0.791 -0.718,-1.567 -1.092,-2.343 -0.206,-0.427 -0.973,-0.636 -1.309,-0.35 -1.709,1.455 -3.419,2.908 -5.111,4.383 -16.326,14.229 -33.74,26.907 -52.803,37.27 -13.548,7.365 -27.601,13.507 -42.447,17.712 -12.509,3.543 -25.237,5.793 -38.303,5.687 -1.197,-0.01 -2.395,0.138 -3.522,0.208 -3.243,2.827 -5.998,5.907 -8.426,9.286 -6.367,8.864 -10.133,18.782 -12.035,29.478 -0.758,4.259 -1.131,8.559 -1.557,12.853 -0.238,2.4 -0.289,4.819 -0.383,7.231 -0.04,1.034 0.045,2.072 0.036,3.108 -0.024,2.606 -1.216,4.634 -3.22,6.197 -0.529,0.412 -1.189,0.754 -1.839,0.896 -4.536,0.991 -8.389,-1.606 -9.109,-6.147 -0.189,-1.187 -0.183,-2.408 -0.243,-3.614 -0.188,-3.795 -0.448,-7.578 -0.945,-11.353 -0.976,-7.431 -3.103,-14.499 -6.274,-21.272 -5.233,-11.178 -12.968,-20.344 -22.605,-27.941 -8.345,-6.578 -17.617,-11.525 -27.597,-15.125 -7.48,-2.698 -15.131,-4.789 -22.998,-6.047 -1.016,-0.162 -2.029,-0.444 -2.993,-0.804 -1.742,-0.651 -2.792,-1.965 -3.241,-3.762 -0.489,-1.956 -0.174,-3.81 0.956,-5.443 1.867,-2.695 4.408,-4.395 7.761,-4.518 1.892,-0.07 3.8,0.029 5.688,0.194 1.398,0.122 2.746,0.057 4.109,-0.252 1.177,-0.267 2.381,-0.416 3.566,-0.653 6.81,-1.359 13.372,-3.446 19.505,-6.753 1.043,-0.563 1.99,-1.304 2.866,-1.887 0.102,-1.517 -0.611,-2.536 -1.151,-3.603 C 8.062,119.278 4.216,107.504 1.888,95.217 1.664,94.035 1.316,92.873 0.964,91.721 0.902,91.518 0.53,91.411 0.146,91.157 c -1.296,3.102 -1.732,6.37 -2.61,9.51 -0.48,1.712 -0.244,3.424 -0.194,5.146 0.091,3.103 -1.11,5.719 -3.174,7.97 -1.583,1.725 -4.694,2.492 -6.679,1.537 -2.967,-1.426 -5.036,-3.487 -5.173,-7.1 -0.156,-4.136 -0.597,-8.262 -0.845,-12.396 -0.512,-8.52 -2.393,-16.737 -5.465,-24.68 -2.066,-5.341 -4.68,-10.403 -8.34,-14.846 -4.615,-5.603 -10.108,-9.869 -17.477,-11.228 -2.069,-0.382 -3.894,-1.414 -5.595,-2.611 -2.239,-1.576 -3.333,-4.389 -2.562,-6.829 0.942,-2.981 2.798,-5.096 6.006,-5.814 8.141,-1.822 15.106,-5.743 20.828,-11.825 2.257,-2.399 4.16,-5.073 5.851,-7.896 5.224,-8.72 8.321,-18.181 9.683,-28.22 0.465,-3.42 0.766,-6.864 1.075,-10.303 0.142,-1.569 0.442,-3.075 1.143,-4.486 0.72,-1.452 1.828,-2.468 3.357,-3.065 1.343,-0.525 2.672,-0.611 4.05,-0.215 3.152,0.907 6.345,4.03 5.876,8.119 -0.098,0.855 -0.182,1.733 -0.098,2.583 0.718,7.215 1.315,14.454 3.354,21.46 0.382,1.312 0.946,2.576 1.502,3.828 0.097,0.22 0.565,0.293 0.877,0.383 0.058,0.017 0.242,-0.194 0.273,-0.323 0.604,-2.515 1.163,-5.041 1.793,-7.549 4.554,-18.143 11.046,-35.589 18.909,-52.544 12.837,-27.683 28.833,-53.47 46.781,-78.09 20.706,-28.402 43.859,-54.697 68.7,-79.519 10.508,-10.5 21.214,-20.808 32.401,-30.591 8.191,-7.163 16.402,-14.308 24.774,-21.256 15.956,-13.242 32.478,-25.752 49.462,-37.651 18.821,-13.186 38.078,-25.698 58.081,-37.021 10.666,-6.039 21.503,-11.778 32.261,-17.654 1.667,-0.911 3.315,-1.857 4.995,-2.741 1.221,-0.642 2.481,-1.21 3.724,-1.809 1.037,-0.5 2.047,-0.339 2.942,0.285 1.131,0.788 2.287,1.577 3.268,2.534 2.483,2.422 5.235,4.506 7.978,6.604 12.502,9.566 24.292,19.952 35.502,30.991 16.16,15.914 30.817,33.117 43.94,51.625 20.312,28.646 36.299,59.502 47.503,92.805"
       style="fill:#d2451e;fill-opacity:1;fill-rule:nonzero;stroke:none"
       transform="matrix(1.3333333,0,0,-1.3333333,3157.8763,599.5392)"
       clip-path="url(#clipPath261)" />
    <path
       id="path262"
       d="m 0,0 c -0.687,0.737 -1.571,0.586 -2.41,0.486 -6.333,-0.76 -12.663,-1.54 -18.994,-2.316 -2.908,-0.356 -5.817,-0.713 -8.724,-1.08 -4.104,-0.518 -8.203,-1.071 -12.31,-1.563 -7.017,-0.84 -14.044,-1.61 -21.059,-2.472 -7.184,-0.883 -14.358,-1.846 -21.538,-2.764 -1.798,-0.23 -1.944,-0.343 -2.337,-2.126 -0.148,-0.673 -0.293,-1.346 -0.581,-2.426 -0.281,-0.904 -0.449,-1.397 -0.554,-1.903 -0.321,-1.554 0.279,-2.272 1.858,-2.218 2.24,0.078 4.48,0.177 6.72,0.268 12.063,0.487 24.126,0.958 36.188,1.471 4.135,0.176 8.263,0.491 12.397,0.681 9.993,0.459 19.987,0.881 29.98,1.322 0.517,0.022 1.035,0.059 1.546,0.132 0.336,0.047 0.661,0.175 0.992,0.261 0.388,0.1 0.851,0.831 0.744,1.193 -0.145,0.494 -0.241,1.012 -0.457,1.474 -1.576,3.386 -2.124,6.896 -1.398,10.586 C 0.125,-0.679 0.025,-0.332 0,0"
       style="fill:#d2451e;fill-opacity:1;fill-rule:nonzero;stroke:none"
       transform="matrix(1.3333333,0,0,-1.3333333,3648.6716,701.6904)"
       clip-path="url(#clipPath263)" />
    <path
       id="path264"
       d="m 0,0 c 0.049,0.674 0.017,1.368 -0.102,2.031 -0.04,0.222 -0.519,0.574 -0.711,0.526 -1.328,-0.333 -2.662,-0.68 -3.942,-1.163 -12.756,-4.812 -25.507,-9.639 -38.25,-14.485 -12.098,-4.601 -24.187,-9.226 -36.275,-13.852 -0.796,-0.305 -1.579,-0.671 -2.314,-1.101 -0.243,-0.142 -0.507,-0.637 -0.434,-0.865 0.421,-1.309 0.862,-2.623 1.448,-3.864 0.566,-1.196 1.616,-1.058 2.658,-0.656 0,0 0.145,0.041 0.379,0.077 -0.172,-0.063 -0.322,-0.192 -0.203,-0.434 0.071,-0.658 0.042,-1.032 -0.158,-1.242 -0.221,-0.232 -0.601,-0.31 -0.908,-0.46 -0.152,-0.075 -0.298,-0.162 -0.447,-0.244 -0.543,-0.298 -0.587,-0.796 -0.482,-1.316 0.104,-0.514 0.612,-0.821 1.171,-0.713 4.38,0.842 8.757,1.695 13.018,2.763 -0.369,0.644 -0.622,1.069 -1.31,1.531 -1.78,-0.208 -3.118,-0.493 -4.469,-0.688 -1.518,-0.219 -3.044,-0.431 -4.574,-0.498 -0.749,-0.033 -1.134,0.587 -1.396,1.334 0.125,0.013 0.264,0.023 0.419,0.025 8.523,1.897 16.409,3.779 24.294,5.671 18.119,4.347 36.238,8.699 54.356,13.052 1.005,0.241 2.027,0.453 2.939,1.34 -0.457,0.669 -0.917,1.364 -1.399,2.044 C 0.931,-7.833 -0.301,-4.149 0,0"
       style="fill:#d2451e;fill-opacity:1;fill-rule:nonzero;stroke:none"
       transform="matrix(1.3333333,0,0,-1.3333333,3638.8164,660.44707)"
       clip-path="url(#clipPath265)" />
    <path
       id="path266"
       d="M 0,0 C -0.529,1.399 -0.21,3.067 -1.281,4.277 -1.699,4.18 -2.074,4.178 -2.357,4.016 -26.17,-9.56 -49.976,-23.147 -73.776,-36.744 c -0.44,-0.251 -0.802,-0.638 -1.377,-1.105 -0.376,-2.045 -0.785,-4.234 -1.177,-6.426 -0.072,-0.402 0.592,-0.917 0.983,-0.887 1.6,0.124 2.94,0.965 4.345,1.587 6.934,3.071 13.845,6.193 21.113,9.479 10.565,4.781 20.786,9.366 30.994,13.983 6.753,3.053 13.484,6.155 20.23,9.226 0.936,0.426 1.935,0.752 2.402,1.995 C 3.06,-7.627 2.221,-6.311 1.632,-4.891 0.976,-3.308 0.608,-1.607 0,0"
       style="fill:#d2451e;fill-opacity:1;fill-rule:nonzero;stroke:none"
       transform="matrix(1.3333333,0,0,-1.3333333,3628.534,625.64187)"
       clip-path="url(#clipPath267)" />
    <path
       id="path268"
       d="m 0,0 c -1.874,-0.877 -3.738,-1.777 -5.594,-2.691 -2.184,-1.075 -4.099,-2.531 -5.901,-4.16 -4.276,-3.864 -6.063,-8.729 -5.621,-14.388 0.384,-4.926 2.137,-9.383 5.156,-13.324 0.867,-1.132 1.929,-1.957 3.309,-2.354 0.664,-0.191 1.324,-0.391 1.984,-0.591 1.04,-0.313 2.018,-0.23 2.982,0.318 4.965,2.822 10.218,4.967 15.67,6.643 0.493,0.151 0.966,0.365 1.444,0.56 0.855,0.349 1.236,1.146 0.955,2.098 -1.956,6.618 -4.138,13.155 -7.152,19.804 C 5.825,-5.268 4.568,-2.812 2.747,-0.7 1.939,0.237 1.058,0.495 0,0"
       style="fill:#d2451e;fill-opacity:1;fill-rule:nonzero;stroke:none"
       transform="matrix(1.3333333,0,0,-1.3333333,3656.3784,590.8236)"
       clip-path="url(#clipPath269)" />
    <path
       id="path270"
       d="m 0,0 c -0.051,-0.678 0.019,-1.386 0.159,-2.053 0.576,-2.739 1.617,-5.283 3.56,-7.346 4.104,-4.358 9.051,-6.814 15.164,-6.341 3.432,0.265 6.851,0.693 10.704,1.085 2.004,0.738 2.096,0.913 1.888,2.225 -1.537,9.694 -3.566,19.288 -5.897,28.819 -0.162,0.663 -0.433,1.3 -0.683,1.938 -0.206,0.524 -0.666,0.899 -1.181,0.772 C 18.184,17.74 12.681,16.096 7.767,13.267 2.858,10.44 0.427,5.683 0,0"
       style="fill:#d2451e;fill-opacity:1;fill-rule:nonzero;stroke:none"
       transform="matrix(1.3333333,0,0,-1.3333333,3644.4117,660.626)"
       clip-path="url(#clipPath271)" />
    <path
       id="path272"
       d="m 0,0 c -4.306,-0.743 -8.216,-2.534 -11.852,-4.928 -1.597,-1.052 -2.97,-2.366 -4.156,-3.86 -1.194,-1.502 -2.099,-3.166 -2.436,-5.08 -1.029,-5.852 1.369,-10.777 6.071,-13.784 2.496,-1.596 5.256,-2.601 8.114,-3.294 4.027,-0.975 8.143,-1.454 12.245,-1.989 0.903,-0.118 1.689,0.59 1.696,1.486 0.005,0.688 -0.005,1.377 -0.038,2.065 -0.44,9.136 -1.462,18.222 -2.465,27.307 C 7.088,-1.249 6.654,-0.459 5.998,0.543 3.678,1.014 1.855,0.32 0,0"
       style="fill:#d2451e;fill-opacity:1;fill-rule:nonzero;stroke:none"
       transform="matrix(1.3333333,0,0,-1.3333333,3678.4577,685.56347)"
       clip-path="url(#clipPath273)" />
    <path
       id="path274"
       d="M 0,0 C 1.173,0.723 2.352,1.453 3.426,2.308 3.741,2.559 3.882,3.287 3.783,3.725 3.689,4.144 3.244,4.674 2.842,4.797 1.529,5.202 0.145,5.376 -1.175,5.767 -2.888,6.274 -4.577,6.249 -6.289,5.852 -8.138,5.423 -9.984,4.978 -11.838,4.572 -31.9,0.187 -51.964,-4.185 -72.023,-8.579 c -2.863,-0.628 -5.704,-1.356 -8.555,-2.038 0.252,-0.425 0.505,-0.85 1.297,-1.505 3.104,0.125 5.665,0.496 8.231,0.833 10.439,1.373 20.88,2.739 31.321,4.098 3.424,0.446 6.851,0.865 10.277,1.295 6.851,0.861 13.701,1.726 20.553,2.576 1.542,0.191 3.098,0.274 4.635,0.498 C -2.424,-2.554 -1.455,-0.896 0,0"
       style="fill:#d2451e;fill-opacity:1;fill-rule:nonzero;stroke:none"
       transform="matrix(1.3333333,0,0,-1.3333333,3657.6859,690.96387)"
       clip-path="url(#clipPath275)" />
    <path
       id="path276"
       d="M 0,0 C -1.278,0.507 -2.543,1.051 -3.844,1.488 -4.304,1.643 -4.888,1.648 -5.355,1.513 -6.176,1.275 -6.96,0.896 -7.743,0.54 c -18.198,-8.27 -36.394,-16.543 -54.586,-24.827 -0.618,-0.282 -1.177,-0.692 -1.765,-1.042 0.005,-0.477 0.01,-0.954 0.409,-1.744 9.59,3.136 18.762,6.643 27.984,10.016 10.517,3.846 21.069,7.597 31.63,11.319 1.56,0.549 2.753,1.332 3.521,2.795 0.318,0.605 0.76,1.143 1.133,1.72 C 0.828,-0.842 0.524,-0.208 0,0"
       style="fill:#d2451e;fill-opacity:1;fill-rule:nonzero;stroke:none"
       transform="matrix(1.3333333,0,0,-1.3333333,3643.9101,644.84973)"
       clip-path="url(#clipPath277)" />
    <path
       id="path278"
       d="M 0,0 C 0.177,-0.657 0.365,-1.324 0.662,-1.931 0.785,-2.183 1.192,-2.392 1.498,-2.44 2.715,-2.632 3.87,-2.322 5.006,-1.897 5.92,-1.556 6.455,-0.795 6.229,0.056 5.087,4.363 3.942,8.67 2.752,12.964 2.388,14.276 1.876,15.547 1.093,17.063 -0.319,17.269 -1.214,16.752 -2.124,16.269 -3.578,15.496 -3.945,14.806 -3.577,13.415 -2.392,8.941 -1.201,4.469 0,0"
       style="fill:#d2451e;fill-opacity:1;fill-rule:nonzero;stroke:none"
       transform="matrix(1.3333333,0,0,-1.3333333,3813.7116,592.37)"
       clip-path="url(#clipPath279)" />
    <path
       id="path280"
       d="M 0,0 C 1.177,-0.082 2.371,0.022 3.555,0.1 4.172,0.141 4.708,0.766 4.769,1.522 4.823,2.199 4.78,2.883 4.747,4.015 4.418,7.696 4.127,10.928 3.822,14.159 3.727,15.169 3.034,15.716 2.088,15.488 1.096,15.249 0.11,14.973 -0.855,14.643 -1.764,14.332 -2.208,13.666 -2.122,12.676 -1.779,8.765 -1.421,4.855 -0.989,0.954 -0.948,0.588 -0.363,0.025 0,0"
       style="fill:#d2451e;fill-opacity:1;fill-rule:nonzero;stroke:none"
       transform="matrix(1.3333333,0,0,-1.3333333,3826.7827,668.75267)"
       clip-path="url(#clipPath281)" />
    <path
       id="path282"
       d="m 0,0 c -0.013,0.835 -0.018,1.312 -0.409,1.763 -5.639,-2.148 -10.875,-4.307 -16.146,-6.379 -3.021,-1.188 -6.097,-2.235 -9.079,-3.32 -0.26,-1.129 0.356,-1.698 1.072,-2.196 0.623,-0.433 1.279,-0.376 1.937,-0.062 6.822,3.26 13.828,6.083 20.879,8.799 C -1.121,-1.154 -0.574,-0.708 0,0"
       style="fill:#d2451e;fill-opacity:1;fill-rule:nonzero;stroke:none"
       transform="matrix(1.3333333,0,0,-1.3333333,3558.4817,681.006)"
       clip-path="url(#clipPath283)" />
  </g>
</svg>
