<?xml version="1.0" encoding="UTF-8" standalone="no"?>
<!-- Created with Inkscape (http://www.inkscape.org/) -->

<svg
   version="1.1"
   id="svg1"
   width="1440"
   height="1440"
   viewBox="0 0 1440 1440"
   xmlns="http://www.w3.org/2000/svg"
   xmlns:svg="http://www.w3.org/2000/svg">
  <defs
     id="defs1">
    <clipPath
       clipPathUnits="userSpaceOnUse"
       id="clipPath2">
      <path
         d="M 0,1080 H 1080 V 0 H 0 Z"
         transform="translate(-686.36792,-594.35332)"
         id="path2" />
    </clipPath>
    <clipPath
       clipPathUnits="userSpaceOnUse"
       id="clipPath4">
      <path
         d="M 0,1080 H 1080 V 0 H 0 Z"
         transform="translate(-488.66011,-107.11073)"
         id="path4" />
    </clipPath>
    <clipPath
       clipPathUnits="userSpaceOnUse"
       id="clipPath6">
      <path
         d="M 0,1080 H 1080 V 0 H 0 Z"
         transform="translate(-307.07091,-69.605177)"
         id="path6" />
    </clipPath>
    <clipPath
       clipPathUnits="userSpaceOnUse"
       id="clipPath8">
      <path
         d="M 0,1080 H 1080 V 0 H 0 Z"
         transform="translate(-564.97882,-412.49781)"
         id="path8" />
    </clipPath>
    <clipPath
       clipPathUnits="userSpaceOnUse"
       id="clipPath10">
      <path
         d="M 0,1080 H 1080 V 0 H 0 Z"
         transform="translate(-454.27571,-956.96202)"
         id="path10" />
    </clipPath>
    <clipPath
       clipPathUnits="userSpaceOnUse"
       id="clipPath12">
      <path
         d="M 0,1080 H 1080 V 0 H 0 Z"
         transform="translate(-813.3172,-915.89202)"
         id="path12" />
    </clipPath>
    <clipPath
       clipPathUnits="userSpaceOnUse"
       id="clipPath14">
      <path
         d="M 0,1080 H 1080 V 0 H 0 Z"
         transform="translate(-594.72712,-67.587977)"
         id="path14" />
    </clipPath>
    <clipPath
       clipPathUnits="userSpaceOnUse"
       id="clipPath16">
      <path
         d="M 0,1080 H 1080 V 0 H 0 Z"
         transform="translate(-504.22471,-812.67142)"
         id="path16" />
    </clipPath>
    <clipPath
       clipPathUnits="userSpaceOnUse"
       id="clipPath18">
      <path
         d="M 0,1080 H 1080 V 0 H 0 Z"
         transform="translate(-790.70889,-803.39242)"
         id="path18" />
    </clipPath>
    <clipPath
       clipPathUnits="userSpaceOnUse"
       id="clipPath20">
      <path
         d="M 0,1080 H 1080 V 0 H 0 Z"
         transform="translate(-419.19641,-326.59231)"
         id="path20" />
    </clipPath>
    <clipPath
       clipPathUnits="userSpaceOnUse"
       id="clipPath22">
      <path
         d="M 0,1080 H 1080 V 0 H 0 Z"
         transform="translate(-506.31271,-527.86732)"
         id="path22" />
    </clipPath>
    <clipPath
       clipPathUnits="userSpaceOnUse"
       id="clipPath24">
      <path
         d="M 0,1080 H 1080 V 0 H 0 Z"
         transform="translate(-445.25441,-261.45758)"
         id="path24" />
    </clipPath>
    <clipPath
       clipPathUnits="userSpaceOnUse"
       id="clipPath26">
      <path
         d="M 0,1080 H 1080 V 0 H 0 Z"
         transform="translate(-353.26931,-784.82352)"
         id="path26" />
    </clipPath>
    <clipPath
       clipPathUnits="userSpaceOnUse"
       id="clipPath28">
      <path
         d="M 0,1080 H 1080 V 0 H 0 Z"
         transform="translate(-739.34392,-589.16602)"
         id="path28" />
    </clipPath>
    <clipPath
       clipPathUnits="userSpaceOnUse"
       id="clipPath30">
      <path
         d="M 0,1080 H 1080 V 0 H 0 Z"
         transform="translate(-454.96741,-357.99231)"
         id="path30" />
    </clipPath>
    <clipPath
       clipPathUnits="userSpaceOnUse"
       id="clipPath32">
      <path
         d="M 0,1080 H 1080 V 0 H 0 Z"
         transform="translate(-467.78061,-788.89172)"
         id="path32" />
    </clipPath>
    <clipPath
       clipPathUnits="userSpaceOnUse"
       id="clipPath34">
      <path
         d="M 0,1080 H 1080 V 0 H 0 Z"
         transform="translate(-435.02791,-819.50172)"
         id="path34" />
    </clipPath>
    <clipPath
       clipPathUnits="userSpaceOnUse"
       id="clipPath36">
      <path
         d="M 0,1080 H 1080 V 0 H 0 Z"
         transform="translate(-507.79531,-543.23291)"
         id="path36" />
    </clipPath>
    <clipPath
       clipPathUnits="userSpaceOnUse"
       id="clipPath38">
      <path
         d="M 0,1080 H 1080 V 0 H 0 Z"
         transform="translate(-536.87482,-448.95521)"
         id="path38" />
    </clipPath>
    <clipPath
       clipPathUnits="userSpaceOnUse"
       id="clipPath40">
      <path
         d="M 0,1080 H 1080 V 0 H 0 Z"
         transform="translate(-417.02021,-283.52941)"
         id="path40" />
    </clipPath>
    <clipPath
       clipPathUnits="userSpaceOnUse"
       id="clipPath42">
      <path
         d="M 0,1080 H 1080 V 0 H 0 Z"
         transform="translate(-538.34821,-321.89138)"
         id="path42" />
    </clipPath>
    <clipPath
       clipPathUnits="userSpaceOnUse"
       id="clipPath44">
      <path
         d="M 0,1080 H 1080 V 0 H 0 Z"
         transform="translate(-640.98761,-268.15763)"
         id="path44" />
    </clipPath>
    <clipPath
       clipPathUnits="userSpaceOnUse"
       id="clipPath46">
      <path
         d="M 0,1080 H 1080 V 0 H 0 Z"
         transform="translate(-479.79191,-337.31241)"
         id="path46" />
    </clipPath>
    <clipPath
       clipPathUnits="userSpaceOnUse"
       id="clipPath48">
      <path
         d="M 0,1080 H 1080 V 0 H 0 Z"
         transform="translate(-487.01501,-329.12491)"
         id="path48" />
    </clipPath>
    <clipPath
       clipPathUnits="userSpaceOnUse"
       id="clipPath50">
      <path
         d="M 0,1080 H 1080 V 0 H 0 Z"
         transform="translate(-520.82932,-298.24913)"
         id="path50" />
    </clipPath>
    <clipPath
       clipPathUnits="userSpaceOnUse"
       id="clipPath52">
      <path
         d="M 0,1080 H 1080 V 0 H 0 Z"
         transform="translate(-510.71191,-323.01323)"
         id="path52" />
    </clipPath>
    <clipPath
       clipPathUnits="userSpaceOnUse"
       id="clipPath54">
      <path
         d="M 0,1080 H 1080 V 0 H 0 Z"
         transform="translate(-545.60572,-280.00703)"
         id="path54" />
    </clipPath>
    <clipPath
       clipPathUnits="userSpaceOnUse"
       id="clipPath56">
      <path
         d="M 0,1080 H 1080 V 0 H 0 Z"
         transform="translate(-659.77571,-252.07178)"
         id="path56" />
    </clipPath>
    <clipPath
       clipPathUnits="userSpaceOnUse"
       id="clipPath58">
      <path
         d="M 0,1080 H 1080 V 0 H 0 Z"
         transform="translate(-372.91201,-287.95403)"
         id="path58" />
    </clipPath>
    <clipPath
       clipPathUnits="userSpaceOnUse"
       id="clipPath60">
      <path
         d="M 0,1080 H 1080 V 0 H 0 Z"
         transform="translate(-564.30161,-278.97308)"
         id="path60" />
    </clipPath>
    <clipPath
       clipPathUnits="userSpaceOnUse"
       id="clipPath62">
      <path
         d="M 0,1080 H 1080 V 0 H 0 Z"
         transform="translate(-459.22531,-333.78551)"
         id="path62" />
    </clipPath>
    <clipPath
       clipPathUnits="userSpaceOnUse"
       id="clipPath64">
      <path
         d="M 0,1080 H 1080 V 0 H 0 Z"
         transform="translate(-565.95041,-317.69311)"
         id="path64" />
    </clipPath>
    <clipPath
       clipPathUnits="userSpaceOnUse"
       id="clipPath66">
      <path
         d="M 0,1080 H 1080 V 0 H 0 Z"
         transform="translate(-581.80402,-323.42453)"
         id="path66" />
    </clipPath>
    <clipPath
       clipPathUnits="userSpaceOnUse"
       id="clipPath68">
      <path
         d="M 0,1080 H 1080 V 0 H 0 Z"
         transform="translate(-581.85352,-323.37383)"
         id="path68" />
    </clipPath>
    <clipPath
       clipPathUnits="userSpaceOnUse"
       id="clipPath70">
      <path
         d="M 0,1080 H 1080 V 0 H 0 Z"
         transform="translate(-599.40832,-308.12408)"
         id="path70" />
    </clipPath>
    <clipPath
       clipPathUnits="userSpaceOnUse"
       id="clipPath72">
      <path
         d="M 0,1080 H 1080 V 0 H 0 Z"
         transform="translate(-445.13331,-333.18481)"
         id="path72" />
    </clipPath>
    <clipPath
       clipPathUnits="userSpaceOnUse"
       id="clipPath74">
      <path
         d="M 0,1080 H 1080 V 0 H 0 Z"
         transform="translate(-419.24311,-326.55023)"
         id="path74" />
    </clipPath>
    <clipPath
       clipPathUnits="userSpaceOnUse"
       id="clipPath76">
      <path
         d="M 0,1080 H 1080 V 0 H 0 Z"
         transform="translate(-616.22201,-303.29513)"
         id="path76" />
    </clipPath>
    <clipPath
       clipPathUnits="userSpaceOnUse"
       id="clipPath78">
      <path
         d="M 0,1080 H 1080 V 0 H 0 Z"
         transform="translate(-425.55321,-325.46858)"
         id="path78" />
    </clipPath>
    <clipPath
       clipPathUnits="userSpaceOnUse"
       id="clipPath80">
      <path
         d="M 0,1080 H 1080 V 0 H 0 Z"
         transform="translate(-777.63729,-743.41802)"
         id="path80" />
    </clipPath>
    <clipPath
       clipPathUnits="userSpaceOnUse"
       id="clipPath82">
      <path
         d="M 0,1080 H 1080 V 0 H 0 Z"
         transform="translate(-352.94561,-785.11332)"
         id="path82" />
    </clipPath>
    <clipPath
       clipPathUnits="userSpaceOnUse"
       id="clipPath84">
      <path
         d="M 0,1080 H 1080 V 0 H 0 Z"
         transform="translate(-801.85495,-898.50822)"
         id="path84" />
    </clipPath>
    <clipPath
       clipPathUnits="userSpaceOnUse"
       id="clipPath86">
      <path
         d="M 0,1080 H 1080 V 0 H 0 Z"
         transform="translate(-506.37701,-527.94502)"
         id="path86" />
    </clipPath>
    <clipPath
       clipPathUnits="userSpaceOnUse"
       id="clipPath88">
      <path
         d="M 0,1080 H 1080 V 0 H 0 Z"
         transform="translate(-601.07861,-511.57492)"
         id="path88" />
    </clipPath>
    <clipPath
       clipPathUnits="userSpaceOnUse"
       id="clipPath90">
      <path
         d="M 0,1080 H 1080 V 0 H 0 Z"
         transform="translate(-401.86431,-193.26503)"
         id="path90" />
    </clipPath>
    <clipPath
       clipPathUnits="userSpaceOnUse"
       id="clipPath92">
      <path
         d="M 0,1080 H 1080 V 0 H 0 Z"
         transform="translate(-436.37591,-976.03812)"
         id="path92" />
    </clipPath>
    <clipPath
       clipPathUnits="userSpaceOnUse"
       id="clipPath94">
      <path
         d="M 0,1080 H 1080 V 0 H 0 Z"
         transform="translate(-444.85871,-187.16153)"
         id="path94" />
    </clipPath>
    <clipPath
       clipPathUnits="userSpaceOnUse"
       id="clipPath96">
      <path
         d="M 0,1080 H 1080 V 0 H 0 Z"
         transform="translate(-497.89451,-160.88228)"
         id="path96" />
    </clipPath>
    <clipPath
       clipPathUnits="userSpaceOnUse"
       id="clipPath98">
      <path
         d="M 0,1080 H 1080 V 0 H 0 Z"
         transform="translate(-510.68861,-174.86828)"
         id="path98" />
    </clipPath>
    <clipPath
       clipPathUnits="userSpaceOnUse"
       id="clipPath100">
      <path
         d="M 0,1080 H 1080 V 0 H 0 Z"
         transform="translate(-564.09521,-176.9274)"
         id="path100" />
    </clipPath>
    <clipPath
       clipPathUnits="userSpaceOnUse"
       id="clipPath102">
      <path
         d="M 0,1080 H 1080 V 0 H 0 Z"
         transform="translate(-497.95511,-160.7976)"
         id="path102" />
    </clipPath>
  </defs>
  <g
     id="layer-MC1">
    <path
       id="path1"
       d="M 0,0 0.184,0.262 C 0.184,0.262 -0.181,0.248 0,0 m 52.954,200.396 c -7.095,-9.513 -14.192,-19.024 -21.279,-28.544 -0.519,-0.696 -1.002,-1.429 -1.408,-2.194 -0.126,-0.239 0.056,-0.641 0.114,-1.096 1.165,-0.177 2.361,-0.432 3.568,-0.505 0.455,-0.027 1.016,0.273 1.384,0.591 0.518,0.448 0.935,1.028 1.337,1.592 7.596,10.659 15.184,21.323 22.77,31.988 0.303,0.426 0.585,0.866 0.862,1.309 0.332,0.531 0.153,1.298 -0.421,1.866 -0.124,0.123 -0.25,0.245 -0.383,0.357 -1.079,0.904 -1.831,0.868 -2.633,-0.179 -1.166,-1.524 -2.305,-3.07 -3.911,-5.185 M -36.86,-121.075 c 0.41,-2.936 0.815,-5.874 1.235,-8.809 0.098,-0.687 0.241,-1.369 0.377,-2.051 0.092,-0.466 0.725,-0.943 1.15,-0.827 0.313,0.084 0.661,0.209 0.883,0.428 0.799,0.785 0.994,1.828 1.01,2.885 0.047,3.159 0.524,6.265 1.196,9.336 1.095,5.004 3.014,9.653 6.265,13.678 2.922,3.618 6.445,6.347 11.019,7.589 1.336,0.363 2.644,0.871 3.9,1.454 0.376,0.175 0.638,0.801 0.758,1.27 0.156,0.611 -0.401,1.536 -0.924,1.736 -0.479,0.184 -0.97,0.447 -1.464,0.465 -5.499,0.2 -9.54,3.091 -12.877,7.113 -1.438,1.733 -2.68,3.674 -3.746,5.662 -2.743,5.115 -4.516,10.569 -5.296,16.339 -0.21,1.549 -0.571,3.08 -0.916,4.607 -0.069,0.306 -0.377,0.561 -0.583,0.833 -0.337,0.446 -1.543,0.329 -1.835,-0.125 -0.592,-0.92 -0.799,-1.955 -0.784,-2.997 0.045,-3.16 -0.479,-6.261 -0.839,-9.381 -0.465,-4.036 -1.772,-7.82 -3.51,-11.458 -1.212,-2.537 -2.873,-4.78 -4.856,-6.784 -2,-2.02 -4.291,-3.56 -7.025,-4.403 -0.831,-0.256 -1.679,-0.474 -2.482,-0.801 -0.471,-0.192 -0.873,-0.559 -1.298,-0.858 -0.708,-0.499 -0.547,-1.784 0.276,-2.152 0.471,-0.211 0.942,-0.446 1.437,-0.573 6.653,-1.715 11.345,-5.916 14.816,-11.663 1.821,-3.013 3.048,-6.268 4.113,-10.513 m 35.806,340.779 c 1.668,5.148 3.34,10.295 5.005,15.444 0.913,2.824 1.847,5.641 2.709,8.48 0.469,1.547 0.545,2.42 -1.147,3.556 -3.693,2.478 -6.596,5.682 -8.536,9.724 -0.374,0.779 -0.861,1.514 -1.378,2.208 -0.172,0.232 -0.593,0.299 -0.916,0.382 -0.089,0.023 -0.298,-0.144 -0.343,-0.264 -0.485,-1.305 -0.996,-2.603 -1.413,-3.93 -6.281,-19.981 -12.545,-39.968 -18.824,-59.95 -1.622,-5.162 -3.288,-10.31 -4.918,-15.47 -0.495,-1.569 -0.004,-2.445 1.463,-2.67 2.76,-0.422 5.52,-0.853 8.287,-1.223 1.382,-0.185 2.781,-0.256 4.173,-0.356 0.706,-0.05 1.387,0.373 1.653,1.019 0.332,0.805 0.668,1.611 0.937,2.437 4.319,13.281 8.628,26.565 13.248,40.613 m -235.938,-86.362 c 0.038,1.746 0.135,3.494 0.084,5.238 -0.019,0.662 -0.291,1.361 -0.611,1.956 -0.23,0.425 -0.682,0.745 -1.301,0.681 -0.574,-0.06 -0.987,-0.329 -1.227,-0.799 -0.234,-0.46 -0.464,-0.97 -0.499,-1.472 -0.074,-1.042 -0.011,-2.093 -0.014,-3.14 -0.023,-8.155 -2.667,-15.408 -7.502,-21.922 -3.712,-5.002 -8.407,-8.853 -13.806,-11.875 -6.315,-3.534 -13.08,-5.768 -20.23,-6.858 -0.504,-0.076 -0.99,-0.267 -1.483,-0.411 -0.332,-0.098 -0.586,-1.001 -0.386,-1.346 0.365,-0.629 0.873,-1.126 1.601,-1.22 1.21,-0.156 2.429,-0.258 3.648,-0.318 3.161,-0.153 6.23,-0.779 9.238,-1.735 7.212,-2.293 13.087,-6.556 17.842,-12.361 5.884,-7.185 9.508,-15.409 10.958,-24.591 0.299,-1.896 0.631,-3.793 1.098,-5.652 0.202,-0.805 0.749,-1.537 1.209,-2.259 0.334,-0.523 1.507,-0.307 1.776,0.236 0.638,1.294 0.789,2.698 0.812,4.084 0.044,2.642 0.535,5.202 1.062,7.772 1.625,7.928 5.369,14.752 10.936,20.535 6.67,6.927 14.927,10.805 24.444,11.978 1.579,0.194 3.116,0.416 4.542,1.127 0.979,0.488 1.605,1.31 1.971,2.336 0.649,1.821 -0.498,3.72 -2.369,3.806 -1.569,0.073 -3.144,0.068 -4.715,0.036 -2.81,-0.056 -5.56,0.252 -8.314,0.864 -11.946,2.653 -20.307,9.664 -25.389,20.695 -1.993,4.326 -3.176,8.871 -3.375,14.615 m 2.606,-99.398 c 0.109,-0.03 0.218,-0.06 0.327,-0.089 0.005,0.399 -0.191,0.499 -0.249,1.094 -0.148,2.303 -1.192,4.335 -1.841,6.564 -0.872,0.309 -1.682,0.602 -2.496,0.883 -1.234,0.426 -2.048,1.321 -2.573,2.456 -0.362,0.78 -0.652,1.617 -0.819,2.46 -0.373,1.879 -0.606,3.786 -0.972,5.667 -1.625,8.337 -4.768,16 -10.187,22.63 -6.337,7.753 -14.471,12.397 -24.348,13.976 -0.847,0.136 -1.735,0.038 -2.603,0.021 -0.848,-0.016 -1.28,-0.724 -0.839,-1.376 0.585,-0.862 1.172,-1.724 1.806,-2.55 3.612,-4.708 6.816,-9.661 9.632,-14.899 2.095,-3.897 3.077,-8.126 4.27,-12.287 0.614,-2.14 0.647,-4.469 0.757,-6.721 0.069,-1.409 0.229,-2.774 0.637,-4.111 0.448,-1.47 1.518,-2.398 2.961,-2.644 1.531,-0.261 3.112,-0.295 4.671,-0.296 1.762,-0.002 3.447,-0.274 5.141,-0.766 4.247,-1.234 8.002,-3.39 11.547,-5.956 1.685,-1.219 3.323,-2.501 5.178,-4.056 m 196.967,-75.186 c -0.326,0.052 -0.75,0.261 -0.961,0.13 -1.183,-0.736 -2.337,-1.524 -3.461,-2.348 -8.941,-6.557 -18.749,-11.482 -29.056,-15.473 -5.908,-2.288 -12.087,-3.421 -18.327,-4.244 -7.637,-1.007 -15.317,-1.286 -23.016,-1.099 -9.984,0.241 -19.84,1.536 -29.614,3.527 -12.58,2.563 -24.497,6.977 -35.883,12.86 -1.387,0.716 -2.723,1.57 -3.971,2.51 -7.577,5.708 -14.244,12.358 -20.226,19.71 -4.528,5.565 -8.706,11.376 -12.423,17.518 -0.354,0.585 -0.817,1.109 -1.262,1.634 -0.089,0.104 -0.333,0.119 -0.496,0.1 -0.098,-0.012 -0.217,-0.155 -0.257,-0.264 -0.059,-0.16 -0.095,-0.347 -0.072,-0.513 0.781,-5.59 0.402,-11.157 -0.274,-16.723 -0.529,-4.36 -1.535,-8.601 -3.241,-12.648 -1.238,-2.937 -2.931,-5.526 -5.762,-7.266 -1.517,-0.932 -3.035,-1.123 -4.438,-0.224 -4.292,2.75 -8.08,6.07 -10.841,10.16 -0.034,1.04 0.488,1.518 0.977,1.99 7.624,7.361 10.755,16.592 10.974,26.927 0.203,9.559 -2.487,18.297 -8.238,25.99 -3.423,4.577 -7.767,8.017 -13.189,9.979 -1.979,0.716 -4.015,1.205 -6.14,1.228 -2.966,0.032 -5.926,0.306 -8.899,-0.107 -1.543,-0.215 -3.128,-0.133 -4.636,0.506 -4.214,1.785 -6.51,5.384 -6.253,9.929 0.04,0.695 0.103,1.404 0.281,2.073 1.17,4.426 0.212,8.685 -1.078,12.883 -0.561,1.823 -1.335,3.613 -2.247,5.29 -3.434,6.315 -7.655,12.105 -12.188,17.664 -1.099,1.349 -2.44,2.5 -3.646,3.763 -12.272,12.851 -22.727,26.99 -30.309,43.126 -4.633,9.86 -7.881,20.182 -9.314,30.999 -0.968,7.309 -0.99,14.643 0.673,21.896 0.944,4.114 2.423,8.023 4.586,11.656 1.344,2.259 2.884,4.349 4.88,6.115 3.426,3.032 6.3,6.554 8.605,10.504 1.354,2.321 3.2,4.114 5.317,5.706 5.987,4.503 12.706,7.335 20.07,8.484 4.864,0.759 9.769,0.667 14.53,-0.863 3.217,-1.033 6.088,-2.639 8.167,-5.407 0.312,-0.416 0.546,-0.891 0.808,-1.342 0.232,-0.398 0.085,-1.227 -0.266,-1.408 -0.77,-0.398 -1.519,-0.865 -2.332,-1.147 -3.831,-1.328 -7.287,-3.379 -10.669,-5.548 -1.31,-0.84 -2.479,-1.925 -3.622,-2.995 -1.363,-1.276 -1.158,-2.588 0.49,-3.855 0.272,-0.209 0.576,-0.377 0.833,-0.602 0.089,-0.078 0.078,-0.27 0.113,-0.41 -0.205,-0.279 -0.365,-0.613 -0.624,-0.828 -2.553,-2.114 -5.12,-4.211 -7.694,-6.299 -0.107,-0.087 -0.32,-0.067 -0.481,-0.056 -0.173,0.012 -0.342,0.072 -0.642,0.14 -0.267,1.671 -0.553,3.388 -0.813,5.11 -0.289,1.916 -0.801,3.774 -1.686,5.489 -1.319,2.555 -3.416,3.887 -6.371,3.724 -1.426,-0.079 -2.742,-0.491 -4,-1.137 -4.814,-2.467 -8.382,-6.215 -11.09,-10.832 -3.056,-5.212 -4.726,-10.922 -5.394,-16.856 -1.503,-13.365 -0.285,-26.505 3.86,-39.342 1.402,-4.344 3.049,-8.556 5.825,-12.241 0.314,-0.417 0.587,-0.869 0.85,-1.322 3.629,-6.238 8.214,-11.706 13.271,-16.83 2.943,-2.982 5.654,-6.192 8.468,-9.3 0.469,-0.518 0.903,-1.07 1.399,-1.56 0.51,-0.503 1.152,-0.847 1.88,-0.667 5.417,1.337 10.93,2.307 16.116,4.501 6.187,2.616 11.808,6.048 16.478,10.932 0.483,0.505 0.966,1.011 1.428,1.535 3.995,4.536 3.974,4.732 4.126,10.79 0.228,9.081 0.544,18.155 1.453,27.21 0.663,6.609 1.585,13.176 2.504,19.749 0.097,0.69 0.261,1.371 0.397,2.056 0.214,1.077 0.718,1.947 1.708,2.505 1.065,0.6 2.114,1.23 3.172,1.844 7.112,4.124 13.917,8.704 20.525,13.595 3.085,2.284 6.334,4.348 9.533,6.474 2.314,1.537 4.797,1.938 7.506,1.11 6.253,-1.912 12.718,-2.253 19.188,-2.26 4.537,-0.005 9.084,0.177 13.59,0.875 0.846,0.132 1.742,0.18 2.585,0.061 7.433,-1.054 14.859,-2.16 22.289,-3.239 5.875,-0.853 11.753,-1.686 17.628,-2.535 5.703,-0.825 11.405,-1.651 17.106,-2.489 6.218,-0.915 12.433,-1.849 18.65,-2.768 5.7,-0.843 11.403,-1.666 17.101,-2.518 5.698,-0.852 11.391,-1.741 17.089,-2.592 6.389,-0.955 12.782,-1.882 19.171,-2.831 1.724,-0.256 2.331,-0.221 3.073,1.928 0.341,0.99 0.601,2.008 0.905,3.01 7.367,24.224 14.735,48.446 22.101,72.67 0.813,2.672 1.63,5.344 2.412,8.025 0.256,0.878 0.063,1.712 -0.451,2.486 -1.466,2.207 -3.403,3.972 -5.318,5.763 -0.498,0.466 -0.924,1.01 -1.381,1.52 -0.28,0.312 0.042,1.182 0.486,1.288 2.204,0.528 4.408,1.057 6.619,1.556 19.589,4.413 39.19,8.778 58.769,13.241 20.088,4.578 40.154,9.252 60.231,13.88 1.192,0.275 2.393,0.511 4.244,0.47 0.828,-0.474 1.001,-0.652 1.174,-0.83 -3.47,-2.639 -6.933,-5.29 -10.413,-7.917 -23.991,-18.107 -47.985,-36.21 -71.983,-54.307 -1.387,-1.046 -2.82,-2.031 -4.243,-3.053 -2.241,0.244 -4.152,1.162 -6.004,2.04 -3.659,1.735 -7.541,2.744 -11.385,3.891 -1.504,0.449 -2.098,0.087 -2.714,-1.569 -0.366,-0.982 -0.683,-1.981 -1.018,-2.973 -6.708,-19.852 -13.417,-39.704 -20.12,-59.558 -0.498,-1.475 -1.187,-2.915 -0.994,-4.551 1.393,-0.882 2.981,-1.057 4.512,-1.29 5.696,-0.868 11.41,-1.621 17.11,-2.46 3.973,-0.585 7.919,-1.39 11.907,-1.829 6.505,-0.717 5.172,-1.339 8.961,3.9 7.27,10.054 14.529,20.116 21.79,30.176 0.92,1.276 1.841,2.551 2.733,3.846 0.888,1.288 0.897,1.938 -0.18,3.299 -2.172,2.744 -3.994,5.722 -5.974,8.595 -2.276,3.301 -4.841,6.413 -7.426,9.486 -1.11,1.319 -2.553,2.372 -3.907,3.471 -1.488,1.207 -3.047,2.327 -4.634,3.53 0.298,0.511 0.468,1.022 0.813,1.346 0.634,0.594 1.371,1.079 2.066,1.609 20.563,15.687 41.136,31.36 61.681,47.07 6.386,4.883 12.692,9.869 19.037,14.805 0.689,0.537 1.345,1.143 2.106,1.547 0.393,0.208 1.011,0.143 1.479,0.02 0.548,-0.145 1.192,-1.193 1.102,-1.628 -0.569,-2.737 -1.163,-5.468 -1.729,-8.206 -3.15,-15.224 -6.314,-30.445 -9.435,-45.675 -2.981,-14.547 -5.938,-29.099 -8.859,-43.658 -0.996,-4.966 -1.845,-9.961 -2.784,-14.939 -0.095,-0.504 -0.276,-1.02 -0.543,-1.453 -0.156,-0.256 -0.561,-0.502 -0.852,-0.499 -0.508,0.004 -1.062,0.108 -1.513,0.336 -3.944,1.993 -8.146,3.148 -12.501,3.676 -6.192,0.749 -11.219,3.641 -15.49,8.039 -0.122,0.126 -0.243,0.252 -0.359,0.382 -2.85,3.197 -3.018,3.469 -5.655,-0.146 -6.798,-9.317 -13.675,-18.577 -20.494,-27.878 -0.696,-0.95 -1.646,-1.803 -1.728,-3.088 1.238,-0.953 2.65,-1.027 4.029,-1.227 3.11,-0.452 6.22,-0.905 9.323,-1.403 0.495,-0.079 0.983,-0.34 1.417,-0.61 0.493,-0.307 0.573,-0.875 0.442,-1.376 -0.069,-0.266 -0.418,-0.478 -0.676,-0.667 -0.126,-0.092 -0.348,-0.136 -0.501,-0.098 -2.975,0.731 -4.513,-1.021 -5.812,-3.283 -1.68,-2.928 -2.671,-6.072 -3.045,-9.408 -0.513,-4.581 0.963,-8.651 3.552,-12.305 0.874,-1.235 2.29,-2.086 3.579,-3.218 0.024,-0.605 0.124,-1.298 0.067,-1.978 -0.205,-2.437 -0.354,-4.885 -0.715,-7.3 C 43.823,81.786 27.708,42.513 3.783,6.304 3.687,6.158 3.575,6.019 3.501,5.862 2.719,4.182 0.741,3.06 1.148,0.825 2.926,0.174 4.551,1.018 6.233,1.337 c 3.809,0.722 7.653,0.614 11.495,0.424 1.395,-0.069 2.783,-0.27 4.178,-0.362 3.612,-0.24 6.771,1.493 8.034,5.329 1.776,5.392 4.916,10.015 8.547,14.315 0.897,1.062 1.869,2.091 2.941,2.97 7.997,6.552 16.537,12.275 25.747,17.008 4.509,2.317 9.091,4.453 13.742,6.457 5.036,2.171 9.369,5.412 13.449,9.001 6.735,5.926 12.481,12.703 17.258,20.303 5.044,8.026 9.222,16.452 11.905,25.572 1.934,6.577 3.099,13.262 2.693,20.154 -0.361,6.14 -2.385,11.593 -6.648,16.125 -0.726,0.772 -1.525,1.416 -2.547,1.783 -1.004,0.361 -1.996,0.627 -3.064,0.338 -0.844,-0.228 -1.701,-0.411 -2.534,-0.671 -1.56,-0.486 -2.797,-1.395 -3.582,-2.866 -1.316,-2.462 -2.729,-4.877 -3.944,-7.388 -3.588,-7.42 -9.635,-11.28 -17.634,-12.356 -3.014,-0.405 -5.965,0.233 -8.767,1.166 -6.254,2.084 -10.919,6.101 -13.671,12.182 -0.358,0.791 -0.64,1.617 -0.938,2.377 -0.724,0.945 -1.771,1.181 -2.765,1.485 -2.837,0.867 -5.685,1.701 -8.529,2.55 -1.797,0.537 -3.034,1.704 -3.703,3.435 -2.522,6.522 -1.689,12.675 2.13,18.464 0.401,0.608 1.095,0.89 1.827,0.814 0.865,-0.089 1.716,-0.305 2.579,-0.424 2.073,-0.287 4.145,-0.582 6.225,-0.804 0.729,-0.078 1.374,0.298 1.767,0.922 0.464,0.735 0.847,1.521 1.261,2.287 5.441,10.068 14.072,15.776 25.069,18.065 12.712,2.645 24.301,-0.51 34.868,-7.588 10.876,-7.283 18.013,-17.373 21.391,-30.064 0.918,-3.448 2.526,-6.525 5.191,-8.924 2.334,-2.1 4.762,-4.104 7.232,-6.044 1.658,-1.303 3.216,-2.683 4.566,-4.301 1.382,-1.656 2.121,-3.565 2.512,-5.679 0.568,-3.07 -1.244,-7.027 -5.149,-8.011 -3.224,-0.813 -6.23,-0.301 -9.18,1.002 -1.938,0.854 -3.644,2.058 -5.195,3.494 -4.222,3.906 -6.946,8.714 -8.495,14.208 -0.426,1.509 -0.616,3.083 -0.983,4.611 -3.109,12.938 -10.298,22.787 -22.16,29.027 -4.876,2.565 -10.073,3.869 -15.633,3.698 -7.337,-0.226 -13.574,-2.852 -18.708,-8.135 -2.595,-2.671 -4.798,-5.583 -5.81,-9.21 -1.226,-4.397 -0.294,-8.279 3.042,-11.518 3.911,-3.797 10.839,-3.664 14.83,-0.002 4.227,3.879 4.84,10.119 1.326,14.69 -1.541,2.005 -3.501,3.397 -6.015,3.919 -1.355,0.281 -2.714,0.543 -4.061,0.811 0,0.401 -0.12,0.797 0.025,1.019 0.28,0.427 0.672,0.806 1.083,1.119 4.966,3.784 10.632,5.151 16.769,4.674 5.881,-0.456 11.259,-2.443 16.049,-5.867 8.417,-6.018 13.983,-14.049 16.645,-24.065 0.224,-0.843 0.47,-1.694 0.553,-2.557 0.409,-4.268 1.936,-8.146 4.142,-11.76 0.947,-1.55 1.313,-3.155 1.438,-4.935 0.464,-6.568 -0.644,-12.871 -2.865,-19.031 -2.267,-6.287 -5.429,-12.108 -9.107,-17.657 C 117.487,62.477 105.569,50.304 91.522,40.196 86.126,36.313 80.526,32.758 74.611,29.707 71.502,28.104 68.366,26.557 65.059,25.418 60.523,23.857 56.576,21.331 52.941,18.271 48.754,14.746 45.354,10.549 42.599,5.835 41.001,3.1 39.963,0.139 39.346,-2.974 39.04,-4.514 38.736,-6.068 38.248,-7.556 37.152,-10.89 34.261,-12.877 30.7,-13 c -1.97,-0.069 -3.811,0.407 -5.628,1.055 -2.468,0.88 -4.921,1.766 -7.493,2.347 -10.498,2.371 -19.751,-0.077 -27.748,-7.17 -6.795,-6.027 -10.621,-13.766 -12.353,-22.582 -1.021,-5.202 -0.92,-10.437 0.045,-15.641 0.607,-3.28 1.67,-6.419 3.205,-9.393 0.314,-0.609 0.584,-1.256 0.75,-1.917 0.067,-0.266 -0.108,-0.721 -0.328,-0.912 -1.472,-1.286 -3.359,-1.81 -5.05,-2.697 -5.632,-2.953 -5.599,-2.13 -2.969,-8.062 1.139,-2.567 2.617,-4.941 4.403,-7.111 2.999,-3.645 6.646,-6.154 11.51,-6.533 0.687,-0.054 1.388,-0.192 2.037,-0.42 1.714,-0.6 3.003,-2.773 2.804,-4.606 -0.191,-1.759 -1.525,-3.381 -3.157,-3.803 -0.505,-0.13 -1.024,-0.232 -1.543,-0.282 -5.04,-0.478 -8.815,-3.181 -11.869,-6.965 -3.347,-4.145 -5.527,-8.876 -6.479,-14.146 -0.591,-3.272 -1.066,-6.552 -1.04,-9.891 0.013,-1.76 -0.953,-2.954 -2.456,-3.716 -1.777,-0.901 -4.237,0.102 -4.683,1.975 -0.363,1.523 -0.497,3.099 -0.748,4.649 -0.39,2.411 -0.727,4.834 -1.207,7.228 -0.623,3.105 -1.882,5.984 -3.342,8.786 -3.067,5.888 -7.763,9.782 -14.117,11.69 -0.663,0.199 -1.348,0.368 -1.963,0.671 -1.32,0.651 -2.206,2.52 -1.829,4.015 0.16,0.636 0.584,1.257 1.031,1.757 0.842,0.94 2.016,1.441 3.202,1.69 5.213,1.095 8.501,4.598 11.156,8.853 0.919,1.473 1.695,3.072 2.289,4.704 0.834,2.293 1.487,4.656 2.123,7.015 0.41,1.524 0.537,3.094 0.22,4.675 -1.595,7.969 -0.189,15.639 2.347,23.191 0.278,0.826 0.573,1.645 1.055,2.952 0.24,0.636 0.361,0.826 0.309,0.93 -0.052,0.105 -0.298,0.204 -0.419,0.168 -0.432,-0.126 -0.486,-0.402 -0.184,-0.746"
       style="fill:#d2451e;fill-opacity:1;fill-rule:nonzero;stroke:none"
       transform="matrix(1.3333333,0,0,-1.3333333,915.1572,647.52893)"
       clip-path="url(#clipPath2)" />
    <path
       id="path3"
       d="m 0,0 c 3.088,-0.581 6.169,-1.201 9.265,-1.735 11.009,-1.899 22.029,-3.733 33.033,-5.659 12.723,-2.227 25.43,-4.542 38.151,-6.775 1.694,-0.298 3.42,-0.76 5.307,-0.182 0.35,0.922 0.757,1.877 1.077,2.86 0.831,2.549 2.26,4.726 4.145,6.591 2.401,2.376 5.284,3.986 8.47,5.068 2.508,0.851 5.082,1.243 7.732,1.159 0.867,-0.027 1.753,-0.047 2.648,0.815 0.693,4.249 1.429,8.719 2.149,13.192 1.193,7.412 2.353,14.829 3.57,22.237 1.273,7.752 2.583,15.498 3.9,23.242 1.2,7.056 2.433,14.106 3.647,21.16 0.207,1.204 0.42,2.409 0.577,3.621 0.232,1.779 0.003,2.157 -1.559,2.774 -0.812,0.321 -1.66,0.567 -2.44,0.952 -7.196,3.545 -12.071,8.81 -12.712,17.212 -0.036,0.474 -0.342,0.927 -0.564,1.495 -2.096,0.384 -4.141,0.799 -6.198,1.128 -5.516,0.882 -11.04,1.708 -16.556,2.593 -7.928,1.272 -15.851,2.576 -23.776,3.866 -4.996,0.814 -9.994,1.619 -14.988,2.444 -7.578,1.251 -15.152,2.522 -22.73,3.773 -7.234,1.194 -14.472,2.368 -21.707,3.559 -7.751,1.276 -15.502,2.548 -23.248,3.845 -7.402,1.24 -14.798,2.512 -22.196,3.769 -6.713,1.139 -13.419,2.318 -20.144,3.382 -1.511,0.24 -3.049,0.75 -4.809,0.303 -0.291,-0.738 -0.591,-1.533 -0.916,-2.317 -0.959,-2.311 -2.493,-4.2 -4.373,-5.81 -3.131,-2.681 -6.738,-4.334 -10.838,-4.854 -1.381,-0.175 -2.776,-0.24 -4.154,-0.432 -0.277,-0.038 -0.567,-0.386 -0.742,-0.661 -0.18,-0.283 -0.266,-0.643 -0.326,-0.982 -1.777,-9.969 -3.549,-19.939 -5.315,-29.909 -1.584,-8.94 -3.143,-17.883 -4.742,-26.819 -1.507,-8.421 -3.058,-16.834 -4.573,-25.254 -0.153,-0.849 -0.297,-1.725 0.278,-2.711 0.812,-0.34 1.764,-0.762 2.733,-1.142 2.653,-1.04 4.876,-2.685 6.831,-4.738 3.258,-3.42 4.964,-7.542 5.606,-12.163 0.143,-1.027 0.031,-2.229 0.54,-3.031 0.705,-1.11 2.199,-0.803 3.381,-1.011 1.719,-0.302 3.435,-0.619 5.156,-0.912 7.4,-1.258 14.802,-2.501 22.201,-3.765 7.055,-1.205 14.107,-2.423 21.158,-3.645 7.223,-1.252 14.443,-2.524 21.667,-3.771 C -11.224,1.871 -6.059,1.006 0,0 m 107.1,125.118 c 5.965,-0.952 11.481,-1.836 16.993,-2.738 5.167,-0.846 10.328,-1.727 15.496,-2.564 7.41,-1.2 14.825,-2.361 22.234,-3.563 3.962,-0.642 7.917,-1.333 11.874,-2.011 0.88,-0.151 1.585,-0.98 1.514,-1.837 -0.144,-1.74 -0.247,-3.491 -0.522,-5.212 -2.233,-13.963 -4.522,-27.917 -6.755,-41.88 -1.57,-9.826 -3.055,-19.666 -4.622,-29.492 -2.062,-12.93 -4.106,-25.864 -6.285,-38.774 -0.9,-5.333 -2.14,-10.608 -3.211,-15.912 -1.417,-7.015 -2.82,-14.033 -4.233,-21.049 -0.068,-0.342 -0.148,-0.684 -0.256,-1.015 -0.428,-1.322 -0.799,-1.847 -2.219,-1.637 -2.244,0.332 -4.479,0.726 -6.717,1.102 -12.221,2.051 -24.443,4.094 -36.66,6.161 -9.292,1.572 -18.575,3.198 -27.868,4.761 -7.228,1.216 -14.47,2.354 -21.7,3.56 -7.23,1.205 -14.451,2.464 -21.679,3.678 -7.229,1.214 -14.464,2.395 -21.695,3.602 -7.402,1.235 -14.801,2.489 -22.203,3.725 -7.231,1.207 -14.464,2.396 -21.695,3.604 -7.574,1.266 -15.145,2.55 -22.719,3.815 -6.886,1.15 -13.774,2.288 -20.662,3.426 -7.92,1.309 -15.84,2.623 -23.762,3.915 -7.236,1.18 -14.476,2.338 -21.715,3.5 -8.099,1.301 -16.193,2.636 -24.301,3.879 -6.039,0.926 -12.098,1.718 -18.144,2.598 -1.203,0.175 -2.389,0.464 -3.58,0.717 -0.622,0.133 -0.889,0.71 -0.826,1.174 0.377,2.764 0.839,5.517 1.282,8.272 1.302,8.1 2.599,16.201 3.917,24.299 1.15,7.065 2.311,14.128 3.494,21.187 1.212,7.232 2.459,14.458 3.687,21.686 1.258,7.4 2.523,14.8 3.767,22.202 1.216,7.23 2.405,14.465 3.614,21.696 1.209,7.231 2.427,14.46 3.641,21.691 0.549,3.271 1.09,6.543 1.65,9.812 0.177,1.031 0.377,2.06 0.614,3.078 0.271,1.163 1.017,1.611 2.344,1.463 0.694,-0.078 1.393,-0.139 2.079,-0.266 8.582,-1.579 17.152,-3.225 25.746,-4.738 7.219,-1.27 14.466,-2.383 21.699,-3.574 7.577,-1.248 15.15,-2.519 22.73,-3.754 7.408,-1.208 14.822,-2.374 22.231,-3.576 7.581,-1.229 15.157,-2.482 22.737,-3.718 7.235,-1.179 14.472,-2.349 21.708,-3.524 7.925,-1.288 15.848,-2.588 23.775,-3.863 7.582,-1.22 15.17,-2.4 22.752,-3.625 7.237,-1.169 14.469,-2.373 21.704,-3.563 5.338,-0.877 10.677,-1.751 16.015,-2.634 8.094,-1.338 16.187,-2.683 24.732,-4.084"
       style="fill:#d2451e;fill-opacity:1;fill-rule:nonzero;stroke:none"
       transform="matrix(1.3333333,0,0,-1.3333333,651.5468,1297.1857)"
       clip-path="url(#clipPath4)" />
    <path
       id="path5"
       d="m 0,0 c -4.583,0.757 -8.734,1.355 -12.838,2.188 -6.657,1.35 -6.593,0.586 -5.557,7.629 0.56,3.8 1.095,7.604 1.635,11.408 0.098,0.691 0.105,1.401 0.257,2.08 1.44,6.433 -0.399,6.728 7.348,5.281 9.266,-1.731 18.594,-3.128 27.895,-4.666 9.818,-1.624 19.631,-3.279 29.457,-4.853 9.999,-1.601 20.017,-3.086 30.017,-4.683 11.896,-1.9 23.777,-3.89 35.673,-5.792 7.585,-1.213 15.189,-2.31 22.777,-3.508 7.76,-1.224 15.507,-2.53 23.266,-3.758 7.76,-1.228 15.532,-2.379 23.292,-3.609 7.414,-1.175 14.818,-2.418 22.229,-3.615 5.344,-0.862 10.693,-1.689 16.037,-2.546 7.93,-1.273 15.855,-2.568 23.786,-3.834 7.585,-1.212 15.175,-2.394 22.762,-3.597 5.001,-0.793 10.002,-1.59 15,-2.403 5.513,-0.897 11.023,-1.822 16.536,-2.723 7.926,-1.294 15.851,-2.589 23.78,-3.861 5.345,-0.857 10.699,-1.651 16.042,-2.519 3.963,-0.643 7.914,-1.353 11.868,-2.051 0.731,-0.129 1.247,-0.776 1.22,-1.448 -0.036,-0.871 -0.015,-1.754 -0.159,-2.608 -1.101,-6.543 -2.232,-13.08 -3.366,-19.617 -0.154,-0.888 -0.982,-1.539 -1.859,-1.498 -0.872,0.04 -1.752,0.06 -2.611,0.194 -7.763,1.21 -15.521,2.45 -23.282,3.668 -7.417,1.165 -14.838,2.305 -22.255,3.472 -8.105,1.275 -16.206,2.577 -24.311,3.852 -5.346,0.841 -10.7,1.64 -16.046,2.484 -7.932,1.252 -15.859,2.537 -23.792,3.791 -5.346,0.844 -10.699,1.647 -16.046,2.489 -7.933,1.249 -15.862,2.523 -23.795,3.773 -5.346,0.843 -10.698,1.655 -16.044,2.498 -5.864,0.923 -11.722,1.877 -17.585,2.798 -5.348,0.84 -10.702,1.637 -16.049,2.48 -7.932,1.251 -15.86,2.533 -23.792,3.787 -5.347,0.845 -10.699,1.65 -16.046,2.496 -7.931,1.255 -15.858,2.54 -23.79,3.796 -5.346,0.847 -10.699,1.651 -16.044,2.502 C 57.679,-9.26 49.752,-7.97 41.823,-6.696 36.996,-5.92 32.168,-5.156 27.341,-4.38 18.378,-2.94 9.415,-1.496 0,0"
       style="fill:#d2451e;fill-opacity:1;fill-rule:nonzero;stroke:none"
       transform="matrix(1.3333333,0,0,-1.3333333,409.42787,1347.1931)"
       clip-path="url(#clipPath6)" />
    <path
       id="path7"
       d="m 0,0 c -0.24,-10.753 1.454,-20.702 4.749,-30.373 2.322,-6.815 5.488,-13.247 9.761,-19.057 1.895,-2.577 2.866,-5.562 4.309,-8.333 0.391,-0.752 0.536,-1.676 0.608,-2.537 0.121,-1.451 -0.296,-2.761 -1.435,-3.768 -1.603,-1.416 -3.48,-2.334 -5.5,-2.953 -3.86,-1.183 -7.829,-1.869 -11.851,-2.015 -7.161,-0.26 -14.305,-0.23 -21.462,0.573 -7.82,0.877 -15.591,1.989 -23.296,3.539 -10.644,2.141 -20.993,5.283 -30.989,9.541 -4.35,1.853 -8.578,3.956 -12.327,6.875 -1.509,1.174 -2.91,2.502 -4.273,3.847 -0.971,0.956 -0.953,2.747 -0.027,3.85 0.67,0.798 1.413,1.546 2.193,2.238 1.569,1.391 3.2,2.711 4.78,4.089 14.481,12.626 24.342,28.212 29.775,46.612 1.438,4.869 2.296,9.86 2.792,14.913 0.077,0.787 0.769,1.208 1.471,0.917 0.483,-0.2 0.965,-0.404 1.441,-0.62 8.193,-3.727 16.804,-5.798 25.752,-6.607 3.484,-0.315 6.967,-0.793 10.459,-0.505 3.999,0.33 7.979,0.887 11.966,1.356 0.692,0.082 1.376,0.221 2.066,0.32 C 1.685,22.005 2.417,21.408 2.347,20.77 2.232,19.731 2.136,18.687 1.97,17.656 1.635,15.589 1.306,13.518 0.889,11.467 0.153,7.846 0.065,4.18 0,0"
       style="fill:#d2451e;fill-opacity:1;fill-rule:nonzero;stroke:none"
       transform="matrix(1.3333333,0,0,-1.3333333,753.30507,890.00293)"
       clip-path="url(#clipPath8)" />
    <path
       id="path9"
       d="M 0,0 C 0.699,0.504 1.459,0.986 1.616,1.913 1.766,2.793 1.517,3.628 1.038,4.374 0.857,4.657 0.584,4.881 0.352,5.131 0.196,5.106 0.009,5.127 -0.111,5.047 -0.535,4.766 -0.982,4.495 -1.34,4.139 c -3.252,-3.23 -6.94,-5.662 -11.552,-6.476 -0.228,-0.04 -0.384,-0.49 -0.573,-0.749 0.15,-0.086 0.291,-0.224 0.451,-0.249 0.67,-0.106 1.354,-0.288 2.019,-0.244 C -7.317,-3.334 -3.904,-2.192 0,0 m -8.495,-8.608 c 3.344,0.328 6.417,1.476 9.309,3.132 0.594,0.34 1.115,0.813 1.641,1.259 0.637,0.54 0.503,1.455 -0.347,2.619 -0.328,-0.104 -0.687,-0.156 -0.98,-0.321 -4.169,-2.353 -8.58,-3.741 -13.427,-3.478 -0.316,0.017 -0.646,-0.174 -0.965,-0.28 -0.4,-0.133 -0.498,-0.413 -0.478,-0.831 0.053,-1.14 0.437,-1.878 1.254,-1.983 1.024,-0.131 2.064,-0.133 3.993,-0.117 m 10.403,1.246 c -4.078,-2.155 -8.37,-3.412 -13.034,-3.119 -0.344,0.021 -0.693,-0.034 -1.039,-0.056 -0.327,-0.02 -0.818,-0.758 -0.799,-1.198 0.049,-1.094 0.555,-1.753 1.442,-1.853 5.216,-0.588 9.997,0.843 14.578,3.163 0.98,0.496 1.16,1.863 0.428,3.238 -0.081,0.154 -0.573,0.09 -1.576,-0.175 m -20.38,-62.921 c -0.077,-0.857 -0.277,-1.723 -0.213,-2.569 0.424,-5.593 1.641,-11.037 3.23,-16.402 5.857,-19.773 15.027,-37.912 27.139,-54.566 2.355,-3.238 5.069,-6.219 7.663,-9.28 0.554,-0.653 1.299,-1.148 1.968,-1.701 0.299,-0.246 1.217,-0.089 1.37,0.26 0.125,0.282 0.235,0.646 0.164,0.926 -0.356,1.412 -1.465,2.344 -2.314,3.433 -10.575,13.543 -19.575,28.027 -26.323,43.867 -4.531,10.637 -8.128,21.538 -9.559,33.072 -0.127,1.026 -0.402,2.058 -0.776,3.021 -0.283,0.729 -1.024,0.823 -2.349,-0.061 m -103.1,8.402 c -1.037,-0.933 -2.095,-1.844 -3.089,-2.82 -0.178,-0.175 -0.087,-0.623 -0.12,-0.945 7.04,-4.144 9.437,-7.094 12.532,-15.457 0.954,-0.037 1.494,0.657 2.089,1.239 13,12.713 26.516,24.871 39.899,37.171 14.671,13.483 29.433,26.867 44.152,40.297 0.774,0.707 1.592,1.386 2.249,2.193 0.537,0.661 1.035,1.448 1.252,2.259 0.685,2.554 0.923,5.159 0.35,7.783 -0.909,4.157 -3.458,6.747 -7.55,7.824 -0.882,0.232 -1.737,0.068 -2.45,-0.552 -0.792,-0.687 -1.571,-1.389 -2.353,-2.087 C -48.832,2.346 -63.012,-10.377 -77.283,-22.998 -91.816,-35.849 -106.438,-48.6 -121.572,-61.881 M 11.223,-79.098 c 0.097,-0.094 0.194,-0.188 0.291,-0.282 0.078,0.109 0.237,0.234 0.22,0.326 -0.067,0.358 -0.302,0.443 -0.271,1.177 -0.041,0.871 -0.04,1.746 -0.128,2.611 -0.389,3.817 -0.8,7.631 -1.209,11.445 -0.464,4.334 -0.916,8.67 -1.406,13.002 -0.53,4.677 -1.107,9.349 -1.646,14.026 -0.379,3.291 -0.747,6.584 -1.087,9.879 -0.447,4.337 -0.858,8.676 -1.29,13.014 -0.073,0.742 -0.737,1.121 -1.512,0.88 -8.719,-2.711 -8.719,-2.711 -15.408,-2.527 -0.127,-0.45 -0.424,-0.946 -0.372,-1.403 0.986,-8.662 2.053,-17.315 3.017,-25.98 0.694,-6.237 1.252,-12.489 1.901,-18.732 0.069,-0.663 0.337,-1.306 0.498,-1.904 0.685,-0.155 1.187,-0.324 1.701,-0.377 2.728,-0.282 4.937,-1.597 6.931,-3.383 2.348,-2.103 4.517,-4.361 6.253,-7.009 0.859,-1.313 1.711,-2.632 2.617,-3.912 0.166,-0.236 0.575,-0.299 0.9,-0.851 M -20.02,20.607 c -0.296,0.177 -0.634,0.31 -0.881,0.54 -1.313,1.224 -2.797,1.225 -4.34,0.6 -0.795,-0.322 -1.54,-0.765 -2.277,-1.138 0.016,-0.259 -0.022,-0.454 0.046,-0.599 0.14,-0.294 0.272,-0.702 0.52,-0.817 4.722,-2.185 6.823,-6.125 7.483,-11.049 0.069,-0.513 0.078,-1.041 0.211,-1.537 0.08,-0.297 0.344,-0.546 0.584,-0.903 1.444,3.354 1.686,6.698 0.656,10.157 -0.285,0.958 -0.785,1.952 0.609,3.168 0.226,-0.262 0.521,-0.491 0.667,-0.792 1.649,-3.405 2.048,-6.944 1.17,-10.641 -0.308,-1.298 -0.924,-2.564 -0.657,-3.97 0.233,0.026 0.468,-0.02 0.569,0.075 2.927,2.769 4.158,6.345 4.576,10.205 0.313,2.882 -0.641,5.477 -2.523,7.706 -0.707,0.838 -1.596,1.334 -2.69,1.397 -0.69,0.04 -1.398,0.082 -2.071,-0.034 -0.472,-0.08 -0.916,-0.38 -0.772,-1.061 0.068,-0.327 -0.03,-0.689 -0.88,-1.307 M -10.138,0.85 c 3.819,1.133 6.494,3.721 8.689,6.893 0.389,0.564 0.626,1.253 0.376,1.951 -0.339,0.949 -0.532,2.047 -2.04,2.31 C -3.548,11.007 -3.999,9.927 -4.597,8.939 -5.483,7.475 -6.469,6.065 -7.503,4.702 -7.764,4.358 -8.371,4.277 -9.417,4.712 c 1.055,1.804 2.272,3.535 3.134,5.427 2.222,4.874 2.406,5.97 -2.565,9.572 -0.234,0.17 -0.663,0.072 -1.054,0.409 -0.265,0.266 -0.369,0.227 -0.234,-0.084 0.038,-0.087 0.237,-0.104 0.286,-1.002 0.143,-0.669 0.24,-1.352 0.438,-2.005 0.775,-2.56 0.513,-5.056 -0.264,-7.573 -0.562,-1.822 -1.441,-3.465 -2.427,-5.072 -0.323,-0.525 -0.997,-0.909 -0.719,-1.72 0.774,-0.128 1.14,0.535 1.666,0.858 0.576,0.354 1.098,0.802 1.695,1.107 0.13,0.066 0.48,-0.298 0.732,-1.138 -0.694,-0.851 -1.389,-1.702 -2.558,-2.594 -0.266,-0.141 -0.533,-0.282 -0.799,-0.423 0.127,-0.09 0.273,-0.274 0.376,-0.252 0.288,0.06 0.574,0.179 0.822,0.336 0.068,0.042 0,0.299 0.75,0.292 m 39.111,-159.273 c -1.417,0.082 -2.534,1.017 -3.885,1.483 -0.387,-0.815 -0.729,-1.537 -1.1,-2.319 -3.471,0.679 -6.746,1.914 -9.926,3.315 -6.394,2.816 -12.729,5.763 -18.573,9.663 -2.028,1.353 -4.236,2.434 -6.332,3.688 -1.197,0.716 -2.355,1.501 -3.493,2.309 -1.422,1.009 -2.805,2.073 -4.551,2.958 -0.346,-0.156 -0.304,-0.187 -0.304,-0.187 0.071,0.326 0.275,0.695 0.186,0.968 -0.273,0.833 0.096,1.285 0.748,1.686 0.399,0.245 0.748,0.571 1.289,0.991 -1.179,1.027 -2.22,1.938 -3.266,2.843 -5.639,4.878 -9.905,10.78 -13.021,17.528 -0.877,1.899 -1.727,3.822 -1.768,5.978 -0.011,0.577 0.652,1.399 1.268,1.434 0.692,0.039 1.388,-0.023 2.081,-0.006 0.518,0.013 1.001,0.65 0.822,1.06 -0.345,0.792 -0.703,1.579 -1.068,2.362 -3.329,7.147 -4.316,14.689 -3.783,22.483 0.047,0.692 0.214,1.379 0.359,2.061 0.184,0.861 0.43,1.734 1.323,2.115 0.691,0.296 1.335,-0.124 1.997,-0.322 1.142,-0.342 1.802,0.046 1.848,1.003 0.082,1.743 0.163,3.487 0.222,5.231 0.133,3.915 1.371,7.537 2.948,11.062 0.354,0.789 0.804,1.553 1.316,2.25 0.889,1.211 2.022,1.793 3.624,1.445 3.099,-0.672 6.058,-1.641 8.717,-3.425 0.566,-0.381 1.227,-0.623 1.851,-0.916 0.366,-0.172 1.164,0.378 1.138,0.784 -0.045,0.692 -0.075,1.388 -0.168,2.075 -0.993,7.267 -2.032,14.527 -2.988,21.799 -0.887,6.751 -1.699,13.513 -2.526,20.272 -0.466,3.813 -0.887,7.632 -1.347,11.446 -0.062,0.516 -0.224,1.021 -0.35,1.529 -0.141,0.57 -1.267,0.873 -1.768,0.448 -1.197,-1.015 -2.395,-2.029 -3.555,-3.086 -17.941,-16.362 -35.848,-32.763 -53.825,-49.087 -9.311,-8.455 -18.729,-16.792 -28.128,-25.15 -2.739,-2.436 -5.527,-4.813 -8.606,-6.84 -1.624,-1.069 -3.253,-1.24 -4.968,-0.578 -1.126,0.435 -2.255,0.984 -3.217,1.704 -3.568,2.668 -6.299,6.03 -7.907,10.221 -0.371,0.966 -0.633,2.001 -0.762,3.026 -0.225,1.782 0.031,3.5 1.248,4.937 1.012,1.196 1.97,2.454 3.09,3.541 2.884,2.798 5.801,5.564 8.781,8.258 16.846,15.229 33.696,30.456 50.583,45.639 9.743,8.76 19.552,17.447 29.35,26.145 1.697,1.506 3.432,2.981 5.246,4.342 4.671,3.504 9.952,4.977 15.765,4.382 4.136,-0.424 7.676,-2.241 10.779,-4.937 C -3.102,18.99 -1.08,16.375 0.539,13.439 3.869,7.4 5.824,0.913 6.826,-5.879 c 0.459,-3.108 0.789,-6.236 1.241,-9.345 1.384,-9.51 2.197,-19.081 3.127,-28.64 0.49,-5.04 1.055,-10.073 1.568,-15.111 0.478,-4.692 0.943,-9.384 1.396,-14.078 0.436,-4.52 0.853,-9.041 1.273,-13.563 0.104,-1.112 0.457,-2.078 1.642,-2.407 1.927,-0.536 3.354,-1.792 4.784,-3.094 4.742,-4.319 7.153,-9.827 8.117,-16.027 0.454,-2.923 0.918,-5.871 0.453,-8.861 -0.194,-1.251 0.089,-2.423 0.896,-3.446 1.916,-2.43 2.619,-5.316 2.884,-8.294 0.834,-9.392 -0.309,-18.474 -4.517,-27.035 -0.307,-0.625 -0.568,-1.272 -0.79,-2.294 0.059,-0.384 0.073,-0.349 0.073,-0.349"
       style="fill:#d2451e;fill-opacity:1;fill-rule:nonzero;stroke:none"
       transform="matrix(1.3333333,0,0,-1.3333333,605.70093,164.05067)"
       clip-path="url(#clipPath10)" />
    <path
       id="path11"
       d="m 0,0 c 1.486,-2.083 3.612,-3.172 5.998,-3.85 0.16,-0.045 0.355,-0.031 0.517,0.015 0.162,0.045 0.342,0.134 0.441,0.261 0.074,0.094 0.091,0.317 0.03,0.42 C 5.571,-0.797 3.516,0.636 0.783,1.023 0.487,1.064 0.149,0.805 0,0 m -65.347,87.34 c 1.042,2.966 2.042,5.947 3.134,8.895 1.523,4.11 1.064,4.258 -2.579,4.573 -1.035,0.089 -2.056,0.379 -3.075,0.616 -2.91,0.676 -5.647,1.808 -8.293,3.183 -0.634,0.329 -1.487,0.011 -1.73,-0.633 -0.8,-2.122 -1.609,-4.243 -2.363,-6.382 -9.397,-26.689 -18.78,-53.382 -28.179,-80.07 -2.958,-8.402 -5.954,-16.79 -8.926,-25.188 -0.29,-0.82 -0.542,-1.654 -0.784,-2.49 -0.166,-0.576 0.491,-1.414 1.139,-1.42 5.243,-0.045 10.486,-0.073 15.729,-0.111 1.187,-0.008 1.995,0.544 2.384,1.648 1.16,3.294 2.304,6.594 3.44,9.896 9.947,28.9 19.891,57.802 30.103,87.483 m -41.144,-55.752 c 8.371,24.342 16.619,48.287 24.874,72.231 0.512,1.484 1.055,2.959 1.637,4.417 0.653,1.637 2.03,2.347 3.662,2.622 0.683,0.116 1.399,0.168 2.086,0.105 4.926,-0.453 9.626,-1.712 13.942,-4.181 0.896,-0.513 1.729,-1.201 2.447,-1.947 1.017,-1.057 1.445,-2.272 0.892,-3.82 -2.468,-6.908 -4.843,-13.85 -7.28,-20.769 -9.284,-26.359 -18.578,-52.714 -27.874,-79.069 -1.162,-3.294 -2.376,-6.569 -3.527,-9.867 -0.223,-0.639 -0.286,-1.338 -0.381,-2.015 -0.058,-0.417 0.161,-0.715 0.559,-0.755 1.206,-0.122 2.415,-0.29 3.623,-0.301 9.963,-0.087 19.927,-0.135 29.89,-0.209 15.206,-0.113 30.412,-0.238 45.619,-0.349 1.042,-0.007 2.084,0.066 3.227,0.105 1.544,1.206 2.453,2.918 3.535,4.477 1.592,2.297 3.126,4.634 4.704,6.941 0.493,0.72 1.052,1.395 1.577,2.093 1.227,1.63 2.719,2.524 5.567,1.517 2.497,-0.882 4.813,-2.059 6.563,-4.149 1.247,-1.489 1.477,-3.172 0.857,-4.915 -0.404,-1.137 -1.057,-2.2 -1.691,-3.24 -2.001,-3.282 -4.016,-6.557 -6.087,-9.795 -0.766,-1.197 -0.676,-2.244 0.047,-3.397 2.414,-3.848 4.796,-7.717 7.184,-11.581 21.04,-34.036 42.078,-68.072 63.118,-102.108 0.092,-0.149 0.195,-0.29 0.288,-0.438 2.911,-4.667 2.65,-4.79 -1.307,-8.858 -1.995,-2.051 -4.56,-3.239 -7.388,-3.703 -1.544,-0.254 -3.125,-0.349 -4.692,-0.389 -2.447,-0.062 -4.887,-0.019 -7.247,-0.874 -0.859,-0.312 -1.684,0.213 -2.064,1.14 -3.251,7.916 -6.482,15.841 -9.739,23.755 -13.23,32.14 -26.466,64.277 -39.706,96.414 -1.062,2.578 -2.169,5.138 -3.228,7.641 3.264,4.473 6.113,9.066 9.071,13.585 0.431,0.66 0.182,1.421 -0.518,1.704 -0.161,0.065 -0.336,0.095 -0.503,0.145 -2.218,0.659 -4.157,1.786 -5.839,3.382 -0.485,0.46 -1.087,0.797 -1.767,1.285 -0.605,-0.81 -1.171,-1.467 -1.625,-2.193 -1.576,-2.518 -3.185,-5.02 -4.637,-7.608 -0.943,-1.68 -2.351,-2.511 -4.117,-2.919 -3.402,-0.785 -6.81,-1.54 -10.21,-2.335 -19.038,-4.452 -38.071,-8.926 -57.112,-13.368 -20.402,-4.759 -40.802,-9.529 -61.105,-14.698 -0.845,-0.215 -1.71,-0.357 -2.572,-0.497 -0.918,-0.148 -1.734,0.126 -2.4,0.761 -2.29,2.185 -4.422,4.519 -5.639,7.484 -1.058,2.579 -2.062,5.2 -2.819,7.879 -0.713,2.524 -0.85,5.153 -0.63,7.8 0.217,2.608 0.399,5.226 -0.265,7.821 -0.204,0.795 0.643,1.666 1.565,1.707 1.57,0.069 3.141,0.131 4.712,0.132 7.691,0.009 15.382,-0.003 23.073,-0.008 0.7,-10e-4 1.399,-0.011 2.098,-10e-4 2.706,0.038 2.978,0.223 3.796,2.627 2.416,7.11 4.827,14.221 7.24,21.332 2.132,6.286 4.263,12.572 6.516,19.254"
       style="fill:#d2451e;fill-opacity:1;fill-rule:nonzero;stroke:none"
       transform="matrix(1.3333333,0,0,-1.3333333,1084.4229,218.81067)"
       clip-path="url(#clipPath12)" />
    <path
       id="path13"
       d="m 0,0 c 6.139,-0.986 11.826,-1.898 17.509,-2.834 7.063,-1.163 14.12,-2.359 21.185,-3.508 1.549,-0.252 3.117,-0.402 4.682,-0.536 1.332,-0.113 2.348,0.597 2.621,1.983 0.977,4.967 2.017,9.922 2.947,14.897 0.866,4.634 1.614,9.289 2.439,13.93 0.089,0.505 0.336,0.982 0.516,1.47 0.119,0.324 0.938,0.627 1.358,0.55 1.116,-0.205 2.021,-0.753 2.308,-1.857 0.615,-2.362 1.172,-4.744 1.637,-7.139 2.433,-12.509 4.837,-25.023 7.224,-37.541 0.16,-0.842 0.154,-1.729 0.106,-2.588 -0.013,-0.239 -0.479,-0.674 -0.693,-0.649 -2.596,0.31 -5.19,0.645 -7.771,1.058 -7.928,1.268 -15.852,2.568 -23.777,3.863 -7.579,1.24 -15.154,2.505 -22.736,3.729 -7.582,1.225 -15.171,2.405 -22.755,3.62 -7.239,1.16 -14.475,2.338 -21.713,3.512 -7.753,1.257 -15.508,2.509 -23.259,3.779 -7.579,1.24 -15.153,2.513 -22.733,3.747 -7.409,1.207 -14.824,2.37 -22.233,3.577 -7.58,1.235 -15.153,2.513 -22.733,3.75 -7.579,1.237 -15.164,2.436 -22.743,3.672 -7.064,1.153 -14.125,2.33 -21.186,3.501 -7.405,1.229 -14.807,2.473 -22.214,3.692 -7.922,1.303 -15.846,2.595 -23.773,3.872 -7.583,1.222 -15.173,2.4 -22.755,3.633 -7.58,1.233 -15.148,2.545 -22.732,3.757 -7.585,1.213 -15.181,2.353 -22.775,3.508 -5.176,0.788 -10.358,1.546 -15.537,2.322 -0.79,0.119 -1.249,0.845 -0.974,1.512 0.199,0.484 0.372,0.981 0.607,1.446 0.628,1.248 1.275,2.486 1.93,3.72 5.733,10.797 11.468,21.593 17.209,32.385 0.492,0.925 0.978,1.86 1.568,2.721 0.27,0.395 0.749,0.807 1.195,0.893 1.354,0.262 2.744,0.426 4.165,-0.425 0.046,-0.416 0.206,-0.924 0.141,-1.401 -0.632,-4.672 -1.301,-9.338 -1.959,-14.007 -0.464,-3.285 -0.954,-6.566 -1.375,-9.857 -0.133,-1.031 -0.133,-2.088 -0.098,-3.131 0.024,-0.726 0.379,-1.347 1.12,-1.604 0.987,-0.342 1.969,-0.744 2.988,-0.936 7.717,-1.458 15.438,-2.903 23.169,-4.288 6.872,-1.232 13.759,-2.384 20.64,-3.566 9.29,-1.595 18.581,-3.19 27.872,-4.777 7.742,-1.322 15.481,-2.656 23.229,-3.94 9.47,-1.569 18.952,-3.065 28.421,-4.641 9.469,-1.576 18.922,-3.243 28.391,-4.813 9.472,-1.57 18.96,-3.047 28.434,-4.609 9.473,-1.561 18.934,-3.194 28.406,-4.763 7.405,-1.227 14.822,-2.383 22.227,-3.609 7.404,-1.226 14.797,-2.517 22.201,-3.748 5.165,-0.86 10.34,-1.66 15.508,-2.503 C -3.193,0.605 -1.825,0.32 0,0"
       style="fill:#d2451e;fill-opacity:1;fill-rule:nonzero;stroke:none"
       transform="matrix(1.3333333,0,0,-1.3333333,792.96947,1349.8827)"
       clip-path="url(#clipPath14)" />
    <path
       id="path15"
       d="m 0,0 c 3.897,3.51 8.032,6.73 12.354,9.686 10.12,6.921 20.666,13.02 32.604,16.334 0.47,0.13 0.859,0.556 1.283,0.848 0.349,0.24 0.454,0.559 0.255,0.909 -0.159,0.281 -0.326,0.607 -0.581,0.768 -0.271,0.172 -0.662,0.269 -0.979,0.229 C 44.077,28.666 43.214,28.521 42.378,28.298 34.234,26.123 26.61,22.739 19.339,18.491 9.339,12.648 0.145,5.779 -7.979,-2.498 c -2.821,-2.874 -5.335,-5.996 -7.542,-9.359 -0.366,-0.558 -0.535,-1.275 -0.66,-1.944 -0.041,-0.225 0.31,-0.554 0.536,-0.781 0.08,-0.081 0.322,-0.004 0.49,0.005 0.996,0.056 1.502,0.833 2.054,1.476 C -9.227,-8.592 -5.043,-4.392 0,0 m -7.63,76.461 c 0.203,-16.247 0.403,-32.494 0.615,-48.74 0.018,-1.394 0.106,-2.788 0.176,-4.18 0.024,-0.476 0.738,-0.871 1.164,-0.655 1.079,0.547 2.143,1.127 3.235,1.647 0.494,0.236 1.565,-0.455 1.574,-1.001 0.021,-1.384 -0.004,-2.769 0.007,-4.154 0.001,-0.139 0.124,-0.394 0.191,-0.395 0.318,-0.003 0.806,-0.053 0.93,0.125 2.297,3.288 4.528,6.628 7.426,9.442 0.949,0.922 1.24,2.004 1.188,3.309 -0.434,10.997 -0.878,21.993 -1.222,32.992 -0.392,12.572 -0.701,25.146 -1.016,37.72 -0.385,15.368 -0.417,30.743 -1.061,46.107 -0.292,6.98 -0.228,13.974 -0.374,20.961 -0.324,15.545 -0.689,31.088 -1.017,46.632 -0.115,5.415 -0.127,10.832 -0.27,16.246 -0.105,4.013 -0.337,8.022 -0.53,12.032 -0.034,0.701 -0.731,1.236 -1.434,1.184 -0.347,-0.025 -0.703,-0.004 -1.042,-0.071 -3.298,-0.655 -6.591,-0.632 -9.898,-0.038 -0.658,0.118 -1.356,0.017 -2.077,0.017 -0.181,-0.58 -0.443,-1.064 -0.463,-1.559 -0.059,-1.394 -0.049,-2.794 -0.012,-4.19 0.262,-9.953 0.545,-19.906 0.805,-29.86 0.347,-13.272 0.409,-26.548 0.907,-39.82 0.623,-16.583 0.557,-33.185 1.17,-49.773 0.528,-14.314 0.307,-28.65 1.028,-43.978 m -13.379,-90.635 c 0.3,-0.357 0.542,-0.992 1.161,-0.575 0.563,0.379 1.189,0.798 1.524,1.357 0.805,1.343 1.559,2.736 2.149,4.184 2.338,5.732 3.37,11.75 3.498,17.905 0.132,6.308 -0.564,4.384 2.925,9.673 0.093,0.142 0.135,0.317 0.313,0.747 0.14,2.346 -0.067,4.959 -0.186,7.572 -0.158,3.493 -0.397,6.982 -0.497,10.476 -0.499,17.471 -0.964,34.944 -1.442,52.416 -0.515,18.87 -1.031,37.74 -1.548,56.61 -0.019,0.699 -0.055,1.398 -0.072,2.097 -0.492,20.969 -0.971,41.938 -1.48,62.907 -0.251,10.31 -0.567,20.617 -0.829,30.927 -0.054,2.095 -0.007,4.193 0.012,6.29 0.01,1.194 0.748,1.983 1.723,2.416 1.108,0.492 2.298,0.945 3.491,1.079 4.878,0.547 9.764,0.781 14.551,-0.691 0.656,-0.202 1.325,-0.474 1.877,-0.868 0.39,-0.28 0.692,-0.788 0.851,-1.256 0.161,-0.477 0.122,-1.03 0.133,-1.55 0.456,-20.445 0.905,-40.891 1.359,-61.336 0.353,-15.902 0.721,-31.803 1.066,-47.705 0.356,-16.427 0.725,-32.853 1.026,-49.28 0.327,-17.826 0.581,-35.653 0.872,-53.479 0.011,-0.695 0.082,-1.389 0.124,-2.055 0.373,-0.149 0.786,-0.465 0.97,-0.364 1.063,0.586 2.092,1.243 3.097,1.926 2.754,1.873 5.6,3.58 8.75,4.699 0.798,0.284 1.69,0.33 2.546,0.422 0.601,0.065 1.047,-0.532 1.119,-1.414 0.014,-0.17 -0.045,-0.345 -0.343,-1.143 -0.332,-0.959 -0.458,-1.297 -0.437,-1.625 0.041,-0.622 0.502,-0.846 1.015,-0.496 0.274,0.186 0.471,0.486 0.703,0.735 0.33,0.105 0.687,0.16 0.985,0.323 5.94,3.23 12.352,4.687 19.048,4.948 2.252,0.088 4.524,-0.076 6.775,-0.268 2.114,-0.181 2.751,-0.847 3.28,-2.755 0.667,-2.405 0.694,-4.826 0.218,-7.247 -0.78,-3.968 -2.145,-7.714 -4.44,-11.08 -0.687,-1.007 -1.394,-2.001 -2.083,-2.987 -0.071,-0.355 -0.262,-0.722 -0.187,-1.024 0.914,-3.68 -0.255,-6.884 -2.266,-9.87 C 47.758,2.634 44.283,-0.243 40.315,-2.539 37.292,-4.288 34.087,-5.65 30.778,-6.768 29.791,-7.102 28.81,-7.45 27.916,-7.761 27.657,-8.141 27.351,-8.4 27.29,-8.708 c -0.588,-2.961 -2.475,-4.922 -4.904,-6.474 -3.592,-2.294 -7.521,-3.697 -11.757,-4.007 -6.961,-0.51 -13.926,-0.597 -20.855,0.516 -1.204,0.193 -2.427,0.272 -3.624,0.495 -0.666,0.124 -1.614,0.247 -1.887,0.699 -1.076,1.791 -2.464,0.687 -3.731,0.612 -0.853,0.606 -0.6,1.539 -1.114,2.547 -0.394,0.188 -0.408,0.152 -0.427,0.146"
       style="fill:#d2451e;fill-opacity:1;fill-rule:nonzero;stroke:none"
       transform="matrix(1.3333333,0,0,-1.3333333,672.2996,356.43813)"
       clip-path="url(#clipPath16)" />
    <path
       id="path17"
       d="m 0,0 c 1.733,8.656 3.417,16.868 5.031,25.093 2.959,15.08 5.887,30.166 8.807,45.253 0.995,5.144 1.916,10.303 2.895,15.45 0.282,1.483 0.372,3.041 1.309,4.34 1.115,-0.598 1.28,-1.704 1.655,-2.641 2.79,-6.969 5.511,-13.967 8.316,-20.93 13.113,-32.558 26.247,-65.107 39.374,-97.659 0.784,-1.944 1.59,-3.879 2.36,-5.828 0.847,-2.144 0.547,-2.873 -1.429,-3.629 -3.939,-1.507 -8.031,-2.373 -12.208,-2.847 -3.54,-0.401 -6.954,0.417 -10.356,1.219 -4.633,1.092 -8.929,2.966 -12.864,5.659 -2.739,1.875 -5.575,3.617 -8.23,5.602 -3.316,2.479 -7.023,3.85 -11.066,4.388 -2.248,0.298 -4.516,0.576 -6.778,0.608 -3.357,0.048 -6.568,0.855 -9.813,1.522 -0.326,0.067 -0.664,0.261 -0.91,0.49 -0.242,0.224 -0.549,0.58 -0.526,0.854 0.098,1.213 0.244,2.43 0.483,3.623 C -2.679,-13.098 -1.374,-6.769 0,0"
       style="fill:#d2451e;fill-opacity:1;fill-rule:nonzero;stroke:none"
       transform="matrix(1.3333333,0,0,-1.3333333,1054.2785,368.81013)"
       clip-path="url(#clipPath18)" />
    <path
       id="path19"
       d="m 0,0 c -0.305,-0.448 -0.413,-0.904 -0.175,-1.434 1.162,-2.578 2.782,-4.828 4.773,-6.828 3.467,-3.482 7.332,-6.472 11.445,-9.134 5.287,-3.421 10.862,-6.319 16.617,-8.871 13.916,-6.171 28.323,-10.909 43.049,-14.713 11.159,-2.883 22.435,-5.232 33.809,-7.06 7.406,-1.19 14.857,-2.068 22.344,-2.716 7.5,-0.649 14.992,-0.81 22.504,-0.801 7.879,0.01 15.687,0.754 23.451,2.073 3.797,0.645 7.505,1.601 11.142,2.85 4.683,1.606 8.995,3.821 12.406,7.529 0.222,0.241 0.569,0.369 0.959,0.613 0.386,-0.224 0.925,-0.384 1.238,-0.742 2.719,-3.106 4.186,-6.81 4.989,-10.805 0.179,-0.89 -0.089,-1.732 -0.595,-2.482 -1.493,-2.209 -3.474,-3.888 -5.699,-5.324 -4.603,-2.971 -9.657,-4.859 -14.931,-6.183 -6.783,-1.703 -13.67,-2.702 -20.648,-3.32 -8.545,-0.757 -17.089,-0.878 -25.648,-0.734 -7.863,0.133 -15.694,0.774 -23.507,1.647 -3.643,0.407 -7.282,0.852 -10.927,1.248 -9.382,1.018 -18.648,2.755 -27.875,4.668 -7.002,1.451 -13.97,3.094 -20.899,4.866 -14.755,3.774 -29.01,8.943 -42.663,15.728 -5.009,2.49 -9.877,5.225 -14.521,8.348 -2.902,1.953 -5.667,4.079 -8.179,6.528 -1.759,1.717 -3.324,3.592 -4.67,5.639 -0.667,1.015 -1.238,2.108 -1.735,3.219 -1.487,3.322 -1.26,6.346 1.329,9.178 2.773,3.036 5.832,5.523 9.915,6.474 0.654,0.153 1.372,0.03 2.4,0.275 C 0.037,-0.024 0,0 0,0"
       style="fill:#d2451e;fill-opacity:1;fill-rule:nonzero;stroke:none"
       transform="matrix(1.3333333,0,0,-1.3333333,558.92853,1004.5436)"
       clip-path="url(#clipPath20)" />
    <path
       id="path21"
       d="M 0,0 C 0.48,-0.168 1.044,-0.226 1.427,-0.521 9.579,-6.8 18.943,-10.54 28.667,-13.5 c 8.193,-2.495 16.571,-4.23 25.084,-5.039 5.545,-0.527 11.151,-0.498 16.731,-0.545 6.646,-0.055 13.231,0.637 19.73,2.092 0.833,0.186 1.721,0.133 2.585,0.162 0.108,0.004 0.266,-0.151 0.321,-0.269 0.071,-0.151 0.146,-0.422 0.071,-0.5 -0.585,-0.616 -1.14,-1.291 -1.826,-1.774 -2.865,-2.02 -5.419,-4.366 -7.851,-6.889 -2.316,-2.403 -4.419,-4.94 -6.078,-7.828 -1.737,-3.023 -3.522,-6.024 -5.101,-9.128 -2.707,-5.323 -4.509,-10.948 -5.201,-16.91 -0.2,-1.729 -0.696,-3.433 -0.795,-5.164 -0.096,-1.686 -0.84,-2.976 -1.807,-4.238 -1.189,-1.551 -2.697,-2.716 -4.357,-3.707 -2.269,-1.354 -4.725,-2.291 -7.278,-2.861 -5.131,-1.144 -10.289,-1.642 -15.573,-0.854 -6.286,0.936 -12.241,2.715 -17.756,5.891 -3.058,1.762 -5.681,4.03 -7.838,6.836 -0.897,1.168 -1.361,2.379 -0.942,3.886 1.751,6.29 2.143,12.737 1.74,19.2 C 11.803,-29.531 9.179,-18.402 3.659,-8.048 2.355,-5.6 0.722,-3.315 -0.063,-0.3 0.043,0.052 0,0 0,0"
       style="fill:#d2451e;fill-opacity:1;fill-rule:nonzero;stroke:none"
       transform="matrix(1.3333333,0,0,-1.3333333,675.0836,736.17693)"
       clip-path="url(#clipPath22)" />
    <path
       id="path23"
       d="m 0,0 c -10.44,1.711 -20.424,3.392 -30.417,5.014 -9.649,1.566 -19.306,3.081 -28.962,4.603 -8.104,1.278 -16.21,2.547 -24.319,3.794 -3.096,0.477 -6.264,0.536 -9.418,1.685 2.112,1.499 4.567,1.699 6.777,2.517 2.289,0.847 4.653,1.491 6.978,2.241 2.16,0.696 4.319,1.397 6.468,2.127 2.311,0.786 4.61,1.608 7.157,2.5 3.392,-0.543 7.008,-1.12 10.624,-1.702 8.272,-1.331 16.543,-2.666 24.815,-3.998 7.755,-1.249 15.483,-2.708 23.273,-3.682 C -0.207,14.247 6.251,12.327 12.695,10.07 28.87,4.405 45.41,0.051 62.306,-2.839 c 9.289,-1.589 18.63,-2.848 28.029,-3.738 8.362,-0.791 16.737,-0.971 25.113,-1.272 2.965,-0.107 5.952,-0.159 8.904,0.075 3.541,0.28 6.955,-0.288 10.392,-0.91 9.103,-1.647 18.202,-3.319 27.317,-4.897 7.912,-1.369 15.844,-2.627 23.768,-3.926 2.751,-0.451 5.506,-0.877 8.164,-1.3 1.414,-1.304 2.693,-2.487 3.977,-3.665 3.733,-3.424 7.478,-6.835 11.179,-10.293 0.258,-0.24 0.193,-0.826 0.32,-1.456 -6.961,1.112 -13.677,2.175 -20.39,3.26 -7.755,1.254 -15.507,2.522 -23.259,3.794 -7.579,1.244 -15.153,2.514 -22.733,3.749 -7.409,1.207 -14.825,2.371 -22.234,3.577 -7.58,1.232 -15.155,2.5 -22.735,3.738 -7.408,1.21 -14.822,2.392 -22.23,3.605 -7.579,1.242 -15.153,2.517 -22.731,3.761 C 45.75,-7.521 38.339,-6.333 30.933,-5.118 23.526,-3.903 16.122,-2.672 8.717,-1.445 5.961,-0.988 3.207,-0.519 0,0"
       style="fill:#d2451e;fill-opacity:1;fill-rule:nonzero;stroke:none"
       transform="matrix(1.3333333,0,0,-1.3333333,593.67253,1091.3899)"
       clip-path="url(#clipPath24)" />
    <path
       id="path25"
       d="m 0,0 c -0.222,-0.831 -0.361,-1.697 -0.68,-2.489 -2.378,-5.905 -3.482,-12.035 -3.655,-18.395 -0.306,-11.177 1.868,-21.923 5.69,-32.325 6.704,-18.247 16.414,-34.7 29.891,-48.83 2.772,-2.908 5.578,-5.8 8.134,-8.893 4.566,-5.524 8.795,-11.307 12.418,-17.509 1.336,-2.288 2.124,-4.782 2.661,-7.358 0.25,-1.197 0.417,-2.41 0.648,-3.611 0.302,-1.564 0.279,-3.106 10e-4,-4.683 -0.302,-1.713 -0.536,-3.456 -0.591,-5.192 -0.137,-4.245 1.942,-7.344 5.388,-9.573 2.589,-1.675 5.498,-2.117 8.539,-1.816 1.564,0.154 3.13,0.286 4.695,0.426 5.908,0.528 10.996,-1.492 15.534,-5.095 3.179,-2.524 5.754,-5.58 7.802,-9.1 2.678,-4.603 4.304,-9.573 4.984,-14.807 0.865,-6.665 0.391,-13.261 -1.882,-19.65 -1.479,-4.156 -3.597,-7.956 -6.544,-11.258 -0.688,-0.771 -1.512,-1.42 -2.382,-2.226 -0.631,0.49 -1.244,0.838 -1.692,1.335 -2.46,2.723 -4.928,5.442 -7.29,8.248 -1.005,1.194 -1.863,2.542 -2.608,3.917 -1.256,2.317 -1.312,4.635 0.267,6.914 0.901,1.301 1.863,2.508 3.023,3.595 1.526,1.431 2.974,2.952 4.379,4.504 2.311,2.554 3.289,5.73 3.929,9.015 0.163,0.834 0.052,1.742 -0.054,2.601 -0.423,3.433 -2.08,6.266 -4.426,8.721 -0.852,0.892 -1.904,1.478 -3.156,1.742 -2.258,0.477 -4.49,0.63 -6.741,-0.024 -1.677,-0.486 -3.402,-0.823 -5.049,-1.391 -3.239,-1.118 -6.539,-1.026 -9.851,-0.639 -1.927,0.224 -3.717,0.954 -5.375,1.97 -5.473,3.353 -9.915,7.715 -13,13.381 -1.466,2.693 -2.097,5.523 -1.321,8.586 0.386,1.523 0.657,3.076 0.938,4.623 0.472,2.59 0.692,5.204 0.43,7.829 -0.299,3.002 -1.153,5.838 -3.003,8.27 -1.585,2.083 -3.172,4.16 -5.106,5.963 -13.423,12.513 -24.078,27.159 -33.046,43.09 -5.939,10.55 -10.592,21.634 -13.755,33.334 -1.923,7.112 -3.069,14.348 -3.483,21.693 -0.367,6.5 0.371,12.911 1.906,19.232 0.268,1.106 0.932,1.864 2.046,2.156 3.567,0.935 6.913,2.418 10.684,3.988 C -0.215,0.194 0,0 0,0"
       style="fill:#d2451e;fill-opacity:1;fill-rule:nonzero;stroke:none"
       transform="matrix(1.3333333,0,0,-1.3333333,471.02573,393.56867)"
       clip-path="url(#clipPath26)" />
    <path
       id="path27"
       d="m 0,0 c -0.346,-2.327 -0.575,-4.235 -0.893,-6.128 -0.695,-4.122 -2.635,-7.541 -5.878,-10.205 -3.537,-2.905 -7.361,-5.288 -11.748,-6.723 -4.465,-1.46 -8.587,-0.865 -12.486,1.736 -2.468,1.647 -4.941,3.305 -7.532,4.743 -5.711,3.17 -12.812,1.702 -17.066,-3.304 -2.923,-3.441 -3.893,-7.37 -3.064,-11.735 0.389,-2.051 0.935,-4.08 1.956,-5.951 0.752,-1.378 1.387,-2.819 2.061,-4.239 0.687,-1.446 0.99,-2.986 0.976,-4.575 -0.006,-0.69 -0.009,-1.461 -0.302,-2.051 -1.007,-2.029 -1.989,-4.097 -4.046,-5.358 -3.275,-2.009 -6.525,-4.059 -9.801,-6.067 -0.279,-0.171 -0.667,-0.162 -1.188,-0.276 -0.334,0.507 -0.804,1.028 -1.059,1.639 -1.902,4.556 -3.046,9.339 -3.259,14.238 -0.424,9.751 2.088,18.683 8.295,26.391 3.706,4.601 8.397,7.876 13.909,9.937 5.052,1.889 10.271,1.905 15.502,0.939 1.171,-0.216 2.268,-0.866 3.384,-1.353 1.436,-0.628 2.808,-1.444 4.292,-1.91 3.243,-1.019 6.525,-1.097 9.753,0.168 3.313,1.298 5.461,3.688 6.489,7.066 0.355,1.166 0.685,2.371 0.784,3.577 0.321,3.944 1.804,7.478 3.851,10.757 4.764,7.627 11.27,13.392 19.638,16.672 12.33,4.834 23.484,11.558 33.679,19.93 9.353,7.681 17.838,16.221 25.108,25.924 4.94,6.593 9.207,13.581 12.489,21.163 2.877,6.647 4.686,13.514 4.733,20.797 0.006,1.013 0.918,1.377 1.817,0.77 0.434,-0.293 0.867,-0.588 1.286,-0.903 1.685,-1.269 3.509,-2.259 5.474,-3.047 2.321,-0.929 2.531,-1.394 2.094,-4.017 C 98.386,103.424 97.109,98.348 95.251,93.429 91.199,82.708 85.417,72.976 78.261,64.062 67.112,50.177 53.911,38.557 38.973,28.904 32.069,24.443 24.914,20.445 17.311,17.25 14.433,16.04 11.536,14.805 8.94,12.955 4.504,9.792 1.314,5.817 0,0"
       style="fill:#d2451e;fill-opacity:1;fill-rule:nonzero;stroke:none"
       transform="matrix(1.3333333,0,0,-1.3333333,985.79187,654.44533)"
       clip-path="url(#clipPath28)" />
    <path
       id="path29"
       d="m 0,0 c 0.228,0.258 0.681,0.55 0.648,0.77 -0.206,1.374 -0.634,2.72 -0.774,4.097 -0.275,2.718 0.463,5.203 2.179,7.341 3.815,4.752 8.778,6.683 14.8,5.871 0.465,-0.063 0.887,-0.436 1.408,-0.705 -0.941,-1.159 -1.876,-2.191 -2.672,-3.322 -1.226,-1.741 -1.227,-3.55 -0.114,-5.393 1.2,-1.988 2.866,-3.505 4.717,-4.84 3.981,-2.87 8.306,-5.119 12.789,-7.098 7.847,-3.464 16.024,-5.937 24.291,-8.124 8.609,-2.278 17.333,-4.071 26.174,-5.096 8.32,-0.964 16.679,-1.673 25.079,-1.25 4.541,0.229 9.029,0.835 13.44,1.963 2.213,0.566 4.323,1.382 6.23,2.65 2.655,1.768 4.191,4.145 3.925,7.467 -0.07,0.867 -0.077,1.739 -0.1,2.608 -0.011,0.412 0.787,0.954 1.115,0.772 5.348,-2.966 9.167,-10.392 8.404,-16.337 -0.118,-0.915 -0.621,-1.63 -1.241,-2.246 -2.637,-2.624 -5.792,-4.48 -9.167,-5.961 -5.303,-2.327 -10.867,-3.719 -16.579,-4.646 -7.797,-1.265 -15.646,-1.358 -23.502,-1.194 -20.093,0.42 -39.489,4.351 -58.109,11.932 -5.652,2.302 -11.133,4.975 -16.32,8.246 -4.758,3 -9.066,6.503 -12.935,10.572 C 2.738,-0.926 1.978,0.321 0.244,0.363 -0.031,0.015 0,0 0,0"
       style="fill:#d2451e;fill-opacity:1;fill-rule:nonzero;stroke:none"
       transform="matrix(1.3333333,0,0,-1.3333333,606.6232,962.67693)"
       clip-path="url(#clipPath30)" />
    <path
       id="path31"
       d="m 0,0 c -7.56,-5.688 -15.007,-10.865 -22.897,-15.39 -5.056,-2.899 -10.431,-4.82 -16.186,-5.745 -2.153,-0.346 -4.162,-0.234 -6.052,0.943 -0.282,0.176 -0.662,0.193 -0.618,0.181 -3.465,-0.491 -6.56,-1.049 -9.68,-1.348 -6.012,-0.575 -11.851,0.137 -17.347,2.827 -1.197,0.585 -1.881,1.558 -1.922,2.889 -0.12,4.011 1.086,7.621 3.772,10.579 1.752,1.928 3.759,3.642 5.771,5.309 1.744,1.445 3.661,2.681 5.489,4.025 0.417,0.307 0.789,0.676 1.172,1.027 0.446,0.407 0.169,1.517 -0.477,1.759 -0.965,0.362 -1.952,0.664 -2.927,0.99 0.068,0.355 0.016,0.81 0.215,0.993 0.633,0.583 1.318,1.136 2.057,1.575 7.612,4.514 15.775,7.43 24.616,8.243 3.997,0.367 8.013,0.522 12.02,0.79 1.632,0.109 3.093,-0.304 4.454,-1.214 1.45,-0.969 2.977,-1.828 4.403,-2.83 0.33,-0.231 0.389,-0.846 0.613,-1.38 C -24.403,12.935 -34.4,9.47 -43.823,4.286 c -5.081,-2.795 -9.742,-6.15 -13.685,-10.435 -0.582,-0.632 -1.269,-1.24 -1.364,-2.167 -0.03,-0.297 0.079,-0.712 0.283,-0.901 0.202,-0.187 0.69,-0.311 0.906,-0.193 1.066,0.579 2.107,1.212 3.115,1.889 9.763,6.552 20.113,11.903 31.354,15.462 5.525,1.75 11.138,2.919 16.962,2.819 0.86,-0.014 1.774,-0.044 2.565,-0.333 C 0.077,9.048 3.811,7.584 7.538,6.106 7.662,6.057 7.738,5.386 7.599,5.254 6.975,4.66 6.296,4.109 5.579,3.63 3.838,2.468 2.064,1.355 0,0"
       style="fill:#d2451e;fill-opacity:1;fill-rule:nonzero;stroke:none"
       transform="matrix(1.3333333,0,0,-1.3333333,623.70747,388.1444)"
       clip-path="url(#clipPath32)" />
    <path
       id="path33"
       d="M 0,0 C -0.292,-0.456 -0.349,-0.945 -0.006,-1.405 1.254,-3.09 2.364,-4.857 2.841,-6.935 2.899,-7.19 2.615,-7.549 2.433,-7.822 2.351,-7.945 2.135,-8.018 1.969,-8.042 c -4.644,-0.679 -9.291,-1.349 -14.085,-2.042 -0.605,0.125 -0.991,0.733 -1.337,1.319 -3.08,5.225 -7.98,7.771 -13.665,8.701 -11.775,1.926 -22.5,-0.933 -32.116,-7.917 -2.981,-2.166 -5.362,-4.922 -7.419,-8.019 -5.223,-7.862 -12.046,-13.969 -20.629,-17.994 -1.726,-0.809 -3.599,-1.297 -5.379,-1.996 -2.25,-0.884 -4.409,-0.462 -6.653,0.128 -4.24,1.114 -6.42,6.684 -3.818,10.621 1.082,1.637 2.467,2.938 4.219,3.817 0.934,0.468 1.91,0.852 2.872,1.262 1.282,0.547 2.579,1.061 3.852,1.627 6.671,2.968 12.154,7.465 16.713,13.117 2.084,2.583 4.294,5.04 6.63,7.4 4.746,4.795 10.366,8.255 16.597,10.664 6.76,2.614 13.82,3.56 21.061,2.915 0.86,-0.076 1.717,-0.288 2.554,-0.517 3.025,-0.826 6.043,-1.676 9.056,-2.542 0.668,-0.192 1.328,-0.439 1.953,-0.74 5.681,-2.736 11.156,-5.774 15.418,-10.583 0.46,-0.518 1.01,-0.955 1.891,-1.33 C 0.057,-0.052 0.015,-0.022 0,0"
       style="fill:#d2451e;fill-opacity:1;fill-rule:nonzero;stroke:none"
       transform="matrix(1.3333333,0,0,-1.3333333,580.0372,347.33107)"
       clip-path="url(#clipPath34)" />
    <path
       id="path35"
       d="m 0,0 c 0.964,-0.087 1.667,-0.234 2.219,-0.605 4.514,-3.038 9.407,-5.319 14.48,-7.217 8.186,-3.063 16.615,-5.175 25.237,-6.657 13.324,-2.289 26.72,-2.579 40.158,-1.79 3.992,0.235 7.952,0.992 11.927,1.516 1.381,0.183 2.759,0.395 4.142,0.571 0.584,0.074 1.449,-0.472 1.685,-1.035 0.336,-0.803 0.673,-1.607 0.983,-2.42 0.495,-1.304 1.014,-2.601 1.438,-3.928 0.664,-2.077 0.167,-2.827 -1.756,-3.649 -5.649,-2.415 -11.566,-3.813 -17.612,-4.78 -8.668,-1.388 -17.397,-1.466 -26.101,-0.878 -13.99,0.946 -27.636,3.614 -40.585,9.257 -6.113,2.663 -11.822,5.98 -16.98,10.213 -1.211,0.993 -2.34,2.089 -3.458,3.189 -0.92,0.905 -0.977,1.776 -0.403,2.814 C -3.514,-3.387 -1.991,-1.721 0,0"
       style="fill:#d2451e;fill-opacity:1;fill-rule:nonzero;stroke:none"
       transform="matrix(1.3333333,0,0,-1.3333333,677.0604,715.68947)"
       clip-path="url(#clipPath36)" />
    <path
       id="path37"
       d="m 0,0 c 6.967,-1.605 13.547,-1.903 20.164,-0.789 5.061,0.852 9.747,2.615 13.739,5.959 0.532,0.447 1.073,0.886 1.626,1.307 0.452,0.343 1.416,0.268 1.98,-0.081 2.203,-1.358 3.517,-3.358 4.082,-5.833 0.781,-3.416 -1.369,-7.875 -4.37,-9.316 -3.648,-1.752 -7.478,-2.857 -11.454,-3.499 -7.45,-1.204 -14.888,-1.208 -22.396,-0.286 -6.617,0.812 -13.068,2.144 -19.269,4.551 -2.753,1.069 -5.407,2.411 -8.05,3.741 -3.449,1.736 -5.573,4.65 -6.857,8.217 -1.131,3.139 -0.23,5.844 1.98,8.151 1.344,1.404 3.028,2.326 4.925,2.837 0.91,0.245 1.734,0.025 2.238,-0.87 C -18.322,8.147 -12.968,4.7 -6.882,2.211 -4.795,1.357 -2.587,0.797 0,0"
       style="fill:#d2451e;fill-opacity:1;fill-rule:nonzero;stroke:none"
       transform="matrix(1.3333333,0,0,-1.3333333,715.83307,841.39307)"
       clip-path="url(#clipPath38)" />
    <path
       id="path39"
       d="m 0,0 c -9.42,1.333 -18.378,2.633 -27.34,3.9 -1.896,0.268 -3.815,0.375 -5.712,0.635 -0.852,0.117 -1.693,0.385 -2.502,0.686 -0.23,0.085 -0.36,0.518 -0.468,0.816 -0.051,0.138 0.039,0.342 0.1,0.504 2.073,5.543 4.145,11.087 6.235,16.625 0.182,0.483 0.481,0.921 0.666,1.268 0.634,0.638 1.339,0.639 2.023,0.628 3.835,-0.061 7.613,-0.644 11.339,-1.105 0.417,-0.523 0.815,-0.885 1.047,-1.333 2.203,-4.248 5.359,-7.692 8.952,-10.788 C -1.023,7.84 4.012,4.426 9.353,1.449 10.719,0.688 12.087,-0.073 13.419,-0.891 13.647,-1.031 13.7,-1.457 13.92,-1.943 9.342,-1.439 4.905,-0.715 0,0"
       style="fill:#d2451e;fill-opacity:1;fill-rule:nonzero;stroke:none"
       transform="matrix(1.3333333,0,0,-1.3333333,556.02693,1061.9608)"
       clip-path="url(#clipPath40)" />
    <path
       id="path41"
       d="m 0,0 c 1.28,-3.154 1.314,-6.137 1.369,-9.099 0.12,-6.465 0.044,-12.933 -0.927,-19.343 -0.548,-3.618 -0.928,-7.275 -2.041,-10.789 -0.292,-0.922 -0.937,-1.356 -1.984,-1.319 -3.854,0.134 -7.599,1.05 -11.396,1.6 -0.544,0.078 -1.174,1.013 -1.128,1.573 0.029,0.348 0.043,0.699 0.095,1.043 1.22,8.114 2.491,16.22 3.647,24.342 0.54,3.802 0.858,7.635 1.277,11.454 0.176,1.602 0.704,2.055 2.436,1.863 C -5.877,1.019 -3.111,0.637 0,0"
       style="fill:#d2451e;fill-opacity:1;fill-rule:nonzero;stroke:none"
       transform="matrix(1.3333333,0,0,-1.3333333,717.7976,1010.8115)"
       clip-path="url(#clipPath42)" />
    <path
       id="path43"
       d="m 0,0 c 0.328,-0.472 0.417,-0.653 0.389,-0.813 -1.054,-6.003 -2.114,-12.006 -3.186,-18.006 -0.153,-0.858 -0.995,-1.399 -1.954,-1.315 -0.347,0.031 -0.698,0.043 -1.042,0.095 -10.343,1.584 -20.683,3.186 -31.029,4.753 -3.792,0.574 -7.596,1.068 -11.394,1.599 -0.085,0.654 0.412,0.796 0.829,0.882 3.071,0.635 6.151,1.222 9.223,1.853 4.277,0.879 8.474,2.071 12.574,3.558 5.295,1.92 10.207,4.518 14.154,8.669 0.234,0.247 0.567,0.4 1.017,0.709 C -7.064,1.931 -3.695,1.011 0,0"
       style="fill:#d2451e;fill-opacity:1;fill-rule:nonzero;stroke:none"
       transform="matrix(1.3333333,0,0,-1.3333333,854.65013,1082.4565)"
       clip-path="url(#clipPath44)" />
    <path
       id="path45"
       d="M 0,0 C 2.08,-0.944 3.821,-1.741 5.552,-2.56 6.285,-2.907 6.576,-3.702 6.159,-4.25 2.022,-9.678 -1.1,-15.712 -4.295,-21.704 c -1.969,-3.694 -3.571,-7.549 -4.981,-11.483 -0.525,-1.467 -0.831,-3.012 -1.28,-4.509 -0.191,-0.639 -0.49,-1.247 -0.704,-1.781 -0.536,-0.051 -0.905,-0.2 -1.173,-0.094 -3.56,1.403 -7.115,2.82 -10.651,4.283 -1.346,0.557 -1.612,1.191 -1.101,2.419 4.24,10.196 9.737,19.647 16.9,28.075 1.343,1.579 2.971,2.926 4.535,4.302 C -2.104,0.077 -1.278,0.439 0,0"
       style="fill:#d2451e;fill-opacity:1;fill-rule:nonzero;stroke:none"
       transform="matrix(1.3333333,0,0,-1.3333333,639.72253,990.25013)"
       clip-path="url(#clipPath46)" />
    <path
       id="path47"
       d="M 0,0 C 1,1.243 1.754,2.197 2.574,3.09 2.778,3.312 3.241,3.498 3.511,3.426 6.191,2.708 8.853,1.922 11.348,0.684 11.58,0.569 11.83,0.047 11.751,-0.171 11.459,-0.982 11.092,-1.78 10.646,-2.52 8.483,-6.113 6.821,-9.928 5.472,-13.89 c -0.896,-2.633 -1.909,-5.229 -2.715,-7.888 -1.11,-3.656 -2.214,-7.32 -2.568,-11.162 -0.111,-1.201 -0.493,-2.377 -0.763,-3.562 -0.085,-0.372 -0.848,-0.787 -1.258,-0.712 -0.51,0.094 -1.045,0.101 -1.535,0.256 -3.315,1.045 -6.627,2.1 -9.925,3.199 -0.807,0.27 -1.636,0.607 -2.123,1.699 C -11.574,-21.015 -6.481,-10.388 0,0"
       style="fill:#d2451e;fill-opacity:1;fill-rule:nonzero;stroke:none"
       transform="matrix(1.3333333,0,0,-1.3333333,649.35333,1001.1668)"
       clip-path="url(#clipPath48)" />
    <path
       id="path49"
       d="m 0,0 c -0.729,-4.756 -1.4,-9.057 -2.08,-13.357 -0.074,-0.463 -0.71,-0.97 -1.123,-0.891 -3.585,0.687 -7.17,1.372 -10.749,2.09 -0.954,0.191 -1.514,1.031 -1.385,1.896 0.025,0.172 0.018,0.35 0.055,0.519 2.149,9.868 4.249,19.749 7.118,29.44 0.642,2.165 1.462,4.281 2.295,6.382 0.156,0.395 0.773,0.885 1.156,0.867 C -1.94,26.819 0.774,26.27 3.431,25.473 3.675,25.4 3.882,24.963 3.963,24.657 4.046,24.343 4.007,23.969 3.93,23.643 2.129,15.999 1.204,8.208 0,0"
       style="fill:#d2451e;fill-opacity:1;fill-rule:nonzero;stroke:none"
       transform="matrix(1.3333333,0,0,-1.3333333,694.43907,1042.3345)"
       clip-path="url(#clipPath50)" />
    <path
       id="path51"
       d="m 0,0 c -2.848,-7.756 -4.763,-15.351 -6.242,-23.042 -0.621,-3.23 -0.635,-6.576 -0.934,-9.868 -0.062,-0.687 -0.156,-1.371 -0.251,-2.054 -0.065,-0.465 -0.682,-0.889 -1.176,-0.763 -4.043,1.026 -8.088,2.049 -12.12,3.116 -0.971,0.257 -1.339,1.09 -1.028,2.034 2.341,7.104 4.68,14.21 7.032,21.311 1.593,4.809 3.666,9.401 6.352,13.7 0.241,0.386 0.859,0.851 1.226,0.793 C -4.582,4.822 -2.012,4.391 0.351,3.247 0.576,3.138 0.77,2.637 0.724,2.361 0.613,1.688 0.351,1.04 0,0"
       style="fill:#d2451e;fill-opacity:1;fill-rule:nonzero;stroke:none"
       transform="matrix(1.3333333,0,0,-1.3333333,680.9492,1009.3157)"
       clip-path="url(#clipPath52)" />
    <path
       id="path53"
       d="m 0,0 c -1.465,0.165 -2.507,0.259 -3.546,0.39 -1.458,0.184 -1.839,0.699 -1.574,2.024 0.614,3.078 1.258,6.15 1.819,9.238 1.292,7.111 0.979,14.252 0.212,21.381 -0.26,2.419 -0.816,4.808 -1.255,7.207 -0.24,1.306 0.245,1.879 1.688,1.893 0.872,0.008 1.745,-0.019 2.617,-0.033 5.921,-0.095 5.186,0.306 6.424,-5.168 C 6.999,34.219 7.389,31.43 7.592,28.655 8.18,20.634 8.227,12.615 6.776,4.659 6.558,3.461 6.24,2.279 5.926,1.101 5.666,0.122 4.989,-0.424 4.068,-0.372 2.851,-0.302 1.638,-0.163 0,0"
       style="fill:#d2451e;fill-opacity:1;fill-rule:nonzero;stroke:none"
       transform="matrix(1.3333333,0,0,-1.3333333,727.47427,1066.6573)"
       clip-path="url(#clipPath54)" />
    <path
       id="path55"
       d="m 0,0 c 1.009,-1.064 1.477,-1.966 1.613,-3.048 0.866,-6.908 1.749,-13.815 2.617,-20.723 0.092,-0.735 -0.241,-1.359 -0.615,-1.249 -0.308,0.091 -0.693,0.103 -0.909,0.298 -4.659,4.196 -9.298,8.412 -13.941,12.624 -1.806,1.637 -3.616,3.27 -5.419,4.91 -0.554,0.504 -0.691,1.182 -0.725,1.89 -0.009,0.171 0.034,0.346 0.057,0.518 0.83,6.03 1.66,12.059 2.506,18.212 0.641,-0.098 1.234,-0.017 1.573,-0.273 0.828,-0.624 1.557,-1.385 2.292,-2.124 C -7.388,7.455 -3.836,3.864 0,0"
       style="fill:#d2451e;fill-opacity:1;fill-rule:nonzero;stroke:none"
       transform="matrix(1.3333333,0,0,-1.3333333,879.70093,1103.9043)"
       clip-path="url(#clipPath56)" />
    <path
       id="path57"
       d="m 0,0 c -7.399,-2.3 -14.396,-4.494 -21.403,-6.66 -0.457,-0.142 -0.979,-0.093 -1.471,-0.085 -0.082,0.001 -0.239,0.258 -0.224,0.381 0.039,0.34 0.088,0.705 0.245,1.001 2.704,5.091 5.425,10.174 8.143,15.258 0.165,0.308 0.33,0.616 0.5,0.921 0.708,1.264 1.659,2.175 3.118,2.606 2.846,0.841 5.649,1.83 8.487,2.7 3.832,1.176 7.68,2.298 11.634,3.477 C 9.232,18.975 9.586,18.466 9.496,18.054 9.201,16.693 8.757,15.363 8.348,14.028 7.327,10.688 6.279,7.356 5.27,4.013 4.403,1.142 4.257,1.14 1.387,0.461 1.049,0.381 0.728,0.231 0,0"
       style="fill:#d2451e;fill-opacity:1;fill-rule:nonzero;stroke:none"
       transform="matrix(1.3333333,0,0,-1.3333333,497.216,1056.0613)"
       clip-path="url(#clipPath58)" />
    <path
       id="path59"
       d="m 0,0 c -2.842,0.006 -5.284,0.12 -7.723,0.268 -0.79,0.048 -1.331,0.676 -1.231,1.356 0.151,1.036 0.292,2.076 0.489,3.104 1.553,8.139 1.481,16.337 0.785,24.54 -0.311,3.66 -1.174,7.235 -2.288,10.741 -0.208,0.655 -0.438,1.315 -0.53,1.99 -0.035,0.254 0.24,0.742 0.464,0.808 2.032,0.587 4.114,0.587 6.192,0.313 0.299,-0.039 0.646,-0.322 0.815,-0.59 0.274,-0.434 0.45,-0.94 0.614,-1.433 C 0.24,33.1 1.808,24.888 2.442,16.491 2.8,11.753 2.354,7.068 1.567,2.404 1.42,1.534 1.094,0.727 0,0"
       style="fill:#d2451e;fill-opacity:1;fill-rule:nonzero;stroke:none"
       transform="matrix(1.3333333,0,0,-1.3333333,752.40213,1068.0359)"
       clip-path="url(#clipPath60)" />
    <path
       id="path61"
       d="m 0,0 c 2.456,2.248 4.613,4.274 6.86,6.194 0.915,0.781 2.005,1.369 3.057,1.973 0.622,0.357 1.382,0.407 2.008,0.062 0.9,-0.495 1.748,-1.097 2.559,-1.731 C 14.665,6.357 14.742,5.809 14.615,5.599 14.263,5.014 13.82,4.469 13.341,3.977 6.103,-3.449 0.503,-12.013 -4.09,-21.258 c -1.079,-2.172 -1.832,-4.506 -2.74,-6.764 -0.376,-0.936 -1.169,-1.273 -2.08,-0.806 -2.785,1.426 -5.562,2.869 -8.323,4.342 -0.852,0.454 -1.084,1.428 -0.566,2.214 3.066,4.65 6.285,9.197 9.866,13.463 C -5.475,-5.878 -2.827,-3.107 0,0"
       style="fill:#d2451e;fill-opacity:1;fill-rule:nonzero;stroke:none"
       transform="matrix(1.3333333,0,0,-1.3333333,612.3004,994.95267)"
       clip-path="url(#clipPath62)" />
    <path
       id="path63"
       d="M 0,0 C -0.412,1.029 -0.671,1.677 -0.967,2.307 -2.023,4.553 -1.853,5.2 1.083,5.5 1.94,5.588 2.813,5.595 3.672,5.539 3.963,5.52 4.328,5.253 4.496,4.993 4.869,4.415 5.205,3.794 5.439,3.149 c 2.912,-8.034 5.559,-16.145 6.782,-24.64 0.697,-4.837 1.045,-9.702 0.703,-14.592 -0.048,-0.681 -0.204,-1.369 -0.422,-2.016 -0.092,-0.275 -0.441,-0.588 -0.726,-0.654 -2.403,-0.552 -4.837,-0.367 -7.266,-0.21 -0.543,0.035 -1.242,0.911 -1.196,1.486 0.056,0.695 0.094,1.394 0.21,2.08 1.958,11.608 0.51,22.905 -3.08,34.009 C 0.337,-1.056 0.238,-0.722 0,0"
       style="fill:#d2451e;fill-opacity:1;fill-rule:nonzero;stroke:none"
       transform="matrix(1.3333333,0,0,-1.3333333,754.60053,1016.4092)"
       clip-path="url(#clipPath64)" />
    <path
       id="path65"
       d="M 0,0 C -0.369,-0.332 -0.886,-0.593 -0.661,-1.233 -0.257,-2.381 0.128,-3.537 0.576,-4.668 2.699,-10.03 4.355,-15.533 5.693,-21.139 6.994,-26.587 7.671,-32.12 8,-37.7 8.082,-39.091 8.033,-40.491 7.988,-41.885 7.948,-43.161 7.29,-43.904 6.14,-43.999 4.924,-44.1 3.704,-44.164 2.484,-44.205 c -1.052,-0.036 -1.708,0.574 -1.681,1.494 0.005,0.174 -0.006,0.349 0.007,0.522 0.718,9.873 -0.914,19.466 -3.456,28.95 -0.998,3.723 -2.387,7.287 -4.319,10.631 -0.348,0.604 -0.67,1.224 -0.989,1.844 -0.374,0.726 -0.136,1.485 0.542,1.695 0.999,0.309 1.998,0.626 3.013,0.879 1.116,0.277 2.035,0.021 2.658,-1.062 0.254,-0.44 0.681,-0.781 1.403,-0.973 C 0.036,-0.031 0,0 0,0"
       style="fill:#d2451e;fill-opacity:1;fill-rule:nonzero;stroke:none"
       transform="matrix(1.3333333,0,0,-1.3333333,775.73867,1008.7673)"
       clip-path="url(#clipPath66)" />
    <path
       id="path67"
       d="m 0,0 c 0.045,0.81 0.077,1.639 0.115,2.629 0.34,0.761 1.28,0.904 2.047,1.224 2.126,0.884 2.669,0.696 3.716,-1.341 5.03,-9.783 9.225,-19.881 11.39,-30.727 0.682,-3.42 1.083,-6.876 1.103,-10.366 0.005,-0.859 -0.094,-1.747 -0.328,-2.569 -0.123,-0.429 -0.579,-0.892 -1,-1.082 -1.45,-0.655 -3.002,-0.88 -4.583,-0.626 -0.276,0.044 -0.671,0.376 -0.718,0.63 -0.156,0.843 -0.225,1.711 -0.243,2.571 -0.183,8.754 -1.557,17.318 -4.111,25.689 C 6.116,-9.797 4.477,-5.771 2.258,-2.004 1.822,-1.262 1.243,-0.603 0.341,0.073 -0.049,0.051 -0.014,0.019 0,0"
       style="fill:#d2451e;fill-opacity:1;fill-rule:nonzero;stroke:none"
       transform="matrix(1.3333333,0,0,-1.3333333,775.80467,1008.8349)"
       clip-path="url(#clipPath68)" />
    <path
       id="path69"
       d="m 0,0 c -2.323,7.068 -5.391,13.296 -9.551,18.968 -0.422,0.575 -0.781,1.185 -0.574,1.904 0.193,0.669 1.973,1.613 2.598,1.457 0.169,-0.042 0.378,-0.062 0.488,-0.173 0.49,-0.49 1.015,-0.963 1.411,-1.524 7.416,-10.505 12.763,-21.97 15.861,-34.459 0.629,-2.537 1.089,-5.116 0.905,-7.755 -0.092,-1.315 -0.639,-2.36 -1.975,-2.789 -1.319,-0.423 -2.649,-0.823 -3.995,-1.147 -0.231,-0.055 -0.589,0.291 -0.839,0.507 -0.106,0.091 -0.118,0.328 -0.117,0.498 C 4.279,-16.232 2.669,-8.236 0,0"
       style="fill:#d2451e;fill-opacity:1;fill-rule:nonzero;stroke:none"
       transform="matrix(1.3333333,0,0,-1.3333333,799.21107,1029.1679)"
       clip-path="url(#clipPath70)" />
    <path
       id="path71"
       d="m 0,0 c 4.101,3.812 7.934,7.383 12.399,10.157 1.768,1.098 3.647,2.025 5.519,2.94 0.414,0.203 1.025,0.097 1.525,0.011 0.734,-0.126 1.159,-0.657 1.439,-1.484 C 19.887,10.236 18.267,9.47 16.977,8.333 15.54,7.065 14.084,5.816 12.691,4.501 11.425,3.305 10.204,2.057 9.014,0.784 c -1.309,-1.4 -2.575,-2.84 -3.83,-4.29 -1.14,-1.318 -2.259,-2.656 -3.349,-4.015 -1.09,-1.36 -2.174,-2.728 -3.186,-4.146 -1.113,-1.558 -2.184,-3.151 -3.195,-4.777 -0.909,-1.465 -1.713,-2.995 -2.61,-4.576 -0.622,0.148 -1.168,0.143 -1.547,0.392 -1.866,1.224 -4.054,2.036 -5.388,3.94 C -11.153,-11.928 -7.085,-7.104 0,0"
       style="fill:#d2451e;fill-opacity:1;fill-rule:nonzero;stroke:none"
       transform="matrix(1.3333333,0,0,-1.3333333,593.51107,995.7536)"
       clip-path="url(#clipPath72)" />
    <path
       id="path73"
       d="m 0,0 c 0.158,0.072 0.402,0.132 0.443,0.257 0.983,3.01 2.705,5.595 4.63,8.055 6.651,8.499 14.868,15.121 24.35,20.21 1.84,0.987 3.697,1.958 6.046,2.625 0.255,0.295 0.224,0.31 0.215,0.326 -0.084,-0.296 -0.306,-0.67 -0.205,-0.908 0.269,-0.635 0.627,-1.246 1.038,-1.802 0.757,-1.024 0.57,-1.969 -0.551,-2.522 C 33.937,25.24 31.893,24.24 29.979,23.042 22.09,18.105 15.091,12.13 9.239,4.862 7.929,3.236 6.579,1.626 6.102,-0.734 6.326,-1.074 6.348,-1.045 5.925,-1.043 5.026,-1.722 4.387,-2.385 5.279,-3.192 c 0.011,0.02 0.032,0.061 0.032,0.061 -0.536,0.867 -1.62,0.033 -2.215,0.712 -0.559,0.637 -1.11,1.281 -1.673,1.914 C 1.198,-0.252 0.95,-0.019 0.333,0.133 -0.047,0.042 -0.01,0.018 0,0"
       style="fill:#d2451e;fill-opacity:1;fill-rule:nonzero;stroke:none"
       transform="matrix(1.3333333,0,0,-1.3333333,558.9908,1004.5997)"
       clip-path="url(#clipPath74)" />
    <path
       id="path75"
       d="m 0,0 c 1.08,-3.56 2.026,-6.737 2.947,-9.922 0.258,-0.894 -0.01,-1.727 -0.481,-2.493 -0.835,-1.354 -1.913,-2.478 -3.232,-3.374 -0.396,-0.269 -1.184,-0.026 -1.226,0.43 -0.44,4.893 -1.494,9.653 -3.077,14.3 -2.26,6.632 -5.159,12.98 -8.656,19.045 -1.92,3.33 -4.049,6.53 -6.862,9.216 -0.481,0.459 -0.785,1.105 -1.248,1.776 0.646,0.535 1.117,1.074 1.71,1.362 0.405,0.197 1.055,0.201 1.463,0.009 0.613,-0.288 1.193,-0.751 1.642,-1.266 1.718,-1.971 3.506,-3.9 5.037,-6.012 C -7.345,16.672 -3.887,9.624 -0.908,2.329 -0.644,1.683 -0.398,1.03 0,0"
       style="fill:#d2451e;fill-opacity:1;fill-rule:nonzero;stroke:none"
       transform="matrix(1.3333333,0,0,-1.3333333,821.62933,1035.6065)"
       clip-path="url(#clipPath76)" />
    <path
       id="path77"
       d="m 0,0 c 0.241,-0.178 0.667,-0.543 0.731,-0.488 0.785,0.674 1.582,1.354 2.253,2.137 5.135,5.989 10.792,11.425 17.022,16.267 2.903,2.256 5.951,4.292 9.188,6.031 1.069,0.575 2.216,1.03 3.371,1.408 0.442,0.145 1.063,0.047 1.498,-0.159 0.642,-0.303 0.99,-0.916 0.972,-1.675 C 34.91,23.402 34.803,23.247 34.655,23.166 22.107,16.301 12.331,6.512 4.521,-5.358 4.236,-5.791 3.956,-6.246 3.586,-6.599 3.362,-6.812 2.866,-7.041 2.671,-6.934 c -1.39,0.757 -2.665,1.68 -3.252,3.24 -0.112,0.299 -0.001,0.681 -0.206,1.335 -0.212,0.309 -0.233,0.268 0.196,0.273 0.622,0.232 0.838,0.445 1.002,0.691 C 0.816,-0.79 0.666,-0.309 0.038,0.037 0.038,0.037 0.016,0.007 0,0"
       style="fill:#d2451e;fill-opacity:1;fill-rule:nonzero;stroke:none"
       transform="matrix(1.3333333,0,0,-1.3333333,567.40427,1006.0419)"
       clip-path="url(#clipPath78)" />
    <path
       id="path79"
       d="m 0,0 c 1.565,-3.029 1.459,-5.732 0.057,-8.322 -1.604,-2.963 -4.141,-4.725 -7.57,-4.598 -3.544,0.132 -6.272,1.811 -7.814,5.127 -1.369,2.946 -0.952,5.751 0.82,8.376 1.072,1.587 2.296,2.914 4.321,3.499 2.743,0.792 5.163,0.292 7.409,-1.217 C -1.796,2.206 -1.05,1.196 0,0"
       style="fill:#d2451e;fill-opacity:1;fill-rule:nonzero;stroke:none"
       transform="matrix(1.3333333,0,0,-1.3333333,1036.8497,448.776)"
       clip-path="url(#clipPath80)" />
    <path
       id="path81"
       d="M 0,0 C 0.127,0.269 0.382,0.608 0.594,0.582 1.022,0.531 1.068,0.203 0.544,-0.207 0.324,-0.29 0.109,-0.095 0,0"
       style="fill:#d2451e;fill-opacity:1;fill-rule:nonzero;stroke:none"
       transform="matrix(1.3333333,0,0,-1.3333333,470.59413,393.18227)"
       clip-path="url(#clipPath82)" />
    <path
       id="path83"
       d="M 0,0 C 0.082,0.386 0.399,0.556 0.72,0.566 1.264,0.581 1.386,0.315 1.004,-0.614 0.583,-0.643 0.41,-0.465 0,0"
       style="fill:#d2451e;fill-opacity:1;fill-rule:nonzero;stroke:none"
       transform="matrix(1.3333333,0,0,-1.3333333,1069.1399,241.98907)"
       clip-path="url(#clipPath84)" />
    <path
       id="path85"
       d="M 0,0 C -0.341,-0.245 -0.627,-0.178 -0.749,0.253 -0.781,0.368 -0.62,0.538 -0.547,0.683 -0.415,0.59 -0.282,0.496 -0.107,0.162 -0.064,-0.078 -0.022,-0.026 0,0"
       style="fill:#d2451e;fill-opacity:1;fill-rule:nonzero;stroke:none"
       transform="matrix(1.3333333,0,0,-1.3333333,675.16933,736.07333)"
       clip-path="url(#clipPath86)" />
    <path
       id="path87"
       d="M 0,0 C -0.087,0.078 0.21,0.103 0.21,0.103 0.21,0.103 0.087,-0.078 0,0"
       style="fill:#d2451e;fill-opacity:1;fill-rule:nonzero;stroke:none"
       transform="matrix(1.3333333,0,0,-1.3333333,801.43813,757.90013)"
       clip-path="url(#clipPath88)" />
    <path
       id="path89"
       d="m 0,0 c -1.451,-8.078 -2.898,-16.156 -4.355,-24.233 -0.745,-4.125 -1.552,-8.238 -2.239,-12.373 -0.223,-1.346 -0.726,-2.723 -0.112,-4.267 1.145,-0.864 2.453,-1.738 3.631,-2.762 4.722,-4.105 8.231,-9.013 9.8,-15.163 0.247,-0.969 0.919,-1.456 1.84,-1.597 3.107,-0.473 6.224,-0.881 9.327,-1.375 7.932,-1.261 15.863,-2.524 23.785,-3.845 8.956,-1.494 17.903,-3.037 26.85,-4.585 9.29,-1.607 18.574,-3.246 27.861,-4.872 8.943,-1.566 17.888,-3.115 26.827,-4.705 8.766,-1.561 17.522,-3.176 26.287,-4.743 3.782,-0.677 7.574,-1.297 11.363,-1.935 0.929,-0.157 1.716,0.083 2.248,0.918 0.282,0.442 0.558,0.888 0.832,1.334 4.071,6.627 10.001,10.561 17.555,12.183 1.161,0.25 2.445,0.174 3.612,1.219 0.095,0.476 0.254,1.145 0.359,1.822 1.097,7.075 2.082,14.17 3.299,21.225 2.196,12.734 4.536,25.444 6.787,38.168 0.115,0.651 -0.044,1.351 -0.073,1.978 -0.901,0.534 -1.67,0.947 -2.393,1.427 -5.67,3.766 -9.293,8.875 -10.266,15.714 -0.098,0.691 -0.204,1.382 -0.327,2.069 -0.134,0.754 -0.605,1.26 -1.316,1.464 -0.835,0.24 -1.69,0.428 -2.547,0.566 -5.172,0.83 -10.354,1.601 -15.521,2.464 -11.537,1.926 -23.063,3.923 -34.602,5.836 -11.712,1.942 -23.438,3.793 -35.151,5.73 -9.476,1.566 -18.944,3.181 -28.409,4.811 -11.873,2.043 -23.739,4.126 -35.608,6.186 -2.046,0.355 -4.098,0.681 -6.055,1.005 C 16.974,32.223 15.208,30.411 5.016,26.027 4.852,25.724 4.594,25.438 4.536,25.116 3.08,17.04 1.645,8.96 0,0 m 182.776,-75.981 c -6.894,-1.857 -12.097,-5.587 -16.13,-10.842 -3.474,-4.527 -3.194,-4.071 -8.275,-3.309 -4.832,0.725 -9.637,1.637 -14.45,2.489 -7.219,1.277 -14.434,2.576 -21.652,3.861 -8.421,1.5 -16.846,2.984 -25.265,4.496 -7.044,1.264 -14.085,2.547 -21.122,3.845 -10.471,1.931 -20.941,3.868 -31.406,5.832 -8.063,1.513 -16.127,3.028 -24.173,4.626 -5.132,1.019 -10.233,2.188 -15.345,3.302 -0.151,0.033 -0.273,0.2 -0.598,0.451 -1.108,3.479 -2.811,6.895 -5.025,10.054 -2.121,3.026 -4.397,5.867 -7.874,7.487 -0.867,0.404 -1.124,1.311 -0.987,2.24 0.709,4.837 1.408,9.676 2.173,14.504 1.257,7.932 2.552,15.859 3.851,23.784 1.214,7.408 2.452,14.812 3.687,22.217 0.373,2.238 0.753,4.476 1.165,6.707 0.124,0.677 0.364,1.332 0.492,1.789 1.146,1.264 2.557,1.544 3.799,2.151 2.193,1.073 4.436,2.085 6.494,3.382 2.974,1.875 5.583,4.197 7.406,7.288 0.352,0.596 0.739,1.223 1.261,1.654 0.508,0.419 1.185,0.731 1.833,0.857 0.667,0.13 1.398,0.042 2.084,-0.061 5.351,-0.808 10.699,-1.632 16.045,-2.47 5.347,-0.838 10.693,-1.68 16.034,-2.553 7.407,-1.211 14.81,-2.45 22.214,-3.681 5.166,-0.859 10.329,-1.732 15.496,-2.584 7.234,-1.194 14.471,-2.365 21.704,-3.563 7.749,-1.283 15.496,-2.576 23.241,-3.885 7.4,-1.252 14.794,-2.539 22.194,-3.792 6.885,-1.165 13.774,-2.305 20.66,-3.459 0.516,-0.086 1.041,-0.156 1.539,-0.306 0.884,-0.267 1.552,-0.812 1.74,-1.757 0.136,-0.681 0.174,-1.383 0.254,-2.076 0.523,-4.503 2.608,-8.285 5.456,-11.699 1.357,-1.627 3.004,-2.916 4.888,-3.896 0.774,-0.402 1.592,-0.741 2.301,-1.236 0.747,-0.522 1.17,-1.343 1.062,-2.266 -0.244,-2.08 -0.531,-4.157 -0.874,-6.223 -2.631,-15.845 -4.963,-31.741 -8,-47.518 -0.759,-3.943 -1.5,-7.889 -2.26,-11.832 -0.098,-0.512 -0.195,-1.04 -0.403,-1.512 -0.438,-0.992 -1.1,-1.794 -2.244,-1.999 -0.859,-0.154 -1.727,-0.255 -2.99,-0.497"
       style="fill:#d2451e;fill-opacity:1;fill-rule:nonzero;stroke:none"
       transform="matrix(1.3333333,0,0,-1.3333333,535.81907,1182.3133)"
       clip-path="url(#clipPath90)" />
    <path
       id="path91"
       d="M 0,0 C -1.36,-0.347 -1.586,0.491 -1.64,1.557 -0.356,1.848 0.004,1.114 0,0"
       style="fill:#d2451e;fill-opacity:1;fill-rule:nonzero;stroke:none"
       transform="matrix(1.3333333,0,0,-1.3333333,581.83453,138.61587)"
       clip-path="url(#clipPath92)" />
    <path
       id="path93"
       d="m 0,0 c -0.138,-1.206 -0.297,-2.411 -0.405,-3.62 -0.057,-0.637 0.536,-1.474 1.098,-1.577 2.218,-0.404 4.427,-0.911 6.664,-1.139 1.888,-0.192 3.817,-0.158 5.715,-0.032 2.111,0.141 3.481,1.419 4.234,3.357 0.188,0.482 0.313,0.996 0.401,1.507 0.316,1.838 -0.14,3.428 -1.54,4.721 C 15.263,4.052 14.26,4.684 13.113,5.153 9.704,6.549 6.116,7.157 2.505,7.68 1.921,7.764 1.017,7.137 0.94,6.579 0.682,4.689 0.447,2.796 0,0 m 5.103,-8.559 c -0.174,0.019 -0.347,0.058 -0.52,0.055 -1.744,-0.034 -3.306,1.188 -5.109,0.738 -1.6,-1.479 -0.953,-3.587 -1.445,-5.374 -0.643,-2.342 -0.907,-4.788 -1.324,-7.191 -0.178,-1.024 0.26,-1.71 1.263,-1.866 3.099,-0.482 6.201,-0.942 9.306,-1.387 1.567,-0.225 3.127,-0.123 4.679,0.201 1.442,0.301 2.542,1.094 3.39,2.266 2.1,2.898 1.535,6.741 -1.359,8.787 -0.987,0.698 -2.075,1.285 -3.182,1.774 -1.59,0.701 -3.241,1.265 -5.699,1.997 m -15.491,-14.543 c -0.855,0.266 -1.373,0.408 -1.782,0.702 -0.198,0.143 -0.324,0.619 -0.239,0.857 0.096,0.266 0.438,0.511 0.727,0.621 0.311,0.118 0.689,0.111 1.031,0.082 0.695,-0.06 1.384,-0.191 2.079,-0.259 2.49,-0.245 2.583,-0.144 3.026,2.329 1.323,7.39 2.67,14.775 4.004,22.162 0.248,1.373 0.479,2.749 0.703,4.041 -0.53,0.896 -1.327,1.238 -2.164,1.513 -1.154,0.38 -2.324,0.714 -3.46,1.141 -0.253,0.096 -0.453,0.471 -0.569,0.76 -0.124,0.309 0.137,0.543 0.596,0.547 0.87,0.007 1.765,0.109 2.607,-0.05 5.66,-1.068 11.317,-2.156 16.958,-3.317 2.915,-0.6 4.914,-2.539 6.518,-4.92 0.596,-0.884 0.851,-1.906 0.892,-2.976 0.114,-2.968 -0.915,-5.482 -3.075,-7.504 -0.632,-0.591 -1.399,-1.038 -2.099,-1.548 -0.193,-0.795 0.382,-1.222 0.808,-1.73 0.559,-0.668 1.156,-1.315 1.626,-2.043 1.998,-3.091 1.953,-6.255 0.149,-9.4 -1.492,-2.603 -3.723,-4.165 -6.775,-4.255 -1.74,-0.051 -3.516,-0.052 -5.223,0.237 -5.333,0.903 -10.64,1.955 -16.338,3.01"
       style="fill:#d2451e;fill-opacity:1;fill-rule:nonzero;stroke:none"
       transform="matrix(1.3333333,0,0,-1.3333333,593.14493,1190.4513)"
       clip-path="url(#clipPath94)" />
    <path
       id="path95"
       d="m 0,0 c 0.062,-0.493 0.318,-1.064 0.155,-1.466 -0.852,-2.101 -1.86,-4.128 -3.625,-5.893 -0.771,0 -1.651,-0.113 -2.493,0.018 -7.755,1.202 -15.476,2.596 -23.095,4.497 -0.282,0.07 -0.407,0.769 -0.623,1.212 0.342,0.076 0.511,0.117 0.682,0.151 1.66,0.331 3.535,-1.128 4.986,0.334 1.314,1.323 0.964,3.283 1.279,4.971 1.502,8.057 2.856,16.142 4.775,24.117 0.159,0.657 -0.273,1.334 -1.019,1.574 -1.322,0.428 -2.656,0.817 -3.983,1.231 -0.416,0.13 -0.568,0.428 -0.417,0.833 0.043,0.117 0.202,0.284 0.296,0.277 8.007,-0.629 15.865,-2.217 23.735,-3.724 C 1.577,27.955 2.22,27.204 2.224,26.294 2.23,24.727 2.174,23.16 2.123,21.593 2.118,21.443 2.001,21.233 1.874,21.165 1.597,21.017 1.287,20.907 0.977,20.855 0.853,20.835 0.64,20.973 0.566,21.098 c -0.169,0.283 -0.415,0.615 -0.387,0.904 0.374,3.828 -0.671,3.845 -3.546,4.348 -3.091,0.541 -6.148,1.269 -9.224,1.89 -0.682,0.138 -1.384,0.174 -2.078,0.245 -0.66,0.067 -1.462,-0.465 -1.616,-1.048 -0.043,-0.166 -0.141,-0.322 -0.164,-0.489 -0.446,-3.283 -0.888,-6.567 -1.318,-9.853 -0.044,-0.341 -0.005,-0.694 -0.009,-1.041 -0.008,-0.648 0.562,-1.275 1.301,-1.378 2.937,-0.41 5.889,-0.733 8.809,-1.236 1.982,-0.342 3.407,0.033 4.006,2.141 0.037,0.129 0.23,0.246 0.376,0.304 0.156,0.062 0.442,0.125 0.499,0.052 0.195,-0.249 0.448,-0.559 0.442,-0.842 C -2.397,12.298 -2.936,9.571 -3.685,6.887 -3.759,6.623 -4.159,6.415 -4.448,6.254 -4.798,6.059 -5.412,6.565 -5.461,7.091 -5.51,7.609 -5.485,8.133 -5.539,8.65 c -0.036,0.335 -0.14,0.666 -0.246,0.988 -0.052,0.157 -0.177,0.291 -0.41,0.658 -3.42,0.621 -7.016,1.284 -10.616,1.918 -0.85,0.15 -1.7,-0.508 -1.863,-1.412 -0.738,-4.115 -1.458,-8.232 -2.21,-12.499 0.705,-0.333 1.284,-0.776 1.919,-0.879 4.475,-0.731 8.958,-1.409 13.444,-2.062 0.921,-0.134 1.673,0.302 2.255,1.04 0.864,1.095 1.753,2.17 2.968,3.397 C 0.039,-0.058 0,0 0,0"
       style="fill:#d2451e;fill-opacity:1;fill-rule:nonzero;stroke:none"
       transform="matrix(1.3333333,0,0,-1.3333333,663.85933,1225.4903)"
       clip-path="url(#clipPath96)" />
    <path
       id="path97"
       d="m 0,0 c 3.058,-3.439 6.496,-5.854 9.719,-8.522 1.337,-1.108 2.639,-2.28 3.819,-3.55 1.083,-1.165 1.714,-2.613 1.9,-4.229 0.396,-3.439 -0.827,-6.175 -3.634,-8.154 -2.075,-1.463 -4.446,-2.037 -6.956,-1.718 -3.174,0.404 -6.085,1.507 -8.525,3.663 -0.645,0.57 -1.227,1.281 -2.266,1.024 -0.311,-0.747 -0.594,-1.559 -0.999,-2.305 -0.107,-0.198 -0.622,-0.314 -0.892,-0.243 -0.255,0.066 -0.458,0.409 -0.633,0.666 -0.088,0.128 -0.088,0.335 -0.085,0.505 0.069,3.334 0.87,6.544 1.71,9.742 0.067,0.253 0.503,0.408 0.767,0.608 0.158,-0.234 0.387,-0.45 0.454,-0.708 0.086,-0.33 0.111,-0.708 0.04,-1.039 -0.514,-2.407 0.803,-3.95 2.422,-5.418 1.711,-1.552 3.619,-2.748 5.826,-3.396 2.614,-0.768 5.18,-0.664 7.559,0.834 1.589,1 2.417,2.452 2.509,4.337 0.109,2.236 -0.627,4.124 -2.35,5.554 -2.147,1.782 -4.377,3.465 -6.511,5.261 -1.733,1.458 -3.447,2.951 -5.043,4.554 -1.825,1.832 -2.486,4.122 -2.266,6.711 0.209,2.461 1.372,4.304 3.441,5.546 2.877,1.728 5.974,1.964 9.054,0.732 2.084,-0.834 4.027,-2.018 6.164,-3.113 0.549,0.288 1.264,0.664 1.979,1.04 0.476,-0.845 0.386,-1.729 0.27,-2.584 -0.326,-2.403 -0.485,-4.845 -1.389,-7.13 -0.087,-0.218 -0.587,-0.4 -0.874,-0.373 -0.255,0.023 -0.695,0.367 -0.688,0.555 0.065,1.558 0.301,3.114 0.294,4.67 C 14.814,4.144 14.5,4.961 14.041,5.357 12.033,7.086 9.709,8.29 7.104,8.85 5.162,9.267 3.303,9.003 1.553,7.974 -0.586,6.718 -1.524,4.81 -1.048,2.227 -0.926,1.565 -0.504,0.958 0,0"
       style="fill:#d2451e;fill-opacity:1;fill-rule:nonzero;stroke:none"
       transform="matrix(1.3333333,0,0,-1.3333333,680.91813,1206.8423)"
       clip-path="url(#clipPath98)" />
    <path
       id="path99"
       d="m 0,0 c 0.226,-2.437 0.156,-4.517 -0.474,-6.525 -0.062,-0.197 -0.585,-0.381 -0.86,-0.34 -0.252,0.038 -0.65,0.386 -0.65,0.598 -0.002,0.863 0.082,1.733 0.213,2.587 0.266,1.732 0.127,2.188 -1.552,2.707 -0.664,0.205 -1.352,0.348 -2.039,0.458 -2.574,0.409 -5.151,0.793 -7.629,1.171 -0.342,-0.414 -0.693,-0.649 -0.758,-0.947 -0.768,-3.504 -4.44,-26.764 -4.591,-28.861 0.713,-0.902 1.81,-0.959 2.796,-1.255 0.99,-0.298 2.001,-0.537 2.966,-0.9 0.248,-0.093 0.495,-0.554 0.491,-0.843 -0.003,-0.278 -0.28,-0.619 -0.53,-0.811 -0.259,-0.199 -0.637,-0.37 -0.95,-0.351 -3.139,0.192 -6.228,0.717 -9.289,1.438 -1.685,0.398 -3.391,0.709 -4.961,1.567 0.269,0.344 0.436,0.613 0.66,0.82 0.113,0.103 0.331,0.134 0.499,0.128 6.199,-0.246 5.09,-0.349 6.142,5.03 1.539,7.872 3.073,15.745 4.596,23.619 0.064,0.331 0.073,0.709 -0.025,1.024 -0.094,0.304 -0.309,0.73 -0.558,0.801 -3.18,0.91 -6.415,1.569 -9.719,1.814 -0.549,0.041 -0.949,-0.347 -1.116,-0.889 -0.357,-1.16 -0.684,-2.331 -1.053,-3.488 -0.132,-0.413 -0.465,-0.573 -0.808,-0.389 -0.281,0.151 -0.728,0.418 -0.72,0.618 0.09,2.121 0.676,4.09 1.938,5.798 1.789,0.571 3.527,0.201 5.234,-0.06 C -16.369,3.54 -9.998,2.518 -3.636,1.443 -2.454,1.243 -1.327,0.722 0,0"
       style="fill:#d2451e;fill-opacity:1;fill-rule:nonzero;stroke:none"
       transform="matrix(1.3333333,0,0,-1.3333333,752.12693,1204.0968)"
       clip-path="url(#clipPath100)" />
    <path
       id="path101"
       d="M 0,0 C 0.153,0.189 0.371,0.605 0.404,0.591 0.974,0.346 0.624,0.064 0.171,-0.062 -0.061,0.085 -0.022,0.027 0,0"
       style="fill:#d2451e;fill-opacity:1;fill-rule:nonzero;stroke:none"
       transform="matrix(1.3333333,0,0,-1.3333333,663.94013,1225.6032)"
       clip-path="url(#clipPath102)" />
  </g>
</svg>
