<?xml version="1.0" encoding="UTF-8" standalone="no"?>
<!-- Created with Inkscape (http://www.inkscape.org/) -->

<svg
   version="1.1"
   id="svg1"
   width="3052.2"
   height="1979.9067"
   viewBox="0 0 3052.2 1979.9067"
   xmlns="http://www.w3.org/2000/svg"
   xmlns:svg="http://www.w3.org/2000/svg">
  <defs
     id="defs1">
    <clipPath
       clipPathUnits="userSpaceOnUse"
       id="clipPath2">
      <path
         d="M 0,1484.927 H 2289.15 V 0 H 0 Z"
         transform="translate(-1899.5247,-935.28362)"
         id="path2" />
    </clipPath>
    <clipPath
       clipPathUnits="userSpaceOnUse"
       id="clipPath4">
      <path
         d="M 0,1484.927 H 2289.15 V 0 H 0 Z"
         transform="translate(-1330.9902,-953.21962)"
         id="path4" />
    </clipPath>
    <clipPath
       clipPathUnits="userSpaceOnUse"
       id="clipPath6">
      <path
         d="M 0,1484.927 H 2289.15 V 0 H 0 Z"
         transform="translate(-1508.9685,-942.74182)"
         id="path6" />
    </clipPath>
    <clipPath
       clipPathUnits="userSpaceOnUse"
       id="clipPath8">
      <path
         d="M 0,1484.927 H 2289.15 V 0 H 0 Z"
         transform="translate(-553.31021,-1005.3507)"
         id="path8" />
    </clipPath>
    <clipPath
       clipPathUnits="userSpaceOnUse"
       id="clipPath10">
      <path
         d="M 0,1484.927 H 2289.15 V 0 H 0 Z"
         transform="translate(-799.69352,-453.83264)"
         id="path10" />
    </clipPath>
    <clipPath
       clipPathUnits="userSpaceOnUse"
       id="clipPath12">
      <path
         d="M 0,1484.927 H 2289.15 V 0 H 0 Z"
         transform="translate(-830.8477,-390.91521)"
         id="path12" />
    </clipPath>
    <clipPath
       clipPathUnits="userSpaceOnUse"
       id="clipPath14">
      <path
         d="M 0,1484.927 H 2289.15 V 0 H 0 Z"
         transform="translate(0,2.5000001e-5)"
         id="path14" />
    </clipPath>
    <clipPath
       clipPathUnits="userSpaceOnUse"
       id="clipPath16">
      <path
         d="M 0,1484.927 H 2289.15 V 0 H 0 Z"
         transform="translate(-916.59985,-433.55361)"
         id="path16" />
    </clipPath>
    <clipPath
       clipPathUnits="userSpaceOnUse"
       id="clipPath18">
      <path
         d="M 0,1484.927 H 2289.15 V 0 H 0 Z"
         transform="translate(-918.754,-412.76924)"
         id="path18" />
    </clipPath>
    <clipPath
       clipPathUnits="userSpaceOnUse"
       id="clipPath20">
      <path
         d="M 0,1484.927 H 2289.15 V 0 H 0 Z"
         transform="translate(-1005.6798,-416.29019)"
         id="path20" />
    </clipPath>
    <clipPath
       clipPathUnits="userSpaceOnUse"
       id="clipPath22">
      <path
         d="M 0,1484.927 H 2289.15 V 0 H 0 Z"
         transform="translate(-1057.0686,-405.54899)"
         id="path22" />
    </clipPath>
    <clipPath
       clipPathUnits="userSpaceOnUse"
       id="clipPath24">
      <path
         d="M 0,1484.927 H 2289.15 V 0 H 0 Z"
         transform="translate(-1120.6399,-416.90781)"
         id="path24" />
    </clipPath>
    <clipPath
       clipPathUnits="userSpaceOnUse"
       id="clipPath26">
      <path
         d="M 0,1484.927 H 2289.15 V 0 H 0 Z"
         transform="translate(-1184.1666,-416.90759)"
         id="path26" />
    </clipPath>
    <clipPath
       clipPathUnits="userSpaceOnUse"
       id="clipPath28">
      <path
         d="M 0,1484.927 H 2289.15 V 0 H 0 Z"
         transform="translate(-1242.3468,-427.70084)"
         id="path28" />
    </clipPath>
    <clipPath
       clipPathUnits="userSpaceOnUse"
       id="clipPath30">
      <path
         d="M 0,1484.927 H 2289.15 V 0 H 0 Z"
         transform="translate(-1335.3025,-418.68231)"
         id="path30" />
    </clipPath>
    <clipPath
       clipPathUnits="userSpaceOnUse"
       id="clipPath32">
      <path
         d="M 0,1484.927 H 2289.15 V 0 H 0 Z"
         transform="translate(-1356.8148,-412.48694)"
         id="path32" />
    </clipPath>
    <clipPath
       clipPathUnits="userSpaceOnUse"
       id="clipPath34">
      <path
         d="M 0,1484.927 H 2289.15 V 0 H 0 Z"
         transform="translate(-1392.7527,-397.86801)"
         id="path34" />
    </clipPath>
    <clipPath
       clipPathUnits="userSpaceOnUse"
       id="clipPath36">
      <path
         d="M 0,1484.927 H 2289.15 V 0 H 0 Z"
         transform="translate(-1456.5765,-396.24868)"
         id="path36" />
    </clipPath>
    <clipPath
       clipPathUnits="userSpaceOnUse"
       id="clipPath38">
      <path
         d="M 0,1484.927 H 2289.15 V 0 H 0 Z"
         transform="translate(0,2.5000001e-5)"
         id="path38" />
    </clipPath>
    <clipPath
       clipPathUnits="userSpaceOnUse"
       id="clipPath40">
      <path
         d="M 0,1484.927 H 2289.15 V 0 H 0 Z"
         transform="translate(-1537.1484,-397.49668)"
         id="path40" />
    </clipPath>
    <clipPath
       clipPathUnits="userSpaceOnUse"
       id="clipPath42">
      <path
         d="M 0,1484.927 H 2289.15 V 0 H 0 Z"
         transform="translate(-1577.7171,-453.83264)"
         id="path42" />
    </clipPath>
    <clipPath
       clipPathUnits="userSpaceOnUse"
       id="clipPath44">
      <path
         d="M 0,1484.927 H 2289.15 V 0 H 0 Z"
         transform="translate(-1598.8134,-453.83264)"
         id="path44" />
    </clipPath>
    <clipPath
       clipPathUnits="userSpaceOnUse"
       id="clipPath46">
      <path
         d="M 0,1484.927 H 2289.15 V 0 H 0 Z"
         transform="translate(-715.67622,-402.14691)"
         id="path46" />
    </clipPath>
    <clipPath
       clipPathUnits="userSpaceOnUse"
       id="clipPath48">
      <path
         d="M 0,1484.927 H 2289.15 V 0 H 0 Z"
         transform="translate(-735.67652,-423.89691)"
         id="path48" />
    </clipPath>
  </defs>
  <g
     id="layer-MC1">
    <path
       id="path1"
       d="m 0,0 c -12.489,-34.924 -32.81,-64.607 -60.227,-89.462 -25.573,-23.185 -54.867,-39.866 -88.037,-49.615 -15.372,-4.518 -31.058,-7.204 -47.066,-8.124 -26.894,-1.547 -52.977,2.251 -78.156,11.819 -6.155,2.339 -12.057,5.344 -18.066,8.061 -0.608,0.275 -1.157,0.681 -1.531,0.905 -0.173,0.378 -0.271,0.496 -0.269,0.613 0.003,0.127 0.087,0.259 0.154,0.378 14.472,25.627 28.945,51.253 43.427,76.874 0.13,0.228 0.373,0.397 0.578,0.576 0.1,0.087 0.235,0.134 0.294,0.166 2.675,-1.739 5.265,-3.556 7.981,-5.163 7.58,-4.483 15.816,-7.059 24.57,-7.801 9.836,-0.833 19.31,0.84 27.867,5.802 13.595,7.884 20.239,19.829 19.317,35.644 -0.383,6.58 -2.751,12.575 -6.326,18.105 -3.175,4.911 -7.297,8.945 -11.689,12.727 -3.04,2.618 -5.838,5.453 -8.131,8.748 -3.265,4.692 -5.568,9.765 -6.23,15.527 -0.774,6.74 0.857,12.813 4.77,18.308 0.715,1.003 1.487,1.966 2.233,2.947 0.035,0.135 0.049,0.247 0.052,0.342 -0.195,0.078 -0.372,0.188 -0.533,0.32 -1.008,-0.198 -1.93,-0.467 -2.722,-0.947 -4.139,-2.507 -7.811,-5.624 -11.313,-8.941 -8.423,-7.978 -15.752,-16.91 -22.674,-26.183 -11.699,-15.673 -21.93,-32.29 -31.856,-49.127 -13.482,-22.87 -27.431,-45.457 -43.629,-66.555 -8.551,-11.138 -17.289,-22.141 -27.248,-32.064 -17.42,-17.358 -37.911,-29.484 -61.94,-35.26 -13.966,-3.358 -28.037,-3.996 -42.099,-0.558 -26.397,6.454 -43.618,22.81 -51.946,48.575 -2.036,6.299 -3.185,12.798 -3.493,19.43 -0.115,2.473 -0.273,4.943 -0.411,7.415 -0.276,0.685 -0.435,0.681 -0.594,0.676 -9.475,-26.845 -27.515,-46.236 -51.084,-60.951 -12.365,-7.72 -25.763,-12.976 -40.173,-15.485 -12.13,-2.112 -24.115,-1.928 -35.799,2.455 -12.183,4.57 -22.031,12.302 -30.078,22.41 -8.527,10.713 -14.13,22.886 -17.707,36.032 -4.537,16.677 -5.375,33.616 -3.556,50.748 0.699,6.578 1.845,13.067 3.374,19.497 0.215,0.903 0.247,1.851 0.38,2.9 -1.455,-0.215 -1.465,-1.314 -1.767,-2.086 -4.451,-11.394 -8.878,-22.796 -13.29,-34.205 -12.441,-32.175 -24.872,-64.354 -37.312,-96.53 -0.341,-0.88 -0.736,-1.74 -1.193,-2.813 -24.578,-0.302 -49.061,-0.36 -73.884,-0.505 0.876,3.868 2.673,7.113 3.81,10.577 1.201,3.655 2.514,7.273 3.805,10.898 1.245,3.495 2.542,6.973 3.785,10.469 1.243,3.496 2.449,7.005 3.671,10.509 0.047,0.57 -0.164,0.538 -0.376,0.505 -8.021,-10.912 -17.077,-20.233 -28.081,-27.616 -9.707,-6.513 -20.211,-11.126 -31.766,-13.208 -8.514,-1.533 -17.012,-1.545 -25.372,0.774 -16.483,4.574 -26.936,15.335 -31.866,31.601 -0.437,1.445 -0.765,2.923 -1.145,4.387 -1.385,0.322 -1.552,-0.891 -1.938,-1.646 -3.032,-5.933 -6.918,-11.237 -11.598,-15.969 -10.333,-10.446 -22.789,-17.188 -36.94,-20.792 -16.287,-4.149 -32.454,-3.703 -48.312,2.126 -10.53,3.872 -19.61,9.913 -26.778,18.65 -6.553,7.988 -10.314,17.138 -11.382,27.404 -0.071,0.681 -0.093,1.38 -0.281,2.029 -0.099,0.337 -0.477,0.758 -0.793,0.822 -0.328,0.066 -0.892,-0.151 -1.072,-0.427 -0.445,-0.682 -0.751,-1.458 -1.074,-2.214 -4.199,-9.829 -9.943,-18.659 -17.043,-26.645 -8.448,-9.502 -18.859,-15.915 -30.856,-19.87 -17.857,-5.888 -35.88,-6.683 -54.018,-1.435 -7.323,2.12 -14.327,5.131 -19.962,10.395 -9.634,9 -16.618,19.752 -20.219,32.546 -3.082,10.952 -4.364,22.082 -3.708,33.473 0.932,16.199 4.26,31.91 9.905,47.055 5.854,15.71 12.261,31.214 18.46,46.794 19.822,49.819 39.66,99.631 59.494,149.446 0.454,1.141 0.93,2.273 1.322,3.228 0.298,0.215 0.405,0.305 0.523,0.374 0.115,0.066 0.243,0.158 0.365,0.159 27.538,0.095 55.076,0.185 82.614,0.268 0.817,0.002 1.634,-0.074 2.75,-0.128 -0.41,-1.304 -0.727,-2.469 -1.138,-3.601 -15.677,-43.149 -31.41,-86.278 -47.024,-129.449 -6.685,-18.483 -13.055,-37.079 -19.711,-55.572 -2.657,-7.38 -5.048,-14.807 -6.806,-22.46 -2.513,-10.938 3.583,-17.658 10.657,-20.777 11.483,-5.061 25.741,-1.323 33.467,7.018 2.181,2.356 3.671,5.109 4.81,8.104 8.011,21.068 16.071,42.118 24.089,63.184 9.925,26.076 19.824,52.161 29.736,78.242 0.342,0.898 0.713,1.784 1.043,2.609 0.208,0.105 0.326,0.172 0.451,0.225 0.125,0.054 0.252,0.11 0.384,0.137 0.134,0.027 0.275,0.032 0.412,0.024 27.093,-1.471 54.225,-0.532 81.661,-1.21 -0.284,-1.188 -0.445,-2.239 -0.786,-3.228 -6.893,-20.011 -13.81,-40.015 -20.716,-60.022 -6.099,-17.667 -12.194,-35.336 -18.284,-53.007 -1.436,-4.169 -2.431,-8.427 -3.051,-12.81 -1.107,-7.831 3.304,-17.093 14.583,-18.47 2.407,-0.294 4.993,-0.13 7.36,0.416 9.337,2.155 16.128,7.616 19.613,16.608 2.979,7.685 5.579,15.519 8.242,23.323 11.671,34.208 23.303,68.43 34.957,102.645 0.441,1.294 0.964,2.56 1.391,3.689 0.292,0.172 0.403,0.247 0.522,0.305 0.124,0.06 0.256,0.147 0.384,0.147 26.988,0.011 53.976,0.016 80.964,0.012 0.402,0 0.806,-0.097 1.205,-0.17 0.13,-0.024 0.248,-0.116 0.606,-0.291 -0.373,-1.25 -0.702,-2.561 -1.154,-3.828 -9.182,-25.762 -18.391,-51.513 -27.568,-77.277 -7.148,-20.067 -14.27,-40.144 -21.378,-60.225 -1.971,-5.57 -3.916,-11.149 -5.011,-16.983 -0.868,-4.621 -1.399,-9.211 -0.444,-13.917 2.53,-12.466 13.074,-19.266 25,-17.13 9.636,1.726 17.272,6.919 23.642,14.106 4.138,4.669 7.219,9.989 9.521,15.823 3.177,8.054 6.637,15.996 9.966,23.99 28.441,68.29 55.889,136.979 83.087,205.771 0.553,1.398 1.116,2.793 1.769,4.426 26.631,0.094 53.179,0.188 79.701,0.282 0.924,-1.407 -0.132,-2.449 -0.57,-3.492 -7.777,-18.502 -15.643,-36.967 -23.407,-55.475 -8.135,-19.395 -16.191,-38.824 -24.262,-58.246 -1.16,-2.792 -2.227,-5.623 -3.299,-8.45 -0.128,-0.336 -0.018,-0.763 -0.018,-1.57 0.823,0.712 1.473,1.135 1.944,1.706 3.501,4.248 6.836,8.64 10.467,12.772 12.719,14.474 27.199,26.879 43.835,36.68 8.919,5.254 18.207,9.732 28.277,12.313 13.228,3.391 26.423,3.241 39.459,-1.037 2.339,-0.767 4.643,-1.764 6.797,-2.956 4.454,-2.466 8.765,-6.074 11.895,-10.768 l 2.525,-4.653 c 2.278,-5.306 3.086,-11.66 1.404,-19.014 -1.267,-5.54 -3.393,-10.737 -5.934,-15.782 -3.606,-7.158 -8.028,-13.795 -13.158,-19.94 -17.594,-21.074 -39.264,-36.354 -65.169,-45.546 -2.976,-1.055 -6.022,-1.93 -9.072,-2.755 -2.914,-0.788 -5.876,-1.401 -9.014,-2.137 -0.322,-0.82 -0.768,-1.663 -0.989,-2.562 -4.663,-18.968 4.307,-39.882 26.581,-46.548 9.484,-2.838 19.022,-2.39 28.498,0.343 7.608,2.194 14.622,5.621 21.12,10.103 8.212,5.664 15.446,12.394 21.674,20.197 2.772,3.472 4.763,7.305 6.286,11.511 9.454,26.101 21.251,51.073 37.717,73.534 15.128,20.636 34.069,36.986 57.318,48.043 9.363,4.452 19.166,7.62 29.422,9.26 10.738,1.717 21.38,1.648 31.817,-1.924 16.415,-5.618 26.574,-17.044 31.202,-33.572 0.474,-1.693 0.578,-3.532 0.594,-5.305 0.12,-13.816 -4.078,-26.298 -12.185,-37.391 -10.033,-13.731 -23.564,-22.477 -39.856,-27.086 -11.027,-3.119 -22.222,-3.629 -33.546,-2.163 -0.795,0.103 -1.601,0.116 -2.563,0.182 -0.399,-0.824 -0.856,-1.515 -1.081,-2.275 -2.419,-8.153 -2.47,-16.314 0.416,-24.341 4.298,-11.957 13.07,-18.703 25.365,-21.066 9.66,-1.856 18.924,-0.187 27.801,3.711 8.408,3.692 15.796,8.829 21.912,15.806 10.617,12.114 20.87,24.514 30.555,37.389 5.706,7.586 11.601,15.031 17.423,22.53 3.291,4.238 6.578,8.479 9.92,12.676 1.711,2.15 3.44,4.301 5.329,6.292 9.1,9.591 18.364,19.016 28.648,27.371 7.484,6.08 15.148,11.91 23.425,16.89 12.564,7.56 25.838,13.479 40.073,17.123 9.661,2.473 19.466,3.709 29.452,2.957 8.056,-0.606 15.734,-2.568 22.761,-6.69 0.8,-0.469 1.508,-1.094 2.37,-1.729 -0.948,-1.256 -1.777,-2.327 -2.577,-3.421 -4.438,-6.076 -7.69,-12.666 -8.94,-20.17 -1.653,-9.92 0.781,-18.816 6.619,-26.862 1.208,-1.665 2.556,-3.257 4.012,-4.71 C -105.248,30.17 -98.222,17.668 -93.097,4 c 3.061,-8.163 4.846,-16.623 5.533,-25.307 0.481,-6.079 0.02,-12.1 -1.403,-18.035 -0.87,-3.63 -2.19,-7.085 -4.155,-10.281 -0.419,-0.681 -0.759,-1.412 -1.368,-2.556 1.455,0.186 2.559,0.129 3.508,0.483 3.472,1.299 7.018,2.488 10.31,4.162 11.89,6.046 22.501,13.93 31.421,23.819 10.677,11.836 17.999,25.596 21.771,41.156 0.38,1.568 0.664,3.16 0.969,4.626 0.312,0.122 0.435,0.206 0.561,0.211 0.131,0.005 0.293,-0.029 0.393,-0.108 C -17.44,15.798 -9.326,9.421 -1.218,3.038 -0.69,2.622 -0.206,2.15 0.372,1.639 0.239,1.038 0.178,0.498 0,0 m -286.024,-249.29 c -1.174,-1.629 -2.551,-2.744 -3.821,-3.932 -25.718,-24.045 -54.41,-43.777 -86.006,-59.311 -29.395,-14.453 -60.142,-24.96 -92.134,-31.923 -13.994,-3.046 -28.097,-5.429 -42.306,-7.134 -11.478,-1.377 -22.998,-2.334 -34.56,-2.854 -11.563,-0.52 -23.121,-0.78 -34.686,-0.416 -14.036,0.442 -28.039,1.354 -42.012,2.837 -32.649,3.464 -64.686,9.933 -96.152,19.246 -5.263,1.558 -10.442,3.429 -15.59,5.343 -26.729,9.941 -54.096,17.639 -81.972,23.601 -14.668,3.137 -29.413,5.864 -44.258,7.958 -12.396,1.747 -24.844,3.157 -37.293,4.484 -23.43,2.497 -46.95,3.454 -70.503,3.571 -17.077,0.085 -34.146,-0.337 -51.19,-1.426 -14.424,-0.921 -28.821,-2.224 -43.158,-4.062 -35.546,-4.559 -70.532,-11.707 -104.614,-22.955 -13.459,-4.442 -26.673,-9.506 -39.519,-15.508 -0.985,-0.46 -2.012,-0.831 -3.276,-1.349 -10.481,31.142 -21.103,62.049 -30.979,93.488 0.966,0.553 1.842,1.161 2.8,1.587 13.58,6.049 27.457,11.322 41.598,15.909 21.743,7.053 43.868,12.643 66.224,17.351 14.95,3.149 29.979,5.881 45.111,7.966 10.631,1.465 21.314,2.578 31.99,3.692 14.256,1.487 28.568,1.854 42.894,2.011 8.254,0.09 16.504,0.554 24.756,0.84 1.376,0.047 2.754,0.078 4.13,0.059 16.935,-0.236 33.867,-0.566 50.757,-1.964 10.974,-0.908 21.948,-1.816 32.915,-2.804 4.247,-0.382 8.473,-0.983 12.709,-1.484 37.103,-4.55 73.06,-11.158 108.457,-20.687 13.546,-3.646 26.928,-7.844 40.141,-12.548 5.823,-2.074 11.465,-4.65 17.239,-6.868 19.957,-7.663 40.501,-13.214 61.526,-17.048 21.185,-3.863 42.541,-5.73 64.068,-5.786 11.57,-0.03 23.13,0.099 34.674,1.005 50.602,3.972 98.498,17.143 142.965,41.981 13.735,7.673 26.685,16.506 38.685,26.681 4.509,3.824 8.731,7.986 13.082,11.996 0.7,0.645 1.389,1.301 2.286,2.143 25.003,-24.559 49.927,-49.04 75.022,-73.69 m -914.693,225.285 c -13.09,-12.163 -27.83,-22.006 -43.606,-30.308 -12.2,-6.42 -24.89,-11.691 -38.231,-15.27 -4.246,-1.139 -8.573,-1.979 -12.86,-2.969 -1.336,-0.309 -2.663,-0.662 -4.273,-1.064 -0.711,-1.666 -1.537,-3.387 -2.193,-5.17 -11.023,-29.925 -22.012,-59.863 -33.035,-89.787 -8.647,-23.476 -17.331,-46.937 -25.992,-70.407 -1.046,-2.835 -2.05,-5.686 -3.164,-8.782 -11.695,-0.091 -23.38,-0.179 -35.066,-0.192 -11.567,-0.012 -23.134,-0.062 -34.701,-0.062 -11.644,0.001 -23.289,-0.185 -35.094,-0.265 0.094,0.82 0.052,1.238 0.195,1.579 9.055,21.55 17.32,43.41 25.569,65.276 8.201,21.738 16.333,43.502 24.57,65.227 5.067,13.362 10.277,26.671 15.416,40.006 0.538,1.395 1.036,2.807 1.515,4.11 -0.759,1.456 -2.101,1.539 -3.207,1.932 -4.79,1.705 -9.676,3.164 -14.398,5.037 -17.234,6.835 -33.429,15.579 -47.82,27.344 -12.032,9.838 -22.126,21.421 -29.912,34.945 -5.911,10.269 -9.389,21.389 -11.371,32.977 -2.873,16.804 -0.583,33.165 4.856,49.174 2.048,6.03 5.114,11.553 8.665,16.824 10.765,15.982 24.888,28.069 41.863,37.157 15.894,8.509 32.69,14.379 50.086,18.761 1.068,0.268 2.134,0.54 3.201,0.81 10.053,2.378 19.546,3.91 29.119,5.091 13.71,1.693 27.472,1.703 41.237,1.74 22.307,0.06 44.615,-0.036 66.922,0.002 45.716,0.079 91.432,0.203 137.147,0.308 1.625,0.004 3.249,0 4.92,0 0.427,-1.74 -0.563,-2.861 -1.056,-4.072 -8.236,-20.248 -16.524,-40.474 -24.755,-60.724 -2.381,-5.858 -4.616,-11.775 -6.921,-17.664 -0.396,-1.011 -0.806,-2.015 -1.252,-3.13 -1.026,-0.087 -1.969,-0.208 -2.915,-0.241 -14.448,-0.505 -28.896,-1.05 -43.347,-1.478 -11.698,-0.346 -23.4,-0.546 -35.101,-0.816 -1.789,-0.041 -3.579,-0.174 -5.367,-0.147 -2.068,0.032 -3.37,-0.994 -4.181,-2.769 -0.514,-1.124 -0.978,-2.272 -1.418,-3.427 -5.918,-15.544 -11.824,-31.093 -17.741,-46.636 -6.259,-16.444 -12.529,-32.883 -18.792,-49.325 -0.39,-1.024 -0.754,-2.058 -1.219,-3.331 0.814,-0.264 1.539,-0.695 2.27,-0.705 6.545,-0.09 12.883,1.244 19.021,3.341 18.882,6.452 35.193,16.833 48.034,32.264 2.886,3.469 5.289,7.342 8.185,11.41 4.569,-0.677 9.357,-2.358 14.273,-3.447 4.828,-1.07 9.612,-2.341 14.682,-3.589 -0.393,-0.969 -0.656,-1.853 -1.088,-2.647 -5.591,-10.275 -13.158,-18.983 -21.67,-26.891 M 38.382,-61.474 c -10.65,21.881 -21.319,43.753 -31.937,65.65 -0.921,1.9 -2.051,3.492 -3.747,4.792 -10.05,7.704 -20.053,15.471 -30.082,23.205 -0.517,0.399 -1.124,0.682 -1.791,1.079 -0.311,-0.67 -0.619,-1.141 -0.755,-1.657 -0.985,-3.721 -1.924,-7.454 -2.898,-11.177 -2.87,-10.97 -6.881,-21.467 -12.96,-31.099 -0.714,-1.131 -1.505,-2.213 -2.341,-3.437 -1.45,1.108 -1.851,2.626 -2.533,3.923 -18.625,35.419 -37.243,70.841 -55.795,106.299 -1.267,2.421 -2.97,4.218 -5.208,5.671 -3.595,2.333 -7.402,4.225 -11.408,5.726 -12.469,4.672 -25.289,5.069 -38.249,2.886 -13.267,-2.235 -25.766,-6.841 -37.721,-12.929 -21.607,-11.004 -41.165,-24.93 -58.929,-41.414 -7.389,-6.856 -13.992,-14.418 -20.333,-22.227 -1.11,-1.366 -2.289,-2.676 -3.604,-4.208 -0.797,1.359 -1.435,2.409 -2.038,3.479 -6.412,11.383 -12.786,22.788 -19.239,34.148 -4.3,7.572 -9.475,14.517 -15.542,20.771 -6.24,6.434 -13.561,11.163 -22.152,13.886 -12.229,3.875 -24.629,4.078 -37.147,1.835 -10.782,-1.931 -20.982,-5.606 -30.725,-10.546 -24.24,-12.291 -44.591,-29.194 -60.594,-51.233 -0.598,-0.823 -1.052,-1.84 -2.226,-2.439 -0.89,1.515 -1.67,2.786 -2.398,4.086 -7.322,13.082 -14.679,26.144 -21.935,39.263 -3.984,7.203 -9.678,12.604 -16.755,16.669 -9.181,5.272 -19.185,7.401 -29.64,7.757 -4.42,0.151 -8.798,-0.272 -13.091,-1.42 -0.637,-0.171 -1.323,-0.16 -2.174,-0.253 -2.161,4.55 -4.286,9.006 -6.395,13.468 -7.581,16.036 -15.186,32.06 -22.698,48.127 -0.967,2.066 -2.318,2.938 -4.5,2.734 -0.411,-0.038 -0.825,-0.054 -1.237,-0.058 -6.052,-0.061 -12.104,-0.154 -18.155,-0.171 -22.444,-0.062 -44.888,-0.098 -67.332,-0.151 -0.937,-0.003 -1.873,-0.077 -2.968,-0.125 -1.043,-2.384 -2.096,-4.612 -3.005,-6.897 -9.659,-24.276 -19.326,-48.549 -28.927,-72.847 -7.479,-18.927 -14.859,-37.893 -22.32,-56.828 -0.487,-1.236 -0.609,-2.708 -2.002,-3.726 -10.562,21.478 -21.088,42.882 -31.662,64.385 -30.899,0.174 -61.58,0.783 -92.35,0.645 -4.352,-11.965 -8.651,-23.786 -13.151,-36.158 -0.886,1.35 -1.533,2.187 -2.025,3.107 -5.253,9.822 -10.477,19.66 -15.721,29.487 -0.639,1.196 -1.346,2.355 -2.075,3.626 h -73.031 c -12.761,24.887 -25.483,49.699 -38.258,74.616 -1.545,0 -2.914,0.012 -4.282,-0.002 -5.095,-0.052 -10.189,-0.143 -15.284,-0.166 -24.374,-0.109 -48.749,-0.2 -73.123,-0.302 -0.824,-0.003 -1.658,0.024 -2.471,-0.087 -1.155,-0.157 -1.946,-0.726 -2.403,-1.93 -1.464,-3.856 -3.04,-7.669 -4.593,-11.49 -0.242,-0.594 -0.269,-1.39 -1.426,-1.576 -2.443,4.6 -3.911,9.749 -6.636,14.536 -1.623,0 -3.266,0.013 -4.908,-0.002 -62.93,-0.534 -125.86,-1.023 -188.79,-1.638 -16.788,-0.164 -33.581,0.33 -50.368,-0.697 -11.29,-0.69 -22.478,-1.992 -33.609,-3.906 -9.641,-1.657 -19.046,-4.251 -28.421,-7.024 -21.848,-6.462 -41.449,-17.001 -58.477,-32.137 -11.83,-10.516 -21.702,-22.587 -28.543,-37.025 -5.158,-10.885 -7.689,-22.329 -8.097,-34.281 -0.316,-9.246 0.586,-18.434 2.047,-27.549 2.03,-12.664 5.453,-24.97 9.991,-36.968 8.734,-23.084 20.865,-44.24 36.258,-63.885 2.652,-3.193 5.062,-6.205 7.597,-9.107 2.536,-2.902 5.144,-5.745 7.821,-8.518 2.676,-2.772 5.424,-5.481 8.239,-8.113 2.815,-2.631 5.699,-5.194 8.649,-7.673 2.923,-2.455 5.964,-4.767 8.995,-7.175 -0.473,-1.388 -0.839,-2.56 -1.269,-3.708 -10.521,-28.06 -21.07,-56.11 -31.566,-84.18 -4.767,-12.746 -9.472,-25.515 -14.121,-38.304 -1.66,-4.565 -1.58,-4.624 0.672,-8.895 11.737,-22.261 23.491,-44.513 35.248,-66.764 0.505,-0.955 1.097,-1.864 1.692,-2.869 2.013,-0.069 3.927,-0.18 5.841,-0.193 30.846,-0.21 61.692,-0.416 92.538,-0.595 3.579,-0.021 7.163,0.257 10.737,0.155 2.325,-0.066 3.577,0.921 4.272,2.999 0.435,1.301 1.013,2.555 1.479,3.848 19.544,54.178 39.082,108.359 58.627,162.537 0.367,1.017 0.813,2.006 1.18,2.902 0.571,0.212 0.945,0.409 1.342,0.491 12.168,2.507 23.914,6.36 35.312,11.254 11.795,5.065 23.114,10.982 33.085,19.204 0.293,0.241 0.712,0.328 1.232,0.558 1.144,-2.537 2.189,-5.029 3.373,-7.452 11.709,-23.967 23.442,-47.922 35.157,-71.885 0.348,-0.712 0.585,-1.477 0.914,-2.32 -0.735,-0.203 -1.255,-0.349 -1.776,-0.491 -11.013,-3 -22.084,-5.802 -33.025,-9.045 -19.001,-5.631 -37.705,-12.124 -55.759,-20.369 -2.358,-1.077 -4.685,-2.22 -6.79,-3.22 -0.632,-1.807 0.091,-3.049 0.519,-4.339 10.297,-31.049 20.594,-62.099 30.894,-93.148 1.04,-3.135 2.336,-6.151 3.845,-9.099 5.828,-11.383 11.574,-22.808 17.343,-34.221 5.52,-10.921 11.021,-21.853 16.559,-32.766 0.657,-1.295 1.043,-2.82 2.507,-3.723 1.316,0.6 2.562,1.159 3.8,1.734 13.606,6.319 27.514,11.886 41.735,16.658 35.085,11.774 71.168,19.099 107.804,23.82 12.143,1.565 24.362,2.571 36.565,3.632 17.017,1.479 34.081,2.086 51.16,2.183 23.973,0.137 47.896,-0.937 71.784,-2.983 13.582,-1.163 27.126,-2.633 40.612,-4.577 16.478,-2.374 32.859,-5.321 49.149,-8.771 27.628,-5.85 54.693,-13.655 81.116,-23.602 12.618,-4.751 25.288,-9.292 38.291,-12.881 17.395,-4.8 35.03,-8.394 52.901,-10.913 13.373,-1.885 26.799,-3.17 40.277,-3.766 18.857,-0.834 37.712,-0.731 56.563,0.518 12.097,0.801 24.143,2.038 36.14,3.709 15.54,2.164 30.942,5.106 46.183,8.852 29.199,7.176 57.517,16.873 84.641,29.895 25.786,12.381 49.988,27.272 71.75,45.956 7.948,6.824 15.648,13.897 22.364,21.971 0.773,0.93 1.833,1.708 1.913,3.3 -0.304,0.709 -0.647,1.604 -1.064,2.462 -10.861,22.391 -21.739,44.775 -32.586,67.172 -1.038,2.143 -2.465,3.946 -4.151,5.592 -10.048,9.811 -20.089,19.63 -30.122,29.456 -0.87,0.852 -1.672,1.773 -2.54,2.698 0.557,0.513 0.934,0.918 1.366,1.25 13.817,10.6 26.497,22.374 37.353,36.042 0.287,0.36 0.816,0.528 1.32,0.841 4.299,-9.658 8.557,-19.047 12.631,-28.516 0.886,-2.059 2.134,-3.275 4.132,-4.197 24.547,-11.333 50.422,-17.28 77.32,-18.822 14.46,-0.83 28.877,-0.086 43.232,2.153 20.402,3.181 39.929,9.103 58.54,18.005 41.366,19.785 73.067,50.022 96.252,89.372 8.196,13.91 14.692,28.614 19.619,43.986 1.536,4.79 1.407,3.846 -0.519,7.804"
       style="fill:#d2451e;fill-opacity:1;fill-rule:nonzero;stroke:none"
       transform="matrix(1.3333333,0,0,-1.3333333,2532.6996,732.86187)"
       clip-path="url(#clipPath2)" />
    <path
       id="path3"
       d="m 0,0 c 2.797,2.867 5.251,5.994 7.266,9.454 2.192,3.763 3.386,7.78 3.085,12.191 -0.237,3.482 -1.679,6.275 -4.33,8.556 -3.791,3.262 -8.192,3.59 -12.818,2.837 -3.68,-0.599 -7.158,-1.883 -10.541,-3.435 -6.523,-2.994 -12.576,-6.768 -18.284,-11.094 -16.713,-12.664 -30.635,-27.921 -42.29,-45.684 -0.659,-1.331 -1.832,-2.154 -1.406,-3.644 1.496,0 3.011,-0.159 4.481,0.029 5.311,0.68 10.656,1.234 15.9,2.277 14.927,2.971 29.035,8.245 42.228,15.85 C -10.62,-9.153 -4.936,-5.06 0,0"
       style="fill:#d2451e;fill-opacity:1;fill-rule:nonzero;stroke:none"
       transform="matrix(1.3333333,0,0,-1.3333333,1774.6535,708.9472)"
       clip-path="url(#clipPath4)" />
    <path
       id="path5"
       d="m 0,0 c 6.752,-1.26 13.447,-0.758 20.047,0.905 10.203,2.571 19.335,7.089 26.644,15.323 1.738,2.172 3.083,4.228 3.958,6.583 1.034,2.782 1.335,5.592 0.64,8.498 -0.941,3.934 -4.665,8.401 -9.865,8.638 -2.782,0.127 -5.461,-0.004 -8.15,-0.787 C 28.289,37.708 23.988,35.019 19.963,31.884 10.258,24.326 2.746,14.938 -2.87,4.018 -3.301,3.179 -3.595,2.269 -3.986,1.31 -3.376,1 -2.918,0.682 -2.41,0.529 -1.625,0.292 -0.809,0.151 0,0"
       style="fill:#d2451e;fill-opacity:1;fill-rule:nonzero;stroke:none"
       transform="matrix(1.3333333,0,0,-1.3333333,2011.958,722.9176)"
       clip-path="url(#clipPath6)" />
    <path
       id="path7"
       d="m 0,0 c -5.091,2.274 -19.011,3.196 -30.96,1.994 -11.723,-1.082 -22.527,-4.061 -32.699,-9.237 -4.925,-2.506 -9.53,-5.512 -13.641,-9.215 -3.892,-3.508 -7.558,-7.215 -10.094,-11.898 -4.935,-9.114 -5.264,-18.337 -0.758,-27.686 2.421,-5.023 5.87,-9.291 9.932,-13.071 4.147,-3.858 8.739,-7.124 13.624,-9.981 8.47,-4.955 17.507,-8.589 26.861,-11.475 1.017,-0.314 2.084,-0.467 3.048,-0.677 0.336,0.361 0.556,0.537 0.696,0.762 0.217,0.347 0.415,0.714 0.56,1.096 11.207,29.547 22.407,59.097 33.603,88.648 0.047,0.123 0.051,0.28 0.022,0.408 C 0.167,-0.213 0.068,-0.11 0,0"
       style="fill:#d2451e;fill-opacity:1;fill-rule:nonzero;stroke:none"
       transform="matrix(1.3333333,0,0,-1.3333333,737.74693,639.43907)"
       clip-path="url(#clipPath8)" />
    <path
       id="path9"
       d="M 0,0 H 0.03 V 0.03 Z"
       style="fill:#d2451e;fill-opacity:1;fill-rule:nonzero;stroke:none"
       transform="matrix(1.3333333,0,0,-1.3333333,1066.258,1374.7965)"
       clip-path="url(#clipPath10)" />
    <path
       id="path11"
       d="m 0,0 c -1.337,-1.248 -3.343,-1.872 -6.032,-1.872 h -4.026 v 15.54 h 1.248 c 3.699,0 6.433,-0.728 8.186,-2.154 C 1.129,10.088 2.006,8.067 2.006,5.482 2.006,3.075 1.337,1.248 0,0 m -19.492,-1.872 z m 11.098,46.323 c 3.061,0 5.393,-0.624 7.012,-1.872 1.605,-1.248 2.422,-3.209 2.422,-5.616 0,-2.407 -0.758,-4.278 -2.288,-5.616 -1.53,-1.337 -3.863,-2.005 -7.012,-2.005 h -1.798 v 15.109 z m 22.701,-23.28 c -1.282,0.739 -2.654,1.363 -4.107,1.881 0.416,0.167 0.834,0.344 1.254,0.54 2.868,1.337 5.289,3.417 7.28,6.24 1.991,2.808 2.986,6.344 2.986,10.608 0,6.462 -2.525,11.84 -7.562,16.089 -5.051,4.264 -12.984,6.388 -23.8,6.388 h -21.483 v -83.226 h 30.664 c 8.692,0 14.991,2.199 18.868,6.596 3.878,4.398 5.824,9.925 5.824,16.58 0,4.071 -0.862,7.666 -2.57,10.816 -1.709,3.135 -4.16,5.63 -7.354,7.488"
       style="fill:#d2451e;fill-opacity:1;fill-rule:nonzero;stroke:none"
       transform="matrix(1.3333333,0,0,-1.3333333,1107.7969,1458.6864)"
       clip-path="url(#clipPath12)" />
    <path
       id="path13"
       d="m 861.69,370.577 h 21.512 v 83.256 H 861.69 Z"
       style="fill:#d2451e;fill-opacity:1;fill-rule:nonzero;stroke:none"
       transform="matrix(1.3333333,0,0,-1.3333333,0,1979.9067)"
       clip-path="url(#clipPath14)" />
    <path
       id="path15"
       d="m 0,0 c 1.07,1.292 2.392,1.946 4.234,1.946 1.842,0 3.209,-0.594 4.086,-1.798 0.876,-1.203 1.456,-3.238 1.738,-6.106 0.282,-2.302 0.416,-5.363 0.416,-9.151 h 20.532 c 0,5.274 -0.283,9.998 -0.832,14.158 -1.204,8.245 -3.789,14.159 -7.77,17.769 -3.967,3.61 -9.895,5.407 -17.754,5.407 -6.656,0 -12.182,-1.456 -16.58,-4.367 -4.382,-2.912 -7.725,-7.548 -9.983,-13.877 -2.273,-6.343 -3.403,-14.693 -3.403,-25.048 l -0.044,-0.029 c 0,-7.949 0.371,-14.382 1.114,-19.284 1.397,-8.335 3.729,-14.5 7.012,-18.526 3.284,-4.027 7.934,-6.032 13.951,-6.032 3.149,0 6.18,0.862 9.092,2.57 2.912,1.709 5.289,4.234 7.146,7.562 0.1,0.18 0.187,0.369 0.282,0.553 l 1.828,-8.709 h 15.673 v 42.178 H 2.169 V -35.76 H 10.3 c -0.057,-1.815 -0.25,-3.351 -0.599,-4.546 -0.416,-1.441 -1.084,-2.496 -2.005,-3.194 -0.921,-0.698 -2.08,-1.04 -3.462,-1.04 -1.946,0 -3.432,0.698 -4.442,2.08 -1.01,1.382 -1.753,3.877 -2.214,7.488 -0.193,1.842 -0.356,3.922 -0.49,6.239 -0.134,2.318 -0.208,4.858 -0.208,7.637 0,6.106 0.253,10.83 0.758,14.158 C -1.857,-3.61 -1.07,-1.293 0,0"
       style="fill:#d2451e;fill-opacity:1;fill-rule:nonzero;stroke:none"
       transform="matrix(1.3333333,0,0,-1.3333333,1222.1331,1401.8352)"
       clip-path="url(#clipPath16)" />
    <path
       id="path17"
       d="M 0,0 H 0.015 V 0.015 Z"
       style="fill:#d2451e;fill-opacity:1;fill-rule:nonzero;stroke:none"
       transform="matrix(1.3333333,0,0,-1.3333333,1225.0053,1429.5477)"
       clip-path="url(#clipPath18)" />
    <path
       id="path19"
       d="m 0,0 c -1.619,-1.619 -4.1,-2.422 -7.428,-2.422 h -1.798 v 21.498 h 1.798 c 3.521,0 6.032,-0.787 7.562,-2.362 1.53,-1.575 2.288,-4.339 2.288,-8.32 C 2.422,4.413 1.619,1.619 0,0 m 16.639,30.055 c -5.318,4.992 -13.712,7.487 -25.182,7.487 h -21.779 v -83.241 h 21.096 v 24.841 h 1.798 c 11.276,0 19.447,2.555 24.483,7.695 5.037,5.126 7.562,12.138 7.562,21.572 0,9.434 -2.659,16.654 -7.978,21.646"
       style="fill:#d2451e;fill-opacity:1;fill-rule:nonzero;stroke:none"
       transform="matrix(1.3333333,0,0,-1.3333333,1340.9063,1424.8531)"
       clip-path="url(#clipPath20)" />
    <path
       id="path21"
       d="M 0,0 H 14.292 V 15.956 H 0 V 28.45 h 21.512 v 19.834 h -42.594 -0.014 V -34.972 H 21.78 v 19.848 H 0 Z"
       style="fill:#d2451e;fill-opacity:1;fill-rule:nonzero;stroke:none"
       transform="matrix(1.3333333,0,0,-1.3333333,1409.4248,1439.1747)"
       clip-path="url(#clipPath22)" />
    <path
       id="path23"
       d="m 0,0 -15.124,36.925 h -18.734 v -83.256 h 20.116 V -7.882 L 1.798,-46.331 H 20.116 V 36.925 H 0 Z"
       style="fill:#d2451e;fill-opacity:1;fill-rule:nonzero;stroke:none"
       transform="matrix(1.3333333,0,0,-1.3333333,1494.1865,1424.0296)"
       clip-path="url(#clipPath24)" />
    <path
       id="path25"
       d="m 0,0 -15.124,36.925 h -18.734 -0.015 v -83.256 h 20.116 V -7.876 L 1.798,-46.331 H 20.116 V 36.925 H 0 Z"
       style="fill:#d2451e;fill-opacity:1;fill-rule:nonzero;stroke:none"
       transform="matrix(1.3333333,0,0,-1.3333333,1578.8887,1424.0299)"
       clip-path="url(#clipPath26)" />
    <path
       id="path27"
       d="m 0,0 -9.986,26.132 h -23.027 l 21.646,-49.814 -0.015,0.015 V -57.109 H 9.714 v 33.576 L 31.643,26.132 H 10.279 Z"
       style="fill:#d2451e;fill-opacity:1;fill-rule:nonzero;stroke:none"
       transform="matrix(1.3333333,0,0,-1.3333333,1656.4624,1409.6389)"
       clip-path="url(#clipPath28)" />
    <path
       id="path29"
       d="m 0,0 -5.824,3.194 c -3.506,1.946 -6.002,3.566 -7.488,4.858 -1.47,1.293 -2.213,2.823 -2.213,4.576 0,1.753 0.416,3.001 1.248,3.744 0.832,0.743 2.169,1.114 4.026,1.114 1.471,0 2.659,-0.312 3.536,-0.906 0.876,-0.594 1.545,-1.634 2.006,-3.12 0.549,-1.768 0.832,-4.175 0.832,-7.22 h 20.264 c 0,4.724 -0.416,8.884 -1.248,12.494 -1.471,6.284 -4.249,10.92 -8.32,13.876 -4.07,2.956 -9.671,4.442 -16.788,4.442 -5.838,0 -10.83,-1.01 -14.99,-3.045 -4.16,-2.036 -7.339,-4.933 -9.508,-8.677 -2.169,-3.744 -3.254,-8.171 -3.254,-13.252 0,-5.824 1.352,-10.637 4.086,-14.425 2.733,-3.804 7.428,-7.444 14.084,-10.965 l 4.991,-2.629 c 2.407,-1.293 4.205,-2.333 5.408,-3.12 1.204,-0.788 2.095,-1.59 2.704,-2.422 0.609,-0.832 0.906,-1.842 0.906,-3.045 0,-1.753 -0.445,-3.18 -1.322,-4.234 -0.876,-1.055 -2.288,-1.59 -4.234,-1.59 -1.56,0 -2.793,0.342 -3.669,1.04 -0.877,0.698 -1.501,1.738 -1.872,3.12 -0.372,1.396 -0.55,4.07 -0.55,8.052 h -21.928 c 0,-6.938 0.46,-12.153 1.381,-15.674 1.575,-5.913 4.532,-10.102 8.884,-12.553 l -0.014,-0.045 c 4.338,-2.437 10.221,-3.67 17.619,-3.67 9.256,0 16.194,2.08 20.815,6.24 4.62,4.16 6.937,10.682 6.937,19.566 0,5.735 -1.322,10.43 -3.951,14.084 C 9.924,-6.552 5.734,-3.15 0,0"
       style="fill:#d2451e;fill-opacity:1;fill-rule:nonzero;stroke:none"
       transform="matrix(1.3333333,0,0,-1.3333333,1780.4033,1421.6636)"
       clip-path="url(#clipPath30)" />
    <path
       id="path31"
       d="m 0,0 v 0.005 0.01 z"
       style="fill:#d2451e;fill-opacity:1;fill-rule:nonzero;stroke:none"
       transform="matrix(1.3333333,0,0,-1.3333333,1809.0863,1429.9241)"
       clip-path="url(#clipPath32)" />
    <path
       id="path33"
       d="m 0,0 c -0.46,-3.387 -1.233,-5.72 -2.288,-7.012 -1.069,-1.308 -2.481,-1.946 -4.234,-1.946 -1.842,0 -3.298,0.802 -4.368,2.421 h -0.015 c -1.054,1.62 -1.827,4.516 -2.288,8.676 -0.371,2.868 -0.549,7.042 -0.549,12.495 0,6.106 0.282,10.83 0.832,14.158 0.564,3.328 1.337,5.646 2.362,6.938 1.01,1.293 2.303,1.946 4.16,1.946 1.857,0 3.268,-0.653 4.234,-1.946 C -1.174,34.438 -0.46,32.12 0,28.792 0.461,25.078 0.698,20.368 0.698,14.634 0.698,8.26 0.461,3.372 0,0 m 10.949,52.711 c -4.427,3.462 -10.266,5.2 -16.921,5.2 -6.656,0 -12.183,-1.486 -16.58,-4.442 -4.383,-2.957 -7.711,-7.622 -9.984,-14.01 -2.272,-6.387 -3.402,-14.66 -3.402,-24.835 0,-7.127 0.461,-13.185 1.382,-18.175 1.664,-8.602 4.739,-15.035 9.226,-19.283 4.486,-4.264 10.756,-6.389 18.808,-6.389 6.834,0 12.405,1.59 16.714,4.784 4.293,3.194 7.487,8.022 9.567,14.5 2.08,6.477 3.12,14.663 3.12,24.558 0,8.513 -0.787,15.822 -2.362,21.928 -1.931,7.31 -5.126,12.703 -9.568,16.164"
       style="fill:#d2451e;fill-opacity:1;fill-rule:nonzero;stroke:none"
       transform="matrix(1.3333333,0,0,-1.3333333,1857.0036,1449.416)"
       clip-path="url(#clipPath34)" />
    <path
       id="path35"
       d="m 0,0 c -0.371,-2.689 -1.025,-4.576 -1.946,-5.69 -0.936,-1.114 -2.229,-1.664 -3.893,-1.664 -1.663,0 -2.986,0.55 -3.951,1.664 -0.966,1.114 -1.739,3.149 -2.288,6.106 -0.372,2.035 -0.654,4.531 -0.832,7.488 -0.193,2.956 -0.283,5.734 -0.283,8.319 0,6.107 0.253,10.831 0.758,14.159 0.505,3.328 1.293,5.645 2.362,6.938 1.07,1.292 2.481,1.946 4.235,1.946 1.574,0 2.807,-0.49 3.684,-1.456 0.877,-0.98 1.501,-2.659 1.872,-5.066 C 0,31.258 0.208,29.268 0.342,26.771 0.476,24.276 0.55,22.062 0.55,20.116 h 20.68 c 0,7.398 -0.237,12.673 -0.698,15.822 -0.743,5.645 -2.199,10.207 -4.368,13.668 -2.169,3.462 -5.007,5.987 -8.528,7.562 -3.521,1.575 -7.903,2.362 -13.177,2.362 -9.806,0 -17.234,-3.447 -22.27,-10.34 -5.037,-6.893 -7.562,-17.872 -7.562,-32.952 l -0.015,-0.015 c 0,-6.388 0.416,-12.078 1.248,-17.07 1.47,-8.973 4.486,-15.674 9.018,-20.115 4.531,-4.443 10.919,-6.656 19.15,-6.656 6.655,0 11.974,1.277 15.956,3.818 3.966,2.555 6.878,6.641 8.735,12.286 1.857,5.646 2.779,13.267 2.779,22.894 H 0.55 C 0.55,6.478 0.371,2.689 0,0"
       style="fill:#d2451e;fill-opacity:1;fill-rule:nonzero;stroke:none"
       transform="matrix(1.3333333,0,0,-1.3333333,1942.1019,1451.5751)"
       clip-path="url(#clipPath36)" />
    <path
       id="path37"
       d="m 1485.948,370.577 h 21.512 v 83.256 h -21.512 z"
       style="fill:#d2451e;fill-opacity:1;fill-rule:nonzero;stroke:none"
       transform="matrix(1.3333333,0,0,-1.3333333,0,1979.9067)"
       clip-path="url(#clipPath38)" />
    <path
       id="path39"
       d="M 0,0 4.6,29.075 9.437,0 Z m -7.864,56.336 -0.015,-0.015 -16.788,-83.256 h 20.265 l 1.854,11.261 H 12.045 L 13.916,-26.92 H 35.28 L 18.774,56.336 Z"
       style="fill:#d2451e;fill-opacity:1;fill-rule:nonzero;stroke:none"
       transform="matrix(1.3333333,0,0,-1.3333333,2049.5312,1449.9111)"
       clip-path="url(#clipPath40)" />
    <path
       id="path41"
       d="M 0,0 H 0.015 V 0 Z"
       style="fill:#d2451e;fill-opacity:1;fill-rule:nonzero;stroke:none"
       transform="matrix(1.3333333,0,0,-1.3333333,2103.6227,1374.7965)"
       clip-path="url(#clipPath42)" />
    <path
       id="path43"
       d="m 0,0 h -21.081 v -83.256 h 43.425 v 19.848 H 0 Z"
       style="fill:#d2451e;fill-opacity:1;fill-rule:nonzero;stroke:none"
       transform="matrix(1.3333333,0,0,-1.3333333,2131.7512,1374.7965)"
       clip-path="url(#clipPath44)" />
    <path
       id="path45"
       d="M 0,0 2.738,17.32 5.621,0 Z m -4.706,33.591 h 0.015 L -14.705,-16.06 h 12.079 l 1.106,6.715 H 7.176 L 8.293,-16.06 H 21.04 l -9.85,49.651 z"
       style="fill:#d2451e;fill-opacity:1;fill-rule:nonzero;stroke:none"
       transform="matrix(1.3333333,0,0,-1.3333333,954.23493,1443.7108)"
       clip-path="url(#clipPath46)" />
    <path
       id="path47"
       d="M 0,0 H 10.34 V -37.81 H 22.924 V 0 h 10.34 V 11.841 H 0 Z"
       style="fill:#d2451e;fill-opacity:1;fill-rule:nonzero;stroke:none"
       transform="matrix(1.3333333,0,0,-1.3333333,980.902,1414.7108)"
       clip-path="url(#clipPath48)" />
  </g>
</svg>
