<svg width="109" height="46" viewBox="0 0 109 46" fill="none" xmlns="http://www.w3.org/2000/svg">
<g clip-path="url(#clip0_2_714)">
<path d="M4.50326 32.9596L11.5955 32.6914L15.6358 20.559C18.8908 19.5954 22.1659 17.8366 23.8433 14.7667L21.8509 14.2906C20.8792 15.8792 19.1894 17.2685 17.3407 17.7023C17.1887 17.7378 16.5322 17.8712 16.5988 17.6063L19.0847 10.4426L25.3437 9.74571L27.4176 3.82865C26.5177 3.88215 25.6093 3.87037 24.7085 3.92595C19.0151 4.27447 9.69655 3.72373 4.86017 6.4036C-1.36335 9.85139 0.186434 17.0091 6.1614 19.7251C6.51722 19.8869 8.58481 20.5109 8.62901 20.6794L4.50228 32.9606L4.50326 32.9596Z" fill="#FBFBF8"/>
<path d="M34.868 3.54694L29.1021 3.76494C28.7929 4.37628 28.5432 5.04687 28.3046 5.68835C26.8941 9.48924 25.1931 13.8803 24.0573 17.7271C23.2886 20.3301 23.0101 23.5388 25.2223 25.5247C27.0724 27.185 31.0625 26.4898 32.5456 24.5282L33.7964 22.5333C34.599 27.2899 41.3519 26.9444 43.2209 23.1016C44.7166 27.1247 49.5132 25.5021 51.2753 22.589L50.5167 25.4857L55.5492 25.1796L58.7915 15.9557C58.8444 16.9777 58.6528 17.9403 58.7485 18.9832C59.2612 24.5657 63.9955 26.6521 68.4058 23.1129C69.6116 22.1458 70.5632 20.8398 71.0827 19.382C71.2441 19.3759 71.2922 20.4586 71.351 20.6901C72.3598 24.626 76.5593 25.1961 79.7759 23.5133C84.3321 21.13 86.4107 14.4727 89.3549 10.5082C89.8686 9.81537 90.5582 8.98976 91.3168 8.58181C91.3451 8.86878 91.0358 9.09983 90.9948 9.36789C90.6745 11.4711 93.0308 11.7797 93.2913 13.4755C93.7806 16.6562 90.245 17.6355 88.0826 16.0168L87.8652 16.0281L85.1134 21.4582C88.9444 23.4762 93.6325 22.9617 97.3952 21.0379C100.341 19.5325 103.373 16.3007 104.574 13.2027C104.727 12.8064 104.763 12.3653 104.975 11.9882L104.966 11.8748L102.994 10.6004C102.822 13.0281 100.828 15.1248 98.5942 15.8869C99.5752 14.221 98.7308 11.8738 97.6972 10.4173C97.1658 9.66862 96.2458 9.10888 96.06 8.14314C95.9137 7.38296 96.2941 6.43784 96.7269 5.82183L96.6427 5.54108C93.6473 4.36585 90.4092 6.39998 88.2751 8.39853C86.4403 10.1172 85.2412 12.3449 83.7095 14.3196C82.4693 15.9184 80.7093 17.9664 78.4612 16.7321C78.2064 16.5921 77.7063 16.1303 77.5901 15.8681C77.3186 15.2603 77.3652 14.4641 77.4635 13.8187L79.5556 13.7396C80.399 13.7078 81.9758 12.5196 82.4949 11.8337C84.617 9.03193 82.8532 5.95071 79.3713 6.26789C75.8894 6.58507 73.3469 9.65485 71.9439 12.4899C70.7802 14.8412 70.7894 17.0058 68.2015 18.387C65.792 19.6723 62.9876 18.4642 63.5503 15.4969C66.2675 15.0498 70.7398 11.4755 70.4198 8.50062C70.3062 7.44297 69.2566 6.80818 68.3062 6.63398C65.1195 6.04924 62.1797 8.96798 60.4055 11.2902L63.5453 2.46677L58.1879 2.66933C56.8687 5.80254 55.8862 9.07882 54.7197 12.2749C53.9062 14.5034 53.0452 17.2882 52.0746 19.3893C51.1842 21.3162 48.4792 22.4395 48.1466 19.5932L51.5943 8.03975L45.7774 8.25968L42.9521 17.7221C42.2393 18.8827 40.3342 19.1229 40.1927 17.4348L42.8184 8.37258L37.1638 8.4767L33.6488 18.8467C32.9868 20.1858 30.3762 20.3184 30.3225 18.626C30.2905 17.6452 31.6121 13.9533 31.981 12.7585C32.7401 10.3066 33.6465 7.88498 34.3963 5.43138C34.4745 5.17523 34.9539 3.63081 34.8702 3.55198L34.868 3.54694Z" fill="#FBFBF8"/>
<path d="M81.0074 25.5248C80.8152 25.364 80.8484 25.0532 80.455 25.2228C80.1371 25.3589 78.9963 26.5849 78.5633 26.9242C74.2025 30.3374 68.3142 31.5902 62.8486 31.474C58.5107 31.3817 54.8311 29.4738 50.6767 28.6633C42.1628 27.0017 32.425 27.3135 24.1763 30.0711C23.6806 30.2375 20.2669 31.5474 20.2072 31.809L22.6377 38.1093C28.421 35.2685 35.0798 34.3023 41.5039 34.3198C47.6335 34.3371 51.64 35.7786 57.3495 37.0982C66.2423 39.1555 76.8781 37.8462 83.9608 31.8371C84.6057 31.2899 85.1706 30.6515 85.8018 30.0915L85.79 29.7794C84.125 28.4472 82.6419 26.8919 81.0094 25.5237L81.0073 25.5238L81.0074 25.5248Z" fill="#FBFBF8"/>
<path d="M66.2542 6.13339C67.9539 5.81594 69.5526 6.09991 70.6045 7.5526C71.228 8.41261 71.7821 9.60019 72.3335 10.5275C74.1775 7.91465 77.3481 5.31314 80.7616 5.72736C83.1499 6.01735 84.2566 8.91943 85.4679 10.6429L85.6897 10.5033C87.5252 7.6683 93.1695 3.28706 96.6426 5.06131C96.9762 5.23115 97.2086 5.53705 97.4962 5.75887L101.555 13.0073C101.781 13.1637 102.063 12.4324 102.124 12.3041C102.508 11.4993 102.582 10.6036 102.912 9.78342L105.345 11.5673L107.857 16.3433C106.179 23.5185 99.4542 28.448 92.0592 27.7927C91.1933 27.7158 88.1998 27.1586 87.6558 26.5908C87.461 26.387 86.7119 24.479 86.6086 24.5311L84.0102 27.3918C84.0926 27.3815 84.1537 27.4028 84.2123 27.4631C84.9136 28.191 85.8559 28.7745 86.4672 29.5797C87.0257 30.316 87.8167 31.9539 88.2756 32.8417C88.5658 33.4047 88.8695 34 89.0703 34.6044C88.9967 34.9854 86.8328 36.9503 86.4199 37.2816C80.2402 42.2396 70.318 44.1401 62.5973 42.8206C60.081 42.3909 57.7227 41.3525 55.2512 40.7551C46.7881 38.7062 35.6619 39.0244 27.5435 42.2783C26.6743 42.6269 25.8647 43.0921 24.9997 43.4457C24.8851 43.4172 24.7443 43.155 24.6746 43.0418C23.9097 41.7956 22.8767 39.9506 22.2474 38.6398C21.1718 36.3987 20.4971 33.7509 19.5658 31.4306C21.6307 30.3346 23.8475 29.524 26.1231 28.9696L23.3579 23.4425C22.9792 23.38 22.8456 23.7663 22.6331 23.9076C21.3543 24.7555 19.8871 25.2989 18.4284 25.7425L14.5974 37.6518L6.91495 37.9935L4.21207 33.44L4.05896 32.7979L7.01778 23.9189C4.92764 22.3199 3.0218 20.2947 1.8405 17.907C-2.4427 9.25558 3.59988 4.72705 11.7333 4.00747C16.0563 3.62466 20.7177 3.64522 25.097 3.39867C25.9429 3.35131 26.7944 3.34372 27.6401 3.32097L28.2021 4.31144L28.5736 3.3728L35.2892 3.01434L38.0968 7.98625L43.1363 7.83876L44.5741 10.2476L45.3597 7.77007L51.7109 7.53609L54.1402 11.8304L57.7769 2.08619L64.0351 1.8793L66.2542 6.13339ZM4.50372 32.9595L11.5959 32.6913L15.6363 20.5589C18.8913 19.5953 22.1664 17.8365 23.8438 14.7666L21.8513 14.2905C20.8797 15.8791 19.1898 17.2684 17.3412 17.7022C17.1891 17.7377 16.5326 17.8712 16.5993 17.6062L19.0851 10.4425L25.3441 9.74562L27.418 3.82856C26.5182 3.88206 25.6097 3.87028 24.709 3.92586C19.0155 4.27438 9.69701 3.72364 4.86063 6.40351C-1.3629 9.8513 0.186891 17.009 6.16186 19.725C6.51767 19.8868 8.58526 20.5108 8.62947 20.6793L4.50274 32.9605L4.50372 32.9595ZM34.8686 3.54686L29.1027 3.76486C28.7935 4.3762 28.5438 5.0468 28.3053 5.68827C26.8948 9.48916 25.1937 13.8802 24.058 17.7271C23.2893 20.33 23.0108 23.5387 25.2229 25.5246C27.0731 27.1849 31.0632 26.4898 32.5463 24.5281L33.7971 22.5333C34.5996 27.2899 41.3525 26.9443 43.2216 23.1015C44.7173 27.1246 49.5139 25.5021 51.2759 22.5889L50.5174 25.4857L55.5498 25.1796L58.7921 15.9556C58.8451 16.9776 58.6535 17.9402 58.7491 18.9832C59.2618 24.5656 63.9962 26.652 68.4064 23.1128C69.6122 22.1457 70.5639 20.8397 71.0834 19.3819C71.2447 19.3758 71.2928 20.4585 71.3517 20.69C72.3604 24.626 76.56 25.196 79.7766 23.5132C84.3327 21.1299 86.4113 14.4726 89.3556 10.5082C89.8692 9.81529 90.5589 8.98968 91.3175 8.58173C91.3457 8.8687 91.0365 9.09976 90.9955 9.36782C90.6752 11.471 93.0315 11.7796 93.2919 13.4755C93.7813 16.6561 90.2457 17.6355 88.0832 16.0167L87.8659 16.028L85.1141 21.4581C88.945 23.4761 93.6332 22.9616 97.3959 21.0379C100.342 19.5324 103.373 16.3006 104.574 13.2027C104.728 12.8063 104.763 12.3652 104.976 11.9882L104.967 11.8747L102.994 10.6004C102.822 13.028 100.829 15.1248 98.5948 15.8868C99.5758 14.2209 98.7315 11.8737 97.6978 10.4172C97.1665 9.66855 96.2465 9.1088 96.0607 8.14306C95.9144 7.38289 96.2948 6.43776 96.7276 5.82175L96.6433 5.541C93.6479 4.36577 90.4099 6.39991 88.2758 8.39845C86.4409 10.1171 85.2419 12.3448 83.7102 14.3195C82.47 15.9183 80.71 17.9663 78.4619 16.732C78.2071 16.592 77.707 16.1302 77.5907 15.8681C77.3193 15.2602 77.3659 14.4641 77.4642 13.8187L79.5563 13.7396C80.3997 13.7077 81.9765 12.5195 82.4955 11.8336C84.6177 9.03186 82.8539 5.95063 79.372 6.26782C75.89 6.585 73.3476 9.65478 71.9445 12.4898C70.7809 14.8412 70.7901 17.0057 68.2022 18.3869C65.7927 19.6722 62.9883 18.4641 63.5509 15.4969C66.2682 15.0497 70.7405 11.4754 70.4205 8.50055C70.3069 7.4429 69.2573 6.8081 68.3069 6.6339C65.1201 6.04916 62.1803 8.9679 60.4061 11.2901L63.546 2.46669L58.1886 2.66925C56.8694 5.80246 55.8869 9.07875 54.7204 12.2749C53.9069 14.5033 53.0459 17.2881 52.0752 19.3892C51.1849 21.3162 48.4799 22.4394 48.1473 19.5931L51.595 8.03967L45.7781 8.2596L42.9527 17.722C42.24 18.8826 40.3349 19.1228 40.1934 17.4348L42.8191 8.3725L37.1645 8.47662L33.6495 18.8466C32.9875 20.1858 30.3769 20.3183 30.3231 18.6259C30.2912 17.6451 31.6127 13.9532 31.9817 12.7584C32.7407 10.3065 33.6471 7.8849 34.3969 5.4313C34.4752 5.17515 34.9546 3.63074 34.8709 3.5519L34.8686 3.54686ZM81.0081 25.525C80.8159 25.3641 80.8491 25.0533 80.4557 25.223C80.1378 25.359 78.997 26.585 78.564 26.9243C74.2032 30.3375 68.3149 31.5903 62.8493 31.4741C58.5114 31.3818 54.8318 29.474 50.6774 28.6634C42.1635 27.0018 32.4257 27.3136 24.177 30.0713C23.6813 30.2376 20.2676 31.5475 20.2079 31.8091L22.6384 38.1094C28.4217 35.2687 35.0805 34.3025 41.5046 34.3199C47.6342 34.3373 51.6407 35.7787 57.3502 37.0983C66.243 39.1556 76.8788 37.8463 83.9615 31.8372C84.6065 31.2901 85.1713 30.6516 85.8025 30.0917L85.7907 29.7795C84.1258 28.4474 82.6426 26.8921 81.0101 25.5239L81.008 25.5239L81.0081 25.525Z" fill="#D2451E"/>
<path d="M65.7223 12.3796C64.5722 13.6009 62.0814 14.4679 60.4254 14.5623C60.3145 14.4681 61.3493 13.0083 61.4869 12.836C62.2005 11.9397 64.928 9.19406 66.128 10.1543L66.3791 10.523C66.564 11.1669 66.146 11.929 65.7223 12.3786L65.7223 12.3796Z" fill="#D2451E"/>
<path d="M81.3722 9.90894C82.464 11.3089 78.9711 13.0677 77.8217 12.4705C77.6372 12.2684 78.7762 10.7523 79.0119 10.522C79.5237 10.0229 80.7811 9.15123 81.3722 9.90997L81.3722 9.90894Z" fill="#D2451E"/>
<path d="M12.1414 10.6538L9.93404 17.0423C7.94272 16.7588 4.73086 14.8886 6.34266 12.5172C7.4188 10.9338 10.3493 10.2305 12.1414 10.6528L12.1414 10.6538Z" fill="#D2451E"/>
</g>
<defs>
<clipPath id="clip0_2_714">
<rect width="107.222" height="41.5051" fill="white" transform="translate(0.100586 4.26685) rotate(-2.16527)"/>
</clipPath>
</defs>
</svg>
