<?xml version="1.0" encoding="UTF-8" standalone="no"?>
<!-- Created with Inkscape (http://www.inkscape.org/) -->

<svg
   version="1.1"
   id="svg1"
   width="3052.2"
   height="1979.9067"
   viewBox="0 0 3052.2 1979.9067"
   xmlns="http://www.w3.org/2000/svg"
   xmlns:svg="http://www.w3.org/2000/svg">
  <defs
     id="defs1">
    <clipPath
       clipPathUnits="userSpaceOnUse"
       id="clipPath92">
      <path
         d="M 0,1484.927 H 2289.15 V 0 H 0 Z"
         transform="translate(-1861.2995,-869.38572)"
         id="path92" />
    </clipPath>
    <clipPath
       clipPathUnits="userSpaceOnUse"
       id="clipPath94">
      <path
         d="M 0,1484.927 H 2289.15 V 0 H 0 Z"
         transform="translate(-1309.4988,-886.79382)"
         id="path94" />
    </clipPath>
    <clipPath
       clipPathUnits="userSpaceOnUse"
       id="clipPath96">
      <path
         d="M 0,1484.927 H 2289.15 V 0 H 0 Z"
         transform="translate(-1482.2388,-876.62432)"
         id="path96" />
    </clipPath>
    <clipPath
       clipPathUnits="userSpaceOnUse"
       id="clipPath98">
      <path
         d="M 0,1484.927 H 2289.15 V 0 H 0 Z"
         transform="translate(-554.70891,-937.39033)"
         id="path98" />
    </clipPath>
  </defs>
  <g
     id="layer-MC1"
     transform="translate(-7684.8932)">
    <path
       id="path91"
       d="m 0,0 c -12.121,-33.896 -31.845,-62.706 -58.454,-86.829 -24.821,-22.502 -53.253,-38.692 -85.446,-48.154 -14.92,-4.386 -30.144,-6.993 -45.68,-7.886 -26.103,-1.5 -51.419,2.185 -75.856,11.472 -5.974,2.27 -11.702,5.186 -17.535,7.824 -0.59,0.267 -1.123,0.66 -1.486,0.878 -0.168,0.366 -0.262,0.481 -0.26,0.595 0.002,0.123 0.083,0.251 0.149,0.367 14.046,24.872 28.093,49.744 42.149,74.611 0.125,0.222 0.361,0.385 0.56,0.559 0.098,0.084 0.228,0.13 0.286,0.161 2.596,-1.688 5.11,-3.452 7.746,-5.011 7.357,-4.351 15.35,-6.851 23.846,-7.571 9.547,-0.809 18.743,0.815 27.048,5.631 13.194,7.651 19.643,19.245 18.748,34.594 -0.372,6.387 -2.67,12.206 -6.14,17.573 -3.081,4.766 -7.082,8.682 -11.345,12.353 -2.95,2.54 -5.666,5.291 -7.892,8.49 -3.168,4.554 -5.403,9.478 -6.046,15.069 -0.751,6.542 0.832,12.436 4.629,17.77 0.694,0.974 1.444,1.908 2.168,2.86 0.033,0.131 0.047,0.24 0.05,0.332 -0.189,0.076 -0.361,0.183 -0.517,0.311 -0.978,-0.192 -1.873,-0.454 -2.642,-0.92 -4.017,-2.432 -7.58,-5.458 -10.98,-8.678 -8.175,-7.742 -15.289,-16.412 -22.006,-25.411 -11.355,-15.212 -21.285,-31.341 -30.918,-47.682 -13.086,-22.196 -26.624,-44.119 -42.346,-64.596 -8.299,-10.81 -16.78,-21.489 -26.445,-31.12 -16.908,-16.847 -36.796,-28.616 -60.117,-34.222 -13.556,-3.259 -27.213,-3.878 -40.861,-0.541 -25.619,6.264 -42.334,22.138 -50.416,47.145 -1.976,6.113 -3.092,12.421 -3.391,18.858 -0.111,2.4 -0.264,4.798 -0.398,7.196 -0.269,0.665 -0.423,0.661 -0.577,0.657 -9.196,-26.055 -26.705,-44.876 -49.58,-59.158 -12.001,-7.492 -25.005,-12.594 -38.991,-15.029 -11.773,-2.05 -23.405,-1.871 -34.746,2.383 -11.824,4.435 -21.382,11.94 -29.192,21.751 -8.277,10.397 -13.714,22.212 -17.186,34.971 -4.403,16.186 -5.216,32.626 -3.451,49.254 0.678,6.385 1.791,12.682 3.275,18.923 0.208,0.877 0.24,1.796 0.368,2.816 -1.412,-0.209 -1.422,-1.276 -1.715,-2.026 -4.32,-11.058 -8.617,-22.125 -12.898,-33.198 -12.076,-31.228 -24.141,-62.46 -36.215,-93.688 -0.33,-0.855 -0.714,-1.689 -1.158,-2.731 -23.853,-0.293 -47.616,-0.349 -71.709,-0.49 0.851,3.755 2.595,6.904 3.699,10.266 1.165,3.547 2.44,7.059 3.693,10.577 1.208,3.393 2.466,6.768 3.673,10.161 1.206,3.393 2.377,6.799 3.563,10.199 0.046,0.554 -0.159,0.522 -0.365,0.491 -7.785,-10.591 -16.575,-19.638 -27.255,-26.803 -9.421,-6.322 -19.616,-10.799 -30.831,-12.819 -8.263,-1.489 -16.511,-1.501 -24.625,0.751 -15.997,4.438 -26.143,14.883 -30.927,30.67 -0.425,1.402 -0.744,2.837 -1.112,4.258 -1.344,0.313 -1.507,-0.865 -1.881,-1.597 -2.943,-5.759 -6.714,-10.906 -11.257,-15.499 -10.029,-10.138 -22.118,-16.682 -35.852,-20.181 -15.808,-4.026 -31.499,-3.593 -46.891,2.065 -10.22,3.757 -19.033,9.62 -25.989,18.1 -6.36,7.753 -10.011,16.633 -11.047,26.598 -0.069,0.66 -0.09,1.339 -0.273,1.968 -0.096,0.328 -0.463,0.737 -0.77,0.799 -0.318,0.064 -0.866,-0.147 -1.04,-0.415 -0.432,-0.662 -0.729,-1.415 -1.042,-2.148 -4.076,-9.541 -9.651,-18.11 -16.542,-25.861 -8.199,-9.222 -18.304,-15.447 -29.948,-19.286 -17.331,-5.714 -34.824,-6.486 -52.428,-1.392 -7.107,2.057 -13.905,4.98 -19.374,10.088 -9.351,8.736 -16.129,19.171 -19.624,31.589 -2.991,10.629 -4.235,21.432 -3.599,32.488 0.905,15.722 4.135,30.97 9.613,45.67 5.682,15.247 11.901,30.295 17.918,45.416 19.238,48.353 38.492,96.699 57.742,145.048 0.441,1.107 0.903,2.206 1.283,3.133 0.29,0.208 0.393,0.295 0.508,0.362 0.112,0.065 0.235,0.154 0.354,0.154 26.727,0.093 53.455,0.181 80.182,0.261 0.793,0.002 1.587,-0.072 2.669,-0.124 -0.397,-1.266 -0.705,-2.397 -1.104,-3.495 -15.215,-41.879 -30.485,-83.739 -45.64,-125.639 -6.488,-17.939 -12.671,-35.988 -19.131,-53.936 -2.578,-7.163 -4.899,-14.372 -6.606,-21.8 -2.438,-10.615 3.478,-17.138 10.344,-20.164 11.145,-4.913 24.983,-1.285 32.482,6.811 2.117,2.286 3.563,4.959 4.668,7.865 7.775,20.448 15.598,40.879 23.38,61.324 9.633,25.309 19.24,50.626 28.861,75.939 0.331,0.872 0.692,1.732 1.012,2.532 0.202,0.102 0.317,0.167 0.438,0.219 0.121,0.052 0.245,0.107 0.373,0.133 0.13,0.026 0.267,0.031 0.399,0.024 26.296,-1.428 52.629,-0.518 79.258,-1.175 -0.276,-1.153 -0.432,-2.173 -0.763,-3.133 -6.69,-19.422 -13.403,-38.837 -20.106,-58.255 -5.92,-17.148 -11.836,-34.296 -17.746,-51.447 -1.394,-4.046 -2.36,-8.179 -2.961,-12.433 -1.074,-7.601 3.207,-16.59 14.153,-17.927 2.337,-0.285 4.847,-0.126 7.144,0.404 9.062,2.091 15.653,7.391 19.036,16.12 2.891,7.458 5.415,15.062 7.999,22.636 11.328,33.201 22.617,66.416 33.928,99.624 0.428,1.256 0.935,2.484 1.351,3.58 0.283,0.167 0.391,0.24 0.506,0.296 0.12,0.058 0.248,0.143 0.373,0.143 26.193,0.01 52.387,0.015 78.58,0.012 0.391,0 0.782,-0.095 1.17,-0.166 0.126,-0.023 0.241,-0.112 0.588,-0.282 -0.362,-1.213 -0.681,-2.486 -1.12,-3.716 -8.912,-25.003 -17.85,-49.997 -26.756,-75.002 -6.938,-19.476 -13.85,-38.962 -20.749,-58.452 -1.914,-5.406 -3.801,-10.821 -4.864,-16.483 -0.842,-4.486 -1.358,-8.94 -0.431,-13.508 2.456,-12.099 12.69,-18.699 24.264,-16.626 9.353,1.676 16.764,6.716 22.946,13.691 4.017,4.532 7.007,9.695 9.241,15.358 3.084,7.817 6.442,15.525 9.673,23.284 27.604,66.279 54.244,132.947 80.642,199.713 0.537,1.358 1.083,2.712 1.716,4.297 25.848,0.091 51.614,0.182 77.356,0.273 0.897,-1.365 -0.128,-2.376 -0.554,-3.388 -7.548,-17.958 -15.182,-35.88 -22.717,-53.843 -7.897,-18.824 -15.715,-37.682 -23.548,-56.532 -1.126,-2.71 -2.162,-5.457 -3.203,-8.201 -0.123,-0.326 -0.017,-0.74 -0.017,-1.524 0.798,0.691 1.43,1.102 1.887,1.656 3.398,4.123 6.635,8.386 10.159,12.396 12.345,14.048 26.399,26.088 42.545,35.6 8.656,5.1 17.671,9.446 27.444,11.951 12.839,3.291 25.645,3.146 38.298,-1.006 2.27,-0.745 4.507,-1.712 6.597,-2.869 4.322,-2.393 8.507,-5.895 11.545,-10.451 l 2.45,-4.516 c 2.212,-5.151 2.996,-11.317 1.363,-18.455 -1.23,-5.377 -3.293,-10.421 -5.759,-15.317 -3.5,-6.947 -7.792,-13.389 -12.771,-19.353 -17.076,-20.454 -38.108,-35.284 -63.25,-44.205 -2.889,-1.025 -5.846,-1.874 -8.806,-2.675 -2.828,-0.764 -5.703,-1.359 -8.749,-2.074 -0.312,-0.796 -0.745,-1.614 -0.959,-2.487 -4.526,-18.409 4.18,-38.708 25.798,-45.177 9.205,-2.755 18.462,-2.32 27.659,0.332 7.384,2.13 14.192,5.456 20.498,9.806 7.971,5.497 14.992,12.029 21.037,19.603 2.69,3.369 4.622,7.09 6.101,11.172 9.175,25.333 20.625,49.57 36.606,71.369 14.684,20.029 33.067,35.897 55.632,46.629 9.087,4.322 18.602,7.396 28.555,8.988 10.423,1.666 20.751,1.6 30.881,-1.867 15.932,-5.453 25.792,-16.542 30.284,-32.585 0.46,-1.643 0.561,-3.427 0.576,-5.148 0.117,-13.41 -3.958,-25.525 -11.826,-36.291 -9.738,-13.326 -22.871,-21.815 -38.683,-26.288 -10.703,-3.027 -21.568,-3.523 -32.558,-2.099 -0.772,0.099 -1.555,0.112 -2.488,0.176 -0.387,-0.8 -0.831,-1.471 -1.05,-2.208 -2.347,-7.913 -2.396,-15.834 0.404,-23.625 4.171,-11.604 12.686,-18.152 24.619,-20.445 9.376,-1.802 18.367,-0.182 26.983,3.601 8.16,3.584 15.331,8.569 21.266,15.341 10.305,11.757 20.256,23.792 29.656,36.288 5.539,7.363 11.26,14.589 16.911,21.868 3.193,4.113 6.384,8.228 9.627,12.302 1.661,2.087 3.339,4.175 5.172,6.107 8.832,9.309 17.824,18.457 27.805,26.566 7.264,5.901 14.703,11.559 22.735,16.392 12.195,7.338 25.078,13.082 38.894,16.619 9.377,2.401 18.893,3.6 28.585,2.871 7.819,-0.589 15.272,-2.493 22.092,-6.494 0.776,-0.456 1.463,-1.062 2.3,-1.678 -0.92,-1.219 -1.725,-2.259 -2.501,-3.32 -4.308,-5.898 -7.464,-12.294 -8.678,-19.576 -1.604,-9.629 0.759,-18.263 6.425,-26.072 1.173,-1.616 2.481,-3.162 3.894,-4.571 10.128,-10.1 16.947,-22.234 21.921,-35.5 2.971,-7.922 4.703,-16.133 5.37,-24.562 0.467,-5.9 0.019,-11.744 -1.361,-17.504 -0.845,-3.524 -2.126,-6.877 -4.033,-9.978 -0.407,-0.662 -0.737,-1.371 -1.327,-2.482 1.411,0.181 2.483,0.126 3.404,0.47 3.37,1.26 6.811,2.414 10.007,4.039 11.539,5.868 21.838,13.52 30.496,23.118 10.362,11.487 17.469,24.843 21.13,39.944 0.369,1.523 0.645,3.068 0.941,4.491 0.302,0.118 0.421,0.199 0.544,0.204 0.127,0.005 0.284,-0.028 0.381,-0.105 C -16.926,15.332 -9.052,9.144 -1.182,2.948 -0.669,2.545 -0.2,2.087 0.361,1.59 0.232,1.007 0.173,0.483 0,0 m -277.606,-241.952 c -1.139,-1.582 -2.475,-2.664 -3.708,-3.817 -24.961,-23.337 -52.808,-42.488 -83.475,-57.566 -28.529,-14.027 -58.372,-24.224 -89.422,-30.983 -13.581,-2.956 -27.27,-5.268 -41.06,-6.923 -11.141,-1.337 -22.322,-2.266 -33.543,-2.771 -11.222,-0.504 -22.44,-0.756 -33.665,-0.403 -13.623,0.428 -27.214,1.314 -40.776,2.753 -31.688,3.362 -62.782,9.641 -93.322,18.68 -5.108,1.512 -10.134,3.327 -15.131,5.185 -25.942,9.649 -52.504,17.12 -79.559,22.907 -14.236,3.045 -28.547,5.692 -42.956,7.723 -12.03,1.696 -24.112,3.065 -36.195,4.352 -22.74,2.424 -45.567,3.353 -68.428,3.467 -16.574,0.082 -33.14,-0.328 -49.683,-1.384 -14,-0.895 -27.973,-2.159 -41.887,-3.943 -34.5,-4.425 -68.457,-11.363 -101.536,-22.28 -13.062,-4.311 -25.887,-9.225 -38.356,-15.05 -0.955,-0.447 -1.952,-0.807 -3.179,-1.31 -10.172,30.225 -20.482,60.223 -30.067,90.737 0.937,0.536 1.788,1.126 2.718,1.54 13.18,5.871 26.648,10.988 40.373,15.44 21.103,6.846 42.578,12.271 64.275,16.841 14.51,3.056 29.097,5.708 43.783,7.731 10.319,1.422 20.687,2.502 31.049,3.583 13.836,1.443 27.727,1.8 41.631,1.952 8.011,0.088 16.019,0.538 24.028,0.815 1.335,0.047 2.673,0.077 4.008,0.058 16.437,-0.229 32.871,-0.55 49.263,-1.906 10.651,-0.882 21.302,-1.763 31.947,-2.722 4.121,-0.371 8.223,-0.954 12.334,-1.441 36.011,-4.415 70.91,-10.829 105.265,-20.077 13.148,-3.54 26.136,-7.613 38.959,-12.179 5.652,-2.013 11.128,-4.514 16.732,-6.666 19.369,-7.437 39.309,-12.825 59.715,-16.546 20.561,-3.749 41.289,-5.562 62.182,-5.616 11.23,-0.029 22.45,0.097 33.653,0.976 49.113,3.854 95.6,16.638 138.758,40.745 13.331,7.447 25.9,16.02 37.546,25.896 4.377,3.711 8.475,7.751 12.697,11.643 0.679,0.626 1.348,1.262 2.219,2.079 24.267,-23.836 48.457,-47.597 72.813,-71.52 m -887.769,218.653 c -12.706,-11.805 -27.011,-21.358 -42.323,-29.415 -11.842,-6.232 -24.158,-11.347 -37.106,-14.821 -4.121,-1.106 -8.321,-1.921 -12.481,-2.882 -1.297,-0.299 -2.585,-0.642 -4.147,-1.032 -0.691,-1.617 -1.492,-3.288 -2.129,-5.018 -10.699,-29.045 -21.365,-58.101 -32.063,-87.145 -8.392,-22.784 -16.821,-45.555 -25.227,-68.334 -1.015,-2.752 -1.989,-5.518 -3.071,-8.524 -11.351,-0.088 -22.692,-0.173 -34.033,-0.186 -11.227,-0.011 -22.453,-0.06 -33.68,-0.06 -11.301,0.001 -22.603,-0.18 -34.061,-0.257 0.092,0.795 0.05,1.202 0.189,1.532 8.789,20.916 16.81,42.133 24.817,63.355 7.959,21.098 15.852,42.222 23.846,63.307 4.918,12.969 9.974,25.886 14.963,38.828 0.522,1.355 1.005,2.724 1.47,3.99 -0.737,1.413 -2.039,1.493 -3.112,1.875 -4.65,1.655 -9.391,3.071 -13.975,4.888 -16.726,6.635 -32.445,15.121 -46.412,26.54 -11.678,9.548 -21.475,20.79 -29.032,33.916 -5.737,9.966 -9.112,20.76 -11.036,32.006 -2.789,16.31 -0.566,32.19 4.713,47.727 1.988,5.853 4.963,11.213 8.409,16.329 10.449,15.512 24.156,27.242 40.632,36.063 15.426,8.259 31.727,13.956 48.612,18.208 1.036,0.261 2.071,0.525 3.106,0.787 9.758,2.308 18.971,3.795 28.262,4.942 13.306,1.642 26.664,1.652 40.023,1.688 21.651,0.059 43.302,-0.035 64.953,0.002 44.37,0.076 88.74,0.197 133.11,0.299 1.577,0.003 3.154,0 4.775,0 0.415,-1.689 -0.547,-2.777 -1.025,-3.952 -7.994,-19.652 -16.038,-39.283 -24.026,-58.937 -2.311,-5.686 -4.48,-11.428 -6.718,-17.144 -0.383,-0.981 -0.782,-1.956 -1.215,-3.037 -0.996,-0.085 -1.911,-0.203 -2.828,-0.235 -14.024,-0.489 -28.046,-1.018 -42.072,-1.434 -11.353,-0.336 -22.711,-0.53 -34.067,-0.792 -1.737,-0.04 -3.474,-0.169 -5.21,-0.143 -2.007,0.031 -3.27,-0.965 -4.058,-2.687 -0.499,-1.091 -0.949,-2.206 -1.376,-3.327 -5.744,-15.086 -11.476,-30.177 -17.219,-45.263 -6.075,-15.959 -12.16,-31.915 -18.238,-47.873 -0.379,-0.993 -0.732,-1.997 -1.184,-3.233 0.79,-0.256 1.494,-0.674 2.203,-0.684 6.353,-0.088 12.504,1.207 18.461,3.243 18.327,6.261 34.158,16.337 46.62,31.314 2.802,3.367 5.134,7.126 7.945,11.074 4.434,-0.657 9.082,-2.289 13.852,-3.346 4.686,-1.038 9.329,-2.271 14.251,-3.483 -0.382,-0.94 -0.638,-1.799 -1.057,-2.569 -5.426,-9.973 -12.771,-18.424 -21.031,-26.1 M 37.252,-59.665 C 26.916,-38.428 16.56,-17.2 6.255,4.053 5.361,5.897 4.264,7.442 2.619,8.704 c -9.755,7.477 -19.463,15.016 -29.197,22.522 -0.502,0.387 -1.091,0.662 -1.739,1.048 -0.302,-0.651 -0.6,-1.108 -0.732,-1.609 -0.956,-3.611 -1.867,-7.234 -2.812,-10.848 -2.786,-10.647 -6.679,-20.835 -12.58,-30.184 -0.692,-1.097 -1.46,-2.147 -2.272,-3.336 -1.407,1.076 -1.796,2.549 -2.458,3.809 -18.077,34.376 -36.147,68.755 -54.153,103.169 -1.229,2.35 -2.882,4.094 -5.054,5.504 -3.489,2.264 -7.185,4.101 -11.073,5.558 -12.101,4.534 -24.544,4.919 -37.123,2.801 -12.876,-2.169 -25.007,-6.64 -36.61,-12.549 -20.971,-10.679 -39.954,-24.196 -57.195,-40.194 -7.172,-6.655 -13.58,-13.994 -19.735,-21.573 -1.077,-1.327 -2.221,-2.598 -3.498,-4.084 -0.773,1.318 -1.392,2.338 -1.977,3.376 -6.224,11.048 -12.41,22.117 -18.673,33.143 -4.174,7.349 -9.197,14.089 -15.085,20.16 -6.056,6.244 -13.162,10.834 -21.5,13.477 -11.868,3.761 -23.903,3.958 -36.054,1.781 -10.464,-1.875 -20.364,-5.441 -29.82,-10.236 C -420.247,78.51 -440,62.104 -455.532,40.715 c -0.58,-0.799 -1.021,-1.786 -2.16,-2.368 -0.864,1.47 -1.621,2.704 -2.327,3.966 -7.107,12.697 -14.247,25.375 -21.289,38.107 -3.867,6.991 -9.394,12.233 -16.263,16.178 -8.91,5.117 -18.62,7.184 -28.768,7.529 -4.289,0.146 -8.538,-0.264 -12.705,-1.379 -0.618,-0.165 -1.284,-0.154 -2.11,-0.245 -2.097,4.416 -4.159,8.741 -6.207,13.072 -7.358,15.564 -14.739,31.116 -22.03,46.71 -0.938,2.006 -2.25,2.852 -4.367,2.654 -0.399,-0.037 -0.801,-0.052 -1.201,-0.056 -5.874,-0.06 -11.747,-0.15 -17.621,-0.166 -21.783,-0.061 -43.567,-0.096 -65.35,-0.147 -0.909,-0.002 -1.817,-0.075 -2.88,-0.121 -1.013,-2.314 -2.035,-4.476 -2.917,-6.694 -9.375,-23.561 -18.757,-47.12 -28.076,-70.703 -7.258,-18.37 -14.421,-36.778 -21.663,-55.155 -0.472,-1.2 -0.59,-2.629 -1.942,-3.616 -10.251,20.845 -20.467,41.619 -30.73,62.489 -29.99,0.169 -59.768,0.76 -89.633,0.626 -4.223,-11.612 -8.396,-23.086 -12.763,-35.093 -0.86,1.309 -1.488,2.122 -1.965,3.015 -5.099,9.533 -10.17,19.081 -15.259,28.619 -0.62,1.161 -1.306,2.286 -2.014,3.519 h -70.882 c -12.384,24.155 -24.732,48.237 -37.131,72.42 -1.5,0 -2.828,0.012 -4.156,-0.002 -4.945,-0.051 -9.89,-0.138 -14.835,-0.16 -23.656,-0.106 -47.313,-0.195 -70.97,-0.293 -0.8,-0.004 -1.609,0.022 -2.399,-0.085 -1.121,-0.152 -1.888,-0.705 -2.332,-1.874 -1.42,-3.742 -2.95,-7.443 -4.458,-11.151 -0.234,-0.577 -0.26,-1.35 -1.383,-1.53 -2.371,4.464 -3.796,9.462 -6.441,14.108 -1.575,0 -3.169,0.012 -4.763,-0.001 -61.078,-0.519 -122.156,-0.994 -183.233,-1.591 -16.295,-0.159 -32.594,0.321 -48.887,-0.676 -10.957,-0.67 -21.816,-1.933 -32.619,-3.791 -9.357,-1.609 -18.486,-4.126 -27.584,-6.817 -21.205,-6.272 -40.229,-16.501 -56.756,-31.192 -11.482,-10.206 -21.063,-21.922 -27.704,-35.935 -5.006,-10.564 -7.462,-21.671 -7.858,-33.271 -0.307,-8.974 0.569,-17.892 1.987,-26.739 1.97,-12.291 5.292,-24.235 9.697,-35.88 8.476,-22.404 20.251,-42.938 35.191,-62.005 2.574,-3.098 4.912,-6.022 7.373,-8.838 2.462,-2.816 4.992,-5.577 7.59,-8.268 2.598,-2.69 5.265,-5.32 7.997,-7.874 2.732,-2.553 5.532,-5.041 8.395,-7.446 2.836,-2.383 5.789,-4.628 8.73,-6.965 -0.459,-1.347 -0.814,-2.485 -1.232,-3.599 -10.211,-27.234 -20.449,-54.458 -30.637,-81.702 -4.626,-12.37 -9.193,-24.764 -13.705,-37.176 -1.611,-4.431 -1.533,-4.488 0.652,-8.633 11.392,-21.606 22.8,-43.204 34.211,-64.799 0.49,-0.928 1.065,-1.81 1.642,-2.785 1.954,-0.067 3.811,-0.174 5.669,-0.187 29.938,-0.204 59.876,-0.405 89.814,-0.578 3.474,-0.02 6.952,0.25 10.422,0.151 2.256,-0.065 3.471,0.893 4.145,2.91 0.422,1.263 0.983,2.48 1.436,3.734 18.969,52.584 37.932,105.171 56.901,157.754 0.357,0.987 0.79,1.947 1.145,2.817 0.555,0.206 0.917,0.396 1.303,0.476 11.81,2.433 23.21,6.172 34.273,10.923 11.447,4.916 22.433,10.658 32.111,18.639 0.284,0.233 0.691,0.318 1.196,0.541 1.11,-2.462 2.124,-4.88 3.274,-7.233 11.363,-23.261 22.751,-46.511 34.122,-69.769 0.338,-0.69 0.567,-1.434 0.886,-2.252 -0.713,-0.197 -1.218,-0.338 -1.723,-0.476 -10.689,-2.912 -21.434,-5.631 -32.053,-8.778 -18.441,-5.466 -36.595,-11.768 -54.118,-19.77 -2.288,-1.045 -4.547,-2.155 -6.589,-3.125 -0.614,-1.754 0.088,-2.96 0.503,-4.211 9.994,-30.136 19.988,-60.272 29.984,-90.407 1.01,-3.043 2.268,-5.97 3.733,-8.832 5.655,-11.047 11.233,-22.136 16.831,-33.212 5.358,-10.601 10.697,-21.211 16.072,-31.803 0.638,-1.257 1.013,-2.737 2.433,-3.613 1.278,0.583 2.487,1.125 3.689,1.683 13.205,6.133 26.704,11.536 40.506,16.168 34.053,11.427 69.074,18.537 104.631,23.119 11.786,1.518 23.646,2.495 35.489,3.524 16.516,1.436 33.078,2.025 49.654,2.12 23.268,0.132 46.486,-0.91 69.671,-2.895 13.183,-1.129 26.328,-2.557 39.417,-4.443 15.993,-2.304 31.892,-5.165 47.703,-8.513 26.814,-5.678 53.082,-13.253 78.727,-22.907 12.248,-4.611 24.544,-9.019 37.165,-12.502 16.883,-4.659 33.999,-8.147 51.344,-10.592 12.979,-1.829 26.01,-3.076 39.091,-3.655 18.302,-0.81 36.603,-0.71 54.899,0.502 11.74,0.778 23.432,1.979 35.075,3.601 15.083,2.1 30.032,4.955 44.825,8.591 28.339,6.965 55.824,16.376 82.149,29.015 25.027,12.016 48.517,26.469 69.638,44.603 7.714,6.624 15.188,13.489 21.706,21.325 0.751,0.902 1.779,1.657 1.857,3.203 -0.296,0.687 -0.629,1.556 -1.033,2.39 -10.542,21.732 -21.099,43.456 -31.627,65.194 -1.007,2.08 -2.393,3.83 -4.029,5.428 -9.753,9.522 -19.497,19.052 -29.235,28.588 -0.845,0.828 -1.623,1.722 -2.465,2.619 0.54,0.498 0.906,0.891 1.326,1.213 13.41,10.288 25.717,21.716 36.254,34.981 0.278,0.35 0.791,0.513 1.281,0.817 4.172,-9.374 8.304,-18.487 12.259,-27.677 0.859,-1.998 2.071,-3.178 4.009,-4.073 23.825,-11 48.938,-16.772 75.045,-18.269 14.034,-0.805 28.027,-0.083 41.96,2.09 19.801,3.088 38.754,8.835 56.816,17.475 40.149,19.203 70.916,48.55 93.419,86.742 7.955,13.5 14.26,27.771 19.042,42.691 1.49,4.65 1.366,3.733 -0.504,7.574"
       style="fill:#d2451e;fill-opacity:1;fill-rule:nonzero;stroke:none"
       transform="matrix(1.3333333,0,0,-1.3333333,10166.626,820.72573)"
       clip-path="url(#clipPath92)" />
    <path
       id="path93"
       d="m 0,0 c 2.715,2.783 5.097,5.818 7.053,9.176 2.127,3.652 3.285,7.55 2.994,11.832 -0.23,3.379 -1.63,6.09 -4.203,8.304 -3.679,3.166 -7.951,3.484 -12.441,2.753 -3.572,-0.581 -6.947,-1.827 -10.231,-3.334 -6.331,-2.905 -12.205,-6.568 -17.746,-10.767 -16.22,-12.291 -29.733,-27.099 -41.045,-44.339 -0.639,-1.292 -1.778,-2.091 -1.365,-3.537 1.453,0 2.923,-0.155 4.349,0.028 5.156,0.661 10.343,1.197 15.433,2.211 14.487,2.883 28.181,8.002 40.985,15.383 C -10.307,-8.884 -4.791,-4.911 0,0"
       style="fill:#d2451e;fill-opacity:1;fill-rule:nonzero;stroke:none"
       transform="matrix(1.3333333,0,0,-1.3333333,9430.8917,797.51493)"
       clip-path="url(#clipPath94)" />
    <path
       id="path95"
       d="m 0,0 c 6.553,-1.223 13.051,-0.735 19.457,0.879 9.902,2.495 18.766,6.88 25.86,14.872 1.687,2.107 2.992,4.103 3.841,6.388 1.004,2.701 1.296,5.428 0.621,8.248 -0.913,3.819 -4.528,8.155 -9.574,8.384 -2.7,0.123 -5.301,-0.004 -7.91,-0.763 -4.839,-1.409 -9.013,-4.02 -12.92,-7.063 C 9.956,23.61 2.665,14.499 -2.786,3.9 -3.204,3.085 -3.489,2.202 -3.869,1.272 -3.277,0.971 -2.832,0.662 -2.339,0.513 -1.577,0.284 -0.785,0.146 0,0"
       style="fill:#d2451e;fill-opacity:1;fill-rule:nonzero;stroke:none"
       transform="matrix(1.3333333,0,0,-1.3333333,9661.2117,811.07427)"
       clip-path="url(#clipPath96)" />
    <path
       id="path97"
       d="m 0,0 c -4.941,2.207 -18.451,3.102 -30.049,1.936 -11.378,-1.051 -21.863,-3.942 -31.736,-8.965 -4.78,-2.433 -9.25,-5.351 -13.239,-8.945 -3.779,-3.404 -7.336,-7.002 -9.797,-11.547 -4.791,-8.846 -5.11,-17.797 -0.736,-26.872 2.349,-4.875 5.697,-9.017 9.639,-12.685 4.025,-3.745 8.482,-6.915 13.223,-9.688 8.221,-4.809 16.992,-8.336 26.07,-11.137 0.988,-0.305 2.024,-0.454 2.959,-0.658 0.326,0.352 0.539,0.522 0.675,0.74 0.211,0.337 0.403,0.694 0.544,1.064 10.877,28.678 21.748,57.358 32.614,86.039 0.045,0.119 0.05,0.271 0.021,0.396 C 0.162,-0.206 0.065,-0.107 0,0"
       style="fill:#d2451e;fill-opacity:1;fill-rule:nonzero;stroke:none"
       transform="matrix(1.3333333,0,0,-1.3333333,8424.5052,730.05293)"
       clip-path="url(#clipPath98)" />
  </g>
</svg>
