<?xml version="1.0" encoding="UTF-8" standalone="no"?>
<!-- Created with Inkscape (http://www.inkscape.org/) -->

<svg
   version="1.1"
   id="svg1"
   width="4592.6934"
   height="1721.8134"
   viewBox="0 0 4592.6934 1721.8133"
   xmlns="http://www.w3.org/2000/svg"
   xmlns:svg="http://www.w3.org/2000/svg">
  <defs
     id="defs1">
    <clipPath
       clipPathUnits="userSpaceOnUse"
       id="clipPath50">
      <path
         d="M 0,1291.365 H 3444.517 V 0 H 0 Z"
         transform="translate(-1281.6279,-768.49402)"
         id="path50" />
    </clipPath>
    <clipPath
       clipPathUnits="userSpaceOnUse"
       id="clipPath52">
      <path
         d="M 0,1291.365 H 3444.517 V 0 H 0 Z"
         transform="translate(-1539.8074,-565.18761)"
         id="path52" />
    </clipPath>
    <clipPath
       clipPathUnits="userSpaceOnUse"
       id="clipPath54">
      <path
         d="M 0,1291.365 H 3444.517 V 0 H 0 Z"
         transform="translate(-517.62414,-721.14562)"
         id="path54" />
    </clipPath>
    <clipPath
       clipPathUnits="userSpaceOnUse"
       id="clipPath56">
      <path
         d="M 0,1291.365 H 3444.517 V 0 H 0 Z"
         transform="translate(-2262.6148,-741.16252)"
         id="path56" />
    </clipPath>
    <clipPath
       clipPathUnits="userSpaceOnUse"
       id="clipPath58">
      <path
         d="M 0,1291.365 H 3444.517 V 0 H 0 Z"
         transform="translate(0,-2.5e-5)"
         id="path58" />
    </clipPath>
    <clipPath
       clipPathUnits="userSpaceOnUse"
       id="clipPath60">
      <path
         d="M 0,1291.365 H 3444.517 V 0 H 0 Z"
         transform="translate(-2447.4631,-723.37322)"
         id="path60" />
    </clipPath>
    <clipPath
       clipPathUnits="userSpaceOnUse"
       id="clipPath62">
      <path
         d="M 0,1291.365 H 3444.517 V 0 H 0 Z"
         transform="translate(-2560.5267,-824.86102)"
         id="path62" />
    </clipPath>
    <clipPath
       clipPathUnits="userSpaceOnUse"
       id="clipPath64">
      <path
         d="M 0,1291.365 H 3444.517 V 0 H 0 Z"
         transform="translate(-2669.8345,-770.96872)"
         id="path64" />
    </clipPath>
    <clipPath
       clipPathUnits="userSpaceOnUse"
       id="clipPath66">
      <path
         d="M 0,1291.365 H 3444.517 V 0 H 0 Z"
         transform="translate(-2782.4287,-791.53532)"
         id="path66" />
    </clipPath>
    <clipPath
       clipPathUnits="userSpaceOnUse"
       id="clipPath68">
      <path
         d="M 0,1291.365 H 3444.517 V 0 H 0 Z"
         transform="translate(-2894.4969,-791.53532)"
         id="path68" />
    </clipPath>
    <clipPath
       clipPathUnits="userSpaceOnUse"
       id="clipPath70">
      <path
         d="M 0,1291.365 H 3444.517 V 0 H 0 Z"
         transform="translate(-3016.6485,-858.21362)"
         id="path70" />
    </clipPath>
    <clipPath
       clipPathUnits="userSpaceOnUse"
       id="clipPath72">
      <path
         d="M 0,1291.365 H 3444.517 V 0 H 0 Z"
         transform="translate(-2285.4415,-615.78062)"
         id="path72" />
    </clipPath>
    <clipPath
       clipPathUnits="userSpaceOnUse"
       id="clipPath74">
      <path
         d="M 0,1291.365 H 3444.517 V 0 H 0 Z"
         transform="translate(-2265.1309,-525.53854)"
         id="path74" />
    </clipPath>
    <clipPath
       clipPathUnits="userSpaceOnUse"
       id="clipPath76">
      <path
         d="M 0,1291.365 H 3444.517 V 0 H 0 Z"
         transform="translate(-2385.874,-570.76941)"
         id="path76" />
    </clipPath>
    <clipPath
       clipPathUnits="userSpaceOnUse"
       id="clipPath78">
      <path
         d="M 0,1291.365 H 3444.517 V 0 H 0 Z"
         transform="translate(-2375.6781,-525.53854)"
         id="path78" />
    </clipPath>
    <clipPath
       clipPathUnits="userSpaceOnUse"
       id="clipPath80">
      <path
         d="M 0,1291.365 H 3444.517 V 0 H 0 Z"
         transform="translate(-2503.4128,-595.70861)"
         id="path80" />
    </clipPath>
    <clipPath
       clipPathUnits="userSpaceOnUse"
       id="clipPath82">
      <path
         d="M 0,1291.365 H 3444.517 V 0 H 0 Z"
         transform="translate(0,-2.5e-5)"
         id="path82" />
    </clipPath>
    <clipPath
       clipPathUnits="userSpaceOnUse"
       id="clipPath84">
      <path
         d="M 0,1291.365 H 3444.517 V 0 H 0 Z"
         transform="translate(-2643.6655,-577.45082)"
         id="path84" />
    </clipPath>
    <clipPath
       clipPathUnits="userSpaceOnUse"
       id="clipPath86">
      <path
         d="M 0,1291.365 H 3444.517 V 0 H 0 Z"
         transform="translate(-2754.2191,-679.18662)"
         id="path86" />
    </clipPath>
    <clipPath
       clipPathUnits="userSpaceOnUse"
       id="clipPath88">
      <path
         d="M 0,1291.365 H 3444.517 V 0 H 0 Z"
         transform="translate(-2023.7322,-681.08391)"
         id="path88" />
    </clipPath>
    <clipPath
       clipPathUnits="userSpaceOnUse"
       id="clipPath90">
      <path
         d="M 0,1291.365 H 3444.517 V 0 H 0 Z"
         transform="translate(-2061.6304,-722.19082)"
         id="path90" />
    </clipPath>
  </defs>
  <g
     id="layer-MC1"
     transform="translate(-3072.1999)">
    <path
       id="path49"
       d="M 0,0 C 10.64,9.761 39.958,31.813 53.884,21.117 65.207,12.428 54.548,-0.357 48.026,-7.617 v 0.028 C 29.455,-28.266 -4.444,-38.467 -31.827,-39.457 -34.644,-37.312 -2.954,-2.722 0,0 m 221.708,-18.34 c 6.328,16.003 29.042,43.389 48.545,37.725 l 6.772,-10.311 c -4.093,-22.877 -34.787,-32.776 -55.342,-27.414 z m 344.855,-32.418 c -5.471,-5.857 -37.217,-31.84 -44.621,-26.753 14.584,23.261 3.01,58.319 -11.385,79.216 -12.268,17.789 -28.185,23.784 -19.397,50.702 1.076,3.327 6.272,13.253 9.501,13.804 1.358,2.722 -4.832,5.719 -6.766,6.571 -46.724,20.76 -113.783,-29.641 -142.656,-62.883 -19.697,-22.685 -55.092,-80.564 -81.092,-91.232 -32.522,-13.336 -64.356,6.654 -54.266,42.454 25.249,0.109 47.769,1.786 67.416,19.164 40.089,35.443 21.218,93.899 -34.012,90.16 -50.204,-3.409 -91.432,-47.101 -113.564,-88.51 -15.723,-29.393 -17.375,-56.917 -48.27,-76.274 -25.724,-16.14 -70.983,-14.463 -75.152,21.914 -2.817,24.692 9.226,18.588 27.433,25.874 30.094,12.016 78.032,51.363 77.287,86.64 C 116.493,65.413 89.029,72.507 67.973,71.875 37.748,70.968 3.705,44.516 -16.274,23.262 -21.243,17.982 -24.755,11.63 -30.394,7.011 l 50.98,126.785 -80.047,-2.777 c -18.12,-46.579 -36.14,-93.267 -55.255,-139.461 -11.773,-28.43 -27.577,-75.394 -42.361,-100.14 -16.161,-27.056 -58.904,-31.263 -54.235,7.479 2.122,17.57 12.956,37.917 18.734,54.607 12.211,35.332 24.228,70.72 37.547,105.64 h -0.056 -84.96 c 0.163,-1.898 -0.056,-3.767 -0.72,-5.582 -12.987,-35.415 -23.571,-71.875 -36.86,-107.097 -3.289,-8.744 -7.488,-23.647 -15.197,-28.706 -11.025,-7.204 -24.508,-8.001 -31.581,4.647 l -0.664,13.5 42.524,123.211 -82.671,1.512 -56.034,-146.004 c -11.936,-21.667 -52.691,-20.815 -47.911,9.623 2.294,14.573 11.163,30.878 15.971,44.709 17.407,50.043 36.748,99.288 53.768,149.386 1.547,4.509 3.481,9.211 3.592,14.051 h -84.963 l -77.393,-192.721 c -19.617,-48.227 -19.783,-124.144 45.95,-132.311 40.561,-5.032 75.458,18.011 90.268,54.608 7.432,-68.631 110.024,-70.858 135.278,-14.106 2.735,3.272 6.244,-11.218 6.797,-12.235 25.45,-47.157 94.412,-18.89 114.253,19.274 l -14.865,-45.094 74.132,1.348 51.944,133.878 c 2.541,0.33 1.352,-3.134 1.077,-4.592 -25.362,-132.366 89.604,-175.397 165.12,-72.699 l 10.828,23.756 v -21.832 c 0,-21.089 26.776,-48.722 46.448,-55.24 104.307,-34.534 163.931,109.435 210.436,172.979 11.241,15.398 22.682,33.682 40.502,42.151 -5.94,-11.383 -7.987,-19.082 -2.372,-31.235 4.475,-9.734 15.441,-15.563 21.381,-23.812 13.538,-18.808 10.915,-43.004 -10.716,-55.35 -21.637,-12.345 -42.33,-5.636 -62.089,6.132 l -43.326,-77.484 c 27.44,-15.92 60.626,-21.639 92.202,-21.172 78.833,1.155 156.445,53.342 190.958,122.797 4.118,8.332 7.154,17.295 10.884,25.792 L 589.94,-4.262 c -4.506,-17.267 -11.028,-33.298 -23.377,-46.496"
       style="fill:#d2451e;fill-opacity:1;fill-rule:nonzero;stroke:none"
       transform="matrix(1.3333333,0,0,-1.3333333,4781.0372,697.15467)"
       clip-path="url(#clipPath50)" />
    <path
       id="path51"
       d="m 0,0 c -7.267,2.942 -11.742,-7.148 -16.718,-11.218 -85.373,-70.17 -217.421,-86.503 -322.529,-54.965 -17.819,5.362 -34.7,13.968 -52.382,19.742 -109.333,35.635 -251.742,43.252 -364.667,22.602 -42.579,-7.781 -84.135,-20.374 -124.116,-36.432 l 29.62,-94.257 c 17.213,7.479 34.731,14.656 52.691,20.127 114.5,34.838 263.924,32.006 378.976,0.028 27.772,-7.727 54.348,-19.742 82.369,-26.562 109.333,-26.616 233.087,-19.961 332.888,33.82 26.72,14.381 51.368,33.244 73.719,53.481 l 1.189,1.677 -71.065,71.903 z"
       style="fill:#d2451e;fill-opacity:1;fill-rule:nonzero;stroke:none"
       transform="matrix(1.3333333,0,0,-1.3333333,5125.2765,968.22987)"
       clip-path="url(#clipPath52)" />
    <path
       id="path53"
       d="m 0,0 c -2.348,-1.457 -23.126,7.891 -26.967,9.926 -60.511,31.978 -18.789,79.876 33.239,82.516 9.201,0.467 18.568,0 27.63,-1.513 l 0.028,-0.027 z m 202.448,24.086 c 0.497,2.97 -0.47,1.65 -1.935,2.227 -3.591,1.403 -24.535,7.452 -26.801,6.985 C 157.769,7.754 127.57,-13.583 96.264,-13.281 l 39.042,102.753 6.963,2.915 84.079,1.594 34.178,83.671 -2.072,2.09 c -99.137,-9.679 -296.915,30.685 -367.041,-55.515 -28.349,-34.865 -25.116,-84.66 0.939,-119.47 20.971,-28.019 54.073,-44.049 86.483,-55.487 l -66.672,-175.261 v -0.027 H 16.938 l 64.461,173.28 c 47.8,10.064 94.358,35.47 121.049,76.824"
       style="fill:#d2451e;fill-opacity:1;fill-rule:nonzero;stroke:none"
       transform="matrix(1.3333333,0,0,-1.3333333,3762.3655,760.28587)"
       clip-path="url(#clipPath54)" />
    <path
       id="path55"
       d="m 0,0 h -7.292 v 28.074 h 2.266 c 13.094,0 19.647,-4.922 19.647,-14.793 C 14.621,4.427 9.727,0 0,0 m -7.292,83.698 h 3.011 c 11.41,0 17.131,-4.344 17.131,-13.528 0,-9.184 -5.633,-13.775 -16.881,-13.775 H -7.292 Z M 29.517,45.097 c 13.923,5.664 20.881,16.112 20.881,31.315 0,11.713 -4.582,21.42 -13.733,29.091 -9.144,7.699 -23.54,11.548 -43.181,11.548 H -45.56 V -33.325 h 55.649 c 15.748,0 27.19,3.96 34.231,11.906 7.048,7.919 10.584,17.9 10.584,29.943 0,18.179 -8.461,30.378 -25.387,36.573"
       style="fill:#d2451e;fill-opacity:1;fill-rule:nonzero;stroke:none"
       transform="matrix(1.3333333,0,0,-1.3333333,6089.0196,733.59667)"
       clip-path="url(#clipPath56)" />
    <path
       id="path57"
       d="m 2366.121,858.214 h -39.044 V 707.838 h 39.044 z"
       style="fill:#d2451e;fill-opacity:1;fill-rule:nonzero;stroke:none"
       transform="matrix(1.3333333,0,0,-1.3333333,3072.2,1721.8133)"
       clip-path="url(#clipPath58)" />
    <path
       id="path59"
       d="m 0,0 3.536,-15.536 h 27.966 l 0.769,76.192 H -19.866 V 33.6 h 14.865 v -0.247 c 0,-10.202 -3.674,-15.288 -11.078,-15.288 -5.058,0 -8.538,2.831 -10.472,8.523 -1.934,5.665 -2.904,17.543 -2.904,33.573 0,16.03 1.051,26.946 3.154,32.693 2.072,5.747 5.496,8.634 10.196,8.634 l -0.031,0.027 c 4.532,0 7.542,-2.172 9.063,-6.516 1.49,-4.345 2.266,-12.373 2.266,-24.06 h 37.273 c 0.169,24.389 -3.368,41.712 -10.584,51.886 -7.211,10.201 -18.978,15.288 -37.273,15.288 -18.289,0 -31.94,-6.105 -40.915,-18.313 -8.982,-12.181 -13.489,-32.583 -13.489,-59.639 0,-27.056 3.067,-46.936 9.201,-59.639 6.134,-12.703 16.411,-19.054 30.864,-19.054 5.889,0 11.522,1.594 16.88,4.756 C -7.461,-10.614 -3.205,-6.022 0,0"
       style="fill:#d2451e;fill-opacity:1;fill-rule:nonzero;stroke:none"
       transform="matrix(1.3333333,0,0,-1.3333333,6335.4841,757.31573)"
       clip-path="url(#clipPath60)" />
    <path
       id="path61"
       d="m 0,0 h 3.261 c 6.384,0 10.972,-1.43 13.732,-4.262 2.761,-2.832 4.144,-7.863 4.144,-15.04 0,-7.177 -1.465,-12.236 -4.394,-15.151 -2.954,-2.914 -7.43,-4.372 -13.482,-4.372 H 0 Z m 0.031,-116.996 v 44.846 h 3.255 c 38.794,0 58.19,17.79 58.19,52.875 0,35.085 -20.085,52.628 -60.205,52.628 h -39.508 v -150.349 z"
       style="fill:#d2451e;fill-opacity:1;fill-rule:nonzero;stroke:none"
       transform="matrix(1.3333333,0,0,-1.3333333,6486.2355,621.99867)"
       clip-path="url(#clipPath62)" />
    <path
       id="path63"
       d="M 0,0 H 25.919 V 28.815 H -0.031 V 51.39 H 39.013 V 87.245 H -38.299 V -63.131 h 77.838 v 35.855 H 0 Z"
       style="fill:#d2451e;fill-opacity:1;fill-rule:nonzero;stroke:none"
       transform="matrix(1.3333333,0,0,-1.3333333,6631.9793,693.85507)"
       clip-path="url(#clipPath64)" />
    <path
       id="path65"
       d="m 0,0 h -0.056 l -27.44,66.678 H -61.477 V -83.698 h 36.522 V -14.27 L 3.261,-83.698 H 36.528 V 66.678 H 0 Z"
       style="fill:#d2451e;fill-opacity:1;fill-rule:nonzero;stroke:none"
       transform="matrix(1.3333333,0,0,-1.3333333,6782.1049,666.43293)"
       clip-path="url(#clipPath66)" />
    <path
       id="path67"
       d="m 0,0 h -0.056 l -27.44,66.678 h -33.98 V -83.698 h 36.527 V -14.27 L 3.261,-83.698 H 36.528 V 66.678 H 0 Z"
       style="fill:#d2451e;fill-opacity:1;fill-rule:nonzero;stroke:none"
       transform="matrix(1.3333333,0,0,-1.3333333,6931.5291,666.43293)"
       clip-path="url(#clipPath68)" />
    <path
       id="path69"
       d="M 0,0 -18.636,-47.088 -36.747,0 h -41.804 l 39.288,-89.967 v -60.409 H -0.995 V -89.72 L 38.793,0 Z"
       style="fill:#d2451e;fill-opacity:1;fill-rule:nonzero;stroke:none"
       transform="matrix(1.3333333,0,0,-1.3333333,7094.3979,577.52853)"
       clip-path="url(#clipPath70)" />
    <path
       id="path71"
       d="m 0,0 -10.334,5.746 c -0.995,0.661 -2.459,1.486 -4.394,2.503 -1.934,1.017 -3.285,1.732 -4.037,2.145 -0.745,0.412 -1.821,1.017 -3.148,1.869 -1.327,0.825 -2.266,1.54 -2.76,2.145 -0.47,0.605 -1.077,1.292 -1.74,2.145 -0.664,0.825 -1.133,1.65 -1.383,2.502 -0.251,0.824 -0.363,1.732 -0.363,2.75 0,6.323 3.179,9.513 9.563,9.513 4.031,0 7.017,-1.457 8.951,-4.372 1.934,-2.942 2.816,-8.139 2.654,-15.673 h 36.778 c 0,19.055 -3.843,33.05 -11.467,41.987 -7.63,8.936 -20.448,13.418 -36.39,13.418 -15.942,0 -28.322,-4.014 -37.135,-12.043 -8.844,-8.029 -13.238,-18.945 -13.238,-32.83 0,-10.532 2.485,-19.221 7.436,-26.067 4.945,-6.847 13.451,-13.446 25.556,-19.797 l 9.063,-4.757 c 6.384,-3.354 10.722,-6.022 12.987,-8.028 2.266,-2.035 3.399,-4.538 3.399,-7.534 0,-6.875 -3.342,-10.284 -10.058,-10.284 -4.701,0 -7.793,1.787 -9.314,5.389 -1.521,3.602 -2.128,9.046 -1.765,16.415 h -39.788 c -0.833,-21.392 2.847,-36.294 11.078,-44.736 8.231,-8.435 21.393,-12.641 39.499,-12.648 16.746,0.007 29.332,3.746 37.725,11.273 8.375,7.507 12.574,19.22 12.574,35.085 0,10.366 -2.378,18.808 -7.154,25.324 C 17.989,-12.043 10.415,-5.857 0,0"
       style="fill:#d2451e;fill-opacity:1;fill-rule:nonzero;stroke:none"
       transform="matrix(1.3333333,0,0,-1.3333333,6119.4552,900.77253)"
       clip-path="url(#clipPath72)" />
    <path
       id="path73"
       d="M 0,0 C -0.013,0 -0.026,0 -0.04,0 -0.054,0 -0.067,0 -0.081,0 Z"
       style="fill:#d2451e;fill-opacity:1;fill-rule:nonzero;stroke:none"
       transform="matrix(1.3333333,0,0,-1.3333333,6092.3745,1021.0953)"
       clip-path="url(#clipPath74)" />
    <path
       id="path75"
       d="m 0,0 c -1.934,-5.746 -5.333,-8.634 -10.196,-8.634 v 0.028 c -4.694,0 -8.037,2.915 -10.052,8.771 -1.99,5.829 -3.017,17.543 -3.017,33.573 0,16.03 1.052,26.946 3.155,32.692 2.071,5.747 5.332,8.635 10.196,8.635 4.857,0 8.206,-2.777 10.052,-8.387 C 1.99,61.069 2.904,50.428 2.904,33.711 2.904,16.993 1.934,5.747 0,0 m -9.201,111.662 c -18.095,0 -31.714,-6.187 -40.778,-18.56 -9.063,-12.346 -13.594,-32.665 -13.594,-59.391 0,-26.727 4.143,-46.579 12.462,-59.53 8.31,-12.947 21.957,-19.409 40.902,-19.412 18.477,0.003 31.986,6.465 40.547,19.412 8.568,12.951 12.85,32.309 12.85,59.53 0,27.22 -4.363,47.018 -13.094,59.391 -8.732,12.373 -21.193,18.56 -39.295,18.56"
       style="fill:#d2451e;fill-opacity:1;fill-rule:nonzero;stroke:none"
       transform="matrix(1.3333333,0,0,-1.3333333,6253.3653,960.78747)"
       clip-path="url(#clipPath76)" />
    <path
       id="path77"
       d="M 0,0 C -0.004,0 -0.008,0 -0.013,0 -0.017,0 -0.021,0 -0.025,0 Z"
       style="fill:#d2451e;fill-opacity:1;fill-rule:nonzero;stroke:none"
       transform="matrix(1.3333333,0,0,-1.3333333,6239.7707,1021.0953)"
       clip-path="url(#clipPath78)" />
    <path
       id="path79"
       d="m 0,0 c -0.188,-13.033 -1.045,-21.887 -2.648,-26.562 -1.602,-4.674 -4.588,-7.011 -8.956,-7.011 -4.695,0 -8.093,2.915 -10.196,8.771 -2.097,5.829 -3.149,17.543 -3.149,33.573 0,16.03 1.052,26.946 3.149,32.693 2.078,5.747 5.664,8.634 10.196,8.634 4.531,0 7.548,-2.337 9.063,-7.012 1.496,-4.674 2.353,-13.775 2.516,-27.303 H 37.498 C 38.161,41.519 34.731,59.776 27.164,70.555 19.622,81.333 6.691,86.723 -11.104,86.723 -28.898,86.723 -42.38,80.508 -51.531,68.053 -60.7,55.597 -65.263,35.498 -65.263,8.771 c 0,-26.726 4.149,-46.578 12.462,-59.529 8.318,-12.95 21.969,-19.412 40.921,-19.412 h 0.032 c 18.151,0 31.082,5.334 38.793,16.03 7.736,10.696 11.241,28.733 10.578,54.14 z"
       style="fill:#d2451e;fill-opacity:1;fill-rule:nonzero;stroke:none"
       transform="matrix(1.3333333,0,0,-1.3333333,6410.0837,927.5352)"
       clip-path="url(#clipPath80)" />
    <path
       id="path81"
       d="m 2552.734,528.838 h 39.044 v 150.376 h -39.044 z"
       style="fill:#d2451e;fill-opacity:1;fill-rule:nonzero;stroke:none"
       transform="matrix(1.3333333,0,0,-1.3333333,3072.2,1721.8133)"
       clip-path="url(#clipPath82)" />
    <path
       id="path83"
       d="M 0,0 8.318,52.628 17.131,0 Z M -14.339,101.763 -44.815,-48.613 h 36.778 l 3.261,20.292 h 26.689 l 3.261,-20.292 H 63.968 L 34.011,101.763 Z"
       style="fill:#d2451e;fill-opacity:1;fill-rule:nonzero;stroke:none"
       transform="matrix(1.3333333,0,0,-1.3333333,6597.0873,951.87893)"
       clip-path="url(#clipPath84)" />
    <path
       id="path85"
       d="m 0,0 h -38.299 v -150.376 h 78.833 v 35.855 H 0 Z"
       style="fill:#d2451e;fill-opacity:1;fill-rule:nonzero;stroke:none"
       transform="matrix(1.3333333,0,0,-1.3333333,6744.492,816.2312)"
       clip-path="url(#clipPath86)" />
    <path
       id="path87"
       d="M 0,0 5.202,32.759 10.675,0 Z m -8.907,63.461 -19.009,-93.789 h 22.934 l 2.098,12.676 h 16.508 l 2.117,-12.676 H 39.945 L 21.237,63.461 Z"
       style="fill:#d2451e;fill-opacity:1;fill-rule:nonzero;stroke:none"
       transform="matrix(1.3333333,0,0,-1.3333333,5770.5095,813.70147)"
       clip-path="url(#clipPath88)" />
    <path
       id="path89"
       d="M 0,0 H 19.647 V -71.435 H 43.519 V 0 H 63.167 V 22.354 H 0 Z"
       style="fill:#d2451e;fill-opacity:1;fill-rule:nonzero;stroke:none"
       transform="matrix(1.3333333,0,0,-1.3333333,5821.0405,758.89227)"
       clip-path="url(#clipPath90)" />
  </g>
</svg>
