<svg width="343" height="24" viewBox="0 0 343 24" fill="none" xmlns="http://www.w3.org/2000/svg">
<path d="M3.29675 12H17.3008M27.813 12H41.8171M52.3293 12H66.3293M76.8455 12H90.8455M101.362 12H115.362M125.874 12H139.878M150.39 12H164.394M174.907 12H188.907M199.423 12H213.423M223.939 12H237.939M248.451 12H262.455M272.967 12H286.972M297.484 12H311.484M322 12H336M21.8902 12C21.8902 13.24 20.8965 14.2453 19.6707 14.2453C18.4449 14.2453 17.4512 13.24 17.4512 12C17.4512 10.76 18.4449 9.75481 19.6707 9.75481C20.8965 9.75481 21.8902 10.76 21.8902 12ZM23.3008 1C23.3008 1 19.378 5.67962 13.2195 8.69793C7.06097 11.7162 1 11.926 1 11.926C1 11.926 4.92276 7.24635 11.0813 4.22803C17.2398 1.20972 23.3008 1 23.3008 1ZM1 12.074C1 12.074 4.92276 16.7537 11.0813 19.772C17.2398 22.7903 23.3008 23 23.3008 23C23.3008 23 19.378 18.3204 13.2195 15.3021C7.06097 12.2879 1 12.074 1 12.074ZM46.4065 12C46.4065 13.24 45.4128 14.2453 44.187 14.2453C42.9612 14.2453 41.9675 13.24 41.9675 12C41.9675 10.76 42.9612 9.75481 44.187 9.75481C45.4128 9.75481 46.4065 10.76 46.4065 12ZM47.8171 1C47.8171 1 43.8943 5.67962 37.7358 8.69793C31.5772 11.7162 25.5163 11.926 25.5163 11.926C25.5163 11.926 29.439 7.24635 35.5976 4.22803C41.7561 1.20972 47.8171 1 47.8171 1ZM25.5163 12.074C25.5163 12.074 29.439 16.7537 35.5976 19.772C41.7561 22.7903 47.8171 23 47.8171 23C47.8171 23 43.8943 18.3204 37.7358 15.3021C31.5772 12.2838 25.5163 12.074 25.5163 12.074ZM70.9228 12C70.9228 13.24 69.9291 14.2453 68.7033 14.2453C67.4775 14.2453 66.4837 13.24 66.4837 12C66.4837 10.76 67.4775 9.75481 68.7033 9.75481C69.9291 9.75481 70.9228 10.76 70.9228 12ZM72.3333 1C72.3333 1 68.4106 5.67962 62.252 8.69793C56.0935 11.7162 50.0325 11.926 50.0325 11.926C50.0325 11.926 53.9553 7.24635 60.1138 4.22803C66.2723 1.20972 72.3333 1 72.3333 1ZM50.0325 12.074C50.0325 12.074 53.9553 16.7537 60.1138 19.772C66.2723 22.7903 72.3333 23 72.3333 23C72.3333 23 68.4106 18.3204 62.252 15.3021C56.0935 12.2838 50.0325 12.074 50.0325 12.074ZM95.4349 12C95.4349 13.24 94.4412 14.2453 93.2154 14.2453C91.9896 14.2453 90.9959 13.24 90.9959 12C90.9959 10.76 91.9896 9.75481 93.2154 9.75481C94.4412 9.75481 95.4349 10.76 95.4349 12ZM96.8455 1C96.8455 1 92.9228 5.67962 86.7642 8.69793C80.6057 11.7162 74.5447 11.926 74.5447 11.926C74.5447 11.926 78.4675 7.24635 84.626 4.22803C90.7845 1.20972 96.8455 1 96.8455 1ZM74.5447 12.074C74.5447 12.074 78.4675 16.7537 84.626 19.772C90.7845 22.7903 96.8455 23 96.8455 23C96.8455 23 92.9228 18.3204 86.7642 15.3021C80.6057 12.2838 74.5447 12.074 74.5447 12.074ZM119.951 12C119.951 13.24 118.958 14.2453 117.732 14.2453C116.506 14.2453 115.512 13.24 115.512 12C115.512 10.76 116.506 9.75481 117.732 9.75481C118.958 9.75481 119.951 10.76 119.951 12ZM121.362 1C121.362 1 117.439 5.67962 111.28 8.69793C105.122 11.7162 99.061 11.926 99.061 11.926C99.061 11.926 102.984 7.24635 109.142 4.22803C115.301 1.20972 121.362 1 121.362 1ZM99.061 12.074C99.061 12.074 102.984 16.7537 109.142 19.772C115.301 22.7903 121.362 23 121.362 23C121.362 23 117.439 18.3204 111.28 15.3021C105.122 12.2838 99.061 12.074 99.061 12.074ZM144.467 12C144.467 13.24 143.474 14.2453 142.248 14.2453C141.022 14.2453 140.028 13.24 140.028 12C140.028 10.76 141.022 9.75481 142.248 9.75481C143.474 9.75481 144.467 10.76 144.467 12ZM145.878 1C145.878 1 141.955 5.67962 135.797 8.69793C129.638 11.7162 123.577 11.926 123.577 11.926C123.577 11.926 127.5 7.24635 133.659 4.22803C139.817 1.20972 145.878 1 145.878 1ZM123.577 12.074C123.577 12.074 127.5 16.7537 133.659 19.772C139.817 22.7903 145.878 23 145.878 23C145.878 23 141.955 18.3204 135.797 15.3021C129.638 12.2838 123.577 12.074 123.577 12.074ZM168.984 12C168.984 13.24 167.99 14.2453 166.764 14.2453C165.538 14.2453 164.545 13.24 164.545 12C164.545 10.76 165.538 9.75481 166.764 9.75481C167.99 9.75481 168.984 10.76 168.984 12ZM170.394 1C170.394 1 166.472 5.67962 160.313 8.69793C154.154 11.7162 148.093 11.926 148.093 11.926C148.093 11.926 152.016 7.24635 158.175 4.22803C164.333 1.20972 170.394 1 170.394 1ZM148.093 12.074C148.093 12.074 152.016 16.7537 158.175 19.772C164.333 22.7903 170.394 23 170.394 23C170.394 23 166.472 18.3204 160.313 15.3021C154.154 12.2838 148.093 12.074 148.093 12.074ZM193.5 12C193.5 13.24 192.506 14.2453 191.28 14.2453C190.055 14.2453 189.061 13.24 189.061 12C189.061 10.76 190.055 9.75481 191.28 9.75481C192.506 9.75481 193.5 10.76 193.5 12ZM194.911 1C194.911 1 190.988 5.67962 184.829 8.69793C178.671 11.7162 172.61 11.926 172.61 11.926C172.61 11.926 176.532 7.24635 182.691 4.22803C188.85 1.20972 194.911 1 194.911 1ZM172.61 12.074C172.61 12.074 176.533 16.7537 182.691 19.772C188.85 22.7903 194.911 23 194.911 23C194.911 23 190.988 18.3204 184.829 15.3021C178.671 12.2838 172.61 12.074 172.61 12.074ZM218.012 12C218.012 13.24 217.018 14.2453 215.793 14.2453C214.567 14.2453 213.573 13.24 213.573 12C213.573 10.76 214.567 9.75481 215.793 9.75481C217.018 9.75481 218.012 10.76 218.012 12ZM219.423 1C219.423 1 215.5 5.67962 209.341 8.69793C203.183 11.7162 197.122 11.926 197.122 11.926C197.122 11.926 201.045 7.24635 207.203 4.22803C213.362 1.20972 219.423 1 219.423 1ZM197.122 12.074C197.122 12.074 201.045 16.7537 207.203 19.772C213.362 22.7903 219.423 23 219.423 23C219.423 23 215.5 18.3204 209.341 15.3021C203.183 12.2838 197.122 12.074 197.122 12.074ZM242.528 12C242.528 13.24 241.535 14.2453 240.309 14.2453C239.083 14.2453 238.089 13.24 238.089 12C238.089 10.76 239.083 9.75481 240.309 9.75481C241.535 9.75481 242.528 10.76 242.528 12ZM243.939 1C243.939 1 240.016 5.67962 233.858 8.69793C227.699 11.7162 221.638 11.926 221.638 11.926C221.638 11.926 225.561 7.24635 231.72 4.22803C237.878 1.20972 243.939 1 243.939 1ZM221.638 12.074C221.638 12.074 225.561 16.7537 231.72 19.772C237.878 22.7903 243.939 23 243.939 23C243.939 23 240.016 18.3204 233.858 15.3021C227.699 12.2838 221.638 12.074 221.638 12.074ZM267.045 12C267.045 13.24 266.051 14.2453 264.825 14.2453C263.599 14.2453 262.606 13.24 262.606 12C262.606 10.76 263.599 9.75481 264.825 9.75481C266.051 9.75481 267.045 10.76 267.045 12ZM268.455 1C268.455 1 264.532 5.67962 258.374 8.69793C252.215 11.7162 246.154 11.926 246.154 11.926C246.154 11.926 250.077 7.24635 256.236 4.22803C262.394 1.20972 268.455 1 268.455 1ZM246.154 12.074C246.154 12.074 250.077 16.7537 256.236 19.772C262.394 22.7903 268.455 23 268.455 23C268.455 23 264.533 18.3204 258.374 15.3021C252.215 12.2838 246.154 12.074 246.154 12.074ZM291.561 12C291.561 13.24 290.567 14.2453 289.341 14.2453C288.116 14.2453 287.122 13.24 287.122 12C287.122 10.76 288.116 9.75481 289.341 9.75481C290.567 9.75481 291.561 10.76 291.561 12ZM292.972 1C292.972 1 289.049 5.67962 282.89 8.69793C276.732 11.7162 270.671 11.926 270.671 11.926C270.671 11.926 274.594 7.24635 280.752 4.22803C286.911 1.20972 292.972 1 292.972 1ZM270.671 12.074C270.671 12.074 274.593 16.7537 280.752 19.772C286.911 22.7903 292.972 23 292.972 23C292.972 23 289.049 18.3204 282.89 15.3021C276.732 12.2838 270.671 12.074 270.671 12.074ZM316.077 12C316.077 13.24 315.083 14.2453 313.858 14.2453C312.632 14.2453 311.638 13.24 311.638 12C311.638 10.76 312.632 9.75481 313.858 9.75481C315.083 9.75481 316.077 10.76 316.077 12ZM317.488 1C317.488 1 313.565 5.67962 307.407 8.69793C301.248 11.7162 295.187 11.926 295.187 11.926C295.187 11.926 299.11 7.24635 305.268 4.22803C311.427 1.20972 317.488 1 317.488 1ZM295.187 12.074C295.187 12.074 299.11 16.7537 305.268 19.772C311.427 22.7903 317.488 23 317.488 23C317.488 23 313.565 18.3204 307.406 15.3021C301.248 12.2838 295.187 12.074 295.187 12.074ZM340.589 12C340.589 13.24 339.596 14.2453 338.37 14.2453C337.144 14.2453 336.15 13.24 336.15 12C336.15 10.76 337.144 9.75481 338.37 9.75481C339.596 9.75481 340.589 10.76 340.589 12ZM342 1C342 1 338.077 5.67962 331.919 8.69793C325.76 11.7162 319.699 11.926 319.699 11.926C319.699 11.926 323.622 7.24635 329.78 4.22803C335.939 1.20972 342 1 342 1ZM319.699 12.074C319.699 12.074 323.622 16.7537 329.78 19.772C335.939 22.7903 342 23 342 23C342 23 338.077 18.3204 331.919 15.3021C325.76 12.2838 319.699 12.074 319.699 12.074Z" stroke="#D2451E" stroke-linecap="round" stroke-linejoin="round"/>
</svg>
