<svg width="1520" height="46" viewBox="0 0 1520 46" fill="none" xmlns="http://www.w3.org/2000/svg">
<path d="M5.60099 22.7835H33.6548M54.7135 22.7835H82.7673M103.826 22.7835H131.872M152.938 22.7835H180.984M202.051 22.7835H230.097M251.155 22.7835H279.209M300.268 22.7835H328.322M349.38 22.7835H377.426M398.493 22.7835H426.538M447.605 22.7835H475.651M496.71 22.7835H524.763M545.822 22.7835H573.876M594.934 22.7835H622.98M644.047 22.7835H672.093M693.159 22.7835H721.205M742.264 22.7835H770.318M791.376 22.7835H819.43M840.489 22.7835H868.534M889.601 22.7835H917.647M938.714 22.7835H966.759M987.818 22.7835H1015.87M1036.93 22.7835H1064.98M1086.04 22.7835H1114.09M1135.16 22.7835H1163.2M1184.27 22.7835H1212.31M1233.37 22.7835H1261.43M1282.48 22.7835H1310.54M1331.6 22.7835H1359.64M1380.71 22.7835H1408.76M1429.82 22.7835H1457.87M1478.93 22.7835H1506.98M42.8486 22.7835C42.8486 25.2391 40.858 27.2298 38.4024 27.2298C35.9468 27.2298 33.9561 25.2391 33.9561 22.7835C33.9561 20.3279 35.9468 18.3373 38.4024 18.3373C40.858 18.3373 42.8486 20.3279 42.8486 22.7835ZM45.6744 1C45.6744 1 37.816 10.2671 25.4789 16.2443C13.1417 22.2215 1 22.6369 1 22.6369C1 22.6369 8.85832 13.3697 21.1955 7.39252C33.5326 1.41531 45.6744 1 45.6744 1ZM1 22.9301C1 22.9301 8.85832 32.1972 21.1955 38.1744C33.5326 44.1516 45.6744 44.5669 45.6744 44.5669C45.6744 44.5669 37.816 35.2998 25.4789 29.3226C13.1417 23.3535 1 22.9301 1 22.9301ZM91.9611 22.7835C91.9611 25.2391 89.9704 27.2298 87.5148 27.2298C85.0592 27.2298 83.0686 25.2391 83.0686 22.7835C83.0686 20.3279 85.0592 18.3373 87.5148 18.3373C89.9704 18.3373 91.9611 20.3279 91.9611 22.7835ZM94.7868 1C94.7868 1 86.9285 10.2671 74.5914 16.2443C62.2542 22.2215 50.1125 22.6369 50.1125 22.6369C50.1125 22.6369 57.9708 13.3697 70.308 7.39252C82.6451 1.41531 94.7868 1 94.7868 1ZM50.1125 22.9301C50.1125 22.9301 57.9708 32.1972 70.308 38.1744C82.6451 44.1516 94.7868 44.5669 94.7868 44.5669C94.7868 44.5669 86.9285 35.2998 74.5914 29.3226C62.2542 23.3454 50.1125 22.9301 50.1125 22.9301ZM141.074 22.7835C141.074 25.2391 139.083 27.2298 136.627 27.2298C134.172 27.2298 132.181 25.2391 132.181 22.7835C132.181 20.3279 134.172 18.3373 136.627 18.3373C139.083 18.3373 141.074 20.3279 141.074 22.7835ZM143.899 1C143.899 1 136.041 10.2671 123.704 16.2443C111.367 22.2215 99.225 22.6369 99.225 22.6369C99.225 22.6369 107.083 13.3697 119.42 7.39252C131.758 1.41531 143.899 1 143.899 1ZM99.225 22.9301C99.225 22.9301 107.083 32.1972 119.42 38.1744C131.758 44.1516 143.899 44.5669 143.899 44.5669C143.899 44.5669 136.041 35.2998 123.704 29.3226C111.367 23.3454 99.225 22.9301 99.225 22.9301ZM190.178 22.7835C190.178 25.2391 188.187 27.2298 185.732 27.2298C183.276 27.2298 181.285 25.2391 181.285 22.7835C181.285 20.3279 183.276 18.3373 185.732 18.3373C188.187 18.3373 190.178 20.3279 190.178 22.7835ZM193.004 1C193.004 1 185.145 10.2671 172.808 16.2443C160.471 22.2215 148.329 22.6369 148.329 22.6369C148.329 22.6369 156.188 13.3697 168.525 7.39252C180.862 1.41531 193.004 1 193.004 1ZM148.329 22.9301C148.329 22.9301 156.188 32.1972 168.525 38.1744C180.862 44.1516 193.004 44.5669 193.004 44.5669C193.004 44.5669 185.145 35.2998 172.808 29.3226C160.471 23.3454 148.329 22.9301 148.329 22.9301ZM239.29 22.7835C239.29 25.2391 237.3 27.2298 234.844 27.2298C232.389 27.2298 230.398 25.2391 230.398 22.7835C230.398 20.3279 232.389 18.3373 234.844 18.3373C237.3 18.3373 239.29 20.3279 239.29 22.7835ZM242.116 1C242.116 1 234.258 10.2671 221.921 16.2443C209.584 22.2215 197.442 22.6369 197.442 22.6369C197.442 22.6369 205.3 13.3697 217.637 7.39252C229.974 1.41531 242.116 1 242.116 1ZM197.442 22.9301C197.442 22.9301 205.3 32.1972 217.637 38.1744C229.974 44.1516 242.116 44.5669 242.116 44.5669C242.116 44.5669 234.258 35.2998 221.921 29.3226C209.584 23.3454 197.442 22.9301 197.442 22.9301ZM288.403 22.7835C288.403 25.2391 286.412 27.2298 283.957 27.2298C281.501 27.2298 279.51 25.2391 279.51 22.7835C279.51 20.3279 281.501 18.3373 283.957 18.3373C286.412 18.3373 288.403 20.3279 288.403 22.7835ZM291.229 1C291.229 1 283.37 10.2671 271.033 16.2443C258.696 22.2215 246.554 22.6369 246.554 22.6369C246.554 22.6369 254.413 13.3697 266.75 7.39252C279.087 1.41531 291.229 1 291.229 1ZM246.554 22.9301C246.554 22.9301 254.413 32.1972 266.75 38.1744C279.087 44.1516 291.229 44.5669 291.229 44.5669C291.229 44.5669 283.37 35.2998 271.033 29.3226C258.696 23.3454 246.554 22.9301 246.554 22.9301ZM337.515 22.7835C337.515 25.2391 335.525 27.2298 333.069 27.2298C330.613 27.2298 328.623 25.2391 328.623 22.7835C328.623 20.3279 330.613 18.3373 333.069 18.3373C335.525 18.3373 337.515 20.3279 337.515 22.7835ZM340.341 1C340.341 1 332.483 10.2671 320.146 16.2443C307.809 22.2215 295.667 22.6369 295.667 22.6369C295.667 22.6369 303.525 13.3697 315.862 7.39252C328.199 1.41531 340.341 1 340.341 1ZM295.667 22.9301C295.667 22.9301 303.525 32.1972 315.862 38.1744C328.199 44.1516 340.341 44.5669 340.341 44.5669C340.341 44.5669 332.483 35.2998 320.146 29.3226C307.808 23.3454 295.667 22.9301 295.667 22.9301ZM386.628 22.7835C386.628 25.2391 384.637 27.2298 382.182 27.2298C379.726 27.2298 377.735 25.2391 377.735 22.7835C377.735 20.3279 379.726 18.3373 382.182 18.3373C384.637 18.3373 386.628 20.3279 386.628 22.7835ZM389.454 1C389.454 1 381.595 10.2671 369.258 16.2443C356.921 22.2215 344.779 22.6369 344.779 22.6369C344.779 22.6369 352.638 13.3697 364.975 7.39252C377.312 1.41531 389.454 1 389.454 1ZM344.779 22.9301C344.779 22.9301 352.638 32.1972 364.975 38.1744C377.312 44.1516 389.454 44.5669 389.454 44.5669C389.454 44.5669 381.595 35.2998 369.258 29.3226C356.921 23.3454 344.779 22.9301 344.779 22.9301ZM435.732 22.7835C435.732 25.2391 433.742 27.2298 431.286 27.2298C428.83 27.2298 426.84 25.2391 426.84 22.7835C426.84 20.3279 428.83 18.3373 431.286 18.3373C433.742 18.3373 435.732 20.3279 435.732 22.7835ZM438.558 1C438.558 1 430.7 10.2671 418.362 16.2443C406.025 22.2215 393.884 22.6369 393.884 22.6369C393.884 22.6369 401.742 13.3697 414.079 7.39252C426.416 1.41531 438.558 1 438.558 1ZM393.884 22.9301C393.884 22.9301 401.742 32.1972 414.079 38.1744C426.416 44.1516 438.558 44.5669 438.558 44.5669C438.558 44.5669 430.7 35.2998 418.362 29.3226C406.025 23.3454 393.884 22.9301 393.884 22.9301ZM484.845 22.7835C484.845 25.2391 482.854 27.2298 480.398 27.2298C477.943 27.2298 475.952 25.2391 475.952 22.7835C475.952 20.3279 477.943 18.3373 480.398 18.3373C482.854 18.3373 484.845 20.3279 484.845 22.7835ZM487.67 1C487.67 1 479.812 10.2671 467.475 16.2443C455.138 22.2215 442.996 22.6369 442.996 22.6369C442.996 22.6369 450.854 13.3697 463.192 7.39252C475.529 1.41531 487.67 1 487.67 1ZM442.996 22.9301C442.996 22.9301 450.854 32.1972 463.192 38.1744C475.529 44.1516 487.67 44.5669 487.67 44.5669C487.67 44.5669 479.812 35.2998 467.475 29.3226C455.138 23.3454 442.996 22.9301 442.996 22.9301ZM533.957 22.7835C533.957 25.2391 531.967 27.2298 529.511 27.2298C527.055 27.2298 525.065 25.2391 525.065 22.7835C525.065 20.3279 527.055 18.3373 529.511 18.3373C531.967 18.3373 533.957 20.3279 533.957 22.7835ZM536.783 1C536.783 1 528.925 10.2671 516.587 16.2443C504.25 22.2215 492.109 22.6369 492.109 22.6369C492.109 22.6369 499.967 13.3697 512.304 7.39252C524.641 1.41531 536.783 1 536.783 1ZM492.109 22.9301C492.109 22.9301 499.967 32.1972 512.304 38.1744C524.641 44.1516 536.783 44.5669 536.783 44.5669C536.783 44.5669 528.925 35.2998 516.587 29.3226C504.25 23.3454 492.109 22.9301 492.109 22.9301ZM583.07 22.7835C583.07 25.2391 581.079 27.2298 578.623 27.2298C576.168 27.2298 574.177 25.2391 574.177 22.7835C574.177 20.3279 576.168 18.3373 578.623 18.3373C581.079 18.3373 583.07 20.3279 583.07 22.7835ZM585.895 1C585.895 1 578.037 10.2671 565.7 16.2443C553.363 22.2215 541.221 22.6369 541.221 22.6369C541.221 22.6369 549.079 13.3697 561.417 7.39252C573.754 1.41531 585.895 1 585.895 1ZM541.221 22.9301C541.221 22.9301 549.079 32.1972 561.417 38.1744C573.754 44.1516 585.895 44.5669 585.895 44.5669C585.895 44.5669 578.037 35.2998 565.7 29.3226C553.363 23.3454 541.221 22.9301 541.221 22.9301ZM632.182 22.7835C632.182 25.2391 630.191 27.2298 627.736 27.2298C625.28 27.2298 623.29 25.2391 623.29 22.7835C623.29 20.3279 625.28 18.3373 627.736 18.3373C630.191 18.3373 632.182 20.3279 632.182 22.7835ZM635.008 1C635.008 1 627.15 10.2671 614.812 16.2443C602.475 22.2215 590.334 22.6369 590.334 22.6369C590.334 22.6369 598.192 13.3697 610.529 7.39252C622.866 1.41531 635.008 1 635.008 1ZM590.334 22.9301C590.334 22.9301 598.192 32.1972 610.529 38.1744C622.866 44.1516 635.008 44.5669 635.008 44.5669C635.008 44.5669 627.15 35.2998 614.812 29.3226C602.475 23.3454 590.334 22.9301 590.334 22.9301ZM681.286 22.7835C681.286 25.2391 679.296 27.2298 676.84 27.2298C674.385 27.2298 672.394 25.2391 672.394 22.7835C672.394 20.3279 674.385 18.3373 676.84 18.3373C679.296 18.3373 681.286 20.3279 681.286 22.7835ZM684.112 1C684.112 1 676.254 10.2671 663.917 16.2443C651.58 22.2215 639.438 22.6369 639.438 22.6369C639.438 22.6369 647.296 13.3697 659.633 7.39252C671.971 1.41531 684.112 1 684.112 1ZM639.438 22.9301C639.438 22.9301 647.296 32.1972 659.633 38.1744C671.971 44.1516 684.112 44.5669 684.112 44.5669C684.112 44.5669 676.254 35.2998 663.917 29.3226C651.58 23.3454 639.438 22.9301 639.438 22.9301ZM730.399 22.7835C730.399 25.2391 728.408 27.2298 725.953 27.2298C723.497 27.2298 721.506 25.2391 721.506 22.7835C721.506 20.3279 723.497 18.3373 725.953 18.3373C728.408 18.3373 730.399 20.3279 730.399 22.7835ZM733.225 1C733.225 1 725.366 10.2671 713.029 16.2443C700.692 22.2215 688.55 22.6369 688.55 22.6369C688.55 22.6369 696.409 13.3697 708.746 7.39252C721.083 1.41531 733.225 1 733.225 1ZM688.55 22.9301C688.55 22.9301 696.409 32.1972 708.746 38.1744C721.083 44.1516 733.225 44.5669 733.225 44.5669C733.225 44.5669 725.366 35.2998 713.029 29.3226C700.692 23.3454 688.55 22.9301 688.55 22.9301ZM779.511 22.7835C779.511 25.2391 777.521 27.2298 775.065 27.2298C772.61 27.2298 770.619 25.2391 770.619 22.7835C770.619 20.3279 772.61 18.3373 775.065 18.3373C777.521 18.3373 779.511 20.3279 779.511 22.7835ZM782.337 1C782.337 1 774.479 10.2671 762.142 16.2443C749.805 22.2215 737.663 22.6369 737.663 22.6369C737.663 22.6369 745.521 13.3697 757.858 7.39252C770.195 1.41531 782.337 1 782.337 1ZM737.663 22.9301C737.663 22.9301 745.521 32.1972 757.858 38.1744C770.195 44.1516 782.337 44.5669 782.337 44.5669C782.337 44.5669 774.479 35.2998 762.142 29.3226C749.805 23.3454 737.663 22.9301 737.663 22.9301ZM828.624 22.7835C828.624 25.2391 826.633 27.2298 824.178 27.2298C821.722 27.2298 819.731 25.2391 819.731 22.7835C819.731 20.3279 821.722 18.3373 824.178 18.3373C826.633 18.3373 828.624 20.3279 828.624 22.7835ZM831.45 1C831.45 1 823.591 10.2671 811.254 16.2443C798.917 22.2215 786.775 22.6369 786.775 22.6369C786.775 22.6369 794.634 13.3697 806.971 7.39252C819.308 1.41531 831.45 1 831.45 1ZM786.775 22.9301C786.775 22.9301 794.634 32.1972 806.971 38.1744C819.308 44.1516 831.45 44.5669 831.45 44.5669C831.45 44.5669 823.591 35.2998 811.254 29.3226C798.917 23.3454 786.775 22.9301 786.775 22.9301ZM877.736 22.7835C877.736 25.2391 875.746 27.2298 873.29 27.2298C870.835 27.2298 868.844 25.2391 868.844 22.7835C868.844 20.3279 870.835 18.3373 873.29 18.3373C875.746 18.3373 877.736 20.3279 877.736 22.7835ZM880.562 1C880.562 1 872.704 10.2671 860.367 16.2443C848.03 22.2215 835.888 22.6369 835.888 22.6369C835.888 22.6369 843.746 13.3697 856.083 7.39252C868.42 1.41531 880.562 1 880.562 1ZM835.888 22.9301C835.888 22.9301 843.746 32.1972 856.083 38.1744C868.42 44.1516 880.562 44.5669 880.562 44.5669C880.562 44.5669 872.704 35.2998 860.367 29.3226C848.03 23.3454 835.888 22.9301 835.888 22.9301ZM926.841 22.7835C926.841 25.2391 924.85 27.2298 922.394 27.2298C919.939 27.2298 917.948 25.2391 917.948 22.7835C917.948 20.3279 919.939 18.3373 922.394 18.3373C924.85 18.3373 926.841 20.3279 926.841 22.7835ZM929.667 1C929.667 1 921.808 10.2671 909.471 16.2443C897.134 22.2215 884.992 22.6369 884.992 22.6369C884.992 22.6369 892.85 13.3697 905.188 7.39252C917.525 1.41531 929.667 1 929.667 1ZM884.992 22.9301C884.992 22.9301 892.85 32.1972 905.188 38.1744C917.525 44.1516 929.667 44.5669 929.667 44.5669C929.667 44.5669 921.808 35.2998 909.471 29.3226C897.134 23.3454 884.992 22.9301 884.992 22.9301ZM975.953 22.7835C975.953 25.2391 973.963 27.2298 971.507 27.2298C969.051 27.2298 967.061 25.2391 967.061 22.7835C967.061 20.3279 969.051 18.3373 971.507 18.3373C973.963 18.3373 975.953 20.3279 975.953 22.7835ZM978.779 1C978.779 1 970.921 10.2671 958.584 16.2443C946.246 22.2215 934.105 22.6369 934.105 22.6369C934.105 22.6369 941.963 13.3697 954.3 7.39252C966.637 1.41531 978.779 1 978.779 1ZM934.105 22.9301C934.105 22.9301 941.963 32.1972 954.3 38.1744C966.637 44.1516 978.779 44.5669 978.779 44.5669C978.779 44.5669 970.921 35.2998 958.584 29.3226C946.246 23.3454 934.105 22.9301 934.105 22.9301ZM1025.07 22.7835C1025.07 25.2391 1023.08 27.2298 1020.62 27.2298C1018.16 27.2298 1016.17 25.2391 1016.17 22.7835C1016.17 20.3279 1018.16 18.3373 1020.62 18.3373C1023.08 18.3373 1025.07 20.3279 1025.07 22.7835ZM1027.89 1C1027.89 1 1020.03 10.2671 1007.7 16.2443C995.359 22.2215 983.217 22.6369 983.217 22.6369C983.217 22.6369 991.075 13.3697 1003.41 7.39252C1015.75 1.41531 1027.89 1 1027.89 1ZM983.217 22.9301C983.217 22.9301 991.075 32.1972 1003.41 38.1744C1015.75 44.1516 1027.89 44.5669 1027.89 44.5669C1027.89 44.5669 1020.03 35.2998 1007.7 29.3226C995.359 23.3454 983.217 22.9301 983.217 22.9301ZM1074.18 22.7835C1074.18 25.2391 1072.19 27.2298 1069.73 27.2298C1067.28 27.2298 1065.29 25.2391 1065.29 22.7835C1065.29 20.3279 1067.28 18.3373 1069.73 18.3373C1072.19 18.3373 1074.18 20.3279 1074.18 22.7835ZM1077 1C1077 1 1069.15 10.2671 1056.81 16.2443C1044.47 22.2215 1032.33 22.6369 1032.33 22.6369C1032.33 22.6369 1040.19 13.3697 1052.53 7.39252C1064.86 1.41531 1077 1 1077 1ZM1032.33 22.9301C1032.33 22.9301 1040.19 32.1972 1052.53 38.1744C1064.86 44.1516 1077 44.5669 1077 44.5669C1077 44.5669 1069.15 35.2998 1056.81 29.3226C1044.47 23.3454 1032.33 22.9301 1032.33 22.9301ZM1123.29 22.7835C1123.29 25.2391 1121.3 27.2298 1118.84 27.2298C1116.39 27.2298 1114.4 25.2391 1114.4 22.7835C1114.4 20.3279 1116.39 18.3373 1118.84 18.3373C1121.3 18.3373 1123.29 20.3279 1123.29 22.7835ZM1126.12 1C1126.12 1 1118.26 10.2671 1105.92 16.2443C1093.58 22.2215 1081.44 22.6369 1081.44 22.6369C1081.44 22.6369 1089.3 13.3697 1101.64 7.39252C1113.97 1.41531 1126.12 1 1126.12 1ZM1081.44 22.9301C1081.44 22.9301 1089.3 32.1972 1101.64 38.1744C1113.97 44.1516 1126.12 44.5669 1126.12 44.5669C1126.12 44.5669 1118.26 35.2998 1105.92 29.3226C1093.58 23.3454 1081.44 22.9301 1081.44 22.9301ZM1172.4 22.7835C1172.4 25.2391 1170.4 27.2298 1167.95 27.2298C1165.49 27.2298 1163.5 25.2391 1163.5 22.7835C1163.5 20.3279 1165.49 18.3373 1167.95 18.3373C1170.4 18.3373 1172.4 20.3279 1172.4 22.7835ZM1175.22 1C1175.22 1 1167.36 10.2671 1155.03 16.2443C1142.69 22.2215 1130.55 22.6369 1130.55 22.6369C1130.55 22.6369 1138.4 13.3697 1150.74 7.39252C1163.08 1.41531 1175.22 1 1175.22 1ZM1130.55 22.9301C1130.55 22.9301 1138.4 32.1972 1150.74 38.1744C1163.08 44.1516 1175.22 44.5669 1175.22 44.5669C1175.22 44.5669 1167.36 35.2998 1155.03 29.3226C1142.69 23.3454 1130.55 22.9301 1130.55 22.9301ZM1221.51 22.7835C1221.51 25.2391 1219.52 27.2298 1217.06 27.2298C1214.61 27.2298 1212.61 25.2391 1212.61 22.7835C1212.61 20.3279 1214.61 18.3373 1217.06 18.3373C1219.52 18.3373 1221.51 20.3279 1221.51 22.7835ZM1224.33 1C1224.33 1 1216.47 10.2671 1204.14 16.2443C1191.8 22.2215 1179.66 22.6369 1179.66 22.6369C1179.66 22.6369 1187.52 13.3697 1199.85 7.39252C1212.19 1.41531 1224.33 1 1224.33 1ZM1179.66 22.9301C1179.66 22.9301 1187.52 32.1972 1199.85 38.1744C1212.19 44.1516 1224.33 44.5669 1224.33 44.5669C1224.33 44.5669 1216.47 35.2998 1204.14 29.3226C1191.8 23.3454 1179.66 22.9301 1179.66 22.9301ZM1270.62 22.7835C1270.62 25.2391 1268.63 27.2298 1266.17 27.2298C1263.72 27.2298 1261.73 25.2391 1261.73 22.7835C1261.73 20.3279 1263.72 18.3373 1266.17 18.3373C1268.63 18.3373 1270.62 20.3279 1270.62 22.7835ZM1273.45 1C1273.45 1 1265.59 10.2671 1253.25 16.2443C1240.91 22.2215 1228.77 22.6369 1228.77 22.6369C1228.77 22.6369 1236.63 13.3697 1248.97 7.39252C1261.3 1.41531 1273.45 1 1273.45 1ZM1228.77 22.9301C1228.77 22.9301 1236.63 32.1972 1248.97 38.1744C1261.3 44.1516 1273.45 44.5669 1273.45 44.5669C1273.45 44.5669 1265.59 35.2998 1253.25 29.3226C1240.91 23.3454 1228.77 22.9301 1228.77 22.9301ZM1319.73 22.7835C1319.73 25.2391 1317.74 27.2298 1315.29 27.2298C1312.83 27.2298 1310.84 25.2391 1310.84 22.7835C1310.84 20.3279 1312.83 18.3373 1315.29 18.3373C1317.74 18.3373 1319.73 20.3279 1319.73 22.7835ZM1322.56 1C1322.56 1 1314.7 10.2671 1302.36 16.2443C1290.03 22.2215 1277.88 22.6369 1277.88 22.6369C1277.88 22.6369 1285.74 13.3697 1298.08 7.39252C1310.42 1.41531 1322.56 1 1322.56 1ZM1277.88 22.9301C1277.88 22.9301 1285.74 32.1972 1298.08 38.1744C1310.42 44.1516 1322.56 44.5669 1322.56 44.5669C1322.56 44.5669 1314.7 35.2998 1302.36 29.3226C1290.03 23.3454 1277.88 22.9301 1277.88 22.9301ZM1368.84 22.7835C1368.84 25.2391 1366.85 27.2298 1364.4 27.2298C1361.94 27.2298 1359.95 25.2391 1359.95 22.7835C1359.95 20.3279 1361.94 18.3373 1364.4 18.3373C1366.85 18.3373 1368.84 20.3279 1368.84 22.7835ZM1371.67 1C1371.67 1 1363.81 10.2671 1351.48 16.2443C1339.14 22.2215 1327 22.6369 1327 22.6369C1327 22.6369 1334.85 13.3697 1347.19 7.39252C1359.53 1.41531 1371.67 1 1371.67 1ZM1327 22.9301C1327 22.9301 1334.85 32.1972 1347.19 38.1744C1359.53 44.1516 1371.67 44.5669 1371.67 44.5669C1371.67 44.5669 1363.81 35.2998 1351.48 29.3226C1339.14 23.3454 1327 22.9301 1327 22.9301ZM1417.95 22.7835C1417.95 25.2391 1415.96 27.2298 1413.5 27.2298C1411.05 27.2298 1409.06 25.2391 1409.06 22.7835C1409.06 20.3279 1411.05 18.3373 1413.5 18.3373C1415.96 18.3373 1417.95 20.3279 1417.95 22.7835ZM1420.78 1C1420.78 1 1412.92 10.2671 1400.58 16.2443C1388.24 22.2215 1376.1 22.6369 1376.1 22.6369C1376.1 22.6369 1383.96 13.3697 1396.3 7.39252C1408.63 1.41531 1420.78 1 1420.78 1ZM1376.1 22.9301C1376.1 22.9301 1383.96 32.1972 1396.3 38.1744C1408.63 44.1516 1420.78 44.5669 1420.78 44.5669C1420.78 44.5669 1412.92 35.2998 1400.58 29.3226C1388.24 23.3454 1376.1 22.9301 1376.1 22.9301ZM1467.06 22.7835C1467.06 25.2391 1465.07 27.2298 1462.62 27.2298C1460.16 27.2298 1458.17 25.2391 1458.17 22.7835C1458.17 20.3279 1460.16 18.3373 1462.62 18.3373C1465.07 18.3373 1467.06 20.3279 1467.06 22.7835ZM1469.89 1C1469.89 1 1462.03 10.2671 1449.69 16.2443C1437.35 22.2215 1425.21 22.6369 1425.21 22.6369C1425.21 22.6369 1433.07 13.3697 1445.41 7.39252C1457.75 1.41531 1469.89 1 1469.89 1ZM1425.21 22.9301C1425.21 22.9301 1433.07 32.1972 1445.41 38.1744C1457.75 44.1516 1469.89 44.5669 1469.89 44.5669C1469.89 44.5669 1462.03 35.2998 1449.69 29.3226C1437.35 23.3454 1425.21 22.9301 1425.21 22.9301ZM1516.17 22.7835C1516.17 25.2391 1514.18 27.2298 1511.73 27.2298C1509.27 27.2298 1507.28 25.2391 1507.28 22.7835C1507.28 20.3279 1509.27 18.3373 1511.73 18.3373C1514.18 18.3373 1516.17 20.3279 1516.17 22.7835ZM1519 1C1519 1 1511.14 10.2671 1498.8 16.2443C1486.47 22.2215 1474.33 22.6369 1474.33 22.6369C1474.33 22.6369 1482.18 13.3697 1494.52 7.39252C1506.86 1.41531 1519 1 1519 1ZM1474.33 22.9301C1474.33 22.9301 1482.18 32.1972 1494.52 38.1744C1506.86 44.1516 1519 44.5669 1519 44.5669C1519 44.5669 1511.14 35.2998 1498.8 29.3226C1486.47 23.3454 1474.33 22.9301 1474.33 22.9301Z" stroke="#D2451E" stroke-width="2" stroke-linecap="round" stroke-linejoin="round"/>
</svg>
