<svg width="690" height="43" viewBox="0 0 690 43" fill="none" xmlns="http://www.w3.org/2000/svg">
<path d="M5.32208 21.5H31.6757M51.4581 21.5H77.804M97.594 21.5H123.94M143.73 21.5H170.076M189.858 21.5H216.212M235.994 21.5H262.348M282.13 21.5H308.476M328.266 21.5H354.612M374.402 21.5H400.748M420.531 21.5H446.884M466.667 21.5H493.02M512.802 21.5H539.148M558.938 21.5H585.284M605.074 21.5H631.42M651.203 21.5H677.556M40.3123 21.5001C40.3123 23.811 38.4423 25.6844 36.1355 25.6844C33.8287 25.6844 31.9587 23.811 31.9587 21.5001C31.9587 19.1891 33.8287 17.3158 36.1355 17.3158C38.4423 17.3158 40.3123 19.1891 40.3123 21.5001ZM42.9669 1C42.9669 1 35.5848 9.72111 23.9953 15.3461C12.4058 20.9712 1 21.362 1 21.362C1 21.362 8.38204 12.6409 19.9715 7.01588C31.5609 1.39084 42.9669 1 42.9669 1ZM1 21.638C1 21.638 8.38198 30.3591 19.9714 35.9841C31.5609 41.6092 42.9668 42 42.9668 42C42.9668 42 35.5848 33.2789 23.9953 27.6538C12.4058 22.0288 1 21.638 1 21.638ZM86.4483 21.5001C86.4483 23.811 84.5783 25.6844 82.2715 25.6844C79.9648 25.6844 78.0947 23.811 78.0947 21.5001C78.0947 19.1891 79.9648 17.3158 82.2715 17.3158C84.5783 17.3158 86.4483 19.1891 86.4483 21.5001ZM89.1028 1C89.1028 1 81.7208 9.72111 70.1313 15.3461C58.5419 20.9712 47.136 21.362 47.136 21.362C47.136 21.362 54.518 12.6409 66.1075 7.01588C77.6969 1.39084 89.1028 1 89.1028 1ZM47.136 21.638C47.136 21.638 54.518 30.3591 66.1075 35.9841C77.6969 41.6092 89.1027 42 89.1027 42C89.1027 42 81.7207 33.2789 70.1313 27.6538C58.5418 22.0288 47.136 21.638 47.136 21.638ZM132.577 21.5001C132.577 23.811 130.707 25.6844 128.4 25.6844C126.093 25.6844 124.223 23.811 124.223 21.5001C124.223 19.1891 126.093 17.3158 128.4 17.3158C130.707 17.3158 132.577 19.1891 132.577 21.5001ZM135.231 1C135.231 1 127.849 9.72111 116.26 15.3461C104.67 20.9712 93.2643 21.362 93.2643 21.362C93.2643 21.362 100.646 12.6409 112.236 7.01588C123.825 1.39084 135.231 1 135.231 1ZM93.2643 21.638C93.2643 21.638 100.646 30.3591 112.236 35.9841C123.825 41.6092 135.231 42 135.231 42C135.231 42 127.849 33.2789 116.26 27.6538C104.67 22.0288 93.2643 21.638 93.2643 21.638ZM178.713 21.5001C178.713 23.811 176.843 25.6844 174.536 25.6844C172.229 25.6844 170.359 23.811 170.359 21.5001C170.359 19.1891 172.229 17.3158 174.536 17.3158C176.843 17.3158 178.713 19.1891 178.713 21.5001ZM181.367 1C181.367 1 173.985 9.72111 162.396 15.3461C150.806 20.9712 139.4 21.362 139.4 21.362C139.4 21.362 146.782 12.6409 158.372 7.01588C169.961 1.39084 181.367 1 181.367 1ZM139.4 21.638C139.4 21.638 146.782 30.3591 158.372 35.9841C169.961 41.6092 181.367 42 181.367 42C181.367 42 173.985 33.2789 162.396 27.6538C150.806 22.0288 139.4 21.638 139.4 21.638ZM224.849 21.5001C224.849 23.811 222.979 25.6844 220.672 25.6844C218.365 25.6844 216.495 23.811 216.495 21.5001C216.495 19.1891 218.365 17.3158 220.672 17.3158C222.979 17.3158 224.849 19.1891 224.849 21.5001ZM227.503 1C227.503 1 220.121 9.72111 208.531 15.3461C196.942 20.9712 185.536 21.362 185.536 21.362C185.536 21.362 192.918 12.6409 204.508 7.01588C216.097 1.39084 227.503 1 227.503 1ZM185.536 21.638C185.536 21.638 192.918 30.3591 204.508 35.9841C216.097 41.6092 227.503 42 227.503 42C227.503 42 220.121 33.2789 208.531 27.6538C196.942 22.0288 185.536 21.638 185.536 21.638ZM270.985 21.5001C270.985 23.811 269.115 25.6844 266.808 25.6844C264.501 25.6844 262.631 23.811 262.631 21.5001C262.631 19.1891 264.501 17.3158 266.808 17.3158C269.115 17.3158 270.985 19.1891 270.985 21.5001ZM273.639 1C273.639 1 266.257 9.72111 254.667 15.3461C243.078 20.9712 231.672 21.362 231.672 21.362C231.672 21.362 239.054 12.6409 250.644 7.01588C262.233 1.39084 273.639 1 273.639 1ZM231.672 21.638C231.672 21.638 239.054 30.3591 250.644 35.9841C262.233 41.6092 273.639 42 273.639 42C273.639 42 266.257 33.2789 254.667 27.6538C243.078 22.0288 231.672 21.638 231.672 21.638ZM317.121 21.5001C317.121 23.811 315.25 25.6844 312.944 25.6844C310.637 25.6844 308.767 23.811 308.767 21.5001C308.767 19.1891 310.637 17.3158 312.944 17.3158C315.25 17.3158 317.121 19.1891 317.121 21.5001ZM319.775 1C319.775 1 312.393 9.72111 300.803 15.3461C289.214 20.9712 277.808 21.362 277.808 21.362C277.808 21.362 285.19 12.6409 296.78 7.01588C308.369 1.39084 319.775 1 319.775 1ZM277.808 21.638C277.808 21.638 285.19 30.3591 296.78 35.9841C308.369 41.6092 319.775 42 319.775 42C319.775 42 312.393 33.2789 300.803 27.6538C289.214 22.0288 277.808 21.638 277.808 21.638ZM363.249 21.5001C363.249 23.811 361.379 25.6844 359.072 25.6844C356.765 25.6844 354.895 23.811 354.895 21.5001C354.895 19.1891 356.765 17.3158 359.072 17.3158C361.379 17.3158 363.249 19.1891 363.249 21.5001ZM365.903 1C365.903 1 358.521 9.72111 346.932 15.3461C335.342 20.9712 323.936 21.362 323.936 21.362C323.936 21.362 331.319 12.6409 342.908 7.01588C354.498 1.39084 365.903 1 365.903 1ZM323.936 21.638C323.936 21.638 331.319 30.3591 342.908 35.9841C354.498 41.6092 365.903 42 365.903 42C365.903 42 358.521 33.2789 346.932 27.6538C335.342 22.0288 323.936 21.638 323.936 21.638ZM409.385 21.5001C409.385 23.811 407.515 25.6844 405.208 25.6844C402.901 25.6844 401.031 23.811 401.031 21.5001C401.031 19.1891 402.901 17.3158 405.208 17.3158C407.515 17.3158 409.385 19.1891 409.385 21.5001ZM412.039 1C412.039 1 404.657 9.72111 393.068 15.3461C381.478 20.9712 370.073 21.362 370.073 21.362C370.073 21.362 377.454 12.6409 389.044 7.01588C400.633 1.39084 412.039 1 412.039 1ZM370.073 21.638C370.073 21.638 377.454 30.3591 389.044 35.9841C400.633 41.6092 412.039 42 412.039 42C412.039 42 404.657 33.2789 393.068 27.6538C381.478 22.0288 370.073 21.638 370.073 21.638ZM455.521 21.5001C455.521 23.811 453.651 25.6844 451.344 25.6844C449.037 25.6844 447.167 23.811 447.167 21.5001C447.167 19.1891 449.037 17.3158 451.344 17.3158C453.651 17.3158 455.521 19.1891 455.521 21.5001ZM458.175 1C458.175 1 450.793 9.72111 439.204 15.3461C427.614 20.9712 416.208 21.362 416.208 21.362C416.208 21.362 423.59 12.6409 435.18 7.01588C446.769 1.39084 458.175 1 458.175 1ZM416.208 21.638C416.208 21.638 423.59 30.3591 435.18 35.9841C446.769 41.6092 458.175 42 458.175 42C458.175 42 450.793 33.2789 439.204 27.6538C427.614 22.0288 416.208 21.638 416.208 21.638ZM501.657 21.5001C501.657 23.811 499.787 25.6844 497.48 25.6844C495.173 25.6844 493.303 23.811 493.303 21.5001C493.303 19.1891 495.173 17.3158 497.48 17.3158C499.787 17.3158 501.657 19.1891 501.657 21.5001ZM504.311 1C504.311 1 496.929 9.72111 485.34 15.3461C473.75 20.9712 462.344 21.362 462.344 21.362C462.344 21.362 469.727 12.6409 481.316 7.01588C492.905 1.39084 504.311 1 504.311 1ZM462.344 21.638C462.344 21.638 469.726 30.3591 481.316 35.9841C492.905 41.6092 504.311 42 504.311 42C504.311 42 496.929 33.2789 485.34 27.6538C473.75 22.0288 462.344 21.638 462.344 21.638ZM547.793 21.5001C547.793 23.811 545.923 25.6844 543.616 25.6844C541.309 25.6844 539.439 23.811 539.439 21.5001C539.439 19.1891 541.309 17.3158 543.616 17.3158C545.923 17.3158 547.793 19.1891 547.793 21.5001ZM550.447 1C550.447 1 543.065 9.72111 531.476 15.3461C519.886 20.9712 508.48 21.362 508.48 21.362C508.48 21.362 515.862 12.6409 527.452 7.01588C539.041 1.39084 550.447 1 550.447 1ZM508.48 21.638C508.48 21.638 515.862 30.3591 527.452 35.9841C539.041 41.6092 550.447 42 550.447 42C550.447 42 543.065 33.2789 531.476 27.6538C519.886 22.0288 508.48 21.638 508.48 21.638ZM593.921 21.5001C593.921 23.811 592.051 25.6844 589.744 25.6844C587.437 25.6844 585.567 23.811 585.567 21.5001C585.567 19.1891 587.437 17.3158 589.744 17.3158C592.051 17.3158 593.921 19.1891 593.921 21.5001ZM596.575 1C596.575 1 589.193 9.72111 577.604 15.3461C566.015 20.9712 554.609 21.362 554.609 21.362C554.609 21.362 561.991 12.6409 573.58 7.01588C585.17 1.39084 596.575 1 596.575 1ZM554.609 21.638C554.609 21.638 561.991 30.3591 573.58 35.9841C585.17 41.6092 596.575 42 596.575 42C596.575 42 589.193 33.2789 577.604 27.6538C566.015 22.0288 554.609 21.638 554.609 21.638ZM640.057 21.5001C640.057 23.811 638.187 25.6844 635.88 25.6844C633.573 25.6844 631.703 23.811 631.703 21.5001C631.703 19.1891 633.573 17.3158 635.88 17.3158C638.187 17.3158 640.057 19.1891 640.057 21.5001ZM642.712 1C642.712 1 635.329 9.72111 623.74 15.3461C612.151 20.9712 600.745 21.362 600.745 21.362C600.745 21.362 608.127 12.6409 619.716 7.01588C631.306 1.39084 642.712 1 642.712 1ZM600.745 21.638C600.745 21.638 608.127 30.3591 619.716 35.9841C631.306 41.6092 642.712 42 642.712 42C642.712 42 635.329 33.2789 623.74 27.6538C612.15 22.0288 600.745 21.638 600.745 21.638ZM686.193 21.5001C686.193 23.811 684.323 25.6844 682.016 25.6844C679.709 25.6844 677.839 23.811 677.839 21.5001C677.839 19.1891 679.709 17.3158 682.016 17.3158C684.323 17.3158 686.193 19.1891 686.193 21.5001ZM688.847 1C688.847 1 681.465 9.72111 669.876 15.3461C658.287 20.9712 646.881 21.362 646.881 21.362C646.881 21.362 654.263 12.6409 665.852 7.01588C677.442 1.39084 688.847 1 688.847 1ZM646.881 21.638C646.881 21.638 654.263 30.3591 665.852 35.9841C677.442 41.6092 688.847 42 688.847 42C688.847 42 681.465 33.2789 669.876 27.6538C658.287 22.0288 646.881 21.638 646.881 21.638Z" stroke="#D2451E" stroke-width="2" stroke-linecap="round" stroke-linejoin="round"/>
</svg>
