<svg width="1728" height="560" viewBox="0 0 1728 560" fill="none" xmlns="http://www.w3.org/2000/svg">
<path d="M118 64.0001C118 65.1047 118.895 66.0001 120 66.0001C121.105 66.0001 122 65.1047 122 64.0001H118ZM242 64.0001C242 65.1047 242.895 66.0001 244 66.0001C245.105 66.0001 246 65.1047 246 64.0001H242ZM366 64.0001C366 65.1047 366.895 66.0001 368 66.0001C369.105 66.0001 370 65.1047 370 64.0001H366ZM490 64.0001C490 65.1047 490.895 66.0001 492 66.0001C493.105 66.0001 494 65.1047 494 64.0001H490ZM614 64.0001C614 65.1047 614.895 66.0001 616 66.0001C617.105 66.0001 618 65.1047 618 64.0001H614ZM738 64.0001C738 65.1047 738.895 66.0001 740 66.0001C741.105 66.0001 742 65.1047 742 64.0001H738ZM862 64.0001C862 65.1047 862.895 66.0001 864 66.0001C865.105 66.0001 866 65.1047 866 64.0001H862ZM986 64.0001C986 65.1047 986.895 66.0001 988 66.0001C989.105 66.0001 990 65.1047 990 64.0001H986ZM1110 64.0001C1110 65.1047 1110.9 66.0001 1112 66.0001C1113.1 66.0001 1114 65.1047 1114 64.0001H1110ZM1234 64.0001C1234 65.1047 1234.9 66.0001 1236 66.0001C1237.1 66.0001 1238 65.1047 1238 64.0001H1234ZM1358 64.0001C1358 65.1047 1358.9 66.0001 1360 66.0001C1361.1 66.0001 1362 65.1047 1362 64.0001H1358ZM1482 64.0001C1482 65.1047 1482.9 66.0001 1484 66.0001C1485.1 66.0001 1486 65.1047 1486 64.0001H1482ZM1606 64.0001C1606 65.1047 1606.9 66.0001 1608 66.0001C1609.1 66.0001 1610 65.1047 1610 64.0001H1606ZM1732 508.046V510.046C1733.1 510.046 1734 509.151 1734 508.046H1732ZM1730.77 508.046V506.046C1729.82 506.046 1729 506.717 1728.81 507.65L1730.77 508.046ZM1609.23 508.046L1611.19 507.65C1611 506.717 1610.18 506.046 1609.23 506.046V508.046ZM1606.77 508.046V506.046C1605.82 506.046 1605 506.717 1604.81 507.65L1606.77 508.046ZM1485.23 508.046L1487.19 507.65C1487 506.717 1486.18 506.046 1485.23 506.046V508.046ZM1482.77 508.046V506.046C1481.82 506.046 1481 506.717 1480.81 507.65L1482.77 508.046ZM1361.23 508.046L1363.19 507.65C1363 506.717 1362.18 506.046 1361.23 506.046V508.046ZM1358.77 508.046V506.046C1357.82 506.046 1357 506.717 1356.81 507.65L1358.77 508.046ZM1237.23 508.046L1239.19 507.65C1239 506.717 1238.18 506.046 1237.23 506.046V508.046ZM1234.77 508.046V506.046C1233.82 506.046 1233 506.717 1232.81 507.65L1234.77 508.046ZM1113.23 508.046L1115.19 507.65C1115 506.717 1114.18 506.046 1113.23 506.046V508.046ZM1110.77 508.046V506.046C1109.82 506.046 1109 506.717 1108.81 507.65L1110.77 508.046ZM989.229 508.046L991.189 507.65C991 506.717 990.18 506.046 989.229 506.046V508.046ZM986.771 508.046V506.046C985.82 506.046 985 506.717 984.811 507.65L986.771 508.046ZM865.229 508.046L867.189 507.65C867 506.717 866.18 506.046 865.229 506.046V508.046ZM862.771 508.046V506.046C861.82 506.046 861 506.717 860.811 507.65L862.771 508.046ZM741.229 508.046L743.189 507.65C743 506.717 742.18 506.046 741.229 506.046V508.046ZM738.771 508.046V506.046C737.82 506.046 737 506.717 736.811 507.65L738.771 508.046ZM617.229 508.046L619.189 507.65C619 506.717 618.18 506.046 617.229 506.046V508.046ZM614.771 508.046V506.046C613.82 506.046 613 506.717 612.811 507.65L614.771 508.046ZM493.229 508.046L495.189 507.65C495.001 506.717 494.181 506.046 493.229 506.046V508.046ZM490.771 508.046V506.046C489.819 506.046 488.999 506.717 488.811 507.65L490.771 508.046ZM369.229 508.046L371.189 507.65C371.001 506.717 370.181 506.046 369.229 506.046V508.046ZM366.771 508.046V506.046C365.819 506.046 364.999 506.717 364.811 507.65L366.771 508.046ZM245.229 508.046L247.189 507.65C247.001 506.717 246.181 506.046 245.229 506.046V508.046ZM242.771 508.046V506.046C241.819 506.046 240.999 506.717 240.811 507.65L242.771 508.046ZM121.229 508.046L123.189 507.65C123.001 506.717 122.181 506.046 121.229 506.046V508.046ZM118.771 508.046V506.046C117.819 506.046 116.999 506.717 116.811 507.65L118.771 508.046ZM-2.7714 508.046L-0.810997 507.65C-0.999478 506.717 -1.81948 506.046 -2.7714 506.046V508.046ZM-4 508.046H-6C-6 509.151 -5.10457 510.046 -4 510.046L-4 508.046ZM122 64C122 28.6538 93.3462 0 58 0V4C91.1371 4 118 30.8629 118 64H122ZM122 64.0001V64H118V64.0001H122ZM182 9.44138e-05C146.654 9.44138e-05 118 28.6539 118 64.0001H122C122 30.863 148.863 4.00009 182 4.00009V9.44138e-05ZM246 64.0001C246 28.6539 217.346 9.44138e-05 182 9.44138e-05V4.00009C215.137 4.00009 242 30.863 242 64.0001H246ZM306 9.44138e-05C270.654 9.44138e-05 242 28.6539 242 64.0001H246C246 30.863 272.863 4.00009 306 4.00009V9.44138e-05ZM370 64.0001C370 28.6539 341.346 9.44138e-05 306 9.44138e-05V4.00009C339.137 4.00009 366 30.863 366 64.0001H370ZM430 9.44138e-05C394.654 9.44138e-05 366 28.6539 366 64.0001H370C370 30.863 396.863 4.00009 430 4.00009V9.44138e-05ZM494 64.0001C494 28.6539 465.346 9.44138e-05 430 9.44138e-05V4.00009C463.137 4.00009 490 30.863 490 64.0001H494ZM554 9.44138e-05C518.654 9.44138e-05 490 28.6539 490 64.0001H494C494 30.863 520.863 4.00009 554 4.00009V9.44138e-05ZM618 64.0001C618 28.6539 589.346 9.44138e-05 554 9.44138e-05V4.00009C587.137 4.00009 614 30.863 614 64.0001H618ZM678 9.44138e-05C642.654 9.44138e-05 614 28.6539 614 64.0001H618C618 30.863 644.863 4.00009 678 4.00009V9.44138e-05ZM742 64.0001C742 28.6539 713.346 9.44138e-05 678 9.44138e-05V4.00009C711.137 4.00009 738 30.863 738 64.0001H742ZM802 9.44138e-05C766.654 9.44138e-05 738 28.6539 738 64.0001H742C742 30.863 768.863 4.00009 802 4.00009V9.44138e-05ZM866 64.0001C866 28.6539 837.346 9.44138e-05 802 9.44138e-05V4.00009C835.137 4.00009 862 30.863 862 64.0001H866ZM926 9.44138e-05C890.654 9.44138e-05 862 28.6539 862 64.0001H866C866 30.863 892.863 4.00009 926 4.00009V9.44138e-05ZM990 64.0001C990 28.6539 961.346 9.44138e-05 926 9.44138e-05V4.00009C959.137 4.00009 986 30.863 986 64.0001H990ZM1050 9.44138e-05C1014.65 9.44138e-05 986 28.6539 986 64.0001H990C990 30.863 1016.86 4.00009 1050 4.00009V9.44138e-05ZM1114 64.0001C1114 28.6539 1085.35 9.44138e-05 1050 9.44138e-05V4.00009C1083.14 4.00009 1110 30.863 1110 64.0001H1114ZM1174 9.44138e-05C1138.65 9.44138e-05 1110 28.6539 1110 64.0001H1114C1114 30.863 1140.86 4.00009 1174 4.00009V9.44138e-05ZM1238 64.0001C1238 28.6539 1209.35 9.44138e-05 1174 9.44138e-05V4.00009C1207.14 4.00009 1234 30.863 1234 64.0001H1238ZM1298 9.44138e-05C1262.65 9.44138e-05 1234 28.6539 1234 64.0001H1238C1238 30.863 1264.86 4.00009 1298 4.00009V9.44138e-05ZM1362 64.0001C1362 28.6539 1333.35 9.44138e-05 1298 9.44138e-05V4.00009C1331.14 4.00009 1358 30.863 1358 64.0001H1362ZM1422 9.44138e-05C1386.65 9.44138e-05 1358 28.6539 1358 64.0001H1362C1362 30.863 1388.86 4.00009 1422 4.00009V9.44138e-05ZM1486 64.0001C1486 28.6539 1457.35 9.44138e-05 1422 9.44138e-05V4.00009C1455.14 4.00009 1482 30.863 1482 64.0001H1486ZM1546 9.44138e-05C1510.65 9.44138e-05 1482 28.6539 1482 64.0001H1486C1486 30.863 1512.86 4.00009 1546 4.00009V9.44138e-05ZM1610 64.0001C1610 28.6539 1581.35 9.44138e-05 1546 9.44138e-05V4.00009C1579.14 4.00009 1606 30.863 1606 64.0001H1610ZM1670 9.44138e-05C1634.65 9.44138e-05 1606 28.6539 1606 64.0001H1610C1610 30.863 1636.86 4.00009 1670 4.00009V9.44138e-05ZM1734 64.0001C1734 28.6539 1705.35 9.44138e-05 1670 9.44138e-05V4.00009C1703.14 4.00009 1730 30.863 1730 64.0001H1734ZM1734 495.704V64.0001H1730V495.704H1734ZM1734 508.046V495.704H1730V508.046H1734ZM1730.77 510.046H1732V506.046H1730.77V510.046ZM1728.81 507.65C1723.27 535.064 1699.04 555.704 1670 555.704V559.704C1700.99 559.704 1726.82 537.685 1732.73 508.442L1728.81 507.65ZM1670 555.704C1640.96 555.704 1616.73 535.064 1611.19 507.65L1607.27 508.442C1613.18 537.685 1639.01 559.704 1670 559.704V555.704ZM1606.77 510.046H1609.23V506.046H1606.77V510.046ZM1546 559.704C1576.99 559.704 1602.82 537.685 1608.73 508.442L1604.81 507.65C1599.27 535.064 1575.04 555.704 1546 555.704V559.704ZM1483.27 508.442C1489.18 537.685 1515.01 559.704 1546 559.704V555.704C1516.96 555.704 1492.73 535.064 1487.19 507.65L1483.27 508.442ZM1482.77 510.046H1485.23V506.046H1482.77V510.046ZM1422 559.704C1452.99 559.704 1478.82 537.685 1484.73 508.442L1480.81 507.65C1475.27 535.064 1451.04 555.704 1422 555.704V559.704ZM1359.27 508.442C1365.18 537.685 1391.01 559.704 1422 559.704V555.704C1392.96 555.704 1368.73 535.064 1363.19 507.65L1359.27 508.442ZM1358.77 510.046H1361.23V506.046H1358.77V510.046ZM1298 559.704C1328.99 559.704 1354.82 537.685 1360.73 508.442L1356.81 507.65C1351.27 535.064 1327.04 555.704 1298 555.704V559.704ZM1235.27 508.442C1241.18 537.685 1267.01 559.704 1298 559.704V555.704C1268.96 555.704 1244.73 535.064 1239.19 507.65L1235.27 508.442ZM1234.77 510.046H1237.23V506.046H1234.77V510.046ZM1174 559.704C1204.99 559.704 1230.82 537.685 1236.73 508.442L1232.81 507.65C1227.27 535.064 1203.04 555.704 1174 555.704V559.704ZM1111.27 508.442C1117.18 537.685 1143.01 559.704 1174 559.704V555.704C1144.96 555.704 1120.73 535.064 1115.19 507.65L1111.27 508.442ZM1110.77 510.046H1113.23V506.046H1110.77V510.046ZM1050 559.704C1080.99 559.704 1106.82 537.685 1112.73 508.442L1108.81 507.65C1103.27 535.064 1079.04 555.704 1050 555.704V559.704ZM987.268 508.442C993.175 537.685 1019.01 559.704 1050 559.704V555.704C1020.96 555.704 996.727 535.064 991.189 507.65L987.268 508.442ZM986.771 510.046H989.229V506.046H986.771V510.046ZM926 559.704C956.986 559.704 982.825 537.685 988.732 508.442L984.811 507.65C979.273 535.064 955.045 555.704 926 555.704V559.704ZM863.268 508.442C869.175 537.685 895.014 559.704 926 559.704V555.704C896.955 555.704 872.727 535.064 867.189 507.65L863.268 508.442ZM862.771 510.046H865.229V506.046H862.771V510.046ZM802 559.704C832.986 559.704 858.825 537.685 864.732 508.442L860.811 507.65C855.273 535.064 831.045 555.704 802 555.704V559.704ZM739.268 508.442C745.175 537.685 771.014 559.704 802 559.704V555.704C772.955 555.704 748.727 535.064 743.189 507.65L739.268 508.442ZM738.771 510.046H741.229V506.046H738.771V510.046ZM678 559.704C708.986 559.704 734.825 537.685 740.732 508.442L736.811 507.65C731.273 535.064 707.045 555.704 678 555.704V559.704ZM615.268 508.442C621.175 537.685 647.014 559.704 678 559.704V555.704C648.955 555.704 624.727 535.064 619.189 507.65L615.268 508.442ZM614.771 510.046H617.229V506.046H614.771V510.046ZM554 559.704C584.986 559.704 610.825 537.685 616.732 508.442L612.811 507.65C607.273 535.064 583.045 555.704 554 555.704V559.704ZM491.268 508.442C497.175 537.685 523.014 559.704 554 559.704V555.704C524.955 555.704 500.727 535.064 495.189 507.65L491.268 508.442ZM490.771 510.046H493.229V506.046H490.771V510.046ZM430 559.704C460.986 559.704 486.825 537.685 492.732 508.442L488.811 507.65C483.273 535.064 459.045 555.704 430 555.704V559.704ZM367.268 508.442C373.175 537.685 399.014 559.704 430 559.704V555.704C400.955 555.704 376.727 535.064 371.189 507.65L367.268 508.442ZM366.771 510.046H369.229V506.046H366.771V510.046ZM306 559.704C336.986 559.704 362.825 537.685 368.732 508.442L364.811 507.65C359.273 535.064 335.045 555.704 306 555.704V559.704ZM243.268 508.442C249.175 537.685 275.014 559.704 306 559.704V555.704C276.955 555.704 252.727 535.064 247.189 507.65L243.268 508.442ZM242.771 510.046H245.229V506.046H242.771V510.046ZM182 559.704C212.986 559.704 238.825 537.685 244.732 508.442L240.811 507.65C235.273 535.064 211.045 555.704 182 555.704V559.704ZM119.268 508.442C125.175 537.685 151.014 559.704 182 559.704V555.704C152.955 555.704 128.727 535.064 123.189 507.65L119.268 508.442ZM118.771 510.046H121.229V506.046H118.771V510.046ZM58 559.704C88.9859 559.704 114.825 537.685 120.732 508.442L116.811 507.65C111.273 535.064 87.0448 555.704 58 555.704V559.704ZM-4.7318 508.442C1.17531 537.685 27.0141 559.704 58 559.704V555.704C28.9552 555.704 4.72658 535.064 -0.810997 507.65L-4.7318 508.442ZM-4 510.046H-2.7714V506.046H-4V510.046ZM-6 495.704V508.046H-2V495.704H-6ZM-6 64.0001V495.704H-2V64.0001H-6ZM-6 64V64.0001H-2V64H-6ZM58 0C22.6538 0 -6 28.6538 -6 64H-2C-2 30.8629 24.8629 4 58 4V0Z" fill="#D2451E"/>
</svg>
