<svg width="1728" height="738" viewBox="0 0 1728 738" fill="none" xmlns="http://www.w3.org/2000/svg">
<rect y="62" width="1728" height="614" fill="#D2451E"/>
<circle cx="61.7143" cy="61.7143" r="61.7143" fill="#D2451E"/>
<circle cx="185.143" cy="61.7143" r="61.7143" fill="#D2451E"/>
<circle cx="308.571" cy="61.7143" r="61.7143" fill="#D2451E"/>
<circle cx="432" cy="61.7143" r="61.7143" fill="#D2451E"/>
<circle cx="555.429" cy="61.7143" r="61.7143" fill="#D2451E"/>
<circle cx="678.857" cy="61.7143" r="61.7143" fill="#D2451E"/>
<circle cx="802.286" cy="61.7143" r="61.7143" fill="#D2451E"/>
<circle cx="925.714" cy="61.7143" r="61.7143" fill="#D2451E"/>
<circle cx="1049.14" cy="61.7143" r="61.7143" fill="#D2451E"/>
<circle cx="1172.57" cy="61.7143" r="61.7143" fill="#D2451E"/>
<circle cx="1296" cy="61.7143" r="61.7143" fill="#D2451E"/>
<circle cx="1419.43" cy="61.7143" r="61.7143" fill="#D2451E"/>
<circle cx="1542.86" cy="61.7143" r="61.7143" fill="#D2451E"/>
<circle cx="1666.29" cy="61.7143" r="61.7143" fill="#D2451E"/>
<circle cx="61.7143" cy="675.714" r="61.7143" fill="#D2451E"/>
<circle cx="185.143" cy="675.714" r="61.7143" fill="#D2451E"/>
<circle cx="308.571" cy="675.714" r="61.7143" fill="#D2451E"/>
<circle cx="432" cy="675.714" r="61.7143" fill="#D2451E"/>
<circle cx="555.429" cy="675.714" r="61.7143" fill="#D2451E"/>
<circle cx="678.857" cy="675.714" r="61.7143" fill="#D2451E"/>
<circle cx="802.286" cy="675.714" r="61.7143" fill="#D2451E"/>
<circle cx="925.714" cy="675.714" r="61.7143" fill="#D2451E"/>
<circle cx="1049.14" cy="675.714" r="61.7143" fill="#D2451E"/>
<circle cx="1172.57" cy="675.714" r="61.7143" fill="#D2451E"/>
<circle cx="1296" cy="675.714" r="61.7143" fill="#D2451E"/>
<circle cx="1419.43" cy="675.714" r="61.7143" fill="#D2451E"/>
<circle cx="1542.86" cy="675.714" r="61.7143" fill="#D2451E"/>
<circle cx="1666.29" cy="675.714" r="61.7143" fill="#D2451E"/>
</svg>
